<svg xmlns="http://www.w3.org/2000/svg" width="512" height="512" fill="none"><g clip-path="url(#a)"><circle cx="256" cy="256" r="256" fill="#0052B4"/><path fill="#EEE" d="M302.7 233.7a103.1 103.1 0 0 0 0 206 103.1 103.1 0 0 0 0-206Zm0 20c46 0 83 37 83 83s-37 83-83 83-83-37-83-83 37-83 83-83Z"/><path fill="#EEE" d="M209.4 72.3a103.1 103.1 0 0 0 0 206 103.1 103.1 0 0 0 0-206Zm0 20c46 0 83 37 83 83s-37 83-83 83-83-37-83-83 37-83 83-83Z"/><path fill="#EEE" d="M302.7 72.3a103.1 103.1 0 0 0 0 206 103.1 103.1 0 0 0 0-206Zm0 20c46 0 83 37 83 83s-37 83-83 83-83-37-83-83 37-83 83-83Z"/><path fill="#EEE" d="M349.2 153a103.1 103.1 0 0 0 0 206 103.1 103.1 0 0 0 0-206Zm0 20c46 0 83 37 83 83s-37 83-83 83-83-37-83-83 37-83 83-83Z"/><path fill="#EEE" d="M209.4 233.7a103.1 103.1 0 0 0 0 206 103.1 103.1 0 0 0 0-206Zm0 20c46 0 83 37 83 83s-37 83-83 83-83-37-83-83 37-83 83-83Z"/><path fill="#EEE" d="M162.8 153a103.1 103.1 0 0 0 0 206 103.1 103.1 0 0 0 0-206Zm0 20c46 0 83 37 83 83s-37 83-83 83-83-37-83-83 37-83 83-83Z"/><path fill="#EEE" d="M256 153.1a103.1 103.1 0 0 0 0 206 103.1 103.1 0 0 0 0-206Zm0 20c46 0 83 37 83 83 0 45.9-37 83-83 83s-83-37.1-83-83c0-46 37-83 83-83Z"/></g><defs><clipPath id="a"><path fill="#fff" d="M0 0h512v512H0z"/></clipPath></defs></svg>