<svg xmlns="http://www.w3.org/2000/svg" width="512" height="512" fill="none"><g fill-rule="evenodd" clip-path="url(#a)" clip-rule="evenodd"><path fill="#338AF3" d="M464.8 404.1A255.7 255.7 0 0 1 256 512 255.7 255.7 0 0 1 47.2 404.1L256 378l208.8 26.1Z"/><path fill="#F5A9B8" d="M5.2 307.4 256 276l250.8 31.4A254.2 254.2 0 0 1 460.5 410h-409A254.8 254.8 0 0 1 5.2 307.4Z"/><path fill="#EEE" d="M506.7 308a257 257 0 0 0-.1-104.7L256 172 5.4 203.3A257 257 0 0 0 5.3 308h501.4Z"/><path fill="#F5A9B8" d="M506.7 204H5.3A255 255 0 0 1 57 94.9L256 70l199 24.9A255 255 0 0 1 506.6 204Z"/><path fill="#338AF3" d="M460.5 102h-409C98.2 40 172.5 0 256 0c83.6 0 157.8 40 204.5 102Z"/></g><defs><clipPath id="a"><path fill="#fff" d="M0 0h512v512H0z"/></clipPath></defs></svg>