<svg xmlns="http://www.w3.org/2000/svg" width="512" height="512" fill="none"><g fill-rule="evenodd" clip-path="url(#a)" clip-rule="evenodd"><path fill="#9C27B0" d="M454.4 417.8A255.5 255.5 0 0 1 256 512c-80 0-151.5-36.7-198.4-94.2L256 393l198.4 24.8Z"/><path fill="#0052B4" d="M63.7 425c-22-25-39.2-54.4-50.2-86.7L256 308l242.5 30.3a255.7 255.7 0 0 1-50.2 86.7H63.7Z"/><path fill="#6DA544" d="M497.9 340a255.6 255.6 0 0 0 14.1-85l-256-32L0 255a261.1 261.1 0 0 0 14.1 85h483.8Z"/><path fill="#FFDA44" d="M512 255H0c.1-30.5 5.6-59.8 15.5-87L256 138l240.5 30a254 254 0 0 1 15.5 87Z"/><path fill="#FF9811" d="M497.2 170H14.8a256.1 256.1 0 0 1 59.4-94.3L256 53l181.8 22.7a256.1 256.1 0 0 1 59.4 94.3Z"/><path fill="#D80027" d="M446.5 85h-381A255.4 255.4 0 0 1 256 0c75.7 0 143.6 32.8 190.5 85Z"/></g><defs><clipPath id="a"><path fill="#fff" d="M0 0h512v512H0z"/></clipPath></defs></svg>