<svg xmlns="http://www.w3.org/2000/svg" width="512" height="512" fill="none"><g clip-path="url(#a)"><circle cx="256" cy="256" r="256" fill="#0052B4"/><path fill="#EEE" fill-rule="evenodd" d="M244.9 33.4H267v44.5h-22V33.4Zm121 240.5 46-17.9-46-17.9-25.3-9.8-41-16-16-41a89.4 89.4 0 0 1 57 57l25.3 9.8a112 112 0 0 0-92-92l-17.9-46-17.9 46a112 112 0 0 0-92 92l-46 17.9 46 17.9a112 112 0 0 0 92 92l17.9 46 17.9-46a112 112 0 0 0 92-92Zm-83.5-44.3L256 256v-94.4l26.4 68ZM256 256v94.4l-26.4-68L256 256Zm0 0h94.4l-68 26.4L256 256Zm0 0-26.4-26.4-68 26.4H256Zm-27.7-84.6-16 41-41 16a89.4 89.4 0 0 1 57-57Zm-57 112.3 41 16 16 41a89.4 89.4 0 0 1-57-57Zm112.4 57 16-41 41-16a89.4 89.4 0 0 1-57 57ZM77.9 244.8H33.4V267h44.5v-22ZM245 434h22v44.5h-22V434Zm233.7-189.2h-44.5V267h44.5v-22Z" clip-rule="evenodd"/></g><defs><clipPath id="a"><path fill="#fff" d="M0 0h512v512H0z"/></clipPath></defs></svg>