<svg xmlns="http://www.w3.org/2000/svg" width="512" height="512" fill="none"><g clip-path="url(#a)"><circle cx="256" cy="256" r="256" fill="#338AF3"/><path fill="#EEE" fill-rule="evenodd" d="M358.3 136A144.8 144.8 0 0 1 296 376.4a37 37 0 0 1-3.6 40.8L259 390.5l-3-2.5-29.2 23.4-7.2 5.8a37 37 0 0 1-3.8-40.4 144.8 144.8 0 0 1-62.9-241.6l23.7 23.6a111.3 111.3 0 1 0 158.1.8l23.6-23.6Zm-192 101.5a89 89 0 1 1 178 0 89 89 0 0 1-178 0Zm89-22.2a22.3 22.3 0 1 0 0 44.5 22.3 22.3 0 0 0 0-44.5Zm11.8-20.7c4 1.1 7.8 2.8 11.2 4.9l16-16a65.2 65.2 0 0 0-27.2-11.7v22.8Zm-34 4.3a47 47 0 0 1 11.8-4.7v-22.6a66.4 66.4 0 0 0-27.9 11.2l16.1 16.1Zm11.8 82a47 47 0 0 1-11.8-4.7l-16 16a66.4 66.4 0 0 0 27.8 11.3v-22.7Zm33.4-5.3a44.2 44.2 0 0 1-11.2 4.8v22.9c10-1.9 19.3-5.9 27.3-11.6l-16-16Zm20-27c-1 4-2.5 7.7-4.4 11l16 16.2c5.7-8 9.5-17.2 11.2-27.1h-22.7Zm0-22.2h22.8a66.4 66.4 0 0 0-11.1-27.1l-16.1 16.1c2 3.4 3.5 7.1 4.5 11Zm-81.1-12-16-16a66.4 66.4 0 0 0-11.8 28h22.7c1.1-4.3 2.8-8.3 5-12Zm-5 34.3h-22.8a66.4 66.4 0 0 0 11.7 28l16-16a48.4 48.4 0 0 1-5-12Z" clip-rule="evenodd"/></g><defs><clipPath id="a"><path fill="#fff" d="M0 0h512v512H0z"/></clipPath></defs></svg>