<svg xmlns="http://www.w3.org/2000/svg" width="512" height="512" fill="none"><path fill="#FFDA44" d="M128 477.8A254.8 254.8 0 0 0 256 512c46.6 0 90.3-12.5 128-34.2V34.2A254.8 254.8 0 0 0 256 0c-46.6 0-90.3 12.5-128 34.2v443.6Z"/><path fill="#0052B4" d="M0 256A256 256 0 0 1 144 25.6v460.6A256 256 0 0 1 0 256v-.1Z"/><path fill="#D80027" d="M512 256A256 256 0 0 0 368 25.7v460.6A256 256 0 0 0 512 256Zm-256 89v-89h66.8v33.4c0 5.8-11.1 27-38.6 44.5-10.4 6.6-21.2 8.8-28.2 11.1Zm-66.8-155.8H256V256h-66.8v-66.8Z"/><path fill="#FF9811" d="M289.4 167a22.3 22.3 0 0 0-33.4-19.3 22.3 22.3 0 0 0-33.4 19.3H167v111.3c0 41.4 32.9 65.4 58.7 77.8a22.3 22.3 0 0 0 30.3 30.5 22.3 22.3 0 0 0 30.3-30.5c25.8-12.4 58.7-36.4 58.7-77.8V167h-55.6Zm22.3 111.3c0 5.8 0 23.4-27.5 40.9a136.5 136.5 0 0 1-28.2 13.3c-7-2.4-17.8-6.7-28.2-13.3-27.5-17.5-27.5-35.1-27.5-41v-77.9h111.4v78Z"/></svg>