<svg xmlns="http://www.w3.org/2000/svg" width="512" height="512"><mask id="a"><circle cx="256" cy="256" r="256" fill="#fff"/></mask><g mask="url(#a)"><path fill="#ffffff" d="M0 0h512v512H0z" style="fill:#fff"/><g fill="#eee"><path d="M130.8 222.7c0 12.2-10 22.2-22.3 22.2v33.4c30.7 0 55.7-25 55.7-55.7v-77.9h-33.4zM370.1 144.7v78c0 12.2-10 22.2-22.3 22.2v33.4c30.7 0 55.7-25 55.7-55.7v-77.9H370ZM270 189.2a5.6 5.6 0 0 1-11.2 0v-44.5h-33.4v44.5a5.6 5.6 0 0 1-11.1 0v-44.5h-33.4v44.5a39 39 0 0 0 39 39 38.7 38.7 0 0 0 22.2-7 38.7 38.7 0 0 0 22.2 7c1.7 0 3.4-.1 5-.3a22.3 22.3 0 0 1-21.6 17v33.4c30.6 0 55.6-25 55.6-55.7v-77.9H270Z" style="fill:#000" transform="matrix(1.1976 0 0 1.1976 -46.61 -15.169)"/><path d="M320 144.7h33.4v78H320ZM180.9 244.9h50v33.4h-50z" style="fill:#000" transform="matrix(1.1976 0 0 1.1976 -46.61 -15.169)"/></g></g></svg>