<svg xmlns="http://www.w3.org/2000/svg" width="512" height="512" fill="none"><circle cx="256" cy="256" r="256" fill="#A2001D"/><path fill="#F3F3F3" d="M358.4 307.2H153.6L256 512l102.4-204.8Z"/><path fill="#0052B4" d="m153.6 307.2-51.2-102.4h307.2l-51.2 102.4H153.6Z"/><path fill="#333" d="M51.2 102.4A255.6 255.6 0 0 1 256 0c83.7 0 158.1 40.2 204.8 102.4l-51.2 102.4H102.4L51.2 102.4Z"/><path fill="#FFDA44" d="M367.3 204.8H144.7l45.5-21.4-24.2-44 49.3 9.4 6.3-49.9 34.4 36.7L290.4 99l6.3 50 49.3-9.5-24.2 44 45.5 21.4Z"/></svg>