<svg xmlns="http://www.w3.org/2000/svg" viewBox="0 0 512 512"><circle cx="256" cy="256" r="256" fill="#d80027"/><path d="M400.696 190.009H307.97c5.724-5.994 9.247-14.109 9.247-23.052 0-18.441-14.95-33.391-33.391-33.391-11.618 0-21.845 5.936-27.826 14.937-5.981-9.001-16.209-14.937-27.826-14.937-18.441 0-33.391 14.95-33.391 33.391 0 8.943 3.523 17.059 9.247 23.052h-92.725c0 24.589 21.417 44.521 46.004 44.521h-1.484c0 24.59 19.933 44.523 44.523 44.523 0 7.964 2.099 15.43 5.763 21.894l-36.93 36.931 28.334 28.332 40.192-40.191a30.501 30.501 0 0 0 4.885 1.355l-24.287 54.835L256 422.957l37.695-40.75-24.287-54.835a30.369 30.369 0 0 0 4.885-1.355l40.192 40.191 28.334-28.333-36.931-36.931a44.239 44.239 0 0 0 5.764-21.894c24.589 0 44.522-19.932 44.522-44.523h-1.483c24.587.002 46.005-19.929 46.005-44.518z"/></svg>