<svg xmlns="http://www.w3.org/2000/svg" viewBox="0 0 100 100"><mask id="a"><circle cx="50" cy="50" r="50" fill="#fff"/></mask><g mask="url(#a)"><path fill="#eee" d="M0 0h512v512H0z"/><rect width="34" height="100" x="33" fill="red"/><rect width="34" height="100.45" x="33" y="-0.22" fill="#012a87" transform="translate(100) rotate(90)"/><polygon fill="#fff" points="50.5 34.99 51.64 37.3 54.19 37.66 52.34 39.46 52.78 42 50.5 40.8 48.22 42 48.66 39.46 46.81 37.66 49.36 37.3 50.5 34.99"/><polygon fill="#fff" points="59.5 56.99 60.64 59.3 63.19 59.66 61.34 61.46 61.78 64 59.5 62.8 57.22 64 57.66 61.46 55.81 59.66 58.36 59.3 59.5 56.99"/><polygon fill="#fff" points="41.5 56.99 42.64 59.3 45.19 59.66 43.34 61.46 43.78 64 41.5 62.8 39.22 64 39.66 61.46 37.81 59.66 40.36 59.3 41.5 56.99"/><polygon fill="#fff" points="72.5 43.99 73.64 46.3 76.19 46.66 74.34 48.46 74.78 51 72.5 49.8 70.22 51 70.66 48.46 68.81 46.66 71.36 46.3 72.5 43.99"/><polygon fill="#fff" points="27.5 43.99 28.64 46.3 31.19 46.66 29.34 48.46 29.78 51 27.5 49.8 25.22 51 25.66 48.46 23.81 46.66 26.36 46.3 27.5 43.99"/></g></svg>