<svg xmlns="http://www.w3.org/2000/svg" viewBox="0 0 100 100"><mask id="a"><circle cx="50" cy="50" r="50" fill="#fff"/></mask><g mask="url(#a)"><rect width="100" height="100" fill="#3b7ccb"/><path fill="#fff" d="M85.8 54.2c-.3 0-.5-.3-.8-.3-1-.1-1.3-.7-1.2-1.6a2.5 2.5 0 0 1-.6 0 2 2 0 0 1-.6 0 2 2 0 0 0 .6 0 2.5 2.5 0 0 0 .6 0 1.8 1.8 0 0 0 0-1.1l-.1-.7-.1-.2c0-.2-.2-.4 0-.5 1.1-.8 1-1.5 0-2.3-.2-.1-.4-.3-.3-.5.4-1 0-1.5-1-1.5a.8.8 0 0 1-.5-.4 4.3 4.3 0 0 0-2.5-2c-1-.3-1-1-.7-1.7.2-.6.7-1.2.3-1.9-.1-.2 0-.3.2-.4 1-.2 1-.6.3-1.3a1.3 1.3 0 0 1-.2-1c.1-1.8-1.4-3-1.4-4.8 0-.4-.2-.6.2-.9a1.4 1.4 0 0 0 .2-2c-.4-.6-.7-1.4-1.6-1.4a2.5 2.5 0 0 1-2.5-1 .8.8 0 0 0-.5 0 1.4 1.4 0 0 1-.8-.3 4.4 4.4 0 0 0-4.3-.4c-1 .4-1.1.1-1.4-.7-.2-.6-.2-1.6-1-1.8a3 3 0 0 0-2.2-.1 2.9 2.9 0 0 1-2-.2c-1.8-.7-3.2-2.1-5-2.7a2.7 2.7 0 0 0-1.7-.3c-1 .3-2 .6-3-.3a.7.7 0 0 0-.5-.1 24.3 24.3 0 0 1-3.5.1 1.4 1.4 0 0 0-1 .6 1.6 1.6 0 0 1-1.4.4c-.7 0-1.5-.2-2 .8a7.4 7.4 0 0 1-2.4 2.7c-1.3.9-1.8 1.8-1.4 3.3.1.5 0 .7-.6.8-1.2 0-1 0-.7 1.2a6 6 0 0 1 .1 3c-.1.7-.5 1.5-.6 2.3-.2 1.1-.9 2.3-1.9 2.4-2.6.4-5 1.4-7.6 1.7a1.4 1.4 0 0 1-1.2-.3 24.6 24.6 0 0 0-5.6-3.2 7 7 0 0 1-3.5-2.4c-.4-.6-1.4-.1-1.6-1a1.9 1.9 0 0 0-.8-1 1 1 0 0 1-.5-1.2c.4-1.1-.8-1.6-.8-2.5a9.9 9.9 0 0 0-.7 6c0 .4-.1.8.2.9 1.3.4 1.2 1.7 1.6 2.6a.8.8 0 0 0 1.3.5c1.2-.8 1.6 0 2.1.9.3.4.6 1-.5 1-.3-.1-.5.2-.7.5s.2.5.4.7.6.2.6.6c0 1 .7 1.6.9 2.5.4-.2.3-.6.5-.8s.7-.5.8-.3c1 1.5 1 .2 1.2-.4.2-.5.4-.5.7 0a.9.9 0 0 1 .1 1c-.8.9 0 1.7 0 2.5l.1.4c1.3.2.9 1 .5 1.7a4.8 4.8 0 0 0-1.4 2c-.5 1.1-.2 2.5-1 3.5a8 8 0 0 0 1.1 3.1.8.8 0 0 0 .5.1c.8-.1 1.6-.2 2-1.1.6.1.7-.7 1.2-.7a1.1 1.1 0 0 1 .6 1.3 2.4 2.4 0 0 0 .1 1.4 14.6 14.6 0 0 0 .4 5.5c.2 1 .5 2 1.6 2.1a2.5 2.5 0 0 1 1.7 1 2.9 2.9 0 0 0 .8.5c1.5.8 3.5.7 4.8 2h.5c.6-.3 1.4-.2 1.8-1 .2-.3.5-.3.8 0a12 12 0 0 0 1 .6c.6.3 1.2 1 1.4-.3 0-.4.5-.5.9-.5a3.6 3.6 0 0 1 2.5.4 2.2 2.2 0 0 0 1.4.5 6.3 6.3 0 0 1 3.2.8 2 2 0 0 0 2.9-.8c.2-.3.3-.4.7-.2a2.6 2.6 0 0 1 1.2 1.2c.4 1.2-.1 2.4.3 3.5 0 0 0 .3-.2.4a2.5 2.5 0 0 0-1 2 5.7 5.7 0 0 0-.1 1.8c.2 1.1.1 1.6 1.3 1.7s2.3.7 3.4 0c.4 0 .4.3.6.5a4 4 0 0 0 3.7 1 20.4 20.4 0 0 1 2.7-.5.8.8 0 0 0 .6-.4c.5-.7 1-1.3 1.7-.2.2.4.5.5.8 0 0 0 0-.3.3-.3 1.6-.3 3.2-.5 4.1-2.2a.6.6 0 0 1 .5-.3c1.9-.2 2.6-1.2 2.5-3 0-.5 0-1.2 1-.8.5.2.7 0 .6-.6 0-.3-.3-.7.2-1 1.1-.4 1.2-1.4 1.2-2.4 0-.4 0-1 .4-1.3.8-.4 1.4-1.2 2-1.5a1.6 1.6 0 0 0 .9-2.1 3.2 3.2 0 0 1 1.2-3.5 4.4 4.4 0 0 0 1.5-2.5c.2-1 .1-2 1.2-2.6.3-.2.6-.5 0-.7zm-44.2-1.3a1 1 0 0 1-.2 0 1 1 0 0 0 .2 0zm40-2.2v.3zm1-.3z"/></g></svg>