<svg xmlns="http://www.w3.org/2000/svg" width="512" height="512" fill="none"><path fill="#EEE" d="M477.8 384A254.8 254.8 0 0 0 512 256c0-46.6-12.5-90.3-34.2-128H34.2A254.8 254.8 0 0 0 0 256c0 46.6 12.5 90.3 34.2 128h443.6Z"/><path fill="#338AF3" d="M256 512A256 256 0 0 1 25.6 368h460.6A256 256 0 0 1 256 512h-.1Zm0-512A256 256 0 0 0 25.7 144h460.6A256 256 0 0 0 256 0Z"/><path fill="#FFC635" d="m332.5 256-31.3 14.7L318 301l-34-6.5-4.3 34.3-23.6-25.2-23.6 25.2-4.3-34.3-34 6.5 16.6-30.3-31.2-14.7 31.3-14.7L194 211l34 6.5 4.3-34.3 23.6 25.2 23.6-25.2 4.3 34.3 34-6.5-16.6 30.3 31.2 14.7Z"/></svg>