<svg xmlns="http://www.w3.org/2000/svg" width="512" height="512" fill="none"><circle cx="256" cy="256" r="256" fill="#0052B4"/><path fill="#EEE" d="M409.6 460.8A255.6 255.6 0 0 0 512 256c0-83.7-40.2-158.1-102.4-204.8L0 256l409.6 204.8Z"/><path fill="#D80027" d="M409.6 460.8 0 256 409.6 51.2c7.5 5.6 14.6 11.6 21.4 18L57.2 256 431 442.9c-6.8 6.3-14 12.3-21.4 18Z"/><path fill="#A2001D" d="M445.2 246.5h-30.5c8-9.6 7.5-23.7-1.5-32.7a24.2 24.2 0 0 0 0-34.2l-.5.5a25 25 0 0 0 .5-34.8l-137 137a23.9 23.9 0 0 0 34 0l2.6-2.5 65.6-6v28.3h22.3v-30.2l33.4-3 11.1-22.4Z"/><path fill="#FFC635" d="M278.3 311.7 256 300.5l22.3-11.1H423v22.3H278.3Z"/></svg>