<svg xmlns="http://www.w3.org/2000/svg" width="512" height="512" fill="none"><g clip-path="url(#a)"><path fill="#FFC635" d="M170 497.2a256 256 0 1 0 0-482.4L110 256l60 241.2Z"/><path fill="#0052B4" d="M170 497.2V14.8a256.1 256.1 0 0 0 0 482.4Z"/><path fill="#EEE" d="m136 189 7 14.7 15.9-3.7-7.2 14.7 12.7 10-15.9 3.7v16.3l-12.6-10.2-12.7 10.2v-16.3l-15.9-3.6 12.8-10.1L113 200l15.9 3.7L136 189Zm-45-43 7 14.7 15.9-3.7-7.2 14.7 12.7 10-15.9 3.7v16.3l-12.6-10.2-12.7 10.2v-16.3l-15.9-3.6 12.8-10.1L68 157l15.9 3.7L91 146Zm19 92 5.6 17h17.8l-14.5 10.5 5.5 17-14.5-10.5-14.4 10.5 5.5-17L86.5 255h18l5.5-17Zm-70-34 7 14.7 15.9-3.7-7.2 14.7 12.7 10-15.9 3.7v16.3l-12.6-10.2-12.7 10.2v-16.3l-15.9-3.6 12.8-10.1L17 215l15.9 3.7L40 204Zm51 99-6 17-17-8 8 17-17 6 17 6-8 17 17-8 6 17 6-17 17 8-8-17 17-6-17-6 8-17-17 8-6-17Z"/><path fill="#0052B4" d="M276 222a17 17 0 0 0-17 17h-51a17 17 0 0 0 17 17 17 17 0 0 0 17 17 17 17 0 0 0 17 17h71v-68h-54Z"/><path fill="#EEE" d="M384 222a17 17 0 0 1 17 17h51a17 17 0 0 1-17 17 17 17 0 0 1-17 17 17 17 0 0 1-17 17h-71v-68h54Z"/><path fill="#0052B4" d="M285.5 222v68c0 34 44.5 44 44.5 44s44.5-10 44.5-44v-68h-89Z"/><path fill="#EEE" d="m294.4 226-2.5 7.5 26.8 10-26.8 10 2.5 7.5 35.6-13.3 35.7 13.3 2.5-7.5-26.9-10 26.9-10-2.5-7.5-35.7 13.3-35.6-13.3Zm25 31.2V276h-6.2v-9.2h-15V306h63.7v-38.8h-15v8.8h-7.5v-18.8h-20Zm10.6 71a9 9 0 1 0 0-18 9 9 0 0 0 0 18Z"/></g><defs><clipPath id="a"><path fill="#fff" d="M0 0h512v512H0z"/></clipPath></defs></svg>