<svg xmlns="http://www.w3.org/2000/svg" width="512" height="512" style="border-radius:50%" viewBox="0 0 512 512"><path d="M0 0h171l64 256-64 256H0Z" style="fill:#333;stroke-width:3;stroke-linejoin:round"/><path d="M171 0h341v512H171z" style="fill:#ff9811;stroke-width:3;stroke-linejoin:round"/><path d="M340.8 281.7c5.7-2.7 13.6-3 18.5.8-4.9-3.9-6.3-11.7-5-17.8 1.5-6 6.2-12.5 12.3-14-6.1 1.5-13.1-2.2-17-7.1-4-5-6-12.6-3.3-18.2-2.7 5.6-10 8.8-16.3 8.8-6.3 0-13.5-3.2-16.3-8.8 2.8 5.6.7 13.3-3.2 18.2-4 4.9-11 8.6-17 7.2 6 1.4 10.7 7.8 12.1 14 1.4 6 0 13.8-5 17.7 5-3.9 13-3.5 18.5-.8 5.7 2.7 10.9 8.7 10.9 15 0-6.3 5.2-12.3 10.8-15z" style="fill:#333"/><path fill="#eee" d="M357.5 236.7c14.6 18.3 75 .1 45.8-36.5-29.2-36.7-60.4 18.2-45.8 36.5z"/><path fill="#eee" d="M330 223.5c23.4 0 46.9-58.6 0-58.6s-23.4 58.6 0 58.6z"/><path fill="#eee" d="M302.5 236.7c14.6-18.3-16.6-73.2-45.8-36.5-29.2 36.6 31.2 54.8 45.8 36.5zm42.7 53.6c-21 10.2-16.8 73.1 25.5 52.8 42.2-20.4-4.3-63-25.5-52.8z"/><path fill="#eee" d="M314.8 290.3c-21.2-10.2-67.7 32.4-25.5 52.8 42.3 20.3 46.6-42.6 25.5-52.8zm49.4-23.8c-5.1 22.8 46.8 58.7 57.2 13 10.4-45.7-52-35.9-57.2-13z"/><path fill="#eee" d="M295.7 266.5c-5.2-22.9-67.5-32.7-57 13 10.3 45.7 62.2 9.8 57-13zM136 189l7 14.7 15.9-3.7-7.2 14.7 12.7 10-15.9 3.7v16.3l-12.6-10.2-12.7 10.2v-16.3l-15.9-3.6 12.8-10.1L113 200l15.9 3.7zm-45-43 7 14.7 15.9-3.7-7.2 14.7 12.7 10-15.9 3.7v16.3l-12.6-10.2-12.7 10.2v-16.3l-15.9-3.6 12.8-10.1L68 157l15.9 3.7zm19 92 5.6 17h17.8l-14.5 10.5 5.5 17-14.5-10.5-14.4 10.5 5.5-17L86.5 255h18zm-70-34 7 14.7 15.9-3.7-7.2 14.7 12.7 10-15.9 3.7v16.3l-12.6-10.2-12.7 10.2v-16.3l-15.9-3.6 12.8-10.1L17 215l15.9 3.7zm51 99-6 17-17-8 8 17-17 6 17 6-8 17 17-8 6 17 6-17 17 8-8-17 17-6-17-6 8-17-17 8z"/></svg>