<svg xmlns="http://www.w3.org/2000/svg" width="512" height="512" style="border-radius:50%" viewBox="0 0 512 512"><path fill="#0052b4" d="M256 0h256v512H0V256Z"/><path fill="#eee" d="M0 0v32l32 32L0 96v160h32l32-32 32 32h32v-83l83 83h45l-8-16 8-15v-14l-83-83h83V96l-32-32 32-32V0H96L64 32 32 0Z"/><path fill="#d80027" d="M32 0v32H0v64h32v160h64V96h160V32H96V0Zm96 128 128 128v-31l-97-97z"/><path d="M402 184.8h-39.9a74 74 0 0 0-51.3 51.3v39.8a74 74 0 0 0 51.3 51.3h39.8a74 74 0 0 0 51.3-51.3V236a74 74 0 0 0-51.2-51.2z" style="fill:#eee"/><path fill="#d80027" d="M382 182a74 74 0 0 0-20 2.8V236h-51.2a74 74 0 0 0-2.8 20 74 74 0 0 0 2.8 20H362v51.2a74 74 0 0 0 20 2.8 74 74 0 0 0 20-2.8V276h51.2a74 74 0 0 0 2.8-20 74 74 0 0 0-2.8-20H402v-51.2a74 74 0 0 0-20-2.8z"/><path d="m382 295-2.8 8-8-3.8 3.8 8-8 2.8 8 2.8-3.8 8 8-3.8 2.8 8 2.8-8 8 3.8-3.8-8 8-2.8-8-2.8 3.8-8-8 3.8zm54-54-2.8 8-8-3.8 3.8 8-8 2.8 8 2.8-3.8 8 8-3.8 2.8 8 2.8-8 8 3.8-3.8-8 8-2.8-8-2.8 3.8-8-8 3.8zm-108 0-2.8 8-8-3.8 3.8 8-8 2.8 8 2.8-3.8 8 8-3.8 2.8 8 2.8-8 8 3.8-3.8-8 8-2.8-8-2.8 3.8-8-8 3.8zm54-54-2.8 8-8-3.8 3.8 8-8 2.8 8 2.8-3.8 8 8-3.8 2.8 8 2.8-8 8 3.8-3.8-8 8-2.8-8-2.8 3.8-8-8 3.8z" style="fill:#ffda44"/><path d="M372.3 238.7a6.8 6.8 0 0 0-6.8 6.8v4.8h-2.6v-2.6c0-3.2-2.4-5.6-5.4-5.6-.8 0-1.4.6-1.4 1.4v12.4c0 .8.6 1.4 1.4 1.4h8a6.4 6.4 0 0 0 6.4 6.4v2.8h-2.6a5.4 5.4 0 0 0-5.6 5.4c0 .8.6 1.4 1.4 1.4h12.4c.8 0 1.4-.6 1.4-1.4v-8.3l17.2-.1v2.6h-2.6a5.4 5.4 0 0 0-5.6 5.4c0 .8.6 1.4 1.4 1.4h12.4c.8 0 1.4-.6 1.4-1.4v-16.4c2.6 0 4.8-2.2 4.8-4.8 0-2.6-2.2-4.8-4.8-4.8h-16.2c-.9 0-1.6-.7-1.6-1.6 0-.9.7-1.6 1.6-1.6h16.2v-3.2h-16.2a4.9 4.9 0 0 0-4.8 4.8c0 2.6 2.2 4.8 4.8 4.8h16.2c.9 0 1.6.7 1.6 1.6 0 .9-.7 1.6-1.6 1.6h-17.6a6.4 6.4 0 0 1-6.4-6.4 6.8 6.8 0 0 0-6.8-6.8z" style="fill:#ffda44;stroke-width:.2"/></svg>