<svg xmlns="http://www.w3.org/2000/svg" width="512" height="512" fill="none"><path fill="#026" d="M512 256a256 256 0 1 1-512 0L256 0a256 256 0 0 1 256 256Z"/><path fill="#026" d="M256 0v256H0A256 256 0 0 1 256 0Z"/><path fill="#EEE" d="M217.6 256H256v-38.4L140.7 102.3H256V0A256 256 0 0 0 0 256h102.3V140.7L217.6 256Z"/><path fill="#D80027" d="M256 76.6V25.4H144.7A257 257 0 0 0 25.4 144.7V256h51.2V76.6H256Z"/><path fill="#D80027" d="M256 230.4V256L102.2 102.2H128l128 128.2Z"/><path fill="#EEE" d="M384 330a74 74 0 1 0 0-148 74 74 0 0 0 0 148Z"/><path fill="#338AF3" d="M407 322.1 384 312l-23 10.2 23-66.1 23 66Zm0-132.2L384 200l-23-10.2 23 66.1 23-66ZM318 279l10.1-23-10.2-23 66.1 23-66 23Zm132.1 0-10-23 10.1-23-66 23 66 23Z"/><path fill="#FFC635" d="M379 228v5h-5v10h5v9.4a15.2 15.2 0 0 0-20.7 22.2v9.4H410v-9.4a15.2 15.2 0 0 0-20.7-22.2V243h5v-10h-5v-5H379Z"/></svg>