<svg xmlns="http://www.w3.org/2000/svg" width="512" height="512" width="512" height="512" style="border-radius:50%" viewBox="0 0 512 512"><path fill="#0052b4" d="M256 0h256v512H0V256Z"/><path fill="#eee" d="M0 0v32l32 32L0 96v160h32l32-32 32 32h32v-83l83 83h45l-8-16 8-15v-14l-83-83h83V96l-32-32 32-32V0H96L64 32 32 0Z"/><path fill="#d80027" d="M32 0v32H0v64h32v160h64V96h160V32H96V0Zm96 128 128 128v-31l-97-97z"/><circle cx="382" cy="256" r="74" fill="#eee"/><path d="M362.6 221.4A13.6 13.6 0 0 0 349 235v9.6h-5.2v-5.2c0-6.4-4.8-11.2-10.8-11.2a2.7 2.7 0 0 0-2.8 2.8v24.8c0 1.6 1.2 2.8 2.8 2.8h16a12.8 12.8 0 0 0 12.8 12.8v5.6h-5.2c-6.4 0-11.2 4.8-11.2 10.8 0 1.6 1.2 2.8 2.8 2.8H373c1.6 0 2.8-1.2 2.8-2.8v-16.5l34.4-.3v5.2H405c-6.4 0-11.2 4.8-11.2 10.8 0 1.6 1.2 2.8 2.8 2.8h24.8c1.6 0 2.8-1.2 2.8-2.8v-32.8c5.2 0 9.6-4.4 9.6-9.6 0-5.3-4.4-9.6-9.6-9.6h-32.4a3.2 3.2 0 0 1-3.2-3.2c0-1.8 1.4-3.2 3.2-3.2h32.4v-6.4h-32.4a9.6 9.6 0 0 0 0 19.2h32.4c1.8 0 3.2 1.4 3.2 3.2 0 1.8-1.4 3.2-3.2 3.2H389c-7.1 0-12.8-5.8-12.8-12.8a13.6 13.6 0 0 0-13.6-13.6z" style="fill:#d80027;stroke-width:.4"/></svg>