<svg xmlns="http://www.w3.org/2000/svg" width="512" height="512" fill="none"><path fill="#026" d="M512 256a256 256 0 1 1-512 0L256 0a256 256 0 0 1 256 256Z"/><path fill="#026" d="M256 0v256H0A256 256 0 0 1 256 0Z"/><path fill="#EEE" d="M217.6 256H256v-38.4L140.7 102.3H256V0A256 256 0 0 0 0 256h102.3V140.7L217.6 256Z"/><path fill="#D80027" d="M256 76.6V25.4H144.7A257 257 0 0 0 25.4 144.7V256h51.2V76.6H256Z"/><path fill="#D80027" d="M256 230.4V256L102.2 102.2H128l128 128.2Z"/><path fill="#EEE" d="M382 330a74 74 0 1 0 0-148 74 74 0 0 0 0 148Z"/><path fill="#D80027" d="M363 221a14 14 0 0 0-14 14v10h-5v-6c0-6-5-11-11-11a3 3 0 0 0-3 3v25c0 1 1 3 3 3h16a13 13 0 0 0 13 12v6h-5c-7 0-12 5-12 11l3 3h25c2 0 3-2 3-3v-17h34v5h-5c-6 0-11 5-11 11 0 2 1 3 3 3h24c2 0 3-1 3-3v-33c5 0 10-4 10-9 0-6-5-10-10-10h-32a3 3 0 0 1-3-3c0-2 1-3 3-3h32v-7h-32a10 10 0 0 0 0 19h32c2 0 3 2 3 4 0 1-1 3-3 3h-35c-7 0-13-6-13-13a14 14 0 0 0-13-14Z"/></svg>