<svg xmlns="http://www.w3.org/2000/svg" width="512" height="512" fill="none"><path fill="#026" d="M512 256a256 256 0 1 1-512 0L256 0a256 256 0 0 1 256 256Z"/><path fill="#026" d="M256 0v256H0A256 256 0 0 1 256 0Z"/><path fill="#EEE" d="M217.6 256H256v-38.4L140.7 102.3H256V0A256 256 0 0 0 0 256h102.3V140.7L217.6 256Z"/><path fill="#D80027" d="M256 76.6V25.4H144.7A257 257 0 0 0 25.4 144.7V256h51.2V76.6H256Z"/><path fill="#D80027" d="M256 230.4V256L102.2 102.2H128l128 128.2Z"/><path fill="#EEE" d="m313 267 7 15 15-4-7 15 13 10-16 3v16l-13-10-12 10v-16l-16-3 13-10-7-15 16 4 7-15Zm66-61 7 15 15-4-7 15 13 10-16 4v16l-13-10-12 10v-16l-16-4 13-10-7-15 16 4 7-15Zm1 146 40-29h-50l40 29-15-48-15 48Zm-1 29 5 15 14-7-7 15 15 5-15 5 7 15-14-7-5 15-6-15-14 7 7-15-15-5 15-5-7-15 14 7 6-15Zm57-114-8 14h-16l8 14-8 14h16l8 13 8-13h16l-8-14 8-14h-16l-8-14Z"/><path fill="#FFDA44" d="M370 93v8h-8v17h8v15a25.1 25.1 0 1 0-34 37v15h85v-15a25.1 25.1 0 1 0-34-37v-15h8v-17h-8v-8h-17Z"/></svg>