<svg xmlns="http://www.w3.org/2000/svg" width="512" height="512" style="border-radius:50%" viewBox="0 0 512 512"><path fill="#0052b4" d="M256 0h256v512H0V256Z"/><path fill="#eee" d="M0 0v32l32 32L0 96v160h32l32-32 32 32h32v-83l83 83h45l-8-16 8-15v-14l-83-83h83V96l-32-32 32-32V0H96L64 32 32 0Z"/><path fill="#d80027" d="M32 0v32H0v64h32v160h64V96h160V32H96V0Zm96 128 128 128v-31l-97-97z"/><path d="m312.5 266.9 7 14.8 15.9-3.8-7.2 14.7 12.8 10-16 3.6.2 16.3-12.7-10.3-12.7 10.3.1-16.3-15.9-3.5 12.8-10.1-7.2-14.7 16 3.8zm66-60.5 7 14.8 15.9-3.8-7.2 14.7 12.8 10-16 3.6.2 16.3-12.7-10.3-12.7 10.3.1-16.3-15.9-3.5 12.8-10.1-7.2-14.7 16 3.8zm1.1 145.6 40.4-29.4h-50l40.4 29.4-15.4-47.6Zm-1.1 29.4 5.3 15 14.4-6.9-6.9 14.4 15 5.3-15 5.3 6.9 14.4-14.4-6.9-5.3 15-5.3-15-14.4 6.9 6.9-14.4-15-5.3 15-5.3-6.9-14.4 14.4 6.9zm57-114.5-8 13.9h-16l8 13.9-8 13.9h16l8 13.9 8-13.9h16l-8-13.9 8-13.9h-16z" style="fill:#eee"/><path fill="#ffda44" d="M370.2 92.6v8.3h-8.4v16.7h8.4V133a25 25 0 0 0-34.1 36.5V185h84.8v-15.4a25 25 0 0 0-34-36.5v-15.5h8.3v-16.7h-8.4v-8.3z"/></svg>