<svg xmlns="http://www.w3.org/2000/svg" viewBox="0 0 512 512"><circle cx="256" cy="256" r="256" fill="#ffda44"/><g fill="#338af3"><path d="M256 512c77.591 0 147.114-34.524 194.061-89.043H61.939C108.886 477.476 178.409 512 256 512zM512 256C512 114.616 397.384 0 256 0S0 114.616 0 256c0 23.107 3.08 45.489 8.819 66.783h494.363C508.92 301.489 512 279.107 512 256zM20.349 356.174a255.192 255.192 0 0 0 17.225 33.391h436.852a255.576 255.576 0 0 0 17.227-33.391H20.349z"/></g><path fill="#eee" d="M117.317 161.463l-50.016-22.074 50.016-22.074L139.39 67.3l22.073 50.015 50.015 22.074-50.015 22.074-22.073 50.015z"/><path fill="#d80027" d="M139.39 94.867l13.631 30.889 30.89 13.633-30.89 13.632-13.631 30.889-13.633-30.889-30.889-13.632 30.889-13.633z"/></svg>