<svg xmlns="http://www.w3.org/2000/svg" width="512" height="512" fill="none"><circle cx="256" cy="256" r="256" fill="#338AF3"/><path fill="#FFDA44" fill-rule="evenodd" d="M25.7 368c-4.5-9.3-8.5-19-11.9-28.8h484.4c-3.4 9.9-7.4 19.5-12 28.8H25.8Zm38.5 57.6a257 257 0 0 1-22-28.8h427.6a257 257 0 0 1-22 28.8H64.2Z" clip-rule="evenodd"/><path fill="#EEE" d="m124 176.9-60-26.5 60-26.5L150.3 64l26.5 60 59.9 26.4-60 26.5-26.4 59.9-26.5-60Z"/><path fill="#D80027" d="m150.4 97 16.3 37 37 16.4-37 16.3-16.3 37-16.3-37-37-16.3 37-16.3 16.3-37Z"/></svg>