<svg xmlns="http://www.w3.org/2000/svg" width="512" height="512" fill="none"><path fill="#D80027" d="M482.2 376c19-35.8 29.8-76.6 29.8-120 0-43.4-10.8-84.2-29.8-120H29.8A254.9 254.9 0 0 0 0 256c0 43.4 10.8 84.2 29.8 120h452.4Z"/><path fill="#6DA544" d="M496.5 344a256.1 256.1 0 0 1-481 0h481Z"/><path fill="#338AF3" d="M496.5 168h-481a256.1 256.1 0 0 1 481 0Z"/><path fill="#EEE" d="M261 321a65 65 0 1 1 31-122.2 80 80 0 1 0 0 114.4c-9.3 5-19.8 7.8-31 7.8Z"/><path fill="#EEE" d="m311 211 8.6 24.2 23.2-11-11 23.2L356 256l-24.2 8.6 11 23.2-23.2-11L311 301l-8.6-24.2-23.2 11 11-23.2L266 256l24.2-8.6-11-23.2 23.2 11L311 211Z"/></svg>