<svg xmlns="http://www.w3.org/2000/svg" width="512" height="512" fill="none"><g clip-path="url(#a)"><g clip-path="url(#b)"><path fill="#FFDA44" d="m75 75 149 213 213 149A256 256 0 0 0 258.8 0h-5.7A255.2 255.2 0 0 0 75 75Z"/><path fill="#0052B4" d="m75 75 362 362A256 256 0 0 1 75 75Z"/></g><path fill="#EEE" fill-rule="evenodd" d="M12.6 176.4a254.9 254.9 0 0 1 27-57.2l3.2 10h34.9l-28.3 20.5 10.8 33.1L32 162.3l-19.4 14.1Zm349 312.9a255 255 0 0 0 12.3-6l-4.5-13.6 28.3-20.5h-35L352 416l-10.8 33.2h-34.9l28.3 20.5-10.8 33.1 28.2-20.5 9.6 7ZM96 160l10.8 33.2h34.9l-28.3 20.5 10.8 33.1L96 226.3l-28.2 20.5 10.8-33.1-28.3-20.5h35L96 160Zm74.8 97.2L160 224l-10.8 33.2h-34.9l28.3 20.5-10.8 33.1 28.2-20.5 28.2 20.5-10.8-33.1 28.3-20.5h-35ZM224 288l10.8 33.2h34.9l-28.3 20.5 10.8 33.1-28.2-20.5-28.2 20.5 10.8-33.1-28.3-20.5h35L224 288Zm74.8 97.2L288 352l-10.8 33.2h-34.9l28.3 20.5-10.8 33.1 28.2-20.5 28.2 20.5-10.8-33.1 28.3-20.5h-35Z" clip-rule="evenodd"/></g><defs><clipPath id="a"><path fill="#fff" d="M0 0h512v512H0z"/></clipPath><clipPath id="b"><path fill="#fff" d="M0 512V0h512v512z"/></clipPath></defs></svg>