<svg xmlns="http://www.w3.org/2000/svg" width="512" height="512" fill="none"><path fill="#FFDA44" d="M128 477.8A254.8 254.8 0 0 0 256 512c46.6 0 90.3-12.5 128-34.2V34.2A254.8 254.8 0 0 0 256 0c-46.6 0-90.3 12.5-128 34.2v443.6Z"/><path fill="#0052B4" d="M0 256A256 256 0 0 1 144 25.6v460.6A256 256 0 0 1 0 256v-.1Zm512 0A256 256 0 0 0 368 25.7v460.6A256 256 0 0 0 512 256Z"/><path fill="#333" d="m334 155.8-15-7.4c-1 1.8-20.4 41.4-23.6 102h-22.7v-94.6L256 133.6l-16.7 22.2v94.6h-22.7a278.3 278.3 0 0 0-23.6-102l-29.8 14.9c.2.4 20.5 41.7 20.5 103.8v16.7h55.6v94.6h33.4v-94.6h55.6v-16.7c0-32 5.6-58.6 10.3-75.1 5-18 10.2-28.6 10.3-28.7l-15-7.5Z"/></svg>