<svg xmlns="http://www.w3.org/2000/svg" width="512" height="512"><path fill="#fff" d="M195.9 7.8A256 256 0 0 0 0 256a256 256 0 0 0 195.9 248.2H316A256 256 0 0 0 512 256 256 256 0 0 0 318.4 7.8z"/><path fill="#333" d="M106.3 49.1A256 256 0 0 0 49 106.3v299.4a256 256 0 0 0 57.2 57.2h299.4a256 256 0 0 0 57.2-57.2V105.3A256 256 0 0 0 406.7 49z"/><path fill="#d80027" d="M256 0A256 256 0 0 0 22 152.6h468.1A256 256 0 0 0 256 0z"/><path fill="#0052b4" d="M22 359.4A256 256 0 0 0 256 512a256 256 0 0 0 234-152.6z"/><path fill="#0f0f0f" d="M407 54.1c0 12.5-9.7 18.4-12 30.5a13 13 0 0 0-5.8-5h-.3a9.7 9.7 0 0 0-1.5-.5l-1-.2H385a7.7 7.7 0 0 0-.7 0 15 15 0 0 0-7.4 3.3 16 16 0 0 0-3.8 5.5c-1.5 3.5 2 2.3 3.8 2 12.3-1.4 8.2 15 7.1 17.1a39.9 39.9 0 0 1-9.2 12.7l-.9.8-2 2-1.1 1.1c-16.4 17.7-17.3 20.3-22 27.2-2.1 3.1-4.3 6.5-6.4 10.2l-.3.5-.4.7a120.9 120.9 0 0 0-7 16.5l-.1.4-.2.5-.8 2.7a49.3 49.3 0 0 0-.9 4c-3.6-4-5.4-3.7-9.6-5.8l-2.6-1.5a11 11 0 0 1-.6-.5l-.5-.5c-1-1-1.5-2-2-2.5v-.2h-.2v-.2h-.2l-.1-.1h-.1l-.2-.1h-.2l-.2.6v.5l-.3.8v.5l-.2.6-.5 2.1-.7 3v.1l-.2 1.9v1a18.7 18.7 0 0 0 0 1.1l.1.9v.1l.2 1 .2 1v.2a23.4 23.4 0 0 0 1.4 3.5 20 20 0 0 0-1.6 7.2 15.5 15.5 0 0 0 3.3 9.3c-.7 1.8-1.3 4.2-1.3 6.5 0 .9.1 1.7.3 2.5a23.2 23.2 0 0 0 2 5c.2.5.6 1 1 1.5l.3.3 1 1a38 38 0 0 0 .4 8.4l.6 3c1 3.2 2.3 5.1 4.8 7a17.8 17.8 0 0 0 1.5 9c1.9 4.4 4.1 7.6 6 8.6l.4.3.3.1a20 20 0 0 0 3.8 8l1.3 1.7c1.3 1.6 2.5 2.8 4.3 4 .4.2 1.7 1.3 3 1.8 1.9 1 4.1.5 6.1 2a21.7 21.7 0 0 1 8.5 16.8c0 3-.5 4.6-3.6 7.2-1.8 1.5-4.1 1.9-6.9.6-1.4-.7-3-1.7-4.6-3.3a58.4 58.4 0 0 1-10-12.6l-.1-.3c-1.9-3-7.7-13.8-9-16l-.2-.7c-3.4-6.4-7.6-14-10.5-20.2a1217 1217 0 0 1-9.7-22.4c-1.5-3.5-4-7.6-5.6-11.3l-1-2.3c2.5.2 5 .1 7.7-.2 0-.3-.2-.5-.3-.7-.7-1.2-2.5-2.6-3.8-3.8a9.4 9.4 0 0 1-1.3-1.4c-2.1-3.2-4.4-8-6-10.9a11.3 11.3 0 0 0 .5-.5l.6-.6 1.1-1.7 1.2-1.9.3-.7.2-.4.4-.7.2-.5.3-.7.3-.6.2-.6a24.4 24.4 0 0 0 1-2.8l.2-.8.1-.4.2-.8v-.2l.3-1c.3-3.7 1.2-14.3 0-17 2 1 4 2.7 6.6 3.8l2 .7.6.1 2.1.3h.2l.9.2a21.8 21.8 0 0 0 4.4 0c1.3-.3 3-.8 3.5-1.5-.1-.7-.8-1.3-1.7-1.7a6 6 0 0 0-.7-.2 5 5 0 0 1-3.4-2.5 23.7 23.7 0 0 1-2.4-4.7l-.2-.7c-1-2.9-3-8.2-4.2-10.6.2-2.6 1.1-3 1.5-4.8.3-1.4.2-3.6.1-4.9-.1-1.3-.4-2.2-.7-3.1l-.5-1.6.3-.8a18.1 18.1 0 0 0 .1-13l-1.6-2v-.5c0-.3.2-.5 1.4-1.2a16 16 0 0 0 3.3-2.7l.3-.3a7 7 0 0 0 1-1.9c.7-3 1-4.2 1-6.7.2-2-.2-4.2-.5-6.3v.2a14 14 0 0 1-2.1 3.1c-.8.8-1.7 1.8-3 1.9-1.7 0-3 0-4.2-.2a12 12 0 0 1-4.2-1.2c-.8-.4-1.4-1-2-1.5 2-1.3 2.9-3 3.7-4.3 1.3-1.9 1.5-5.8 1.3-9.7a41.2 41.2 0 0 0-2-9.8c-.2-.8-.6-1.3-1.1-1.6-1-.7-2.4-.5-3.8-.3-2 .4-4 1.1-5.7 2l-1.5-1.3c-10.6-11-47.5 1-47.5 1l-1.6.8c-.3 0-.5.2-.8.3-1.1.7-2.8 1.8-4.2 4.2l-.8 1.2a6 6 0 0 1-1.6 1.6 7 7 0 0 1-2 .8 13 13 0 0 0-3.5 1.6c-1.9 1-3.7 2.5-5.6 3.6-1.2.9-2.3 1-2.7 2.1-.2.4-.3.9-.3 1.6 0 .8.3 1.5.7 2 .4.6 1 1 1.4 1.3.2 0 .2 1.1.2 2v1c0 .7.2 1.4.4 2 .4 1 1.1 1.9 2 2.6a9.4 9.4 0 0 0 7 2l.8-.2.1 1.5.3.6c.4.8 2 2.9 3.6 4a61 61 0 0 1-14 0 14.6 14.6 0 0 1-8.6-4l-.7-.6a7.6 7.6 0 0 1-2-6.2c.4-1.8 1.5-3.4 1.1-4.4l-.6.2c-3.2 1.6-7 5.4-7.3 9-.8 10.5 4.1 13 9.2 14.7h.1a30 30 0 0 0 11.3 1.3h1.3c1.5 0 3.4-.2 5.5-.7l.9-.2c1.5-.5 2.2-.4 3.3 0l-1 1.2-1.6 2.7-.7 1.5-.7 1.3-.8 1.6-1.5 2.9c-.3.5-.6 1-1 1.3v.2l-1 1.3.1.2c.3.2 1 .3 1.6.3l2.3.1c.6 0 1.1-.2 1.7-.4l1.3-.5a12 12 0 0 1 4.5-.6c.6 0 .9.2 1 .4v.1l.1.3c.2.5 1 .2 1 1l-.3 1.3-.7.7-3.7 3.7-.8.9c-2.7 2.6-7 6.2-10.2 3-2.1-2.2 1.7-5.7.6-6.2-.2-.1-.6-.2-1.2 0-3.4.6-6 2.2-7.8 4.2a51 51 0 0 1-2-2.5l-3.4-4.7a39.3 39.3 0 0 0-5-5.5c-3.2-3-7.8-7.2-10.1-9.6l-3.8-3.8c-3-2.8-6.6-6-9-8.7l-.4-.5a93 93 0 0 1-8.8-13.1c-.8-2-1.4-4.1.3-6.8a19.5 19.5 0 0 0 2-3.9l.5-2.4.2-1.8c0-1.4-.3-3.1-.9-4.2l-.8-1.2-.3-.4 1-2.9c1.3-4.5 1.2-10-2-12.1l-2.5-1.7-.7 3-.8 1.5-.8 1.3a9 9 0 0 1-2.2 2.2l-1.2 1-1.5-.6a8.5 8.5 0 0 0-1.5-.4h-.2a6.6 6.6 0 0 0-1.4 0h-.2l-.6.1h-.2a5.7 5.7 0 0 0-1.5.9l-1.6 1.8-.3-1-.1-.3a14 14 0 0 0-.5-1l-.2-.6-.3-.4-.2-.4-.3-.4-.2-.4-.3-.4-.2-.2A15.6 15.6 0 0 0 138 56.7c-1 0-2 .1-2.7.3l-3.2 1 2.1 2.6c1 1.1 3 3.9 3.6 6.9a7.2 7.2 0 0 0-.7.4l-.2.2-.3.3-.1.1-.3.3-.1.2-1 1v.2l-.3.3-.1.2-.2.3-.1.3-.2.3-.2.3-.1.4-.2.3v.3l-.2.3v.3l-.1.3v.6l-.1.2a62.3 62.3 0 0 0-.3 8 11.7 11.7 0 0 0-1.9.7l-.6.3-.2.1-.7.5-.3.3a7.6 7.6 0 0 0-.7.6l-.3.2c0 .2-.2.3-.3.4h-.5a12 12 0 0 0-5.6 1.6c-1.2.5-3.5 2.2-4.5 3.7l-1 1.6 1.3 1.3c.4.5 5 3.6 5.9 4l.6.4v2.4l.1.3v.4a4.5 4.5 0 0 0 .2.7v.3l.1.3.1.3.1.3.1.3.3.5.1.3.2.3.2.3.1.3.2.2c0 .2.1.2.2.3l.2.3.2.3.2.3a18.3 18.3 0 0 0 .5.5l.5.6c1.3 1.5 4 2.4 6.9 2.7 1.7.1 3.5 0 4.9-.4a6.6 6.6 0 0 0 2-1.3c0 .3 0 .6.2.8l1.6 2c.3.4.7.7 1.2 1 .8.6 1.9 1 3.1 1.8l-.2.2a17.4 17.4 0 0 0-1 .6c-.2 0-.4.2-.5.3l-.3.3c-.2 0-.3.2-.5.3l-.2.3c-.2 0-.3.2-.4.3l-.2.3a14.7 14.7 0 0 0-.8 1.1l-.2.2c0 .3-.2.5-.3.7v.2l-.3.6v.3l-.2.4v.4l-.1.4v.4l-.1.5v2.9l-.3.4c-.6 1-1.8 1.9-3.1 2.6-1.2.6-2.3 1-2.5 1l-4.7 1 3.8 3a21.8 21.8 0 0 0 10.6 3.5 9 9 0 0 0 2.4-.3l.6.4v.1c.2 0 .4.2.5.3h.2l.5.2h.2l.7.2h1.3c.7 0 1.4-.2 2-.3h.2l.5-.3h.3a5.9 5.9 0 0 0 1.2-.7c.7-.5 1.2-1.2 1.8-2l1.6-2.2c1.5 2 3.9 4.2 4.6 6v.1l.2.8c.2 1.2.5 3.6-.7 4.6a2 2 0 0 1-.7.4c-2.5.8-3.7-1.8-4.8-2.5-1.1 2.8-.6 4.2.2 6.5l.8 1.1c1.2 1.2 3.2 2.6 4.8 3.3l1.6.6c-2.6 2-3.7 5.5-4.3 9.2l-.3 2a16 16 0 0 0-.2 1.6c-.1 1.6.3 2.2 2.1 1l.3-.2c4-2.8 4.2-3.5 5.8-1.5l1.5 1.8a91 91 0 0 0 5.5 5.5c1.5 1.3 4.8 1.6 6 1.8-.5 1-1 3-1.4 4.8l-.4 1.8c-.2 1.3-.7 10.4 1.2 7.8l.2-.4.3-.4a7.4 7.4 0 0 1 1.4-1.5l.4-.3c.6-.5 1.3-.9 2-1.1 3-1 6-2.2 6.6-1.4-1.7 3.1-2.9 4.8-2.9 8.9a28 28 0 0 0 1 6.3l.5 1.5a47 47 0 0 0-4 2.2c-6 3.4-14.4 9.1-18 11.2-5.8 3.3-15 9.6-23.3 6.9l-.5-.3h-.1l-.5-.3h-.1l-.4-.4-.5-.4v-.1l-.4-.3-.1-.2-.2-.3c-1.4-1.7-2.6-3.7-6-4.5a8 8 0 0 0-1.3-2.6c-2.4-3.1-7-3.8-10.4-3.8a28 28 0 0 0-3.9.3l-3.2.9 2 2.7.6.7c.2.2.5.5 1.6 2.5l.7 1.5.1.3-.2.1-.5.3-.3.2-.5.3-.2.3-.8.7-.3.3-.4.4a7 7 0 0 0-.5.7l-.3.5-.2.3-.4.8v.1a6.5 6.5 0 0 0-.5 1.7v.3a6.1 6.1 0 0 0 0 1.7l.1.9.1.2a5.5 5.5 0 0 0 .7 1.3l.1.2.6.7a8.8 8.8 0 0 0-4 2.4 22 22 0 0 0-2 2.1v.1a3.4 3.4 0 0 0-.3.6l-.1.5-.1.6c-.8.2-1.6.6-2.3 1a19 19 0 0 0-7 8.5 17 17 0 0 0-.5 4.5l.1 4 3.3-2.2a16.5 16.5 0 0 1 7.9-1.7v.7l.3.6c0 .2.2.3.3.5a5.2 5.2 0 0 0 1.3 1.4l.1.1.4.3.8.6a13.2 13.2 0 0 0 4.8 1.6 5.8 5.8 0 0 1 1.8.8v.2l.1.8.1.4.4 1.4.2.4a16.8 16.8 0 0 1 .5 1.1l.4.7c-1.4 5.3 2.5 11.8 3.4 12.8l2.7 3 1-4 2-3.3 1.3-1.4.8-.6 1 .3h.2l.2.1a13.3 13.3 0 0 0 5-.5 9.9 9.9 0 0 0 4.8-2.3c3.1-3.3 4.4-4.9 4.7-8.5l.1-3.2 2.4-.2h1.5l.8-.1 1-.2c1-.2 1.8-.6 2.6-1.2l.3-.2.2.5.1.2c.9 1.5 2.2 2.7 2.7 3.2h.1l.1.1.2.2.3.1v.1c.2 0 .2.1.3.2l.3.1.2.1.2.2h.2l.2.2.3.1.9.4c.2 1 .2 2.3.2 3.5v1.8l-.5 3.4 3.2-1h.8c1.6-.4 4.2-1 6.4-4.5.5-.8 1.3-2.2 1.7-4l.8-.5h.1l.3-.3h.2l.2-.2.1-.1.4-.3a6.5 6.5 0 0 0 .8-1c0-.2.2-.3.3-.5a14 14 0 0 0 .9-6.9l.1-1.1c.2-.4.6-.5 1.1-.6l1.2-.1.6-.1c4.1-.9 5.4-1.5 6.7-.9 2.4 1.3 1.5 6.4-.7 7.7h.2a17.8 17.8 0 0 0 4.2-2c1.9-1.3 2.7-3.2 3.4-4.1.3-.4.5-.6.8-.6.5 0 .5 0 1 .4a1 1 0 0 1 .2.3v.4h.1v3.8c.6 3.3 3.9 8.8 6 9.8.2.2.5.2.8.2V255c0-1.5 0-2.2.2-3.5 0-.8 0-1.8.3-2.7 0-.5.2-1 .5-1.3 1-1.3 3.7-2.5 4.8-3.5l3.7-3 .4 1a14 14 0 0 0 1.8 3.4l.3.4a6.3 6.3 0 0 0 .9 1c1 .8 6 5 6.7 2.6-2.5-4.6-2.6-9.7-.9-11l3.8-2.8c3 3.7 15.7 13 19.5 15.3 2 1.2 16 12.3 17.2 13.5a87.8 87.8 0 0 0-9.8-.5c-.1.3.5 1 1.4 1.7l2.5 2.2a78.5 78.5 0 0 1 6.4 6.7c1.6 1.8 3.8 4.2 4.3 6.3l.1.2-1-.1-.9-.2-4.3-.6-1-.1a72 72 0 0 0-10-.5 89.8 89.8 0 0 0-10 .3c-3.1.2-6 .5-9 .9-2.3.2-5.2.8-8.1 1.2l-2.3.3h-.5a13.8 13.8 0 0 1-6.3-.7c-2.5-1-5.6-2.7-5.6-5.7v-.7l.2-.3v-.2a2.6 2.6 0 0 1 .3-.4l.1-.2.2-.2a4.4 4.4 0 0 1 .6-.5 10.5 10.5 0 0 1 1.5-1l.6-.3h.1c-1.6-1.3-5-1.2-7.2-.8l-1.3.3c-1.2.4-2.4 1-3.7 1.6a13 13 0 0 0-3.8 3.7c-.7 1-1.3 2-1.6 2.8l-.1 1c0 1.4.3 3.5 0 3.8a25.6 25.6 0 0 0-3.9-.3H192c-2.4.1-4.8 1.1-7.1 2.3l-5 2.8-1.6 1.2-.2.2-.2.1a40.5 40.5 0 0 0-10 10.7l-.2.3c0 .3 0 1 .4 1h.2c6.5-3 16.1-3.6 23.5-2l4.8.7 4.9.5a160.4 160.4 0 0 1 4.9.6c.4.8.1 1.6-.4 2.5l-1.3 2-.7 1.2a58.6 58.6 0 0 0-3.1 8.8c-.7 2.5-1 5-1.8 7.9l-1 3.8-.2.4c-1.4 3.4-5.2 5.5-12 6.4a36.3 36.3 0 0 1-7 .4h-1c-3.2-.2-5.3-.3-5.5-3.7a27.9 27.9 0 0 0-1.8-7.8l-.4-.8-.5-.7v-.1l-1.2-1.4a7 7 0 0 0-3.3-2.1c-2.2-5.1-9.4-8.5-11.6-9l-3.2-.6.6 3.3.4 1.7.1 1.2v1.3c.1 1.3.2 2.2 0 4.9l-.4.2v.1l-.2.2h-.1l-1.6 2.2-.4.7-.2.3-.8 2.4-.5-.2c-.3 0-.5-.2-.7-.3a5.8 5.8 0 0 0-2.5-.6h-.8l-.3.1-.8.1h-.2c-.2.2-.5.2-.7.3l-.7.3h-.1l-.6.4-.1.1-1.2 1-.6.7h-1c-2.8 0-7.4 1.5-9.6 3.2v.1c-.4.3-1.3 1.1-2 2.5l-1.9 3.2 3.6.2c2.5.2 3.9.5 6.3 2.1v2.6l.1.4.2 1v.3l.3 1v.2l.4 1 .1.3.5 1c1.5 3 4 5.2 9 4.8l-.6 1c-.4.8-.7 1.7-.7 2.1v3.9h.1c-2.1 4.3-1.4 10-1.2 10.7l.5 3.7 3-2.3 2.8-1.6 1-.4.5-.3.5.4.1.2.5.3.2.2.4.2.3.1.5.3h.2l.5.2.3.1.5.1.4.1h.7l.6.1h1.8l.3-.1.6-.1h.3l.6-.3h.3l.6-.3h.2l.7-.4h.1l.8-.5.7-.6c1.5-1.4 2.6-3.8 4.3-5 1.9-1.2 4-1.2 5.8-1a6.7 6.7 0 0 0 .1 1.9c.2.8.9 2.5 1.6 3.2l.4.4.8.8.9.8v2.3c.3 1.2 0 2.6-.2 4v.2l-.2.8-.4.9-1.3 3.4 3.6-.4c2.2-.2 5.2-1 8-4.3 1-1 1.9-2.2 2.5-3.6l.5-.2h.1l.7-.4h.1l.5-.4.3-.2.3-.3.3-.3.3-.3.2-.3.3-.3.2-.3.2-.4.2-.3.3-.5.3-.4.2-.5.1-.3.2-.4v-.4l.2-.4.1-.3v-.4l.2-.4v-.7l.1-.3v-.4h.5l.7-.2h.1a7 7 0 0 0 1.3-.6c.2 0 .4-.2.6-.4 1.3 2.4 3.3 4.9 5.6 7a21 21 0 0 0 7 4.2c1.3.4 2.5.6 3.7.7l-.1-.2-1.1-1.5c-1.7-2.5-4-5.8-4-7.8l1.1.6c1.3.7 2.6 1.6 4.1 2.3a8.7 8.7 0 0 0 5 .6c1-.1 2.6-1 3.3-1.3l-2.7-2.2a47 47 0 0 1-4.4-4.8h.5l.3-.1h.3l.5-.1h.3l.4-.1h.6c2.7-.2 6.1-.1 9-.2h2.1c.9 0 1.7-.6 2.4-1l.9-.2h.7c1 0 2.2 0 3.2-.2h.7a16.4 16.4 0 0 0 3-.9l1.8-.4.7-.3c0-.3-.2-.8-.5-1.2-.5-.7-1.3-1.4-2-2l-.6-.7-1.4-1.5a12 12 0 0 1-2.3-6.8v-2.9l.1-1 .3-2.4.6-3.4v-.2l1-3.2.4-2a45.4 45.4 0 0 0 .6-6.9 119 119 0 0 0 37.2-6.5l-2 9.7-.1 1a92 92 0 0 1-.4 2.2 30 30 0 0 1-5.3 13.5c-.9 1-3.6 2.6-6 3.3a8 8 0 0 1-2.5.4c-2.4-.1-4.3-4.8-6.3-3.7-.8 5.1.2 10.3 5.4 12.6a16.6 16.6 0 0 0 7.1 1.3l1.5-.3h.6c.5.5-.4 1.3-1 2.3a14 14 0 0 0-1.2 3c-1.6 5.4-2.2 15.8.5 20.4.1.1 4.8 9.2 6.5 8.8h.2c.3-.3.4-.9.4-2a29 29 0 0 1 5-17.2l2-2.3c1-1 2-2.6 3-4.3 1-1.9 2-4 2.9-6.4l2.4 3.3.4.5 3 3.6 1.2 1.3c3.9 4.2 4 5.8.6 11.4-1.6 2.8-4.6 6.8-7.7 11.3-3.1 4.4-6.8 7.8-10.6 8.4l-1.3.1c-2 0-4.3-.8-6.8-.6l-1 .2h-.3l-.6.3a5.3 5.3 0 0 0-1.5.8s-.2 0-.2.2c-.2 0-.3.2-.4.3l-.2.2-.5.5v.1l-.6.8c-.7-.2-1.4-.3-2.2-.3-5.8 0-11.9 5-12.7 9l-.6 3 3.2-.4a20.5 20.5 0 0 1 3-.2l1.2.2c.3 0 .5.1 1 .4.8.4 1.7 1 3.3 1.3v1.1l.1.6v.3l.2.5v.1l.2.5v.1l.4.6c.7 1.3 1.7 1.5 1.4 2.5l-.3.6-.1.2-1.4 2.1a7.9 7.9 0 0 0-.3 7.2l.4 1.1-.4.8a18.6 18.6 0 0 0-.8 10.5c.3.8.9 1.7 1.8 3l2.1 3.2 1.7-3.4c1-2 2.1-3.3 4.5-5.1l.7.3.7.3.2.1.7.2h.2l.7.1h.3l.7.1h1.2c.8 0 1.6-.2 2.3-.4h.4l.6-.2.4-.1.5-.2.5-.2c.1 0 .3 0 .4-.2l.5-.2.4-.2.4-.2.4-.2.4-.3.3-.3.4-.3.2-.2 1.5-2 .7-.8a4 4 0 0 1 1-1.2c.1-.3.4-.3.7-.2.5.3 1.2 1 1.6 1.4l.2.2.2.2.2.1a21 21 0 0 0 4.2 8.1l.1.2 2.7 3.4 1.2-4.2a6 6 0 0 1 1-1.7l1.4-2 1-1.2c.5-.7 1.2-1.5 1.7-2.4l.6-.2h.2l.5-.2h.2l.4-.2.2-.1a4.4 4.4 0 0 0 .7-.3l.3-.2.3-.2.3-.1.2-.2.3-.2.3-.2.3-.2.2-.2.3-.3.2-.2.3-.3.4-.4.2-.3.3-.2.2-.3.2-.3.2-.3.2-.3.1-.2.2-.4.2-.2.2-.4.1-.3.2-.3.1-.3.1-.4.2-.3v-.3l.2-.3a12 12 0 0 0 .3-1.7v-.5l.1-.2v-1.5a5.4 5.4 0 0 0 0-.7v-.4l-.1-.3v-.5l-.1-.1-.2-.6c0-.5-.2-1-.4-1.4-.3-.8-1.3-1.7-2.5-2.4l.3-.1c.4-.3 1-1 1.4-1.2l.2-.2c.6-.4 1.4-1.5 1.8-2.3l1.7.8 1.3.4c.7.1 1.4.2 2.3 0h1.4l.5-.2h.3a11.4 11.4 0 0 0 2.5-.7l1.3 1.9.8 1.1 1.7 2.5 2-2.4c1.4-2 2.2-3 2.4-7.4.2-3-.7-5.6-2.4-7.4l-.3-.2v-.7c-.2-.5-1-2-1.2-2.1l-.2-.5v-.2l.2-.2a2 2 0 0 1 .3-.3l.2-.1h.1l.3-.3.5-.2h.1l.3-.2h.4v-.1a7.4 7.4 0 0 1 .5-.2 56 56 0 0 1 1.8-.6h.4l.4-.2c.3 0 .6-.2.9-.4l2.2-1.3c.5-.5 1-.9 1.2-1.3l.3-.5.2-.4a12.8 12.8 0 0 1-3.2-.9h.3c1-.5 4.2-1.9 5.1-2.5l.2-.1a17 17 0 0 0 2.4-2.7c.4-.5.8-.7.5-1.2l-.8-.3-3.2-.3-2-.1h-.4l-.2-.1h-.3l-.3-.2h-.3v-.1h-.2v-.1l-.2-.2c0-.2 0-.4.3-.5.6-.4 1.7-.7 2-.9a11.6 11.6 0 0 0 3.7-2.9c.7-.7 1-1.3 1.5-2.1l.6-1.5c1.3-.2 4.2-2.8 5.7-5.1a8 8 0 0 0 .9-1.7v-.2c.2-.4.2-.7.2-1-.1-.5-.4-.4-.8-.3-1 0-2.6.8-3.5.8h-.9l-.2-.2-.2-.1v-.2h-.1v-.4l.1-.2v-.1l.2-.2v-.1l.2-.3 2.6-3c.2-1.7 1.6-3.1 2.4-4.3 1.9-2.7 2.7-3.9 2.8-6 0-.7 0-1.2-.5-1.6-.3-.2-.7-.2-1.1-.2l-2 .2h-.7l-1.4.3-.7.1a11.9 11.9 0 0 1-2.7-.2c-3.3-.4-9.8-5.7-11.5-8a42.7 42.7 0 0 0-11-8.4 234 234 0 0 0 .9-39.5 69 69 0 0 0 12.5 15c6.5 5.9 13.5 10.8 19.5 16.9a57 57 0 0 1 9.2 11.8 43.8 43.8 0 0 1 3.8 9.5c.7 3.6.6 7.7.6 11.6 0 1.4-1 5.2-.3 6 .3.2.9 0 2-1.1 3.4-3.4 5.2-6.2 7.2-10l1.4-2.7v-.2a28.9 28.9 0 0 0 2.1-7.8v-5.5c0-.8-.2-1.8-.5-2.8l-.8-3.3v-.2a1.7 1.7 0 0 1 0-.3v-.2c.2 0 .2-.2.3-.2h.7v.1l.3.1.2.2.8.5a15 15 0 0 0 8.7 2c1.6 0 3.2-.2 4.8-.4 4.7-.4 9.4-1.5 13.5-3.5 1.8-1 3.8-1.9 5.2-3.3l1-1.1a28.4 28.4 0 0 1 1.3-1.5v-.2l.2-.2.5-1h-1.2l-1.6.2h-.3a95.8 95.8 0 0 1-21.4-4.7h-.2v-.1l-.1-.1v-.2h-.1v-.3l.2-.2c.5-.7 1.9-1.6 3.3-2.4l3.3-1.8.4-.2.7-.4c2-1.6 3-3.2 4-5.1a93.4 93.4 0 0 0 2.8-6.1c.3-.9 1.1-2.7 1.4-3.9l.1-.3v-.3c.2-1 .1-1.6-.2-1.7-.5-.2-1.2 0-2 .5-1.5.9-3.4 2.4-5.1 3.7a26.3 26.3 0 0 1-5 2.8c-2.3 1-5 2-7.4 2.8a17 17 0 0 0-4.9 2.6l-.2.2c2-6 3-13.1 3-17.4 0-4.7-2-13.6-1.8-24.6.2-6 1.3-16.1.7-23.4A28.6 28.6 0 0 0 373 229c-1.9-2.1-3-3.4-3.8-3.6-.9-.2-1 1.4-1.2 5.2-.2 5.8-4.4 12.4-6.3 18.9l-.2.3c-9-21-12-30-13.1-36.7l-.2-1.3v-.1a67.6 67.6 0 0 1 1-23.1c2.1-10 8-20.9 12-26.5 5.7-7.8 7.5-13.5 22-23.5 3.3-1.7 8-3 12.5-.8 1 .5 2 1.4 2.7 2.4a12 12 0 0 1 2 8.2l1-.4.3-.2.7-.3.4-.3c.2 0 .4-.2.5-.3l.5-.4.2-.2.3-.2.3-.3.6-.6.2-.2.8-.9.3-.4.4-.5c0-.2.2-.3.3-.5l.3-.5.3-.5a24.3 24.3 0 0 0 .8-1.3l.2-.6.2-.5.2-.5.2-.5.1-.5a14.3 14.3 0 0 0 .3-1.3v-2.1l-.1-.5v-.2c-.9-2.1-2.1-3.9-3.6-5.2 4-2 9.2-8 8.8-18.6v-.2l.6-1 .1-.4.2-.4.3-.7.4-1c.6-1.7.9-3.6 1.1-5.4l.1-.9a38.8 38.8 0 0 0-.8-8.7c.5-1.3.8-2.4.9-3.2.3-2 .4-3.9.2-5.9-.2-3-1-6-2.8-8.7v-.1l-1.4-1.7v-1c0-7.2-1.6-13.9-7-16.4zm-160.6 51.8h1.2l.5.1h.3l.5.2h.2l.5.3h.2l.5.4h.1l.6.4v.2a5.1 5.1 0 0 1 .8.9l.2.2.2.4.1.2.2.5v.2c.2.2.2.5.3.7v.2l.2.6v.8l.1.3a52.6 52.6 0 0 1 0 1.1v1.5c.1 1.1 1.5 1.4 1.6 3l-.1 1.4c-1-.9-2-1.5-3-2-3-1.5-6.4-1.9-9.8-1.8v-.1l.2-4c0-1 .2-2.2.5-3l1.4-2.3 2.3-.4h.2zm-74.7 58 .8.9a2 2 0 0 1-.8-1z"/><path fill="#fc0" d="M316.3 106.8v1.5c-.3 3.2-2.5 6.8-4.2 7.9-3.3 2.2-3.6.6-5.8-.8-1.8-1-3.4-2.5-5.6-2.8-1.1.5-.8 1.2.3 2 1 .6 2.4 1.9 2.9 2.2 1 .9 5.4 4.3 6.4 6.4 1 2.1 1.3 3.6 1.3 5.9 0 .7 0 2.4-.2 3-.5-1.4-9.4-10.4-11.8-10.4-2 .5-.4 1.5.3 2.2l3.4 3c1.6 1.7 5.2 5.7 6.2 8 1.8 3 1.9 7.9 1.6 11.2 0-1-2.7-4.7-4.4-6.4-1.3-1.4-3.4-3.6-5.3-4.1l.7-.6c.5-.5.8-1.3 1-2.4.2-.3-.2-.3-.6-.3-1.6 0-3.4.1-4-.1-1-.4-1.3-.3-2.4-1.3-2.4-2.3-2.5-2-1.1-4.5a23 23 0 0 0 1.5-6.7l.3-4c.3-4.5-1.7-8.4-2.4-10.4 2 0 3.5-.3 4.9-.7 2.3 1.9 4.6 3.1 7.7 4 2 .5 4.1.2 5.2 0 1-.2 3.3-.8 4-1.8zm61.2 167.3c0-1.4-.2-11.3.3-13.9.5-3.6.8-7.4.7-11.1a32 32 0 0 0-7.5-18.3c-.5-.6-.5-.3-.6-.1-.5 8.4-5.2 16.3-7 24a19 19 0 0 0 0 7.4c.2 1.7 2.7 6-.6 5.5-3.2-3.6-3.1-8.7-2.4-12.7-1.4-4-6.1-14.6-6.8-16.2a248 248 0 0 1-6-16.4c-1.4-3.8-1.4-3.5-2-6.4a88 88 0 0 1-.3-21c2.2-22 15.8-42.1 31.7-56 5.5-3.8 7.8-5 15.1-5 5.8 0 11.6 5 10.7 10.8 2-1.3 4.7-6.2 4.6-8.8-.3-4-2.4-6.4-5.9-7.8-1.6-.6-2.6-.7-7.6-.4 3-2.9 7.2-2.9 10.6-.8 1.8-2 8.7-6.2 7.9-13.2a22 22 0 0 1-5.5 4.4c-1.1.7-3.8 2.5-4.8 2.9l-1.6.4c-.7.4-1.6-.7 0-1.8 5-3.4 11-6.6 13.6-12.7 1.4-3 1.9-6.7 1-11.5a37.7 37.7 0 0 1-8.6 11c-.8.7-2.2 2.5-3.2 2.8-.2 0-.4-.3-.6-.5-.7-.7 4-6 5-7.2 3.6-4.1 4.4-5.8 6.8-10 1.8-3.3 1.4-14-1.2-16.3-.5 2-1 4-1.5 4.7a122 122 0 0 1-9.2 12.7c-.7 0-1.2-.3-.8-1.1 1.3-2.4 4.9-7.8 5.4-8.7 2.3-4 4-7.4 4.2-12.1a21 21 0 0 0-2-10.7c-1.5 8.3-9.4 15.2-12.4 25l-.5 2c-.1.6-.8 7.4-1.5 8-.4.3-1 0-1-1.2-.3-6.2.4-7.4-3.5-10.7-2-1.7-6.5-1.2-8-.7-1.9.5-4.6 2.7-5 4.2.8.5 3.2.5 5.6 1.8 3.5 1.9 4.6 4.5 5 8.2.3 2 .3 3.7.2 6a40 40 0 0 1-4 10 83.7 83.7 0 0 1-13.6 15.8 234 234 0 0 0-15.8 18.5c-2.2 3.3-5.2 7.5-8 12.2-4.1 7.1-7.3 14.6-9.3 20.8-1.4 4-2.4 7.3-2.3 9.4.5.8.8 1.4.6 1.8-.5 1-.9 1.4-1.3.9l-3.1-3.7c-2-2.7-7.4-4.5-10.1-6-2-1.1-3.6-2.8-4-3.2a6 6 0 0 0-.3 1.4 26 26 0 0 0-.2 6.2 16 16 0 0 0 3.5 8.5c1.2 1.2 3 1.5 5.2 3 4 2.5 8.6 5.2 5.9 6-.5-.1-4-2.3-4.5-2.7-1.7-.9-3.9-1.8-5.2-2.7-1.3-.9-2.5-1.6-3.5-2.5-2 4.1-.5 9.9 2 13.2a27 27 0 0 0 6.6 4.3c3.2 1.6 6 3.8 5.6 5 0 .2-.7.7-1.1.4l-3.9-2.4c-2.3-1.6-5-2.8-6-3.3l-1.4-1c-.4 1.8-.6 4.5-.3 6.1.3 1.8 2.4 4.6 3.5 5.9 2.8 3.4 10.6 5.2 12.8 9 1.7 3 0 3.4-.2 3-.6-.8-2-2.5-3-3-2.1-1.4-6-3.1-9-5a22.2 22.2 0 0 0 .4 8.2c.8 2.6 1.4 3.7 2 4.5.7.9 1.6 1.4 3 2.4 2.4 1.8 5.4 2.5 7.9 3.7 1.5.7 4 3.8 4 4.8 0 .3-.3 1.1-.7 1-.1 0-1.3-1.4-2.9-2.6-1-.8-2.2-1.4-3.5-1.8-1.5-.6-3.1-1.2-4.5-1.9 0 2.4.6 5 2.1 8.1 1.3 2.6 2.3 4.7 4.3 5.8 2.5 1.2 6.2 2 7.7 3 .7.5 3.2 2.1 3.3 3.1 0 .3-.3 1.3-.6 1.5-.3 0-3.4-2.7-5.1-3.2l-2.9-.8a17 17 0 0 0 3.9 6.4c2 2 3.3 3.5 6 4.2 2.8.8 3.2.2 4.5 1 1.4.6.6.3 2.4.5 5.2.5 16.6 1.1 17.9.7 1.2-.3 5.2 2.5 4.4-3zm24.9 54.2c-4.4-.8-14.5-4.2-18.2-5.4-1.4-.4-5.7-.2-8-.4-2.2 0-2.6-1 1.8-2a73.3 73.3 0 0 0 12-3.8c5.8-3 8.1-6.9 10.5-12.8.6-1.6-2.2 1.5-2.3 1.5a16 16 0 0 1-4.1 2.1 50.5 50.5 0 0 0-18.6 8.5c-1 .8-1.7 1-1.9.7-.3-.4.5-2 1-2.7 3.7-4.5 4.8-13.4 5-20.3-4 .2-7.2 0-14.9-.3.6 7-1 11.5-5.1 14.5-5.4 3.9-12.2-1.3-14.6-3.7a90 90 0 0 1-7-8c-9.2-13.5-15.6-27.7-22.3-41-6.3-12.6-11-28.2-18.5-39.6-1.5-.3-3-.9-4.6-1.5 2.2 4 4.9 7.7 6.9 11.5 1.6 3 4.6 10.2 5.3 13.3 1 4.2-2.7-1.5-3.8-4.2-1.7-4.1-4-7.6-5-10a123 123 0 0 0-8.3-13.5c-2.1-1.7-3.8-3.6-5.7-5.6l-2.7 9.6c-.8 3.1-1.6 5.2-.8 9.4.3 1.4 2.8 2.4 2.6 4.2-6.4.2-13-9.3-15.1-13.1a42 42 0 0 1-3.8-14.9 34 34 0 0 1-2 3 47.8 47.8 0 0 1-8.7 7.6c-1.3.7-6.5 2.7-10.2 2.6-2.2 3.5-6.6 5.2-9 6.3a15 15 0 0 1-4.9 1.7c-1.5.2-3.1-.5-2.4-2 0-.4 2.3-1.7 2.7-2l1.6-2.8a56.7 56.7 0 0 0 3.4-20.4c-1.9 2.2-4 3-6.5 4.1a31 31 0 0 1-7 2c-3 .5-7.5 0-10.8-1-2.6 1.6-5.7 3.6-8.5 4.9-3.5 1.7-7.3 4-10.8 5.7-3.5 1.7-7.3 2.9-5.5 1.4 1.8-1.6 6.8-4.1 7-4.3 6-3 10.6-5.5 15.7-8.4l-.3-.2-3.4 1.3-3.8.5a9 9 0 0 1-3.3 0c-4.6 1.7-21.3 12.4-23.8 14-4 2.7-10 6.2-14.1 7.4-10.8 3-14 .2-14.9-1-.8-1.2-.8-2.2-2.3-3.4-1-.8-1.8-1.3-2.9-1.6 0 .7-.1 1.4-.3 2a5.4 5.4 0 0 1-5.4 4.3 8 8 0 0 1-6-2.9 13 13 0 0 1-1.2-1.6l-1.2.5c-.8.7-2 2-2.3 3-.4 1.3-.8 4 0 5 .1.3.3.5.6.6l1.8.6c1.3.1 2.5.4 3.5.9 1.7.3 3.5.5 5.3.4l1.4-1.7c.1-.1.5-.5.8-.4.2 0 .7.4.7.7 0 .4-.3.8-.6 1.1 2.6-.7 6-2.8 8.2-2.8 6.1 0-2.3 2.6-4.7 3.9-3.3 1.6-6 1.9-8.8 1.4l.4 2c-.1.3-1 .3-1 .3-.1-.1-.5-.4-.5-.6-.2-.4-.6-1.3-.9-1.5a7 7 0 0 0-1.4-1l-1.4-.4-1.1-.1c-1.8 0-6.2 1.8-7 3.9h.1c4 0 7 2.7 7.7 7 .3 1.6-.2 3.2-1.3 4.6a8.7 8.7 0 0 1-5.4 2.9c.3 1.5 1.4 2.2 3 3 1.4.7 3.2.4 4.5 1 .1-1 .3-1.8.7-2.6a15 15 0 0 1 5-5c-.7-.2-1.1-.4-1.3-.7-.2-.5-.7-1.5.4-1.5 1 0 .9.8 1.4 1l.9.2c2.2-1.5 4.6-3 6.5-4.5 3.3-2.5 5.7-5.6 9.2-7.8 1.8.6.1 2.2-2.2 4.9-2.5 3-4.6 4.9-9.4 8 1.6.3 3 .8 3 1.5-.2.8-2.3-.6-4.2-.6h-.3c-3 1.8-5.2 3.4-6.4 5.8a7.3 7.3 0 0 0-.9 6l.3.6a8.7 8.7 0 0 1 6.8-3.8c1.8 0 3.5.9 4.6 2.5 1.4 2 1.7 4.7.9 7l-.6 1.1c3.1 1 7.2-1 10-4.3.9-1 2-3.4 2.1-5 .4-3.9-.8-4.8-2.3-5.4-.3-2.4 3.4-1.9 4.4 1h.5c2.7-.1 6.3-1 8-2.8 0-1.6.5-3.2 1.4-3.2.7 0 1 .4.5 1.8a4 4 0 0 0 .4 3.3 8.6 8.6 0 0 0 2.2 2.8c.5.5 1 .8 1.6 1v-.8c-.1-1.6.2-2.9 1-4l.2-.1c.5-.9 1.3-2 2.7-2.3.7-.2 1.3-.3 2-.3s1.5.1 2.3.5a7.1 7.1 0 0 1 4.3 5.9c1.1-1 2-2 2.2-3.7v-.3c.2-2.7-.3-3.7-1.9-5.3-.3-.4-2.6-1.8-.3-2.2 2.1-.3 2 .7 5.7.6 1.6 0 2.2-.9 3.3-1 1-.4 2.2-.8 3.3-.8 1.2 0 3.8 1 4.3 2 .2.5 1 1.3 1 1.8l.3 1.4c2.6-3 4.4-4.4 4.6-8.6.1-3.5 1-5.5 2.1-2.8.6 1.3.1 7.6 0 10.3l.1 1c.3 2.7 1.8 8.4 3 9.2 0-4 1-9.5 2.7-12.9 1-2.4 2.6-7 1.6-9.8 1.8-1.5 2.5 2.5 2.1 5-.4 2.3-1.2 5-2.2 7 3-1.5 5.1-4 6.4-5.6.9-1 1.5-5.3 1.7-9.4 2.4 1 1 5.3.8 7.7-.2 1.5-.7 3-.1 4.3 0 .2 0 .3.2.4.7 1.2 3.4 5.2 5.5 5.8-1.6-2-1.6-7 0-10.6 1-2.5 2.4-8 3-12.4 1.8-.2 1.1 3.2 1 4.6l-.7 3.1c-.2.5-.4 1.2-.4 1.8v1.9c.9-1.1 3.2-3.2 4-4 1-1.2 1.5-2.7 2.5-4.7.4-.7 2-2.2 2-3.1.2-.9 0-3.8.8-4.1 1.6-.1 1.1 4 2.5 6.3l3.7 5.5c.4.6 2.6 2.7 2.2 3-1 1-3.9-2.3-4.4-3-1-1.3-2.9-4.3-3.4-6-.5.8-2.1 4-3 6.1-.4 1-1.1 1.8-2 2.7 9.4 9.2 20 14.5 31.6 24.2 5.5 4.7 11 9.2 14.4 16 .3.7-1.3 1-2 .2l-2-2.6c-1.6-2.7-7.5-5-11-5 1.3 0 11.6 10 11.6 16.2 0 5.4-4.6 7.1-1 14.3a8.6 8.6 0 0 0 3.6 3c2-7 4.4-16.7 5.2-22.9.6-5.2 0-10.2 0-15.2 6.4-1 1.9 25.5.9 29.2-3 11.6-7.5 22.8-9.2 35.3-.5 4-3.2 16-5.2 18.4a16 16 0 0 1-6.3 5.1c-.3.2-4 2.7-9.5.6 2.2 4.8 6.4 6.8 10.5 6 2.5-.5 5-2 7-4.4 1.6.2-1.5 3.7-2 4.1a29.6 29.6 0 0 0-4.8 21.3l2-5.5c.8-1.6 2-3.1 2.5-4.7.8-2.4 2.8-5.6 4.2-7.7l.4.2s-3.5 5.7-4 7.7c0 0-2 4-2.5 4.7l-2.4 6.4c.2 1 .5 2.1.6 3.2.2 1.4 2.6 5.2 3 5.5 0-9 5.1-14.8 8-18.6 3.9-5 6.6-14.6 8.3-21.2 0-.5.4-1.8.9-2.5s1.4-1 1.6.6c0 3.2-1 7.6-2.4 11.9 1.2 1.6 3 4 4.8 6 3 3.4 5.8 6.7 6.2 7.8.5 1.1 1 2.3 1 3.5-.1 2.6-1 4.7-1.7 5.6-3.2 5.1-12.2 19.2-18 21.9-1.6.7-3.6.8-5.6.8l.1.2c.3.3.7.5.7 1 0 .2 0 .5-.5.5-.6 0-1-.2-1.4-.7l-1-1c-2.5 0-4.8.2-6.4 1.6l.4.3a5 5 0 0 1 1.6 5.9c-1 2.6-4 5.5-7 5.6v1.4c.5 4 6 1 9.2-1.3.4-1 .5-2.2 1-2.7.3-.3 1-1.1 1.7-.7.2.2.2.4.1.7 2.1-2.5 3.7-5.5 5.7-7.7 1.3-1.4 1.8 1.5 1.3 2.4a37 37 0 0 1-8.3 10.3c1 .3 2 1 2 1.7 0 .5-.4.4-.8.4s-1.4-.5-1.7-.6a3 3 0 0 0-1-.1h-.6c-.7.5-1.4.8-2.1 1.1-3.2 1.2-3.7 2.5-5.6 4.7-.7.8-1.1 3.7-.8 5.5a8 8 0 0 1 5.7-2.7c2 0 4 1 5.3 3 2 3 1.6 6.3-1.1 8.9 2.8 1 6.4 1 10.1-2.9 1.8-2 2-3.6 2.1-5.7a3 3 0 0 0-.5-.8c-.3-.2-.9-.6-1.1-1-.5-.6-1.8-1.2-1.4-2 .2-.3 1.2-.3 1.5-.2l.7.5 1 .8v-.1c.3-5 4-7.5 4.6-14.8.2-1.7-.1-7.3 2-5.8.7.5.6 2 .5 3.8l-.2 3.9-1 5.5-.4 1.4 1-.3 1.1-.2.1.4c0 .3-.5.2-.6.3l-.6.1-.3.2h-.2l-.8.3-.9 1.4c-2 2.3-2.3 7.5 0 9.6v-.5a8 8 0 0 1 4-5.4c.9-.5 1.8-.8 2.8-.8 2 0 4 1 5.4 2.6 1.4 1.4 2 3.2 2 4.9a9.7 9.7 0 0 0 6.2-8c.3-3 .6-5.7-2.5-7.2-1.1-.6-4.1.2-2.1-2.6h.3c1-.5 2-.8 3-1.6a13 13 0 0 0 2.3-2.4c-.7-.6-1.2-1.2-1.2-1.8-.3-3.4 4.5 1.3 5.8 2a10 10 0 0 0 6-.1l-.4-.2-.5-.2c-.7-.3-1.9-.7-2.6-2a5.8 5.8 0 0 1-1-3.8v-.4c.1-.8.2-1.8 1-2.9.4-.4 2-2.5 4.4-2.8h1.4c-.7-.8-2-1-3.4-1-.8-.2-1-.4-1-1 .1-1.6.3-1.4 1.1-1.4.8-.1 2.1.2 3 .3 2 .5 6.5-2.4 8.2-2.4-1.4-3-10.3-1.2-10.4-4.3 0-1.2 5.9-.5 7.3-.5 1.4 0 11-1.9 11.3-3.5-.7-.3-1.8-.3-2.7-.4h-.6l-1.3-.2c-3.2-1.5-5-2.2-9.2-2.9-.3 0-.8 0-.9-.3-.2-.9.9-.9 4.8-1.2 1.9-.1 5.6-1 7.2-1.8.9-.4 2-1.7 2.4-2.5.4-1-4-.5-5.7-.6l-4-.4c-1.3-.3-.6-1.2.3-1.2 2.4 0 5 .1 7.4-.4 2-.5 3.9-.9 5.7-1.7 1-.4 2-1.3 2.4-2 .1-.3-.2-.4-.8-.5-1.9-.2-6.2 0-6.8 0-2.7 0-8.5.3-8.3-1 .6-.8 3-1 4.8-1.2 3-.5 10.3-2.9 10.3-6.6-1.1.2-1.9.5-3.2.5-2 0-7.1.6-7.6-.4-.1-.4-.5-.8 0-1 .6-.4 2.9-.3 3-.3a34 34 0 0 0 7.4-.7c1.1-.2 2-1 2.9-1.6l1-1.3c.4-.4 1.4-2.4 1.4-2.5-2.2.5-4.3.7-7.2.5-4.5-.3-7.7-3.3-10.8-6.3l-5.2-5-4.8-4c-.4-.4-3.5-2.4-3.7-2.9 0-1.2.5-4.5.5-5 .2-2 .5-4.3.5-6.4 0-4 .3-7.8.4-11.9 0-7.8-1-17.8-2.2-25.8l-.8-2.3c-1.5-4.5-3.1-8.9-4-13.3 0 0-.2-.8 0-.8l1.1-.2c1.1.5 4.2 10.4 6 15.3a83 83 0 0 0 10.4 16.7c4 4 9.7 10 13.6 13a155 155 0 0 1 16.3 15c3.9 5.3 6 8.6 8.3 13.4 2 4.1 1.7 11 1.8 16 .7-.3 2-2.5 2-2.5a40.3 40.3 0 0 0 4.3-11.8c.2-2.4.2-4.7.2-7 0-3.5-2-8-3.5-10.3-1.3-1.7-2-3.8-2.7-5.7-.2 0 .6-1.4 1.4-.5 1.3 1.6 2 4.2 3.8 5.6a25 25 0 0 0 8.6 4c6 1.3 12.8.1 18.7-1.8 2-.6 6.5-2.7 6.1-3.4-.1-.4-1.7 0-3.8-.3zm-83.9 41.4c-.8 0-1.2 1.2-1.7 2-.4.6-1.8 1-1.6-1.5.3-2.3 3-2.6 5.3-3 1-.1 1.6-1.7 1.4-3a5 5 0 0 0-.8-1.8c-1.7-1.8-3.8-.5-6-1.5-.5-.4-2-2.3-1.9-3.4 0-.4.3-.8 1-.8 1.4-.1.7 2.7 4 2.6 5.4-.1 6.3 5.5 4.6 8.6-.9 1.6-2.9 1.8-4.3 1.8zm-3 6.3-2.1-2.4c-.3-.3.3-1 .8-.9.7.2 1 .7 1.6 1.6.3.4 1 1.1.5 1.6-.2.2-.6.4-.8.1zm-1.8 3c-.2-.5-1.4-2.2-1.8-2.7-.3-.4.4-1 1-1 .6.2.8 1 1.3 1.9.3.4 1 1.2.4 1.7-.2.2-.7.3-.9 0zm-1.3 2.4-1.5-2.2c-.1-.4.3-.9.7-.8.6 0 .8.7 1.2 1.5.3.4.8 1 .3 1.4-.1.2-.5.2-.7 0zm.3-60.3c-.6 1.4-.6-5.2-1-9.7-.1-4.4-.6-9.4-.6-11.4-.3-9.7-4.3-20.1-2.5-20 3 0 4.3 13.3 4.4 21l.2 11.2c0 1.4-.2 8.5-.5 9zm-1.5 64.2c-.3 0-.7-.1-.7-.4l.1-2.6c0-.4.6-.5 1-.3.3.2.2 1 .1 2 0 .4 0 1.2-.5 1.3zM309.6 271c-.2 0-.8-.2-.8-.5 0-.2 0-.4.2-.7 0-.2.3-.3.5-.5.3-.3.3-.5.8-.5l.2.1c.2.2.2.4.2.7 0 .4-.7 1.2-1.1 1.4zm-.7-3.3c-.3 0-.7-.2-.7-.6l.4-.7.3-.3c.4 0 .5.2.5.5l-.3.6s0 .5-.2.5zm-1.4-3.5c-.2-.2-.4-.3-.4-.5s0-.6.2-.7c.8-.2 1 .3.8 1-.1.4-.4.4-.6.2zm-.4-2.5-.5-.1v-.3c0-.4.5-.6.8-.4.1 0 .2.5 0 .6l-.3.2zm-21.8-1.1c-.7.3-1-.3-.9-.9.1-.4 1.5-.7 1.5 0 0 .4-.3.7-.6.9zm-1.4-3c-.3.5-.8 1-1.2.5-.2-.2 0-.6.1-.8.2-.4.6-.9 1-1 .2 0 .5.2.5.5s-.3.5-.4.8zm-3-2.3v-.7c.2-.4.5-.6 1-.5.4.2.2.6 0 1-.2.3-.8.5-1 .2zm-1.6-2.4c0-.2 0-.5.2-.7.2-.4.6-.3.7 0v1c-.2.4-.9.1-.9-.3zM223 211.1c.2 1 .5 3.6.1 4.7-1 3.2-5.4 4-8.2 2.3-1-.6-4.8 1-5.8 1.2-.6 0-2.3-.6-1.4-1l3.7-1.6c.8-.4 3.5-.8 4.4-.4 1.5.7 3.4 1.3 4.6 0 1.5-1.5.3-4.2.3-5.4 0-1 .6-2.7 1.4-2.7.6 0 1.3.1 1.2 1-.1.3-.7.9-.3 1.9zm-17.7 9h-1.5c-.4 0-.7-.4-.8-.6-.3-.3.2-1.1.5-1.1.4 0 .8.7 1 .7h1.2v.6a1 1 0 0 1-.4.4zm-3 2c-.6 0-1-.3-1.4-.7a.7.7 0 0 1-.2-.5c0-.8.7-1 1-.5.3.5.4.4.8.6.3.1.9.3.5.8-.2.2-.4.4-.7.4zm-3 2c-.5.3-1.2-.7-1.3-1-.1-.5.2-1.4.7-1.4.3 0 .3.8.4 1 0 .3.7.2.7.7 0 .4-.5.7-.6.7zm-4.1 1.3c-.3-.1-.3-.4-.2-.7 0-.3.5-1 .9-1 .2 0 .2.2.4.4l.5.3c.1.1 0 .4-.1.5-.2.5-1.1.7-1.5.5zM315.6 166c-.3-.9-1.4-2.8-2-4.9-1-2.7-2.4-5.9-3.2-8.8-.4-.9-1.2-3.7-1.4-4.4-.5-1.8-1.5-3.2-2.5-4.7-1.4-2-5-5.2-7.2-6.3a15 15 0 0 1-3.3 1.2c-3 .6-7-1-8.5-1.6.4 1.8.7 2.3.6 4.4l-.1 1.5c-.3 1.7-.9 3.6-1.3 5.1l1.5.3c0-.2.2-.4.6-.5 1 0 3 2.1 3.8 2.8 1.3 1 2.5 1.8 3.7 3l2 2.1c2.4 3.2 5.5 8 8.3 10.7 1.5 1.5 6.5 3.8 9.7 4.2h1.7c0-.6-2-3.2-2.4-4.1zm-67.7-85.5c-1.5 1-4.3 2.3-5.7 3.8-.4.5-1.6 2.8-2.6 3.7l-2.7 1.8c-1 .6-2.2 1-4 1.8a28.6 28.6 0 0 0-4.9 3c-1.2 1.2-3.8 2.4-2.3 3.6.5.5.7.6 1.6.2.9-.4 3.6-1.4 2.4.1-1.1 1.5-3 1.7-2.4 3.8.8 2.6 1.4 4.2 4 4.6a25 25 0 0 0 10.8-2.4c2-.9 4.2-1.4 6.2-.9.9.3 2.3.7 3.5 1.4 1.4.8 2.3 2.2 2.6 2.7.8 1.2.8 3.3.9 5 0 1.3.3 2.5 1 3 .3.2.8.6.8 2.2 0 1.1 0 2.5-.4 3.7-.7 2.1-3 3.8-4.3 3.7h-6.5c-3.7 0-4.5-.4-6.7 2.1l-.6.9c-1.3 2-2 4.8-2.9 7l-.5 1.5c.8 0 4.2-2 4.9-2.8l1.6-1.5a6 6 0 0 1 1.4-1c1.2 0-.5 2.4-.6 2.6-1.7 2.7 1.3 1.5 2 1 .5-.3 1.9-1.8 2.3-2.3l2-2c1.3-.3.7 1.1.4 1.5-.5 1-5.8 6.7-1 4.2a22 22 0 0 0 3.2-2.1c.8-.9 1.2-3 2.2-3.3 1.4.4 0 3.5 0 4.2 0 1.9 1.3 6.6 3.2 6 .2 0 .4-1 .4-2 .1-1.2.2-2.6.4-3 1.3-2.5 2.1-4.1 2.2-8 0-1.2 1.5-.5 1.7-.3.7.9-.8 4.1-.7 6.3 1 .4 2.7-.5 3.3-1.1 1.1-1.1 1.2-3.6.6-5.5l-2.5-4.7c3.7-1.8 7.4 9 11.9 9a17 17 0 0 1-1.5-4.2c-.3-1-.2-2.5-.3-4 0-1.6-.2-3.1-1-4a8.1 8.1 0 0 0-2.2-2.3c-1.6-1.4-3.1-2-5.4-2.5.2-1.6 3.5-1 4.6-.6 1.4.5 2.4 1.4 3.4 2.4.2.2 1.1 1.5 1.3 1.5.3.2.4-.4.4-1.2 0-.8-.3-1.8-.6-2-.6-.7-1.2-1.9-2-2.6a30.4 30.4 0 0 0-8.4-4.1l-.4-.1c1.9-1.3 4.7-1.8 7.5.6 2.3 1.9 6.4.4 7-1.6-4-.3-5.8-1.3-8.4-3.2-3-2.2-8.5-2-8.3-4l.3-.4c7 0 9 1 12.5 3.7 2 1.7 2.6 2.7 5-.1 1-1.2 1.7 3.5.2 5.4-.8 1-2.4 3-4.4 3 .6 1 2 2.4 2 5.2v.2c0 1 .1 2.5-.8 3.9-.5.7-.1 3 0 5.3.3 2.6 1 3.4 2.1 4.5a7 7 0 0 0 2.6 1.5c-1 2.2-3.7 2.8-6.2 2-1.2-.4-2.9-.9-3.8-1.9-.8-.8-1.4-1.8-2.2-2.7a7 7 0 0 1-7.2 6.9c-.5.2-.8 1.5-1 2.8 0 1 0 2 .3 2.4.7.6 1.8 2.2.7 3.2-2.2 1.9-7.8-4-8-6.8l-1.7.5c-1.8 1.5-4.2 4-7.2 7.5-1.8 2-2.6 2.5-5.6 4.6-2.8 2-5.4 2.8-8.1 2.3-2.7-.5-5-2.7-4.6-6.4a18 18 0 0 0-3.6 3.7c-1.6 2.7-3 8.7-.6 11.3 1 .9 2 1.9 2.9 2.1 1.5.6 4.5.2 6-.1 3-.6 6.2-4 9.4-4.3.8 0-4.3 4.6-5 5-2.4 1-5 2.5-9.7 2.2-2.5 1.7-5.7 5-7.7 7.6-3.1 4-5.8 8.5-7.9 11.6l-1.5 2.4-1.5 2.6c-1 1.7-2 3.3-3.1 4.4-.4.5-2.5 2-1 2 2.2-.1 4.4-1.4 6.8-2.3 4.2-1.6 6.4-3.3 8.7-5.2 4.2-3.6 8.4-7.3 12.2-9.5.2 0 .2 1.3 0 1.6-.1.4-.3.6-.7 1-2.5 2-5 4.2-7.2 6.5-3 3.4-5.9 6-10 7.7-1.8.3 5.3.9 6.2.8a57 57 0 0 0 8.6-2c2.8-1.1 6.1-4 6.6-4.4 1.9-1.5 8.3-12 10.2-11 0 4.5-5.6 6.3-7 16.8-.5 4.7-1 12.7-2.7 16.4-1 2.3-2.1 3.2.2 2.6 2-.6 8.7-7.2 10.1-9 3.1-3.8 3.1-10.6 8-15.3 1.7.9-1.9 7.6-2.3 8.7-1 2.7-.5.9-2.5 7.2-.4 1.6-1.9 2-.2 1.9.9 0 2-.4 2.8-.7 2.2-1.2 4.7-3.6 6.7-5.3 1-.9 2.7-2.6 3.4-4 2.7-4.7 2.7-6.7 3.9-9.6.5-1.3 1-2 .5-2.2l-1.4-.5c-6.5-2-9.8-11.3-13-14.9-.5-.6-5.5-4.9-3.4-4.9 2.3 0 6 5 7.6 6.9 2.6 3 5 7.5 8.4 9.9 2.7 2 5.3 2 6.6 2.2 2 .4 6.4-.4 8.1-1.7 2.8-2 1.5-1.8-.2-2.4a9 9 0 0 1-4.3-3l-1.5-3.2c-1.9-3.8-2-4.8-3.2-9.2-.5-2.2-1.5-4-1.9-4.5-1.2-2-8.9-12.1-5.4-13.3.2.5.2 1.1.3 1.6.2.7 1 1.4 1.3 2 1 1.5 2.4 3.5 3.7 4.7 1.8 1.8 3 5 4 7.7.2.6 1.3 4.6 1.7 4.4 1.9-3 2.6-4.8 3.9-7.3 1.5-2.9 2.4-4.2 2.6-7.2l-.2-3c-.3-3.3-1-4.8-1.5-6.1-.6-2.1-1.4-3-2-4.1-1.4-2.9-3.6-5.8-2.3-5.9-.1.4 2.4 1.7 3 2.6.8 1.2 2 2.3 2.6 3.5 1.2 2.2 2.4 7 2.5 9.1l.1 4.3.4-.2 2-3c1.6-3.1 2.2-3.4 4-10.2.3-2.2.2-2.9 0-4-.5-1.7-1.8-3-2.9-4.3-.9-1.2-4.8-7.2-2-7 .2 1.5 4 5.5 6.7 7.3 2 1.2 9.1 2.1 12.2-.1-1.9.2-4-.7-5.2-1.3a16 16 0 0 1-3-3c-1.3-1.6-2.9-8.6-3.8-10.6l-2.5-4.8c-.6-1-1.7-1.8-2.2-2.7v-1c1.3.4 2.7 1.7 3.9 3.1a15 15 0 0 1 2.6 4.6c.6 1.6 2.2 5.2 2.8 8l.5-.5a20 20 0 0 0 1.5-6.4c.3-4.2-.2-8.7-1.6-11.5l-1-2c-.4-1-1-1.8-1.4-2.7-.6-1.2-2.5-3-2.3-3.8.4-1 1-1.5 1.6-.4l1.7 2c1 1.4.7.7 3 1.1.9.2 6-1.2 7.8-4a15 15 0 0 0 1.3-13.7c-1.2-2.5 1.4-5.5-3.7-4.4l-3.3 1.1c-1.3.5-2.6 1.3-3.5 2-1.6 1.4-2.9 3-3.8 3.9-1 1-1.9-.6-2.4-1.8-.5-1-2.2-2.5-1.8-2.8.3-.2.6-.3 1-.3.2 0 1.6 1.8 2 2.2a18 18 0 0 1 4-3.7l-.3-.2c-8.5-11.3-44.2 0-44.2 0zm47 14.7c.4-3.1-.7-8.3 1.4-10.4 1-1 1.7-1.4 3-1.6 2.4-.6 2.9 5.6 1.3 5.6l-.4-2.6c-.6-1.2-1.8-.5-2.4.3-1.2 1-1.2 4-1 5.7 0 1.9 0 2.5.6 3.3 1.1 1.4 2.7-.4 3.2-1.2h.4c0 4.5-6.7 6.5-6 1zm-33.3-5.4c-1.6 9-13.5 8.2-13.5.4l-2.7 1.8c-1.5.8-1.1-1.5-.7-1.7 1.1-.8 2.4-1.5 3.5-2.4 1.3-1.1 2.9-2.9 3.6-4 1.5-.3 3.2 1.7 4.8 2.3 1.6.5 3 1 5 1.4 1 .2 2.3.3 4.7.1l4.4-.3c1.6 2.6-7 2.4-8.5 2.5h-.6zm-26.5 13.7c0-.4.5-.8.9-.8.8 0 1.2 1 .3 1.4-.5.2-1.2 0-1.2-.6zm-3-3.2c0-1.2 1.4-.7 1.7 0 .4.7-.4 1-1 .8-.4 0-.7-.3-.7-.8zm-2 3.9c.2-1 2.4-1 2 .1-.5.7-2.3.9-2-.1zm70.6 60.6c-.2-.6-1.1-2-1.7-3a41 41 0 0 0-5.6-7.3l-3.4-3.6c-.3-.3-1.9-2.2-1.8-3l-1.5-.4c-.6 2.3-1.8 4.2-2.8 5.8-1 1.8-4.6 6.4-4.9 7a167 167 0 0 0-4.1 8.6 9 9 0 0 1-3.3 4.3c-.1 0 .2 1.3.5 1.7l.5.9 1.5 2.7c1.2 1.8 3.8 2.8 6.4 2.5 1-.2 1.5.3 1 1.1-1.4 2-2.7 3.9-5 5.2-2 1.3-5.1 1.9-9.9 1.3-.5 1.6-1 4.6-1.6 6 0 4.5.8 11.1 2.4 15.6 1.7 5 4.7 8 7.4 11.5-.3-5.2 3.4-14 4.5-18.4 1-4.1.6-7.9 1.6-12 1-4 .7-5 2-4.4.3 2.4-.4 5.9-.4 9.2 0 6.9 2.3 6.5 3.2 8.1 2.4 4.4 12.3 10 16.9 9.5-2.3-.5-7.6-12-8.2-16.6-.3-2.7-1.3-6-1.8-9.1-.8-4.6-4-11-5.8-15.2-1.4-3.4-6-8.2-3-8.3 4.2 2.8 13.3 20 13.8 30.9.3-.2.7-.8 1-1.4.8-1.5 1.4-3.7 1.6-4.2a49.6 49.6 0 0 0 2.1-19.6c-.2-1.7-1-3.8-1.6-5.4zm-28 127c0-2.6 1.3-4.8 1.9-7.2-3-1.8-11.8-2-20.3-2.4-10.6-.5-19.4 3.3-29.6 3.2-3.7-.4-7-1.6-9.7-4.3-.5-.6-1-1.2-1.2-1.8a7 7 0 0 1-.7-3.3c0-.9.6-2.1 1-2.8a9 9 0 0 0-3 .5c-1 1-1.2 2.6-1.2 4 0 .9.6 3 1 3.8.2.5 1.1 2-.2 2-1.8 0-2.9-5.7-3-8-2.3 1.6-4.1 4-4 6.7 0 1.7 1.6 5.8-.4 5.8-1 0-2.7-1-3.6-1.3-1.6-.6-3.7-.5-5.1-.5a30 30 0 0 0-11.3 3.6l-.4.2c3.6-.3 8.1.2 11.5.6 1.8.3 4 .8 6.1 1 1.4.2 2.8 0 4 .4.2 0-.4 1-1 1-3.9-.2-7.4-.8-11.6-1.3-2.8-.4-8.3 0-11.5 0l-2 1.5c-.8.6-1.8 1.8-2.5 2.5l-2.6 2.7a54 54 0 0 1 18.4-.6c5.2.8 10.8 2 16.5 2.2 4 .2 18.8-3.6 16-.7-.5.6-1.9.8-5.4 1.6-3.6.9-7.9 1-10.6 5.3a67.3 67.3 0 0 0-6.7 21.8c-.9 3.6-2.3 4.8-4 6.3-.8 1-6 2.5-8.5 3.2a47.4 47.4 0 0 1-10 .6c-1.3 0-2 .1-5.7-.8 0 0-1.4-.7-2-1.5-.6-.8-1-2.6-1.3-5-.6.2-1.5.5-2.2.5-.2 0-.3-.5-.3-.6 0-.4.5-.6.7-.7.4 0 .9-.5 1.1-.6l.4-.4-.2-1c-.4-2.3-1.2-4.1-3.5-5a9 9 0 0 1-2.9 5.5 5.8 5.8 0 0 1-4.1 1.8c-2 0-4-1-5.4-2.6a7.8 7.8 0 0 1-1.6-2.5 7 7 0 0 0-1.7 4c2.8 2.5 4.9 3.1 8.5 4 .4-.1.6-.3 1-.7.3-.3.7-1.2.9-1.2.3 0 .6 0 .8.3 0 .1.1.6 0 .8-.1.3-.4.8-.8 1.2l1.6.5c1 .2 6.2 2 3.8 2.7-1.2.4-11.3-1.2-14-3l.2.9c0 .5 0 1.3-.6 1.4-1.2.3-1.4-1.8-1.6-2.6a6 6 0 0 0-1-1.8c-2.8-1.7-6.1-3-9-1.3 2 .6 3.6 1.7 4.5 3.2 1 1.4 1.6 3.7.2 7-.7 2-2.7 3.2-5.3 3.2-1.4 0-2.8-.4-4-1 0 2.4 1.8 4.9 3 6.1 2.3 2.6 5.3 2.5 7 2.3 1.7-.2 1.9-1.5 3.2-2.2l.5-1.1c.2-.5.2-1.1.5-1.5.2-.3.4-.2.5-.2.5 0 .6 1 .6 1.4l-.2.9v.2h2.2l3.8-.4c2.7-.2 7-2.8 10.4-3 1-.2 3.6-.5 3.1.5-.6 1-4.2 1.8-6.2 2.5-1.5.5-3.8 1.7-6.4 2.4l-2.8.6.5.3c.1.1.8.8.8 1 0 .5-.7.4-1 .4-1-.3-1.6-1.1-2.6-1.4l-1.8.2c-2 .4-2.4.9-3 1.3l-.4.4c-1.1 1.2-2.7 3-2.7 4.9v.4a8 8 0 0 1 5.9-2.4l1.6.1c2.2.3 3.9 1.7 4.6 3.9a7.6 7.6 0 0 1-4.4 9.4c.8.5 1.9.8 3.8 1 2.3 0 4.4-.4 6-3.3.6-1 1.2-1.7 1.8-2.3v-1.6a5 5 0 0 1-.2-1.6c0-.5.3-1 .8-1 1 0 .6 2 .7 2.6l.1.5 1.9-1a18 18 0 0 1 5.9-.7c.4-1 1-2 1.6-2.5 2.5-.1-.1 2.6-.2 4.3v2.1l.4 1c.4.6 1 1.6 1.8 2v.1c.2-.7.6-1.4 1.2-2l.1-.1.3-.3a6 6 0 0 1 2.5-1.6l2.1-.2c1.2 0 2.2.2 3 .8a6.7 6.7 0 0 1 3.2 6.4c1-.8 1.8-1.8 2.2-2.7.7-1.6 1-3.9.6-5.6-.3-1.1-1-2.5.5-2.5.9.5 1.4 1.4 1.7 2.6h.3c.9-.3 1.6-.4 2.2-.9a14 14 0 0 1-.6-1.8c1.6-2 2.5.5 2.7 1 .6 1.4 1.4 2.3 2.2 3.6 2.3 3.5 4.6 4.8 6.8 6.6 2.4 2-1-3.7-1-4-.7-1.1-1.1-2.5-1.5-3.6a30 30 0 0 1-2.3-7.1c0-.8.5-.8 1.2-.9 2.5 4.3 5.4 9 10 10.9 2.6 1.1 2 .3 1-1-1.1-1.4-2.2-3.8-3.2-5.8-.6-1.2-3.3-7.4-2.8-7.7 2.2-1.4 3.8 6.2 5.5 6.5 2.2.4 3.4.4 4.5.4-1-1.6-5-5.5-3.6-6.2.8-.3 5.3 4.7 7.3 6h3c1.5 0 2.4 0 3.2-.3h.2l-1.5-1.7-3-4.3c-.3-.4-1-1-1-1.4.1-1.5 1.4 0 1.6.1 1.2 1.2 5.1 5.5 7 6.3a36 36 0 0 1 3.3-.5c5-.7 1.7-1.3 0-2.7-3.4-3.4-4-9-3.2-12 1-3.8 2-10.5 2.8-13.6.7-2.7 0-4.7.7-8.4 3.5.3 6.4.6 10.9 0 10.1-1.3 21-2.7 29.7-7a173.9 173.9 0 0 1 3-11.8c-4.7-2.5-6.7-5.6-6.7-11zm-52.5 47.6c.3 1 .7 2.3.7 3.6 0 3.6-4.2 4.7-7 3.8-.4 0-1.6-.9-1.8-1-1.6-.7-5.4 1.2-5.7.8-.6-.6 1.2-2 1.4-2 1-.8 2-1 3.5-1 1.6 0 2.5.1 3.3 1 .8.8 3.4.3 4-.7.5-1-.6-3.7-.8-4.5-.5-2.5 2-4.4 2.7-2.7.2.6-.6 1-.6 1.2l.3 1.5zm-16 9c-.6 0 0-1 0-1.1.1-.3 0-.6 0-.8 0-.8.1-2 1-1.8.6.2.1 2.7-.2 3.3-.1.4-.4.5-.8.4zm-2-1c-.2.5-.2 2-1 1.7-.6-.2-.5-1.1-.5-1.6 0-.4.9-1.6 1.3-1.8h.5c.2.2.2.4.2.6l-.5 1.1zm-3 1.8c-.5.1-1-.4-1-.8-.4-1.1 1.4-1.7 1.4-.7l-.2.7c0 .2-.1.7-.3.8zm-3.2.7c-.4.4-.9.6-1 .6-.3 0-.4-.5-.3-.8l1-.9c.3-.2 1.3-.2 1.3.2 0 .3-.4.6-1 1zm20-203.1c-1-2-2.7-3.8-4.2-5.6-5-5.8-11-10.8-16.2-16.2a223 223 0 0 1-14.4-14.6c-3.4-4.1-7.7-9.2-8-14.3 0-1.6.6-3 1.4-4.4-.5 0-1-.2-1.3-.5-1-1.1 1.6-.8 2.8-1.6l1-1.5c.7-2.2.6-6-.8-7.3-.6.7-1.3 1.2-2 1.5a5.1 5.1 0 0 1-4.9-.2c-2-1.2-3.3-3-3.6-5-.1-1.5.3-3 1.2-4.4-2-1.6-3.9-.8-5.6.8l-.7.8.2 1.3c.1 2.1.8 4.6 1.7 7 .3.3.7.5 1 .5.7.2 2 0 1.5 1-.2.5-.9.6-1.6.6 1.3 3 3 5.8 4.4 7.5.2.3.9 1 1.1 1.7.3.8.3 1.5-.8 1.4-1.6-.1-3.5-3.1-5.6-6.4a29 29 0 0 1-3.9-9l-.3-2.7-.4.5c-.2.3-1.6 2-2.6 1-.4-.4 1.2-1.4 1.3-1.8l1.4-1.7c-.7-4.2-2-7.9-6.7-9 .4 1.2.5 2.3.3 3.4-.3 1.5-1.4 3.5-4.7 4.9a5 5 0 0 1-2.2.4c-2.8 0-5.6-2-6.5-4.5a7.8 7.8 0 0 0-2.8 4.4c-.2 1-.1 2.7-.2 3.8l.5 3.2c3.2-.2 6.5.7 9 3.2l.8-.9c.4-.3.8-.5 1.2-.4.4.1.8.3 1 .6 0 .3-.6.9-.7 1-.3 0-.7.4-.9.5l-.2.5c2.3 3 1.6 3 8.6 8.7 1.2 1 3.4 2.3 5.3 3.6 2 1.3 3.7 2.4 4 2.8.2 1.7-.4 1.5-1.4 1.3-1.1-.3-2.5-1.4-3.7-2-1.8-1-7.4-4.3-8.4-5.2a33.3 33.3 0 0 1-4.3-4.3c0 .9.3 1.9-1 1.8-1 0-1.3-3-1.5-3.5l-.8-2-2-1.6c-2.7-2.1-7.6-1.4-10.1.3l1.1.5c2.7 1.4 4.3 3 4.2 6.8a6.1 6.1 0 0 1-4.2 5.8c-1.1.3-2 .5-3 .5-.7 0-1.4 0-2-.3a7 7 0 0 0 .5 2.6c2 4.6 6.4 6.2 11.2 5.6 3.8-.5 2.2-4.5 4.6-3.4.8.3.6 1.3 0 2.3 1.2 2.9 4.6 5.4 7 6.8 1 0 1.8.3 3 .8 0 1.8-1.7 1-3 1.4-1.3.5-1.2.5-2.3 1.6a8.8 8.8 0 0 0-2.5 3.5c0 .4-.3 1-.2 2.5l.2-.1a8 8 0 0 1 3.7-.2c1 .2 2.7.5 3.8 2l.1.2c.5.8 1.3 1.9 1.1 3.6a8.6 8.6 0 0 1-2.8 6.2 4 4 0 0 0 2.1.4l.5-.2c2.3-1 4.3-3.3 5.2-5.3a3 3 0 0 1-.1-.6c-.3-1.2.5-2.4 1.2-1.7 1.3 1.2 2 3 3.7 5 2.5 3 4.3 3.8 4 8.5-.1 1.4-1 3-1.9 4-1.5 1.7-4.4 1-4.3 1 .2 1.1.5 1.4 1.2 2.2a9.2 9.2 0 0 0 3.8 2.3c1.5.7 3.5.5 5 .5 1.7 0 3.4-1.9 4.7-1.2-.4 1.4-1.8 2-3.4 2.4-1.7.6-1.4.3-3 1.2-4 2.2-5.4 5.6-5.9 9.2.6-.7 1.5-1 2-1.1.6-.2 1.1-.3 1.8-.3l3.5-.1c2-.3 4.8-2 6.6-3 .8-.6 4-1.7 4-.1-1.4.2-2.1.9-3 1.6-1.7 1.6-1.5 1.2-2.3 1.8l-2 1c-.8.6-2 1-3 1.3.6 2 4.1 2 9 1.7 2.8-.2 5.6-1.6 6-.6-2.3 2.3-8.2 3.4-10.4 3.5l1.3 1.6c.5.4 1.1.8 1.8 1 1.7.7 2.7.7 4.5.7 3.2-.1 8.4-1.5 8 .4-4.5.3-6.5.6-7.8 4.2-1 2.8-1.2 5-1 8.3 1.8-2 5.6-2.7 11.2-4.3 1.9-.5 5.7-1.9 7.6-.8-3.6 2-5.3 2.8-8.1 7a13.8 13.8 0 0 0-1.4 9.6l.8 2.8c2-1.2 4.4-3 5.4-4 1.6-1.5 4-5.5 5-7.3l3.4-5.8a64.5 64.5 0 0 1 13-15.8c-3.2-1-4.8-6.8-3.4-12.3-.8-1.2-2-2.5-2.2-2.8-1-1.2-2-1.9-2.6-2.9-1.9-2.3-3.5-3.7-5-5.5-3.3-3.9-9.5-8.5-8.7-10.6 1.2-.6 7.4 6.8 9.5 8.8 3.5 3.2 6.8 7.5 9.8 10.6v-.3a9.9 9.9 0 0 0-1.3-4.1zm-8.8 24.2c-.2-.1-.6-.6-1.2-.6l-2.6.7c-4 .2-5.7-3.8-5.3-6.6.1-1.6.8-2.4.7-3.6 0-.6-.8-.7-1-1.6-.4-1.7 2.3-1.1 2.9.1.5 1-.2 3.7-.3 4.2-1.2 3.4 1.5 6.2 4.7 4.8 1.6-.7 4 .5 3.8 2-.2 1.3-1 1.2-1.7.6zm-10-14.6c0 .3.2 1.3-.8 1.3-.9 0-.9-1.6 0-2.4.2-.3.6-.5 1.1-.6.4 0 .6.8.3.9a2 2 0 0 0-.6.8zm-2.6-1.7c-.6.6-1-.3-1-.8-.2-.4-.2-1 0-1.2.4-.3 1-.5 1.4-.3.3.1.5.5.3.6-.5.4 0 1.3-.7 1.7zm-3.4-2.8c-.3-.1-.4-.3-.4-.6-.1-.4 0-.7.2-1 .6-.6 1.5-.4 1.4.5-.1.5-.6 1.3-1.2 1zm-2.2-3c-.4-.1-.3-.4-.1-.6 0-.2.7-.6 1-.7.4-.2.7-.2.8.3 0 .2-.2.4-.4.6-.3.3-.8.6-1.3.4zm190.4 145.3a181.5 181.5 0 0 0-3.5-28.3c-1.8 9.5-3.3 7.5-5.6 7.6-6.1.5-.4 1.2-6.6 1.2-2 0-6.5-1.3-9.4-1.7-1.7-.4-4.5.5-4.5 1 11 6 14 12.3 14.8 19.4.4 3.2 5.6 1.7 14.8.8z"/><path fill="#fff" d="M176.2 65c-.3 1.1-.8 1.7-1.7 3.4-1 1.7-3 2.8-4.6 4.4-2.3 2.1-2.7 5.4.7 7.3 6 3.4 9.6-12.5 5.6-15zM136 59.1a19 19 0 0 1 4.2 9.6c.1 2.3 3.4 4.8 6 3.7 5.4-2.2 3.7-6.3.4-9.7-1.5-1.7-5-3.6-7.4-3.7-.6 0-2-.2-3.2.1zm-16.8 33.1a13 13 0 0 1 3.7-3c2.4-1.3 5-2 8-.5 2.2 1.2 3 2.1 3 4.8-.1 2.1-1.2 3-2.9 3.7-2.8 1-4 0-6.3-1.3-.7-.3-5.3-3.5-5.5-3.7zm17.8 39c.4.3 3.8 2.4 7.3 2.9s7.2-.1 7.6-5.6c0-1-.4-1.5-.9-2.3-.5-.6-1.4-.9-2.4-1a6 6 0 0 0-2.7 0c-.9.3-1.6.8-2 1.4a11 11 0 0 1-3.8 3.3c-1.5.8-2.8 1.2-3.1 1.2zm-14.6 78.3c.6.8.7.4 2.4 3.5.9 1.6 1.3 3.5 2.7 5.2 2 2.4 6.6 3.3 7.6-.5 2.6-9.9-11.1-8.5-12.7-8.2zm48.7 52.2c1.6-.4 3.8-.2 5.9-3.5 1.8-3 2.8-7.6-1.5-9.6-1-.4-1.9-.3-2.8 0-.8.2-1.1.8-1.7 1.6-.6.8-.7 1.6-.6 2.5 0 1 0 1.6.4 2.5.5 1.5.4 3.3.4 4.9 0 1.8 0 .8-.1 1.6zm-39.4 9.5c.2-.8.4-1.2 2.3-4 1-1.6 3-2.7 4-4.7 1-3-1-7.3-4.5-6.3-9.2 2.5-2.9 14-1.8 15zm-25.7-23c1.7-1.1 6.1-2.4 10.3-2.1 2.6.2 6.2-2 5.7-4.9-.9-5.5-5.6-6.3-9.6-4a17 17 0 0 0-5.9 7.3c-.2.5-.6 2.4-.5 3.7zm47.4 64.3c.7 3.7.5 2.2.6 4.3 0 1.6.1 2.5-.2 6-.2 3.3 4.7 7.2 7.8 4.1 7.4-7.5-5.8-14-8.2-14.4zm-26 24.6c3.2.2 5 .7 8.6 3.4 2 1.4 5.8 1.7 6.8-.8 2-4.6-1.2-7.3-5.6-7.5a18 18 0 0 0-8.3 2.9c-.4.3-1 1-1.6 2zm16.5 34.2 4-2.2c1.7-.9 4-1.1 5.5-2.8 2.2-2.2 2-7-1.8-7.5-9.5-1.3-7.9 11.4-7.7 12.5zm33.5 9.6c1.7-.2 4.1-.7 6.6-3.5 2.4-2.8 4.5-6.8.7-9.5-1-.6-2.5-.5-3.4-.3-.8.2-1.2.7-2 1.4-.6.6-.8 1.4-1 2.3v2.5c.4 1.6 0 3.4-.3 5-.3 1.7-.2 1-.6 2zm71.7 31.5c3.4-.5 2.9-.3 4.9 0 1.7 0 2 1.3 5.4 1.8 3.2.7 8-4.9 4.7-7.4-5.7-4.5-14.2 1.9-15 5.6zm12 34.4c1.4-3 3.2-4.5 6.7-7 2.7-2 3.1-4.4 1.6-6.6-2.7-4-7.1-1.8-9.2 2.3-1 2-1.3 6.7-.6 8.9.1.5.8 1.5 1.4 2.4zm32-1.6c.3-1.2 1-1.8 2.7-4.3 1-1.7 2.8-2.7 3-5 .2-3-4-6.4-6.9-4.7-7 4.2.4 13 1.2 14zm31-27.5c1.3-1.6 1.9-2.3 2.1-6.1.2-3.7-1.5-7.7-6.3-7.4-1 .1-2.2 1.1-2.8 2-.5.6-.5 1.2-.6 2.2 0 1 .3 1.7.7 2.4.5.8 1.3.8 2.1 1.2 1.4.7 1.8 1.1 2.8 2.9l2 2.8z"/><path fill="#be1e2c" d="M254.1 120.8c-.4 1.1-1 2-2.7 2l-1.3-.1-1.8-1.5c-1.7-1.2-1-.3-3.6-3l-.7-.7 3.2.3a19 19 0 0 1 7 3zm-14.5-3.2c-11 1-21.4 1.3-26-6-1.5-2.3-1.7-3.5-1.8-6.7-.4.4-2.8 2.3-3.2 4.6-.2 1.8-.5 3.6.4 5.8.7 2 1 2.3 1.8 3.2 1.5 1.7 4.2 3.3 6.5 4a32 32 0 0 0 12.1.8c3.6-.3 7.1-.8 10.7-1.3 0-1.5.1-3.2.3-4.5l-.8.1z"/><path fill="#f5f5f5" d="m244.7 121-1.6-1.7c0-.1-.5-.8-.8-.6-.3.1-.2 2.3-.1 3.7 1-.2 2.4-.2 3.7 0l-1.2-1.5zm-7.8-12v.7c0 .5 0 1 .5 1.5l2 2.1c.8.6 1 0 1-.7V111c0-.9.3-2.5.5-3.7l-4 1.7zm22.9-19.5a15 15 0 0 1-7-3.2l-.4-.5s-1.5 2-2.7 3v2c.2.7.5 1.4 1 1.8 1 .8 1.9 1.1 3 1.3a5 5 0 0 0 2.6 0 5 5 0 0 0 2.9-1.5c.5-.6.8-1.4.6-2.9zm-1.5.7.1.4c0 1-3 2-4 2-2 0-3.5-2.4-2.2-4.2 1-1.3 3 .1 2.4 1-.2.4-.3.5-.2 1 0 1.6 4 .1 4-.2z"/></svg>