<svg xmlns="http://www.w3.org/2000/svg" width="512" height="512" fill="none"><path fill="#6DA544" d="M0 245.6A255.2 255.2 0 0 1 74.9 74.9L256 256 74.9 437.1A255.2 255.2 0 0 1 0 266.4v-20.8Z"/><path fill="#D80027" d="M266.4 0a255.2 255.2 0 0 1 170.7 74.9L256 256 74.9 74.9A255.2 255.2 0 0 1 245.6 0h20.8Z"/><path fill="#6DA544" d="M512 266.4a255.2 255.2 0 0 1-74.9 170.7L256 256 437.1 74.9A255.2 255.2 0 0 1 512 245.6v20.8Z"/><path fill="#D80027" d="M245.6 512a255.2 255.2 0 0 1-170.7-74.9L256 256l181.1 181.1A255.2 255.2 0 0 1 266.4 512h-20.8Z"/><path fill="#EEE" d="M459.4 100.6 304 256l155.4 155.4c-13.8 18-30 34.2-48 48L256 304 100.6 459.4c-18-13.8-34.2-30-48-48L208 256 52.6 100.6c13.8-18 30-34.2 48-48L256 208 411.4 52.6c18 13.8 34.2 30 48 48Z"/><path fill="#EEE" d="M384 256a128 128 0 1 0-256 0 128 128 0 0 0 256 0Z"/><path fill="#D80027" d="m265.6 172.6-9.6-16.7-9.6 16.7H227l9.6 16.6-9.6 16.7h19.3l9.6 16.7 9.6-16.7H285l-9.6-16.7 9.6-16.6h-19.3ZM323.4 306h19.3l-9.6-16.6 9.6-16.7h-19.3l-9.6-16.7-9.6 16.7h-19.3l9.6 16.7L285 306h19.3l9.6 16.7 9.6-16.7ZM179 289.4l-9.7 16.7h19.2l9.7 16.7 9.6-16.7h19.3l-9.6-16.7 9.6-16.7h-19.3l-9.6-16.7-9.7 16.7h-19.2l9.6 16.7Z"/></svg>