<svg xmlns="http://www.w3.org/2000/svg" viewBox="0 0 511.6 511.6"><circle cx="255.8" cy="255.8" r="255.8" fill="#eee"/><path fill="#acabb1" d="M456.7 205.7h-84.1a27.8 27.8 0 0 0-27.8-27.8l-22.3 44.5s23.7 66.8 23 66.8h27.8a27.8 27.8 0 0 0 27.8-27.8 27.8 27.8 0 0 0 27.8-27.9h-1a28.6 28.6 0 0 0 28.8-27.8zm-401.8 0H139a27.8 27.8 0 0 1 27.8-27.8l22.3 44.5s-23.8 66.8-23 66.8h-27.8a27.8 27.8 0 0 1-27.8-27.8 27.8 27.8 0 0 1-27.8-27.9h.9a28.6 28.6 0 0 1-28.7-27.8z"/><path fill="#ffda44" d="M344.8 355.9V367h-178v-11.1h-44.5v44.5h44.5v11h178v-11h44.4v-44.5z"/><path fill="#0052b4" d="M166.8 178v111.2c0 68 89 89 89 89s89-21 89-89V177.9l-89-11-89 11z"/><path fill="#d80027" d="M166.8 222.4h178v66.8h-178z"/><path fill="#ffda44" d="M300.3 122.3V139l-11.1 5.6-11.2-11.1V100h-44.5v33.4l-11 11-11.2-5.5v-16.7h-44.5V178h178v-55.6z"/></svg>