<svg xmlns="http://www.w3.org/2000/svg" width="512" height="512" fill="none"><g clip-path="url(#a)"><circle cx="256" cy="256" r="256" fill="#EEE"/><path fill="#ACABB1" d="M167 178a28 28 0 0 0-28 28H55a28 28 0 0 0 28 28 28 28 0 0 0 28 28 28 28 0 0 0 28 28h234a28 28 0 0 0 28-28 28 28 0 0 0 28-28 28 28 0 0 0 28-28h-84a28 28 0 0 0-28-28H167Z"/><path fill="#FFC635" fill-rule="evenodd" d="M125 396.6c5.6 3.2 11.3 6.2 17 9l1 .4-2 4.3-2 4.3 4.3 1.9a274 274 0 0 0 225.5 0l4.2-2-2-4.2-1.9-4.3 1-.4c5.7-2.8 11.4-5.8 17-9l6.9-4-6.8-4a291 291 0 0 1-14.4-9.1c-.2-6-.5-12.2-1-18.1l-.7-7.3-6.3 3.6c-5.6 3.3-11.5 6.3-17.4 9l-9.3 4.2 2.6 7.3A226.3 226.3 0 0 1 171 378l3.1-7-9.3-4.3c-5.9-2.7-11.8-5.7-17.4-9l-6.4-3.6-.6 7.3c-.4 6-.7 12.1-.9 18.2-4.7 3.1-9.5 6.1-14.4 9l-7 4 7 4Z" clip-rule="evenodd"/><path fill="#FFC635" d="M234 100v33.5L223 145l-12-6v-17h-44v56l89 14 89-14v-56h-44v17l-12 6-11-11.5V100h-44Z"/><path fill="#0052B4" d="M167 178v112c0 68 89 88.5 89 88.5s89-20.4 89-88.5V178H167Z"/><path fill="#D80027" d="M167 222.1h178v69H167v-69Z"/></g><defs><clipPath id="a"><path fill="#fff" d="M0 0h512v512H0z"/></clipPath></defs></svg>