<svg xmlns="http://www.w3.org/2000/svg" viewBox="0 0 512 512"><path d="M512 256c0 141.384-114.616 256-256 256S0 397.384 0 256C0 256.061 256 .028 256 0c141.384 0 256 114.616 256 256z" fill="#d80027"/><path d="M256 122.435v86.343l-89.043-86.343zM133.565 256h75.211l-75.211-100.174-11.13 77.913z" fill="#0052b4"/><g fill="#eee"><path d="M256 0h-.043.043zm-.685 256H256v-.685l-.685.685z"/><path d="M256 133.565V0h-.043C114.591.024 0 114.629 0 256h133.565v-75.211L208.776 256h46.54l.685-.685v-46.537l-75.213-75.213H256z"/></g><g fill="#d80027"><path d="M129.515 33.391a257.215 257.215 0 0 0-96.124 96.124V267.13h66.783V100.174H267.13V33.391H129.515z"/><path d="M266.177 234.694L165.045 133.565h-31.48v.002l132.609 132.609h.002c.001.001.001-21.706.001-31.482z"/></g><path d="M289.391 133.565v122.434c0 59.64 155.826 59.64 155.826 0V133.565H289.391z" fill="#eee"/><path d="M289.391 256v-.001c0 59.64 77.913 77.914 77.913 77.914s77.913-18.274 77.913-77.914V256H289.391z" fill="#6da544"/><path fill="#a2001d" d="M367.304 207.026l-36.174 15.583V256l36.174 22.261L403.478 256v-33.391z"/><path fill="#338af3" d="M331.13 189.217h72.348v33.391H331.13z"/></svg>