<svg xmlns="http://www.w3.org/2000/svg" width="512" height="512" fill="none"><path fill="#D80027" d="M512 256a256 256 0 1 1-512 0L256 0a256 256 0 0 1 256 256Z"/><path fill="#026" d="M256 0v256H0A256 256 0 0 1 256 0Z"/><path fill="#EEE" d="M217.6 256H256v-38.4L140.7 102.3H256V0A256 256 0 0 0 0 256h102.3V140.7L217.6 256Z"/><path fill="#D80027" d="M256 76.6V25.4H144.7A257 257 0 0 0 25.4 144.7V256h51.2V76.6H256Z"/><path fill="#D80027" d="M256 230.4V256L102.2 102.2H128l128 128.2Z"/><path fill="#F3F3F3" d="M306 155.8v122.5c0 59.6 156 59.6 156 0V155.8H306Z"/><path fill="#6DA544" d="M306 278.3c0 59.6 78 77.9 78 77.9s78-18.3 78-78H306Z"/><path fill="#A2001D" d="m384 229.3-36.2 15.6v33.4l36.2 22.2 36.2-22.2v-33.4L384 229.3Z"/><path fill="#338AF3" d="M347.8 211.5h72.4v33.4h-72.4v-33.4Z"/></svg>