<svg xmlns="http://www.w3.org/2000/svg" width="512" height="512" fill="none"><circle cx="256" cy="256" r="256" fill="#FFDA44"/><path fill="#EEE" fill-rule="evenodd" d="M72.6 77.4 497 342.6a255 255 0 0 1-23.9 49.1L39 120.3c9.7-15.5 21-29.9 33.7-43Z" clip-rule="evenodd"/><path fill="#333" fill-rule="evenodd" d="M38.9 120.3 473 391.7c-9.7 15.5-21 29.9-33.7 43L15 169.3a255 255 0 0 1 24-49Z" clip-rule="evenodd"/><path fill="#D80027" fill-rule="evenodd" d="M272.7 144.7h-33.4v33.4h-39c0 7.7 6.8 14 14.4 14h-.4a14 14 0 0 0 13.9 13.8 14 14 0 0 0 11.1 13.7v79a72.4 72.4 0 0 1-47-104.8 88.7 88.7 0 0 0 4.8 129h-19v11.1h-22.3v33.4h66.8v-11.1h66.8v11h66.8V334h-22.3v-11.1h-19a88.8 88.8 0 0 0 4.7-129 72.4 72.4 0 0 1-47 104.8v-79a14 14 0 0 0 11.2-13.7 14 14 0 0 0 14-13.9h-.5c7.7 0 14.3-6.2 14.3-13.9h-39v-33.4Z" clip-rule="evenodd"/></svg>