<svg xmlns="http://www.w3.org/2000/svg" viewBox="0 0 512 512"><circle cx="256" cy="256" r="256" fill="#f0f0f0"/><g fill="#d80027"><path d="M256 0C255.761-.18-.068 255.933 0 256 0 114.616 114.616 0 256 0zM256 0c.239-.18 256.068 255.932 256 256C512 114.616 397.384 0 256 0z"/></g><g fill="#0052b4"><path d="M256 512c-.239.18-256.068-255.932-256-256 0 141.384 114.616 256 256 256zM256 512c.239.18 256.068-255.932 256-256 0 141.384-114.616 256-256 256z"/></g><path fill="#ffda44" d="M256 133.565l27.628 85.029h89.405l-72.331 52.55 27.628 85.03L256 303.623l-72.33 52.551 27.628-85.03-72.33-52.55h89.404z"/></svg>