<svg xmlns="http://www.w3.org/2000/svg" width="512" height="512" fill="none"><g clip-path="url(#a)"><path fill="#0052B4" d="M256 512a256 256 0 0 0 256-255.5v-.5l-256-32L0 256a256 256 0 0 0 256 256Z"/><path fill="#D80027" d="M512 255.5v.5H0a256 256 0 0 1 512-.5Z"/><g clip-path="url(#b)"><path fill="#EEE" d="M0 256 256 0l256 256-256 256L0 256Z"/><path fill="#FFC635" d="m256 133.6 27.6 85H373L300.7 271l27.6 85-72.3-52.5-72.3 52.6 27.6-85-72.3-52.6h89.4l27.6-84.9Z"/></g></g><defs><clipPath id="a"><path fill="#fff" d="M0 0h512v512H0z"/></clipPath><clipPath id="b"><path fill="#fff" d="M0 0h512v512H0z"/></clipPath></defs></svg>