<svg xmlns="http://www.w3.org/2000/svg" viewBox="0 0 100 100"><mask id="a"><circle cx="50" cy="50" r="50" fill="#fff"/></mask><g mask="url(#a)"><rect width="37.39" height="37.39" x="62.61" y="62.61" fill="#ff1d25"/><rect width="37.39" height="37.39" y="62.61" fill="#ff1d25"/><rect width="37.39" height="37.39" fill="#ff1d25"/><rect width="37.39" height="37.39" x="62.61" fill="#ff1d25"/><polygon fill="#fff" points="0 37.39 0 43.69 37.39 43.69 43.69 43.69 43.69 37.39 43.69 0 37.39 0 37.39 37.39 0 37.39"/><polygon fill="#fff" points="43.69 56.31 37.39 56.31 0 56.31 0 62.61 37.39 62.61 37.39 100 43.69 100 43.69 62.61 43.69 56.31"/><polygon fill="#fff" points="56.31 43.69 62.61 43.69 100 43.69 100 37.39 62.61 37.39 62.61 0 56.31 0 56.31 37.39 56.31 43.69"/><polygon fill="#fff" points="100 62.61 100 56.31 62.61 56.31 56.31 56.31 56.31 62.61 56.31 100 62.61 100 62.61 62.61 100 62.61"/><polygon fill="#2c5d9f" points="56.31 56.31 62.61 56.31 100 56.31 100 43.69 62.61 43.69 56.31 43.69 56.31 37.39 56.31 0 43.69 0 43.69 37.39 43.69 43.69 37.39 43.69 0 43.69 0 56.31 37.39 56.31 43.69 56.31 43.69 62.61 43.69 100 56.31 100 56.31 62.61 56.31 56.31"/></g></svg>