<svg xmlns="http://www.w3.org/2000/svg" viewBox="0 0 512 512"><path d="M12.089 178.086C4.247 202.655 0 228.828.001 255.999 0 283.168 4.247 309.342 12.09 333.912l243.911 11.132 243.91-11.132C507.752 309.342 512 283.167 512 256c0-27.17-4.247-53.345-12.089-77.914L256 166.956l-243.911 11.13z" fill="#eee"/><path d="M512 256c0-15.187-1.33-30.063-3.867-44.523H3.868C1.33 225.937 0 240.811 0 255.999s1.331 30.062 3.868 44.522h504.265A257.568 257.568 0 0 0 512 256z"/><path d="M256.001 511.999c114.216 0 210.946-74.803 243.91-178.088H12.09c32.965 103.284 129.696 178.086 243.911 178.088zm0-511.998C141.786.001 45.056 74.804 12.089 178.086l487.82.001C466.946 74.804 370.215-.001 256.001.001z" fill="#338af3"/></svg>