<svg xmlns="http://www.w3.org/2000/svg" width="512" height="512" fill="none"><circle cx="256" cy="256" r="256" fill="#F0F"/><path fill="#6DA544" fill-rule="evenodd" d="M255.6 512A256 256 0 0 1 3.9 300.6H508A256 256 0 0 1 256.4 512h-.8Z" clip-rule="evenodd"/><path fill="#A2001D" fill-rule="evenodd" d="M496 345a256 256 0 1 0-480.2 0h480.3Z" clip-rule="evenodd"/><path fill="#A2001D" fill-rule="evenodd" d="M102.4 460.8A255.6 255.6 0 0 1 0 256C0 172.2 40.2 97.9 102.4 51.2v409.6Z" clip-rule="evenodd"/><path fill="#FCFCFC" fill-rule="evenodd" d="M102.4 460.8Zm0-102.4-25.6 50.8 25.6 51.6V358.4Zm0-102.4-25.6 50.8 25.6 51.6V256Zm0-102.4V256l-25.6-51.6 25.6-50.8Zm0-102.4v102.4L76.8 102l25.6-50.8Zm0 0ZM0 256c0-27.3 4.3-53.6 12.2-78.2l13.4 26.6L0 256Zm51.2 0-25.6-51.6 25.6-50.8 25.6 50.8L51.2 256Zm0 102.4 25.6-51.6L51.2 256l-25.6 50.8L0 256c0 27.2 4.2 53.4 12.1 78l13.5-27.2 25.6 51.6Zm0 0 25.6 50.8-9.7 19.6a257 257 0 0 1-30.7-41.1l14.8-29.3ZM36.6 124.1a257 257 0 0 1 30.7-41l9.5 18.9-25.6 51.6-14.6-29.5Z" clip-rule="evenodd"/></svg>