<svg xmlns="http://www.w3.org/2000/svg" width="512" height="512" fill="none"><circle cx="256" cy="256" r="256" fill="#0052B4"/><path fill="#A2001D" fill-rule="evenodd" d="M398.8 44.5A254.8 254.8 0 0 0 256 1c-52.9 0-102 16-142.8 43.5h285.6ZM233.2 512a255 255 0 0 1-123-44.5h291.6a254.6 254.6 0 0 1-123 44.5h-45.6Z" clip-rule="evenodd"/><path fill="#EEE" d="M256 378.4a122.4 122.4 0 1 0 0-244.8 122.4 122.4 0 0 0 0 244.8Z"/><path fill="#6DA544" d="M256 356.2a100.2 100.2 0 1 0 0-200.4 100.2 100.2 0 0 0 0 200.4Z"/><path fill="#EEE" d="M256 322.8a66.8 66.8 0 1 0 0-133.6 66.8 66.8 0 0 0 0 133.6Z"/><path fill="#0052B4" d="M256 239.3 219.8 256v27.8l36.2 22.3 36.2-22.3V256L256 239.3Z"/><path fill="#FFC635" d="M219.8 222.6h72.4V256h-72.4v-33.4Z"/></svg>