<svg xmlns="http://www.w3.org/2000/svg" width="512" height="512" fill="none"><g clip-path="url(#a)"><circle cx="256" cy="256" r="256" fill="#EEE"/><path fill="#0052B4" fill-rule="evenodd" d="M4.4 303.7a256.5 256.5 0 0 1-4-34.6c10.4 0 15.7 5 21 9.8 5.3 4.8 10.6 9.7 21.3 9.7 10.7 0 16-4.9 21.4-9.8 5.3-4.8 10.7-9.7 21.3-9.7 10.6 0 16 4.9 21.3 9.8 5.4 4.8 10.8 9.7 21.4 9.7 10.7 0 16-4.9 21.3-9.8 5.3-4.8 10.7-9.7 21.3-9.7 10.7 0 16 4.9 21.4 9.8 5.3 4.8 10.7 9.7 21.3 9.7 10.6 0 16-4.9 21.3-9.7 5.3-5 10.7-9.8 21.4-9.8s16 4.9 21.4 9.8c5.3 4.8 10.7 9.7 21.3 9.7 10.6 0 16-4.9 21.3-9.7 5.3-5 10.7-9.8 21.4-9.8 10.6 0 16 4.9 21.3 9.8 5.3 4.8 10.6 9.7 21.3 9.7 10.7 0 16-4.9 21.4-9.8 5.3-4.8 10.7-9.7 21.3-9.7 10.6 0 16 4.9 21.3 9.8 5.4 4.8 10.8 9.7 21.4 9.7 10.7 0 16-4.9 21.3-9.8 5.3-4.8 10.5-9.6 20.9-9.7-.6 11.8-2 23.3-4.1 34.6-7.8 1.2-12.2 5.3-16.7 9.4-5.3 5-10.7 9.8-21.4 9.8s-16-4.9-21.4-9.8c-5.3-4.8-10.7-9.7-21.3-9.7-10.6 0-16 4.9-21.3 9.7-5.3 5-10.7 9.8-21.4 9.8s-16-4.9-21.3-9.8c-5.3-4.8-10.7-9.7-21.3-9.7-10.7 0-16 4.9-21.4 9.8-5.3 4.8-10.7 9.7-21.3 9.7-10.6 0-16-4.9-21.3-9.7-5.3-5-10.7-9.8-21.4-9.8s-16 4.9-21.4 9.8c-5.3 4.8-10.7 9.7-21.3 9.7-10.6 0-16-4.9-21.3-9.7-5.3-5-10.7-9.8-21.4-9.8-10.6 0-16 4.9-21.2 9.7-5.4 5-10.7 9.8-21.4 9.8s-16-4.9-21.4-9.8c-5.3-4.8-10.7-9.7-21.3-9.7-10.6 0-16 4.9-21.3 9.7-5.3 5-10.7 9.8-21.4 9.8s-16-4.9-21.3-9.8c-4.5-4.1-9.1-8.3-17-9.4ZM37.2 389A254.8 254.8 0 0 1 14 339.4c2.8 1.7 5.2 3.9 7.6 6 5.3 5 10.7 9.8 21.3 9.8 10.6 0 16-4.9 21.3-9.7 5.3-5 10.7-9.8 21.4-9.8 10.6 0 16 4.9 21.3 9.8 5.3 4.8 10.7 9.7 21.3 9.7 10.7 0 16-4.9 21.4-9.8 5.3-4.8 10.7-9.7 21.3-9.7 10.6 0 16 4.9 21.3 9.8 5.4 4.8 10.8 9.7 21.4 9.7 10.7 0 16-4.9 21.3-9.8 5.3-4.8 10.6-9.7 21.3-9.7 10.7 0 16 4.9 21.4 9.8 5.3 4.8 10.7 9.7 21.3 9.7 10.6 0 16-4.9 21.3-9.7 5.3-5 10.7-9.8 21.4-9.8s16 4.9 21.4 9.8c5.3 4.8 10.7 9.7 21.3 9.7 10.6 0 16-4.9 21.3-9.7 5.3-5 10.7-9.8 21.4-9.8s16 4.9 21.3 9.8c5.3 4.8 10.7 9.7 21.3 9.7 10.7 0 16-4.9 21.4-9.8 2.2-2 4.5-4 7.1-5.8-6 17.4-13.8 34-23.3 49.5a30 30 0 0 1-5.2.4c-10.6 0-16-4.9-21.3-9.8-5.3-4.8-10.6-9.7-21.3-9.7-10.7 0-16 4.9-21.4 9.8-5.3 4.8-10.7 9.7-21.3 9.7-10.6 0-16-4.9-21.3-9.7-5.3-5-10.7-9.8-21.4-9.8s-16 4.9-21.4 9.8c-5.3 4.8-10.7 9.7-21.3 9.7-10.6 0-16-4.9-21.3-9.7-5.3-5-10.7-9.8-21.4-9.8-10.6 0-16 4.9-21.2 9.7-5.4 5-10.7 9.8-21.4 9.8s-16-4.9-21.4-9.8c-5.3-4.8-10.7-9.7-21.3-9.7-10.6 0-16 4.9-21.3 9.7-5.3 5-10.7 9.8-21.4 9.8-10.6 0-16-4.9-21.3-9.8-5.3-4.8-10.7-9.7-21.3-9.7-10.7 0-16 4.9-21.4 9.8-5.3 4.8-10.7 9.7-21.3 9.7-2 0-3.9-.2-5.6-.5ZM181 500.8c-49-15-91.6-44.2-123.2-83a58 58 0 0 0 6.4-5.3c5.3-4.8 10.7-9.7 21.3-9.7 10.6 0 16 4.9 21.3 9.8 5.4 4.8 10.8 9.7 21.4 9.7 10.7 0 16-4.9 21.3-9.8 5.3-4.8 10.7-9.7 21.3-9.7 10.7 0 16 4.9 21.4 9.8 5.3 4.8 10.7 9.7 21.3 9.7 10.6 0 16-4.9 21.3-9.7 5.3-5 10.7-9.8 21.4-9.8s16 4.9 21.4 9.8c5.3 4.8 10.7 9.7 21.3 9.7 10.6 0 16-4.9 21.3-9.7 5.3-5 10.7-9.8 21.4-9.8 10.6 0 16 4.9 21.3 9.8 5.3 4.8 10.6 9.7 21.3 9.7 10.7 0 16-4.9 21.4-9.8 5.3-4.8 10.7-9.7 21.3-9.7 10.6 0 16 4.9 21.3 9.8 2 1.8 4 3.6 6.3 5.2a256.3 256.3 0 0 1-121.8 82.5l-71.9-9.6-79.8 10.1Z" clip-rule="evenodd"/><path fill="#FFDA44" fill-rule="evenodd" d="M138.5 483.5c4.4-2.1 8.8-4.1 13.3-6l-37.7-68.7 77.8 14.9 10-78.7 54.2 58 54.2-58 9.9 78.8 77.9-15-37.7 68.7c4.4 1.9 8.8 3.9 13.1 6A254.9 254.9 0 0 1 256 512a255 255 0 0 1-117.5-28.5Z" clip-rule="evenodd"/><g fill-rule="evenodd" clip-path="url(#b)" clip-rule="evenodd"><path fill="#0052B4" d="M512 256a256 256 0 1 0-512 0h512Z"/><path fill="#EEE" d="M502.2 326.2c-5.8 20.4-14 39.8-24.4 57.8H464L320 240v144H192V240L48 384H34.2a254.5 254.5 0 0 1-24.4-57.8L144 192H8A256 256 0 0 1 86.8 64H144l-24.6-24.6a255.8 255.8 0 0 1 273.2 0L368 64h57.3A256 256 0 0 1 504 192H368l134.2 134.2Z"/><path fill="#D80027" d="M493.4 160a255.8 255.8 0 0 0-37.5-64H288V2a258.5 258.5 0 0 0-64 0v94H56.1a255.8 255.8 0 0 0-37.5 64H224v224h64V160h205.4Zm5 178.4L352 192h-32l169.4 169.4c3.4-7.5 6.4-15.1 9-23Zm-465 44.2L192 224v-32L22.6 361.4c3.3 7.2 7 14.3 10.8 21.2Zm96-349.2L160 64h32l-41.4-41.4c-7.2 3.3-14.3 7-21.2 10.8Zm209-19.8L320 32v32l41.4-41.4c-7.5-3.4-15.1-6.4-23-9Z"/></g><path fill="#FFDA44" fill-rule="evenodd" d="M181 88v80h150V88h-37.5H331l-18.8 43.3L293.6 88l-18.8 43.3L256 88l-18.8 43.3L218.6 88l-18.8 43.3L181 88Zm99.1 0H256h24.1Zm-37.5 0h-24.1 24.1Z" clip-rule="evenodd"/></g><defs><clipPath id="a"><path fill="#fff" d="M0 0h512v512H0z"/></clipPath><clipPath id="b"><path fill="#fff" d="M0 0h512v256H0z"/></clipPath></defs></svg>