<svg xmlns="http://www.w3.org/2000/svg" width="512" height="512" fill="none"><g clip-path="url(#a)"><circle cx="256" cy="256" r="256" fill="#0052B4"/><path fill="#EEE" d="M288 2c-10.3-1.3-20.8-2-31.5-2h-1c-10.7 0-21.2.7-31.5 2v222H2a258.5 258.5 0 0 0 0 64h222v222a258.6 258.6 0 0 0 64 0V288h222a258.4 258.4 0 0 0 0-64H288V2Z"/><path fill="#EEE" d="M128 96v32H96v32h32v32h32v-32h32v-32h-32V96h-32Zm224 0v32h-32v32h32v32h32v-32h32v-32h-32V96h-32ZM128 320v32H96v32h32v32h32v-32h32v-32h-32v-32h-32Zm224 0v32h-32v32h32v32h32v-32h32v-32h-32v-32h-32Z"/></g><defs><clipPath id="a"><path fill="#fff" d="M0 0h512v512H0z"/></clipPath></defs></svg>