<svg xmlns="http://www.w3.org/2000/svg" width="512" height="512" fill="none"><path fill="#EEE" d="M128 477.8A254.8 254.8 0 0 0 256 512c46.6 0 90.3-12.5 128-34.2V34.2A254.8 254.8 0 0 0 256 0c-46.6 0-90.3 12.5-128 34.2v443.6Z"/><path fill="#D80027" d="M0 256A256 256 0 0 1 144 25.6v460.6A256 256 0 0 1 0 256v-.1Zm512 0A256 256 0 0 0 368 25.7v460.6A256 256 0 0 0 512 256Zm-211.5 33.4L345 267l-22.2-11v-22.3L278.3 256l22.2-44.5h-22.2L256 178l-22.3 33.4h-22.2l22.2 44.5-44.5-22.3V256L167 267.1l44.5 22.3-11.2 22.3H245V345h22v-33.3h44.6l-11.2-22.3Z"/></svg>