<svg xmlns="http://www.w3.org/2000/svg" width="512" height="512" fill="none"><path fill="#0052B4" fill-rule="evenodd" d="M489.8 151.5H22.2a256 256 0 0 1 467.6 0Z" clip-rule="evenodd"/><path fill="#EEE" fill-rule="evenodd" d="M507.3 304.9A257.3 257.3 0 0 0 477.8 128H34.2A254.8 254.8 0 0 0 4.7 304.9h502.6Z" clip-rule="evenodd"/><path fill="#6DA544" fill-rule="evenodd" d="M457.2 414.3A255 255 0 0 0 512 256H0a255 255 0 0 0 54.8 158.3h402.4Z" clip-rule="evenodd"/><path fill="#FFDA44" fill-rule="evenodd" d="M477.8 384a255.9 255.9 0 0 1-443.6 0h443.6Z" clip-rule="evenodd"/><path fill="#D80027" fill-rule="evenodd" d="M320 8v496a256.5 256.5 0 0 1-128 0V8c20.3-5.2 41.6-8 63.5-8h1c22 0 43.2 2.8 63.5 8Z" clip-rule="evenodd"/><path fill="#FFDA44" d="m146 38.9 8.2 25.5H181L159.3 80l8.3 25.5L146 90l-21.7 15.7 8.3-25.5-21.7-15.7h26.8L146 39Z"/></svg>