<svg xmlns="http://www.w3.org/2000/svg" width="512" height="512" fill="none"><g clip-path="url(#a)"><circle cx="256" cy="256" r="256" fill="#EEE"/><path fill="#338AF3" fill-rule="evenodd" d="M500.8 180.8A256 256 0 0 1 512 256h-64l-32-32-32 32h-64l-64-64v-64l32-32-32-32V0c26.2 0 51.4 4 75.2 11.2L352 32l9.4-9.4a257 257 0 0 1 128 128L480 160l20.8 20.8Z" clip-rule="evenodd"/><path fill="#333" fill-rule="evenodd" d="M128 34.2V256H0A256 256 0 0 1 128 34.2Z" clip-rule="evenodd"/><path fill="#FFDA44" fill-rule="evenodd" d="M504 192h-56v64h-64V128h93.8a254.4 254.4 0 0 1 26.1 64ZM320 8v56h-64v64h128V34.2a254.4 254.4 0 0 0-64-26.1Zm0 184h-64v64h64v-64Z" clip-rule="evenodd"/><path fill="#333" d="M291 291c-32 0-68 8-82 19-5 4-7 10-7 16 0 10 7 18 17 20l-25 7a99 99 0 0 0-77-44 9.1 9.1 0 1 0-3 18c33 12 45 13 57 37-21-7-35 24-48 37-3 1-4 4-4 7 0 5 4 9 9 9l6-2c13-10 26-33 44-28 57 16 66 13 105 7-31 9-30 21-8 36-11 17-25 17-41 22-4 1-7 5-7 9 0 5 4 9 9 9l5-1c19-9 40-18 60-33-1-8-13-17 8-24 9 8 14 19 41 16 4 7 10 12 7 28l-12 3c-5 0-8 4-8 9s4 9 9 9c3 0 6-2 7-4l18-14c2-15-2-29-8-42-14-2-17-15-23-29 12 6 22 12 32-3-14-5-28-13-39-4-39-24-55-19-80-24 9-8 11-20 8-37 26-7 69-23 96 26 3-41-30-54-66-55Z"/></g><defs><clipPath id="a"><path fill="#fff" d="M0 0h512v512H0z"/></clipPath></defs></svg>