<svg xmlns="http://www.w3.org/2000/svg" width="512" height="512" fill="none"><path fill="#026" d="M512 256a256 256 0 1 1-512 0L256 0a256 256 0 0 1 256 256Z"/><path fill="#026" d="M256 0v256H0A256 256 0 0 1 256 0Z"/><path fill="#EEE" d="M217.6 256H256v-38.4L140.7 102.3H256V0A256 256 0 0 0 0 256h102.3V140.7L217.6 256Z"/><path fill="#D80027" d="M256 76.6V25.4H144.7A257 257 0 0 0 25.4 144.7V256h51.2V76.6H256Z"/><path fill="#D80027" d="M256 230.4V256L102.2 102.2H128l128 128.2Z"/><path fill="#EEE" d="m384 140.2 6.2 19H410l-16 11.5 6.1 19L384 178l-16.1 11.7 6.1-19-16.1-11.7h20l6.1-19ZM302 174l17.9 9.1 14-14-3 19.6 17.7 9-19.7 3.2-3.1 19.7-9-17.8L297 206l14.1-14.1-9-17.8Zm-33.8 82 19-6.2V230l11.6 16.1 19-6.1-11.7 16.1 11.7 16.1-19-6.1-11.7 16.1v-20l-19-6.1Zm33.8 82 9.1-17.9-14-14 19.6 3 9-17.7 3.2 19.7 19.7 3.1-17.8 9L334 343l-14.1-14.1-17.8 9Zm82 33.8-6.2-19H358l16.1-11.6-6.1-19 16.1 11.7 16.1-11.7-6.1 19 16.1 11.7h-20l-6.1 19Zm82-33.8-17.9-9.1-14 14 3-19.6-17.7-9 19.7-3.2 3.1-19.7 9 17.8L471 306l-14.1 14.1 9 17.8Zm33.8-82-19 6.2V282l-11.5-16-19 6.1L462 256l-11.7-16.1 19 6.1 11.7-16.1v20l19 6.1ZM466 174l-9.1 17.9 14 14-19.6-3-9 17.7-3.2-19.7-19.7-3.1 17.8-9L434 169l14.1 14.1 17.8-9Z"/></svg>