<svg xmlns="http://www.w3.org/2000/svg" width="512" height="512" fill="none"><path fill="#D80027" d="M384 34.2A254.8 254.8 0 0 0 256 0c-46.6 0-90.3 12.5-128 34.2v443.6A254.8 254.8 0 0 0 256 512c46.6 0 90.3-12.5 128-34.2V34.2Z"/><path fill="#FFDA44" d="M512 256a256 256 0 0 1-144 230.3V25.7A256 256 0 0 1 512 256v.1Z"/><path fill="#496E2D" d="M0 256a256 256 0 0 0 144 230.3V25.7A256 256 0 0 0 0 256Z"/><path fill="#FFDA44" d="m256 157.6 22.1 68h71.5l-57.8 42 22 68-57.8-42-57.9 42 22.1-68-57.8-42h71.5l22.1-68Z"/></svg>