<svg xmlns="http://www.w3.org/2000/svg" width="512" height="512" fill="none"><circle cx="256" cy="256" r="256" fill="#D80027"/><path fill="#FFDA44" fill-rule="evenodd" d="m302.2 141.6 2-26.7-17.3 20.5-24.9-10.1 14.2 22.7-17.3 20.5 26.1-6.4 14.1 22.8 1.9-26.8 26.1-6.4-24.9-10.1Zm-162.1 14.2 22.1 68h71.5l-57.8 42.1 22.1 68-57.9-42-57.9 42 22.2-68-57.9-42.1H118l22.1-68Zm163.4 240.7-16.9-20.8-25 9.7 14.5-22.5-16.9-20.9 25.9 6.9 14.6-22.5 1.4 26.8 26 6.9-25.1 9.6 1.5 26.8Zm41.6-86.6-8 25.6 21.5-16.1 21.9 15.5-8.6-25.4 21.5-16-26.8.3-8.7-25.4L350 294l-26.8.4 21.9 15.5Zm37.3-122L370.6 212l19.2 18.7-26.5-3.8-11.8 24-4.6-26.4-26.6-3.8 23.8-12.5-4.6-26.5 19.2 18.7 23.7-12.5Z" clip-rule="evenodd"/></svg>