<svg xmlns="http://www.w3.org/2000/svg" width="512" height="512" fill="none"><path fill="#0052B4" d="M256 0c83.8 0 158.1 40.2 204.8 102.4l46 102.4a257.2 257.2 0 0 1 0 102.4l-46 102.4A255.6 255.6 0 0 1 256 512 255.6 255.6 0 0 1 51.2 409.6l-46-102.4a257.2 257.2 0 0 1 0-102.4l46-102.4A255.6 255.6 0 0 1 256 0Z"/><path fill="#EEE" d="M460.8 102.4a254.8 254.8 0 0 1 46 102.4H5.2a254.8 254.8 0 0 1 46-102.4h409.7Zm0 307.2a254.8 254.8 0 0 0 46-102.4H5.2a254.8 254.8 0 0 0 46 102.4h409.7Z"/><path fill="#D80027" d="M0 245.6A255.2 255.2 0 0 1 74.9 74.9L256 256 74.9 437.1A255.2 255.2 0 0 1 0 266.4v-20.8Z"/><path fill="#EEE" d="m106 182 16.7 51.2h53.7l-43.5 31.5 16.6 51.1-43.4-31.6-43.5 31.6 16.6-51-43.4-31.6h53.7L106 182Z"/></svg>