<svg xmlns="http://www.w3.org/2000/svg" viewBox="0 0 512 512"><path fill="#ff9811" d="M.001 44.522H0v422.956h.001V256.001z"/><circle cx="255.999" cy="256" r="255.999" fill="#f0f0f0"/><g fill="#0052b4"><path d="M256.001.002c-83.752 0-158.106 40.223-204.811 102.4h409.621C414.107 40.224 339.752.002 256.001.002zM256.001 511.999c83.752 0 158.106-40.223 204.811-102.4H51.19c46.704 62.178 121.059 102.4 204.811 102.4zM.001 256.001a257.1 257.1 0 0 0 5.127 51.2h501.747c3.359-16.543 5.126-33.665 5.126-51.2s-1.768-34.657-5.126-51.2H5.128a257.1 257.1 0 0 0-5.127 51.2z"/></g><path d="M74.981 74.982c-99.973 99.973-99.973 262.064 0 362.039L256 256.002 74.981 74.982z" fill="#d80027"/><path fill="#f0f0f0" d="M103.611 189.219l16.574 51.015h53.646l-43.397 31.532 16.574 51.016-43.397-31.53-43.399 31.53 16.578-51.016-43.398-31.532h53.642z"/></svg>