<svg xmlns="http://www.w3.org/2000/svg" viewBox="0 0 512 512"><circle cx="256" cy="256" r="256" fill="#eee"/><path fill="#0052b4" d="M256 0A256 256 0 000 256a256 256 0 000 .2h512a256 256 0 000-.2A256 256 0 00256 0zM20.5 356.4A256 256 0 00256 512a256 256 0 00235.5-155.6z"/><path fill="#d80027" d="M2.2 289.6A256 256 0 009 323h494.2a256 256 0 006.7-33.4H2.2z"/><path fill="#ffda44" d="M183 204.7l4.1 12.8h13.4l-10.8 7.8 4.1 12.8-10.8-7.9-10.9 7.9 4.2-12.8-10.9-7.8h13.4zm0 167l4.1 12.7h13.4l-10.8 7.9 4.1 12.7-10.8-7.8-11 7.8 4.2-12.7-10.9-7.9h13.4zm-77.7-56.5l4.1 12.7h13.4l-10.8 8 4.1 12.7-10.8-7.9-10.9 7.9 4.2-12.8-10.9-7.9h13.4zm29.7-93.8l4 12.6h13.4l-10.8 8 4.1 12.7-10.8-7.9-10.9 7.9 4.2-12.8-10.9-7.9h13.4zm-47.3 52.5h13.4l4.2-12.7 4.1 12.7h13.4l-10.8 7.9 4.1 12.8-10.8-8-10.9 8 4.2-12.8zm36.4 112l4.2-12.7-10.9-8h13.4l4.2-12.7 4.1 12.8h13.4l-10.8 7.9 4.1 12.7L135 378zm136.6-70.7l-4.2 12.7h-13.4l10.9 8-4.2 12.7 10.9-7.9 10.8 7.9-4.1-12.8 10.8-7.9h-13.4zM231 221.4l-4.2 12.7h-13.4l10.9 8-4.2 12.7 10.9-7.9 10.8 7.9-4.1-12.8 10.8-7.9h-13.4zm47.2 52.5h-13.4l-4.1-12.7-4.2 12.7h-13.4l10.9 7.9-4.2 12.8 10.9-8 10.8 8-4.1-12.8zm-36.4 112l-4.1-12.7 10.8-8h-13.4l-4.1-12.7-4.2 12.8h-13.4l10.9 7.9-4.2 12.7L231 378z"/></svg>
