<svg xmlns="http://www.w3.org/2000/svg" width="512" height="512" fill="none"><circle cx="256" cy="256" r="256" fill="#0052B4"/><path fill="#FFDA44" fill-rule="evenodd" d="M50.8 409a255.4 255.4 0 0 1-35.9-66.7h482.2a255.4 255.4 0 0 1-35.9 66.8H50.8Z" clip-rule="evenodd"/><path fill="#EEE" fill-rule="evenodd" d="m106.7 118.7-8.2-25.5-8.3 25.5H63.3L85 134.5 76.8 160l21.7-15.8 21.7 15.8-8.3-25.5 21.7-15.8h-26.9Zm82.3 61.6-13.8-42.6-13.8 42.6h-44.7l36.2 26.2L139 249l36.1-26.2 36.2 26.2-13.8-42.5 36.1-26.2H189Z" clip-rule="evenodd"/></svg>