<svg xmlns="http://www.w3.org/2000/svg" width="512" height="512" fill="none"><g clip-path="url(#a)"><path fill="#0052B4" d="M437 437 288 224 75 75a256 256 0 0 0 178.2 437h5.7A255.2 255.2 0 0 0 437 437Z"/><path fill="#6DA544" d="M437 437 75 75a256 256 0 0 1 437 181c0 70.7-28.7 134.7-75 181Z"/></g><path fill="#EEE" d="m95.3 367.3 7 14.7 16-3.7L111 393l12.8 10-16 3.7.1 16.3-12.7-10.2L82.6 423v-16.3L66.9 403l12.6-10-7-14.7 15.8 3.7 7-14.7ZM49.4 244.9l7 14.7 15.9-3.7-7.1 14.6 12.7 10.2-15.9 3.5v16.3l-12.6-10.2-12.7 10.2v-16.3l-15.9-3.5 12.8-10.2-7.1-14.6 15.8 3.7 7-14.7Zm45.9-100.2 7 14.7 16-3.7-7.2 14.7 12.8 10-16 3.7.1 16.2-12.7-10.1-12.7 10.1v-16.2l-15.8-3.6 12.7-10.1-7-14.7 15.8 3.7 7-14.7Zm57.1 77.9 7 14.7 15.9-3.7-7.1 14.7 12.7 10.1-15.8 3.6v16.3L152.4 268l-12.7 10.2V262l-15.8-3.6 12.7-10.1-7-14.7 15.8 3.7 7-14.7Zm-40.8 66.8 5.5 17H135l-14.5 10.5 5.6 17-14.5-10.5L97 333.9l5.6-17-14.5-10.5H106l5.5-17Z"/><path fill="#FFDA44" d="M256 322.8a66.8 66.8 0 1 0 0-133.6 66.8 66.8 0 0 0 0 133.6Z"/><path fill="#6DA544" d="M256 300.5h22.3s9.6-17 0-33.4l22.2-22.2-11.1-22.3h-11.1s-5.6 16.7-27.9 16.7c-22.2 0-27.8-16.7-27.8-16.7h-11.1l11.1 22.3-11.1 22.2 11.1 11.2S233.7 256 256 267c0 0 9.5 14 0 33.4Z"/><path fill="#FFDA44" d="M422.2 140.2a44.7 44.7 0 0 0-30-50.8 83.1 83.1 0 0 1 7.5 49.9 45.6 45.6 0 0 0-64.1-14 85.3 85.3 0 0 1 35 16.7c8.3 6.6 15 15.5 20.2 24.1l-68 21.3c66.8 11.2 122.4-33.4 122.4-33.4-6.1-12.3-15.7-14.4-23-13.8Z"/><defs><clipPath id="a"><path fill="#fff" d="M512 0v512H0V0z"/></clipPath></defs></svg>