<svg xmlns="http://www.w3.org/2000/svg" viewBox="0 0 512 512"><circle cx="256" cy="256" r="256" fill="#eee"/><path d="M306.087 507.087c101.203-20.076 180.924-99.798 201-201h-201v201zm-301.174-201c20.075 101.202 99.797 180.924 201 201v-201h-201zm502.174-100.174c-20.076-101.202-99.797-180.924-201-201v201h201zm-301.174-201c-101.203 20.076-180.925 99.798-201 201h201v-201z" fill="#496e2d"/><path d="M239.304 306.087h-33.391v201a256.317 256.317 0 0 0 33.391 4.356V306.087zm0-100.174V.557a256.123 256.123 0 0 0-33.391 4.356v201h33.391z" fill="#ffda44"/><path d="M272.696.557C267.174.2 261.611 0 256 0s-11.174.2-16.696.557v205.357h33.391V.557zm-33.392 510.886c5.522.357 11.085.557 16.696.557s11.174-.2 16.696-.557V306.087h-33.391v205.356z"/><path d="M205.913 239.304v-33.391h-201a255.996 255.996 0 0 0-4.356 33.391h205.356zm100.174 0h205.357a256.167 256.167 0 0 0-4.356-33.391h-201v33.391z" fill="#ffda44"/><path d="M306.087 272.696h205.357c.356-5.521.556-11.085.556-16.696s-.2-11.175-.557-16.696H306.087v33.392zM.557 239.304C.201 244.825 0 250.389 0 256s.201 11.175.557 16.696h205.357v-33.391H.557z"/><circle cx="256" cy="256" r="122.435" fill="#d80027"/><path d="M283.894 269.66c-9.107-18.213-20.944-36.673-20.944-36.673s.294-8.405.294-13.413c0-7.544-6.116-13.66-13.66-13.66-7.147 0-13.003 5.491-13.6 12.482-5.62.367-10.067 5.029-10.067 10.741 0 4.153 2.353 7.752 5.797 9.551a15.518 15.518 0 0 1 9.21-8.555 13.826 13.826 0 0 0 2.177 1.466l1.75.838s-6.489 18.291-6.489 28.117c0 27.624 18.214 36.143 18.214 36.143v.285l-9.107 9.106h18.213v-18.214l9.107 9.107c.08-.171 17.25-11.03 9.105-27.321zM256 155.826l4.144 12.754h13.41l-10.849 7.883 4.145 12.754-10.85-7.882-10.85 7.882 4.145-12.754-10.849-7.883h13.41zm-58.88 19.132l10.848 7.883 10.85-7.884-4.144 12.756 10.85 7.881-13.411.001-4.144 12.754-4.145-12.754-13.41-.001 10.849-7.883zm-36.391 50.087h13.409l4.145-12.754 4.144 12.754 13.411-.001-10.849 7.884 4.145 12.754-10.851-7.883-10.849 7.882 4.143-12.754zm0 61.91l10.848-7.881-4.144-12.755 10.85 7.883 10.85-7.883-4.144 12.754 10.85 7.883-13.412.001-4.144 12.753-4.145-12.755zm36.391 50.087l4.143-12.752-10.85-7.883h13.411l4.145-12.755 4.144 12.754h13.411l-10.85 7.884 4.144 12.753-10.85-7.883zM256 356.174l-4.144-12.752h-13.41l10.849-7.884-4.145-12.754 10.85 7.881 10.849-7.882-4.144 12.755 10.849 7.883-13.41.001zm58.88-19.132l-10.848-7.882-10.849 7.884 4.143-12.754-10.85-7.883 13.411-.001 4.143-12.754 4.146 12.755h13.41l-10.849 7.883zm36.391-50.087h-13.409l-4.145 12.755-4.144-12.753h-13.412l10.85-7.884-4.145-12.753 10.851 7.882 10.848-7.882-4.142 12.754zm0-61.91l-10.848 7.882 4.143 12.754-10.849-7.882-10.85 7.884 4.144-12.755-10.85-7.882 13.412-.002 4.143-12.752 4.146 12.753zm-36.391-50.087l-4.143 12.753 10.849 7.883h-13.41l-4.144 12.755-4.145-12.754-13.411.001 10.85-7.885-4.144-12.752 10.85 7.881z" fill="#496e2d"/></svg>