<svg xmlns="http://www.w3.org/2000/svg" width="512" height="512" fill="none"><circle cx="256" cy="256" r="256" fill="#496E2D"/><path fill="#333" fill-rule="evenodd" d="M511.5 272a260.2 260.2 0 0 0 0-32H272V.5a260 260 0 0 0-32 0V240H.5a260 260 0 0 0 0 32H240v239.5a260.2 260.2 0 0 0 32 0V272h239.5Z" clip-rule="evenodd"/><path fill="#EEE" fill-rule="evenodd" d="M304 4.5V272h207.5a259 259 0 0 1-4 32H304v203.5a259 259 0 0 1-32 4V304H4.5a259 259 0 0 1-4-32H272V.5c10.9.7 21.5 2 32 4Z" clip-rule="evenodd"/><path fill="#FFDA44" fill-rule="evenodd" d="M511.5 240H240v271.5a259 259 0 0 1-32-4V240H.5a259 259 0 0 1 4-32H208V4.5a259 259 0 0 1 32-4V208h267.5a259 259 0 0 1 4 32Z" clip-rule="evenodd"/><path fill="#D80027" d="M256 378.4a122.4 122.4 0 1 0 0-244.8 122.4 122.4 0 0 0 0 244.8Z"/><path fill="#496E2D" d="M283.9 269.7c-9.1-18.3-21-36.7-21-36.7s.3-8.4.3-13.4a13.7 13.7 0 0 0-27.2-1.2 10.8 10.8 0 0 0-4.3 20.3c1.7-4 5-7.1 9.2-8.6.7.6 1.4 1 2.2 1.5l1.8.8s-6.5 18.3-6.5 28.2c0 27.6 18.2 36.1 18.2 36.1v.3l-9.1 9h18.2v-18l9 9c.2 0 17.3-11 9.2-27.2ZM256 155.8l4.1 12.8h13.5l-10.9 7.9 4.2 12.7-10.9-7.9-10.8 8 4-12.8-10.8-8H252l4.1-12.7ZM197.1 175l10.9 7.8 10.8-7.8-4.1 12.7 10.8 7.9h-13.4l-4.1 12.7-4.2-12.7h-13.4l10.9-7.9L197 175Zm-36.4 50h13.4l4.2-12.7 4.1 12.7h13.4l-10.8 8 4.1 12.7-10.8-7.9-10.9 7.9 4.2-12.8-10.9-7.9Zm0 62 10.9-8-4.2-12.7 10.9 7.9 10.8-7.9-4.1 12.8 10.8 7.9h-13.4l-4.1 12.7L174 287h-13.4Zm36.4 50 4.2-12.7-10.9-7.9h13.4l4.2-12.7 4.1 12.7h13.4l-10.8 7.9 4.1 12.7-10.8-7.8-11 7.8Zm58.9 19.2-4.1-12.8h-13.5l10.9-7.9-4.2-12.7 10.9 7.9 10.8-8-4.1 12.8 10.9 8H260l-4.1 12.7Zm58.9-19.2-10.9-7.8-10.8 7.8 4.1-12.7-10.8-7.9h13.4l4.1-12.7 4.2 12.7h13.4l-10.9 7.9L315 337Zm36.4-50h-13.4l-4.2 12.7-4.1-12.7h-13.4l10.8-8-4.1-12.7 10.8 7.9 10.9-7.9-4.2 12.8 10.9 7.9Zm0-62-10.9 8 4.2 12.7-10.9-7.9-10.8 7.9 4.1-12.8-10.8-7.9h13.4l4.1-12.7L338 225h13.4Zm-36.4-50-4.2 12.7 10.9 7.9h-13.4l-4.2 12.7-4.1-12.7h-13.4l10.8-7.9-4.1-12.7 10.8 7.8 11-7.8Z"/></svg>