<svg xmlns="http://www.w3.org/2000/svg" width="512" height="512" fill="none"><path fill="#0052B4" d="M0 245.6A256 256 0 0 1 256 0v256H0v-10.4Z"/><path fill="#D80027" d="M266.4 0A256 256 0 0 1 512 255.8v.2H256V0h10.4Z"/><path fill="#0052B4" d="M512 266.4A256 256 0 0 1 256.2 512h-.2V256h256v10.4Z"/><path fill="#D80027" d="M245.6 512A256 256 0 0 1 0 256h256v256h-10.4Z"/><path fill="#EEE" d="M288 2c10.9 1.3 21.6 3.4 32 6v184h184c2.6 10.4 4.7 21.1 6 32l-30 32 30 32a254.8 254.8 0 0 1-6 32H320v184a255 255 0 0 1-32 6l-32-30-32 30a255 255 0 0 1-32-6V320H8a254.9 254.9 0 0 1-6-32l30-32-30-32c1.3-10.9 3.4-21.6 6-32h184V8c10.4-2.6 21.1-4.7 32-6l32 30 32-30Z"/><path fill="#EEE" d="M288 2c-10.3-1.3-20.8-2-31.5-2h-1c-10.7 0-21.2.7-31.5 2v222H2a258.5 258.5 0 0 0 0 64h222v222a258.6 258.6 0 0 0 64 0V288h222a258.4 258.4 0 0 0 0-64H288V2Z"/><path fill="#D80027" d="M208 205.4v53.3a48 48 0 1 0 96 0v-53.3h-96Z"/><path fill="#0052B4" fill-rule="evenodd" d="M208 256h48v-50.6h-48V256Zm96 0h-48v50.6h.1a48 48 0 0 0 47.9-48V256Z" clip-rule="evenodd"/><path fill="#6DA544" fill-rule="evenodd" d="m240.9 245.8-1.5 4.8a17.5 17.5 0 1 0 33.2 0l-1.5-4.8 9.5-3 1.6 4.7a27.5 27.5 0 1 1-52.4 0l1.6-4.8 9.5 3.1Z" clip-rule="evenodd"/></svg>