<svg xmlns="http://www.w3.org/2000/svg" width="512" height="512" fill="none"><g clip-path="url(#a)"><circle cx="256" cy="256" r="256" fill="#338AF3"/><path fill="#EEE" fill-rule="evenodd" d="M490 360a256 256 0 0 0 0-208H22a257.7 257.7 0 0 0 0 208h468Z" clip-rule="evenodd"/><path fill="#333" fill-rule="evenodd" d="M507.5 208H4.5c2-11 4.8-21.6 8.2-32h486.6c3.4 10.4 6.1 21 8.2 32Z" clip-rule="evenodd"/><path fill="#D80027" fill-rule="evenodd" d="M12.7 336c-3.4-10.4-6.1-21-8.2-32h503a242 242 0 0 1-8.2 32H12.7Z" clip-rule="evenodd"/><path fill="#6DA544" fill-rule="evenodd" d="M507.5 304a257.3 257.3 0 0 0 0-96H4.5a257.4 257.4 0 0 0 0 96h503Z" clip-rule="evenodd"/><path fill="#FFDA44" fill-rule="evenodd" d="M510 288a258.4 258.4 0 0 0 0-64H2a258.5 258.5 0 0 0 0 64h508Z" clip-rule="evenodd"/><path fill="#EEE" fill-rule="evenodd" d="M304.3 290a64 64 0 1 0-96.6 0L178 301v27h156v-27l-29.7-11Z" clip-rule="evenodd"/><path fill="#6DA544" fill-rule="evenodd" d="M230.4 225.6a34 34 0 0 1 16.8-10.4l-4.1-15.5a50 50 0 0 0-12.1 91.6l8-13.9a34 34 0 0 1-8.6-51.8Zm51.2 0a34 34 0 0 0-16.8-10.4l4.1-15.5a50 50 0 0 1 12.1 91.6l-8-13.9a34 34 0 0 0 8.6-51.8Z" clip-rule="evenodd"/><circle cx="256" cy="248" r="24" fill="#FFC635"/></g><defs><clipPath id="a"><path fill="#fff" d="M0 0h512v512H0z"/></clipPath></defs></svg>