<svg xmlns="http://www.w3.org/2000/svg" viewBox="0 0 512 512"><circle cx="256" cy="256" r="256" fill="#f0f0f0"/><path d="M256 0C145.929 0 52.094 69.472 15.923 166.957h480.155C459.906 69.472 366.071 0 256 0z" fill="#d80027"/><path d="M256 512c110.071 0 203.906-69.472 240.077-166.957H15.923C52.094 442.528 145.929 512 256 512z"/><path d="M345.043 228.174H278.26c0-12.294-9.967-22.261-22.261-22.261s-22.261 9.967-22.261 22.261h-66.783c0 12.295 10.709 22.261 23.003 22.261h-.742c0 12.295 9.966 22.261 22.261 22.261 0 12.295 9.966 22.261 22.261 22.261h44.522c12.295 0 22.261-9.966 22.261-22.261 12.295 0 22.261-9.966 22.261-22.261h-.741c12.294 0 23.002-9.966 23.002-22.261z" fill="#ff9811"/></svg>