<svg xmlns="http://www.w3.org/2000/svg" width="512" height="512" fill="none"><g clip-path="url(#a)"><path fill="#FFDA44" d="M256 0c61 0 117 21.4 161 57l52 57a255 255 0 0 1 28.6 57l12.9 57a259 259 0 0 1-.1 57l-12.8 56a255 255 0 0 1-28.6 57l-52 57a255 255 0 0 1-161 57 255 255 0 0 1-161-57l-52-57a255 255 0 0 1-28.6-57L1.6 285a258.8 258.8 0 0 1 0-57l12.8-57A255 255 0 0 1 43 114l52-57A255 255 0 0 1 256 0Z"/><path fill="#D80027" d="M497.6 171a254.5 254.5 0 0 1 12.9 57H1.5c2.2-19.8 6.6-38.8 13-57h483ZM417 57a256.2 256.2 0 0 1 52 57H43a256.2 256.2 0 0 1 52-57h322Zm80.6 284a254.5 254.5 0 0 0 12.8-56H1.6c2.2 19.4 6.6 38.2 12.8 56h483.2ZM469 398H43a256.2 256.2 0 0 0 52 57h322a256.2 256.2 0 0 0 52-57Z"/></g><defs><clipPath id="a"><path fill="#fff" d="M0 0h512v512H0z"/></clipPath></defs></svg>