<svg xmlns="http://www.w3.org/2000/svg" width="512" height="512" fill="none"><g clip-path="url(#a)"><path fill="#EEE" fill-rule="evenodd" d="M376.1 482.1A256 256 0 0 0 512 256l-22.4-104.8A256 256 0 0 0 256 0L140.5 27.8h-.5A256 256 0 0 0 0 256l30 116.1-.6 3A256 256 0 0 0 256 512l117.3-30.5 2.8.6Z" clip-rule="evenodd"/><path fill="#333" fill-rule="evenodd" d="M437 75a255.2 255.2 0 0 1 75 181H256L437 75ZM256 0v256L75 75A255.2 255.2 0 0 1 256 0ZM0 256h256L75 437A255.2 255.2 0 0 1 0 256Zm256 256V256l181 181a255.2 255.2 0 0 1-181 75Z" clip-rule="evenodd"/><path fill="#FFC635" d="m167 178 89 11.2 89-11.1v-53.4l-35.6 17.8L256 89l-53.4 53.5-35.6-17.8V178Z"/><path fill="#D80027" d="M256 389.6c-49.1 0-89-40-89-89v-89.1l33.3-33.4h111.4l33.3 33.4v89a89 89 0 0 1-89 89v.1Z"/><path fill="#EEE" d="M256 356.2c-30.7 0-55.7-25-55.7-55.7v-89h111.4v89c0 30.7-25 55.7-55.7 55.7Z"/><path fill="#FFC635" d="M167 178h33.3v33.5H167V178Zm144.7 0H345v33.5h-33.3V178Zm0 72.4H345v33.4h-33.3v-33.4Zm-144.7 0h33.3v33.4H167v-33.4Zm89 105.8c-5.8 0-11.4-1-16.7-2.6V388a89 89 0 0 0 33.4 0v-34.4c-5.4 1.7-11 2.6-16.7 2.6Zm-55-46.6-26.6 26.6a89.4 89.4 0 0 0 19.4 28l23.6-23.7a55.5 55.5 0 0 1-16.3-31l-.1.1Zm136.6 26.6-26.7-26.6c-2 12-7.8 22.8-16.3 31l23.6 23.5c8.2-8 14.8-17.4 19.4-27.9Z"/><path fill="#0052B4" d="M244.9 230v18.6a11.1 11.1 0 1 0 22.2 0V230h-22.2Zm0 74.2v18.6a11.1 11.1 0 1 0 22.2 0v-18.6h-22.2Zm33.4-37v18.5a11.1 11.1 0 1 0 22.2 0V267h-22.2v.2Zm-33.4 0v18.5a11.1 11.1 0 1 0 22.2 0V267H245l-.1.2Zm-33.4 0v18.5a11.1 11.1 0 1 0 22.2 0V267h-22.2v.2Z"/></g><defs><clipPath id="a"><path fill="#fff" d="M0 0h512v512H0z"/></clipPath></defs></svg>