<svg xmlns="http://www.w3.org/2000/svg" width="512" height="512" fill="none"><g clip-path="url(#a)"><g clip-path="url(#b)"><path fill="#EEE" d="m75 75 149 213 213 149A256 256 0 0 0 258.8 0h-5.7A255.2 255.2 0 0 0 75 75Z"/><path fill="#EEE" d="m75 75 362 362A256 256 0 0 1 75 75Z"/><path fill="#338AF3" d="M45.8 109.8a256 256 0 0 1 64-64l356.4 356.4a256 256 0 0 1-64 64L45.8 109.8Z"/></g><path fill="#FFC635" d="m211 181 46 16.4 44-16.4v-38l-18 9-27-27-27 27-18-9v38Z"/><path fill="#0052B4" d="M186 181v103a70 70 0 1 0 140 0V181H186Z"/></g><defs><clipPath id="a"><path fill="#fff" d="M0 0h512v512H0z"/></clipPath><clipPath id="b"><path fill="#fff" d="M0 512V0h512v512z"/></clipPath></defs></svg>