<svg xmlns="http://www.w3.org/2000/svg" viewBox="0 0 512 512"><circle cx="256" cy="256" r="256" fill="#eee" paint-order="markers stroke fill"/><path d="M437.03 437.03a257.63 257.63 0 0 1-34.22 28.75L46.23 109.19a257.47 257.47 0 0 1 28.74-34.22 257.6 257.6 0 0 1 34.22-28.74L465.77 402.8a257.52 257.52 0 0 1-28.74 34.22z" fill="#338af3"/><path d="M186 181v103a70 70 0 0 0 140 0V181z" fill="#0052b4" paint-order="markers stroke fill"/><path d="M211 181h90v-38l-18 9-27-27-27 27-18-9z" fill="#d80027"/></svg>