<svg xmlns="http://www.w3.org/2000/svg" viewBox="0 0 512.001 512.001"><path d="M256.001.001c141.384 0 256 114.616 256 256s-114.616 256-256 256-256-114.616-256-256" fill="#ffda44"/><g fill="#d80027"><path d="M250.436 113.779H468.88a257.41 257.41 0 0 0-51.987-56.889H250.436v56.889zM250.436 227.557h259.985a254.547 254.547 0 0 0-13.006-56.888H250.436v56.888zM14.588 341.335h482.825a254.566 254.566 0 0 0 13.007-56.89H1.582a254.374 254.374 0 0 0 13.006 56.89zM95.108 455.112h321.784a257.434 257.434 0 0 0 51.987-56.889H43.123a257.447 257.447 0 0 0 51.985 56.889z"/></g><path d="M256.001.001C114.616.001-.001 114.617 0 256.003c58.426-.002 114.616 0 256 0L256.001.001z" fill="#4a1f63"/><path fill="#f0f0f0" d="M211.479 133.566v22.261h-11.13v-22.261h-22.261v22.261h-11.13v-44.522h-44.522v44.522h-11.131v-22.261h-22.26v22.261H77.914v-22.261H55.652v66.782H233.74v-66.782z"/></svg>