<svg xmlns="http://www.w3.org/2000/svg" viewBox="0 0 512 512"><circle cx="256" cy="256" r="256" fill="#338af3"/><path fill="#acabb1" d="M122.44 278.26h267.13v33.4H122.44z"/><path fill="#ffda44" d="M166.96 178.09L256 189.22l89.04-11.13v-53.43l-35.61 17.81L256 89.04l-53.43 53.43-35.61-17.8z"/><path d="M144.7 345.05h-33.4v-61.22l11.14-16.7-11.14-16.7v-38.95h33.4zm256 0h-33.4V211.48h33.4v38.95l-11.13 16.98 11.13 16.42z" fill="#eee"/><path fill="#acabb1" d="M111.3 250.44h289.4v33.39H111.3z"/><path d="M256 389.56c-49.1 0-89.04-39.94-89.04-89.04V178.1h178.08v122.43c0 49.1-39.94 89.05-89.04 89.05z" fill="#eee"/><path d="M256 356.17a55.72 55.72 0 0 1-55.65-55.65v-89.04h111.3v89.04A55.72 55.72 0 0 1 256 356.17z" fill="#0052b4"/><path d="M166.96 178.09h33.39v33.39h-33.4zm144.7 0h33.38v33.39h-33.39zm0 72.34h33.38v33.4h-33.39zm-144.7 0h33.39v33.4h-33.4zm72.34-72.34h33.4v33.39h-33.4zM256 356.17c-5.82 0-11.42-.9-16.7-2.56v34.36c5.42 1.03 11 1.6 16.7 1.6s11.28-.57 16.7-1.6v-34.36a55.48 55.48 0 0 1-16.7 2.56zm-54.9-46.61l-26.66 26.64a89.35 89.35 0 0 0 19.32 27.91l23.6-23.6a55.54 55.54 0 0 1-16.27-30.95zm136.46 26.65l-26.65-26.65a55.57 55.57 0 0 1-16.27 30.95l23.6 23.6a89.4 89.4 0 0 0 19.32-27.9z" fill="#d80027"/></svg>