<svg xmlns="http://www.w3.org/2000/svg" width="512" height="512" fill="none"><g clip-path="url(#a)"><path fill="#FFDA44" d="M477.8 384A254.8 254.8 0 0 0 512 256c0-46.6-12.5-90.3-34.2-128H34.2A254.8 254.8 0 0 0 0 256c0 46.6 12.5 90.3 34.2 128h443.6Z"/><path fill="#D80027" d="M256 512A256 256 0 0 1 25.6 368h460.6A256 256 0 0 1 256 512h-.1Zm0-512A256 256 0 0 0 25.7 144h460.6A256 256 0 0 0 256 0Z"/><path fill="#EEE" d="M144 304h-16v-80h16v80Zm128 0h16v-80h-16v80Z"/><path fill="#D80027" d="M122 248a4 4 0 1 0 0 8h172a4 4 0 1 0 0-8H122Zm0 24a4 4 0 1 0 0 8h28a4 4 0 1 0 0-8h-28Zm144 0a4 4 0 1 0 0 8h28a4 4 0 1 0 0-8h-28Z"/><path fill="#EEE" fill-rule="evenodd" d="M196 168c-7 0-13 5-15 11l-5-1c-9 0-16 7-16 16s7 16 16 16c7 0 13-4 15-11a16 16 0 0 0 17-4 16 16 0 0 0 17 4 16 16 0 1 0 10-20 16 16 0 0 0-27-5c-3-4-7-6-12-6Zm0 8c5 0 8 4 8 8 0 5-3 8-8 8-4 0-8-3-8-8 0-4 4-8 8-8Zm24 0c5 0 8 4 8 8 0 5-3 8-8 8-4 0-8-3-8-8 0-4 4-8 8-8Zm-44 10 4 1 4 8c0 4-4 7-8 7s-8-3-8-8c0-4 4-8 8-8Zm64 0c5 0 8 4 8 8 0 5-3 8-8 8-4 0-8-3-8-7l4-8 4-1Zm-32 142c26.5 0 48-14.3 48-32 0-9.6-6.3-18.1-16.3-24H256v-48h-48v40c-26.5 0-48 14.3-48 32s21.5 32 48 32Z" clip-rule="evenodd"/><path fill="#FF9811" d="M200 160h16v32h-16v-32Z"/><path fill="#D80027" fill-rule="evenodd" d="m248 208-8 8h-64l-8-8c0-13 18-24 40-24s40 11 40 24Zm-112-16a8 8 0 0 1 8 8v8a8 8 0 0 1-16 0v-8a8 8 0 0 1 8-8Zm144 0a8 8 0 0 1 8 8v8a8 8 0 0 1-16 0v-8a8 8 0 0 1 8-8Zm-72 80v24a24 24 0 0 0 48 0v-24h-48Zm0 0h-48v-48h48v48Zm34-30a10 10 0 1 0-20 0v12a10 10 0 1 0 20 0v-12Z" clip-rule="evenodd"/><path fill="#FF9811" fill-rule="evenodd" d="M128 208h16a8 8 0 0 1 0 16h-16a8 8 0 0 1 0-16Zm144 0h16a8 8 0 0 1 0 16h-16a8 8 0 0 1 0-16Zm-128 96h-16a8 8 0 0 0 0 16h16a8 8 0 0 0 0-16Zm128 0h16a8 8 0 0 1 0 16h-16a8 8 0 0 1 0-16Zm-112-32v24c0 8 4 14 9 19l5-6 5 10c3.3.8 6.7.8 10 0l5-10 5 6c6-5 9-11 9-19v-24h-9l-5 8-5-8h-10l-5 8-5-8h-9Zm8-32v-8h32v8h-8v16h8v8h-32v-8h8v-16h-8Zm72-24h-64v8h64v-8Z" clip-rule="evenodd"/><path fill="#D80027" d="M169 272v43c3 2 6.4 3.4 10 4v-47h-10Zm20 0v47c3.6-.6 7-2 10-4v-43h-10Z"/><path fill="#FFDA44" fill-rule="evenodd" d="M186 208a6 6 0 1 0 0-12 6 6 0 0 0 0 12Zm22 0a6 6 0 1 0 0-12 6 6 0 0 0 0 12Zm28-6a6 6 0 1 1-12 0 6 6 0 0 1 12 0Z" clip-rule="evenodd"/><path fill="#0052B4" fill-rule="evenodd" d="M208 288a16 16 0 1 0 0-32 16 16 0 0 0 0 32Zm80 32h-16a8 8 0 0 0 0 16h16a8 8 0 0 0 0-16Zm-160 0h16a8 8 0 0 1 0 16h-16a8 8 0 0 1 0-16Z" clip-rule="evenodd"/></g><defs><clipPath id="a"><path fill="#fff" d="M0 0h512v512H0z"/></clipPath></defs></svg>