<svg xmlns="http://www.w3.org/2000/svg" width="512" height="512" fill="none"><g clip-path="url(#a)"><path fill="#EEE" d="M477.8 384A254.8 254.8 0 0 0 512 256c0-46.6-12.5-90.3-34.2-128H34.2A254.8 254.8 0 0 0 0 256c0 46.6 12.5 90.3 34.2 128h443.6Z"/><path fill="#496E2D" d="M256 512A256 256 0 0 1 25.6 368h460.6A256 256 0 0 1 256 512h-.1Z"/><path fill="#0052B4" d="M256 0A256 256 0 0 0 25.7 144h460.6A256 256 0 0 0 256 0Z"/><path fill="#D80027" d="M0 245.6A255.2 255.2 0 0 1 74.9 74.9L256 256 74.9 437.1A255.2 255.2 0 0 1 0 266.4v-20.8Z"/><path fill="#85693D" d="m345 229-12 11 40 40-40 40 11 11 40-40 40 40 11-11-40-40 40-40-11-11-40 40-39-40Z"/><path fill="#D80027" d="m384 181 21 62-54-38h66l-53 39 20-63Z"/></g><defs><clipPath id="a"><path fill="#fff" d="M0 0h512v512H0z"/></clipPath></defs></svg>