<svg xmlns="http://www.w3.org/2000/svg" width="512" height="512" fill="none"><g clip-path="url(#a)"><path fill="#FFDA44" d="M482.2 376c19-35.8 29.8-76.6 29.8-120 0-43.4-10.8-84.2-29.8-120H29.8A254.9 254.9 0 0 0 0 256c0 43.4 10.8 84.2 29.8 120h452.4Z"/><path fill="#496E2D" d="M496.5 344a256.1 256.1 0 0 1-481 0h481Z"/><path fill="#333" d="M496.5 168h-481a256.1 256.1 0 0 1 481 0Z"/><path fill="#D80027" d="M0 245.6A255.2 255.2 0 0 1 74.9 74.9L256 256 74.9 437.1A255.2 255.2 0 0 1 0 266.4v-20.8Z"/></g><defs><clipPath id="a"><path fill="#fff" d="M0 0h512v512H0z"/></clipPath></defs></svg>