<svg xmlns="http://www.w3.org/2000/svg" width="512" height="512" fill="none"><g clip-path="url(#a)"><path fill="#333" fill-rule="evenodd" d="M496.4 344.2a256.1 256.1 0 0 1-480.8 0h480.8Z" clip-rule="evenodd"/><path fill="#496E2D" fill-rule="evenodd" d="M477.8 384a254.8 254.8 0 0 0 27.4-186.7H6.8A256.8 256.8 0 0 0 34.2 384h443.6Z" clip-rule="evenodd"/><path fill="#EEE" fill-rule="evenodd" d="M512 256c0-72.9-30.5-138.7-79.3-185.3H79.3A255.3 255.3 0 0 0 0 256h512Z" clip-rule="evenodd"/><path fill="#D80027" fill-rule="evenodd" d="M477.8 128H34.2a255.9 255.9 0 0 1 443.6 0Z" clip-rule="evenodd"/><path fill="#333" d="m256 134.1 14.4 44.2h46.5l-37.6 27.4 14.3 44.2-37.6-27.3-37.6 27.3 14.4-44.2-37.7-27.4h46.5l14.4-44.2Z"/></g><defs><clipPath id="a"><path fill="#fff" d="M0 0h512v512H0z"/></clipPath></defs></svg>