<svg xmlns="http://www.w3.org/2000/svg" width="512" height="512" fill="none"><g clip-path="url(#a)"><circle cx="256" cy="256" r="256" fill="#EEE"/><path fill="#496E2D" fill-rule="evenodd" d="M488.6 149H23.4a256 256 0 0 1 465.2 0Z" clip-rule="evenodd"/><path fill="#D80027" fill-rule="evenodd" d="M488.6 363a256 256 0 0 1-465.2 0h465.2Z" clip-rule="evenodd"/><path fill="#0052B4" fill-rule="evenodd" d="M500.8 331a256 256 0 0 0 0-150H11.2a256 256 0 0 0 0 150h489.6Z" clip-rule="evenodd"/><path fill="#EEE" d="m312 317 104-75H288l104 75-40-122-40 122Zm-203-32 49-36H98l49 36-19-58-19 58Zm64 32 49-36h-60l49 36-19-58-19 58Zm0-64 49-36h-60l49 36-19-58-19 58Z"/></g><defs><clipPath id="a"><path fill="#fff" d="M0 0h512v512H0z"/></clipPath></defs></svg>