<svg xmlns="http://www.w3.org/2000/svg" width="512" height="512" fill="none"><g clip-path="url(#a)"><circle cx="256" cy="257" r="256" fill="#6DA544"/><path fill="#0052B4" fill-rule="evenodd" d="M75.5 75.5a256.6 256.6 0 0 0-51 72L64 256 24.1 365.6a256.6 256.6 0 0 0 50.4 72L256 256 75.5 75.5Z" clip-rule="evenodd"/><path fill="#EEE" fill-rule="evenodd" d="M12.3 178.4c6.7-20.8 16-40.5 27.5-58.6L176 256 39 393a254.8 254.8 0 0 1-27-58.8L64 256l-51.7-77.6Z" clip-rule="evenodd"/><path fill="#D80027" fill-rule="evenodd" d="M13.3 338.7a255.7 255.7 0 0 1 .5-164.9L96 256l-82.7 82.7Z" clip-rule="evenodd"/><path fill="#FFDA44" d="m384 182 16.6 51.2h53.7l-43.4 31.5 16.5 51.1-43.4-31.6-43.4 31.6 16.5-51-43.4-31.6h53.7L384 182Z"/></g><defs><clipPath id="a"><path fill="#fff" d="M0 0h512v512H0z"/></clipPath></defs></svg>