<svg xmlns="http://www.w3.org/2000/svg" width="512" height="512" fill="none"><path fill="#FFDA44" d="M29.8 136A254.9 254.9 0 0 0 0 256c0 43.4 10.8 84.2 29.8 120h452.4c19-35.8 29.8-76.6 29.8-120 0-43.4-10.8-84.2-29.8-120H29.8Z"/><path fill="#6DA544" d="M15.5 168a256.1 256.1 0 0 1 481 0h-481Z"/><path fill="#D80027" d="M15.5 344h481a256.1 256.1 0 0 1-481 0Z"/><path fill="#0052B4" d="M328 157a122.4 122.4 0 1 0-144 198 122.4 122.4 0 0 0 144-198Z"/><path fill="#FFDA44" fill-rule="evenodd" d="M275.4 229.4 256 169.8l-4.6 14.2 4.6 14.2 10.1 31.2h-11l-2.8 8.7H296l12.1-8.7h-32.7Zm-24-17-4.6-14.2-10.2 31.2H174l12.1 8.7h47.7l-3.4 10.5 7.5 5.4 5.1-15.9 2.9-8.7 5.5-17Zm-26.7 53.8-26.5-19.3h15l14.3 10.5 7.5 5.4 13.5 9.8-7.4 5.5-9-6.5-10 31.2-4.7 14.2-12 8.7 19.3-59.5Zm23.8 17.3 7.5-5.4 13.5-9.9 2.9 8.8-9 6.5 26.6 19.3 12 8.7 4.7 14.2L256 289l-26.5 19.3 4.6-14.2 14.4-10.5Zm31.3-11.9-2.8-8.8-5.2-15.9h9.3l3.4 10.5 26.5-19.3 12-8.7h15l-50.7 36.8 10.1 31.1-12-8.8-5.6-16.9Zm24.3-89.2-19 26.1 7 5.2 19-26.2-7-5.1Zm-84.3 31.3-19-26.2 7.1-5.1 19 26.1-7 5.2Zm90.3 55.3 30.8 10-2.7 8.3-30.8-10 2.7-8.3Zm-49.7 42.5v32.3h-8.8v-32.3h8.8Zm-86.6-24.2 30.8-10-2.7-8.3-30.8 10 2.7 8.3Z" clip-rule="evenodd"/></svg>