<svg xmlns="http://www.w3.org/2000/svg" width="512" height="512" fill="none"><path fill="#338AF3" d="M512 256a256 256 0 1 1-512 0L256 0a256 256 0 0 1 256 256Z"/><path fill="#0052B4" d="M256 0v256H0A256 256 0 0 1 256 0Z"/><path fill="#EEE" d="M217.6 256H256v-38.4L140.7 102.3H256V0A256 256 0 0 0 0 256h102.3V140.7L217.6 256Z"/><path fill="#D80027" d="M256 76.6V25.4H144.7A257 257 0 0 0 25.4 144.7V256h51.2V76.6H256Z"/><path fill="#D80027" d="M256 230.4V256L102.2 102.2H128l128 128.2Z"/><path fill="#F3F3F3" d="M306 189.2v89c0 59.7 78 78 78 78s78-18.3 78-78v-89L384 167l-78 22.3Z"/><path fill="#D80027" d="M462 189.2v-33.4H306v33.4h67V256h-67v22.3h66.8v74.5c6.7 2.3 11.1 3.4 11.1 3.4s4.4-1 11.1-3.4v-74.5h67V256h-66.8v-66.8H462Z"/></svg>