<svg xmlns="http://www.w3.org/2000/svg" width="512" height="512" fill="none"><path fill="#026" d="M512 256a256 256 0 1 1-512 0L256 0a256 256 0 0 1 256 256Z"/><path fill="#026" d="M256 0v256H0A256 256 0 0 1 256 0Z"/><path fill="#EEE" d="M217.6 256H256v-38.4L140.7 102.3H256V0A256 256 0 0 0 0 256h102.3V140.7L217.6 256Z"/><path fill="#D80027" d="M256 76.6V25.4H144.7A257 257 0 0 0 25.4 144.7V256h51.2V76.6H256Z"/><path fill="#D80027" d="M256 230.4V256L102.2 102.2H128l128 128.2Z"/><path fill="#338AF3" d="M306 144.7V267c0 59.7 78 78 78 78s78-18.3 78-78V144.7H306Z"/><path fill="#F3F3F3" d="M384 236c-19.5 0-19.5 17.8-39 17.8-19.4 0-19.4-17.8-39-17.8v31.2c19.6 0 19.6 17.8 39 17.8 19.5 0 19.5-17.8 39-17.8s19.5 17.8 39 17.8c19.4 0 19.4-17.8 39-17.8V236c-19.6 0-19.6 17.8-39 17.8-19.5 0-19.5-17.8-39-17.8Zm0-62.4c-19.5 0-19.5 17.8-39 17.8-19.4 0-19.4-17.8-39-17.8v31.2c19.6 0 19.6 17.8 39 17.8 19.5 0 19.5-17.8 39-17.8s19.5 17.8 39 17.8c19.4 0 19.4-17.8 39-17.8v-31.2c-19.6 0-19.6 17.8-39 17.8-19.5 0-19.5-17.8-39-17.8Z"/><path fill="#FFC635" fill-rule="evenodd" d="m296.7 348.4 11.4 6 .6.2-1.4 2.9-1.2 2.8 2.8 1.3a182.6 182.6 0 0 0 150.3 0l2.8-1.3-1.3-2.8-1.3-3 .6-.2a178 178 0 0 0 11.4-6l4.6-2.6-4.6-2.7-9.5-6c-.1-4.1-.4-8.2-.7-12.2l-.4-4.8-4.2 2.4a149 149 0 0 1-11.7 6l-6.2 2.8 1.8 4.9a150.6 150.6 0 0 1-113.2-.1l2-4.8-6.1-2.8a129 129 0 0 1-11.7-6l-4.2-2.4-.4 4.9-.6 12a109 109 0 0 1-9.6 6l-4.7 2.8 4.7 2.7Z" clip-rule="evenodd"/></svg>