<svg xmlns="http://www.w3.org/2000/svg" width="512" height="512" fill="none"><g clip-path="url(#a)"><path fill="#333" d="M256 0c61 0 117 21.4 161 57l52 57a255 255 0 0 1 28.6 57l12.9 57a258.7 258.7 0 0 1-.1 57l-12.8 56a255 255 0 0 1-28.6 57l-52 57a255 255 0 0 1-161 57 255 255 0 0 1-161-57l-52-57a255 255 0 0 1-28.6-57L1.6 285a258.8 258.8 0 0 1 0-57l12.8-57A255 255 0 0 1 43 114l52-57A255 255 0 0 1 256 0Z"/><path fill="#EEE" d="M497.6 171a254.5 254.5 0 0 1 12.9 57H1.5c2.2-19.8 6.6-38.8 13-57h483ZM417 57a256.2 256.2 0 0 1 52 57H43a256.2 256.2 0 0 1 52-57h322Zm80.6 284a254.6 254.6 0 0 0 12.8-56H1.6c2.2 19.4 6.6 38.2 12.9 56h483ZM469 398H43a256.2 256.2 0 0 0 52 57h322a256.2 256.2 0 0 0 52-57Z"/><path fill="#EEE" fill-rule="evenodd" d="M1.6 227.6A256 256 0 0 1 256 0v227.6H1.6Z" clip-rule="evenodd"/><path fill="#333" fill-rule="evenodd" d="m134.7 30.5 7.4-3.8a6 6 0 1 1-7.4 3.8Zm-8.2 4.6 2.3-1.3L147 72l-19 14-19-14 17.5-36.9ZM16.7 164.7l2.2-5.3a6 6 0 1 1-2.1 5.3ZM203 72l19 14 19-14-19-40-19 40Zm37.1-39.6a6 6 0 1 1-12 0 6 6 0 0 1 12 0Zm-30 6a6 6 0 1 0 0-12 6 6 0 0 0 0 12Zm18-18a6 6 0 1 1-12 0 6 6 0 0 1 12 0ZM156 138l19 14 19-14-19-40-19 40Zm37.2-39.8a6 6 0 1 1-12 0 6 6 0 0 1 12 0Zm-30 6a6 6 0 1 0 0-12 6 6 0 0 0 0 12Zm18-18a6 6 0 1 1-12 0 6 6 0 0 1 12 0ZM63 138l19 14 18-14-18-40-19 40Zm36.5-39.8a6 6 0 1 1-12 0 6 6 0 0 1 12 0Zm-30 6a6 6 0 1 0 0-12 6 6 0 0 0 0 12Zm18-18a6 6 0 1 1-12 0 6 6 0 0 1 12 0ZM16 204l19 14 19-14-19-40-19 40Zm36.7-40a6 6 0 1 1-12 0 6 6 0 0 1 12 0Zm-12-12a6 6 0 1 1-12 0 6 6 0 0 1 12 0Zm68.3 52 19 14 19-14-19-40-19 40Zm37.4-40a6 6 0 1 1-12 0 6 6 0 0 1 12 0Zm-30 6a6 6 0 1 0 0-12 6 6 0 0 0 0 12Zm18-18a6 6 0 1 1-12 0 6 6 0 0 1 12 0Zm68.6 52 19 14 19-14-19-40-19 40Zm37.1-40a6 6 0 1 1-12 0 6 6 0 0 1 12 0Zm-30 6a6 6 0 1 0 0-12 6 6 0 0 0 0 12Zm18-18a6 6 0 1 1-12 0 6 6 0 0 1 12 0Z" clip-rule="evenodd"/></g><defs><clipPath id="a"><path fill="#fff" d="M0 0h512v512H0z"/></clipPath></defs></svg>