<svg xmlns="http://www.w3.org/2000/svg" width="512" height="512" fill="none"><g clip-path="url(#a)"><circle cx="256" cy="256" r="256" fill="#0052B4"/><path fill="#FCFCFC" d="m256 52 204 204-204 204L52 256 256 52Z"/><path fill="#85693D" d="m232 463 12-299h24l12 299h-48Z"/><path fill="#6DA544" d="M293 172c31-14 42-23 90-22-40-18-77-23-108 0 9-23 27-54 59-77-55 9-82 36-86 68-14-32-55-45-100-45 50 27 36 27 73 63-32-5-68 9-104 50 49-27 72-18 104-14a90 90 0 0 0-41 86c36-45 31-32 77-72 18 40 40 49 49 86 9-37 0-77-18-91 36 14 68 23 86 50-9-63-50-72-81-82Z"/></g><defs><clipPath id="a"><path fill="#fff" d="M0 0h512v512H0z"/></clipPath></defs></svg>