<svg xmlns="http://www.w3.org/2000/svg" width="512" height="512" fill="none"><g clip-path="url(#a)"><circle cx="256" cy="256" r="256" fill="#EEE"/><path fill="#D80027" d="M288 2c-10.3-1.3-20.8-2-31.5-2h-1c-10.7 0-21.2.7-31.5 2v222H2a258.5 258.5 0 0 0 0 64h222v222a258.6 258.6 0 0 0 64 0V288h222a258.4 258.4 0 0 0 0-64H288V2Z"/><path fill="#818085" d="m256 104-44 76h-87l43 76-43 76h87l44 76 44-76h87l-43-76 43-76h-87l-44-76Z"/><path fill="#EEE" d="m256 131-36 62h-73l37 63-37 63h73l36 63 36-63h73l-37-63 37-63h-73l-36-62Z"/><path fill="#D80027" d="M259 195c-5 0-5 5-5 5v39h-3v-33s0-6-5-6c-6 0-6 6-6 6v35l-3 1v-25s0-6-5-6c-6 0-6 6-6 6v43c0 10 5 20 12 26v21h36v-17c9-5 16-14 18-25 0-6 2-11 4-16l4-14s1-5-4-7-7 3-7 3l-8 19h-3v-47s0-5-5-5c-6 0-6 5-6 5v36h-2v-39s0-5-6-5Z"/><path fill="#FFC635" d="M245 38v11h-11v22h11v21c-6-6-14-9-22-9a33 33 0 0 0-23 57v20h112v-20c6-7 10-15 10-24a33 33 0 0 0-55-24V71h11V49h-11V38h-22Z"/></g><defs><clipPath id="a"><path fill="#fff" d="M0 0h512v512H0z"/></clipPath></defs></svg>