<svg xmlns="http://www.w3.org/2000/svg" width="512" height="512" viewBox="0 0 512 512" style="border-radius:50%"><path fill="#eee" d="m0 0 8 16-8 15v16l32 65-32 64v32l32 48-32 48v32l32 64-32 65v47l16-8 15 8h16l65-32 64 32h32l48-32 48 32h32l64-32 65 32h47l-8-15 8-16v-16l-32-65 32-64v-32l-32-48 32-48v-32l-32-64 32-65V0l-15 8-16-8h-16l-65 32-64-32h-32l-48 32-48-32h-32l-64 32L47 0H0z"/><path fill="#0052b4" d="m47 0 129 129V0Zm289 0v129L465 0ZM0 47v129h129Zm512 0L383 176h129ZM0 336v129l129-129Zm383 0 129 129V336Zm-47 47v129h129zm-160 0L47 512h129Z"/><path fill="#d80027" d="M208 0v208H0v96h208v208h96V304h208v-96H304V0h-96z"/><path fill="#d80027" d="m336 336 176 176v-31L367 336Zm0-160L512 0h-31L336 145Zm-160 0L0 0v31l145 145zm0 160L0 512h31l145-145Z"/></svg>