<svg xmlns="http://www.w3.org/2000/svg" width="512" height="512" fill="none"><circle cx="256" cy="256" r="256" fill="#0052B4"/><path fill="#EEE" d="M459.4 100.6 304 256l155.4 155.4c-13.8 18-30 34.2-48 48L256 304 100.6 459.4c-18-13.8-34.2-30-48-48L208 256 52.6 100.6c13.8-18 30-34.2 48-48L256 208 411.4 52.6c18 13.8 34.2 30 48 48Z"/><path fill="#EEE" d="M288 2c10.9 1.3 21.6 3.4 32 6v184h184c2.6 10.4 4.7 21.1 6 32l-30 32 30 32a254.8 254.8 0 0 1-6 32H320v184a255 255 0 0 1-32 6l-32-30-32 30a255 255 0 0 1-32-6V320H8a254.9 254.9 0 0 1-6-32l30-32-30-32c1.3-10.9 3.4-21.6 6-32h184V8c10.4-2.6 21.1-4.7 32-6l32 30 32-30Z"/><path fill="#D80027" d="M288 2c-10.3-1.3-20.8-2-31.5-2h-1c-10.7 0-21.2.7-31.5 2v222H2a258.5 258.5 0 0 0 0 64h222v222a258.6 258.6 0 0 0 64 0V288h222a258.4 258.4 0 0 0 0-64H288V2Z"/><path fill="#D80027" fill-rule="evenodd" d="M420.3 59.7c5.8 4.8 11.4 10 16.7 15.3L320 192v-32L420.3 59.7Zm-360.6 32c4.8-5.8 10-11.4 15.3-16.7l117 117h-32L59.7 91.7ZM437 437c5.4-5.3 10.5-10.9 15.3-16.7L352 320h-32l117 117ZM91.7 452.3 192 352v-32L75 437c5.3 5.4 10.9 10.5 16.7 15.3Z" clip-rule="evenodd"/></svg>