<svg xmlns="http://www.w3.org/2000/svg" width="512" height="512" viewBox="0 0 512 512" style="border-radius:50%"><path fill="#eee" d="m0 0 8 22-8 23v23l32 54-32 54v32l32 48-32 48v32l32 54-32 54v68l22-8 23 8h23l54-32 54 32h32l48-32 48 32h32l54-32 54 32h68l-8-22 8-23v-23l-32-54 32-54v-32l-32-48 32-48v-32l-32-54 32-54V0l-22 8-23-8h-23l-54 32-54-32h-32l-48 32-48-32h-32l-54 32L68 0H0z"/><path fill="#012169" d="m255-820 362 362L255-96l-362-362Z"/><path fill="#fff" d="m617-458-45 45-271 2 3 266-49 49-48-47-2-268-264 1-48-48 48-48 264-1-3-260 53-53 44 44 2 269 265-2Z"/><path fill="#c8102e" d="m156-461-16 32-218 1-29-30 2-2zm96 80 33 43 2 210-32 32zm365-77-274 3 28-34 213-1ZM254-819l3 270-36-47-1-189Z"/><path fill="#fff" d="M379-695 17-333l113 113 362-362Zm-249 0L17-582l362 362 113-113Z"/><path fill="#c8102e" d="m108-673-68 68 362 362 68-68Zm294 0L40-311l68 68 362-362Z"/><path fill="#0052b4" d="M336 0v108L444 0Zm176 68L404 176h108zM0 176h108L0 68ZM68 0l108 108V0Zm108 512V404L68 512ZM0 444l108-108H0Zm512-108H404l108 108Zm-68 176L336 404v108z"/><path fill="#d80027" d="M467 0 336 131v45L512 0ZM0 45l131 131h45L0 0Zm45 467 131-131v-45L0 512Zm467-45L381 336h-45l176 176z"/><path fill="#d80027" d="M208 0v208H0v96h208v208h96V304h208v-96H304V0h-96z"/></svg>