<svg xmlns="http://www.w3.org/2000/svg" width="512" height="512" fill="none"><circle cx="256" cy="256" r="256" fill="#A2001D"/><path fill="#FFDA44" d="M75 75h362v362H75V75Z"/><path fill="#496E2D" fill-rule="evenodd" d="M437 437a255.2 255.2 0 0 0 75-181c0-70.7-28.7-134.7-75-181L256 256 75 75A255.2 255.2 0 0 0 0 256c0 70.7 28.7 134.7 75 181l181-181 181 181Z" clip-rule="evenodd"/><circle cx="256" cy="256" r="98.4" fill="#A2001D"/><path fill="#FFDA44" d="m256 157.6 22.1 68h71.5l-57.8 42 22 68-57.8-42-57.9 42 22.1-68-57.8-42h71.5l22.1-68Zm-128.2 94.2a22.3 22.3 0 0 1-37.6 23.8c-12-18.8-5-49.5-5-49.5s30.7 6.9 42.6 25.7Z"/><path fill="#A2001D" d="M115 284.2a11.1 11.1 0 1 0 0-22.2 11.1 11.1 0 0 0 0 22.2Z"/><path fill="#FFDA44" d="m172 17.5 4.5 13.8H191L179.3 40l4.5 13.8L172 45l-11.8 8.6 4.5-13.8-11.7-8.6h14.5l4.5-13.8Zm80 0 4.5 13.8H271L259.3 40l4.5 13.8L252 45l-11.8 8.6 4.5-13.8-11.7-8.6h14.5l4.5-13.8Zm80 0 4.5 13.8H351L339.3 40l4.5 13.8L332 45l-11.8 8.6 4.5-13.8-11.7-8.6h14.5l4.5-13.8Zm-160 437 4.5 13.8H191l-11.7 8.6 4.5 13.8L172 482l-11.8 8.6 4.5-13.8-11.7-8.6h14.5l4.5-13.8Zm80 0 4.5 13.8H271l-11.7 8.6 4.5 13.8L252 482l-11.8 8.6 4.5-13.8-11.7-8.6h14.5l4.5-13.8Zm80 0 4.5 13.8H351l-11.7 8.6 4.5 13.8L332 482l-11.8 8.6 4.5-13.8-11.7-8.6h14.5l4.5-13.8Z"/></svg>