<svg xmlns="http://www.w3.org/2000/svg" viewBox="0 0 512 512"><circle cx="256" cy="256" r="256" fill="#eee"/><g fill="#6da544"><path d="M435.138 73.144C388.965 27.904 325.747 0 256 0c-22.261 0-87.394 27.904-133.565 73.144h312.703zM256 219.429h253.388a254.196 254.196 0 0 0-22.038-73.143H244.87L256 219.429zM24.651 365.715h462.698a254.164 254.164 0 0 0 22.039-73.144H2.612a254.145 254.145 0 0 0 22.039 73.144zM76.862 438.856C123.035 484.096 186.253 512 256 512s132.965-27.904 179.138-73.144H76.862z"/></g><path d="M256 0C127.034 0 20.36 95.371 2.612 219.429H256V0z" fill="#d80027"/><g fill="#eee"><path d="M128 196.267l-11.13-22.26v-44.522l27.826-22.261 27.826 22.261v33.391l11.13-11.13v22.261l-22.261 22.26zM68.135 128l2.947 9.07h9.536l-7.715 5.607 2.948 9.069-7.716-5.606-7.716 5.606 2.948-9.069-7.715-5.607h9.536zM90.396 105.739l2.947 9.07h9.537l-7.716 5.607 2.947 9.069-7.715-5.605-7.715 5.605 2.948-9.069-7.716-5.607h9.535zM112.657 83.478l2.947 9.07h9.535l-7.714 5.607 2.946 9.069-7.714-5.605-7.716 5.605 2.947-9.069-7.714-5.607h9.535zM221.256 128l-2.947 9.07h-9.535l7.714 5.607-2.947 9.069 7.715-5.606 7.716 5.606-2.947-9.069 7.714-5.607h-9.535zM198.995 105.739l-2.947 9.07h-9.535l7.714 5.607-2.947 9.069 7.715-5.605 7.716 5.605-2.948-9.069 7.715-5.607h-9.535zM176.735 83.478l-2.948 9.07h-9.535l7.714 5.607-2.947 9.069 7.716-5.605 7.715 5.605-2.947-9.069 7.714-5.607h-9.535zM144.696 72.348l-2.948 9.07h-9.535l7.714 5.606-2.947 9.069 7.716-5.605 7.715 5.605-2.947-9.069 7.714-5.606h-9.535z"/></g></svg>