<svg xmlns="http://www.w3.org/2000/svg" width="512" height="512" fill="none"><g clip-path="url(#a)"><circle cx="256" cy="256" r="256" fill="#6DA544"/><path fill="#EEE" fill-rule="evenodd" d="M509.4 292.6a258.3 258.3 0 0 0 0-73.2H2.6a258.2 258.2 0 0 0 0 73.2h506.8Zm-22 73.1H24.6c13 27.4 30.8 52.1 52.2 73.1h358.4c21.4-21 39.2-45.7 52.2-73.1ZM24.6 146.3h462.8A256.7 256.7 0 0 0 435.2 73H76.8a256.7 256.7 0 0 0-52.2 73.2Z" clip-rule="evenodd"/><path fill="#D80027" fill-rule="evenodd" d="M2.6 219.4A256 256 0 0 1 256 0v219.4H2.6Z" clip-rule="evenodd"/><path fill="#EEE" d="m128.6 187.7-11.1-22.3v-44.5l27.8-22.3 27.8 22.3v33.4l11.2-11.2v22.3L162 187.7h-33.4Zm-59.9-68.3 3 9h9.5l-7.7 5.7 3 9-7.8-5.6-7.7 5.6 3-9-7.7-5.6h9.5l2.9-9.1ZM91 97.1l3 9.1h9.5l-7.7 5.6 3 9-7.8-5.5-7.7 5.6 3-9-7.8-5.7H88l3-9.1Zm22.3-22.2 2.9 9h9.5l-7.7 5.7 3 9-7.7-5.6-7.8 5.6 3-9-7.7-5.7h9.5l3-9Zm108.6 44.5-3 9h-9.5l7.7 5.7-3 9 7.8-5.6 7.7 5.6-3-9 7.7-5.6h-9.5l-2.9-9.1Zm-22.3-22.3-3 9.1h-9.5l7.7 5.6-3 9 7.8-5.5 7.7 5.6-3-9 7.8-5.7h-9.6l-2.9-9.1Zm-22.3-22.2-3 9h-9.4l7.7 5.7-3 9 7.7-5.6 7.8 5.6-3-9 7.7-5.7h-9.5l-3-9Zm-32-11.2-3 9.1h-9.5l7.8 5.6-3 9 7.8-5.5 7.7 5.6-3-9 7.8-5.7h-9.6l-3-9.1Z"/></g><defs><clipPath id="a"><path fill="#fff" d="M0 0h512v512H0z"/></clipPath></defs></svg>