<svg xmlns="http://www.w3.org/2000/svg" viewBox="0 0 512 512"><circle cx="256" cy="256" r="256" fill="#eee"/><g fill="#d80027"><path d="M509.833 222.609H289.392V2.167C278.461.744 267.317 0 256 0s-22.461.744-33.391 2.167v220.441H2.167A258.556 258.556 0 0 0 0 256c0 11.319.744 22.461 2.167 33.391h220.441v220.442a258.35 258.35 0 0 0 66.783 0V289.392h220.442A258.533 258.533 0 0 0 512 256c0-11.317-.744-22.461-2.167-33.391z"/><path d="M155.826 122.435V89.043h-33.391v33.392H89.043v33.391h33.392v33.391h33.391v-33.391h33.391v-33.391zM389.565 122.435V89.043h-33.391v33.392h-33.391v33.391h33.391v33.391h33.391v-33.391h33.392v-33.391zM155.826 356.174v-33.391h-33.391v33.391H89.043v33.391h33.392v33.392h33.391v-33.392h33.391v-33.391zM389.565 356.174v-33.391h-33.391v33.391h-33.391v33.391h33.391v33.392h33.391v-33.392h33.392v-33.391z"/></g></svg>