<svg xmlns="http://www.w3.org/2000/svg" width="512" height="512" fill="none"><g clip-path="url(#a)"><g clip-path="url(#b)"><path fill="#FFDA44" d="M437 437 288 224 75 75a256 256 0 0 0 178.2 437h5.7A255.2 255.2 0 0 0 437 437Z"/><path fill="#6DA544" d="M437 437 75 75a256 256 0 0 1 437 181c0 70.7-28.7 134.7-75 181Z"/></g><path fill="#D80027" d="M256 71.4 297.4 199h134.1l-108.4 78.8 41.4 127.5L256 326.5l-108.5 78.8L189 277.8 80.5 199h134L256 71.4Z"/></g><defs><clipPath id="a"><path fill="#fff" d="M0 0h512v512H0z"/></clipPath><clipPath id="b"><path fill="#fff" d="M512 0v512H0V0z"/></clipPath></defs></svg>