<svg xmlns="http://www.w3.org/2000/svg" width="512" height="512" fill="none"><path fill="#0052B4" d="M482.2 376c19-35.8 29.8-76.6 29.8-120 0-43.4-10.8-84.2-29.8-120H29.8A254.9 254.9 0 0 0 0 256c0 43.4 10.8 84.2 29.8 120h452.4Z"/><path fill="#496E2D" d="M496.5 344a256.1 256.1 0 0 1-481 0h481Z"/><path fill="#A2001D" d="M496.5 168h-481a256.1 256.1 0 0 1 481 0Z"/><path fill="#EEE" fill-rule="evenodd" d="M493.4 160c4.2 10.3 7.7 21 10.5 32H8.1a254 254 0 0 1 10.5-32h474.8Zm0 192c4.2-10.3 7.7-21 10.5-32H8.1a254 254 0 0 0 10.5 32h474.8Z" clip-rule="evenodd"/></svg>