<svg xmlns="http://www.w3.org/2000/svg" width="512" height="512" fill="none"><g clip-path="url(#a)"><path fill="#333" d="M482.2 376c19-35.8 29.8-76.6 29.8-120 0-43.4-10.8-84.2-29.8-120H29.8A254.9 254.9 0 0 0 0 256c0 43.4 10.8 84.2 29.8 120h452.4Z"/><path fill="#333" d="M496.5 344a256.1 256.1 0 0 1-481 0h481Z"/><path fill="#0052B4" d="M496.5 168h-481a256.1 256.1 0 0 1 481 0Z"/><path fill="#6DA544" d="M94 228a8 8 0 0 0-2 0 8 8 0 0 0-5 4 8 8 0 0 0-1 6l7 25-39-23a8 8 0 0 0-12 6 8 8 0 0 0 4 8l39 23-25 6a8 8 0 0 0-5 4 8 8 0 0 0 .3 9 8 8 0 0 0 8.7 3l41-11 8 5-26 6a8 8 0 0 0-4 4 8 8 0 0 0 .3 9 8 8 0 0 0 8.7 3l40-11 8 5-25 6a8 8 0 0 0-4 4 8 8 0 0 0 .3 9 8 8 0 0 0 8.7 3l40-11 25 14a8 8 0 0 0 11-3 8 8 0 0 0-3-10l-25-15-11-40a8 8 0 0 0-10-6 8 8 0 0 0-5 4 8 8 0 0 0 0 6l6 25-8-5-11-40a8 8 0 0 0-9-6 8 8 0 0 0-5 4 8 8 0 0 0-1 6l7 25-8-5-11-40a8 8 0 0 0-8-6Zm180 96 122 107c17-13 32-30 44-48l-166-59Z"/><path fill="#FFDA44" d="m256 480-21-29-31 19-8-35-36 5 6-35-36-9 19-31-29-21 29-21-19-31 36-8-6-36 36 6 8-36 31 19 21-29 21 29 31-19 8 36 36-6-6 36 36 8-19 31 29 21-29 21 19 31-36 8 6 36-36-5-8 35-31-19-21 29Zm43.5-389.4c.4 1.4-1 2.8-2.5 2.3-8.4-3-18.5.4-22.6 8.6a7 7 0 0 1 6.5 6.8 7 7 0 0 1-6.4 7c2.6 5 8 8 13.6 8.2 1.6 0 2.3 2.2 1.2 3.2-6.4 5.9-16.2 8.2-23.2 2-.2 4.8-3.9 17.3-10.1 17.3-6.2 0-9.9-12.5-10.1-17.2-7 6-16.8 3.8-23.2-2-1.2-1.2-.4-3.3 1.2-3.3 5.5-.2 11-3.3 13.6-8.2a7 7 0 0 1-6.4-7 7 7 0 0 1 6.5-6.8 18.5 18.5 0 0 0-22.6-8.6c-1.4.5-2.9-.9-2.5-2.3 4.3-15 20.1-18.2 30.8-7.2-2.3-12.7-2-31.5 12-37.3h1.4c14 5.7 14.3 24.6 12 37.3 10.7-11 26.5-7.9 30.8 7.2Zm122.1 0c.4 1.4-1 2.8-2.5 2.3-8.3-3-18.5.4-22.6 8.6a7 7 0 0 1 6.6 6.8 7 7 0 0 1-6.5 7c2.7 5 8.1 8 13.6 8.2 1.7 0 2.4 2.2 1.2 3.2-6.4 5.9-16.2 8.2-23.1 2-.2 4.8-4 17.3-10.2 17.3-6.2 0-9.9-12.5-10-17.2-7 6-16.8 3.8-23.2-2-1.2-1.2-.4-3.3 1.2-3.3 5.5-.2 11-3.3 13.6-8.2a7 7 0 0 1-6.5-7 7 7 0 0 1 6.6-6.8 18.5 18.5 0 0 0-22.6-8.6c-1.5.5-3-.9-2.5-2.3 4.3-15 20-18.2 30.8-7.2-2.4-12.7-2-31.5 12-37.3h1.4c14 5.7 14.3 24.6 12 37.3 10.6-11 26.4-7.9 30.7 7.2Zm-244.3 0c.4 1.4-1 2.8-2.5 2.3-8.4-3-18.5.4-22.6 8.6a7 7 0 0 1 6.6 6.8 7 7 0 0 1-6.5 7c2.7 5 8.1 8 13.6 8.2 1.7 0 2.4 2.2 1.2 3.2-6.4 5.9-16.2 8.2-23.1 2-.3 4.8-4 17.3-10.2 17.3-6.2 0-9.9-12.5-10-17.2-7 6-16.8 3.8-23.2-2-1.2-1.2-.4-3.3 1.1-3.3 5.6-.2 11-3.3 13.7-8.2a7 7 0 0 1-6.5-7 7 7 0 0 1 6.6-6.8 18.5 18.5 0 0 0-22.7-8.6c-1.4.5-2.8-.9-2.4-2.3 4.3-15 20-18.2 30.8-7.2-2.4-12.7-2-31.5 12-37.3h1.4c14 5.7 14.3 24.6 12 37.3 10.6-11 26.4-7.9 30.7 7.2Z"/></g><defs><clipPath id="a"><path fill="#fff" d="M0 0h512v512H0z"/></clipPath></defs></svg>