<svg xmlns="http://www.w3.org/2000/svg" viewBox="0 0 512 512"><mask id="a"><circle cx="256" cy="256" r="256" fill="#fff"/></mask><g mask="url(#a)"><path fill="#333" d="M0 176h512v336H0z"/><path fill="#0052b4" d="M0 0h512v176H0z"/><path fill="#ffda44" d="M78 25c-9 14-10 25-4 45l7 30 2 14h9l2-14 6-30c6-19 6-31-3-45-4-5-8-9-10-9s-6 4-9 9zm42 40c-12 5-20 20-24 40l-1 9h6l3-9c5-15 19-21 18-7 0 4-2 7-4 9l12-5c22-14 13-47-10-37zm-50 54h35v-3H70v3zm3 11c-3 4-9 7-9 7h9c5 0 8 0 10-2l-1 11 3 12c2 3 4 3 5 0 2-3 3-7 3-12l-1-11c3 2 5 2 10 3h9l-9-8-5-8H78c-2 5-2 6-5 8zM55 65c12 5 20 20 24 40l1 9h-6l-2-9c-5-15-20-21-19-7 0 4 2 6 4 9l-12-5C23 88 32 55 55 65z"/><path fill="#6da544" d="M448 464l32-64-176-48-16 16z"/><path fill="#ffda44" d="M246 25c-8 14-9 25-4 45l8 30 1 14h10l1-14 7-30c5-19 5-31-4-45-3-5-8-9-10-9-1 0-6 4-9 9zm42 40c-12 5-19 20-23 40l-1 9h6l2-9c5-15 19-21 19-7-1 4-2 7-4 9l11-5c23-14 14-47-10-37zm-49 54h35v-3h-35v3zm3 11l-10 7h10c5 0 7 0 10-2l-1 11c1 7 1 9 3 12s3 3 5 0l3-12-2-11 10 3h9l-9-8-4-8h-19l-5 8zm-18-65c12 5 19 20 23 40l1 9h-6l-2-9c-5-15-19-21-19-7l4 9-11-6c-22-13-14-46 10-36zm191-40c-9 14-10 25-4 45l7 30 2 14h9l2-14 6-30c6-19 5-31-3-45-4-5-8-9-10-9s-6 4-9 9zm42 40c-12 5-20 20-24 40l-1 9h6l2-9c5-15 20-21 19-7 0 4-2 7-4 9l12-5c22-14 13-47-10-37zm-50 54h35v-3h-35v3zm3 11c-3 4-9 7-9 7h9c5 0 8 0 10-2l-1 11 3 12c2 3 4 3 5 0 2-3 3-7 3-12l-1-11c3 2 5 2 10 3h9s-7-4-9-8l-5-8h-19c-2 5-2 6-5 8zm-18-65c12 5 20 20 24 40l1 9h-6l-3-9c-4-15-19-21-18-7 0 4 2 6 4 9l-12-6c-22-13-13-46 10-36z"/><path fill="none" stroke="#6da544" stroke-linecap="round" stroke-width="16" d="M169 305L38 273m115 28l-57 19m64 0l-32-64m40 63l-72-63m0 32l-32-32m32 32l-32 32"/><path fill="#ffda44" d="M256 480l-21-29-31 19-8-35-36 5 6-35-36-9 19-31-29-21 29-21-19-31 36-8-6-36 36 6 8-36 31 19 21-29 21 29 31-19 8 36 36-6-6 36 36 8-19 31 29 21-29 21 19 31-36 8 6 36-36-5-8 35-31-19z"/></g></svg>