<svg xmlns="http://www.w3.org/2000/svg" data-name="Capa 1" viewBox="0 0 100 100"><mask id="a"><circle cx="50" cy="50" r="50" fill="#fff"/></mask><g mask="url(#a)"><rect width="100" height="37" fill="#211e88"/><rect width="100" height="63" y="37" fill="#ff1d25"/><path fill="#fcdb22" d="M47.6 15.5c-.5-2-1-3.8-.5-5.8a8.7 8.7 0 0 1 1.8-3.6c.8-1 1.1-1 2 0a7.9 7.9 0 0 1 1.7 7.8 54.3 54.3 0 0 0-1.8 9.3h-1.6a27 27 0 0 0-1.1-5.8 7 7 0 0 0-.5-1.8zm-6-1.4c2-.4 3.4.6 4.6 2a15.8 15.8 0 0 1 2.3 6.2c0 .3.3.8-.3.9s-.8-.2-.9-.7a6.5 6.5 0 0 0-.9-2.2c-.7-1.2-1.7-1.7-2.3-1.4s-.7 1.4-.2 2.7A5 5 0 0 1 40 18a3.3 3.3 0 0 1 1.6-4zm10.9 9.1c-.8 0-1.1 0-1-1a15.8 15.8 0 0 1 2.2-5.9 5.1 5.1 0 0 1 2.7-2 2.7 2.7 0 0 1 3.7 2.4 4.8 4.8 0 0 1-1 3l-.3.5-1 .8c-.5.2-1 .6-1.8.7a2.5 2.5 0 0 0 .5-1.8c-.2-1-.8-1.3-1.7-.8a4.4 4.4 0 0 0-1.8 2.4l-.5 1.7zm-1.7 4a6.3 6.3 0 0 1-.2 3.7c-.1.3-.2.7-.5.7s-.5-.4-.6-.7a9.3 9.3 0 0 1-.3-3.7 8 8 0 0 1-3.2.2 5.5 5.5 0 0 0 2.2-2.3.6.6 0 0 1 .6-.4 7.1 7.1 0 0 0 1.2 0c1 0 2 0 2.4 1.4.2.6 1 1 1.7 1.5a11.1 11.1 0 0 1-3.3-.5zM53 24h-6v-.2h6.2zm28.1-8.6c-.4-2-1-3.8-.5-5.8A8.7 8.7 0 0 1 82.4 6c.8-1 1.2-1 2 0a7.9 7.9 0 0 1 1.8 7.8 54.3 54.3 0 0 0-1.8 9.3h-1.6a27 27 0 0 0-1-5.8 7.5 7.5 0 0 0-.6-1.8zm-6-1.4c2-.4 3.5.6 4.7 2a15.8 15.8 0 0 1 2.2 6.2c0 .3.3.8-.3.9s-.8-.2-.9-.7a6.5 6.5 0 0 0-.9-2.2c-.7-1.1-1.7-1.7-2.3-1.3s-.7 1.3-.2 2.6a5 5 0 0 1-3.9-3.6 3.3 3.3 0 0 1 1.6-4zM86 23.1c-.8 0-1.1 0-1-1a16 16 0 0 1 2.2-5.9 5.2 5.2 0 0 1 2.7-2.1 2.7 2.7 0 0 1 3.7 2.5 4.8 4.8 0 0 1-1 3l-.2.5-1 .8c-.6.2-1 .6-1.9.7a2.5 2.5 0 0 0 .4-1.8c-.1-1-.8-1.3-1.6-.8a4.4 4.4 0 0 0-1.8 2.4l-.5 1.7zm-1.7 4a6.3 6.3 0 0 1-.2 3.7c0 .3-.1.7-.5.7s-.5-.4-.6-.7a9.3 9.3 0 0 1-.3-3.7 8 8 0 0 1-3.1.2 5.5 5.5 0 0 0 2-2.3.6.6 0 0 1 .7-.4 7.1 7.1 0 0 0 1.2 0c1.1 0 2 0 2.4 1.4.2.6 1 1 1.7 1.5a11 11 0 0 1-3.3-.5zm2.3-3.1h-6.2v-.2h6.2zM14 15.5c-.4-2-1-3.8-.5-5.8a8.7 8.7 0 0 1 1.8-3.6c.8-1 1.2-1 2 0a7.9 7.9 0 0 1 1.7 7.8 55.3 55.3 0 0 0-1.8 9.3h-1.6a27.6 27.6 0 0 0-1-5.9 7 7 0 0 0-.6-1.8zM8 14c2-.4 3.4.6 4.6 2a16 16 0 0 1 2.3 6.2c0 .3.3.8-.3.9s-.8-.2-.9-.7a6.5 6.5 0 0 0-1-2.2c-.6-1.2-1.6-1.7-2.2-1.4s-.7 1.4-.2 2.7A5 5 0 0 1 6.4 18 3.3 3.3 0 0 1 8 14zm10.9 9.1c-.8 0-1.1 0-1-1a16 16 0 0 1 2.2-5.9 5.2 5.2 0 0 1 2.7-2 2.7 2.7 0 0 1 3.7 2.4 4.9 4.9 0 0 1-1 3l-.3.5-1 .8c-.6.2-1 .6-1.8.7a2.5 2.5 0 0 0 .4-1.8c-.1-1-.7-1.3-1.6-.8a4.4 4.4 0 0 0-1.8 2.4l-.5 1.7zm-1.7 4a6.3 6.3 0 0 1-.2 3.7c-.1.3-.2.7-.5.7s-.5-.4-.6-.7a9.3 9.3 0 0 1-.3-3.7 8 8 0 0 1-3.2.2 5.5 5.5 0 0 0 2.1-2.3.6.6 0 0 1 .7-.4 7.1 7.1 0 0 0 1.1 0c1.2 0 2 0 2.5 1.4.2.6.9 1 1.7 1.5a11.1 11.1 0 0 1-3.3-.5zm2.3-3.1h-6.2v-.2h6.2zm51.6 54.2a3.5 3.5 0 0 0 .7 1c0 .3.2.5.3.7-.5 0-.8-.4-1.1-.6a3.4 3.4 0 0 0-2.7-1.2 2.3 2.3 0 0 0-1.4.1 1.8 1.8 0 0 0-.9.2 1.2 1.2 0 0 0-1 .3c2.1 1.2 3.7 2.7 4 5.2-1.5-2.4-3.7-2.8-6.5-2.6 2 1.7 3.1 3.6 3 6.1-1-2.7-3.1-3.6-6-4a8 8 0 0 1 2 5.4l-.1.9-.1.2c-.3.3-.2 0-.2-.1a5 5 0 0 0-1.4-3 9.3 9.3 0 0 0-3.2-1.8c1 4.5 1 5 0 6.8.2-3-1.4-4.7-3.7-6a12.7 12.7 0 0 1 .2 3.3 5.3 5.3 0 0 1-1.3 3c.6-2.6-.6-4.5-2.5-6.3-.1 2.4-.5 4.5-2.3 6l-.2-.1c1.2-2.4.4-4.5-1-6.6-.6 2.3-1.3 4.2-3.5 5.2 1.5-2.1 1-4.2.2-6.5-.4.2-.4.6-.6.9a7.1 7.1 0 0 1-3.3 3.3 1.4 1.4 0 0 1-1.1.2c2.3-1.6 2.5-3.9 2-6.6-1.5 2-3.2 3.4-5.7 3.5 2.5-1.3 3.2-3.4 3.2-6.2-1.9 1.7-3.8 2.7-6.6 2.2 3-.7 4.2-2.6 4.7-5.3-2.1 1.3-4.3 1.8-6.6.9 2.8 0 4.4-1.9 5.5-4.4-2.3.8-4.5 1-6.6-.4 2.8.4 4.6-1 6.1-3h-2.6l-.7-.2-1.7-.8-.5-.3-1-.9c1.8.6 3.3.8 4.8-.1l1.7-1.1.3-.3-.3-.2a10.3 10.3 0 0 1-3.4-1l-.7-.5-1.1-1-.3-.5a6 6 0 0 0 4.7.6 2.5 2.5 0 0 0 1.2-.4l.4-.2c.3-.1.5 0 .7-.4a8.8 8.8 0 0 1-3.4-1.8c-.2-.1-.4-.5-.7-.5 0-.4-.3-.6-.5-.9-.2-.4-.7-.7-.6-1.3h.1l.7.6A3.8 3.8 0 0 0 33 59h2l.4-.1 1-.2c.1 0 .3 0 .2-.2a.4.4 0 0 0-.6-.2c-.1-.5-.6-.5-1-.8a6.7 6.7 0 0 1-2.2-4.3c1.4 2.5 3.7 2.9 6.4 2.6-1.9-1.7-3-3.6-2.9-6.2 1 2.8 3 3.8 5.8 4-1.4-2-2.2-4-1.5-6.5.3 2.8 2.2 4.2 4.8 5-1-2.2-1.3-4.3-.2-6.5-.1 2.8 1.5 4.4 3.8 5.8-.6-2.5-.4-4.7 1.2-6.7-.8 2.7.4 4.7 2.4 6.6 0-2.3.5-4.3 2.3-5.8-1 2.4-.2 4.5 1.3 6.5.5-2.4 1.4-4.3 3.6-5.4-1.7 2.2-1.4 4.4-.4 6.8 3-4.4 3-4.4 4.8-4.4-2.1 1.8-2.3 4-1.7 6.6a7.3 7.3 0 0 1 6-3.6c-2.9 1.2-3.6 3.4-3.6 6.2 1.8-1.6 3.7-2.6 6.2-2.2-2.7.7-3.8 2.7-4.4 5.4 2-1.2 4-1.8 6.2-1-2.6.4-4 2-5 4.4 2.4-.8 4.7-.9 6.8.6-2.9-.7-4.7.8-6.4 3a10.6 10.6 0 0 1 3.4.1 5.2 5.2 0 0 1 2.8 1.7c-2.6-1-4.6 0-6.6 1.8a7.7 7.7 0 0 1 5.6 2.6l.4.6a1.6 1.6 0 0 1-1-.4 3.8 3.8 0 0 0-2.4-.6c-.5.1-1 0-1.3.3l-.8.2-.6.4c-.3 0-.6 0-.6.3s.3.4.5.4a5 5 0 0 1 1.4.6l1.1.8z"/><path fill="#247718" d="M29.7 57.2c-.1.6.4 1 .6 1.4.2.3.5.4.5.8a25.7 25.7 0 0 1-3.1-1 .4.4 0 0 0-.5 0l.3.2 1.8 1a1 1 0 0 0 1.5-.2c.3 0 .5.3.7.5l-.7.4c.2.3.6.4 1 .6a10.1 10.1 0 0 1 2.4 1.1l-.4.2c-1.3-.3-2.5-1.1-4-1.6a10.6 10.6 0 0 0 2.9 2.1 6 6 0 0 1-4.8-.7l.3.5c-1.2 0-1.7.9-2.4 2a32 32 0 0 1 3.6-.9l.7.5-4 .8c-.5.1-.8.2-.6.9a4.5 4.5 0 0 1 3.3-.5 8.4 8.4 0 0 0 4.1.2h.5l-1.7 1.2a2.7 2.7 0 0 0-1.8.3 1.2 1.2 0 0 1-1.3 0c.2-.4.7-.4 1-.7-1.7-1-4-.4-4.3 1.3-.1-.8-.6-.5-1-.5l.3-.4a1 1 0 0 0 .2-1.3c-.2-.4-.7 0-1 0a2.9 2.9 0 0 0-2.4 3.2c-.9-1.4-.6-2.4.8-3a2 2 0 0 1 .6-.3 4.2 4.2 0 0 0 3.3-2.8 1.4 1.4 0 0 0-1.4 0 13.4 13.4 0 0 1-3 1 7.8 7.8 0 0 0-3 1.3c.3-.8.6-1 2.6-1.8a32 32 0 0 1 3.2-1c-2.5-1.2-5.8-.5-7 1.8a2.8 2.8 0 0 1 .3-1.6c.1-.5 0-.7-.6-.7a9.4 9.4 0 0 0-3.2 1.3 1.7 1.7 0 0 1 1.3-1.2 14.3 14.3 0 0 1 4.6-.6h1.5a8.6 8.6 0 0 0-6.7-1.8 1.8 1.8 0 0 0-1.6 1.5c-.3-.9.2-1.3 1-1.6.8-.3 1.8-.3 3-.6C16 58 15.2 57 13.8 57c.9-.7 1.8-.5 2.6-1-1.2-.9-2.5-.3-3.8-.4-1.5 0-2 1.3-3 2.2 0-2 1-2.7 3.4-2.8a6.7 6.7 0 0 0-2-.6l-1.9-.6c1.8 0 3.4.6 5.3 1a21.7 21.7 0 0 0-5-3c1-.2 1.7.5 2.7.4a18.7 18.7 0 0 0-3.6-3c.4-.2.7 0 1 .2a27.6 27.6 0 0 1 6.3 4.8 7.3 7.3 0 0 0 4.5 2c-1.7-1.1-3.3-2-4.8-3.2a11.1 11.1 0 0 1-3.3-4.5L14 50c2 1.8 4 3.5 5.7 5.4a5.8 5.8 0 0 0 3.1 1.9c2.1.5 3.6 2.1 5.4 3.1.3.2.7.6 1.1 0a10.1 10.1 0 0 1-1.9-1.2 9.7 9.7 0 0 0-4.3-2.4 5.1 5.1 0 0 1-2.1-1.5 48.8 48.8 0 0 1-6.2-6.8 7.2 7.2 0 0 1-.8-1.6c1.7 2 3 4.1 5 5.7-.8-1.6-2-3-2.4-5 2.4 3 4.5 6.3 7.4 8.9-1.4-2.6-4-4.4-4.4-7.6.3 0 .3.3.5.5a45.6 45.6 0 0 0 5.3 7.3l.3.3c.2.1.3.3.6.1s0-.4-.1-.5a21.5 21.5 0 0 1-1.8-2.5 1.2 1.2 0 0 1-.4-1 25.8 25.8 0 0 1 2.3 3c.7 1 .6 1 2 1a14 14 0 0 1-3.1-4.7 19.6 19.6 0 0 1 3.2 4 2 2 0 0 0 1.2 1zm-6.5 1.1-.2-.1c-.1 0 0 0 0 0h.2a3.4 3.4 0 0 0 1.9 1.2 2.7 2.7 0 0 0-2-1zm-4-.9a4.9 4.9 0 0 0 2.9 1.3c-1.4-1.7-1.5-1.8-2.8-1.3zm6.5 3.6c-.7-.4-1.4-1.1-2.6-.9 1 .4 1.6 1.1 2.6.9zM17 57.9c.6.5 1.2.8 2 .4-.6-.9-1.2-.8-2-.5zm-1-.8c.4.9 1 .2 1.4 0 .2 0 .3-.2.1-.3-.4-.4-.7 0-1.1.1a2.3 2.3 0 0 0-.4.2zm3.8 2.4c.5.2.9.6 1.5.5-.4-.6-1-.6-1.4-.5zm8.3-1.7a1.8 1.8 0 0 0 1.1.3.9.9 0 0 0-1.1-.3zm38 20.7a1.8 1.8 0 0 1 .9-.2c5.8 3.2 11.8 6 17.8 8.7a5.1 5.1 0 0 1 .7.3c.2.1.6.1.4.6s-.5.4-.9.2l-1.4-.7-5.5-2.7L66.8 79c-.3-.1-.6-.2-.8-.5zM35 59h-2a5.4 5.4 0 0 1-1.1-.7 1.5 1.5 0 0 0-1.5-.6l-.6-.6c.4-.3 0-.4-.1-.6a12.2 12.2 0 0 1-2.3-4.4c1.4 1.4 2.6 3 3.9 4.4a1.5 1.5 0 0 0 1.5.6 18.8 18.8 0 0 1-2.3-4 7.9 7.9 0 0 1-.7-2c0-.2 0-.4.2-.5s.3.2.4.4a16.9 16.9 0 0 0 2.5 5.2 2.3 2.3 0 0 0 2.1 1.3c-.2.8.6.6 1 .8l.3.4-1 .2a3.6 3.6 0 0 0-2.3-1c.3.3.7.3 1 .5s.9 0 1 .6zm38.9 16.3-.5-.6 7.6 1.8 9.6 2c.3 0 .7 0 .8.3-.1.7-.6.7-1.1.6L84.7 78 80 76.8c-2-.5-4.1-.8-6.1-1.5zm-46-7.6.5.3a7.2 7.2 0 0 0-1.4 3.2c-.1-1.3-.3-2.6.9-3.5zm2.3 1 .6.2-1.8 2.4a4 4 0 0 1 1.1-2.6zm-2.7-16.5h-.1zM69 76.5a5 5 0 0 0-1.4-.6c-.3 0-.5-.2-.5-.4s.3-.3.5-.4l4.5 1.6q7 2.5 14.1 4.4l.6.2.4.1a11 11 0 0 1 1.3.5c.2.1.7 0 .5.6s-.5.4-.9.2l-3.7-1.2-14.2-4.8a1.9 1.9 0 0 0-1.2-.2zm-.8-1.7.8-.2 4.4 1.3c3.6 1 7.1 2 10.8 2.8l5.4 1.4c.3 0 .8 0 .7.6s-.5.4-.9.3l-2.2-.5-.4-.1-.4-.1-16-4.6a5.4 5.4 0 0 1-2.2-.9zm2.8 3.5-1-1a12.3 12.3 0 0 1 2.8 1c4.7 1.9 9.6 3.6 14.4 5.3.3.1.9 0 .7.6s-.6.4-1 .3L72 78.6l-1-.3zm1 1.7c-.1-.2-.3-.4-.3-.7l11.6 4.8 3.1 1.2c.3.1.8.1.6.7s-.6.3-1 .2L79 83l-7-3zm-3.8-1.8a3.4 3.4 0 0 1 2.7 1.2 5.5 5.5 0 0 1-2.7-1.2zm4.5-3.3a3.4 3.4 0 0 1-2.4-.6 3.8 3.8 0 0 1 2.4.6z"/></g></svg>