<svg xmlns="http://www.w3.org/2000/svg" width="512" height="512" fill="none"><path fill="#EEE" d="M482.2 376c19-35.8 29.8-76.6 29.8-120 0-43.4-10.8-84.2-29.8-120H29.8A254.9 254.9 0 0 0 0 256c0 43.4 10.8 84.2 29.8 120h452.4Z"/><path fill="#D80027" d="M496.5 344a256.1 256.1 0 0 1-481 0h481Z"/><path fill="#6DA544" d="M496.5 168h-481a256.1 256.1 0 0 1 481 0Z"/><path fill="#0052B4" d="M0 245.6A255.2 255.2 0 0 1 74.9 74.9L256 256 74.9 437.1A255.2 255.2 0 0 1 0 266.4v-20.8Z"/><path fill="#BDBCC1" d="M300.5 211.5V267c0 34.1 44.5 44.6 44.5 44.6s44.6-10.5 44.6-44.6v-55.6h-89Z"/><path fill="#85693D" d="M334 257.1h22.2v32.3h-22.3V257Z"/><path fill="#6DA544" d="M367.3 244.9a22.3 22.3 0 1 0-44.5 0 11.1 11.1 0 1 0 0 22.2h44.5a11.1 11.1 0 1 0 0-22.2Z"/></svg>