<svg xmlns="http://www.w3.org/2000/svg" width="512" height="512" fill="none"><circle cx="256" cy="256" r="256" fill="#338AF3"/><path fill="#EEE" fill-rule="evenodd" d="M504 192c5.2 20.5 8 41.9 8 64H0c0-22.1 2.8-43.5 8-64h496ZM425.2 64c20.8 18.3 38.5 40 52.5 64H34.2c14-24 31.7-45.7 52.5-64h338.6Zm52.5 320a254.4 254.4 0 0 0 26.1-64H8.1a254.4 254.4 0 0 0 26.1 64h443.6Zm-52.5 64H86.7A255 255 0 0 0 256 512a255 255 0 0 0 169.3-64Z" clip-rule="evenodd"/><path fill="#338AF3" fill-rule="evenodd" d="M8 320A256 256 0 0 1 320 8v312H8Z" clip-rule="evenodd"/><path fill="#EEE" fill-rule="evenodd" d="M128 34.2a254.4 254.4 0 0 1 64-26.1V128h128v64H192v128h-64V192H8a254.4 254.4 0 0 1 26.2-64H128V34.2Z" clip-rule="evenodd"/></svg>