<svg xmlns="http://www.w3.org/2000/svg" viewBox="0 0 512 512"><circle cx="256" cy="256" r="256" fill="#f0f0f0"/><g fill="#338af3"><path d="M256 189.217h247.181a254.559 254.559 0 0 0-28.755-66.783H256v66.783zM96.643 456.348h318.713a257.293 257.293 0 0 0 59.069-66.783H37.574a257.346 257.346 0 0 0 59.069 66.783zM89.043 61.939a257.254 257.254 0 0 0-51.469 60.496h51.469V61.939z"/><path d="M256 256v-66.783H155.826V256H89.043v-66.783H8.819C3.08 210.511 0 232.893 0 256s3.08 45.489 8.819 66.783h494.363C508.92 301.489 512 279.107 512 256H256zM256 0c-35.549 0-69.404 7.253-100.174 20.348v102.087H256V55.652h159.357C371.626 20.824 316.249 0 256 0z"/></g></svg>