<svg xmlns="http://www.w3.org/2000/svg" viewBox="0 0 100 100"><mask id="a"><circle cx="50" cy="50" r="50" fill="#fff"/></mask><g mask="url(#a)"><rect width="100" height="100" fill="#00247D"/><polygon fill="#FFFFFF" points="4.6,45.9 0.5,45.9 0.5,45.9 7.4,45.9 7.4,33 26.8,45.9 35,45.9 35,45.9 11.8,30.6 17.3,30.6 35,42.3 
	35,40.6 19.9,30.6 35,30.6 35,27.6 4.6,27.6 "/><path fill="#FFFFFF" d="m19.9 15.4 15-10V0h-8L7.4 13V0H4.6v18.4H35v-3H19.9zm-12.5 0v-.5L29.8 0H35L12.1 15.3l-4.7.1z"/><rect width="0" height="9.2" x="35" y="18.4" fill="#CE1124"/><polygon fill="#CE1124" points="4.6,0 0.5,0 0.5,45.9 4.6,45.9 4.6,27.6 35,27.6 35,18.4 4.6,18.4 "/><polygon fill="#CE1124" points="35,45.9 35,42.3 35,42.3 35,45.9 "/><polygon fill="#CE1124" points="11.8,30.6 35,45.9 35,42.3 17.3,30.6 "/><polygon fill="#00247D" points="35,15.4 35,5.3 35,5.4 35,15.4 "/><polygon fill="#00247D" points="35,15.4 35,5.4 19.9,15.4 "/><polygon fill="#00247D" points="26.7,0 7.4,0 7.4,0 26.8,0 "/><polygon fill="#00247D" points="26.9,0 26.8,0 7.4,0 7.4,13 "/><polygon fill="#CE1124" points="29.8,0 7.4,14.8 7.4,15.3 12.1,15.3 35,0 "/><polygon fill="#00247D" points="35,40.7 35,30.6 35,30.6 35,40.6 "/><polygon fill="#00247D" points="35,40.6 35,30.6 19.9,30.6 "/><polygon fill="#00247D" points="7.4,46 26.7,46 26.9,46 26.8,45.9 7.4,45.9 "/><polygon fill="#00247D" points="7.4,45.9 26.8,45.9 7.4,33 "/><g><path fill="none" d="M1048.4 330.1a279.4 279.4 0 0 1-36-33l-2.5 2.5 34.5 34.5 4-4zm130 0 4 4 34.5-34.5-2.5-2.5a273.6 273.6 0 0 1-36 33z"/><polygon fill="#FFFFFF" points="980.9,130.6 980.9,188.7 1010,159.7 	"/><polygon fill="#FFFFFF" points="1246,118.8 1246,60.6 1216.9,89.7 	"/><path fill="#FFFFFF" d="m1216.9 19.8 29.1 29.1V21.6s-55.6-8.2-96.5-.3l32.9 32.9 34.5-34.4zm-38.5 310.3a279.4 279.4 0 0 0 36-33l-32-32-34.5 34.5 30.5 30.5zM1044.5 54.2l32.9-32.9c-40.9-7.9-96.5.3-96.5.3v27.3l29.1-29.1 34.5 34.4z"/><polygon fill="#FFFFFF" points="980.9,60.6 980.9,118.8 1010,89.7 	"/><rect width="48.8" height="48.8" x="1158" y="205.2" fill="#FFFFFF" transform="matrix(0.7071 -0.7071 0.7071 0.7071 183.9576 903.3389)"/><path fill="#FFFFFF" d="M1145.6 22.1c-13.6 3.1-25.3 8.2-32.1 16.2-6.8-8-18.5-13.1-32.1-16.2l32.1 32.1 32.1-32.1z"/><rect width="48.8" height="48.8" x="1020.1" y="205.2" fill="#FFFFFF" transform="matrix(0.7071 -0.7071 0.7071 0.7071 143.5592 805.8079)"/><rect width="48.8" height="48.8" x="1089.1" y="275.2" fill="#FFFFFF" transform="matrix(0.7071 -0.7071 0.7071 0.7071 114.2954 875.0622)"/><path fill="#FFFFFF" d="M1012.4 297.1a286.8 286.8 0 0 0 36 33l30.5-30.5-34.5-34.5-32 32z"/><rect width="48.8" height="48.8" x="1089.1" y="135.3" fill="#FFFFFF" transform="matrix(0.7071 -0.7071 0.7071 0.7071 213.2219 834.0854)"/><rect width="48.8" height="48.8" x="1158" y="65.3" fill="#FFFFFF" transform="matrix(0.7071 -0.7071 0.7071 0.7071 282.8854 862.3638)"/><rect width="48.8" height="48.8" x="1089.1" y="205.2" fill="#FFFFFF" transform="matrix(0.7071 -0.7071 0.7071 0.7071 163.7581 854.573)"/><rect width="48.8" height="48.8" x="1020.1" y="65.3" fill="#FFFFFF" transform="matrix(0.7071 -0.7071 0.7071 0.7071 242.4851 764.8306)"/><rect width="48.8" height="48.8" x="1020.1" y="135.3" fill="#FFFFFF" transform="matrix(0.7071 -0.7071 0.7071 0.7071 193.0225 785.3196)"/><rect width="48.8" height="48.8" x="1089.1" y="65.3" fill="#FFFFFF" transform="matrix(0.7071 -0.7071 0.7071 0.7071 262.6858 813.5979)"/><rect width="48.8" height="48.8" x="1158" y="135.3" fill="#FFFFFF" transform="matrix(0.7071 -0.7071 0.7071 0.7071 233.4221 882.8522)"/><path fill="#FFFFFF" d="M1090 358.5c8.3 5 15 8.7 19 10.8v.1l.7.3 3.4 1.8.3-.1.3.1 3.4-1.8.7-.3v-.1c4-2.1 10.7-5.8 19-10.8l-23.4-23.4-23.4 23.4zm151.5-104.2a74 74 0 0 0 4.4-24.5v-29.2l-29.1 29.1 24.7 24.6z"/><polygon fill="#FFFFFF" points="1216.9,159.7 1246,188.7 1246,130.6 	"/><path fill="#FFFFFF" d="M980.9 200.5v29.2a74 74 0 0 0 4.4 24.5l24.6-24.6-29-29.1z"/><polygon fill="#3FA4D5" points="1044.5,55.2 1044,54.7 1044.5,54.2 1010,19.8 980.9,48.8 980.9,60.6 1010,89.7 	"/><path fill="#3FA4D5" d="m1045 54.7-.5.5 34.5 34.5 34.5-34.5-.5-.5.5-.5-32.1-32.1-3.9-.8-32.9 32.9.4.5z"/><rect width="0.7" height="0.7" x="1044.1" y="54.4" fill="#3FA4D5" transform="matrix(0.7071 -0.7071 0.7071 0.7071 267.2173 754.5871)"/><path fill="#3FA4D5" d="m1113.9 54.7-.5.5 34.5 34.5 34.5-34.5-.5-.5.5-.5-32.9-32.9-3.9.8-32.1 32.1.4.5z"/><rect width="0.7" height="0.7" x="1113.1" y="54.4" fill="#3FA4D5" transform="matrix(0.7071 -0.7071 0.7071 0.7071 287.4168 803.353)"/><polygon fill="#3FA4D5" points="1182.4,54.2 1182.9,54.7 1182.4,55.2 1216.9,89.7 1246,60.6 1246,48.8 1216.9,19.8 	"/><rect width="0.7" height="0.7" x="1182.1" y="54.4" fill="#3FA4D5" transform="matrix(0.7071 -0.7071 0.7071 0.7071 307.6163 852.1189)"/><polygon fill="#3FA4D5" points="1044.5,125.2 1044,124.7 1044.5,124.2 1010,89.7 980.9,118.8 980.9,130.6 1010,159.7 	"/><polygon fill="#3FA4D5" points="1113.4,125.2 1112.9,124.7 1113.4,124.2 1079,89.7 1044.5,124.2 1045,124.7 1044.5,125.2 1079,159.7 	
		"/><rect width="0.7" height="0.7" x="1044.1" y="124.3" fill="#3FA4D5" transform="matrix(0.7071 -0.7071 0.7071 0.7071 217.7541 775.0754)"/><polygon fill="#3FA4D5" points="1113.9,124.7 1113.4,125.2 1147.9,159.7 1182.4,125.2 1181.9,124.7 1182.4,124.2 1147.9,89.7 
		1113.4,124.2 	"/><rect width="0.7" height="0.7" x="1113.1" y="124.3" fill="#3FA4D5" transform="matrix(0.7071 -0.7071 0.7071 0.7071 237.9536 823.8413)"/><polygon fill="#3FA4D5" points="1182.4,124.2 1182.9,124.7 1182.4,125.2 1216.9,159.7 1246,130.6 1246,118.8 1216.9,89.7 	"/><rect width="0.7" height="0.7" x="1182.1" y="124.3" fill="#3FA4D5" transform="matrix(0.7071 -0.7071 0.7071 0.7071 258.1531 872.6072)"/><polygon fill="#3FA4D5" points="1044.5,195.1 1044,194.6 1044.5,194.1 1010,159.7 980.9,188.7 980.9,200.5 1010,229.6 	"/><polygon fill="#3FA4D5" points="1113.4,195.1 1112.9,194.6 1113.4,194.1 1079,159.7 1044.5,194.1 1045,194.6 1044.5,195.1 1079,229.6 
			"/><rect width="0.7" height="0.7" x="1044.1" y="194.3" fill="#3FA4D5" transform="matrix(0.7071 -0.7071 0.7071 0.7071 168.2908 795.5638)"/><polygon fill="#3FA4D5" points="1113.4,194.1 1113.9,194.6 1113.4,195.1 1147.9,229.6 1182.4,195.1 1181.9,194.6 1182.4,194.1 
		1147.9,159.7 	"/><rect width="0.7" height="0.7" x="1113.1" y="194.3" fill="#3FA4D5" transform="matrix(0.7071 -0.7071 0.7071 0.7071 188.4903 844.3297)"/><polygon fill="#3FA4D5" points="1182.4,194.1 1182.9,194.6 1182.4,195.1 1216.9,229.6 1246,200.5 1246,188.7 1216.9,159.7 	"/><rect width="0.7" height="0.7" x="1182.1" y="194.3" fill="#3FA4D5" transform="matrix(0.7071 -0.7071 0.7071 0.7071 208.6898 893.0956)"/><path fill="#3FA4D5" d="m1044.5 265.1-.5-.5.5-.5-34.5-34.5-24.6 24.6a134 134 0 0 0 27.1 42.9l32-32z"/><polygon fill="#3FA4D5" points="1112.9,264.6 1113.4,264.1 1079,229.6 1044.5,264.1 1045,264.6 1044.5,265.1 1079,299.6 1113.4,265.1 
			"/><rect width="0.7" height="0.7" x="1044.1" y="264.2" fill="#3FA4D5" transform="matrix(0.7071 -0.7071 0.7071 0.7071 118.8276 816.0521)"/><polygon fill="#3FA4D5" points="1113.4,264.1 1113.9,264.6 1113.4,265.1 1147.9,299.6 1182.4,265.1 1181.9,264.6 1182.4,264.1 
		1147.9,229.6 	"/><rect width="0.7" height="0.7" x="1113.1" y="264.2" fill="#3FA4D5" transform="matrix(0.7071 -0.7071 0.7071 0.7071 139.0271 864.818)"/><path fill="#3FA4D5" d="m1182.4 264.1.5.5-.5.5 32 32a133 133 0 0 0 27.1-42.9l-24.6-24.6-34.5 34.5z"/><rect width="0.7" height="0.7" x="1182.1" y="264.2" fill="#3FA4D5" transform="matrix(0.7071 -0.7071 0.7071 0.7071 159.2266 913.5839)"/><path fill="#3FA4D5" d="m1112.9 334.5.5-.5-34.5-34.5-30.5 30.5c15 11.6 29.9 21.3 41.6 28.4l23.4-23.4-.5-.5z"/><rect width="0.7" height="0.7" x="1044.1" y="334.2" fill="#3FA4D5" transform="matrix(0.7071 -0.7071 0.7071 0.7071 69.3643 836.5405)"/><path fill="#3FA4D5" d="m1147.9 299.6-34.5 34.5.5.5-.5.5 23.4 23.4a434 434 0 0 0 41.6-28.4l-30.5-30.5z"/><rect width="0.7" height="0.7" x="1113.1" y="334.2" fill="#3FA4D5" transform="matrix(0.7071 -0.7071 0.7071 0.7071 89.5638 885.3063)"/><rect width="0.7" height="0.7" x="1182.1" y="334.2" fill="#3FA4D5" transform="matrix(0.7071 -0.7071 0.7071 0.7071 109.7633 934.0723)"/></g><path fill="#8A9396" d="M889.9-97.2S789.3-126.8 808.4 5.5c0 0 23.3 84.6-40.2 154 0 0-112.2 76.2 0 198.8 0 0 82.6 55.9 201.2 48.5 0 0-65.8-54-125.5-58.2 0 0-24.8-47 14.4-94.4 0 0 39.2 2.3 52.9-48.5 0 0 31.8 51.7 16.9 123.3 0 0 80.5-147.7 29.6-204.8l23.3-10.5V36.3l-34 28.6s-47.6-60.4-40.2-93.2c0 0 19.1-5.3 26.5-59.3 0 0-15.9-14.8-43.4-9.6z"/><path fill="#923F00" d="M967.8-92.8s-3.2-27.9 18.7-46.2c0 0 31.8-10.2 35.6 19.1 0 0 .4 22.2-10.2 27.2 0 0-17.1-27.9-31 7.8l-13.1-7.9z"/><path fill="#923F00" d="M965.3-94.9s-3.9-26.1 20.1-48c0 0 16.9-69.9-27.9-105.2 0 0-14.8 81.2-8.1 98.5l1.8 7.1s-7.4 25.8 5.3 47.6h8.8z"/><path fill="#923F00" d="M947.7-142.9s-20.8-32.8-67.8-44.5c0 0-2.1 56.5 65.6 97.1l7.4-4.6s-10.2-17.7-5.2-48zm0 54.3s9.2-8.5 22.6 0l7.1 6.4c-.1 0-7.8 5.6-29.7-6.4z"/><path fill="#923F00" d="m1044.5-102.7 5.5 36.4S977.3-8.6 949.1-80.9c0 0 14.6 10 31.9 1.5-.1 0 24.1 10.6 63.5-23.3zm-91.6-152.5s-3.2-51.5-81.5-82.6c0 0-6 39.5 32.8 61.1 0 0 42 15.5 48.7 21.5zm1.8 4.6s-4.9 10.2-5.6 30.4c0 0-20.5-.4-24.4 16.6 0 0-1.1 15.9 6 22.2 0 0-25.4 2.5-32.8-24.7 0 0-1.8-16.2 10.6-27.9 0 0-112.2 4.9-123.9-76.6 0 0 5.3 15.2 66 19.4 0 0 28.6-.7 47.3 16.2 0 .1 52.2 17.7 56.8 24.4zm230.1 135.9s-4.2 9-7.8 33.8c0 0 16.6 23.7 33.2 30.4 0 0 12.7 7.3 21.2 5.9 0 0 26.1-16.5 19.8-27.5 0 .1-24 4.3-66.4-42.6z"/><path fill="#923F00" d="M1235.3-44.4s46.9 16.3 52.6-55.6c0 0-33.5-97-3.5-123.1 0 0-38.8-16.6-47.6 10.6 0 0-11.6 36.8 12.7 71.7 0 0-59.3-19.4-39.9 34.9 0 0 27-14.6 38.9 15.4l2.8 6.7c3.3 7.8 10.1 29.5-16 39.4z"/><path fill="#923F00" d="m1282.2-138.9 10.2 33.7s53.6-37.1 49.1-91.8c0 .1-28.2-8.8-59.3 58.1zm-38.8-89.2s43.8-14.8 51.5 11.7c0 0-2.5 18-12.7 22.6 0 0 36 5.6 42.4-28.9 0 0 1.1-18-15.9-27.9 0 0 91.1 11.3 122.8-69.9 0 0-28.6 22.9-109.4 34.9l-55.5 32.5-3.5 2a35.2 35.2 0 0 0-11.7 11l-8 12zm23.7-28.8s9.2-58.2 79.1-83.6c0 0 6.7 26.1-25.4 52.2l-53.7 31.4z"/><g><path fill="#FEBA00" d="m1422.2 629.9-29.8 22a12 12 0 0 1-13.8.2 9 9 0 0 1-3.1-2.7 290 290 0 0 0-36.4-38.6 317.6 317.6 0 0 0-77.4-53A331.4 331.4 0 0 0 882.3 618a320.3 320.3 0 0 0-36.6 42.1 12.6 12.6 0 0 1-6.8 4.7l-2.7.4a12 12 0 0 1-7.4-2.1l-30.6-20.8a12.4 12.4 0 0 1-3.3-17.5 392.2 392.2 0 0 1 140.8-120.4 392.1 392.1 0 0 1 353.2-2 372 372 0 0 1 60.6 37 389 389 0 0 1 75.2 72.7c4.3 5.7 3 13.7-2.5 17.8z"/><g><path fill="#FDBA00" d="M1419.3 488.3c-15.4 8-47.3 30.8-69.9 51.2-9 8.2-16.6 16-21.4 22.2-1.8 5.1-6.6 16.2-12.1 29.6-4.7 10.5-9.9 22.6-14.8 34.3-9 21.2-17.3 41.3-19.7 50.8-.2.8-.6 1.4-1 1.8-1 .4-1.8 1-2.9 1.6a5 5 0 0 1-4.5-1.8l-27.9-34.9a8.3 8.3 0 0 1-1.8-7 875.7 875.7 0 0 1 18.5-78.3c3.7-12.7 7.4-23.6 10.9-30.4 5.1-9.9 10.1-17.7 16.2-24.9 7-8.8 15.4-17.1 26.1-27.1 9.9-9.7 30.8-25.1 44-31.8 18.9-9.7 44.4-2.3 50.7 16.4l9.6 28.3z"/></g><g><path fill="#FDBA00" d="M985.2 636.1c.4 2.5-.2 5.1-1.8 7l-28 34.9c-2.3 2.7-6.4 2.5-8-.6-.2-.2-.2-.6-.4-1a932.8 932.8 0 0 0-29.8-88.2 298.3 298.3 0 0 0-29.4-54.8c-7.6-11.1-16-21-25.5-28.8a78 78 0 0 0-42.7-20.1l2.7-24.9a30.5 30.5 0 0 1 44.2-23.4 144.5 144.5 0 0 1 35.1 25.3 202 202 0 0 1 34.1 43.1 338.8 338.8 0 0 1 26.9 55.5 333 333 0 0 1 10.1 29c6.5 21.3 9 26.2 12.5 47z"/></g><path fill="#BE1500" d="M826.5 449.8s-13.3-7.7-47.2 81.7c-5.6 14.8 14.7 38.2 33.9 28.1s58.7-45.4 62.7-71.3c-.1 0-38.9-.9-49.4-38.5zm573.9 0s13.3-7.7 47.2 81.7c5.6 14.8-14.7 38.2-33.9 28.1s-58.7-45.4-62.7-71.3c0 0 38.9-.9 49.4-38.5zm-453 227.6c-58.8-20.5-111.2-12.1-111.2-12.1 3.5-.2 7.2-2.1 9.5-5.1a320.3 320.3 0 0 1 36.6-42.1c7.4 2.9 31.4 11.5 47.1 2.5 6 17.3 13.4 39.9 17.7 55.9.1.3.1.7.3.9zm431.2-25.3c-18.5.8-57.7 5.5-98.2 26.1.4-.4.8-1 1-1.8 2.5-9.5 10.7-29.6 19.7-50.8 15.4.6 32.1-10.5 38-14.8a296.2 296.2 0 0 1 36.4 38.6 10 10 0 0 0 3.1 2.7z"/></g><g><g><path fill="#6A4C2D" d="M73.4 79.2s-.4 1.1-.7 1.1-1.1-.5-1.1-.5-.6 1-1 1.1c-.3.1-1.2-.2-1.2-.2l-.9-.1v-.4s-1.2 1-1.5.9L66 80l-.2.6-1.7-.1-1.5-1-.9 1.4-1.5.3-.1-.2-1-.6.8-1.1-.4-.2-.5.5-1.1.7-1.1-.5.5-.9.1-.7.9-1.3L69 66.5l5.3 9.8-.9 2.9z"/><path fill="#FFFFFF" d="m81.1 79.8 2.8-.1-1.2-.6 10.7-.4-1.5-.6-1.3-1.8-5.6-.4s-.4-.3-1.1-.2c0-.4-.5-1-.5-1l-3.4-.3-2.2 1.6 1.4 3.7 1.9.1z"/><path fill="#7C3708" d="m70.2 48.5.3-1s.5-.8.5-1.2c0-.4.4-.8.4-.8s1.1-.3 1.4.4c1.2-1.8 2.6-.1 2.6-.1l.4-.5.8-1 1.2 1.3c0 .2.2.1.2.1l1.2-.1s.6.5.5 1.3c.4.3.8 1.8.8 1.8l-10.3-.2z"/><path fill="#656263" d="M81.1 59.9c.2-.1.9-.3.8-1.3-.1-1-.9-1.1-1.4-1.1-.5 0-.9.4-.9.4l-1.6-1s.8-5 1.6-5.3c.8-.6.9-.8.9-1l-.3-.5-5.1-.6-4.9.6s-.4.6-.3.8c0 .2.1.5.9 1.1 1 .7 1.6 5 1.6 5l-1.4.6c-.1-.1-.5-.2-.7-.1-.2 0-.9.4-.9 1.3s.7 1.5.7 1.5 4.6-.5 5.3.7c.7-1.4 5.2-.8 5.7-1.1z"/></g><path d="M86.1 54.7s.1-.5.4-.8c.4-.3 3-.4 3.6 0 .6.4.8 2.3.8 2.3s.4.7.4 1.2l.1.8s2.1 2.7 2.1 5.1c.2 1.6.2 6-.5 7.7 0 2.1-.9 3.4-.9 3.4l.2.7c0 .4-.2.7-.2.7l3 1.5L94 77l1.1.9-1.3-.6.7.7-1.8-.8.8.8-1.4-.6.8.8-1.2-.5.1.4s-.9-.1-.9-.7l-.8-.6-2.1-.4-2.4-7.2.6-12.2.2-.6-.3-1.7z"/><path fill="#00713D" d="M72.4 75.6s-1.2.4-.4 1.7c.1-.5.6-.8.6-.8s-.8 1 0 1.8c.1-.8.6-1 .6-1s-.6 1.8 0 2.2c.1-.7.5-1 .5-1s-.6 1.6-.1 2c.1-.6.5-.9.5-.9s-.2 1.7.4 1.8c0-.6.5-1.2.5-1.2s-.2 1.4.8 1.4l.2-1.1s.5 1.5 1.1 1.2v-1.2s.4 1.4 1.2 1.1v-.9s.4.9 1.2.6c.1-.3 0-.8 0-.8s1.1 1.2 1.5.5c.3-.7-.9-.9-.9-.9h.8s-.3-.7-1.4-.9c.4-.2.8 0 .8 0s-.2-.9-1.4-1c.5-.2 1 0 1 0s-.2-.8-1.4-1.1c.2-.2.7-.2.7-.2s-.5-.8-1.1-.8a81 81 0 0 1-5.7-.5z"/><path fill="#FFFFFF" d="m68.6 60.4 3.9-.1s2.6 0 2.9.8c.5-1.1 2.7-1.1 2.7-1.1l4.1-.1.1 9.8c-.8 3.8-3.6 6.5-6.6 7.7a10.3 10.3 0 0 1-6.7-7.7l-.4-9.3z"/><path fill="#006B00" d="m70 60.4 5.7 15.3L80.9 60c-1.6.1-5.1-.3-5.5 1.2-.6-1.3-4.2-.7-5.4-.8z"/><g><path fill="#CDAD56" d="M75.7 32.5V32s.8-.7.5-1.1c-.3-.4-.2.5-.6.5-.4 0-.2-1-.2-1l-.2-.2c-.2 0-.1.3-.3.4-.2 0-.3-.8-.3-.8s-.3-.4-.5.8c.1 1.2.9 1 .9 1.8s-.7 1.4-.9 1.5c-.2 0-.1-.7-.1-.7l-.2-.3c-.1 0 .4-.1.3-1-.2-1.1-.3.3-.6.2-.3-.1-.1-1 0-1.1.1-.1-.1-.6-.8.6-.1.6-.1-.1-.3-.1-.2.5-.2.8.1 1.2.5.4.8.8.7 1.1 0 .2-.3.7-.6.7s0-.6 0-.8c0-.2-.6-.9-.6-.9l-.4-.6-.2.5c-.2.6-.4-.4-.4-.4s-.3.8.3 1.3c-.4-.1-.5.1-.5.1 0 .2.6.3.6.7.1.4-.6.6-.6.6s.3.4 1-.4c0 .5-.3.8-.3.8.3.1.5.1.5.4l.4-.6c0-.1 1.8-.2 2.9-2.2 1.1-1.2.4-.5.4-.5z"/><path fill="#CDAD56" d="M71 33.7s0-.2-.4-.1c.5-.4.3-1.2.3-1.2s-.2 1-.3.4c-.2-.6-.2-.4-.4-.4l-.1.5s-.5.6-.5.8c0 .2.2.5-.1.5-.3 0-.4-.2-.4-.5 0-.2.2-.6.6-1 .3-.4.5-.9.3-1.4-.1 0-.4.9-.4.4-.1-1.1-.5-.6-.5-.5-.1.1.2.9 0 .9-.3.1-.6-.8-.7 0-.1.7.4.7.5.7l-.1.3s.1.6-.1.6-.8-.6-.8-1.3c0-.7.9-.5 1-1.6-.2-1.1-.2-.6-.3-.5-.1.1-.4.8-.5.7-.1 0-.2-.5-.4-.6l-.1.2s.2.9-.2.9c-.3 0-.2-.8-.4-.5-.2.4.3 1 .3 1v.5s-.5-.6 0 .4c.8 2 2.5 1.8 2.5 1.9l.4.6c0-.3.2-.3.4-.4 0 0-.3-.3-.3-.7.7.7.9.3.9.3s-.3-.2-.2-.6c-.2 0 0-.1 0-.3z"/></g><g><path fill="#FFC900" d="m79.2 62.4.2.2c.2.1.2-.2.6.1 0-.2 0-.3-.2-.5l-.4-.2-.2-.2c.1-.1.3 0 .4 0 .2-.1.1-.3.2-.4l.3-.2h-.5l-.3.3H79l.1-.4-.2-.2-.1-.5-.3.5.1.3-.1.3-.3-.3-.4.1-.4-.3.2.5.4.1.1.3-.2.1-.1.3-.3.1-.4-.3c-.5-.1-.4.2-.9.2-.1.2-.1.2.1.3-.4.2-.2.7-.2.7s.6-.2.5.2c0 .4-.3.3-.5.1-.2-.1-.2.1-.2.1l.3.3s-.6 0-.7.4l.5.1-.7.4c-.1.2-.1-.2-.1-.2l-.6-.2-.2 1s.4.4.6.3c.2-.1.6-.5.9-.4l-1.7 1.4c.1-1.1.1-2.2.3-2.3l.2-.9c-.2-.4-1.4-.4-1.8 0l.3.8c.2.4.4 1.3.4 2.2-.1 0-.2-.1-.2 0-.1.2 0 .4.1.4.2 0-.6.2-.4.5.2.3.1.3.3.2l.1-.1c.1.1.2.2.1.3h.1l.2.9.2-1.1c.1 0 .2 0 .3.2.3 0 .6-.3.6-.6v.3c-.1.1.4-.2.6-.5v.2l.3-.1v.3c.1.1.5.4.3.7l-.2-.4c-.1 0-.6.4-1 .4-.3 0 .4 1.1.4 1.1h-.5c-.1 0-.4-.4-.4-.1v.2l-.3.1c-.1.2-.3.3-.2.4l.5.1-.4.1c0 .1-.1.3 0 .4s.4 0 .5-.1v.2s.5 0 .5-.5v.4s.5.1.6-.5c0-.6.1.4.1.4l.2-.4c0-.1 0 1.1-.3 1.4-.4-.3-.6.2-.6.2v.8c0 .2.3-.1.3-.2l.4-.3.1-.3-.2.4c-.1 0-.3.2-.2.3l.4.4c.1.1.4-.8.4-.8v.2s.4-.1.4-.3c0-.2-.4-.3 0-.6s0 .3 0 .3l.2.4c.1 0 .3-.8.1-1l.3.2s.3-.8 0-.9l-.5-.2.1-.2c.1.1.4.4.5.3.1-.1.2-.5-.4-.7-.6-.2 0-.8 0-.8s.4.4.6.2c.3-.2 0-.2 0-.2s.8-.5.8-.7H78s.4-.3.3-.8l-.4.2s.4-.4.3-.7c-.2.2-.2.3-.4.3-.1 0-.4-1.4.2-1.5.6-.1.3.7.3.7s.9-.4 0-.9c.2-.1.6.3.6.3s-.2-1-1.1-.4c.2-.2.4-.4.6-.4.2 0 .8 0 .8-.2h-.7c-.2-.1 1.3-.2 1.2-.9-.3.2-2.3.7-2.3 2.5 0 1.7.4 2.1 0 2.2-.7 0-.8-1.9-.8-2.8v-.7s.5.1.5.6c0 .4.5-1 .3-1.4.3.3.8.2.8.2l-.4-.5c-.2-.2.4.1.4.1s0-.3-.4-.3c-.5 0 .1-.2.1-.2s.3.3.5 0l-.6-.4-.1-.2h.4l.2-.3.3-.1c.1.1 0 .3-.1.4l.2.3-.1.3c.3-.1.3-.2.4-.4l-.1-.4.1-.3.2.2zm-5.6 5s0-.1 0 0c.1-.1.1-.1 0 0zm.5-.2.1-.1-.1.1zm-1.4-4.4-.1-.4.4.1.2.3c.1.1.4 0 .6-.1l-.4-.1-.1-.3-.3-.3.1-.3.4-.1.2-.5-.4.3-.4-.1-.3.3-.1-.3.1-.3-.3-.5-.1.5-.2.2.1.4h-.3l-.3-.3H71l.3.2.2.4h.4l-.2.2-.4.2-.2.5c.3-.3.4 0 .6-.1l.2-.2.2-.1.1.3-.1.4c0 .2.1.4.4.4l-.1-.3.3-.4z"/></g><linearGradient id="SVGID_1_" x1="73.1052" x2="76.0592" y1="62.5893" y2="62.5893" gradientUnits="userSpaceOnUse"><stop offset="0" style="stop-color:#FF781E"/><stop offset="0.9873" style="stop-color:#E29C00"/></linearGradient><path fill="url(#SVGID_1_)" d="M73.1 63.2s.9-.3 1.4.1c.5.4.5 0 .5 0s.7.3.9.2l.1-.1c.3-.2-.5 0-.6-.3-.1-.2 0-.5-.3-.4-.2-.3.1-.4.1-.7-.2.1-.3-.1-.5.3-.4-.1-.1-.6-.5-.7 0 .4-.3.4-.3.6-.2.2-1 .7-.8 1z"/><g><path fill="#C01500" d="M62.9 92.2c.6-.1 3.7.7 4.9 2-.3-2.3-.9-4.1-.9-4.1s-1.9-.5-2.1-.3c-.4.4-1.5 1.6-1.9 2.4zm-1-10.7c-.2 0-.4.2-.7.5-.3.6-.4 2.2-.8 2.6-.4.4-.7.4-.7.7 0 .3 0 1.1 1 1.4 1 0 2.6-1.6 2.6-1.6s.8-.9 1.1-1.8c-1.8.7-3.2-1.1-2.5-1.8zm27.6 10.3c-.6-.1-3.7.7-4.9 2 .3-2.3.9-4 .9-4 .2-.1 1.8-.5 2.1-.3.3.3 1.5 1.5 1.9 2.3zm.9-10.6c.2 0 .3.3.5.7.3.6.5 1.5.9 1.9.4.4.7.9.7 1.2 0 .3-.1.8-1.1 1.1-1 0-2.4-1.2-2.4-1.2s-.9-.9-1.2-1.9c1.9.7 3.1-1 2.6-1.8z"/></g><path fill="#FFBB00" d="m87.6 86 1.3-1.1s-.9-1.1-1.1-1.9c1.7.9 4.2-2 1.5-2.2-1.9.2-3.4 1.7-4.6 3.4a20 20 0 0 0-17.4.1c-1.1-1.8-2.6-3.2-4.5-3.2-2.7.2-.2 3.1 1.5 2.2-.2.8-1.1 1.9-1.1 1.9s.5.2 1.2.9a15.7 15.7 0 0 0-3.7 4s2 1.4 2 2c.9-1.4 2.1-2.5 3.4-3.5.7 1.3 1.3 3.1 1.6 5.6 0 0 1-3 1.6-3 .3 0 0-1.9-.8-4.1a17 17 0 0 1 14.9-.3c-.8 2-1.2 3.9-.9 4.3.6 0 1.9 2.6 1.9 2.6.3-2.4.9-4.2 1.6-5.5 1.2.9 2.4 2 3.4 3.3 1-1.4 2.1-1.8 2.1-1.8a19.5 19.5 0 0 0-3.9-3.7z"/><g transform="translate(-7.1526e-6,4.5776e-5)"><g><path fill="#3FA4D5" d="M81 60h.8l-1.4 1.7 1.7 1.9-3.3 4.1 3.1 3.7c-.3.8-.7 1.6-1.3 2.3l-1.8-2 3.2-4-2.6-3L81 60zm-11.1.4h-.8l1.5 1.7-1.6 2 3.4 3.7-2.8 3.8c.3.8.8 1.7 1.3 2.4l1.7-2.1-3.4-3.8 2.5-3.2-1.8-4.5z"/><path fill="#3FA4D5" d="M73.8 70.3 72.5 72l4.3 5c.8-.4 1.4-.8 2-1.4L76.6 73l.9-2.7 1.3 1.5-4.1 5.3-2.2-1.3 2.2-2.8-.9-2.7zm-1.4-2.5.8 1-.5-1.3-.3.3z"/></g><path fill="#3FA4D5" d="m78.1 68.7.6-.8-.2-.3-.4 1.1z"/></g><g><g><path fill="#FFFFFF" d="M86.2 57s2.6.1 2.6.4-2 .7-2 1.8 1.5 1.2 1.6 2.5c.1 1.4-1.2 1.6-1.4 1.9-.3.2-.9 2.1-.8 3.2.1 1.1.4 5 1 5.7.5.4 1.2 1.5 1.9 1.2.7-.4.2-1.7.2-2-.1-.4.3-1 .3-1.5s-.3-1-.3-1.1c0-.1 2.1.5 2 2.5-.1 2-1 1.4-1 1.4s.3 2.5-.4 2.8c-1.2.6-2-.1-2-.1l.1.5-.9-.5s-1.1-1.6-1.4-2.3a18 18 0 0 1-.5-4.6c.1-.7.2-4.8.1-5-.1-.2-.3-3.6-.1-4.1l1-2.7z"/><linearGradient id="SVGID_2_" x1="83.3337" x2="87.2954" y1="55.586" y2="55.586" gradientUnits="userSpaceOnUse"><stop offset="0" style="stop-color:#E77200"/><stop offset="1" style="stop-color:#FFC500"/></linearGradient><path fill="url(#SVGID_2_)" d="M86.9 55.9s.5-.1.4-.2c-.1-.4-1.1-.5-1.1-.5s.5-.4 0-.4c-1.1-.2-2.9 1.6-2.9 1.6s4 .3 3.9-.1c0-.4-.3-.4-.3-.4z"/></g><path fill="#FFFFFF" d="M90.5 76.7s1.2-.3 1.6-.7c.2-.1 1.3 1.6-1.6.7z"/></g><path d="M87.9 63.4s-1 .3-1.2 1.3"/><g><path fill="#FFFFFF" d="M78.7 53.6s2 2.2 3.4 2.2c.2.7-.6 1.3-.9 1.5-.7-.2-1.3 0-2.9-1.9.1-1.2.4-1.8.4-1.8zm2.8-5.2c.3-.8.8-1.5 1.3-1.5-.1-.6 1-3.4 4.1-4.5.2 1.4-1.3 2.8-1.3 2.8s4.7-.8 5.6-2c-.1.5-1 3.8-6 3.8 1.9 1.8-.6 3.2-1.7 2.8 1.9-1.5-.6-2.4-2-1.4z"/></g><g><path fill="#0000FF" d="M81.1 57.3s2.6.7 2.8-3c-.6-1.6-1.3-5-.1-6-1.1-.7-2.3 0-2.3 0-.1.2-1 1.5.3 4-3.1-.8-1.8 2.1-1.8 2.1.1-.5 1.8-.9 2.2 1.4.1.6-1.2 1.5-1.1 1.5z"/><path fill="#0000FF" d="M84 54.3s2.7-1.4 2.6-4.8c-2.3 0-3.1 3-3.1 3l.5 1.8z"/><path fill="#FFFFFF" d="M71.9 54.2s-2 1.7-3.1 1.2c-.8.5-1.8-.4-1.8-.4s1.2 4.3 5.3 1.2l-.4-2z"/><path fill="#0000FF" d="M68.7 55.3c.2-.9.9-1.3 1.4-.5.7.1 1.5-2.9-1.2-2.4.7-4-1.5-5.5-1.5-5.5s-.8 4.4-.4 5.3c.4.8-.5-1.5-3.4-2.2 0 3.4 3.2 4.9 3.2 4.9s1 .8 1.9.4z"/><path fill="#FFFFFF" d="M67.1 48.6s-1.9 0-.8 1.9c-.8.3-2.7-1-1.4-2.6-4.3-.1-6-2.1-6-4 1.3 1.3 4.2.8 5.3 1.6-1.3-1.2-1-2.9-1-2.9s3.6 1.1 4.3 4.3l-.4 1.7z"/></g><g><path fill="#923F00" d="M72.5 35.8s.8-.7 1.7-.1c-.4 1.2-1.9.7-1.9.7l-.1.9c.3.2.5.9.5.9s1.5-.4 1.8.3h1l1.6-.3c.4 0 1.7.3 1.8.6.1.2.6 1.9.8 1.8.3 0-.7.4-1 0-.3-.4-.2.5-.2.5l.9 1.1c.1.2-.5 1.8 0 2.8-.4 0-.4.5-.4.5 0 .5-.6.6-.6.6l-.1-.7-.4.2.2-.5s.6-1.3.6-1.8c0-.4-.5-1.2-.9-1.2s-.7 1.4-.7 1.4-.2 1-.1 1.1l-.3-.3-.3.8c-.1.2-.5.3-.5.3s-.2-.6-.1-.9c.1-.2 1.2-1.2 1.1-1.9v-.5s-.6-.5-.6-.8c0-.3-.7.3-1.6.1-.3.5-.3 1.7-.3 1.7s-.4 1.7-.2 1.9c.2.2-.5.5-.5.5l-.5.7-.2-.4-.3.2.2-.5c0-.4.5-1.4.5-2.2l.1-1.7s-.9 0-.9.9-.2 1-.2 1.2c0 .3.3 1 .2 1.2-.1.2-.4.3-.4.3l-.1.1s-.9.4-.9.6v-1.2s.5-.3.5-1.2l-.1-1.2.1-1-.7.2c-.1 0 .3-.5.3-.9s-.5.3-.9-.1l.6-.9c.1-.3-.3.3-.7 0 0-.3.4-.6.4-.6h-.4c-.2-.1.2-.4.3-.9 0-.5-.3-.7-.3-.7l-.6-.6-.1-.4s-.6.8-1.5-.4c.9-.7 1.8-.2 1.8-.2s.2-.7 1.3-.6c1.1 0 1.3.6 1.3.6z"/><path fill="#0000FF" d="M78.5 48.2s2 .1 2.1 1.1c0 1.1-.6.8-.6.8l-1.5-.2v-1.7z"/><path fill="#FFFEFF" d="M76.6 47.9s2.5 0 2.4 1.1c-.1 1.1-.8.9-.8.9l-1.2-.1-.4-1.9z"/><path fill="#0000FF" d="m75.1 47.8 1.5.1s.9.1.8 1c0 .8-.9.9-.9.9l-1.4-.1v-1.9z"/><path fill="#FFFFFF" d="M71.7 48.2s-2 .1-2.1 1.1c0 1.1.6.8.6.8l1.5-.2v-1.7z"/><path fill="#0000FF" d="M73.7 47.9s-2.5 0-2.4 1.1c.1 1.1.8.9.8.9l1.2-.1.4-1.9z"/><path fill="#FFFFFF" d="m75.1 47.8-1.5.1s-.9.1-.8 1c0 .8.9.9.9.9l1.4-.1v-1.9z"/><path fill="#5E0043" d="M79 60s1.1-1.6 1.5-1.4c.4.1.1 1.3-.1 1.4H79zm-7.2.3c-.3-.5-.8-1.7-1.3-1.4-.4.1-.1 1.3.1 1.4h1.2z"/></g><path fill="#5E0043" d="m72.7 52.2.4-.5 2 1 2-.9.4.4-2.2 1.6-2.6-1.6z"/><path fill="#B4B6B9" d="m70.1 51.4 5.1 3.3 4.6-3.1s1-.5.9-.9c-.1-.4-.4-.2-.6-.2l-4.8 3.3-4.9-3.1s-.4-.1-.4.1c-.2.3 0 .4.1.6z"/><linearGradient id="SVGID_3_" x1="105.4931" x2="107.8117" y1="49.4413" y2="49.4413" gradientTransform="matrix(0.5316 0 0 -0.9534 24.1294 94.0158)" gradientUnits="userSpaceOnUse"><stop offset="0" style="stop-color:#474747"/><stop offset="1" style="stop-color:#FF5500"/></linearGradient><path fill="url(#SVGID_3_)" d="M75.3 45.8s.6.8.5 1.1c.3.2.5 1 .5 1"/><path fill="#FFF71E" d="m87.1 75.8-.5.1h-1.5l-.2.2.2-.1s.4.4.5.3v.2l.1-.1h2.4l-1-.6zm.9.7-2 .1s-.5.4-.5.6l.3.1.1.4.2-.1s1.7.2 3.2-.1c.8-.3.9-.6.4-.8-.5-.2-1.7-.2-1.7-.2z"/><path d="m81.2 80.6 3.5-.2-.7-.6 9.6-.4-.3-.8-10.7.4 1.3.6-2.9.2.1.3h-.8s.9.3.9.5zm4-19.6c-.3-.1-1.5-.3-2.9.6l.1 3.2s2-1.1 3-.8l-.2-3z"/><path fill="#CECFCF" d="M63.6 55.4c.1.1-.1.3-.3.4h-.5c-.1-.1.1-.3.3-.4s.4-.1.5 0z"/><path d="m63.3 55.6-.1.1-.1-.1.1-.1.1.1z"/><g><path fill="#2B2B2B" d="M67.1 62.9s1.2-1.5 1.5-1.5.2 3.5.2 3.5-.9.7-1.1.6c-.2 0 1 1.6 1 2.2l-.1.6s0-.4-.3-1-.1-1.3-1.9-2.7c-.4-.9.9.6 1.2.3.2-.1-.5-2-.5-2zm-5-6.8s-.8.8-.4.9c.4.1.8-.6.8-.6s0 1.2.3 1l1.3-.8h.4c.1 0 .9.7 1.4.5-.3.8-.6.9-.6.9s-.6.7-1.3.6c-.7-.2-.9-.5-.9-.5s-.6 0-.8-.2l-.3-.4s-.3.3-.4.2c-.1-.4-.1-1.3.5-1.6z"/></g><path d="M66.6 55c0 .2-.1.3-.3.3-.1 0-.3-.1-.3-.3 0-.2.1-.3.3-.3.2 0 .3.2.3.3z"/><path fill="#7C7C7C" d="M67.7 65.5c.4 0 1.1-.6 1.1-.6s.2-3.6-.2-3.5c-.4 0-1.5 1.4-1.5 1.4l-1.9-3.7c-.3-.4 0-1.2 0-1.2 1.1-.9.8-1.9.8-1.9s.5-.3.4-1c-.1-.7-1.9-.7-1.9-.7s-.4-.3-.9-.3-1 .4-1.3.6c-.4.2-1.1.2-1.4.5-.4.3-.2 2.2-.3 2.6 0 .4-.3.7-.3 1.3v2s-.5.5-.6 1.1v1.4s-.9 2-1.4 4c-1.8.8-2.5 2.9-2.6 5.2 0 .9.3 1.8.8 2.6a9 9 0 0 0 4.7 3.2V78l.1.5c3.5 1.8 6.9.9 6.9.9s-1.4 0-1.1-.1l.9-.4s-1.3.3-1.9-.2c-.6-.4-3.3-2.1-3.9-2l-.4.1.3-.1s.4-.3 0-.5v-.1c.3-.3-.3-1.8.1-1.8s.1-.8.3-.8c.2 0 .5-.5.1-1.5.8.5 1.6-.6 1.6-.6s.2-.6.5-.9h.2c.2 0 .3-.2.4-.4l.1-.1v.7c0 .3.4.2.4.5l-.2.6c0 .3.4.2.4.5.1.4-.3.9-.1 1.3.1.4.3.1.4.5 0 .3-.9 1.5-.3 1.4.7-.1 2.5-6.1 2.5-7.3.2-1.3-1.2-2.8-.8-2.7z"/></g></g></svg>