<svg xmlns="http://www.w3.org/2000/svg" width="512" height="512" fill="none"><path fill="#026" d="M512 256a256 256 0 1 1-512 0L256 0a256 256 0 0 1 256 256Z"/><path fill="#026" d="M256 0v256H0A256 256 0 0 1 256 0Z"/><path fill="#EEE" d="M217.6 256H256v-38.4L140.7 102.3H256V0A256 256 0 0 0 0 256h102.3V140.7L217.6 256Z"/><path fill="#D80027" d="M256 76.6V25.4H144.7A257 257 0 0 0 25.4 144.7V256h51.2V76.6H256Z"/><path fill="#D80027" d="M256 230.4V256L102.2 102.2H128l128 128.2Z"/><path fill="#6DA544" d="M400 316h-32a16 16 0 1 0 0 32h32a16 16 0 1 0 0-32Z"/><path fill="#85693D" d="M384 188a32 32 0 1 0 0-64 32 32 0 0 0 0 64Z"/><path fill="#ACABB1" d="M384 252a48 48 0 1 0 0-96 48 48 0 0 0 0 96Z"/><path fill="#338AF3" d="M336 204v77c0 36 48 48 48 48s48-12 48-48v-77h-96Z"/><path fill="#818085" d="M336 204a16 16 0 1 0-32 0v96a16 16 0 1 0 32 0v-96Zm128 0a16 16 0 1 0-32 0v96a16 16 0 1 0 32 0v-96Z"/><path fill="#6DA544" d="m336 204 48 112 48-112h-96Z"/><path fill="#FFC635" fill-rule="evenodd" d="m296.7 367.5 11.4 6 .5.2-1.3 3-1.2 2.7 2.8 1.3a182.7 182.7 0 0 0 150.3 0l2.8-1.3-1.3-2.8-1.3-2.9.6-.3c3.9-1.8 7.7-3.8 11.4-6l4.6-2.6-4.6-2.7-9.5-6c-.1-4.1-.4-8.2-.7-12.1l-.5-4.9-4.2 2.4a149 149 0 0 1-11.6 6l-6.2 2.8 1.8 4.9a150.6 150.6 0 0 1-113.2-.1l2-4.8-6.2-2.8c-3.9-1.8-7.8-3.8-11.6-6l-4.2-2.4-.4 4.9-.6 12c-3.1 2.2-6.4 4.2-9.7 6.1l-4.6 2.7 4.7 2.7Z" clip-rule="evenodd"/></svg>