<svg xmlns="http://www.w3.org/2000/svg" width="512" height="512" fill="none"><path fill="#EEE" d="M128 477.8A254.8 254.8 0 0 0 256 512c46.6 0 90.3-12.5 128-34.2V34.2A254.8 254.8 0 0 0 256 0c-46.6 0-90.3 12.5-128 34.2v443.6Z"/><path fill="#338AF3" d="M0 256A256 256 0 0 1 144 25.6v460.6A256 256 0 0 1 0 256v-.1Zm512 0A256 256 0 0 0 368 25.7v460.6A256 256 0 0 0 512 256Z"/><path fill="#6DA544" d="m319 193-23.6 23.6a55.5 55.5 0 0 1-39.4 95 55.7 55.7 0 0 1-39.4-95L193 193a89 89 0 1 0 126 0Z"/><path fill="#ACABB1" d="M322.9 299.3 279.6 256l41.2-41.2L319 193l-11.7-11.8-51.2 51.2-51.2-51.2-11.7 11.8-2 21.8 41.3 41.2-43.3 43.3 23.6 23.6 43.3-43.3 43.3 43.3 23.6-23.6Z"/></svg>