<svg xmlns="http://www.w3.org/2000/svg" width="512" height="512" fill="none"><circle cx="256" cy="256" r="256" fill="#0052B4"/><path fill="#D80027" fill-rule="evenodd" d="M256 0c53.6 0 103.2 16.4 144.3 44.5H111.7A254.8 254.8 0 0 1 256 0Zm0 512c53.5 0 103.2-16.4 144.3-44.5H111.7c41 28 90.8 44.5 144.3 44.5Z" clip-rule="evenodd"/><path fill="#D80027" d="M241.5 417.6c-3.5-3-85.7-74.5-85.7-161.6S238 97.4 241.5 94.4L256 82l14.5 12.4c3.5 3 85.7 74.4 85.7 161.6 0 87.1-82.2 158.6-85.7 161.6L256 430l-14.5-12.4Z"/><path fill="#338AF3" d="M334 256c0-78-78-144.7-78-144.7s-78 66.8-78 144.7a150 150 0 0 0 17.5 66.8h121a150 150 0 0 0 17.4-66.8Z"/><path fill="#0052B4" d="M334 256a150 150 0 0 1-17.5 66.8L256 333.9l-60.5-11.1a150 150 0 0 1-17.4-66.8h155.8Z"/><path fill="#FFDA44" d="M256 400.7s37.5-32.2 60.5-78h-121c23 45.8 60.5 78 60.5 78Z"/><path fill="#6DA544" d="M206 211.5h100l-50 50-50-50Z"/><path fill="#A2001D" d="M239.3 244.9h33.4V345h-33.4V245Z"/></svg>