<svg xmlns="http://www.w3.org/2000/svg" width="512" height="512" fill="none"><circle cx="256" cy="256" r="256" fill="#6DA544"/><path fill="#FFDA44" fill-rule="evenodd" d="M102.4 51.2A255.6 255.6 0 0 0 0 256c0 83.7 40.2 158.1 102.4 204.8L512 256 102.4 51.2Z" clip-rule="evenodd"/><path fill="#EEE" fill-rule="evenodd" d="M102.4 51.2 512 256 102.4 460.8a257.3 257.3 0 0 1-21.4-18L454.8 256 81 69.1c6.8-6.3 14-12.3 21.4-18Z" clip-rule="evenodd"/><path fill="#D80027" fill-rule="evenodd" d="M75 75A255.2 255.2 0 0 0 0 256c0 70.7 28.7 134.7 75 181l181-181L75 75Z" clip-rule="evenodd"/><path fill="#333" fill-rule="evenodd" d="M75 75c-6 6-11.8 12.4-17.2 19l162 162-162 162c5.4 6.6 11.1 13 17.2 19l181-181L75 75Z" clip-rule="evenodd"/></svg>