<svg xmlns="http://www.w3.org/2000/svg" viewBox="0 0 512 512"><circle cx="256" cy="256" r="256" fill="#eee"/><path d="M256 0c-45.261 0-87.769 11.762-124.661 32.372v447.256C168.232 500.238 210.739 512 256 512c141.384 0 256-114.616 256-256S397.384 0 256 0z" fill="#6da544"/><path d="M132.092 31.951a256.545 256.545 0 0 0-40.676 27.983L287.481 256 91.415 452.066a256.636 256.636 0 0 0 40.676 27.983L512 256 132.092 31.951z" fill="#eee"/><path d="M110.47 45.382a257.592 257.592 0 0 0-22.45 17.44L256 256 88.019 449.178a257.398 257.398 0 0 0 22.45 17.44L468.178 256 110.47 45.382z" fill="#ffda44"/><path d="M91.415 59.934A257.758 257.758 0 0 0 74.98 74.98L233.739 256 74.98 437.02a256.605 256.605 0 0 0 16.435 15.046L287.481 256 91.415 59.934z"/><path d="M74.98 74.98c-99.974 99.974-99.974 262.065 0 362.04L256 256 74.98 74.98z" fill="#d80027"/></svg>