<svg xmlns="http://www.w3.org/2000/svg" viewBox="0 0 512 512"><circle cx="256" cy="256" r="256" fill="#eee"/><path d="M218 154l38-84 38 84-140 140-84-38 84-38 140 140-38 84-38-84 140-140 84 38-84 38z" fill="#6da544"/><path d="M244.5 29.5c0 40.55-11.2 78.45-30.66 110.8l-49.06-49.06a45.12 45.12 0 0 0-63.64 0l-9.9 9.9a45.12 45.12 0 0 0 0 63.64l49.06 49.06A214.17 214.17 0 0 1 29.5 244.5v23c40.55 0 78.45 11.2 110.8 30.66l-49.06 49.06a45.12 45.12 0 0 0 0 63.64l9.9 9.9a45.12 45.12 0 0 0 63.64 0l49.06-49.06a214.17 214.17 0 0 1 30.66 110.8h23c0-40.55 11.2-78.45 30.66-110.8l49.06 49.06a45.12 45.12 0 0 0 63.64 0l9.9-9.9a45.12 45.12 0 0 0 0-63.64l-49.06-49.06a214.17 214.17 0 0 1 110.8-30.66v-23c-40.55 0-78.45-11.2-110.8-30.66l49.06-49.06a45.12 45.12 0 0 0 0-63.64l-9.9-9.9a45.12 45.12 0 0 0-63.64 0l-49.06 49.06A214.17 214.17 0 0 1 267.5 29.5h-23zM256 92.23a233.83 233.83 0 0 0 27.7 62.53l-27.7 27.7-27.7-27.7A233.83 233.83 0 0 0 256 92.23zm-123.04 5.72c6.36 0 12.72 2.48 17.68 7.44l51.87 51.86a215.86 215.86 0 0 1-45.26 45.26l-51.86-51.87a24.73 24.73 0 0 1 0-35.35l9.9-9.9a24.92 24.92 0 0 1 17.67-7.44zm246.08 0c6.36 0 12.72 2.48 17.67 7.44l9.9 9.9a24.73 24.73 0 0 1 0 35.35l-51.86 51.87a215.86 215.86 0 0 1-45.26-45.26l51.87-51.86a24.92 24.92 0 0 1 17.68-7.44zm-162.34 73.5l25.16 25.15-45.26 45.26-25.15-25.16a236.7 236.7 0 0 0 45.25-45.25zm78.6 0a236.7 236.7 0 0 0 45.25 45.25l-25.15 25.16-45.26-45.26 25.16-25.15zm-39.3 39.3L301.25 256 256 301.25 210.75 256 256 210.75zm-101.24 17.54l27.7 27.71-27.7 27.7A233.83 233.83 0 0 0 92.23 256a233.83 233.83 0 0 0 62.53-27.7zm202.48 0A233.83 233.83 0 0 0 419.77 256a233.83 233.83 0 0 0-62.53 27.7l-27.7-27.7 27.7-27.7zM196.6 270.14l45.26 45.26-25.16 25.15a236.7 236.7 0 0 0-45.25-45.25l25.15-25.16zm118.8 0l25.15 25.16a236.7 236.7 0 0 0-45.25 45.25l-25.16-25.15 45.26-45.26zM157.25 309.5a215.86 215.86 0 0 1 45.26 45.26l-51.87 51.86a24.73 24.73 0 0 1-35.35 0l-9.9-9.9a24.73 24.73 0 0 1 0-35.35l51.86-51.87zm197.5 0l51.86 51.87a24.73 24.73 0 0 1 0 35.35l-9.9 9.9a24.73 24.73 0 0 1-35.35 0l-51.87-51.86a215.86 215.86 0 0 1 45.26-45.26zM256 329.54l27.7 27.7a233.83 233.83 0 0 0-27.7 62.53 233.83 233.83 0 0 0-27.7-62.53l27.7-27.7z" fill="#333"/></svg>