<svg xmlns="http://www.w3.org/2000/svg" width="512" height="512" fill="none"><g clip-path="url(#a)"><circle cx="256" cy="256" r="256" fill="#EEE"/><path fill="#6DA544" fill-rule="evenodd" d="M153.8 217.5A224.2 224.2 0 0 1 29.6 255v2.3c46 0 88.6 13.7 124.2 37.3l38.5-38.5-38.5-38.5Zm63.8 140.7a224.2 224.2 0 0 1 37.3 124.2h2.3a224 224 0 0 1 37.3-124.2L256 319.7l-38.4 38.5Zm140.7-63.7a224.2 224.2 0 0 1 124.2-37.3v-2.3c-46 0-88.6-13.8-124.2-37.4L319.8 256l38.5 38.5Zm-63.8-140.7a224.2 224.2 0 0 1-37.3-124.2H255a224 224 0 0 1-37.3 124.2l38.5 38.5 38.4-38.5ZM319.8 256 256 192.3 192.3 256l63.8 63.7 63.7-63.7Z" clip-rule="evenodd"/><path fill="#333" fill-rule="evenodd" d="M282.5 112.3a216.3 216.3 0 0 1-16.4-82.7h-20.3a216.3 216.3 0 0 1-31.7 112.8l-44-44.1A50.7 50.7 0 0 0 98.3 170l44 44a216.4 216.4 0 0 1-112.8 32v20a216.3 216.3 0 0 1 113 31.9l-44.2 44a50.7 50.7 0 1 0 71.7 71.7l44-44a216.4 216.4 0 0 1 31.8 112.7h20.3a216.3 216.3 0 0 1 31.8-112.9l44.2 44.2a50.7 50.7 0 0 0 71.7-71.7L369.6 298a216.4 216.4 0 0 1 112.8-32v-20a216.3 216.3 0 0 1-112.8-32l44.2-44.1A50.7 50.7 0 1 0 342 98.3l-44.2 44.2c-6-9.6-11-19.7-15.4-30.2ZM89.7 256a234.3 234.3 0 0 1 65.8 28.9l28.9-28.9-28.9-28.9A234.3 234.3 0 0 1 89.7 256Zm80.8-39.3 26.6 26.6 46.2-46.2-26.6-26.6a234.3 234.3 0 0 1-46.2 46.2Zm33.4-59.1L157.3 111a32.7 32.7 0 0 0-46.2 46.2l46.6 46.6a216.3 216.3 0 0 0 46.2-46.2Zm23.3-2.2 28.9 29 28.7-28.8A234.2 234.2 0 0 1 256 89.8a234.4 234.4 0 0 1-28.7 65.6ZM111 354.8l46.6-46.6a216.3 216.3 0 0 1 46.2 46.2L157.3 401a32.7 32.7 0 1 1-46.2-46.2Zm84-38c7.8 7.7 15 16 21.6 24.8l26.6-26.7-46.2-46.2-26.6 26.6c8.7 6.6 17 13.7 24.7 21.5Zm50.9 76a234.3 234.3 0 0 0-18.9-36.2l29-29 28.7 28.8a234.3 234.3 0 0 0-28.9 65.8c-2.6-10-6-19.8-10-29.4Zm49.3-222.2L268.8 197l46.2 46.2 26.5-26.5a234.2 234.2 0 0 1-46.3-46.2Zm59 33.3a216.2 216.2 0 0 1-46.2-46.2l46.7-46.7a32.7 32.7 0 0 1 46.2 46.2L354.4 204Zm2.2 23.3L327.7 256l28.8 28.8a234.2 234.2 0 0 1 65.6-28.8 234.3 234.3 0 0 1-65.6-28.8ZM315 268.7l26.5 26.5a234.2 234.2 0 0 0-46.3 46.2L268.9 315l46.2-46.2ZM354.8 401l-46.7-46.7a216.3 216.3 0 0 1 46.3-46.2l46.6 46.7a32.7 32.7 0 1 1-46.2 46.2Zm-98.7-98.8L209.8 256l46.3-46.2 46.2 46.2-46.2 46.2Z" clip-rule="evenodd"/></g><defs><clipPath id="a"><path fill="#fff" d="M0 0h512v512H0z"/></clipPath></defs></svg>