<svg xmlns="http://www.w3.org/2000/svg" viewBox="0 0 100 100"><mask id="a"><circle cx="50" cy="50" r="50" fill="#fff"/></mask><g mask="url(#a)"><polygon fill="#00247d" points="35.72 0 35.7 0 16.41 0 16.41 0 35.72 0"/><polygon fill="#fff" points="-0.22 72.34 0 72.73 0 72.41 -0.22 72.34"/><polygon fill="#00247d" points="0 72.73 0 79.24 2.68 77.4 0 72.73"/><polygon fill="#00247d" points="2.59 0 16.41 0 16.41 0 0 0 0 0 2.59 0 2.59 0"/><path fill="#00247d" d="M44 0v45.9h-8.2.1H2.6v.1H0v26.4L5.4 74l2.1-5.4 2.1 5.5 5.6-1.8-2.9 5.1 4.8 3.3-5.7.9.4 5.8-4.3-4-4.3 4 .4-5.8L0 81v19h100V86.9l-1-1-2.8 2.5.3-3.7-3.6-.5 3-2.1-1.9-3.2 3.6 1.1 1.3-3.4 1.1 2.7V0H44zm49 42.8 1.3 2.5 2.7.4-2 1.9.5 2.7L93 49l-2.4 1.3.5-2.7-2-2 2.7-.4zm-16-36 4.3 1.4L82.9 4l1.7 4.2 4.3-1.3-2.3 3.8 3.7 2.6-4.4.6.3 4.5-3.3-3-3.3 3 .4-4.5-4.4-.6 3.7-2.6zm-20 24 4.3 1.4 1.6-4.2 1.7 4.2 4.3-1.4-2.3 4 3.7 2.5-4.4.6.3 4.5-3.3-3-3.3 3 .4-4.5-4.4-.6 3.7-2.6z"/><path fill="#fff" d="M5.3 0h8.3v18.4H44v-3H29l15-10V0h-8L16.3 13V0H2.6v13L0 11.4v7h5.3zm11.1 14.8L38.8 0H44L21.2 15.3h-4.8z"/><polygon fill="#fff" points="2.59 45.92 16.41 45.92 16.41 32.95 35.83 45.92 43.98 45.92 43.98 45.91 20.85 30.64 26.36 30.64 43.98 42.31 43.98 40.63 28.95 30.65 43.98 30.65 43.98 27.56 13.61 27.56 13.61 45.92 5.32 45.92 5.32 27.56 0 27.56 0 30.64 2.61 30.64 2.61 31.26 0 32.98 0 34.68 2.59 32.95 2.59 45.92"/><rect width="0.01" height="9.18" x="43.98" y="18.38" fill="#ce1124"/><polygon fill="#ce1124" points="5.32 45.92 13.61 45.92 13.61 27.56 43.98 27.56 43.98 18.38 13.61 18.38 13.61 0.01 5.32 0.01 5.32 18.38 0 18.38 0 27.56 5.32 27.56 5.32 45.92"/><rect width="2.59" fill="#00247d"/><polygon fill="#00247d" points="2.59 0 0 0 0 11.32 2.59 13.05 2.59 0"/><polygon fill="#ce1124" points="44 45.92 44 42.32 43.98 42.31 43.98 45.91 44 45.92"/><polygon fill="#ce1124" points="20.85 30.64 43.98 45.91 43.98 42.31 26.36 30.64 20.85 30.64"/><rect width="2.59" height="0.07" y="45.93" fill="#00247d"/><polygon fill="#00247d" points="2.59 45.92 2.59 32.95 0 34.68 0 45.92 2.59 45.92"/><polygon fill="#ce1124" points="2.61 30.64 0 30.64 0 32.98 2.61 31.26 2.61 30.64"/><polygon fill="#00247d" points="44 15.35 44 5.35 43.98 5.36 43.98 15.35 44 15.35"/><polygon fill="#00247d" points="43.98 15.35 43.98 5.36 28.95 15.35 43.98 15.35"/><polygon fill="#00247d" points="16.41 0 35.77 0 35.72 0 16.41 0 16.41 0"/><polygon fill="#00247d" points="35.92 0.01 35.77 0 16.41 0 16.41 13.04 35.92 0.01"/><polygon fill="#ce1124" points="43.98 0.02 38.8 0.02 16.43 14.79 16.43 15.3 21.16 15.3 43.98 0.02"/><polygon fill="#00247d" points="44 40.65 44 30.65 43.98 30.65 43.98 40.63 44 40.65"/><polygon fill="#00247d" points="43.98 40.63 43.98 30.65 28.95 30.65 43.98 40.63"/><polygon fill="#00247d" points="16.41 46 35.7 46 35.92 45.98 35.83 45.92 16.41 45.92 16.41 46"/><polygon fill="#00247d" points="16.41 45.92 35.83 45.92 16.41 32.95 16.41 45.92"/><polygon fill="#fff" points="3.21 87.4 7.5 83.44 11.79 87.4 11.36 81.58 17.13 80.7 12.32 77.4 15.22 72.34 9.64 74.05 7.5 68.62 5.36 74.05 0 72.41 0 72.73 2.68 77.4 0 79.24 0 81.02 3.64 81.58 3.21 87.4"/><polygon fill="#fff" points="97.58 79.99 94.07 78.92 95.9 82.1 92.87 84.18 96.5 84.73 96.23 88.4 98.93 85.91 100 86.89 100 79.27 98.93 76.57 97.58 79.99"/><polygon fill="#fff" points="59.97 37.94 59.65 42.4 62.93 39.36 66.22 42.4 65.9 37.94 70.32 37.26 66.63 34.73 68.86 30.85 64.58 32.16 62.93 28 61.29 32.16 57.01 30.85 59.24 34.73 55.55 37.26 59.97 37.94"/><polygon fill="#fff" points="79.97 13.94 79.65 18.4 82.93 15.36 86.22 18.4 85.9 13.94 90.32 13.26 86.63 10.73 88.86 6.85 84.58 8.16 82.93 4 81.29 8.16 77.01 6.85 79.24 10.73 75.55 13.26 79.97 13.94"/><polygon fill="#fff" points="91.08 47.59 90.61 50.31 93.05 49.03 95.49 50.31 95.03 47.59 97 45.67 94.27 45.27 93.05 42.8 91.83 45.27 89.1 45.67 91.08 47.59"/></g></svg>