<svg xmlns="http://www.w3.org/2000/svg" viewBox="0 0 512 512"><circle cx="256" cy="256" r="256" fill="#d80027" paint-order="markers stroke fill"/><circle cy="355" cx="256" r="111" fill="#ffda44" paint-order="markers stroke fill"/><path d="M283.71 42L256 58l-27.71-16v32l-27.72 16 27.72 16v32L256 122l27.71 16v-32l27.72-16-27.72-16z" fill="#ffda44"/><path d="M102.28 51.6a256 256 0 0 0-11.89 9.55L94 69 71 93l1.95-15.6a256 256 0 0 0-42.78 58.3L34 141l-12.37 12.37a256 256 0 0 0-9.48 25L54 190l-19-18 24-17 24 17-19 18 54-15-34-34 13-18 12 26 5-27-14-17 12-33zm307.41.06L400 72l12 33-14 17 5 27 12-26 13 18-34 34 54 15-19-18 24-17 24 17-19 18 41.65-11.57a256 256 0 0 0-9.61-25.4L478 141l3.79-5.24A256 256 0 0 0 439 77.05L441 93l-23-24 3.7-8.07a256 256 0 0 0-12.01-9.27zM41 322l-25 19-.7 1.46A256 256 0 0 0 111 466.94l7-1.94-34-34 28-69-10-21-25-19 17 37-23 24 3-24-15-25-15 25 3 24-23-24zm394 0l-25 19-10 21 28 69-34 34 6.7 1.86a256 256 0 0 0 95.95-124.49L496 341l-25-19 17 37-23 24 3-24-15-25-15 25 3 24-23-24z" fill="#ffda44" paint-order="markers stroke fill"/></svg>