<svg xmlns="http://www.w3.org/2000/svg" width="512" height="512" fill="none"><g clip-path="url(#a)"><circle cx="256" cy="256" r="256" fill="#D80027"/><path fill="#FFDA44" d="M256 244a111 111 0 1 0 0 222 111 111 0 0 0 0-222ZM228.3 42v32l-27.7 16 27.7 16v32l27.7-16 27.7 16v-32l27.7-16-27.7-16V42L256 58l-27.7-16Z"/><path fill="#FFDA44" fill-rule="evenodd" d="M450.4 89.5 450 93l1.8-1.9a256.7 256.7 0 0 1 23.5 32.8L463 141l34 34-54 15 19-18-24-17-24 17 19 18-54-15 34-34-13-18-12 26-5-27 14-17-12-33 10-21 7-5.3c3 2 5.9 4.2 8.8 6.4L403 69l23 24-3-24 2.8-4.6c8.8 7.8 17 16.2 24.6 25Zm30.5 44c2.5 4.8 5 9.6 7.3 14.5l-.2 1-7.1-15.5ZM396.7 470A257 257 0 0 0 490 360l-9-18.9-25-19 17 37-23 24 3-24-15-25-15 25 3 24-23-24 17-37-25 19-10 21 28 69-34 34 17.7 5ZM101.2 52l8.8-6.3 7 5.3 10 21-12 33 14 17-5 27-12-26-13 18 34 34-54 15 19-18-24-17-24 17 19 18-54-15 34-34-12.3-17c7-11.7 14.8-22.6 23.5-32.9L62 93l-.4-3.5a243 243 0 0 1 24.6-25.1L89 69l-3 24 23-24-7.8-17Zm14.1 418A257 257 0 0 1 22 360l9-19 25-19-17 37 23 24-3-24 15-25 15 25-3 24 23-24-17-37 25 19 10 21-28 69 34 34-17.7 5ZM23.8 148c2.3-4.9 4.8-9.7 7.3-14.5L24 149l-.2-1Z" clip-rule="evenodd"/></g><defs><clipPath id="a"><path fill="#fff" d="M0 0h512v512H0z"/></clipPath></defs></svg>