<svg xmlns="http://www.w3.org/2000/svg" width="512" height="512" fill="none"><path fill="#EEE" d="M477.8 384A254.8 254.8 0 0 0 512 256c0-46.6-12.5-90.3-34.2-128H34.2A254.8 254.8 0 0 0 0 256c0 46.6 12.5 90.3 34.2 128h443.6Z"/><path fill="#338AF3" d="M256 512A256 256 0 0 1 25.6 368h460.6A256 256 0 0 1 256 512h-.1Zm0-512A256 256 0 0 0 25.7 144h460.6A256 256 0 0 0 256 0Zm-96.7 274.5 8.3 25.5h26.9l-21.7 15.7 8.2 25.5-21.7-15.7-21.6 15.7 8.2-25.5-21.7-15.7h26.9l8.2-25.5Zm0-110.8 8.3 25.5h26.9L172.8 205l8.2 25.5-21.7-15.8-21.6 15.8 8.2-25.5-21.7-15.8h26.9l8.2-25.5Zm193.4 110.8 8.2 25.5h26.9L366 315.7l8.2 25.5-21.6-15.7-21.7 15.7 8.2-25.5-21.7-15.7h26.9l8.3-25.5Zm0-110.8 8.2 25.5h26.9L366 205l8.2 25.5-21.6-15.8-21.7 15.8 8.2-25.5-21.7-15.8h26.9l8.3-25.5ZM256 219l8.3 25.6H291l-21.7 15.8 8.3 25.5L256 270l-21.7 15.8 8.3-25.5-21.7-15.8h26.8L256 219Z"/></svg>