<svg xmlns="http://www.w3.org/2000/svg" viewBox="0 0 512 512"><path d="M512 256c0 141.384-114.616 256-256 256S0 397.384 0 256 256 0 256 0s256 114.616 256 256z" fill="#a2001d"/><path d="M0 256C0 114.616 114.616 0 256 0s256 114.616 256 256" fill="#0052b4"/><path fill="#f0f0f0" d="M345.043 322.783L256 311.652l-89.043 11.131V189.217h178.086z"/><circle cx="256" cy="267.13" r="44.522" fill="#0052b4"/><circle cx="256" cy="267.13" r="22.261" fill="#a2001d"/><path fill="#6da544" d="M222.609 211.478h66.782L256 244.87z"/><path fill="#ffda44" d="M244.87 233.739h22.261v66.783H244.87z"/><path fill="#6da544" d="M291.617 293.843h-71.236l-53.424 28.94h178.086z"/></svg>