<svg xmlns="http://www.w3.org/2000/svg" width="512" height="512" viewBox="0 0 512 512"><mask id="a"><circle cx="256" cy="256" r="256" fill="#fff"/></mask><g mask="url(#a)"><path fill="#ffda44" d="M0 0h512v512H0z"/><path fill="none" stroke="#d80027" stroke-linecap="round" stroke-linejoin="round" stroke-width="18" d="m161 201 95-78 95 78"/><path fill="#00b1eb" d="M235 231zM278 231h-1z"/><path fill="#eee" d="M278 231h-1zM235 231z"/><path fill="#6da544" d="m256 134-99 72 6 22 51-32 42 25 42-25 51 32 6-22-99-72z"/><path fill="#333" d="m256 191-28 60-9-21-10 21-7-16-10 21-7-16-13 27 14 23h140l14-23-12-27-8 16-10-21-7 16-10-21-9 21zm-62 134zm124 0z"/><path fill="#338af3" d="m183 290 11 32h124l11-32h-73z"/><path fill="none" stroke="#eee" stroke-linecap="round" stroke-linejoin="round" stroke-width="8" d="m256 133 100 73-38 117H194l-38-117Z"/><rect width="9" height="142" x="252" y="170" fill="#ff9811" rx="4.5" ry="4.5"/><path fill="#ffda44" d="m262 165-6-16-5 16h-17l13 10-5 16h1l13-9 14 9-5-16 13-10h-16z"/><rect width="128" height="24" x="192" y="338" fill="#d80027" rx="12" ry="12"/><rect width="160" height="24" x="176" y="350" fill="#eee" rx="12" ry="12"/></g></svg>