<svg xmlns="http://www.w3.org/2000/svg" width="512" height="512" fill="none"><circle cx="256" cy="256" r="256" fill="#EEE"/><path fill="#0052B4" fill-rule="evenodd" d="M415.4 55.7a257.3 257.3 0 0 1 59 66.7H37.6a257.3 257.3 0 0 1 59-66.7h318.8Zm0 400.6a257.3 257.3 0 0 0 59-66.7H37.6a257.3 257.3 0 0 0 59 66.7h318.8Z" clip-rule="evenodd"/><path fill="#0052B4" d="M352.4 200.3H288l-32-55.6-32.1 55.6h-64.3l32.1 55.7-32 55.7h64.2l32.1 55.6 32.1-55.6h64.3L320.3 256l32-55.7Zm-57 55.7-19.7 34.2h-39.4L216.5 256l19.8-34.2h39.4l19.8 34.2ZM256 187.6l7.3 12.7h-14.6l7.3-12.7Zm-59.2 34.2h14.7l-7.4 12.7-7.3-12.7Zm0 68.4 7.3-12.7 7.4 12.7h-14.7Zm59.2 34.2-7.3-12.7h14.6l-7.3 12.7Zm59.2-34.2h-14.7l7.4-12.7 7.3 12.7Zm-14.7-68.4h14.7l-7.3 12.7-7.4-12.7Z"/></svg>