<svg xmlns="http://www.w3.org/2000/svg" width="512" height="512" fill="none"><circle cx="256" cy="256" r="256" fill="#D80027"/><path fill="#EEE" d="m403.4 160-37.8 33.7 21.6 94.4a29.8 29.8 0 0 1-39.6 34.6l-.6-.3-91-35-59.8 25.2-6.3 2.6 6.5 3.3 81.2 39.8-6 66-.1 2a5.7 5.7 0 0 1-11-3l-10-49.5-92.6-28.5a29.7 29.7 0 0 1-10.2-51.6l.5-.4L224 232l8.1-64.4.9-6.8-6.1 4-75 50.5L97.5 177l-1.5-1a5.7 5.7 0 1 1 8-8l48 16 71-65.9a29.7 29.7 0 0 1 49.7 17v.6L288 232l51.7 39.2 5.5 4.2-.5-7.3-6.1-90.3 60.2-27.9 1.7-.7a5.7 5.7 0 0 1 7.8 6.1 5.7 5.7 0 0 1-4.8 4.8l-.1-.1Z"/></svg>