<svg xmlns="http://www.w3.org/2000/svg" width="512" height="512" fill="none"><g clip-path="url(#a)"><path fill="#EEE" d="M482 376.5a256 256 0 0 1-452 0L256 320l226 56.5Z"/><path fill="#D80027" d="M477.8 384A254.8 254.8 0 0 0 512 256l-256-64L0 256c0 46.6 12.5 90.3 34.2 128h443.6Z"/><path fill="#EEE" d="M471.6 117.9A254.8 254.8 0 0 1 512 256H0c0-50.9 14.8-98.3 40.4-138.1L256 64l215.6 53.9Z"/><path fill="#D80027" d="M477.8 128H34.2a255.9 255.9 0 0 1 443.6 0Z"/></g><defs><clipPath id="a"><path fill="#fff" d="M0 0h512v512H0z"/></clipPath></defs></svg>