<svg xmlns="http://www.w3.org/2000/svg" width="512" height="512" fill="none"><g fill-rule="evenodd" clip-path="url(#a)" clip-rule="evenodd"><path fill="#D80027" d="M441.3 79.4 256 96 70.7 79.4A255.3 255.3 0 0 1 256 0c72.9 0 138.7 30.5 185.3 79.4Z"/><path fill="#EEE" d="M488.2 148.1 256 169 23.8 148.1A256.6 256.6 0 0 1 77 73h358a257 257 0 0 1 53.2 75.1Z"/><path fill="#333" d="M509.4 219.2 256 242 2.6 219.2A254.2 254.2 0 0 1 24.8 146h462.4a254.2 254.2 0 0 1 22.2 73.2Z"/><path fill="#FFDA44" d="M509.3 293.2a258.1 258.1 0 0 0 0-74.2H2.7a258.1 258.1 0 0 0 0 74.2L256 315l253.3-21.8Z"/><path fill="#4A1F63" d="M25.9 368.3A254.2 254.2 0 0 1 2.7 293h506.6a252 252 0 0 1-23.2 75.3L256 389 25.9 368.3Z"/><path fill="#338AF3" d="M85.1 446.6A256.8 256.8 0 0 1 24.8 366h462.4a256.8 256.8 0 0 1-60.3 80.6L256 462 85.1 446.6Z"/><path fill="#6DA544" d="M435 439a255.2 255.2 0 0 1-179 73 255.2 255.2 0 0 1-179-73h358Z"/></g><defs><clipPath id="a"><path fill="#fff" d="M0 0h512v512H0z"/></clipPath></defs></svg>