<svg xmlns="http://www.w3.org/2000/svg" width="512" height="512" fill="none"><g clip-path="url(#a)"><circle cx="256" cy="256" r="256" fill="#EEE"/><path fill="#496E2D" d="M256 32a206 206 0 1 0 0 412 206 206 0 0 0 0-412Zm0 8a198 198 0 0 1 182 276h-43a158 158 0 0 0-73-222v8a151 151 0 0 1 64 214h-1v72a197 197 0 0 1-258 0v-72a151 151 0 0 1 63-214v-8a159 159 0 0 0-73 222H74A198 198 0 0 1 256 40Zm0 12A186 186 0 0 0 73 271a8 8 0 0 0 9 7 8 8 0 0 0 7-9l-3-31a170 170 0 1 1 337 31 8 8 0 0 0 7 9 8 8 0 0 0 9-7A187 187 0 0 0 256 52ZM63 355a8 8 0 0 0-7.8 5.9 8 8 0 0 0 .8 6.1 238 238 0 0 0 400 0 8 8 0 0 0-3-11 8 8 0 0 0-11 3 222 222 0 0 1-372 0 8 8 0 0 0-7-4Z"/><path fill="#FFC635" d="M199 86v51l-25 153-38 31h240l-38-31-25-153V86H199Z"/><path fill="#FF9811" d="M136 321h240v24H136v-24Z"/><path fill="#EEE" d="M136 345h240v24H136v-24Z"/><path fill="#6DA544" d="M136 369h240v24H136v-24Z"/><path fill="#0052B4" d="M191 365a8 8 0 1 0 0-16 8 8 0 0 0 0 16Zm130 0a8 8 0 1 1 0-16 8 8 0 0 1 0 16Z"/><path fill="#D80027" d="M256 252a20 20 0 0 0-20 20 20 20 0 0 0-17-10 20 20 0 0 0 0 40h3v71h-1c-5 0-10 4-10 10v8c0 5 5 10 10 10h1v1c0 6 5 10 10 10h48c6 0 10-4 10-10v-1h1c6 0 10-5 10-10v-8c0-6-4-10-10-10h-1v-71h3a20 20 0 0 0 0-40 20 20 0 0 0-17 11v-1a20 20 0 0 0-20-20Z"/></g><defs><clipPath id="a"><path fill="#fff" d="M0 0h512v512H0z"/></clipPath></defs></svg>