<svg xmlns="http://www.w3.org/2000/svg" width="512" height="512" fill="none"><path fill="#EEE" d="M477.8 384A254.8 254.8 0 0 0 512 256c0-46.6-12.5-90.3-34.2-128H34.2A254.8 254.8 0 0 0 0 256c0 46.6 12.5 90.3 34.2 128h443.6Z"/><path fill="#496E2D" d="M256 512A256 256 0 0 1 25.6 368h460.6A256 256 0 0 1 256 512h-.1Z"/><path fill="#FF9811" d="M256 0A256 256 0 0 0 25.7 144h460.6A256 256 0 0 0 256 0Z"/><path fill="#026" fill-rule="evenodd" d="m250.5 284 4.5 44.4c-3.4 0-6.8-.3-10-.8a8 8 0 0 0-15.5-4.1 71.7 71.7 0 0 1-9-4.3l26.1-36.3v-4.3c2 .8 4 1.3 6 1.6l-2 3.7Zm8.5-3.8 2 3.7-4.4 44.5c3.4 0 6.7-.3 10-.8a8 8 0 0 1 15.4-4.1 69 69 0 0 0 9.1-4.3L265 282.9l-.1-4.3c-1.9.8-3.8 1.3-5.9 1.6Zm11.5-4.8 3.6 2.2 18.4 40.8c2.9-1.7 5.6-3.6 8.2-5.7a8 8 0 0 1 11.3-11.3c2.1-2.6 4-5.4 5.7-8.3L277 274.7l-2.2-3.6c-1.3 1.6-2.7 3-4.3 4.3Zm7.5-9.9 4.2.1 36.3 26.1c1.7-2.9 3.1-5.9 4.4-9a8 8 0 0 1 4-15.5c.6-3.2.8-6.6.9-10l-44.5 4.5-3.7-2c-.3 2-.8 4-1.6 5.8Zm1.6-12.3 3.7-2 44.5 4.4c0-3.4-.3-6.7-.8-10a8 8 0 0 1-4.1-15.4 71.6 71.6 0 0 0-4.4-9l-36.3 26-4.2.1a23 23 0 0 1 1.6 6Zm-4.8-11.5 2.2-3.6 40.7-18.4a72 72 0 0 0-5.7-8.2 8 8 0 0 1-11.3-11.3 72 72 0 0 0-8.2-5.7L274 235.3l-3.6 2.1c1.6 1.3 3 2.7 4.3 4.3Zm-10-7.5.2-4.2 26-36.3a53.3 53.3 0 0 0-9-4.3 8 8 0 0 1-15.4-4.2c-3.3-.5-6.6-.7-10-.8L261 229l-2.1 3.7c2 .3 4 .8 5.9 1.6Zm-12.2-1.6-2-3.7 4.4-44.5c-3.4 0-6.8.3-10 .8a8 8 0 0 1-15.5 4.2 71.7 71.7 0 0 0-9 4.3l26.1 36.3v4.2c2-.8 4-1.3 6-1.6Zm-11.5 4.8-3.6-2.1-18.4-40.8a72.3 72.3 0 0 0-8.3 5.7 8 8 0 0 1-11.3 11.3c-2 2.6-4 5.3-5.7 8.2l40.8 18.4 2.2 3.6a25 25 0 0 1 4.3-4.3Zm-7.5 10-4.3-.2-36.3-26c-1.6 2.8-3 5.8-4.3 9a8 8 0 0 1-4.1 15.4c-.5 3.3-.8 6.6-.8 10l44.5-4.4 3.7 2c.3-2 .8-4 1.6-5.9Zm-1.6 12.2-3.7 2-44.5-4.4c0 3.4.3 6.8.8 10a8 8 0 0 1 4.1 15.5c1.2 3.1 2.7 6.1 4.3 9l36.3-26.1h4.3c-.8-2-1.3-3.9-1.6-6Zm4.8 11.5-2.2 3.6-40.8 18.4c1.7 3 3.6 5.7 5.7 8.3a8 8 0 0 1 11.3 11.3c2.6 2 5.4 4 8.3 5.7l18.4-40.8 3.6-2.2a25 25 0 0 1-4.3-4.3Zm19 73.3a88 88 0 1 0 0-176 88 88 0 0 0 0 176Z" clip-rule="evenodd"/></svg>