<svg xmlns="http://www.w3.org/2000/svg" viewBox="0 0 512 512"><circle cx="256" cy="256" r="256" fill="#f0f0f0"/><g fill="#0052b4"><path d="M469.33 286.637c-21.333 0-21.333-19.506-42.667-19.506-21.333 0-21.333 19.506-42.665 19.506s-21.333-19.506-42.665-19.506c-21.333 0-21.333 19.506-42.667 19.506s-21.335-19.506-42.67-19.506c-21.333 0-21.333 19.506-42.665 19.506-21.33 0-21.33-19.506-42.663-19.506-21.335 0-21.335 19.506-42.67 19.506s-21.335-19.506-42.67-19.506c-21.33 0-21.33 19.506-42.663 19.506-21.218 0-21.341-19.291-42.332-19.497a256.239 256.239 0 0 0 4.103 34.449c17.004 2.497 18.493 19.18 38.231 19.18C64 320.769 64 301.265 85.33 301.265c21.335 0 21.335 19.504 42.67 19.504s21.335-19.504 42.67-19.504c21.333 0 21.333 19.504 42.663 19.504 21.333 0 21.333-19.504 42.665-19.504 21.335 0 21.335 19.504 42.67 19.504s21.335-19.504 42.667-19.504c21.333 0 21.333 19.504 42.665 19.504 21.333 0 21.333-19.504 42.665-19.504 21.335 0 21.335 19.504 42.667 19.504 19.739 0 21.228-16.682 38.233-19.18a256.564 256.564 0 0 0 4.105-34.449c-20.996.207-21.121 19.497-42.34 19.497zM426.663 333.913c-21.333 0-21.333 19.506-42.665 19.506s-21.333-19.506-42.665-19.506c-21.333 0-21.333 19.506-42.667 19.506-21.335 0-21.335-19.506-42.67-19.506-21.333 0-21.333 19.506-42.665 19.506-21.33 0-21.33-19.506-42.663-19.506-21.335 0-21.335 19.506-42.67 19.506s-21.335-19.506-42.67-19.506c-21.33 0-21.33 19.506-42.663 19.506-15.715 0-19.864-10.578-29.487-16.15a254.748 254.748 0 0 0 22.728 49.522c2.002.483 4.228.761 6.758.761 21.333 0 21.333-19.504 42.663-19.504 21.335 0 21.335 19.504 42.67 19.504s21.335-19.504 42.67-19.504c21.333 0 21.333 19.504 42.663 19.504 21.333 0 21.333-19.504 42.665-19.504 21.335 0 21.335 19.504 42.67 19.504s21.335-19.504 42.667-19.504c21.333 0 21.333 19.504 42.665 19.504s21.333-19.504 42.665-19.504c21.335 0 21.335 19.504 42.667 19.504 2.532 0 4.76-.278 6.763-.762a254.609 254.609 0 0 0 22.727-49.52c-9.623 5.572-13.773 16.15-29.49 16.15-21.331-.001-21.331-19.507-42.666-19.507zM506.044 200.941c-15.594 3.237-17.582 18.913-36.714 18.913-21.333 0-21.333-19.506-42.667-19.506-21.333 0-21.333 19.506-42.665 19.506s-21.333-19.506-42.665-19.506c-21.333 0-21.333 19.506-42.667 19.506s-21.335-19.506-42.67-19.506c-11.527 0-16.827 5.694-22.628 10.93v34.133c5.801-5.235 11.1-10.928 22.628-10.928 21.335 0 21.335 19.504 42.67 19.504s21.335-19.504 42.667-19.504c21.333 0 21.333 19.504 42.665 19.504s21.333-19.504 42.665-19.504c21.335 0 21.335 19.504 42.667 19.504 19.739 0 21.228-16.682 38.233-19.18 1.09 0 2.308-.011 3.555-.026a255.512 255.512 0 0 0-5.074-33.84zM487.344 146.274c-4.421 3.713-9.531 6.797-18.013 6.797-21.333 0-21.333-19.506-42.667-19.506-21.333 0-21.333 19.506-42.665 19.506s-21.333-19.506-42.665-19.506c-21.333 0-21.333 19.506-42.667 19.506s-21.335-19.506-42.67-19.506c-11.527 0-16.827 5.694-22.628 10.93v34.133c5.801-5.235 11.1-10.928 22.628-10.928 21.335 0 21.335 19.504 42.67 19.504C320 187.204 320 167.7 341.333 167.7s21.333 19.504 42.665 19.504S405.33 167.7 426.663 167.7c21.335 0 21.335 19.504 42.667 19.504 15.137 0 19.546-9.805 28.446-15.507a254.443 254.443 0 0 0-10.432-25.423zM428.485 66.835a33.574 33.574 0 0 0-1.822-.052c-21.333 0-21.333 19.506-42.665 19.506-21.333 0-21.333-19.506-42.665-19.506-21.333 0-21.333 19.506-42.668 19.506s-21.335-19.506-42.67-19.506c-11.527 0-16.827 5.694-22.628 10.93v34.133c5.801-5.235 11.1-10.928 22.628-10.928 21.335 0 21.335 19.504 42.67 19.504s21.335-19.504 42.667-19.504c21.333 0 21.333 19.504 42.665 19.504s21.333-19.504 42.665-19.504c21.335 0 21.335 19.504 42.667 19.504 1.314 0 2.541-.078 3.703-.217a257.21 257.21 0 0 0-44.547-53.37zM255.996 0h-.004.005zM321.432 8.454c-5.856 5.268-11.148 11.054-22.767 11.054-21.335 0-21.335-19.504-42.669-19.506h-.004C244.96.003 239.634 5.22 234.11 10.259v34.134c5.523-5.039 10.851-10.257 21.886-10.257 21.335 0 21.335 19.504 42.67 19.504C320 53.64 320 34.136 341.333 34.136c21.333 0 21.333 19.504 42.665 19.504 8.951 0 14.143-3.436 18.735-7.422-24.336-17.055-51.774-29.981-81.301-37.764zM298.665 486.984c-21.335 0-21.335-19.506-42.67-19.506-21.333 0-21.333 19.506-42.665 19.506-21.33 0-21.33-19.506-42.663-19.506-16.341 0-20.174 11.434-30.654 16.792 28.9 14.714 60.967 24.093 94.907 26.86 5.249-4.796 10.581-9.518 21.075-9.518 10.497 0 15.829 4.722 21.079 9.519 33.941-2.766 66.01-12.146 94.911-26.86-10.482-5.357-14.314-16.794-30.653-16.794-21.332.001-21.332 19.507-42.667 19.507zM383.998 420.202c-21.333 0-21.333-19.506-42.665-19.506-21.333 0-21.333 19.506-42.667 19.506-21.335 0-21.335-19.506-42.67-19.506-21.333 0-21.333 19.506-42.665 19.506-21.33 0-21.33-19.506-42.663-19.506-21.335 0-21.335 19.506-42.67 19.506s-21.335-19.506-42.67-19.506c-15.341 0-19.649 10.09-28.794 15.755a257.028 257.028 0 0 0 18.275 20.392c2.889-1.234 6.279-2.013 10.518-2.013 21.335 0 21.335 19.504 42.67 19.504s21.335-19.504 42.67-19.504c21.333 0 21.333 19.504 42.663 19.504 21.333 0 21.333-19.504 42.665-19.504 21.335 0 21.335 19.504 42.67 19.504S320 434.83 341.332 434.83s21.333 19.504 42.665 19.504 21.333-19.504 42.665-19.504c4.244 0 7.634.779 10.525 2.015a257.034 257.034 0 0 0 18.276-20.393c-9.146-5.664-13.454-15.755-28.8-15.755-21.333-.001-21.333 19.505-42.665 19.505z"/></g><g fill="#f0f0f0"><path d="M256 0h-.043.043zM255.315 256H256v-.685l-.685.685z"/></g><path fill="#496e2d" d="M289.391 256v-.001z"/><g fill="#0052b4"><path d="M256 133.565v75.213l-89.043-86.343zM133.566 256h75.21l-75.211-100.174-11.13 77.913z"/></g><path d="M256 133.565V0h-.043C114.592.024 0 114.629 0 256h133.566v-75.211L208.776 256h46.54l.685-.685v-46.537l-75.213-75.213H256z" fill="#f0f0f0"/><g fill="#d80027"><path d="M129.515 33.391a257.222 257.222 0 0 0-96.124 96.124V256h66.783V100.174H256V33.391H129.515z"/><path d="M256 224.519l-90.955-90.953h-31.48v.002L255.998 256H256v-31.481z"/></g><path fill="#6da544" d="M333.913 133.565h100.174L384 183.652z"/><g fill="#a2001d"><path d="M372.87 172.522h22.261v61.217H372.87zM372.87 333.913h22.261v61.217H372.87z"/></g><path d="M450.783 300.522c0-18.441-14.95-33.391-33.391-33.391-8.554 0-16.352 3.22-22.261 8.509V256h11.13v-22.261h-11.13v-11.13H372.87v11.13h-11.13V256h11.13v19.64c-5.909-5.289-13.707-8.509-22.261-8.509-18.441 0-33.391 14.95-33.391 33.391 0 9.887 4.301 18.767 11.13 24.882v19.64h111.304v-19.64c6.83-6.115 11.131-14.995 11.131-24.882z" fill="#ffda44"/><path d="M417.391 289.391c-3.511 0-5.969 1.542-7.414 2.834l-14.847 13.291h-22.26l-14.847-13.291c-1.445-1.292-3.903-2.834-7.414-2.834-6.137 0-11.13 4.993-11.13 11.13 0 4.323 2.331 7.054 3.72 8.299l7.411 6.636v7.326h66.783v-7.326l7.411-6.636c1.389-1.244 3.72-3.976 3.72-8.299-.002-6.137-4.995-11.13-11.133-11.13z" fill="#d80027"/></svg>