<svg xmlns="http://www.w3.org/2000/svg" width="512" height="512" fill="none"><g clip-path="url(#a)"><path fill="#EEE" d="M29.8 136A254.9 254.9 0 0 0 0 256c0 43.4 10.8 84.2 29.8 120h452.4c19-35.8 29.8-76.6 29.8-120 0-43.4-10.8-84.2-29.8-120H29.8Z"/><path fill="#D80027" d="M15.5 168a256.1 256.1 0 0 1 481 0h-481Z"/><path fill="#6DA544" d="M15.5 344h481a256.1 256.1 0 0 1-481 0Z"/><path fill="#FFC635" d="m256 95.9 19.4 83.6 56.1-65-21.6 83 79.8-31.4-57.7 63.5 85.3 9.2-80.7 29.3L408 316l-85-11.5 40.8 75.5-70-49.7L295 416l-39-76.4-38.9 76.4 1.2-85.8-70 49.7 40.8-75.5-85 11.5 71.3-47.9-80.7-29.3 85.3-9.3-57.7-63.4 79.8 31.5-21.6-83.1 56 65L256 95.9Z"/></g><defs><clipPath id="a"><path fill="#fff" d="M0 0h512v512H0z"/></clipPath></defs></svg>