<svg xmlns="http://www.w3.org/2000/svg" width="512" height="512" fill="none"><path fill="#EEE" d="M482.2 376c19-35.8 29.8-76.6 29.8-120 0-43.4-10.8-84.2-29.8-120H29.8A254.9 254.9 0 0 0 0 256c0 43.4 10.8 84.2 29.8 120h452.4Z"/><path fill="#333" d="M496.5 344a256.1 256.1 0 0 1-481 0h481Z"/><path fill="#A2001D" d="M496.5 168h-481a256.1 256.1 0 0 1 481 0Z"/><path fill="#496E2D" fill-rule="evenodd" d="M194.8 239.3h-49.4a22.3 22.3 0 0 1 21.6-16.7v-33.4c-30.7 0-55.7 25-55.7 55.7v27.8h83.5c3 0 5.5 2.5 5.5 5.6v11H89v33.5h144.7v-44.5a39 39 0 0 0-39-39Zm83.5 50v-100h-33.4v133.5h55.6v-33.4h-22.2Zm111.3-100v100h22.2v33.5H311.7V256H345v33.4h11.2V189.2h33.4Z" clip-rule="evenodd"/></svg>