<?xml version="1.0" encoding="UTF-8" standalone="no"?>
<svg
   xmlns:dc="http://purl.org/dc/elements/1.1/"
   xmlns:cc="http://creativecommons.org/ns#"
   xmlns:rdf="http://www.w3.org/1999/02/22-rdf-syntax-ns#"
   xmlns:svg="http://www.w3.org/2000/svg"
   xmlns="http://www.w3.org/2000/svg"
   xmlns:sodipodi="http://sodipodi.sourceforge.net/DTD/sodipodi-0.dtd"
   xmlns:inkscape="http://www.inkscape.org/namespaces/inkscape"
   width="3000"
   height="3000"
   viewBox="0 0 793.74999 793.75002"
   version="1.1"
   id="svg3625"
   inkscape:version="1.0.2 (1.0.2+r75+1)"
   sodipodi:docname="Flag_of_Iraq.svg">
  <defs
     id="defs3620" />
  <sodipodi:namedview
     id="base"
     pagecolor="#ffffff"
     bordercolor="#666666"
     borderopacity="1.0"
     inkscape:pageopacity="0.0"
     inkscape:pageshadow="2"
     inkscape:zoom="0.18007653"
     inkscape:cx="1500"
     inkscape:cy="1657.0681"
     inkscape:document-units="mm"
     inkscape:document-rotation="0"
     showgrid="false"
     units="px"
     inkscape:window-width="1680"
     inkscape:window-height="985"
     inkscape:window-x="0"
     inkscape:window-y="0"
     inkscape:window-maximized="1"
     inkscape:current-layer="svg3625"
     showborder="true"
     borderlayer="false"
     inkscape:showpageshadow="true" />
  <metadata
     id="metadata3623">
    <rdf:RDF>
      <cc:Work
         rdf:about="">
        <dc:format>image/svg+xml</dc:format>
        <dc:type
           rdf:resource="http://purl.org/dc/dcmitype/StillImage" />
        <dc:title></dc:title>
      </cc:Work>
    </rdf:RDF>
  </metadata>
  <g
     id="g2126">
    <path
       style="fill:#cd1026;stroke-width:0.264583"
       d="M 382.71979,793.45668 C 348.64548,792.36583 314.18768,786.59961 280.85521,776.41053 208.80376,754.38582 144.61798,712.36414 95.370713,654.97604 78.38781,635.18576 62.653444,612.52365 49.629221,589.09479 45.489873,581.64865 37.813266,566.23455 34.327719,558.3704 29.724342,547.9842 23.01875,530.98361 23.01875,529.69893 v -0.53226 H 396.875 770.73125 v 0.53226 c 0,1.28275 -6.59791,18.01082 -11.2694,28.5719 -3.50578,7.9257 -11.16573,23.31448 -15.343,30.82396 -36.4821,65.58373 -89.41745,118.51876 -155.02406,155.02316 -7.42458,4.13115 -22.83984,11.80973 -30.72439,15.30432 -37.83121,16.7676 -76.63649,27.29235 -117.70686,31.92444 -18.03836,2.03443 -37.81184,2.75447 -57.94375,2.10997 z M 163.66829,474.89012 c -2.5694,-0.32964 -3.45015,-0.59499 -3.54103,-1.06685 -0.10246,-0.53205 2.719,-2.67367 7.61857,-5.78281 4.55748,-2.89206 6.72779,-4.57465 8.29252,-6.42901 2.64387,-3.1332 3.07935,-4.72109 3.08257,-11.23992 0.005,-9.37594 -2.08287,-15.75861 -9.16701,-28.02893 -2.35285,-4.07532 -2.75134,-4.92305 -2.44355,-5.19829 0.20227,-0.18087 1.43933,-0.7197 2.74901,-1.1974 3.69469,-1.34758 8.38758,-3.73232 12.30313,-6.25197 1.96453,-1.26416 3.77482,-2.42888 4.02286,-2.58826 0.24805,-0.15939 0.51715,-0.2236 0.59802,-0.14275 0.0809,0.0809 -0.0464,1.08262 -0.28293,2.22613 -0.55266,2.67237 -0.40529,5.87369 0.34806,7.56107 2.12318,4.75555 7.69048,7.09004 18.20045,7.63188 5.21119,0.26866 16.96603,0.0574 17.69313,-0.31792 0.46308,-0.23908 0.487,-0.55875 0.36868,-4.92548 -0.1071,-3.9528 -0.21973,-4.94528 -0.73351,-6.4638 -0.62807,-1.85629 -2.205,-3.98417 -3.18252,-4.29442 -0.72953,-0.23154 -0.64644,-0.61807 0.20786,-0.96698 4.79891,-1.95987 7.7659,-3.90422 14.15653,-9.27708 1.71059,-1.43817 3.22864,-2.54164 3.37343,-2.45213 0.16906,0.10445 0.26327,4.97617 0.26327,13.61252 0,10.51991 0.072,13.47581 0.33073,13.56902 0.73063,0.26331 132.80919,-0.27583 133.07658,-0.54322 0.40288,-0.40288 0.61003,-14.8663 0.24093,-16.82157 -0.43516,-2.30537 -1.4261,-4.28252 -2.46324,-4.91485 -1.33364,-0.81309 -2.98172,-0.72276 -3.9193,0.21485 -1.20484,1.20483 -1.41637,2.49121 -1.46439,8.90534 -0.0443,5.9146 -0.16751,6.76093 -1.10763,7.60743 -0.48754,0.43903 -3.27324,0.46014 -52.3517,0.39688 l -51.83677,-0.0668 -0.0698,-8.85491 -0.0698,-8.85489 16.34165,-16.37599 c 9.74971,-9.77019 20.7709,-20.49592 27.32188,-26.58941 13.30058,-12.37171 22.29265,-20.82681 27.696,-26.04199 2.22388,-2.14643 4.15071,-3.9026 4.28189,-3.9026 0.13115,0 0.38084,0.56555 0.55485,1.25677 0.74234,2.94865 4.61412,8.73453 7.73475,11.55851 1.02333,0.92604 1.54178,1.57295 1.38576,1.72897 -0.13714,0.13714 -1.32014,0.42357 -2.6289,0.63654 -1.30876,0.21296 -2.70494,0.5121 -3.10266,0.66474 -0.79069,0.30347 -37.33898,36.54866 -48.49485,48.09265 -8.11866,8.4011 -12.56226,13.28637 -12.56226,13.8108 0,0.32027 3.04388,0.35202 21.23282,0.22148 19.81554,-0.14224 26.88685,-0.30911 41.19128,-0.97211 4.03453,-0.18698 5.73212,-0.35919 5.88293,-0.59674 0.11658,-0.18364 0.21553,-0.81015 0.21992,-1.39224 0.0109,-1.43173 0.65781,-4.08191 1.36277,-5.58162 2.07531,-4.41507 5.75352,-7.08501 14.90924,-10.82238 2.03729,-0.83164 4.55594,-1.91601 5.597,-2.40975 1.04105,-0.49374 2.01771,-0.8977 2.17035,-0.8977 0.15264,0 0.64331,0.45519 1.0904,1.01153 1.15586,1.43832 3.86895,3.40513 7.54642,5.47071 5.45475,3.06384 7.28078,4.56268 8.95157,7.34771 1.83443,3.05779 1.78564,2.18144 1.70455,30.62005 l -0.0728,25.53229 -96.47147,0.0665 -96.47149,0.0665 -0.84818,2.67558 c -4.34676,13.71198 -16.6323,21.59614 -30.81661,19.77633 z m 52.61764,-2.84162 c -2.16996,-0.98568 -3.4102,-3.18061 -3.24684,-5.74617 0.125,-1.96305 0.98455,-3.43691 2.64541,-4.53602 0.96251,-0.63696 1.3604,-0.72985 3.12592,-0.72985 1.76551,0 2.1634,0.0929 3.12591,0.72985 1.61466,1.06855 2.50886,2.56556 2.6434,4.42542 0.1355,1.87328 -0.26842,3.18699 -1.36328,4.43397 -1.6227,1.84814 -4.63343,2.46623 -6.93052,1.4228 z m 185.2482,-20.02793 c -0.0887,-0.23106 -0.16121,-28.57238 -0.16121,-62.98073 0,-54.11356 0.0513,-62.58028 0.37978,-62.70636 0.21169,-0.0812 1.99752,0.87453 4.0349,2.15943 8.80332,5.55191 11.37515,6.9442 15.09834,8.17356 1.20054,0.3964 2.18281,0.86156 2.18281,1.03365 0,0.55155 -1.08741,2.37455 -2.41192,4.04349 -0.70786,0.89194 -1.58469,2.26116 -1.94849,3.04271 l -0.66151,1.42097 -0.003,38.96646 -0.003,38.96643 0.59532,0.21971 c 1.16371,0.42947 3.68345,0.56383 5.40789,0.28837 2.49164,-0.39804 4.25813,-1.36522 7.32198,-4.00891 1.47516,-1.27289 2.82866,-2.31855 3.00778,-2.32371 0.17915,-0.005 0.37674,0.2585 0.43913,0.58592 1.21962,6.40041 1.44209,7.1627 5.8107,19.9099 2.10881,6.15336 2.82292,9.06036 2.90145,11.81121 l 0.048,1.68254 -20.93931,0.0677 c -18.92279,0.0612 -20.95485,0.0273 -21.10053,-0.35237 z m 190.78136,0.24215 c -0.0979,-0.0979 -0.17799,-28.49502 -0.17799,-63.10474 0,-56.30786 0.0426,-62.92673 0.40484,-62.92673 0.41092,0 2.27211,1.104 8.4587,5.01743 4.16396,2.63398 6.31193,3.74353 9.78958,5.05692 1.95845,0.73965 2.66632,1.13046 2.72468,1.50435 0.0459,0.29408 -0.6446,1.49053 -1.65274,2.86371 -0.9524,1.29726 -2.02967,2.92021 -2.39395,3.60662 l -0.66236,1.24796 v 39.2838 c 0,29.16012 0.0779,39.33195 0.30215,39.47057 0.16619,0.10268 1.39367,0.24381 2.72775,0.31361 4.10639,0.21478 6.05515,-0.57926 10.23983,-4.1723 1.36014,-1.16784 2.63789,-2.09232 2.83943,-2.05438 0.24087,0.0454 0.56747,1.0664 0.95303,2.97942 0.77594,3.84995 1.66055,6.80434 4.04029,13.49375 3.27144,9.19596 4.49739,13.9642 4.25275,16.54066 l -0.0875,0.92184 -20.79025,0.0677 c -11.43463,0.0372 -20.87033,-0.0124 -20.96822,-0.11022 z m -112.00033,-1.08128 c -0.34747,-1.79321 -0.25781,-20.60882 0.11206,-23.50508 1.33011,-10.41617 4.75723,-16.88033 10.54248,-19.88508 3.44101,-1.78718 4.80554,-2.05369 10.15113,-1.98252 2.54662,0.0339 5.16599,0.0915 5.82084,0.12801 l 1.19062,0.0663 0.0721,-4.83483 c 0.0453,-3.03409 -0.0321,-5.02963 -0.20773,-5.35781 -0.19526,-0.36487 -0.55427,-0.52298 -1.18731,-0.52298 -0.65638,0 -0.99124,-0.15663 -1.21042,-0.56613 -0.27377,-0.51157 -0.10205,-0.7602 1.78152,-2.57969 1.80393,-1.74257 6.98481,-6.33544 14.47636,-12.8334 1.58943,-1.37861 2.13696,-1.7213 2.31105,-1.44653 0.1255,0.19807 0.23183,10.06372 0.23628,21.92367 0.004,11.85994 0.10416,21.71491 0.22159,21.8999 0.1638,0.25808 1.47113,0.31965 5.61834,0.26459 l 5.40486,-0.0718 0.0674,-27.15368 0.0674,-27.15368 2.44409,-2.08278 c 1.34424,-1.14551 4.67182,-4.01754 7.3946,-6.38225 2.72277,-2.36471 5.07518,-4.29948 5.22758,-4.29948 0.19159,0 0.27707,10.31647 0.27707,33.43741 0,29.75231 0.0448,33.47455 0.40654,33.77477 0.31252,0.25937 1.53503,0.30184 5.28629,0.18362 2.68386,-0.0846 5.00192,-0.22926 5.15125,-0.32154 0.18487,-0.11428 0.21492,-12.29596 0.0942,-38.18964 l -0.1773,-38.02185 3.41694,-3.03199 c 6.40122,-5.6801 8.57461,-7.74586 10.06125,-9.56299 0.81701,-0.99865 1.59129,-1.81571 1.72062,-1.81571 0.13663,0 0.20719,25.29917 0.16843,60.39115 l -0.0667,60.39114 -48.34048,0.0669 -48.34049,0.0669 z m 25.09423,-27.85901 c 2.87255,-0.7978 3.74689,-4.35946 1.42279,-5.79583 -2.85848,-1.76665 -7.56343,-0.0198 -7.56343,2.80813 0,2.17247 3.29814,3.77717 6.14064,2.9877 z m 13.404,-74.07751 c -3.29086,-0.51377 -6.49753,-1.9667 -8.78562,-3.98074 -2.26137,-1.99054 -1.61052,-2.243 2.912,-1.1295 3.86347,0.95125 7.68009,0.9847 10.00919,0.0877 2.08976,-0.80481 3.22916,-1.53543 6.04345,-3.87535 1.28662,-1.06972 2.4393,-1.94496 2.56154,-1.94496 0.12224,0 1.808,0.7723 3.74613,1.71617 3.87808,1.88868 5.5581,2.43025 6.67192,2.15069 1.70836,-0.42876 5.24084,-4.98337 5.57061,-7.18246 0.21686,-1.44602 0.72655,-1.73839 1.6001,-0.91773 1.36464,1.28201 1.90325,5.20689 1.05555,7.69194 -0.65217,1.9118 -2.19136,3.70462 -3.9548,4.60648 -1.40296,0.71749 -1.80459,0.79769 -3.96121,0.79086 -2.03989,-0.006 -2.85308,-0.15534 -5.4202,-0.99219 -3.98447,-1.29892 -4.52269,-1.28127 -6.79625,0.22294 -1.00386,0.66413 -2.24189,1.39129 -2.75122,1.61589 -2.46226,1.08585 -5.89793,1.54665 -8.50119,1.14025 z m 10.73922,-17.31595 c -1.20822,-1.58403 -3.03178,-7.90903 -3.03178,-10.5156 0,-1.15025 0.75639,-2.57101 1.4632,-2.74838 0.82291,-0.20656 2.8843,0.74072 3.43247,1.57734 0.78105,1.19205 1.04817,4.03354 0.72345,7.69596 -0.42336,4.77462 -1.1429,5.88444 -2.58734,3.99068 z M 23.133181,264.23532 C 22.832587,263.45199 28.956857,247.70816 34.026195,236.23235 51.922564,195.71911 76.983079,157.88537 107.36243,125.51698 159.18626,70.300064 225.10638,31.302037 298.45,12.470483 354.33643,-1.8788016 413.44937,-3.7922719 470.26669,6.9088204 511.13039,14.605175 550.7101,28.735467 587.11042,48.623024 668.4065,93.039695 731.84673,164.81539 765.83024,250.825 c 2.89631,7.33032 4.68056,12.2238 4.72713,12.96458 l 0.0416,0.66146 -373.66607,0.0662 c -308.73398,0.0547 -373.689311,0.006 -373.799709,-0.28196 z"
       id="path2132" />
    <path
       style="fill:#00783b;stroke-width:0.264583"
       d="M 382.71979,793.45668 C 348.64548,792.36583 314.18768,786.59961 280.85521,776.41053 208.80376,754.38582 144.61798,712.36414 95.370713,654.97604 78.38781,635.18576 62.653444,612.52365 49.629221,589.09479 45.489873,581.64865 37.813266,566.23455 34.327719,558.3704 29.724342,547.9842 23.01875,530.98361 23.01875,529.69893 v -0.53226 H 396.875 770.73125 v 0.53226 c 0,1.28275 -6.59791,18.01082 -11.2694,28.5719 -3.50578,7.9257 -11.16573,23.31448 -15.343,30.82396 -36.4821,65.58373 -89.41745,118.51876 -155.02406,155.02316 -7.42458,4.13115 -22.83984,11.80973 -30.72439,15.30432 -37.83121,16.7676 -76.63649,27.29235 -117.70686,31.92444 -18.03836,2.03443 -37.81184,2.75447 -57.94375,2.10997 z M 163.66829,474.89012 c -2.5694,-0.32964 -3.45015,-0.59499 -3.54103,-1.06685 -0.10246,-0.53205 2.719,-2.67367 7.61857,-5.78281 4.55748,-2.89206 6.72779,-4.57465 8.29252,-6.42901 2.64387,-3.1332 3.07935,-4.72109 3.08257,-11.23992 0.005,-9.37594 -2.08287,-15.75861 -9.16701,-28.02893 -2.35285,-4.07532 -2.75134,-4.92305 -2.44355,-5.19829 0.20227,-0.18087 1.43933,-0.7197 2.74901,-1.1974 3.69469,-1.34758 8.38758,-3.73232 12.30313,-6.25197 1.96453,-1.26416 3.77482,-2.42888 4.02286,-2.58826 0.24805,-0.15939 0.51715,-0.2236 0.59802,-0.14275 0.0809,0.0809 -0.0464,1.08262 -0.28293,2.22613 -0.55266,2.67237 -0.40529,5.87369 0.34806,7.56107 2.12318,4.75555 7.69048,7.09004 18.20045,7.63188 5.21119,0.26866 16.96603,0.0574 17.69313,-0.31792 0.46308,-0.23908 0.487,-0.55875 0.36868,-4.92548 -0.1071,-3.9528 -0.21973,-4.94528 -0.73351,-6.4638 -0.62807,-1.85629 -2.205,-3.98417 -3.18252,-4.29442 -0.72953,-0.23154 -0.64644,-0.61807 0.20786,-0.96698 4.79891,-1.95987 7.7659,-3.90422 14.15653,-9.27708 1.71059,-1.43817 3.22864,-2.54164 3.37343,-2.45213 0.16906,0.10445 0.26327,4.97617 0.26327,13.61252 0,10.51991 0.072,13.47581 0.33073,13.56902 0.73063,0.26331 132.80919,-0.27583 133.07658,-0.54322 0.40288,-0.40288 0.61003,-14.8663 0.24093,-16.82157 -0.43516,-2.30537 -1.4261,-4.28252 -2.46324,-4.91485 -1.33364,-0.81309 -2.98172,-0.72276 -3.9193,0.21485 -1.20484,1.20483 -1.41637,2.49121 -1.46439,8.90534 -0.0443,5.9146 -0.16751,6.76093 -1.10763,7.60743 -0.48754,0.43903 -3.27324,0.46014 -52.3517,0.39688 l -51.83677,-0.0668 -0.0698,-8.85491 -0.0698,-8.85489 16.34165,-16.37599 c 9.74971,-9.77019 20.7709,-20.49592 27.32188,-26.58941 13.30058,-12.37171 22.29265,-20.82681 27.696,-26.04199 2.22388,-2.14643 4.15071,-3.9026 4.28189,-3.9026 0.13115,0 0.38084,0.56555 0.55485,1.25677 0.74234,2.94865 4.61412,8.73453 7.73475,11.55851 1.02333,0.92604 1.54178,1.57295 1.38576,1.72897 -0.13714,0.13714 -1.32014,0.42357 -2.6289,0.63654 -1.30876,0.21296 -2.70494,0.5121 -3.10266,0.66474 -0.79069,0.30347 -37.33898,36.54866 -48.49485,48.09265 -8.11866,8.4011 -12.56226,13.28637 -12.56226,13.8108 0,0.32027 3.04388,0.35202 21.23282,0.22148 19.81554,-0.14224 26.88685,-0.30911 41.19128,-0.97211 4.03453,-0.18698 5.73212,-0.35919 5.88293,-0.59674 0.11658,-0.18364 0.21553,-0.81015 0.21992,-1.39224 0.0109,-1.43173 0.65781,-4.08191 1.36277,-5.58162 2.07531,-4.41507 5.75352,-7.08501 14.90924,-10.82238 2.03729,-0.83164 4.55594,-1.91601 5.597,-2.40975 1.04105,-0.49374 2.01771,-0.8977 2.17035,-0.8977 0.15264,0 0.64331,0.45519 1.0904,1.01153 1.15586,1.43832 3.86895,3.40513 7.54642,5.47071 5.45475,3.06384 7.28078,4.56268 8.95157,7.34771 1.83443,3.05779 1.78564,2.18144 1.70455,30.62005 l -0.0728,25.53229 -96.47147,0.0665 -96.47149,0.0665 -0.84818,2.67558 c -4.34676,13.71198 -16.6323,21.59614 -30.81661,19.77633 z m 52.61764,-2.84162 c -2.16996,-0.98568 -3.4102,-3.18061 -3.24684,-5.74617 0.125,-1.96305 0.98455,-3.43691 2.64541,-4.53602 0.96251,-0.63696 1.3604,-0.72985 3.12592,-0.72985 1.76551,0 2.1634,0.0929 3.12591,0.72985 1.61466,1.06855 2.50886,2.56556 2.6434,4.42542 0.1355,1.87328 -0.26842,3.18699 -1.36328,4.43397 -1.6227,1.84814 -4.63343,2.46623 -6.93052,1.4228 z m 185.2482,-20.02793 c -0.0887,-0.23106 -0.16121,-28.57238 -0.16121,-62.98073 0,-54.11356 0.0513,-62.58028 0.37978,-62.70636 0.21169,-0.0812 1.99752,0.87453 4.0349,2.15943 8.80332,5.55191 11.37515,6.9442 15.09834,8.17356 1.20054,0.3964 2.18281,0.86156 2.18281,1.03365 0,0.55155 -1.08741,2.37455 -2.41192,4.04349 -0.70786,0.89194 -1.58469,2.26116 -1.94849,3.04271 l -0.66151,1.42097 -0.003,38.96646 -0.003,38.96643 0.59532,0.21971 c 1.16371,0.42947 3.68345,0.56383 5.40789,0.28837 2.49164,-0.39804 4.25813,-1.36522 7.32198,-4.00891 1.47516,-1.27289 2.82866,-2.31855 3.00778,-2.32371 0.17915,-0.005 0.37674,0.2585 0.43913,0.58592 1.21962,6.40041 1.44209,7.1627 5.8107,19.9099 2.10881,6.15336 2.82292,9.06036 2.90145,11.81121 l 0.048,1.68254 -20.93931,0.0677 c -18.92279,0.0612 -20.95485,0.0273 -21.10053,-0.35237 z m 190.78136,0.24215 c -0.0979,-0.0979 -0.17799,-28.49502 -0.17799,-63.10474 0,-56.30786 0.0426,-62.92673 0.40484,-62.92673 0.41092,0 2.27211,1.104 8.4587,5.01743 4.16396,2.63398 6.31193,3.74353 9.78958,5.05692 1.95845,0.73965 2.66632,1.13046 2.72468,1.50435 0.0459,0.29408 -0.6446,1.49053 -1.65274,2.86371 -0.9524,1.29726 -2.02967,2.92021 -2.39395,3.60662 l -0.66236,1.24796 v 39.2838 c 0,29.16012 0.0779,39.33195 0.30215,39.47057 0.16619,0.10268 1.39367,0.24381 2.72775,0.31361 4.10639,0.21478 6.05515,-0.57926 10.23983,-4.1723 1.36014,-1.16784 2.63789,-2.09232 2.83943,-2.05438 0.24087,0.0454 0.56747,1.0664 0.95303,2.97942 0.77594,3.84995 1.66055,6.80434 4.04029,13.49375 3.27144,9.19596 4.49739,13.9642 4.25275,16.54066 l -0.0875,0.92184 -20.79025,0.0677 c -11.43463,0.0372 -20.87033,-0.0124 -20.96822,-0.11022 z m -112.00033,-1.08128 c -0.34747,-1.79321 -0.25781,-20.60882 0.11206,-23.50508 1.33011,-10.41617 4.75723,-16.88033 10.54248,-19.88508 3.44101,-1.78718 4.80554,-2.05369 10.15113,-1.98252 2.54662,0.0339 5.16599,0.0915 5.82084,0.12801 l 1.19062,0.0663 0.0721,-4.83483 c 0.0453,-3.03409 -0.0321,-5.02963 -0.20773,-5.35781 -0.19526,-0.36487 -0.55427,-0.52298 -1.18731,-0.52298 -0.65638,0 -0.99124,-0.15663 -1.21042,-0.56613 -0.27377,-0.51157 -0.10205,-0.7602 1.78152,-2.57969 1.80393,-1.74257 6.98481,-6.33544 14.47636,-12.8334 1.58943,-1.37861 2.13696,-1.7213 2.31105,-1.44653 0.1255,0.19807 0.23183,10.06372 0.23628,21.92367 0.004,11.85994 0.10416,21.71491 0.22159,21.8999 0.1638,0.25808 1.47113,0.31965 5.61834,0.26459 l 5.40486,-0.0718 0.0674,-27.15368 0.0674,-27.15368 2.44409,-2.08278 c 1.34424,-1.14551 4.67182,-4.01754 7.3946,-6.38225 2.72277,-2.36471 5.07518,-4.29948 5.22758,-4.29948 0.19159,0 0.27707,10.31647 0.27707,33.43741 0,29.75231 0.0448,33.47455 0.40654,33.77477 0.31252,0.25937 1.53503,0.30184 5.28629,0.18362 2.68386,-0.0846 5.00192,-0.22926 5.15125,-0.32154 0.18487,-0.11428 0.21492,-12.29596 0.0942,-38.18964 l -0.1773,-38.02185 3.41694,-3.03199 c 6.40122,-5.6801 8.57461,-7.74586 10.06125,-9.56299 0.81701,-0.99865 1.59129,-1.81571 1.72062,-1.81571 0.13663,0 0.20719,25.29917 0.16843,60.39115 l -0.0667,60.39114 -48.34048,0.0669 -48.34049,0.0669 z m 25.09423,-27.85901 c 2.87255,-0.7978 3.74689,-4.35946 1.42279,-5.79583 -2.85848,-1.76665 -7.56343,-0.0198 -7.56343,2.80813 0,2.17247 3.29814,3.77717 6.14064,2.9877 z m 13.404,-74.07751 c -3.29086,-0.51377 -6.49753,-1.9667 -8.78562,-3.98074 -2.26137,-1.99054 -1.61052,-2.243 2.912,-1.1295 3.86347,0.95125 7.68009,0.9847 10.00919,0.0877 2.08976,-0.80481 3.22916,-1.53543 6.04345,-3.87535 1.28662,-1.06972 2.4393,-1.94496 2.56154,-1.94496 0.12224,0 1.808,0.7723 3.74613,1.71617 3.87808,1.88868 5.5581,2.43025 6.67192,2.15069 1.70836,-0.42876 5.24084,-4.98337 5.57061,-7.18246 0.21686,-1.44602 0.72655,-1.73839 1.6001,-0.91773 1.36464,1.28201 1.90325,5.20689 1.05555,7.69194 -0.65217,1.9118 -2.19136,3.70462 -3.9548,4.60648 -1.40296,0.71749 -1.80459,0.79769 -3.96121,0.79086 -2.03989,-0.006 -2.85308,-0.15534 -5.4202,-0.99219 -3.98447,-1.29892 -4.52269,-1.28127 -6.79625,0.22294 -1.00386,0.66413 -2.24189,1.39129 -2.75122,1.61589 -2.46226,1.08585 -5.89793,1.54665 -8.50119,1.14025 z m 10.73922,-17.31595 c -1.20822,-1.58403 -3.03178,-7.90903 -3.03178,-10.5156 0,-1.15025 0.75639,-2.57101 1.4632,-2.74838 0.82291,-0.20656 2.8843,0.74072 3.43247,1.57734 0.78105,1.19205 1.04817,4.03354 0.72345,7.69596 -0.42336,4.77462 -1.1429,5.88444 -2.58734,3.99068 z"
       id="path2130" />
    <path
       style="fill:#000000;stroke-width:0.264583"
       d="m 388.80521,793.44285 c -3.78354,-0.0962 -7.47448,-0.24133 -8.20209,-0.32256 -0.7276,-0.0812 -3.64463,-0.27284 -6.48229,-0.42579 C 335.47045,790.61133 295.08558,782.13855 258.36562,768.40895 214.33634,751.94642 174.18888,728.2474 138.50937,697.65786 123.94543,685.17159 108.65817,669.89687 96.3221,655.50521 69.897921,624.67789 48.956539,591.23715 32.946314,554.30208 c -4.013089,-9.25806 -9.784751,-24.19516 -9.516604,-24.62903 0.20106,-0.32533 746.68953,-0.32533 746.89059,0 0.0822,0.13298 -0.75176,2.64623 -1.85325,5.58501 -17.98082,47.97383 -44.19462,90.95931 -78.41276,128.58152 -57.11669,62.79873 -133.26721,105.71245 -216.62472,122.07627 -18.69274,3.66956 -40.13967,6.29721 -56.44624,6.91573 -2.40109,0.0911 -4.66328,0.2681 -5.02708,0.39341 -0.88752,0.30567 -14.61426,0.43484 -23.15104,0.21786 z"
       id="path2128" />
  </g>
</svg>
