<svg xmlns="http://www.w3.org/2000/svg" width="512" height="512" fill="none"><g clip-path="url(#a)"><g clip-path="url(#b)"><path fill="#a2001d" d="M0 0h512v512H0z"/><path fill="#eee" d="M0 170.7h512V512H0z"/><path fill="#333" d="M0 341.3h512V512H0z"/><path fill="#496e2d" d="M330.9 224c-1-.5-2.2-1.4-2.6-1.9-.6-.8-.3-.8 2.1-.2 4.4 1.2 7.2.7 10-1.6l2.4-2 2.9 1.4c1.5.8 3.2 1.3 3.7 1.2 1.3-.3 3.8-3.6 3.8-4.8-.1-1.4 1-1 1.6.5 1.2 3-.5 6.6-3.5 7.3-1.4.4-2.7.3-5-.5-2.6-1-3-1-4.4.1-3 2.3-7.2 2.6-11 .6m10.7-9.7a15 15 0 0 1-2-7.7q.4-1.4 1.8-1c1.7.6 2.1 1.8 1.8 5.8q-.2 4.8-1.6 2.9m-126.2-3.6c-.3 2.4 4.4 8.5 6.5 9.6-1.5.6-3.2.3-4.6 1-7.3 7.4-34.3 33.7-39.2 40 14.6.3 30.7-.2 44.4-.8 0-10 9.4-10.4 15.7-14 3.2 5 11.3 4.7 12.3 12.3v33H126a18 18 0 0 1-23 14c3.7-4 10-5.3 12.3-10.7 2-12-3.8-19.3-7.5-26a45 45 0 0 0 13.3-7c8.3 8.4 11.9 11.6 23 11.6.5-4.6.3-9.9-3.2-10.5 4.5-1.7 5.2-2.2 12.4-8.3v18l86.2-.3c0-5.6 1.5-14.6-3-14.6-4.2 0-.2 11.5-3.5 11.5h-66.6v-11.4l21.7-21.8c2-2 15.5-14.2 27.3-25.6m166.4-.5c4.7 2.5 8.4 6 14 7.4-.6 2.4-2.7 3.3-3.2 5.8v50.3c6.3 1.4 7.7-2.2 10.7-4.2.8 8 6 16 5.7 22.3h-27.2zm-36.2 27s9.9-8.4 9.9-8.8v44l7.1-.1-.2-49.2c2.9-3 8.5-7.1 10-10v78.6h-62.5c-1-16.3-1.1-33.2 17.9-29.6v-6.6c-.6-1.2-1.6.2-1.9-1.2 3-3 4-3.8 12.2-11l.2 29h7.2zM322 271.8c1.4 2 6 2 5.7-1.4-.8-2.8-6.8-1.8-5.7 1.4"/><path fill="#496e2d" d="M141.2 304.9a3.8 3.8 0 1 0 0-7.7 3.8 3.8 0 0 0 0 7.7M259 210.3c4.6 2.5 8.3 6 14 7.4-.7 2.3-2.8 3.3-3.3 5.7v50.3c6.3 1.4 7.7-2.2 10.7-4 .8 8 6 15.8 5.8 22.2H259z"/></g></g><defs><clipPath id="a"><rect width="512" height="512" fill="#eee" rx="256"/></clipPath><clipPath id="b"><path fill="#eee" d="M0 0h512v512H0z"/></clipPath></defs></svg>
