<svg xmlns="http://www.w3.org/2000/svg" width="512" height="512" fill="none"><g clip-path="url(#a)"><path fill="#EEE" fill-rule="evenodd" d="M256 512a256 256 0 1 0 0-512 256 256 0 0 0 0 512Z" clip-rule="evenodd"/><path fill="#D80027" fill-rule="evenodd" d="M499.5 335.3a256.1 256.1 0 0 1-487 0h487Z" clip-rule="evenodd"/><path fill="#496E2D" fill-rule="evenodd" d="M12.5 176.7a256.1 256.1 0 0 1 487 0h-487Z" clip-rule="evenodd"/><path fill="#D80027" d="M271.8 201h-32v16h32v-16Zm-43.9 87a58 58 0 0 1-15.5-44 37 37 0 0 0-8.4 34.5l-15.5 4.1a53 53 0 0 1 34.3-64l9.7 11.2a42 42 0 0 0 15.3 54V221h16v63.1a42 42 0 0 0 15.7-54.3l9.7-11.1a53 53 0 0 1 34.3 64l-15.5-4.2a37 37 0 0 0-8.4-34.5 58 58 0 0 1-15.5 44c3.6-1.3 7-3 10.2-5.2l9.2 13a58 58 0 0 1-39.7 10.2v5h-16v-5a58.8 58.8 0 0 1-39.3-10.1l9.2-13.1a42 42 0 0 0 10.2 5.2Z"/><path fill="#EEE" fill-rule="evenodd" d="M493.7 160.7a254 254 0 0 1 10.4 32h-80.5v-32h70Zm-37.3-64c4.1 5.2 8 10.5 11.8 16h-28.6v32h-16v-48h32.8Zm-30.3-32c5.7 5 11.2 10.4 16.5 16h-19v-16h2.5ZM71.6 78.4C76.2 73.6 81 69 86 64.7h1.7v80H25.4a255 255 0 0 1 8.4-16h5.8v-9.6c5-7.8 10.3-15.3 16-22.5v32.1h16V78.4ZM8 192.7a254 254 0 0 1 10.4-32h69.3v32H8Zm485.8 158.6c4.1-10.4 7.6-21 10.4-32h-80.5v32h70Zm-7.1 16h-63v16h54.6c3-5.2 5.8-10.6 8.4-16Zm-18.4 32h-44.6v48h2.5c4.7-4.2 9.2-8.5 13.5-13v-19h16.8a257 257 0 0 0 11.8-16ZM86 447.3h1.8v-80h-16v64h-2.3c5.3 5.6 10.8 11 16.5 16Zm-30.2-32v-48h-16v25.6c4.9 7.8 10.2 15.3 16 22.5ZM8 319.3a254 254 0 0 0 10.4 32h69.4v-32H7.9Zm95.8-238.6h208v-16h-208v16Zm176 32h48v32h80v-80h-16v64h-16v-64h-16v64h-16v-64h-16v32h-64v48h48v-16h-32v-16Zm-96-16h-80v48h16v-32h48v32h80v-48h-48v16h32v16h-48v-32Zm-48 48h16v-16h-16v16Zm-32 48h144v-32h-144v32Zm160 0h144v-32h-144v32Zm-160 158.6h144v-32h-144v32Zm160 0h144v-32h-144v32Zm-160 32h208v-16h-208v16Zm176 32h48v32h80v-80h-16v64h-16v-64h-16v64h-16v-64h-16v32h-64v48h48v-16h-32v-16Zm-96-16h-80v48h16v-32h48v32h80v-48h-48v16h32v16h-48v-32Zm-48 48h16v-16h-16v16Zm320-302.6h16v-16h-16v16Z" clip-rule="evenodd"/></g><defs><clipPath id="a"><path fill="#fff" d="M0 0h512v512H0z"/></clipPath></defs></svg>