<svg xmlns="http://www.w3.org/2000/svg" width="512" height="512" fill="none"><g clip-path="url(#a)"><circle cx="256" cy="256" r="256" fill="#D80027"/><path fill="#EEE" d="M288 2c-10.3-1.3-20.8-2-31.5-2h-1c-10.7 0-21.2.7-31.5 2v222H2a258.5 258.5 0 0 0 0 64h222v222a258.4 258.4 0 0 0 64 0V288h222a258.4 258.4 0 0 0 0-64H288V2Z"/><path fill="#0052B4" fill-rule="evenodd" d="M256 480a224 224 0 1 0 0-448 224 224 0 0 0 0 448Zm0 32a256 256 0 1 0 0-512 256 256 0 0 0 0 512Z" clip-rule="evenodd"/><path fill="#0052B4" d="m432 176-32-64H112l-32 64h64l-20-40h120l-20 40h64l-20-40h120l-20 40h64Z"/></g><defs><clipPath id="a"><path fill="#fff" d="M0 0h512v512H0z"/></clipPath></defs></svg>