<svg xmlns="http://www.w3.org/2000/svg" width="512" height="512" fill="none"><g clip-path="url(#a)"><path fill="#584528" d="M256 512a256 256 0 0 0 256-255.5v-.5l-256-32L0 256a256 256 0 0 0 256 256Z"/><path fill="#0052B4" d="M512 255.5v.5H0a256 256 0 0 1 512-.5Z"/><path fill="#FF9811" fill-rule="evenodd" d="M256 480a224 224 0 1 0 0-448 224 224 0 0 0 0 448Zm0 32a256 256 0 1 0 0-512 256 256 0 0 0 0 512Z" clip-rule="evenodd"/><path fill="#FFDA44" d="M168.9 200a48 48 0 1 0 0-96 48 48 0 0 0 0 96Z"/><path fill="#FF9811" d="M384 288v-16c0-31-21.5-56-48-56h-88v-72c0-12-16-24-16-24s-16 12-16 24h-72v72h32v35.7c0 7.7 0 12.3 6.5 22.3L166 287.8l-54 .2v24h112v48h-24v24h48v-48l24-24h48v48h-24v24h48v-48l24-24 40 40v8h-24v24h48v-48l-48-48Z"/><path fill="#EEE" d="M264 144h136a24 24 0 0 1-24 24 24 24 0 0 1-24 24 24 24 0 0 1-24 24h-80c22.1 0 40-21.5 40-48a24 24 0 0 0-24-24Zm-80 168v64h-40a16 16 0 0 0-16 16 16 16 0 0 0-16-16H72v-64h40a16 16 0 0 1 16 16 16 16 0 0 1 16-16h40Z"/><path fill="#FF9811" d="M428 200c0-5.1-6-14.5-8.7-18.3L416 177l-3.3 4.7c-2.6 3.8-8.7 13.2-8.7 18.3a12 12 0 0 0 8 11.3V280a4 4 0 1 1-8 0v-16a12 12 0 0 0-12-12h-16v8h16a4 4 0 0 1 4 4v16a12 12 0 1 0 24 0v-68.7c4.7-1.7 8-6 8-11.3Z"/></g><defs><clipPath id="a"><path fill="#fff" d="M0 0h512v512H0z"/></clipPath></defs></svg>