<svg xmlns="http://www.w3.org/2000/svg" width="512" height="512" fill="none"><g clip-path="url(#a)"><path fill="#0052B4" d="M256 512a256 256 0 0 0 256-255.5v-.5l-256-32L0 256a256 256 0 0 0 256 256Z"/><path fill="#EEE" d="M512 255.5v.5H0a256 256 0 0 1 512-.5Z"/><path fill="#EEE" d="M130 108.3v192c0 66.6 56.7 124.5 125.8 124.5s126-58 126-124.6v-192l-126 .7-125.9-.6h.1Z"/><path fill="#333" d="M255.8 428.8C185.4 428.8 126 370 126 300.2v-196l130 .7 129.9-.6v196c0 69.6-59.5 128.5-130 128.5h-.1ZM134 112.3v188c0 65.3 55.8 120.5 122 120.5 66 0 121.9-55.2 121.9-120.6V112.3l-122 .6-121.9-.6Z"/><path fill="#333" d="M259.8 423.9h-8V260.5H130.1v-8h121.7V110.2h8v142.3h121.1v8H259.8v163.4Z"/><path fill="#333" fill-rule="evenodd" d="M201.1 161.7a17.6 17.6 0 0 0-29-10.9 10.8 10.8 0 0 1 9.5 11l-26-3.7a5 5 0 0 0-5.6 5V212a14 14 0 0 0 13.6-14.2v.5c4 0 7.6-1.7 10.1-4.5l2 2.9-12 21.2h54.6l-12.1-21.2 2-2.9c2.5 2.8 6.1 4.5 10.1 4.5v-.5A14 14 0 0 0 232 212v-49a5 5 0 0 0-5.7-4.9l-25.2 3.6Z" clip-rule="evenodd"/><path fill="#D80027" fill-rule="evenodd" d="M331.1 161.7a17.6 17.6 0 0 0-29-10.9 10.8 10.8 0 0 1 9.5 11l-26-3.7a5 5 0 0 0-5.6 5V212a14 14 0 0 0 13.6-14.2v.5c4 0 7.6-1.7 10.1-4.5l2 2.9-12 21.2h54.6l-12.1-21.2 2-2.9c2.5 2.8 6.1 4.5 10.1 4.5v-.5A14 14 0 0 0 362 212v-49a5 5 0 0 0-5.7-4.9l-25.2 3.6Zm-130 132.6a17.6 17.6 0 0 0-29-11 10.8 10.8 0 0 1 9.5 11l-26-3.6a5 5 0 0 0-5.6 5v48.8a14 14 0 0 0 13.6-14.1v.4c4 0 7.6-1.7 10.1-4.4l2 2.8-12 21.2h54.6l-12.1-21.2 2-2.8c2.5 2.7 6.1 4.4 10.1 4.4v-.4a14 14 0 0 0 13.7 14.1v-48.9a5 5 0 0 0-5.7-5l-25.2 3.7Z" clip-rule="evenodd"/><path fill="#333" fill-rule="evenodd" d="M331.1 294.3a17.6 17.6 0 0 0-29-11 10.8 10.8 0 0 1 9.5 11l-26-3.6a5 5 0 0 0-5.6 5v48.8a14 14 0 0 0 13.6-14.1v.4c4 0 7.6-1.7 10.1-4.4l2 2.8-12 21.2h54.6l-12.1-21.2 2-2.8c2.5 2.7 6.1 4.4 10.1 4.4v-.4a14 14 0 0 0 13.7 14.1v-48.9a5 5 0 0 0-5.7-5l-25.2 3.7Z" clip-rule="evenodd"/></g><defs><clipPath id="a"><path fill="#fff" d="M0 0h512v512H0z"/></clipPath></defs></svg>