<svg xmlns="http://www.w3.org/2000/svg" width="512" height="512" fill="none"><g clip-path="url(#a)"><path fill="#D80027" d="M376 29.8A254.9 254.9 0 0 0 256 0c-43.4 0-84.2 10.8-120 29.8v452.4c35.8 19 76.6 29.8 120 29.8 43.4 0 84.2-10.8 120-29.8V29.8Z"/><path fill="#338AF3" d="M344 15.5a256.1 256.1 0 0 1 0 481v-481Z"/><path fill="#6DA544" d="M168 15.5v481a256.1 256.1 0 0 1 0-481Z"/><path fill="#EEE" d="M256 144c44.2 0 80 17.9 80 40v88H176v-88c0-22.1 35.8-40 80-40Z"/><path fill="#ACABB1" fill-rule="evenodd" d="M230.5 192.1c-.3.4-9.6-1.2-10-1-.5.3-3.5 9-4 9s-3.7-8.9-4.1-9.2c-.4-.2-9.5 1.6-9.8 1.2-.2-.4 6-7.7 6-8.2 0-.5-6.2-7.5-6-7.9.3-.4 9.6 1.3 10 1 .5-.2 3.5-9 4-9s3.7 9 4.1 9.2c.4.2 9.5-1.6 9.8-1.2.2.5-5.9 7.7-5.9 8.2 0 .5 6.1 7.5 5.9 8v-.1Zm80.5 0c-.3.4-9.7-1.2-10.1-1-.4.3-3.4 9-3.9 9s-3.7-8.9-4.2-9.2c-.4-.2-9.5 1.6-9.7 1.2-.3-.4 5.9-7.7 5.9-8.2 0-.5-6.2-7.5-6-7.9.3-.4 9.7 1.3 10.1 1 .5-.2 3.4-9 4-9 .4 0 3.6 9 4 9.2.5.2 9.6-1.6 9.8-1.2.3.5-5.9 7.7-5.9 8.2 0 .5 6.2 7.5 6 8v-.1Zm0 62.2c-.3.4-9.7-1.3-10.1-1-.4.2-3.4 9-3.9 9s-3.7-9-4.2-9.2c-.4-.2-9.5 1.6-9.7 1.2-.3-.5 5.9-7.7 5.9-8.2 0-.5-6.2-7.5-6-8 .3-.3 9.7 1.3 10.1 1 .5-.2 3.4-9 4-9 .4 0 3.6 9 4 9.3.5.2 9.6-1.6 9.8-1.2.3.4-5.9 7.7-5.9 8.2 0 .5 6.2 7.5 6 7.9Zm-80.5 0c-.3.4-9.6-1.3-10-1-.5.2-3.5 9-4 9s-3.7-9-4.1-9.2c-.4-.2-9.5 1.6-9.8 1.2-.2-.5 6-7.7 6-8.2 0-.5-6.2-7.5-6-8 .3-.3 9.6 1.3 10 1 .5-.2 3.5-9 4-9s3.7 9 4.1 9.3c.4.2 9.5-1.6 9.8-1.2.2.4-5.9 7.7-5.9 8.2 0 .5 6.1 7.5 5.9 7.9ZM224 280a48 48 0 0 0 96 0h16a80 80 0 0 1-160 0h48Z" clip-rule="evenodd"/><path fill="#ACABB1" d="M252 272h8v64h-8v-64Z"/><path fill="#D80027" d="M336 208h-76v-64h-8v64h-76v8h76v56h8v-56h76v-8Z"/></g><defs><clipPath id="a"><path fill="#fff" d="M0 0h512v512H0z"/></clipPath></defs></svg>