<svg xmlns="http://www.w3.org/2000/svg" width="512" height="512" fill="none"><g clip-path="url(#a)"><circle cx="256" cy="256" r="256" fill="#6DA544"/><path fill="#EEE" d="M152 72h208v384H152V72Z"/><path fill="#D80027" d="M232 136h16l-16 16v96l16 16h-16v48h16l-16 16v96l16 16h16l16-16v-96l-16-16h16v-48h-16l16-16v-96l-16-16h16V88h-48v48Zm112-48h-48v48h16l-16 16v96l16 16h-16v48h16l-16 16v96l16 16h16l16-16v-96l-16-16h16v-48h-16l16-16v-96l-16-16h16V88Zm-176 48h16l-16 16v96l16 16h-16v48h16l-16 16v96l16 16h16l16-16v-96l-16-16h16v-48h-16l16-16v-96l-16-16h16V88h-48v48Z"/></g><defs><clipPath id="a"><path fill="#fff" d="M0 0h512v512H0z"/></clipPath></defs></svg>