<svg xmlns="http://www.w3.org/2000/svg" width="512" height="512" fill="none"><g clip-path="url(#a)"><circle cx="256" cy="256" r="256" fill="#338AF3"/><path fill="#D80027" d="M344 152H144v141c0 18 5 33.3 12.7 46.3l30.9 33.1c31.4 23.5 68.4 32 68.4 32S368 378.7 368 293V192l-24-40Z"/><path fill="#EEE" fill-rule="evenodd" d="m202.4 210.3-14.2-4.7-6.7 13.4-6.7-13.4-14.2 4.7 4.8-14.2-13.4-6.6 13.4-6.7-4.8-14.2 14.2 4.8 6.7-13.4 6.7 13.4 14.2-4.8-4.8 14.2 13.4 6.7-13.4 6.6 4.8 14.2Z" clip-rule="evenodd"/><path fill="#EEE" d="M344 152 156.6 339.4a117 117 0 0 0 30.9 33.1L368 192v-40h-24Z"/></g><defs><clipPath id="a"><path fill="#fff" d="M0 0h512v512H0z"/></clipPath></defs></svg>