<svg xmlns="http://www.w3.org/2000/svg" width="512" height="512" fill="none"><g clip-path="url(#a)"><circle cx="256" cy="256" r="256" fill="#0052B4"/><path fill="#EEE" d="M144 126v236a16 16 0 0 0 16 16h80a16 16 0 0 1 16 15v1-1a16 16 0 0 1 16-15h80a16 16 0 0 0 16-16V126H144Z"/><path fill="#0052B4" d="M330.7 229.6c-10.5 0-16-3.3-20.8-6.2-4.5-2.7-8.3-5-16.6-5s-12 2.3-16.6 5c-4.8 3-10.3 6.2-20.7 6.2a35.5 35.5 0 0 1-20.7-6.2c-4.5-2.7-8.4-5-16.6-5-8.2 0-12.1 2.3-16.6 5-4.9 3-10.3 6.2-20.8 6.2-7.4.1-14.6-2-20.7-6.2-4.5-2.7-8.4-5-16.6-5l-8-4 8-4c10.4 0 15.9 3.3 20.7 6.2 4.5 2.7 8.4 5 16.6 5 8.2 0 12.1-2.3 16.6-5 4.9-3 10.3-6.2 20.8-6.2 10.4 0 15.9 3.3 20.7 6.2 4.5 2.7 8.4 5 16.6 5 8.2 0 12.1-2.3 16.6-5 4.8-3 10.3-6.2 20.7-6.2 10.5 0 16 3.3 20.8 6.2 4.5 2.7 8.3 5 16.6 5s12-2.3 16.6-5c4.8-3 10.3-6.2 20.7-6.2l8 4-8 4c-8.2 0-12.1 2.3-16.6 5-4.8 3-10.3 6.2-20.7 6.2Zm0 24c-10.5 0-16-3.3-20.8-6.2-4.5-2.7-8.3-5-16.6-5s-12 2.3-16.6 5c-4.8 3-10.3 6.2-20.7 6.2a35.5 35.5 0 0 1-20.7-6.2c-4.5-2.7-8.4-5-16.6-5-8.2 0-12.1 2.3-16.6 5-4.9 3-10.3 6.2-20.8 6.2-7.4.1-14.6-2-20.7-6.2-4.5-2.7-8.4-5-16.6-5l-8-4 8-4c10.4 0 15.9 3.3 20.7 6.2 4.5 2.7 8.4 5 16.6 5 8.2 0 12.1-2.3 16.6-5 4.9-3 10.3-6.2 20.8-6.2 10.4 0 15.9 3.3 20.7 6.2 4.5 2.7 8.4 5 16.6 5 8.2 0 12.1-2.3 16.6-5 4.8-3 10.3-6.2 20.7-6.2 10.5 0 16 3.3 20.8 6.2 4.5 2.7 8.3 5 16.6 5s12-2.3 16.6-5c4.8-3 10.3-6.2 20.7-6.2l8 4-8 4c-8.2 0-12.1 2.3-16.6 5-4.8 3-10.3 6.2-20.7 6.2Zm0 24c-10.5 0-16-3.3-20.8-6.2-4.5-2.7-8.3-5-16.6-5s-12 2.3-16.6 5c-4.8 3-10.3 6.2-20.7 6.2a35.5 35.5 0 0 1-20.7-6.2c-4.5-2.7-8.4-5-16.6-5-8.2 0-12.1 2.3-16.6 5-4.9 3-10.3 6.2-20.8 6.2-7.4.1-14.6-2-20.7-6.2-4.5-2.7-8.4-5-16.6-5l-8-4 8-4c10.4 0 15.9 3.3 20.7 6.2 4.5 2.7 8.4 5 16.6 5 8.2 0 12.1-2.3 16.6-5 4.9-3 10.3-6.2 20.8-6.2 10.4 0 15.9 3.3 20.7 6.2 4.5 2.7 8.4 5 16.6 5 8.2 0 12.1-2.3 16.6-5 4.8-3 10.3-6.2 20.7-6.2 10.5 0 16 3.3 20.8 6.2 4.5 2.7 8.3 5 16.6 5s12-2.3 16.6-5c4.8-3 10.3-6.2 20.7-6.2l8 4-8 4c-8.2 0-12.1 2.3-16.6 5-4.8 3-10.3 6.2-20.7 6.2Zm0 24c-10.5 0-16-3.3-20.8-6.2-4.5-2.7-8.3-5-16.6-5s-12 2.3-16.6 5c-4.8 3-10.3 6.2-20.7 6.2a35.5 35.5 0 0 1-20.7-6.2c-4.5-2.7-8.4-5-16.6-5-8.2 0-12.1 2.3-16.6 5-4.9 3-10.3 6.2-20.8 6.2-7.4.1-14.6-2-20.7-6.2-4.5-2.7-8.4-5-16.6-5l-8-4 8-4c10.4 0 15.9 3.3 20.7 6.2 4.5 2.7 8.4 5 16.6 5 8.2 0 12.1-2.3 16.6-5 4.9-3 10.3-6.2 20.8-6.2 10.4 0 15.9 3.3 20.7 6.2 4.5 2.7 8.4 5 16.6 5 8.2 0 12.1-2.3 16.6-5 4.8-3 10.3-6.2 20.7-6.2 10.5 0 16 3.3 20.8 6.2 4.5 2.7 8.3 5 16.6 5s12-2.3 16.6-5c4.8-3 10.3-6.2 20.7-6.2l8 4-8 4c-8.2 0-12.1 2.3-16.6 5-4.8 3-10.3 6.2-20.7 6.2Z"/></g><defs><clipPath id="a"><path fill="#fff" d="M0 0h512v512H0z"/></clipPath></defs></svg>