<svg xmlns="http://www.w3.org/2000/svg" width="512" height="512" fill="none"><g clip-path="url(#a)"><g clip-path="url(#b)"><path fill="#D80027" d="m75 75 149 213 213 149A256 256 0 0 0 258.8 0h-5.7A255.2 255.2 0 0 0 75 75Z"/><path fill="#FFDA44" d="m75 75 362 362A256 256 0 0 1 75 75Z"/></g><g clip-path="url(#c)"><path fill="#EEE" d="m403.4 160-37.8 33.7 21.6 94.4a29.8 29.8 0 0 1-39.6 34.6l-.6-.3-91-35-59.8 25.2-6.3 2.6 6.5 3.3 81.2 39.8-6 66-.1 2a5.7 5.7 0 1 1-11-3l-10-49.5-92.6-28.5a29.7 29.7 0 0 1-10.2-51.6l.5-.4L224 232l8.1-64.4.9-6.8-6.1 4-75 50.5L97.5 177l-1.5-1a5.7 5.7 0 1 1 8-8l48 16 71-65.9a29.7 29.7 0 0 1 49.7 17v.6L288 232l51.7 39.2 5.5 4.2-.5-7.3-6.1-90.3 60.2-27.9 1.7-.7a5.7 5.7 0 0 1 7.8 6.1 5.7 5.7 0 0 1-4.8 4.8l-.1-.1Z"/><path fill="#FF9811" d="M281.2 307.2a63.5 63.5 0 0 1-10.6-39.8c44-20.3 66.6-71 50.7-118L291 159.7a64 64 0 0 1-32.5 78 96.1 96.1 0 0 0-127.4 15l24 21.2a63.6 63.6 0 0 1 83.7-11 95.3 95.3 0 0 0 15.8 62 95.4 95.4 0 0 0 61 41l6.3-31.5a63.6 63.6 0 0 1-40.7-27.2Z"/></g></g><defs><clipPath id="a"><path fill="#fff" d="M0 0h512v512H0z"/></clipPath><clipPath id="b"><path fill="#fff" d="M0 512V0h512v512z"/></clipPath><clipPath id="c"><path fill="#fff" d="M0 0h512v512H0z"/></clipPath></defs></svg>