<svg xmlns="http://www.w3.org/2000/svg" width="512" height="512" fill="none"><g clip-path="url(#a)"><circle cx="256" cy="256" r="256" fill="#EEE"/><path fill="#D80027" d="M288 2c-10.3-1.3-20.8-2-31.5-2h-1c-10.7 0-21.2.7-31.5 2v222H2a258.5 258.5 0 0 0 0 64h222v222a258.4 258.4 0 0 0 64 0V288h222a258.4 258.4 0 0 0 0-64H288V2Z"/><path fill="#333" d="M373.6 312.4c-20.3 0-38 13.7-43.1 33.3l43 11.2 43.2-11.3a44.5 44.5 0 0 0-43.1-33.3Zm-44.5 100 55.6 11.3v-23.8c15.7-4 28-16.3 32-32l-43.1-11h-55.7l11.2 33.4v22.1Z"/><path fill="#ACABB1" d="M416.7 345.6h-98.8v44.6H329V368h87.6c1.9-7.3 1.9-15 0-22.3Z"/><path fill="#333" d="M373.6 88.3c-20.3 0-38 13.8-43.1 33.4l43 11.1 43.2-11.2a44.5 44.5 0 0 0-43.1-33.3ZM329 188.4l55.6 11.3v-23.8c15.7-4 28-16.3 32-32l-43.1-11h-55.7l11.2 33.3v22.3Z"/><path fill="#ACABB1" d="M416.7 121.6h-98.8v44.6H329V144h87.6c1.9-7.3 1.9-15 0-22.3Z"/><path fill="#333" d="M149.6 312.4c-20.3 0-38 13.7-43.1 33.3l43 11.2 43.2-11.3a44.5 44.5 0 0 0-43.1-33.3Zm-44.5 100 55.6 11.3v-23.8c15.7-4 28-16.3 32-32l-43.1-11H93.9l11.2 33.4v22.1Z"/><path fill="#ACABB1" d="M192.7 345.6H93.9v44.6H105V368h87.6c1.9-7.3 1.9-15 0-22.3Z"/><path fill="#333" d="M149.6 88.3c-20.3 0-38 13.8-43.1 33.4l43 11.1 43.2-11.2a44.5 44.5 0 0 0-43.1-33.3ZM105 188.4l55.6 11.3v-23.8c15.7-4 28-16.3 32-32l-43.1-11H93.9l11.2 33.3v22.3Z"/><path fill="#ACABB1" d="M192.7 121.6H93.9v44.6H105V144h87.6c1.9-7.3 1.9-15 0-22.3Z"/></g><defs><clipPath id="a"><path fill="#fff" d="M0 0h512v512H0z"/></clipPath></defs></svg>