<svg xmlns="http://www.w3.org/2000/svg" viewBox="0 0 512 512"><circle cx="256" cy="256" r="256" fill="#f0f0f0"/><path d="M459.098 411.875L303.223 256.001h-.001l155.876-155.877a258.207 258.207 0 0 0-47.222-47.222L256.001 208.777l-.001.001L100.125 52.902a258.19 258.19 0 0 0-47.222 47.222l155.875 155.874.001.001L52.902 411.876a258.207 258.207 0 0 0 47.222 47.222L256 303.223l.001-.001 155.875 155.875a258.324 258.324 0 0 0 47.222-47.222z" fill="#d80027"/><path fill="#ffda44" d="M211.478 77.913L256 89.043l44.522-11.13V40.07l-17.809 8.904L256 22.261l-26.713 26.713-17.809-8.904z"/><path d="M211.478 77.913v27.828c0 34.08 44.522 44.522 44.522 44.522s44.522-10.443 44.522-44.522V77.913h-89.044z" fill="#d80027"/></svg>