<svg xmlns="http://www.w3.org/2000/svg" width="512" height="512" fill="none"><path fill="#333" d="M0 245.6A255.2 255.2 0 0 1 74.9 74.9L256 256 74.9 437.1A255.2 255.2 0 0 1 0 266.4v-20.8Z"/><path fill="#6DA544" d="M266.4 0a255.2 255.2 0 0 1 170.7 74.9L256 256 74.9 74.9A255.2 255.2 0 0 1 245.6 0h20.8Z"/><path fill="#333" d="M512 266.4a255.2 255.2 0 0 1-74.9 170.7L256 256 437.1 74.9A255.2 255.2 0 0 1 512 245.6v20.8Z"/><path fill="#6DA544" d="M245.6 512a255.2 255.2 0 0 1-170.7-74.9L256 256l181.1 181.1A255.2 255.2 0 0 1 266.4 512h-20.8Z"/><path fill="#FFDA44" d="M459.4 100.6 304 256l155.4 155.4c-13.8 18-30 34.2-48 48L256 304 100.6 459.4c-18-13.8-34.2-30-48-48L208 256 52.6 100.6c13.8-18 30-34.2 48-48L256 208 411.4 52.6c18 13.8 34.2 30 48 48Z"/></svg>