<svg xmlns="http://www.w3.org/2000/svg" width="512" height="512" fill="none"><path fill="#EEE" d="M482.2 376c19-35.8 29.8-76.6 29.8-120 0-43.4-10.8-84.2-29.8-120H29.8A254.9 254.9 0 0 0 0 256c0 43.4 10.8 84.2 29.8 120h452.4Z"/><path fill="#6DA544" d="M496.5 344a256.1 256.1 0 0 1-481 0h481Z"/><path fill="#333" d="M496.5 168h-481a256.1 256.1 0 0 1 481 0Z"/><path fill="#D80027" d="M0 245.6A255.2 255.2 0 0 1 74.9 74.9L256 256 74.9 437.1A255.2 255.2 0 0 1 0 266.4v-20.8Z"/><path fill="#EEE" d="m101.6 200.3 14 29.4 31.8-7.3-14.2 29.3 25.5 20.2-31.8 7.2.1 32.6-25.4-20.4-25.4 20.4V279l-31.7-7.2L70 251.7l-14.2-29.3 31.8 7.3 14-29.4Z"/></svg>