<svg xmlns="http://www.w3.org/2000/svg" viewBox="0 0 512 512"><circle cx="256" cy="256" r="256" fill="#f0f0f0"/><path d="M155.826 166.957h340.25C459.906 69.472 366.07 0 256 0 185.306 0 121.313 28.659 74.989 74.989l80.837 91.968z"/><path d="M155.826 345.043h340.25C459.906 442.528 366.07 512 256 512c-70.694 0-134.687-28.659-181.011-74.989l80.837-91.968z" fill="#6da544"/><path d="M74.98 74.98c-99.974 99.974-99.974 262.065 0 362.04L256 256 74.98 74.98z" fill="#d80027"/><path fill="#f0f0f0" d="M101.605 200.348l14.049 29.379 31.729-7.333-14.21 29.301 25.515 20.234-31.767 7.159.088 32.564-25.404-20.373L76.2 311.652l.089-32.564-31.767-7.159 25.514-20.234-14.208-29.301 31.727 7.333z"/></svg>