<svg xmlns="http://www.w3.org/2000/svg" width="512" height="512" fill="none"><g clip-path="url(#a)"><path fill="#FFDA44" d="M482.2 376c19-35.8 29.8-76.6 29.8-120 0-43.4-10.8-84.2-29.8-120H29.8A254.9 254.9 0 0 0 0 256c0 43.4 10.8 84.2 29.8 120h452.4Z"/><path fill="#496E2D" d="M496.5 344a256.1 256.1 0 0 1-481 0h481Z"/><path fill="#0052B4" d="M496.5 168h-481a256.1 256.1 0 0 1 481 0Z"/><path fill="#FFDA44" fill-rule="evenodd" d="m394.5 471.3-20-14.5-43.4 31.5 16.6-51-43.5-31.6H358l16.6-51 16.6 51h53.7l-43.4 31.6 7.7 23.9c-4.7 3.5-9.6 6.9-14.6 10.1Z" clip-rule="evenodd"/></g><defs><clipPath id="a"><path fill="#fff" d="M0 0h512v512H0z"/></clipPath></defs></svg>