<svg xmlns="http://www.w3.org/2000/svg" width="512" height="512" fill="none"><path fill="#A2001D" d="M482.2 376c19-35.8 29.8-76.6 29.8-120 0-43.4-10.8-84.2-29.8-120H29.8A254.9 254.9 0 0 0 0 256c0 43.4 10.8 84.2 29.8 120h452.4Z"/><path fill="#496E2D" d="M496.5 344a256.1 256.1 0 0 1-481 0h481Z"/><path fill="#333" d="M496.5 168h-481a256.1 256.1 0 0 1 481 0Z"/><path fill="#EEE" fill-rule="evenodd" d="M493.4 160a254 254 0 0 1 10.5 32H8.1a254 254 0 0 1 10.5-32h474.8Zm0 192a254 254 0 0 0 10.5-32H8.1a254 254 0 0 0 10.5 32h474.8Z" clip-rule="evenodd"/><path fill="#EEE" d="m335.7 118.3-30.3-14L256 216.2l-49.4-111.9-30.3 14L237.6 256l-61.3 137.7 30.3 14L256 295.8l49.4 111.9 30.3-14L274.4 256l61.3-137.7Z"/><path fill="#EEE" d="M276.6 131.5c-11.7-12.8-20.6-20.2-20.6-20.2s-8.9 7.4-20.6 20.2v249a235.6 235.6 0 0 0 20.6 20.2s8.9-7.4 20.6-20.2v-249Z"/><path fill="#A2001D" d="M200.3 179.2v153.6a265 265 0 0 0 39 51.9V127.3c-11.4 12-26.6 30-39 52Zm111.4 0a269 269 0 0 0-39-51.9v257.4c11.4-12 26.5-30 39-52V179.3Z"/><path fill="#333" d="M311.7 179.2v153.6a157.7 157.7 0 0 0 22.2-76.8c0-28.2-9.7-54.5-22.2-76.8Zm-111.4 0v153.6a157.7 157.7 0 0 1-22.2-76.8c0-28.2 9.7-54.5 22.2-76.8Z"/></svg>