<svg xmlns="http://www.w3.org/2000/svg" width="512" height="512" fill="none"><circle cx="256" cy="256" r="256" fill="#EEE"/><path fill="#333" fill-rule="evenodd" d="M486.6 144.7H25.4a256 256 0 0 1 461.2 0Z" clip-rule="evenodd"/><path fill="#496E2D" fill-rule="evenodd" d="M255.4 512a256 256 0 0 1-230-144.7h461.2a256 256 0 0 1-230 144.7h-1.2Z" clip-rule="evenodd"/><path fill="#A2001D" fill-rule="evenodd" d="M500 334a255.9 255.9 0 0 0 0-156H12a255.9 255.9 0 0 0 0 156h488Z" clip-rule="evenodd"/><path fill="#EEE" d="m335.7 118.3-30.3-14L256 216.2l-49.4-111.9-30.3 14L237.6 256l-61.3 137.7 30.3 14L256 295.8l49.4 111.9 30.3-14L274.4 256l61.3-137.7Z"/><path fill="#EEE" d="M276.6 131.5c-11.7-12.8-20.6-20.2-20.6-20.2s-8.9 7.4-20.6 20.2v249a235.6 235.6 0 0 0 20.6 20.2s8.9-7.4 20.6-20.2v-249Z"/><path fill="#A2001D" d="M200.3 179.2v153.6a265 265 0 0 0 39 51.9V127.3c-11.4 12-26.6 30-39 52Zm111.4 0a269 269 0 0 0-39-51.9v257.4c11.4-12 26.5-30 39-52V179.3Z"/><path fill="#333" d="M311.7 179.2v153.6a157.7 157.7 0 0 0 22.2-76.8c0-28.2-9.7-54.5-22.2-76.8Zm-111.4 0v153.6a157.7 157.7 0 0 1-22.2-76.8c0-28.2 9.7-54.5 22.2-76.8Z"/></svg>