<svg xmlns="http://www.w3.org/2000/svg" width="512" height="512" fill="none"><circle cx="256" cy="256" r="256" fill="#D80027"/><path fill="#FFDA44" d="M381.2 256 330 280l27.3 49.6-55.6-10.6-7 56.1-38.7-41.3-38.7 41.3-7-56.1-55.6 10.6 27.3-49.5-51.2-24.1 51.2-24-27.3-49.6 55.6 10.6 7-56.1 38.7 41.3 38.7-41.3 7 56.1 55.6-10.6-27.3 49.5 51.2 24.1Z"/><path fill="#D80027" d="M256 334a78 78 0 1 0 0-156 78 78 0 0 0 0 156Z"/><path fill="#FFDA44" d="M217 256c-1.8 0-3.7.1-5.5.3 0 10.8 4 20.6 10.4 28.3a78 78 0 0 1 15-24.9A55.4 55.4 0 0 0 217 256Zm24 42a44.4 44.4 0 0 0 30 0c-2.6-10-7.8-19-15-26-7.2 7-12.4 16-15 26Zm53.6-64.3a44.5 44.5 0 0 0-77.2 0 79 79 0 0 1 38.6 10.5 77.4 77.4 0 0 1 38.6-10.5Zm-19.6 26a78 78 0 0 1 15.1 25 44.3 44.3 0 0 0 10.4-28.4 55.8 55.8 0 0 0-25.5 3.4Z"/></svg>