<svg xmlns="http://www.w3.org/2000/svg" width="512" height="512" fill="none"><path fill="#D80027" d="M477.8 384A254.8 254.8 0 0 0 512 256c0-46.6-12.5-90.3-34.2-128H34.2A254.8 254.8 0 0 0 0 256c0 46.6 12.5 90.3 34.2 128h443.6Z"/><path fill="#0052B4" d="M256 512A256 256 0 0 1 25.6 368h460.6A256 256 0 0 1 256 512h-.1Zm0-512A256 256 0 0 0 25.7 144h460.6A256 256 0 0 0 256 0Z"/><path fill="#EEE" d="M345 306v-33.3h-22.2v-44.5l-22.3-22.3-22.2 22.3v-44.5L256 161.4l-22.3 22.3v44.5l-22.2-22.3-22.3 22.3v44.5H167v33.4h-22.3v33.4h222.6V306H345Z"/></svg>