<svg xmlns="http://www.w3.org/2000/svg" viewBox="0 0 512 512"><path d="M0 256C0 114.616 114.616 0 256 0s256 114.616 256 256" fill="#d80027"/><g fill="#ffda44"><path d="M345.043 238.078l-36.385 17.113 19.376 35.239-39.509-7.559-5.006 39.912L256 293.428l-27.52 29.355-5.005-39.912-39.509 7.557 19.375-35.237-36.384-17.113 36.384-17.116-19.375-35.235 39.508 7.556 5.007-39.91L256 182.726l27.52-29.353 5.005 39.91 39.51-7.556-19.374 35.238zM322.783 83.478h-50.087c0-9.219-7.476-16.696-16.696-16.696s-16.696 7.476-16.696 16.696h-50.087c0 9.22 8.032 16.696 17.252 16.696h-.557c0 9.22 7.474 16.696 16.696 16.696 0 9.22 7.474 16.696 16.696 16.696h33.391c9.219 0 16.696-7.475 16.696-16.696 9.219 0 16.696-7.475 16.696-16.696h-.557c9.221 0 17.253-7.475 17.253-16.696z"/></g><path d="M512 256c0 141.384-114.616 256-256 256S0 397.384 0 256h512z" fill="#f0f0f0"/><g fill="#0052b4"><path d="M256 512c80.022 0 151.456-36.724 198.402-94.228-8.444-5.757-13.003-15.063-27.739-15.063-21.333 0-21.333 19.506-42.665 19.506s-21.333-19.506-42.665-19.506c-21.333 0-21.333 19.506-42.667 19.506s-21.335-19.506-42.67-19.506c-21.333 0-21.333 19.506-42.665 19.506-21.33 0-21.33-19.506-42.663-19.506-21.335 0-21.335 19.506-42.67 19.506s-21.335-19.506-42.67-19.506c-14.734 0-19.293 9.304-27.733 15.061C104.539 475.276 175.977 512 256 512zM469.33 288.65c-21.333 0-21.333-19.506-42.667-19.506-21.333 0-21.333 19.506-42.665 19.506s-21.333-19.506-42.665-19.506c-21.333 0-21.333 19.506-42.667 19.506s-21.335-19.506-42.67-19.506c-21.333 0-21.333 19.506-42.665 19.506-21.33 0-21.33-19.506-42.663-19.506-21.335 0-21.335 19.506-42.67 19.506s-21.335-19.506-42.67-19.506c-21.33 0-21.33 19.506-42.663 19.506-21.218 0-21.341-19.291-42.332-19.497a256.185 256.185 0 0 0 4.103 34.448c17.004 2.499 18.493 19.182 38.23 19.182 21.333 0 21.333-19.504 42.663-19.504 21.335 0 21.335 19.504 42.67 19.504s21.335-19.504 42.67-19.504c21.333 0 21.333 19.504 42.663 19.504 21.333 0 21.333-19.504 42.665-19.504 21.335 0 21.335 19.504 42.67 19.504s21.335-19.504 42.667-19.504c21.333 0 21.333 19.504 42.665 19.504s21.333-19.504 42.665-19.504c21.335 0 21.335 19.504 42.667 19.504 19.739 0 21.228-16.682 38.233-19.181a256.53 256.53 0 0 0 4.105-34.448c-20.995.207-21.12 19.496-42.339 19.496zM426.663 335.927c-21.333 0-21.333 19.506-42.665 19.506s-21.333-19.506-42.665-19.506c-21.333 0-21.333 19.506-42.667 19.506-21.335 0-21.335-19.506-42.67-19.506-21.333 0-21.333 19.506-42.665 19.506-21.33 0-21.33-19.506-42.663-19.506-21.335 0-21.335 19.506-42.67 19.506s-21.335-19.506-42.67-19.506c-21.33 0-21.33 19.506-42.663 19.506-15.243 0-19.597-9.956-28.622-15.644a254.687 254.687 0 0 0 23.237 49.308c1.637.302 3.419.469 5.385.469 21.333 0 21.333-19.504 42.663-19.504 21.335 0 21.335 19.504 42.67 19.504s21.335-19.504 42.67-19.504c21.333 0 21.333 19.504 42.663 19.504 21.333 0 21.333-19.504 42.665-19.504 21.335 0 21.335 19.504 42.67 19.504s21.335-19.504 42.667-19.504c21.333 0 21.333 19.504 42.665 19.504s21.333-19.504 42.665-19.504c21.335 0 21.335 19.504 42.667 19.504 1.968 0 3.75-.167 5.387-.47a254.854 254.854 0 0 0 23.239-49.306c-9.026 5.685-13.381 15.643-28.626 15.643-21.332 0-21.332-19.506-42.667-19.506z"/></g><path d="M511.206 235.775c-20.53.485-20.813 19.484-41.876 19.484-21.333 0-21.333-19.506-42.667-19.506-21.333 0-21.333 19.506-42.665 19.506s-21.333-19.506-42.665-19.506c-21.333 0-21.333 19.506-42.667 19.506s-21.335-19.506-42.67-19.506c-21.333 0-21.333 19.506-42.665 19.506-21.33 0-21.33-19.506-42.663-19.506-21.335 0-21.335 19.506-42.67 19.506s-21.335-19.506-42.67-19.506c-21.33 0-21.33 19.506-42.663 19.506-21.059 0-21.344-18.997-41.872-19.484A259.807 259.807 0 0 0 0 256c0 4.663.132 9.296.381 13.897 20.943.235 21.082 19.494 42.285 19.494 21.333 0 21.333-19.504 42.663-19.504 21.335 0 21.335 19.504 42.67 19.504s21.335-19.504 42.67-19.504c21.333 0 21.333 19.504 42.663 19.504 21.333 0 21.333-19.504 42.665-19.504 21.335 0 21.335 19.504 42.67 19.504s21.335-19.504 42.667-19.504c21.333 0 21.333 19.504 42.665 19.504s21.333-19.504 42.665-19.504c21.335 0 21.335 19.504 42.667 19.504 21.205 0 21.344-19.259 42.291-19.494.246-4.602.378-9.234.378-13.897 0-6.807-.272-13.551-.794-20.225z" fill="#f0f0f0"/></svg>