<svg xmlns="http://www.w3.org/2000/svg" width="512" height="512" fill="none"><g clip-path="url(#a)"><path fill="#D80027" fill-rule="evenodd" d="M489 362a256 256 0 1 0-466.2 0h466.3Z" clip-rule="evenodd"/><path fill="#FFDA44" d="m345 238-36.3 17.2 19.3 35.2-39.5-7.5-5 39.9-27.5-29.4-27.5 29.4-5-40-39.5 7.6 19.3-35.2L167 238l36.3-17.1-19.3-35.3 39.5 7.6 5-40 27.5 29.4 27.5-29.3 5 39.9 39.5-7.6-19.3 35.3 36.3 17ZM322.8 83.5h-50.1a16.7 16.7 0 0 0-33.4 0h-50c0 9.2 8 16.7 17.2 16.7h-.6c0 9.2 7.5 16.7 16.7 16.7 0 9.2 7.5 16.7 16.7 16.7h33.4c9.2 0 16.7-7.5 16.7-16.7 9.2 0 16.7-7.5 16.7-16.7h-.6c9.3 0 17.3-7.5 17.3-16.7Z"/><path fill="#0052B4" fill-rule="evenodd" d="M512 262.2a256 256 0 0 1-512 0h512Z" clip-rule="evenodd"/><path fill="#F3F3F3" fill-rule="evenodd" d="M511.2 276.5a259.4 259.4 0 0 0 .6-30.6l-1.3-1.3c-4.9-4.4-9.8-8.9-19.5-8.9-9.8 0-14.6 4.5-19.5 9-4.9 4.4-9.7 8.9-19.5 8.9-9.7 0-14.6-4.5-19.4-9-5-4.4-9.8-8.9-19.5-8.9-9.8 0-14.6 4.5-19.5 9-4.9 4.4-9.7 8.9-19.5 8.9-9.7 0-14.6-4.5-19.5-9-4.8-4.4-9.7-8.9-19.4-8.9-9.8 0-14.6 4.5-19.5 9-4.9 4.4-9.8 8.9-19.5 8.9s-14.6-4.5-19.5-9c-4.8-4.4-9.7-8.9-19.4-8.9-9.8 0-14.7 4.5-19.5 9-4.9 4.4-9.8 8.9-19.5 8.9s-14.6-4.5-19.5-9c-4.9-4.4-9.7-8.9-19.5-8.9-9.7 0-14.6 4.5-19.4 9-5 4.4-9.8 8.9-19.5 8.9-9.8 0-14.6-4.5-19.5-9-4.9-4.4-9.7-8.9-19.5-8.9-9.7 0-14.6 4.5-19.5 9-4.8 4.4-9.7 8.9-19.4 8.9-9.8 0-14.6-4.5-19.5-9-4.9-4.4-9.8-8.9-19.5-8.9S9 240.2 4 244.7A76.9 76.9 0 0 1 .1 248a260.7 260.7 0 0 0 .9 30.4l3-2.7c4.9-4.4 9.8-8.9 19.5-8.9s14.6 4.5 19.5 9c4.9 4.4 9.7 8.8 19.5 8.8 9.7 0 14.6-4.4 19.4-8.9 5-4.4 9.8-8.9 19.5-8.9 9.8 0 14.6 4.5 19.5 9 4.9 4.4 9.7 8.8 19.5 8.8 9.7 0 14.6-4.4 19.5-8.9 4.8-4.4 9.7-8.9 19.4-8.9 9.8 0 14.6 4.5 19.5 9 4.9 4.4 9.8 8.8 19.5 8.8s14.6-4.4 19.5-8.9c4.8-4.4 9.7-8.9 19.5-8.9 9.7 0 14.6 4.5 19.4 9 4.9 4.4 9.8 8.8 19.5 8.8s14.6-4.4 19.5-8.9c4.9-4.4 9.7-8.9 19.5-8.9 9.7 0 14.6 4.5 19.4 9 5 4.4 9.8 8.8 19.5 8.8 9.8 0 14.6-4.4 19.5-8.9 4.9-4.4 9.7-8.9 19.5-8.9 9.7 0 14.6 4.5 19.5 9 4.8 4.4 9.7 8.8 19.4 8.8 9.8 0 14.6-4.4 19.5-8.9 4.9-4.4 9.7-8.9 19.5-8.9 9.7 0 14.6 4.5 19.5 9l.7.6Zm-3.8 27.8c-4-3.4-8.7-6.2-16.4-6.2-9.8 0-14.6 4.5-19.5 9-4.9 4.4-9.7 8.8-19.5 8.8-9.7 0-14.6-4.4-19.4-8.9-5-4.4-9.8-8.9-19.5-8.9-9.8 0-14.6 4.5-19.5 9-4.9 4.4-9.7 8.8-19.5 8.8-9.7 0-14.6-4.4-19.5-8.9-4.8-4.4-9.7-8.9-19.4-8.9-9.8 0-14.6 4.5-19.5 9-4.9 4.4-9.8 8.8-19.5 8.8s-14.6-4.4-19.5-8.9c-4.8-4.4-9.7-8.9-19.4-8.9-9.8 0-14.7 4.5-19.5 9-4.9 4.4-9.8 8.8-19.5 8.8s-14.6-4.4-19.5-8.9c-4.9-4.4-9.7-8.9-19.5-8.9-9.7 0-14.6 4.5-19.4 9-5 4.4-9.8 8.8-19.5 8.8-9.8 0-14.6-4.4-19.5-8.9-4.9-4.4-9.7-8.9-19.5-8.9-9.7 0-14.6 4.5-19.5 9-4.8 4.4-9.7 8.8-19.4 8.8-9.8 0-14.6-4.4-19.5-8.9-4.9-4.4-9.8-8.9-19.5-8.9-9.1 0-14 4-18.6 8.1 1.8 8.9 4 17.6 6.7 26 3-1.7 6.8-3 12-3 9.6 0 14.5 4.5 19.4 9 4.9 4.5 9.7 8.9 19.5 8.9 9.7 0 14.6-4.4 19.4-8.9 5-4.5 9.8-9 19.5-9 9.8 0 14.6 4.5 19.5 9s9.7 8.9 19.5 8.9c9.7 0 14.6-4.4 19.5-8.9 4.8-4.5 9.7-9 19.4-9 9.8 0 14.6 4.5 19.5 9s9.8 8.9 19.5 8.9 14.6-4.4 19.5-8.9c4.8-4.5 9.7-9 19.5-9 9.7 0 14.6 4.5 19.4 9 4.9 4.5 9.8 8.9 19.5 8.9s14.6-4.4 19.5-8.9 9.7-9 19.5-9c9.7 0 14.6 4.5 19.4 9 5 4.5 9.8 8.9 19.5 8.9 9.8 0 14.6-4.4 19.5-8.9s9.7-9 19.5-9c9.7 0 14.6 4.5 19.5 9 4.8 4.5 9.7 8.9 19.4 8.9 9.8 0 14.6-4.4 19.5-8.9s9.7-9 19.5-9c4 0 7.1.8 9.8 2a240 240 0 0 0 6.6-26.9Zm-17.6 56.2c-9 .4-13.6 4.7-18.3 9-4.9 4.4-9.7 8.8-19.5 8.8-9.7 0-14.6-4.4-19.4-8.9-5-4.4-9.8-8.9-19.5-8.9-9.8 0-14.6 4.5-19.5 9-4.9 4.4-9.7 8.8-19.5 8.8-9.7 0-14.6-4.4-19.5-8.9-4.8-4.4-9.7-8.9-19.4-8.9-9.8 0-14.6 4.5-19.5 9-4.9 4.4-9.8 8.8-19.5 8.8s-14.6-4.4-19.5-8.9c-4.8-4.4-9.7-8.9-19.4-8.9-9.8 0-14.7 4.5-19.5 9-4.9 4.4-9.8 8.8-19.5 8.8s-14.6-4.4-19.5-8.9c-4.9-4.4-9.7-8.9-19.5-8.9-9.7 0-14.6 4.5-19.4 9-5 4.4-9.8 8.8-19.5 8.8-9.8 0-14.6-4.4-19.5-8.9-4.9-4.4-9.7-8.9-19.5-8.9-9.7 0-14.6 4.5-19.5 9-4.8 4.4-9.7 8.8-19.4 8.8-9.8 0-14.6-4.4-19.5-8.9-4.9-4.4-9.8-8.9-19.5-8.9h-1.3a259 259 0 0 0 25.1 43.8c3.8 3 8.2 5.2 15.2 5.2 9.7 0 14.6-4.5 19.4-9 5-4.4 9.8-8.8 19.5-8.8 9.8 0 14.6 4.4 19.5 8.9 4.9 4.4 9.7 8.9 19.5 8.9 9.7 0 14.6-4.5 19.5-9 4.8-4.4 9.7-8.8 19.4-8.8 9.8 0 14.6 4.4 19.5 8.9 4.9 4.4 9.8 8.9 19.5 8.9s14.6-4.5 19.5-9c4.8-4.4 9.7-8.8 19.5-8.8 9.7 0 14.6 4.4 19.4 8.9 4.9 4.4 9.8 8.9 19.5 8.9s14.6-4.5 19.5-9c4.9-4.4 9.7-8.8 19.5-8.8 9.7 0 14.6 4.4 19.4 8.9 5 4.4 9.8 8.9 19.5 8.9 9.8 0 14.6-4.5 19.5-9 4.9-4.4 9.7-8.8 19.5-8.8 9.7 0 14.6 4.4 19.5 8.9 4.8 4.4 9.7 8.9 19.4 8.9 4.4 0 7.7-.9 10.6-2.3a255.7 255.7 0 0 0 27.2-46.7Z" clip-rule="evenodd"/></g><defs><clipPath id="a"><path fill="#fff" d="M0 0h512v512H0z"/></clipPath></defs></svg>