<svg xmlns="http://www.w3.org/2000/svg" width="512" height="512" fill="none"><g clip-path="url(#a)"><path fill="#EEE" fill-rule="evenodd" d="M194.9 7.3c10.8-2.6 22-4.6 33.3-5.8L260 211l-32 211h-32l-32-211L194.9 7.3Z" clip-rule="evenodd"/><path fill="#496E2D" fill-rule="evenodd" d="M89 450A256.1 256.1 0 0 1 196 7v443H89Z" clip-rule="evenodd"/><path fill="#EEE" fill-rule="evenodd" d="M35.5 125.9A256.6 256.6 0 0 1 58 93.7L98 185l49-112 31 14-62 138 62 138-31 14-49-112-49 112-24.2-11-4.1-9L80 225l-44.5-99.1Z" clip-rule="evenodd"/><path fill="#EEE" d="M98 80 81 96 65 224l16 130 17 16 17-16 15-131-15-127-17-16Z"/><path fill="#333" d="m154 148-10 76 10 78a159 159 0 0 0 22-77c0-28-10-54-22-77Zm-112 0 9 74-9 80a159 159 0 0 1-22-77c0-28 10-54 22-77Z"/><path fill="#A2001D" d="M42 148v154a269 269 0 0 0 39 52V96c-11 12-26 30-39 52Zm112 0a269 269 0 0 0-39-52v258c11-12 26-30 39-52V148Z"/><path fill="#D80027" fill-rule="evenodd" d="M450.9 422A256 256 0 0 0 228 1.5V422h222.9Z" clip-rule="evenodd"/><path fill="#333" fill-rule="evenodd" d="M467 400.9a255.7 255.7 0 0 1-393.5 34.6L86 433l75 8 55-51 41 18 106-56 104 48.9Z" clip-rule="evenodd"/></g><defs><clipPath id="a"><path fill="#fff" d="M0 0h512v512H0z"/></clipPath></defs></svg>