<svg xmlns="http://www.w3.org/2000/svg" width="512" height="512" fill="none"><path fill="#0052B4" d="M482 376.5a256 256 0 0 1-452 0L256 320l226 56.5Z"/><path fill="#D80027" d="M477.8 384A254.8 254.8 0 0 0 512 256l-256-64L0 256c0 46.6 12.5 90.3 34.2 128h443.6Z"/><path fill="#EEE" d="M471.6 117.9A254.8 254.8 0 0 1 512 256H0c0-50.9 14.8-98.3 40.4-138.1L256 64l215.6 53.9Z"/><path fill="#FFC635" d="M477.8 128H34.2a255.9 255.9 0 0 1 443.6 0Z"/><path fill="#6DA544" d="M0 245.6A255.2 255.2 0 0 1 74.9 74.9L256 256 74.9 437.1A255.2 255.2 0 0 1 0 266.4v-20.8Z"/><path fill="#EEE" d="M67.5 255.3a78 78 0 0 1 61.2-76.1 78 78 0 1 0 0 152.2 78 78 0 0 1-61.2-76.1Z"/><path fill="#EEE" d="m127.9 188.5 4.1 12.7h13.4l-10.8 8 4.1 12.7-10.8-8-10.9 8 4.2-12.8-10.9-7.9h13.4l4.2-12.7Zm0 33.4 4.1 12.7h13.4l-10.8 7.9 4.1 12.8-10.8-8-10.9 8 4.2-12.8-10.9-7.9h13.4L128 222Zm0 33.4L132 268h13.4l-10.8 7.9 4.1 12.8-10.8-8-10.9 8 4.2-12.8-10.9-7.9h13.4l4.2-12.7Z"/><path fill="#EEE" d="m127.9 288.6 4.1 12.8h13.4l-10.8 7.9 4.1 12.7-10.8-7.8L117 322l4.2-12.7-10.9-7.9h13.4l4.2-12.8Z"/></svg>