<svg xmlns="http://www.w3.org/2000/svg" width="512" height="512" fill="none"><g clip-path="url(#a)"><path fill="#EEE" d="M482.2 376c19-35.8 29.8-76.6 29.8-120 0-43.4-10.8-84.2-29.8-120H29.8A254.9 254.9 0 0 0 0 256c0 43.4 10.8 84.2 29.8 120h452.4Z"/><path fill="#FFDA44" d="M496.5 344a256.1 256.1 0 0 1-481 0h481Z"/><path fill="#D80027" d="M496.5 168h-481a256.1 256.1 0 0 1 481 0Z"/><path fill="#EEE" d="M256 71.4 297.4 199h134.1l-108.4 78.8 41.4 127.5L256 326.5l-108.5 78.8L189 277.8 80.5 199h134L256 71.4Z"/><path fill="#333" fill-rule="evenodd" d="M297.4 199 256 71.4 214.6 199H80.5l108.4 78.8-41.4 127.5L256 326.5l108.5 78.8L323 277.8 431.5 199h-134Zm84.9 16h-96.5L256 123.2 226.2 215h-96.5l78 56.7-29.8 91.7 78.1-56.7 78 56.7-29.8-91.7 78.1-56.7Z" clip-rule="evenodd"/></g><defs><clipPath id="a"><path fill="#fff" d="M0 0h512v512H0z"/></clipPath></defs></svg>