<svg xmlns="http://www.w3.org/2000/svg" width="512" height="512" fill="none"><circle cx="256" cy="256" r="256" fill="#EEE"/><path fill="#0052B4" fill-rule="evenodd" d="M62 89C108.8 34.5 178.3 0 256 0s147.1 34.5 194 89H62Zm194.7 423a255.4 255.4 0 0 0 193.4-89H61.9a255.4 255.4 0 0 0 193.4 89h1.4Z" clip-rule="evenodd"/><path fill="#D80027" fill-rule="evenodd" d="M474.4 389.6A254.8 254.8 0 0 0 512 256c0-49-13.7-94.7-37.6-133.6H37.6A254.8 254.8 0 0 0 0 256c0 49 13.7 94.7 37.6 133.6h436.8Z" clip-rule="evenodd"/><circle cx="157.6" cy="256" r="98.4" fill="#EEE"/><path fill="#D80027" d="m157.6 157.6 22 68h71.6l-57.9 42 22.1 68-57.8-42-58 42 22.2-68-57.9-42h71.5l22.2-68Z"/></svg>