<svg xmlns="http://www.w3.org/2000/svg" width="512" height="512" fill="none"><circle cx="256" cy="256" r="256" fill="#EEE"/><path fill="#D80027" d="m345 256-89 18.4-89-18.4a89 89 0 1 1 178 0Z"/><path fill="#0052B4" d="M345 256a89 89 0 1 1-178 0"/><path fill="#333" d="m90.7 153.7 63-63L138 75l-63 63 15.7 15.7Zm267.6-62.9 23.6 23.6 15.8-15.8L374 75l-15.8 15.8Zm39.4 86.5-63-63 15.8-15.7 63 63-15.8 15.7ZM374 311.1l-23.6 23.6 15.7 15.7 23.6-23.6-15.7-15.7Zm-39.4 39.3L311 374.1l15.8 15.7 23.6-23.6-15.8-15.8Zm63 31.6 23.6-23.7 15.7 15.8-23.6 23.6-15.7-15.8Zm-15.8 15.7-23.6 23.6L374 437l23.6-23.6-15.8-15.7Zm-7.8-39.4 23.6-23.6 15.7 15.7-23.6 23.7-15.7-15.8ZM358.2 374l-23.6 23.7 15.8 15.7 23.6-23.6-15.8-15.7Zm-47.1-236 23.6 23.6 15.8-15.7-23.6-23.6L311 138Zm62.9 63-23.5-23.6 15.7-15.8 23.6 23.6-15.7 15.8Zm47.3-47.3-23.6-23.6 15.7-15.7L437 138l-15.7 15.7ZM153.7 421.2l-63-63L75 374l63 63 15.7-15.8Zm0-47.2 23.6 23.6-15.7 15.7-23.6-23.6 15.7-15.7ZM138 358.3l-23.6-23.6-15.8 15.7 23.6 23.6 15.8-15.7Zm0-47.3 63 63-15.8 15.7-63-63L138 311Zm39.3-196.7-63 63-15.7-15.8 63-63 15.7 15.8ZM138 200.9l63-63-15.8-15.7-63 63 15.8 15.7Z"/></svg>