<svg xmlns="http://www.w3.org/2000/svg" viewBox="0 0 512 512"><circle cx="256" cy="256" r="256" fill="#eee"/><path d="M256 0C154.5 0 66.81 59.06 25.4 144.7h461.2C445.19 59.07 357.5 0 256 0z" fill="#d80027"/><path d="M256 512c101.5 0 189.19-59.06 230.6-144.7H25.4C66.81 452.93 154.5 512 256 512z" fill="#6da544"/><path d="M256 95.9l19.44 83.59 56.06-64.99-21.63 83.06 79.84-31.5-57.75 63.5 85.32 9.22-80.64 29.37 71.27 47.82-85.06-11.46 40.89 75.46-69.99-49.68 1.13 85.82L256 339.59l-38.88 76.52 1.13-85.82-69.99 49.68 40.89-75.46-85.06 11.46 71.27-47.82-80.64-29.37 85.32-9.23-57.75-63.48 79.84 31.49-21.63-83.06 56.06 64.99z" fill="#ffda44" paint-order="markers stroke fill"/></svg>