<svg xmlns="http://www.w3.org/2000/svg" width="512" height="512" fill="none"><path fill="#EEE" d="M482.2 376c19-35.8 29.8-76.6 29.8-120 0-43.4-10.8-84.2-29.8-120H29.8A254.9 254.9 0 0 0 0 256c0 43.4 10.8 84.2 29.8 120h452.4Z"/><path fill="#D80027" d="M496.5 344a256.1 256.1 0 0 1-481 0h481Z"/><path fill="#6DA544" d="M496.5 168h-481a256.1 256.1 0 0 1 481 0Z"/><path fill="#333" fill-rule="evenodd" d="M75 437A255.2 255.2 0 0 1 0 256c0-70.7 28.7-134.7 75-181l93 93v176l-93 93Z" clip-rule="evenodd"/></svg>