<svg xmlns="http://www.w3.org/2000/svg" viewBox="0 0 512 512"><path d="M512 256c0 141.384-114.616 256-256 256S0 397.384 0 256C0 256.061 256 .028 256 0c141.384 0 256 114.616 256 256z" fill="#0052b4"/><g fill="#eee"><path d="M256 0h-.043.043zm-.685 256H256v-.685l-.685.685z"/><path d="M256 133.565V0h-.043C114.591.024 0 114.629 0 256h133.565v-75.211L208.776 256h46.54l.685-.685v-46.537l-75.213-75.213H256z"/></g><circle cx="367.304" cy="144.696" r="44.522" fill="#6da544"/><g fill="#d80027"><path d="M129.515 33.391a257.215 257.215 0 0 0-96.124 96.124V256h66.783V100.174H256V33.391H129.515z"/><path d="M256 224.519l-90.955-90.953h-31.48v.002L255.998 256H256v-31.481zm33.391-90.954h155.826v66.783H289.391z"/></g><path d="M445.217 256v-.001.001zm-155.826 0v-.001z" fill="#496e2d"/><path d="M289.391 300.522v44.522h23.424c14.045 13.764 33.27 22.261 54.489 22.261s40.444-8.497 54.489-22.261h23.424v-44.522H289.391z" fill="#ffda44"/><path d="M289.391 189.217V256c0 59.639 77.913 77.913 77.913 77.913s77.913-18.274 77.913-77.913v-66.783H289.391z" fill="#338af3"/><path d="M367.3 224.889c-19.477 0-19.477 17.809-38.954 17.809s-19.477-17.809-38.954-17.809v31.165c19.477 0 19.477 17.809 38.954 17.809s19.477-17.809 38.954-17.809c19.479 0 19.479 17.809 38.959 17.809s19.479-17.809 38.959-17.809v-31.165c-19.479 0-19.479 17.809-38.959 17.809-19.48 0-19.48-17.809-38.959-17.809zm0-62.385c-19.477 0-19.477 17.809-38.954 17.809s-19.477-17.809-38.954-17.809v31.165c19.477 0 19.477 17.809 38.954 17.809s19.477-17.809 38.954-17.809c19.479 0 19.479 17.809 38.959 17.809s19.479-17.809 38.959-17.809v-31.165c-19.479 0-19.479 17.809-38.959 17.809-19.48 0-19.48-17.809-38.959-17.809z" fill="#eee"/></svg>