<svg xmlns="http://www.w3.org/2000/svg" width="512" height="512" fill="none"><circle cx="256" cy="256" r="256" fill="#FFDA44"/><path fill="#FF9811" fill-rule="evenodd" d="M96 56.1c11.3-9 23.3-17 36-24.1h60v448h-60a251 251 0 0 1-36-24.1V56Z" clip-rule="evenodd"/><path fill="#A2001D" fill-rule="evenodd" d="M489.5 150.8a66.6 66.6 0 0 0-13.2 83 1136 1136 0 0 0-32 0H423V167c0-11.2-16.7-22.3-16.7-22.3s-16.7 11.1-16.7 22.3h-66.8v66.7h33.4v33.4c0 7.4 1.5 14.3 4.1 20.7L345 300.5h-44.5V94.6c-18.4 0-33.4 15-33.4 33.4v144.7c0 9.9 4.3 18.8 11.2 24.9v53h22.2v-27.8h100.2v44.5h-22.3v22.3H423V345l20.4-22.2h48.2l8.8 9.6A256.7 256.7 0 0 1 380 480H224V32h156a257 257 0 0 1 109.5 118.8Z" clip-rule="evenodd"/><path fill="#6DA544" fill-rule="evenodd" d="M96 455.9c-58.5-47-96-119-96-199.9 0-80.8 37.5-153 96-199.9V456Z" clip-rule="evenodd"/></svg>