<svg xmlns="http://www.w3.org/2000/svg" width="512" height="512" fill="none"><path fill="#EEE" d="M256 0c54.8 0 105.6 17.2 147.2 46.6L453.5 93c11.8 14.3 22 29.9 30.6 46.6l18.3 46.5a255 255 0 0 1 8.6 46.5v46.5a255 255 0 0 1-8.6 46.6L484 372.3a256.3 256.3 0 0 1-30.6 46.6l-50.3 46.6A254.8 254.8 0 0 1 256 512a254.8 254.8 0 0 1-147.2-46.5l-50.3-46.6A256.4 256.4 0 0 1 28 372.3L9.6 325.8A255 255 0 0 1 1 279.2v-46.5a255 255 0 0 1 8.6-46.5L28 139.7A256.3 256.3 0 0 1 58.5 93l50.3-46.5A254.8 254.8 0 0 1 256 0Zm256 256.5v-1 1Z"/><path fill="#D80027" d="M511 279.2c.6-7.4 1-15 1-22.7v-1c0-7.7-.4-15.3-1-22.8H1a259.2 259.2 0 0 0 0 46.5h510Zm-8.6 46.6H9.6A254.3 254.3 0 0 0 28 372.3h456.2a254.3 254.3 0 0 0 18.3-46.5ZM453.5 419h-395a257.5 257.5 0 0 0 50.3 46.5h294.4a257.5 257.5 0 0 0 50.3-46.6ZM9.6 186.2h492.8a254.2 254.2 0 0 0-18.3-46.5H27.9a254.3 254.3 0 0 0-18.3 46.5ZM58.5 93h395a257.5 257.5 0 0 0-50.3-46.4H108.8A257.5 257.5 0 0 0 58.5 93Z"/><path fill="#0052B4" d="M256 0v232.7H1A256 256 0 0 1 256 0Z"/><path fill="#EEE" d="m144 58.4 16.6 51.1h53.7l-43.4 31.6 16.5 51-43.4-31.5-43.4 31.6L117 141l-43.4-31.6h53.7l16.6-51Z"/></svg>