<svg xmlns="http://www.w3.org/2000/svg" width="512" height="512" fill="none"><path fill="#EEE" d="M477.8 384A254.8 254.8 0 0 0 512 256c0-46.6-12.5-90.3-34.2-128H34.2A254.8 254.8 0 0 0 0 256c0 46.6 12.5 90.3 34.2 128h443.6Z"/><path fill="#6DA544" d="M256 512A256 256 0 0 1 25.6 368h460.6A256 256 0 0 1 256 512h-.1Z"/><path fill="#0052B4" d="M256 0A256 256 0 0 0 25.7 144h460.6A256 256 0 0 0 256 0Z"/><path fill="#333" d="M272.7 250.4v-61.2h-33.4v61.2L199 290.8a66.7 66.7 0 0 0 114 0l-40.3-40.4Z"/></svg>