<svg xmlns="http://www.w3.org/2000/svg" width="512" height="512" fill="none"><path fill="#EEE" d="M482.2 376c19-35.8 29.8-76.6 29.8-120 0-43.4-10.8-84.2-29.8-120H29.8A254.9 254.9 0 0 0 0 256c0 43.4 10.8 84.2 29.8 120h452.4Z"/><path fill="#338AF3" d="M496.5 344a256.1 256.1 0 0 1-481 0h481Z"/><path fill="#D80027" d="M496.5 168h-481a256.1 256.1 0 0 1 481 0Z"/><path fill="#EEE" d="M256 512a256 256 0 1 0 0-512 256 256 0 0 0 0 512Z"/><path fill="#D80027" d="M256 0A256 256 0 0 0 16 167h480A256 256 0 0 0 256 0Z"/><path fill="#338AF3" d="M256 512a256 256 0 0 0 240-167H16a256 256 0 0 0 240 167Z"/></svg>