<svg xmlns="http://www.w3.org/2000/svg" width="512" height="512" fill="none"><path fill="#EEE" d="m315.6 209.2 21 29 34-11.1-21 29 21 28.9-34-11.1-21 29V267l-34-11.1 34-11v-35.8Z"/><path fill="#EEE" d="M258.3 328.3a72.3 72.3 0 1 1 34.4-136 89 89 0 1 0 0 127.3 72 72 0 0 1-34.4 8.7Z"/><path fill="#333" d="M477.8 384A254.8 254.8 0 0 0 512 256c0-46.6-12.5-90.3-34.2-128H34.2A254.8 254.8 0 0 0 0 256c0 46.6 12.5 90.3 34.2 128h443.6Z"/><path fill="#496E2D" d="M256 512A256 256 0 0 1 25.6 368h460.6A256 256 0 0 1 256 512h-.1Z"/><path fill="#D80027" d="M256 0A256 256 0 0 0 25.7 144h460.6A256 256 0 0 0 256 0Z"/><path fill="#EEE" d="m315.6 209.2 21 29 34-11.1-21 29 21 28.9-34-11.1-21 29V267l-34-11.1 34-11v-35.8Z"/><path fill="#EEE" d="M258.3 328.3a72.3 72.3 0 1 1 34.4-136 89 89 0 1 0 0 127.3 72 72 0 0 1-34.4 8.7Z"/></svg>