<svg xmlns="http://www.w3.org/2000/svg" width="512" height="512" fill="none"><circle cx="256" cy="256" r="256" fill="#D80027"/><path fill="#6DA544" fill-rule="evenodd" d="m285.2 215.7-29.2-90-29.2 90H132l76.6 55.7-29.3 90 76.6-55.6 76.6 55.6-29.3-90 76.6-55.7h-94.7Zm-44.5 0 15.3-47 15.3 47h-30.6Zm34.9 13.3h-39.2l-12.1 37.3 31.7 23 31.7-23-12.1-37.3Zm-53.2 0-9.4 29.1-40-29h49.4Zm-2.4 50.6-15.3 47 40-29-24.7-18Zm47.3 18 24.7-18 15.3 47-40-29ZM299 258l40-29h-49.4l9.4 29Z" clip-rule="evenodd"/><path fill="#6DA544" d="m256 125.7 1-.3-1-2.9-1 3 1 .2Zm29.2 90-.9.4.2.6h.7v-1Zm-58.4 0v1h.7l.2-.6-1-.4Zm-94.7 0v-1h-3l2.4 1.9.6-.9Zm76.6 55.7 1 .3.2-.7-.6-.4-.6.8Zm-29.3 90-1-.3-.9 3 2.5-1.9-.6-.8Zm76.6-55.6.6-.9-.6-.4-.6.4.6.9Zm76.6 55.6-.6.8 2.5 1.8-1-3-1 .4Zm-29.3-90-.6-.8-.6.4.3.7 1-.3Zm76.6-55.7.6.9 2.5-1.9h-3.1v1Zm-139.2 0-1-.3-.4 1.4h1.4v-1Zm15.3-47 1-.3-1-3-1 3 1 .3Zm15.3 47v1h1.4l-.4-1.3-1 .4Zm4.3 13.3 1-.3-.3-.7h-.7v1Zm-39.2 0v-1h-.7l-.3.7 1 .3Zm-12.1 37.3-1-.3-.2.7.6.4.6-.8Zm31.7 23-.6.9.6.4.6-.4-.6-.9Zm31.7-23 .6.8.6-.4-.2-.7-1 .3Zm-74.7-8.2-.6.8 1.1.8.4-1.3-1-.3Zm9.4-29 1 .2.4-1.3h-1.4v1Zm-49.5 0v-1h-3l2.5 1.7.5-.8Zm31.8 97.6-1-.4-1 3 2.6-1.8-.6-.8Zm15.3-47.1.6-.8-1.2-.8-.4 1.3 1 .3Zm24.7 18 .6.8 1.1-.8-1-.9-.7.9Zm47.3-18 1-.3-.4-1.3-1.2.8.6.8Zm-24.7 18-.6-.9-1.1.9 1 .8.7-.8Zm40 29-.6.9 2.5 1.8-1-3-.9.4Zm31.8-97.6.5.8 2.5-1.8h-3v1ZM299 258.1l-1 .3.5 1.3 1-.8-.5-.8Zm-9.4-29v-1h-1.4l.4 1.2 1-.3ZM255 126l29.3 90 1.9-.7-29.2-90-2 .6Zm-27.3 90 29.3-90-2-.7-29.2 90 1.9.7Zm-95.6.6h94.7v-2H132v2Zm77.2 53.9-76.6-55.7-1.2 1.7 76.6 55.6 1.2-1.6Zm-29 91.1 29.3-90-1.9-.6-29.2 90 1.9.6Zm75.1-56.8-76.6 55.7 1.2 1.6 76.6-55.6-1.2-1.7Zm77.8 55.7-76.6-55.7-1.2 1.7 76.6 55.6 1.2-1.6Zm-30.8-89 29.2 90.1 2-.6-29.3-90-2 .6Zm77-56.7-76.7 55.7 1.2 1.6 76.6-55.6-1.2-1.7Zm-94.2 1.8H380v-2h-94.7v2Zm-43.5-.6 15.3-47-2-.6-15.3 47 2 .7Zm13.3-47 15.3 47 2-.6-15.3-47-2 .6Zm-14.3 47.8h30.6v-2h-30.6v2Zm34.9 11.2h-39.2v2h39.2v-2Zm-50.4 38.6 12.1-37.3-1.9-.6-12 37.3 1.8.6Zm31.4 22-31.7-23.1-1.2 1.6 31.7 23 1.2-1.6Zm30.5-23.1-31.7 23 1.2 1.7 31.7-23-1.2-1.7Zm-12.5-36.2 12.2 37.3 1.9-.6-12.1-37.3-2 .6ZM214 258.4l9.5-29-1.9-.7-9.5 29.1 2 .6Zm-41.5-28.6 40 29.1 1.2-1.6-40-29-1.2 1.5Zm50-1.8H173v2h49.5v-2Zm-16.8 99 15.3-47.1-1.9-.6-15.3 47 2 .7Zm38.5-30.3-40 29.1 1.2 1.7 40-29.1-1.2-1.7Zm-24.7-16.3 24.7 18 1.2-1.7-24.7-18-1.2 1.7Zm72-1.6-24.7 18 1.2 1.6 24.7-18-1.2-1.6Zm16.9 47.5-15.3-47-2 .6 15.4 47 1.9-.6Zm-41.6-28 40 29.2 1.2-1.7-40-29-1.2 1.6Zm71.8-70-40 29 1 1.6 40.1-29-1.1-1.7Zm-49 1.7h49.6v-2h-49.6v2Zm10.5 27.8-9.5-29-1.9.5 9.5 29.1 1.9-.6Z"/></svg>