<svg xmlns="http://www.w3.org/2000/svg" viewBox="0 0 512 512"><circle cx="256" cy="256" r="256" fill="#d80027"/><path d="M407.288 210.09H291.714L256 100.174 220.286 210.09H104.712l93.501 67.932-35.715 109.919L256 320.008l93.502 67.934-35.715-109.919 93.501-67.933zm-182.906 59.429l12.077-37.169h39.081l12.078 37.169v.001L256 292.491l-31.617-22.971-.001-.001zm43.926-59.429h-24.615L256 172.21l12.308 37.88zm38.245 45.672l-7.607-23.411h39.829l-32.222 23.411zm-93.5-23.411l-7.607 23.411-32.223-23.411h39.83zm-8.212 97.31l12.308-37.879 19.915 14.468-32.223 23.411zm70.095-23.41l19.915-14.468 12.308 37.879-32.223-23.411z" fill="#ffda44"/></svg>