<svg xmlns="http://www.w3.org/2000/svg" width="512" height="512" fill="none"><g fill-rule="evenodd" clip-path="url(#a)" clip-rule="evenodd"><path fill="#EEE" d="M92 59.4 247.8 44l261 252.1c-5.7 36.8-19.3 71-39 100.7l-357 32.4-103-243.5A255.2 255.2 0 0 1 92 59.4Z"/><path fill="#333" d="M508.4 299A256 256 0 0 0 81.6 68.6H178a115.2 115.2 0 1 1 0 230.4h330.4Z"/><path fill="#D80027" d="M17.6 162.5H178a68.3 68.3 0 0 1 0 136.5 47 47 0 0 0 0-93.9 93.9 93.9 0 1 0 0 187.8h294.4A256 256 0 0 1 17.7 162.5Z"/></g><defs><clipPath id="a"><path fill="#fff" d="M0 0h512v512H0z"/></clipPath></defs></svg>