<svg xmlns="http://www.w3.org/2000/svg" viewBox="0 0 512 512"><circle cx="256" cy="256" r="256" fill="#eee"/><path d="M270.93.75L236.8.77A256 256 0 0 0 81.92 68.6H178c63.62 0 115.2 51.58 115.2 115.2 0 63.62-51.58 115.2-115.2 115.2h330.08a256 256 0 0 0 3.92-43A256 256 0 0 0 270.93.75z" fill="#333"/><path d="M17.96 162.47A256 256 0 0 0 0 256a256 256 0 0 0 256 256 256 256 0 0 0 216-119.13H178a93.87 93.87 0 0 1 0-187.74 46.93 46.93 0 0 1 0 93.87 68.27 68.27 0 0 0 0-136.53H17.96z" fill="#d80027"/></svg>