<svg xmlns="http://www.w3.org/2000/svg" width="512" height="512" fill="none"><path fill="#FFDA44" d="M128 477.8A254.8 254.8 0 0 0 256 512c46.6 0 90.3-12.5 128-34.2V34.2A254.8 254.8 0 0 0 256 0c-46.6 0-90.3 12.5-128 34.2v443.6Z"/><path fill="#0052B4" d="M0 256A256 256 0 0 1 144 25.6v460.6A256 256 0 0 1 0 256v-.1Z"/><path fill="#D80027" d="M512 256A256 256 0 0 0 368 25.7v460.6A256 256 0 0 0 512 256Z"/><path fill="#FF9811" d="M345 201.4h-61.2a27.8 27.8 0 1 0-55.6 0H167a28.2 28.2 0 0 0 28.3 27.4h-1a27.4 27.4 0 0 0 27.5 27.4c0 13.4 9.6 24.5 22.3 27l-21.6 48.7a88.8 88.8 0 0 0 67 0L268 283a27.4 27.4 0 0 0 22.3-26.9 27.4 27.4 0 0 0 27.4-27.4h-.9a28.2 28.2 0 0 0 28.3-27.4Z"/><path fill="#0052B4" d="M256 239.3 219.8 256v33.4l36.2 22.3 36.2-22.3V256L256 239.3Z"/><path fill="#D80027" d="M219.8 222.6h72.4V256h-72.4v-33.4Z"/></svg>