<svg xmlns="http://www.w3.org/2000/svg" width="512" height="512" fill="none"><circle cx="256" cy="256" r="256" fill="#A2001D"/><path fill="#FFDA44" fill-rule="evenodd" d="M106.7 48A255 255 0 0 1 256 0a255 255 0 0 1 149.3 48H106.7ZM256 512a255 255 0 0 0 149.3-48H106.7A255 255 0 0 0 256 512Z" clip-rule="evenodd"/><path fill="#FFDA44" d="M200.3 189.2h111.4v-44.5l-22.3 11.1-33.4-33.4-33.4 33.4-22.3-11.1v44.5ZM356.2 256h-55.7a25.7 25.7 0 1 0-44.9-25 25.7 25.7 0 1 0-44.8 25h-55c0 17 14.9 30.8 31.9 30.8h-1c0 14 9.2 25.8 22 29.6l-25 25 23.6 23.6 33.5-33.5c1.3.5 2.6.9 4 1.1l-20.2 45.7a83.2 83.2 0 0 0 62.8 0l-20.2-45.7c1.4-.2 2.7-.6 4-1.1l33.5 33.5 23.6-23.6-25-25a30.8 30.8 0 0 0 22-29.6h-1c17 0 31.9-13.8 31.9-30.8Z"/><path fill="#6DA544" d="m256 272.7-36.2 16.7v33.4L256 345l36.2-22.2v-33.4L256 272.7Z"/><path fill="#0052B4" d="M219.8 256h72.4v44.5h-72.4V256Z"/></svg>