<svg xmlns="http://www.w3.org/2000/svg" width="512" height="512" fill="none"><circle cx="256" cy="256" r="256" fill="#0052B4"/><path fill="#EEE" fill-rule="evenodd" d="M95.5 455.5A276 276 0 0 1 75 437L437 75a255.4 255.4 0 0 1 71.1 136.5l-412.6 244Z" clip-rule="evenodd"/><path fill="#FF9811" fill-rule="evenodd" d="M84.7 446.3A213 213 0 0 1 75 437L437 75a256.8 256.8 0 0 1 46 62.4L84.6 446.3Z" clip-rule="evenodd"/><path fill="#EEE" d="m160 40 10.4 81.4L200 90.7l-11.7 41 41-11.7-30.7 29.6L280 160l-81.4 10.4 30.7 29.6-41-11.7 11.7 41-29.6-30.7L160 280l-10.4-81.4-29.6 30.7 11.7-41-41 11.7 30.7-29.6L40 160l81.4-10.4L90.7 120l41 11.7-11.7-41 29.6 30.7L160 40Z"/></svg>