<svg xmlns="http://www.w3.org/2000/svg" width="512" height="512" fill="none"><circle cx="256" cy="256" r="256" fill="#FFDA44"/><path fill="#D80027" fill-rule="evenodd" d="m509.4 219.5-165.3 23.8a89.9 89.9 0 0 1 0 25l165.4 23.3c-6 43.8-23.2 84-48.5 117.8l-133.7-100c-5 6.7-11 12.7-17.7 17.7L410 460.5a254.7 254.7 0 0 1-117.6 49L268.7 344a89.7 89.7 0 0 1-25 0l-23.3 165.4c-43.8-6-84-23.2-117.8-48.5l100-133.7c-6.7-5-12.7-11-17.7-17.7L51.5 410a254.7 254.7 0 0 1-49-117.6L168 268.7a89.9 89.9 0 0 1 0-25L2.4 220.3c6-43.8 23.2-84 48.5-117.8l133.7 100c5-6.7 11-12.7 17.7-17.7L102 51.5a254.7 254.7 0 0 1 117.6-49L243.3 168a89.9 89.9 0 0 1 25 0L291.7 2.4c43.8 6 84 23.2 117.8 48.5l-100 133.7c6.7 5 12.7 11 17.7 17.7L460.5 102a254.7 254.7 0 0 1 49 117.6ZM322.8 256a66.8 66.8 0 1 1-133.6 0 66.8 66.8 0 0 1 133.6 0Z" clip-rule="evenodd"/></svg>