<svg xmlns="http://www.w3.org/2000/svg" width="512" height="512" fill="none"><circle cx="256" cy="256" r="256" fill="#FFDA44"/><path fill="#D80027" fill-rule="evenodd" d="m509.7 221.7-163.6 23.6a89.7 89.7 0 0 1 0 25l163.2 23c-6.3 43.3-23.4 83-48.5 116.4l-131.5-98.4c-5 6.8-11 12.8-17.7 17.8l98.8 131.1a254.7 254.7 0 0 1-116.2 49l-23.5-163a89.7 89.7 0 0 1-25 0l-23 163.6a254.6 254.6 0 0 1-117.8-47.1l99.8-133.4c-6.8-5-12.8-11-17.8-17.7L53.2 412.3A254.8 254.8 0 0 1 3 294.8l167-24.1a89.9 89.9 0 0 1 0-25L2.1 222c5.9-44.3 23-85 48.6-119.1l135.9 101.7c5-6.8 11-12.8 17.7-17.8L102.2 51.3c34-25.6 74.7-43 119-49L245.3 170a89.9 89.9 0 0 1 25 0L294 2.7a255 255 0 0 1 117.7 49.9l-100.3 134c6.8 5 12.8 11 17.8 17.7l133-100.2c25 33.8 41.8 74 47.6 117.5Zm-185 36.3a66.8 66.8 0 1 1-133.5 0 66.8 66.8 0 0 1 133.6 0Z" clip-rule="evenodd"/></svg>