<svg xmlns="http://www.w3.org/2000/svg" width="512" height="512" fill="none"><path fill="#0052B4" d="M136 482.2c35.8 19 76.6 29.8 120 29.8 43.4 0 84.2-10.8 120-29.8V29.8A254.9 254.9 0 0 0 256 0c-43.4 0-84.2 10.8-120 29.8v452.4Z"/><path fill="#A2001D" d="M168 496.5a256.1 256.1 0 0 1 0-481v481Zm176 0v-481a256.1 256.1 0 0 1 0 481Z"/><path fill="#FFDA44" d="M117.4 256h22.3v89h-22.3v-89Zm-89.1 0h22.3v89H28.3v-89ZM84 311.7a22.3 22.3 0 1 0 0-44.6 22.3 22.3 0 0 0 0 44.6Zm0-89.1a11.1 11.1 0 1 0 0-22.3 11.1 11.1 0 0 0 0 22.3ZM61.7 322.8h44.6V345H61.7v-22.2Zm0-89.1h44.6V256H61.7v-22.3ZM84 133.6l7.9 24.2h25.5l-20.6 15 7.8 24.3L84 182l-20.6 15 7.8-24.3-20.6-15h25.5l7.9-24.2Z"/></svg>