<svg xmlns="http://www.w3.org/2000/svg" width="512" height="512" fill="none"><circle cx="256" cy="256" r="256" fill="#0052B4"/><path fill="#F3F3F3" fill-rule="evenodd" d="M233 406.3a16.7 16.7 0 0 0 30.8 1.5 16.7 16.7 0 0 0 30.4-4.6 16.7 16.7 0 0 0 18 4.2l-2.5.9 2.4-1a16.7 16.7 0 0 0 11-14.8 16.7 16.7 0 0 0 26-16.3 16.7 16.7 0 0 0 22.3-21.2 16.7 16.7 0 0 0 17.5-25.3 16.7 16.7 0 0 0 12.2-28.2 16.7 16.7 0 0 0 6.1-30.1c6-2.6 10.2-8.5 10.2-15.4v-.4c0-6.9-4.2-12.8-10.2-15.3a16.7 16.7 0 0 0-6.2-30.1 16.7 16.7 0 0 0-12.2-28.3 16.7 16.7 0 0 0-17.7-25.1 16.7 16.7 0 0 0-22.3-21.2 16.7 16.7 0 0 0-26.1-16.2 16.7 16.7 0 0 0-28.9-10.6 16.7 16.7 0 0 0-30.4-4.6 16.7 16.7 0 0 0-30.7 1.6 16.7 16.7 0 0 0-29.7 7.7 16.7 16.7 0 0 0-27.6 13.6A16.7 16.7 0 0 0 151 146a16.7 16.7 0 0 0-20 23.3 16.7 16.7 0 0 0-14.9 27 16.7 16.7 0 0 0-9.1 29.3 16.7 16.7 0 0 0-3 30.6 16.7 16.7 0 0 0 3 30.5 16.7 16.7 0 0 0 9.2 29.4 16.7 16.7 0 0 0 15 26.8 16.7 16.7 0 0 0 20 23.3 16.7 16.7 0 0 0 24.4 18.9 16.7 16.7 0 0 0 27.6 13.5 16.7 16.7 0 0 0 29.8 7.7ZM367.4 256a111.3 111.3 0 1 1-222.6 0 111.3 111.3 0 0 1 222.6 0Z" clip-rule="evenodd"/><path fill="#ACABB1" d="M280.4 218.2c5.4-4 9-10.5 9-17.9v-11c0-12.4-10-22.3-22.3-22.3H245c-12.3 0-22.3 10-22.3 22.2v11.1c0 7.4 3.6 13.9 9 18L211.5 423s11.1 11 44.5 11 44.5-11 44.5-11l-20.1-204.8Z"/><path fill="#EEE" d="m256 182 16.6 51.2h53.7l-43.4 31.5 16.5 51.1-43.4-31.6-43.4 31.6 16.5-51-43.4-31.6h53.7L256 182Z"/></svg>