<svg xmlns="http://www.w3.org/2000/svg" viewBox="0 0 512 512"><path d="M512 256c0 141.384-114.616 256-256 256S0 397.384 0 256C0 256.061 256 .028 256 0c141.384 0 256 114.616 256 256z" fill="#0052b4"/><g fill="#eee"><path d="M256 0h-.043.043zm-.685 256H256v-.685l-.685.685z"/><path d="M256 133.565V0h-.043C114.591.024 0 114.629 0 256h133.565v-75.211L208.776 256h46.54l.685-.685v-46.537l-75.213-75.213H256z"/></g><g fill="#d80027"><path d="M129.515 33.391a257.215 257.215 0 0 0-96.124 96.124V256h66.783V100.174H256V33.391H129.515z"/><path d="M256 224.519l-90.955-90.953h-31.48v.002L255.998 256H256v-31.481z"/></g><path d="M289.391 133.565v122.434c0 59.64 77.913 77.914 77.913 77.914s77.913-18.274 77.913-77.914V133.565H289.391z" fill="#338af3"/><path d="M289.391 255.999c0 59.64 77.913 77.914 77.913 77.914s77.913-18.274 77.913-77.914H289.391z" fill="#a2001d"/><path d="M400.696 189.219h-22.262v-22.262h-22.261v22.262h-22.26v22.26h22.26v66.782h22.261v-66.782h22.262z"/></svg>