<svg xmlns="http://www.w3.org/2000/svg" viewBox="0 0 512 512"><circle cx="256" cy="256" r="256" fill="#f0f0f0"/><path d="M512 256c0-101.494-59.065-189.19-144.696-230.598v461.195C452.935 445.19 512 357.494 512 256z" fill="#d80027"/><g fill="#6da544"><path d="M0 256c0 101.494 59.065 189.19 144.696 230.598V25.402C59.065 66.81 0 154.506 0 256zM189.217 256c0 36.883 29.9 66.783 66.783 66.783s66.783-29.9 66.783-66.783v-22.261H189.217V256z"/></g><path d="M345.043 211.478H278.26c0-12.294-9.967-22.261-22.261-22.261s-22.261 9.967-22.261 22.261h-66.783c0 12.295 10.709 22.261 23.002 22.261h-.741c0 12.295 9.966 22.261 22.261 22.261 0 12.295 9.966 22.261 22.261 22.261h44.522c12.295 0 22.261-9.966 22.261-22.261 12.295 0 22.261-9.966 22.261-22.261h-.742c12.295 0 23.003-9.966 23.003-22.261z" fill="#ff9811"/></svg>