<svg xmlns="http://www.w3.org/2000/svg" width="512" height="512" fill="none"><path fill="#EEE" d="M503.2 322.8c5.7-21.3 8.8-43.7 8.8-66.8l-8.8-66.8a254.6 254.6 0 0 0-28.8-66.8l-59-66.7A255 255 0 0 0 256 0h-.2A255 255 0 0 0 96.6 55.7l-59 66.7a254.6 254.6 0 0 0-28.8 66.8L0 256v.1c0 23 3 45.4 8.8 66.7l28.8 66.8a257.3 257.3 0 0 0 59 66.7L256 512l159.4-55.7a257.3 257.3 0 0 0 59-66.7l28.8-66.8Z"/><path fill="#D80027" d="M503.2 189.2c5.7 21.3 8.8 43.7 8.8 66.8H0c0-23.1 3-45.5 8.8-66.8h494.4ZM415.4 55.7a257.3 257.3 0 0 1 59 66.7H37.6a257.3 257.3 0 0 1 59-66.7h318.8Zm59 333.9c12.6-20.6 22.4-43 28.8-66.8H8.8a254.6 254.6 0 0 0 28.8 66.8h436.8Zm-59 66.7H96.6A255 255 0 0 0 255.8 512h.4a255 255 0 0 0 159.2-55.7Z"/><path fill="#0052B4" d="M0 245.6A256 256 0 0 1 256 0v256H0v-10.4Z"/><path fill="#FFDA44" d="M100 144a63.3 63.3 0 0 0 93.5 55.7 78 78 0 1 1 0-111.4A63.3 63.3 0 0 0 100 144Z"/><path fill="#FFDA44" d="m192.5 123-11.3-23.5L170 123l-25.4-5.9 11.4 23.5-20.4 16.1 25.4 5.8-.1 26 20.3-16.3 20.3 16.3v-26l25.4-5.8-20.4-16.1 11.3-23.5-25.3 5.9Z"/></svg>