<svg xmlns="http://www.w3.org/2000/svg" width="512" height="512" fill="none"><path fill="#333" d="M482.2 376c19-35.8 29.8-76.6 29.8-120 0-43.4-10.8-84.2-29.8-120H29.8A254.9 254.9 0 0 0 0 256c0 43.4 10.8 84.2 29.8 120h452.4Z"/><path fill="#FFDA44" d="M496.5 344a256.1 256.1 0 0 1-481 0h481Z"/><path fill="#496E2D" d="M496.5 168h-481a256.1 256.1 0 0 1 481 0Z"/><path fill="#EEE" fill-rule="evenodd" d="M493.4 160a254 254 0 0 1 10.5 32H8.1a254 254 0 0 1 10.5-32h474.8Zm0 192a254 254 0 0 0 10.5-32H8.1a254 254 0 0 0 10.5 32h474.8Z" clip-rule="evenodd"/><path fill="#A2001D" d="M0 245.6A255.2 255.2 0 0 1 74.9 74.9L256 256 74.9 437.1A255.2 255.2 0 0 1 0 266.4v-20.8Z"/><path fill="#FFDA44" d="m92.9 182 16.6 51.2h53.7l-43.5 31.5 16.6 51.1L93 284.2l-43.5 31.6 16.6-51-43.4-31.6h53.7L92.9 182Z"/><path fill="#EEE" d="M44.4 248.9h97v44.5h-97v-44.5Z"/><path fill="#333" d="M159.8 197.8 144 182.1l-51 51.1-51.2-51.1L26 197.8 77.2 249 26 300.1l15.7 15.5 51.2-51 51.1 51 15.8-15.5-51.2-51.2 51.2-51Z"/></svg>