<svg xmlns="http://www.w3.org/2000/svg" width="512" height="512" fill="none"><circle cx="256" cy="256" r="256" fill="#EEE"/><path fill="#496E2D" fill-rule="evenodd" d="M492 156.8H20a256 256 0 0 1 472 0Z" clip-rule="evenodd"/><path fill="#FFDA44" fill-rule="evenodd" d="M492.4 354.3a256 256 0 0 1-472.8 0h472.8Z" clip-rule="evenodd"/><path fill="#333" fill-rule="evenodd" d="M503 323.7a256.3 256.3 0 0 0 0-135.4H9a256.3 256.3 0 0 0 0 135.4h494Z" clip-rule="evenodd"/><path fill="#A2001D" d="M0 245.6A255.2 255.2 0 0 1 74.9 74.9L256 256 74.9 437.1A255.2 255.2 0 0 1 0 266.4v-20.8Z"/><path fill="#FFDA44" d="m92.9 182 16.6 51.2h53.7l-43.5 31.5 16.6 51.1L93 284.2l-43.5 31.6 16.6-51-43.4-31.6h53.7L92.9 182Z"/><path fill="#EEE" d="M44.4 248.9h97v44.5h-97v-44.5Z"/><path fill="#333" d="M159.8 197.8 144 182.1l-51 51.1-51.2-51.1L26 197.8 77.2 249 26 300.1l15.7 15.5 51.2-51 51.1 51 15.8-15.5-51.2-51.2 51.2-51Z"/></svg>