<svg xmlns="http://www.w3.org/2000/svg" width="512" height="512" fill="none"><g clip-path="url(#a)"><path fill="#496E2D" d="M437 75 224 224 75 437a256 256 0 0 0 437-178.2v-5.7A255.2 255.2 0 0 0 437 75Z"/><path fill="#0052B4" d="M437 75 75 437A256 256 0 0 1 437 75Z"/><path fill="#EEE" d="M372.2 27.8a257.1 257.1 0 0 1 112 112L139.8 484.2a257.1 257.1 0 0 1-112-112L372.2 27.8Z"/><path fill="#A2001D" d="M402.2 45.8a256 256 0 0 1 64 64L109.8 466.2a256 256 0 0 1-64-64L402.2 45.8Z"/></g><path fill="#FFDA44" fill-rule="evenodd" d="M133.7 61.7 144.9 92a43.3 43.3 0 0 0-22.4 0l11.2-30.3Zm30.5 41.5A42.9 42.9 0 0 0 145 92l24.8-20.6-5.5 31.8Zm11.2 19.3c-2-7.4-5.9-14-11.2-19.3l31.8-5.5-20.6 24.8Zm1.5 11.2c0-3.9-.5-7.6-1.5-11.2l30.3 11.2-30.3 11.2c1-3.6 1.5-7.3 1.5-11.2Zm-12.7 30.6c5.3-5.3 9.2-12 11.2-19.4l20.6 24.8-31.8-5.4ZM145 175.4a44 44 0 0 0 19.3-11.1l5.5 31.8-24.8-20.7Zm-11.2 1.5a42 42 0 0 0 11.2-1.5l-11.2 30.3-11.2-30.3c3.6 1 7.3 1.5 11.2 1.5Zm-41.8-32a43.3 43.3 0 0 0 30.6 30.5l-24.8 20.7 5.4-31.8-31.8 5.4L92 145Zm-1.4-11.2c0 3.9.5 7.6 1.4 11.2l-30.2-11.2L92 122.5c-1 3.6-1.4 7.3-1.4 11.2Zm-19.2-36L92 122.5A43.3 43.3 0 0 1 122.5 92L97.7 71.4l5.4 31.8-31.8-5.5Zm62.4 72a36 36 0 1 0 0-72 36 36 0 0 0 0 72Z" clip-rule="evenodd"/><defs><clipPath id="a"><path fill="#fff" d="M0 0h512v512H0z"/></clipPath></defs></svg>