<svg xmlns="http://www.w3.org/2000/svg" viewBox="0 0 512 512"><circle cx="256" cy="256" r="256" fill="#eee"/><path d="M74.981 437.02a257.534 257.534 0 0 0 34.216 28.748l356.569-356.57a257.382 257.382 0 0 0-28.748-34.216 257.525 257.525 0 0 0-34.216-28.747L46.234 402.805a257.569 257.569 0 0 0 28.747 34.215z" fill="#a2001d"/><path d="M74.981 74.98c-80.764 80.764-96.268 202.056-46.545 298.398L373.378 28.437C277.036-21.286 155.743-5.78 74.981 74.98z" fill="#0052b4"/><path d="M437.019 437.02c80.762-80.762 96.266-202.055 46.545-298.398L138.622 483.564c96.341 49.723 217.634 34.219 298.397-46.544z" fill="#496e2d"/><path fill="#ffda44" d="M211.478 144.696l-28.686 13.493 15.276 27.782-31.149-5.958-3.948 31.465-21.696-23.143-21.697 23.143-3.946-31.465-31.15 5.957 15.275-27.782-28.685-13.492 28.686-13.494-15.276-27.78 31.149 5.958 3.948-31.467 21.696 23.144 21.697-23.144 3.947 31.467 31.149-5.958-15.274 27.781z"/></svg>