<svg xmlns="http://www.w3.org/2000/svg" width="512" height="512" viewBox="0 0 512 512"><mask id="a"><circle cx="256" cy="256" r="256" fill="#fff"/></mask><g mask="url(#a)"><path fill="#496e2d" d="M0 352h512v160H0z"/><path fill="#d80027" d="M0 160h512v192H0z"/><path fill="#0052b4" d="M0 0h512v160H0z"/><circle cx="230" cy="256" r="168" fill="#ffda44" stroke="#333" stroke-width="16"/><path fill="#333" d="M222 89v41c-8 4-14 8-15 16l-1 16 6-3 10-4v8a24 24 0 00-16 23 24 24 0 0016 22v8h-20v16h20v8a24 24 0 00-16 22 24 24 0 0016 23v7h-20v17h20v7a24 24 0 00-16 23 24 24 0 0016 22v8c-10 0-18 3-23 7-11 8-40 37-36 34 68 28 132 2 132 2s-24-26-36-36c-5-4-12-6-21-7v-8a24 24 0 0016-22 24 24 0 00-16-23v-7h21v-16h-21v-8a24 24 0 0016-23 24 24 0 00-16-22v-8h21v-16h-21v-7a24 24 0 0016-23 24 24 0 00-16-23v-20c6-5 11-13 17-23 4-8 2-11 2-11l-2 3-17 11V89z" color="#000"/></g></svg>