<svg xmlns="http://www.w3.org/2000/svg" viewBox="0 0 100 100"><mask id="a"><circle cx="50" cy="50" r="50" fill="#fff"/></mask><g mask="url(#a)"><rect width="100" height="33.33" fill="#00247d"/><rect width="100" height="33.33" y="33.33" fill="#ff1d25"/><rect width="100" height="33.33" y="66.67" fill="#009245"/><path fill="#030301" d="M22.7 65.7a32.6 32.6 0 0 1-3.8-10.5 31.4 31.4 0 0 1 3.5-20.4c0-.2.2-.3.3-.5A32.2 32.2 0 0 1 32 24.2a29.9 29.9 0 0 1 15.4-5.5A31 31 0 0 1 77.2 34l.1.3a32.6 32.6 0 0 1 3.8 10.5 31.4 31.4 0 0 1-3.5 20.4c0 .2-.2.3-.3.5a32 32 0 0 1-10.7 11 29.6 29.6 0 0 1-13.9 4.6c-13 .8-23-4.5-30-15.5zM55 23a2.3 2.3 0 0 1-.3 1.7 17.6 17.6 0 0 1-3.6 4.8 1.3 1.3 0 0 0-.5 1.1v3c0 .5 0 .8.7 1a4.1 4.1 0 0 1 2.9 4 4.2 4.2 0 0 1-3 4 1.3 1.3 0 0 1-.3.1c-.4 0-.3.4-.3.6s.3.3.5.3a3.8 3.8 0 0 0 2.9-1.8 16.5 16.5 0 0 0 1-1.6 19.3 19.3 0 0 1 2-2.7 4 4 0 0 1 0 .6 30.5 30.5 0 0 0-.8 4.2 3.4 3.4 0 0 1-2.5 3 10.6 10.6 0 0 1-2.5.4c-.3 0-.6-.2-.6.3s.3.3.5.3h3.5c.5 0 .6.1.6.6s0 .7-.6.7h-3.2c-.3 0-.7-.3-.8.2s.4.4.6.5a4.9 4.9 0 0 1 2 .9 2 2 0 0 1 0 3.3 4.6 4.6 0 0 1-2.1.9c-.3 0-.5 0-.5.4s.4.3.6.3h3.4c.6 0 .6.2.6.6s0 .7-.6.7h-3.4c-.3 0-.6-.2-.6.3s.3.3.6.3a9.7 9.7 0 0 1 1.9.4 3.8 3.8 0 0 1 3 3.7l.4 3.1.7 4a4.8 4.8 0 0 1-.8-1 35.6 35.6 0 0 1-2-4.2 5 5 0 0 0-3.1-2.9c-.2 0-.5-.3-.6 0s.2.3.4.5a3.4 3.4 0 0 1 1.5 1.5 6.7 6.7 0 0 1 0 6.5 2.8 2.8 0 0 1-1.5 1.5c-.8.3-.5.9-.5 1.4s.6.3.9.3a7.5 7.5 0 0 1 4.7 2 151 151 0 0 1 4.8 5 .8.8 0 0 0 1 .2 30.5 30.5 0 0 0-9.8-58.3c-1.6-.1-1.6-.1-1.6 1.5V25a1 1 0 0 0 .1.7A14.3 14.3 0 0 0 55 23zm-5.7 8c-1.3.6-2.6 1-3.7 1.8v-2.1a3.5 3.5 0 0 1 2-3.5 8.4 8.4 0 0 1 1.2-.5.8.8 0 0 0 .5-1v-5.2c0-.7-.1-.9-.8-.8A29.5 29.5 0 0 0 29 27.8a29.4 29.4 0 0 0-9 27.6 29.7 29.7 0 0 0 17.1 22.3.9.9 0 0 0 1.2-.2l4.2-4.2a8 8 0 0 1 5.8-2.5c.8 0 1-.4 1-1.2 0-.2-.1-.4-.4-.5a3.9 3.9 0 0 1-2-2.4 6.7 6.7 0 0 1 0-5 4.7 4.7 0 0 1 1.5-2c.3-.2 1-.2.8-.7-.2-.3-.8 0-1.1.2a5.1 5.1 0 0 0-2.8 3 25.3 25.3 0 0 1-2.6 5 2.5 2.5 0 0 1 0-.4 66.8 66.8 0 0 0 1-7.3 3.4 3.4 0 0 1 2.2-2.9 7.6 7.6 0 0 1 2.7-.7c.3 0 .7.1.6-.4s-.4-.3-.6-.3h-3c-.5 0-1 .3-1-.6s.5-.6 1-.6h3c.2 0 .6.2.7-.3s-.4-.3-.6-.4a5 5 0 0 1-2.1-1 2 2 0 0 1 0-3.1 4.8 4.8 0 0 1 2.3-1c.3 0 .4-.1.4-.5s-.3-.2-.5-.2h-3.6c-.6 0-.5-.3-.5-.7s0-.6.5-.6H49c.3 0 .5 0 .5-.3s-.2-.3-.4-.3c-.6 0-1.1 0-1.7-.2-2-.3-3.3-1.3-3.5-3.1a23.5 23.5 0 0 0-.9-4.7c.5 0 .6.3.7.5a20.7 20.7 0 0 1 1.8 2.8 4.2 4.2 0 0 0 3.4 2.5c.2 0 .5.3.6-.2s0-.6-.5-.7a4.2 4.2 0 0 1 0-8c.3-.2.5-.2.5-.5v-3.2z"/><path fill="#f8e400" d="M55 22.9a14.3 14.3 0 0 1-4.3 2.8 1 1 0 0 1-.1-.7v-3.9c0-1.6 0-1.6 1.6-1.5A30.5 30.5 0 0 1 62.1 78a.8.8 0 0 1-1.1-.3 151 151 0 0 0-4.9-4.9 7.5 7.5 0 0 0-4.6-2c-.3 0-.9.2-.9-.4s-.3-1 .5-1.4a2.8 2.8 0 0 0 1.5-1.4 6.7 6.7 0 0 0 0-6.6 3.4 3.4 0 0 0-1.6-1.5c-.2 0-.5-.1-.4-.4s.5 0 .7 0a5 5 0 0 1 3 2.8 35.6 35.6 0 0 0 2 4.2 4.8 4.8 0 0 0 .9 1l-.7-4-.4-3a3.8 3.8 0 0 0-3-3.8 9.7 9.7 0 0 0-2-.4c-.2 0-.5.1-.5-.3s.4-.4.6-.4h3.5c.5 0 .6-.1.6-.6s-.1-.7-.6-.6h-3.5c-.2 0-.5.1-.6-.3s.2-.4.5-.4a4.6 4.6 0 0 0 2.2-1 2 2 0 0 0 0-3.2 4.9 4.9 0 0 0-2-1c-.3 0-.7.2-.7-.4s.5-.2.8-.2h3.2c.5 0 .6-.2.6-.7s0-.6-.6-.6h-3.4c-.3 0-.6.2-.6-.3s.4-.3.6-.3a10.6 10.6 0 0 0 2.5-.5 3.4 3.4 0 0 0 2.5-2.9A30.5 30.5 0 0 1 57 38a4 4 0 0 0 0-.5 19.3 19.3 0 0 0-1.9 2.7 16.5 16.5 0 0 1-1 1.6 3.8 3.8 0 0 1-2.9 1.7c-.2 0-.5.2-.5-.2s0-.6.4-.7a1.3 1.3 0 0 0 .3 0 4.2 4.2 0 0 0 2.9-4 4.1 4.1 0 0 0-3-4c-.5-.2-.6-.5-.6-1v-3a1.3 1.3 0 0 1 .5-1.1 17.6 17.6 0 0 0 3.6-4.9A2.3 2.3 0 0 0 55 23zm-5.6 8v3c0 .4-.2.4-.5.5a4.2 4.2 0 0 0 0 8c.5.2.6.4.5.8s-.4.2-.6.2a4.2 4.2 0 0 1-3.3-2.5 20.7 20.7 0 0 0-1.9-2.8c-.1-.2-.2-.6-.7-.5a23.5 23.5 0 0 1 .9 4.7c.3 1.8 1.5 2.8 3.5 3.1l1.7.2c.2 0 .4 0 .4.3s-.2.3-.5.3h-3.6c-.5 0-.5.2-.5.6s0 .7.5.7H49c.2 0 .5-.1.5.2s-.1.4-.4.5a4.8 4.8 0 0 0-2.3 1 2 2 0 0 0 0 3.1 5 5 0 0 0 2 1c.3 0 .7 0 .7.4s-.5.3-.7.3h-3c-.4 0-1-.2-1 .6s.5.6 1 .6h3c.2 0 .6-.2.6.3s-.3.4-.6.4a7.6 7.6 0 0 0-2.7.7 3.4 3.4 0 0 0-2.1 2.9 66.8 66.8 0 0 1-1.1 7.3 2.5 2.5 0 0 0 0 .4 25.3 25.3 0 0 0 2.6-5 5.1 5.1 0 0 1 2.8-3c.3-.1.9-.5 1-.2.3.5-.4.5-.7.7a4.7 4.7 0 0 0-1.5 2 6.7 6.7 0 0 0 0 5 3.9 3.9 0 0 0 2 2.4c.3.1.3.3.4.5 0 .8-.1 1.1-1 1.2a8 8 0 0 0-5.8 2.5l-4.2 4.1a.9.9 0 0 1-1.2.3A29.8 29.8 0 0 1 20 55.4a29.6 29.6 0 0 1 9.1-27.6 29.5 29.5 0 0 1 19.4-8.2c.6 0 .8.1.8.8v5.3a.8.8 0 0 1-.5.9 8.4 8.4 0 0 0-1.1.5 3.5 3.5 0 0 0-2.2 3.5v2l3.9-1.8z"/></g></svg>