<svg xmlns="http://www.w3.org/2000/svg" width="512" height="512" fill="none"><g clip-path="url(#a)"><circle cx="256" cy="256" r="256" fill="#EEE"/><path fill="#D80027" fill-rule="evenodd" d="M405.3 48a256 256 0 0 1 50.6 48H56a257.5 257.5 0 0 1 50.6-48h298.6Zm0 416a256 256 0 0 0 50.6-48H56a257.5 257.5 0 0 0 50.6 48h298.6ZM143.2 177.5A89 89 0 0 1 247 192a72 72 0 1 0 0 128 89 89 0 1 1-103.8-142.5ZM270 267v36l21-29 34 11-21-29 21-29-34 11-21-29v36l-34 11 34 11Z" clip-rule="evenodd"/></g><defs><clipPath id="a"><path fill="#fff" d="M0 0h512v512H0z"/></clipPath></defs></svg>