<svg xmlns="http://www.w3.org/2000/svg" width="512" height="512" fill="none"><path fill="#EEE" fill-rule="evenodd" d="M414.3 457.2a255.5 255.5 0 0 0 97.7-201v-.4A256 256 0 0 0 228 1.5l-68.6 257 254.9 198.7Z" clip-rule="evenodd"/><path fill="#0052B4" fill-rule="evenodd" d="m229.8 1.3 280.7 282.5H256.4l166.4 166.4c-9 7.8-18.6 15-28.7 21.4L118.3 253.8 186.5 9.5c14-3.9 28.5-6.7 43.3-8.2Z" clip-rule="evenodd"/><path fill="#D80027" fill-rule="evenodd" d="m196.2 7 249 249h-256l211.3 211.3A256 256 0 1 1 196.2 7Z" clip-rule="evenodd"/><path fill="#EEE" d="m243.5 378-31.3-14.7L229 333l-34 6.5-4.3-34.3-23.6 25.2-23.7-25.2-4.3 34.3-34-6.5 16.7 30.3L90.4 378l31.3 14.7-16.6 30.3 34-6.5 4.2 34.3 23.7-25.2 23.6 25.2 4.3-34.3 34 6.5-16.7-30.3 31.3-14.7ZM149.8 89l-3.2 25-24.7-4.7 12.1 22-22.7 10.7h-11.1a66.8 66.8 0 0 0 133.5 0h-11.1L200 131.3l12-22-24.6 4.7-3.1-25-17.2 18.4L149.8 89Z"/></svg>