<svg xmlns="http://www.w3.org/2000/svg" viewBox="0 0 512 512"><circle cx="256" cy="256" r="256" fill="#0052b4"/><circle cx="256" cy="256" r="256" fill="#ffda44"/><g fill="#0052b4"><path d="M256 0C122.116 0 12.258 102.781.975 233.739h510.051C499.742 102.781 389.884 0 256 0zM256 512c133.884 0 243.742-102.781 255.026-233.739H.975C12.258 409.219 122.116 512 256 512z"/></g><path fill="#f0f0f0" d="M211.479 345.043l-28.686 13.494 15.275 27.781-31.149-5.959-3.947 31.467-21.697-23.143-21.696 23.143-3.947-31.467-31.15 5.958 15.276-27.781-28.686-13.493 28.687-13.493-15.277-27.78 31.149 5.958 3.949-31.467 21.695 23.143 21.698-23.143 3.946 31.467 31.15-5.958-15.275 27.781z"/></svg>