<svg xmlns="http://www.w3.org/2000/svg" width="512" height="512" fill="none"><g clip-path="url(#a)"><circle cx="256" cy="256" r="256" fill="#FFDA44"/><path fill="#026" d="M256 0v256H0A256 256 0 0 1 256 0Z"/><path fill="#EEE" d="M217.6 256H256v-38.4L140.7 102.3H256V0A256 256 0 0 0 0 256h102.3V140.7L217.6 256Z"/><path fill="#D80027" d="M256 76.6V25.4H144.7A257 257 0 0 0 25.4 144.7V256h51.2V76.6H256Z"/><path fill="#D80027" d="M256 230.4V256L102.2 102.2H128l128 128.2Z"/><path fill="#026" fill-rule="evenodd" d="M51 110.2a59.2 59.2 0 0 0 59-64.5A257.4 257.4 0 0 0 45.7 110l5.3.2Z" clip-rule="evenodd"/><path fill="#FFDA44" fill-rule="evenodd" d="M77.3 72.7 85.8 99 66 84.5c3.6-4 7.4-8 11.3-11.8Z" clip-rule="evenodd"/><path fill="#FFDA44" d="m180.3 24.2 6 18.5h19.4L190 54.2l6 18.4-15.7-11.4-15.8 11.4 6-18.4-15.7-11.5h19.4l6-18.5ZM51 153.5l6 18.5h19.4l-15.7 11.4 6 18.5L51 190.5l-15.7 11.4 6-18.5L25.6 172H45l6-18.5Z"/></g><defs><clipPath id="a"><path fill="#fff" d="M0 0h512v512H0z"/></clipPath></defs></svg>