<svg xmlns="http://www.w3.org/2000/svg" viewBox="0 0 512 512"><path d="M256 0h-.043.043z" fill="#f0f0f0"/><path d="M512 256c0 141.384-114.616 256-256 256S0 397.384 0 256C0 256.061 256 .028 256 0c141.384 0 256 114.616 256 256z" fill="#ffda44"/><g fill="#0052b4"><path d="M256 122.435v86.343l-89.043-86.343zM133.565 256h75.211l-75.211-100.174-11.13 77.913z"/></g><g fill="#f0f0f0"><path d="M255.315 256H256v-.685l-.685.685z"/><path d="M256 133.565V0h-.043C114.591.024 0 114.629 0 256h133.565v-75.211L208.776 256h46.54l.685-.685v-46.537l-75.213-75.213H256z"/></g><g fill="#d80027"><path d="M256 224.519l-90.955-90.953h-31.48v.002L255.998 256H256v-31.481z"/><path d="M129.515 33.391a256.528 256.528 0 0 0-28.316 18.72h10.504L83.941 72.285l10.602 32.637-27.762-20.17-2.954 2.147a256.772 256.772 0 0 0-30.436 42.616V256h66.783V100.174H256V33.391H129.515z"/></g><path d="M109.36 46.152a256.484 256.484 0 0 0-8.164 5.959L83.941 72.285l-17.16 12.466-2.979 2.164a257.214 257.214 0 0 0-17.651 22.445 47.121 47.121 0 0 0 20.63 4.727c26.126 0 47.304-21.178 47.304-47.304a47.08 47.08 0 0 0-4.725-20.631z" fill="#0052b4"/><g fill="#ffda44"><path d="M63.803 86.915l2.979-2.164 27.762 20.171-10.603-32.637 27.76-20.174h-10.506a257.61 257.61 0 0 0-37.392 34.804zM176.942 44.522l5.526 17.005h17.88l-14.465 10.511 5.523 17.005-14.464-10.51-14.465 10.51 5.522-17.005-14.465-10.511h17.881zM66.783 155.826l5.526 17.005h17.88l-14.464 10.512 5.523 17.005-14.465-10.511-14.466 10.511 5.523-17.005-14.464-10.512h17.88z"/></g></svg>