<svg xmlns="http://www.w3.org/2000/svg" viewBox="0 0 512 512"><path d="M512 256c0 141.38-114.62 256-256 256S0 397.38 0 256C0 256.06 256 .03 256 0c141.38 0 256 114.62 256 256z" fill="#0052b4"/><path d="M255.96 0C114.6.02 0 114.63 0 256h133.56v-75.21L208.78 256H256v-47.22l-75.21-75.22H256V0h-.04zm125.87 91.54l-11.3 34.9-36.7-.03 29.7 21.54-11.37 34.89 29.67-21.6 29.66 21.6-11.37-34.9 29.71-21.53-36.7.04-11.3-34.91zm61.3 72.49l-11.3 34.92-36.7-.04 29.71 21.53-11.38 34.9 29.67-21.6 29.66 21.6-11.38-34.9 29.72-21.53-36.7.04-11.3-34.92zm-122.81 10.25l-11.3 34.9-36.69-.03 29.7 21.53-11.37 34.9 29.66-21.6 29.67 21.6-11.37-34.9 29.7-21.53-36.7.03-11.3-34.9zm59.09 129.7l-11.3 34.91-36.69-.04 29.7 21.54-11.37 34.89 29.66-21.6 29.67 21.6-11.38-34.89 29.71-21.54-36.7.04-11.3-34.91z" fill="#eee"/><path d="M129.51 33.4a257.22 257.22 0 0 0-96.11 96.1V256h66.78V100.17H256V33.4H129.51zm252.32 83.37l-5.65 17.46-18.35-.02 14.86 10.77-5.7 17.44 14.84-10.8 14.83 10.8-5.69-17.44 14.86-10.77-18.35.02-5.65-17.46zm-248.26 16.8L256 256v-31.48l-90.95-90.95h-31.48zm309.56 55.7l-5.66 17.46-18.34-.02L434 217.48l-5.7 17.44 14.84-10.8 14.83 10.8-5.69-17.44 14.86-10.77-18.35.02-5.65-17.46zm-122.81 10.24l-5.65 17.46-18.35-.02 14.86 10.77-5.69 17.44 14.83-10.8 14.84 10.8-5.69-17.44 14.85-10.77-18.35.02-5.65-17.46zm59.09 129.71l-5.65 17.45-18.35-.02 14.86 10.77-5.69 17.45 14.83-10.8 14.83 10.8-5.68-17.45 14.85-10.77-18.35.02-5.65-17.45z" fill="#d80027"/></svg>