<svg xmlns="http://www.w3.org/2000/svg" width="512" height="512" fill="none"><path fill="#026" d="M512 256a256 256 0 1 1-512 0L256 0a256 256 0 0 1 256 256Z"/><path fill="#026" d="M256 0v256H0A256 256 0 0 1 256 0Z"/><path fill="#EEE" d="M217.6 256H256v-38.4L140.7 102.3H256V0A256 256 0 0 0 0 256h102.3V140.7L217.6 256Z"/><path fill="#D80027" d="M256 76.6V25.4H144.7A257 257 0 0 0 25.4 144.7V256h51.2V76.6H256Z"/><path fill="#D80027" d="M256 230.4V256L102.2 102.2H128l128 128.2Zm195.4-30.1 5.5 17h17.9L460.3 228l5.5 17-14.4-10.5-14.5 10.5 5.5-17-14.5-10.5h18l5.5-17Z"/><path fill="#EEE" fill-rule="evenodd" d="m451.4 190 7.8 24.2h25.4L464.1 229l7.8 24.1-20.5-14.9-20.6 15 7.9-24.2-20.6-15h25.4l7.9-24.1Zm0 20.7-3.2 9.9h-10.4l8.4 6-3.2 9.9 8.4-6 8.3 6-3.2-9.9 8.4-6h-10.3l-3.2-9.9Z" clip-rule="evenodd"/><path fill="#D80027" d="m387.4 322.8 8.3 25.5h26.8L400.8 364l8.3 25.5-21.7-15.8-21.7 15.8L374 364l-21.7-15.8h26.8l8.3-25.5Z"/><path fill="#EEE" fill-rule="evenodd" d="m387.4 312.4 10.7 32.7h34.3l-27.8 20.2 10.6 32.6-27.8-20.1-27.8 20.1 10.7-32.6-27.8-20.2h34.3l10.6-32.7Zm0 20.7-6 18.4h-19.2l15.6 11.3-6 18.4 15.6-11.4 15.6 11.4-6-18.4 15.7-11.3h-19.3l-6-18.4Z" clip-rule="evenodd"/><path fill="#D80027" d="m389.9 122.4 6.9 21.3H419l-18 13.1 6.8 21.3-18-13.2-18.1 13.2 6.9-21.3-18.1-13.1h22.3l7-21.3Z"/><path fill="#EEE" fill-rule="evenodd" d="m389.9 112 9.2 28.5H429L404.8 158l9.2 28.4-24.1-17.6-24.2 17.6 9.2-28.4-24.2-17.6h30l9.2-28.4Zm0 20.8-4.6 14h-14.9l12 8.8-4.5 14.1 12-8.7 12 8.7-4.6-14 12-8.8h-14.9l-4.5-14.1Z" clip-rule="evenodd"/><path fill="#D80027" d="m328.3 199.6 8.3 25.5h26.9L341.8 241l8.2 25.5-21.7-15.8-21.7 15.8 8.3-25.5-21.7-15.8h26.9l8.2-25.5Z"/><path fill="#EEE" fill-rule="evenodd" d="m328.3 189.3 10.7 32.6h34.3l-27.8 20.2 10.6 32.7-27.8-20.2-27.7 20.2 10.6-32.7-27.8-20.2h34.3l10.6-32.6Zm0 20.7-6 18.3h-19.2l15.6 11.4-6 18.3 15.6-11.3L344 258l-6-18.3 15.6-11.4h-19.3l-6-18.3Z" clip-rule="evenodd"/></svg>