<svg xmlns="http://www.w3.org/2000/svg" width="512" height="512" fill="none"><g clip-path="url(#a)"><circle cx="256" cy="256" r="256" fill="#D80027"/><path fill="#FFDA44" fill-rule="evenodd" d="M286 75.1a32 32 0 1 0-60 0l-39 19.7a32 32 0 1 0-23.6 49L173 173l-29.2-9.6.2-3.4a32 32 0 1 0-49.2 27l-19.7 39a32 32 0 1 0 0 60l19.7 39a32 32 0 1 0 49 23.6L173 339l-9.6 29.2-3.4-.2a32 32 0 1 0 27 49.2l39 19.7a32 32 0 1 0 60 0l39-19.7a32 32 0 1 0 23.6-49L339 339l29.2 9.6-.2 3.4a32 32 0 1 0 49.2-27l19.7-39a32 32 0 1 0 0-60l-19.7-39a32 32 0 1 0-49-23.6L339 173l9.6-29.2 3.4.2a32 32 0 1 0-27-49.2l-39-19.7ZM416 256l-32-64-96 32 32-96-64-32-64 32 32 96-96-32-32 64 32 64 96-32-32 96 64 32 64-32-32-96 96 32 32-64Z" clip-rule="evenodd"/></g><defs><clipPath id="a"><path fill="#fff" d="M0 0h512v512H0z"/></clipPath></defs></svg>