<svg xmlns="http://www.w3.org/2000/svg" width="512" height="512" fill="none"><g clip-path="url(#a)"><mask id="b" width="512" height="512" x="0" y="0" maskUnits="userSpaceOnUse" style="mask-type:luminance"><path fill="#fff" d="M256 512c141.385 0 256-114.615 256-256S397.385 0 256 0 0 114.615 0 256s114.615 256 256 256Z"/></mask><g mask="url(#b)"><path fill="#EEE" d="M189.2 0H512v167l-347.5 24.6L189.2 0Z"/><path fill="#6DA544" d="m163 320 349 25v167H189.2L163 320Z"/><path fill="#D80027" d="M0 0h189.2v167H512v178H189.2v167H0V0Z"/><path fill="#EEE" d="m157.1 174.341-1.7.854-13.6-11.951-15.3-17.073c.85-1.708.85-5.976 0-8.537l2.55-2.561h2.55c.85 1.707 2.55 3.415 5.1 3.415s4.25-.854 5.1-3.415h3.4v4.268h22.95v-12.804H145.2v4.268h-3.4c-.85-1.707-2.55-3.415-4.25-3.415l.85-.853 18.7-38.415-2.55-2.561-26.35 35.854 1.7 1.707-1.7 3.415h-4.25l-.85-1.708h3.4v-2.561l-2.55-.853v-5.122h3.4l.85-2.561-6.8-1.708V94.951l5.1-5.975L118 83l-8.5 5.976 5.1 5.975v17.073l-6.8 1.708.85 2.561h3.4v5.122l-2.55.853v2.561h3.4l-.85 1.708h-4.25l-1.7-3.415 1.7-1.707-26.35-35.854-1.7.854 18.7 38.414.85.854c-1.7 0-3.4 1.707-4.25 3.415h-3.4v-4.269H67v12.805h22.95v-4.268h3.4c.85 1.707 2.55 3.414 5.1 3.414s4.25-.853 5.1-3.414h2.55l2.55 3.414v1.708h-3.4v4.268l-20.4 1.707-.85-1.707s-11.05 1.707-12.75 4.268v2.561c1.7 2.561 12.75 5.976 12.75 5.976v-.854s7.65 1.708 16.15 2.561l-5.1 5.976-13.6 11.951-1.7-.854-11.9 11.952L67 188l13.6-4.268 9.35-6.83-1.7-.853 22.1-18.781h1.7c2.55 0 7.65-1.707 9.35-3.414l2.55 2.561 22.95 19.634-1.7.853 9.35 6.83 13.6 4.268.85-1.707-11.9-11.952Z"/></g></g><defs><clipPath id="a"><path fill="#fff" d="M0 0h512v512H0z"/></clipPath></defs></svg>