<svg xmlns="http://www.w3.org/2000/svg" width="512" height="512" fill="none"><path fill="#D80027" d="M482.2 376c19-35.8 29.8-76.6 29.8-120 0-43.4-10.8-84.2-29.8-120H29.8A254.9 254.9 0 0 0 0 256c0 43.4 10.8 84.2 29.8 120h452.4Z"/><path fill="#6DA544" d="M496.5 344a256.1 256.1 0 0 1-481 0h481Z"/><path fill="#EEE" d="M496.5 168h-481a256.1 256.1 0 0 1 481 0Z"/><path fill="#D80027" d="M168 15.5v481a256.1 256.1 0 0 1 0-481Z"/><path fill="#EEE" d="m129 162.9-17-29.6L95 163l-14-8 17.1-29.6H64v-16h34.1l-17-29.5 13.8-8 17.1 29.5 17-29.5 14 8-17.1 29.5H160v16h-34.1l17 29.6-13.8 8Z"/></svg>