<svg xmlns="http://www.w3.org/2000/svg" width="512" height="512" fill="none"><g clip-path="url(#a)"><path fill="#FF9811" fill-rule="evenodd" d="M492.4 354.5A255.2 255.2 0 0 0 512 256c0-34.9-7-68.1-19.6-98.5L256 128 19.6 157.5A255.2 255.2 0 0 0 0 256c0 34.9 7 68.1 19.6 98.5L256 384l236.4-29.5Z" clip-rule="evenodd"/><path fill="#EEE" fill-rule="evenodd" d="M492.4 157.5c4.6 11.2 8.5 22.7 11.5 34.5H8.1c3-11.8 6.9-23.3 11.5-34.5L256 128l236.4 29.5Zm0 197c4.6-11.2 8.5-22.7 11.5-34.5H8.1c3 11.8 6.9 23.3 11.5 34.5L256 384l236.4-29.5Z" clip-rule="evenodd"/><path fill="#338AF3" fill-rule="evenodd" d="M493.4 160H18.6a256 256 0 0 1 474.8 0Z" clip-rule="evenodd"/><path fill="#6DA544" fill-rule="evenodd" d="M493.4 352a256 256 0 0 1-474.8 0h474.8Z" clip-rule="evenodd"/><path fill="#EEE" d="M256 416a160 160 0 1 0 0-320 160 160 0 0 0 0 320Z"/><path fill="#338AF3" d="M256 384a128 128 0 1 0 0-256 128 128 0 0 0 0 256Z"/><path fill="#FF9811" d="M207 139v68h-68l49 49-49 49h68v68l49-49 49 49v-68h68l-49-49 49-49h-68v-68l-49 49-49-49Z"/></g><defs><clipPath id="a"><path fill="#fff" d="M0 0h512v512H0z"/></clipPath></defs></svg>