<svg xmlns="http://www.w3.org/2000/svg" width="512" height="512" fill="none"><circle cx="256" cy="256" r="256" fill="#EEE"/><path fill="#0052B4" d="M245.6 512A256 256 0 0 1 0 256h256v256h-10.4Z"/><path fill="#D80027" d="M266.4 0A256 256 0 0 1 512 255.8v.2H256V0h10.4Z"/><path fill="#0052B4" d="m150 76.2 16.7 51h53.7l-43.5 31.6 16.6 51-43.4-31.5-43.5 31.6 16.6-51-43.4-31.7h53.7l16.6-51Z"/><path fill="#D80027" d="m362 288 16.5 51h53.7l-43.4 31.6 16.6 51.1-43.5-31.5-43.4 31.5 16.6-51-43.5-31.6h53.7L362 288Z"/></svg>