<svg xmlns="http://www.w3.org/2000/svg" width="512" height="512" fill="none"><path fill="#EEE" d="M477.8 384A254.8 254.8 0 0 0 512 256c0-46.6-12.5-90.3-34.2-128H34.2A254.8 254.8 0 0 0 0 256c0 46.6 12.5 90.3 34.2 128h443.6Z"/><path fill="#D80027" d="M256 512A256 256 0 0 1 25.6 368h460.6A256 256 0 0 1 256 512h-.1Zm0-512A256 256 0 0 0 25.7 144h460.6A256 256 0 0 0 256 0Z"/><path fill="#FFC635" d="M345 256c0 49.2-39.8 78-89 78s-89-28.8-89-78a89 89 0 1 1 178 0Z"/><path fill="#0052B4" d="M345 256a89 89 0 1 1-178 0"/><path fill="#D80027" fill-rule="evenodd" d="M267.1 200.3H245v78h22v-78Zm-66.8 33.4h22.3v44.6h-22.3v-44.6Zm89 0h22.4v44.6h-22.3v-44.6Z" clip-rule="evenodd"/></svg>