<svg xmlns="http://www.w3.org/2000/svg" width="512" height="512" fill="none"><g clip-path="url(#a)"><path fill="#A2001D" d="m75 75 149 213 213 149A256 256 0 0 0 258.8 0h-5.7A255.2 255.2 0 0 0 75 75Z"/><path fill="#333" d="m75 75 362 362A256 256 0 0 1 75 75Z"/></g><path fill="#EEE" d="m179.6 361 4.2 12.8h13.4l-10.9 7.9 4.2 12.7-10.9-7.8-10.8 7.8 4.1-12.7-10.8-7.9h13.4l4.1-12.8Zm-34.2-122.4 6.9 21.3h22.3l-18 13.1 6.9 21.3-18.1-13.2-18 13.2 6.8-21.3-18-13.1h22.3l6.9-21.3Zm0 155.8 6.9 21.3h22.3l-18 13.1 6.9 21.3-18.1-13.2-18 13.2 6.8-21.3-18-13.1h22.3l6.9-21.3Zm65.3-100.1 7 21.2H240l-18 13.2 6.8 21.2-18-13.1-18.1 13.1 6.9-21.2-18.1-13.2h22.3l7-21.2Zm-130.7 0 7 21.2h22.3l-18 13.2 6.8 21.2-18-13.1L62 349.9l6.9-21.2-18.1-13.2H73l7-21.2Z"/><path fill="#FFDA44" d="M444.5 173.6a66.3 66.3 0 0 0-42.2-19.4L450 117a88.8 88.8 0 0 0-69.5-25.8 66.5 66.5 0 0 0-17-29.3l-19 37.8a27.8 27.8 0 1 0-37.8 37.8L269 156.4a66.4 66.4 0 0 0 29.3 17 88.8 88.8 0 0 0 25.8 69.5l41.7-53.7a16.6 16.6 0 0 1 23.6.1 16.6 16.6 0 0 1 0 23.6l15.7 15.8a38.7 38.7 0 0 0 3.7-50.9 44.6 44.6 0 0 1 20 74.5l15.7 15.7a66.4 66.4 0 0 0 0-94.4Z"/><defs><clipPath id="a"><path fill="#fff" d="M0 512V0h512v512z"/></clipPath></defs></svg>