<svg xmlns="http://www.w3.org/2000/svg" width="512" height="512" fill="none"><g fill-rule="evenodd" clip-path="url(#a)" clip-rule="evenodd"><path fill="#FF9811" d="M11.8 179A256.3 256.3 0 0 1 224.7 1.8L256 88l-32 88-96 32-116.2-29Z"/><path fill="#EEE" d="M511.5 272.4a260.1 260.1 0 0 0-1.5-48.7L256 192 2 223.7a258.5 258.5 0 0 0-1.5 48.7L32 296 6.8 314.9a256.5 256.5 0 0 0 126.3 165.7L256 496l122.9-15.4A256.5 256.5 0 0 0 505.2 315L480 296l31.5-23.6Z"/><path fill="#496E2D" d="M224 2a256 256 0 0 1 286 222H2c2-16.5 5.7-32.6 10.7-48H224V2Zm280 318c4-15.5 6.5-31.5 7.5-48H.5a253 253 0 0 0 7.6 48h495.8Zm-17.7 48H25.7a256.2 256.2 0 0 0 30.4 48H456c11.8-14.8 22-30.8 30.4-48Zm-81 96H106.7A255 255 0 0 0 256 512a255 255 0 0 0 149.3-48Z"/><path fill="#EEE" d="M376.2 165.7c20.6 0 39.3-8.5 52.7-22.1a80.5 80.5 0 1 1-97.8-110 73.7 73.7 0 0 0 45.1 132.1Zm11.3-97.1L370 76l18.4 4.4L390 100l10.3-16.7L420 88l-13.4-15L417 56l-18.6 7.9L386 50l1.5 18.6Z"/></g><defs><clipPath id="a"><path fill="#fff" d="M0 0h512v512H0z"/></clipPath></defs></svg>