<svg xmlns="http://www.w3.org/2000/svg" width="512" height="512" fill="none"><g clip-path="url(#a)"><circle cx="256" cy="256" r="256" fill="#496E2D"/><path fill="#EEE" fill-rule="evenodd" d="M291.6 117.8h-29l-8.5-22.2-7.6 22.2h-26.2l21.2 14.6-8.3 24 22-14.6h.1l22.3 14.7-9-23.4 23-15.3Zm24.6 42.7c-.1-4.2 1-9.4 3-13.8 12.2 9 12.9 19.2 9.5 33.6 2.3.9 8.6 3.7 10 6.7.4-4.2 2.3-9.2 4.9-13.2 9.3 9.2 11.7 24 4 36 2.5 1.3 7.2 8.9 6.8 9.9a31 31 0 0 1 9.5-10.4 30 30 0 0 1-9.8 36c1 3.9 1.7 7.8 2 11.8 3.3-2.5 8.2-4.6 13-5.5-.4 14.6-8.4 22.8-22.6 27.2-.1 1.1-1.7 9.6-2.6 10.8 4-1.1 9.3-1.1 14.1-.1-4.3 12.3-16.8 18.1-30.3 16.6-.9 3-2.2 5.8-4.1 8.3 4.8-.2 9.5.6 13.9 2.5-7.7 11.5-21.4 16.5-34 10.2a26 26 0 0 1-6.1 7.5c4.2.6 9 2.8 13 5.6-9.8 8.5-22.8 8.5-36.4 2l-6.4 3.6-4.7-2.2 9.7-4c-2.3-13.5 3.7-24.4 17.2-30.9 1 5.3.6 10.7-1.2 15.8 3.4-1.5 7.1-2.2 10.9-2.2-3-9 1.2-24 10.7-31.4a30.6 30.6 0 0 1 2.6 15.6 27 27 0 0 1 9-4.4c-6.5-10.6-4.2-22.8 4.5-33 3 4.4 5 9.5 5.4 14.8 1.3-1.6 7.8-7.1 9.2-6.5-10.4-7.3-13-19.5-8.9-32.5 4.5 2.9 8.2 7 10.7 11.7.3-1.1 4.5-9.9 8.1-11.4-11.1-4.6-19.5-10.6-23.4-26.6a30 30 0 0 1 14.6 6.1c-.5-4.5.3-9 2.3-13-13.1 2.8-24.2-3.1-31-15.7a30.6 30.6 0 0 1 15.8.3 26 26 0 0 1-2.7-12.5c-13.6 4-24.4 2.2-34-10.8 4.5-1.7 9.7-2.7 15.7-2-2.8-4-4.6-10.2-4.7-16 2.4.5 10.2 4 12.8 5.5Zm-120.4 0c.1-4.2-1-9.4-3-13.8-12.2 9-12.9 19.2-9.5 33.6-2.2.9-8.6 3.7-10 6.7-.4-4.2-2.3-9.2-4.9-13.2a28.7 28.7 0 0 0-4 36c-2.5 1.3-7.2 8.9-6.8 9.9a31 31 0 0 0-9.5-10.4 30.1 30.1 0 0 0 9.8 36c-.6 1.6-1.8 9.1-2 11.8a32.6 32.6 0 0 0-13-5.5c.4 14.6 8.4 22.8 22.6 27.2.1 1.1 1.7 9.6 2.6 10.8-4-1.1-9.3-1.1-14.1-.1 4.3 12.3 16.8 18.1 30.3 16.6.9 3 2.2 5.8 4.1 8.3-4.2-.4-9.4.5-13.9 2.5 7.7 11.5 21.4 16.5 34 10.2a26 26 0 0 0 6.1 7.5c-4.2.6-9 2.8-13 5.6 9.8 8.5 22.8 8.5 36.4 2l6.4 3.6 4.7-2.2-9.7-4c2.3-13.5-3.7-24.4-17.2-30.9-1 5.3-.6 10.7 1.2 15.8a26.9 26.9 0 0 0-10.9-2.2c3-9-1.2-24-10.7-31.4a30.6 30.6 0 0 0-2.6 15.6 27 27 0 0 0-9-4.4c6.5-10.6 4.2-22.8-4.5-33-3 4.4-5 9.5-5.4 14.8-1.3-1.6-7.8-7.1-9.2-6.5 10.4-7.3 13-19.5 8.9-32.5-4.5 2.9-8.2 7-10.7 11.7-.3-1.1-4.5-9.9-8.1-11.4 11.1-4.6 19.5-10.6 23.4-26.6-5.3.7-10.3 2.8-14.6 6.1.5-4.5-.3-9-2.3-13 13.1 2.8 24.2-3.1 31-15.7a30.6 30.6 0 0 0-15.8.3 26 26 0 0 0 2.7-12.5c13.6 4 24.4 2.2 34-10.8a32.9 32.9 0 0 0-15.7-2c2.8-4 4.6-10.2 4.7-16-2.3.5-10.2 4-12.8 5.5Zm61-10.9h-1.6c-.3 8.5-4.7 15-11.3 20.9-4.9 4.3-11 8.3-17.2 12.5l-6.9 4.5a95.8 95.8 0 0 0-24 21.6 55.3 55.3 0 0 0-10.8 34.5c0 14.4 4.5 25.3 11.1 34a99 99 0 0 0 24.2 21.3l6.4 4.3c6.5 4.3 12.7 8.4 17.6 12.9a32 32 0 0 1 10 15.1c.4 2.1.8 4.2 1 6.5h1.5c.1-2.3.5-4.4.9-6.4a32 32 0 0 1 10-15.2 136 136 0 0 1 17.6-12.9l6.4-4.3a99 99 0 0 0 24.2-21.2c6.6-8.8 11-19.7 11-34a55.4 55.4 0 0 0-10.7-34.6 96 96 0 0 0-24-21.5l-6.8-4.5c-6.4-4.3-12.4-8.2-17.3-12.6-6.6-6-11-12.4-11.3-21v.1ZM378 249c0 61.3-54.6 111-122 111s-122-49.7-122-111c0-15.8 3.6-30.8 10.2-44.4A126.6 126.6 0 0 0 116 284c0 72.9 62.7 132 140 132s140-59.1 140-132c0-29.8-10.5-57.3-28.2-79.4A102.2 102.2 0 0 1 378 249Z" clip-rule="evenodd"/></g><defs><clipPath id="a"><path fill="#fff" d="M0 0h512v512H0z"/></clipPath></defs></svg>