<svg xmlns="http://www.w3.org/2000/svg" width="512" height="512" fill="none"><g clip-path="url(#a)"><circle cx="256" cy="256" r="256" fill="#338AF3"/><path fill="#EEE" fill-rule="evenodd" d="M24.8 366A255 255 0 0 1 0 256a255 255 0 0 1 24.8-110h145.9v220h-146Z" clip-rule="evenodd"/><path fill="#D80027" fill-rule="evenodd" d="M14.6 170.7a256.7 256.7 0 0 1 156-156.1v156h-156Z" clip-rule="evenodd"/><path fill="#6DA544" fill-rule="evenodd" d="M14.6 170.7a256.7 256.7 0 0 1 156-156.1v7.8l-63.3 63 63.4 62.9v22.4h-21.4l-64-63.6-64 63.6h-6.7Z" clip-rule="evenodd"/><path fill="#EEE" fill-rule="evenodd" d="M51.2 102.4a257.5 257.5 0 0 1 51.2-51.2v17h68.3v34.2h-68.3v68.3H68.3v-68.3H51.2Z" clip-rule="evenodd"/><path fill="#D80027" fill-rule="evenodd" d="M170.7 497.4a256.7 256.7 0 0 1-156.1-156h156v156Z" clip-rule="evenodd"/><path fill="#FFDA44" fill-rule="evenodd" d="M51.2 409.6c-5.7-7.5-11-15.4-15.8-23.6a17 17 0 0 1 15.8-10.5h68.3a17 17 0 1 1 0 34.1H51.2Zm74.8 67a257 257 0 0 1-44-32.9h37.5a17 17 0 0 1 6.5 32.9Z" clip-rule="evenodd"/><path fill="#FFDA44" d="M345 155.1v145h-36.7c-22 0-22-29.4-22-29.4h-88V300h18.3l134.8 29.4 133-29.4v-22H411s0 22-22 22h-29.3V155.1H345Z"/><path fill="#FFDA44" d="M359.7 147.8V177c-28.5-10-56 7.4-73.4-29.3 30.3 21 46.8-9.2 73.4 0Zm-66 42.2s-22 22-14.7 66h-66s29.3-51.4 80.6-66Zm14.6 95.4h87.1c-28.4-44 0-95.4 0-95.4h-87s-36.8 51.3 0 95.4Zm92.6-22a88 88 0 0 1 3.7-58.8h57.8s-14.7 29.4-1 58.7H401ZM308.3 300h176.1s-7.3 0-14.7 22c-7.3 22-14.6 44-51.3 44h-132c-35.9 0-47.8-45.8-69.8-66h91.7Z"/></g><defs><clipPath id="a"><path fill="#fff" d="M0 0h512v512H0z"/></clipPath></defs></svg>