<svg xmlns="http://www.w3.org/2000/svg" viewBox="0 0 100 100"><mask id="a"><circle cx="50" cy="50" r="50" fill="#fff"/></mask><g mask="url(#a)"><path fill="none" d="M11.6 64.4a2.6 2.6 0 0 1 0-.4 2.6 2.6 0 0 0 0 .4zm5-6.7a.4.4 0 0 1 0-.2.4.4 0 0 0 0 .2zm1 .3a1.9 1.9 0 0 1-1-.2 1.9 1.9 0 0 0 1 .2l.2.2s-.1-.2-.3-.2zm-.3-2a2.8 2.8 0 0 0 .3-.8 2.8 2.8 0 0 1-.3.8zM.6 62.7H1zm17.7-9.3a1 1 0 0 0-.5.7 1 1 0 0 1 .5-.7zM0 64.1a.6.6 0 0 0 0 .2.6.6 0 0 1 0-.2zm0-.1c0-.2.2-.3.6-.3-.4 0-.6.1-.6.3zm19.3-29v16.5c0 .4.1.7-.3 1s-.4.5-.2.7c1 1 .4 2.3.5 3.4v8.5h.3V34.9z"/><path fill="#0292c6" d="M99.3 87.8a5.8 5.8 0 0 1-2.9-1.3c-1.8-1.5-3.2-1.4-4.9.2a7.7 7.7 0 0 1-6.2 2.3 3.6 3.6 0 0 1-2.5-1c-1.4-1.4-3-1.3-4.8-.6-1.1.4-2.2 1-3.5.6 2-1.4 4-2.8 6.4-2.9a4 4 0 0 1 2.8 1.3c2 1.7 3.1 1.8 5.3.4l2.9-2a4 4 0 0 1 5.2.2 16.8 16.8 0 0 0 2.4 1.5l.5.2v-5.5l-.4-.6.4.2v-7.7l-.4-.2c-2.1-1.1-3.3-.7-4.1 1.6A2.3 2.3 0 0 1 93 76a7.8 7.8 0 0 1-4-1.5c-3.4-2.2-5.5-1.9-8.2 1.2a2.2 2.2 0 0 1-2.6.7 18.1 18.1 0 0 1-3.2-1.7 7 7 0 0 0-3.8-1.1 4.3 4.3 0 0 0-3.7 2.1c-1 1.6-1.7 1.9-3.4 1a26.9 26.9 0 0 1-2.4-1.4c-3-2-5.3-1.9-8.2.2-1.9 1.4-3.8 1.1-5.6.1a13.2 13.2 0 0 0-3.3-1.6 4 4 0 0 0-4 1c-2.5 2.5-3.9 2.6-6.7.7l-1-.7c-2.9-2-4.8-2-7.7 0s-3.3 2-5.4-.7l-.2-.2V100H100V87.9zm-44-6.5a8.5 8.5 0 0 0 6.8-1 4.6 4.6 0 0 1 5.5 0L70 82a5 5 0 0 0 5.6.5l3.7-2A6.6 6.6 0 0 1 86 80l1.2.5c1.9.7 3.7 1.4 5.8.8a2.8 2.8 0 0 1-2.4 1.2 11 11 0 0 1-4.8-1 6.8 6.8 0 0 0-7 .8 10.3 10.3 0 0 1-5.9 2.1 5.6 5.6 0 0 1-3.7-1.2l-1.9-1.4a4.5 4.5 0 0 0-5.2-.1l-.6.3c-2.9 1.5-4.8 1.3-7.5-1zM33 79.2a8 8 0 0 1 2.3 1.3c1.6 1.3 2.4 1.3 4.1.2s3.4-2.1 5.6-2a2.4 2.4 0 0 1 2 1.3c.3.5.1.9-.5.8l-1.2-.1a4.7 4.7 0 0 0-3.7.9c-2.8 2.2-5.6 2.1-8.4-.2a4.7 4.7 0 0 0-4.2-.8c-.5.1-1 .5-1.5.3a4.3 4.3 0 0 1 5.4-1.7zm10.3 13.2c-.1.2-.4.2-.6 0a9.4 9.4 0 0 1-.9-.2 3.9 3.9 0 0 0-4.3.6 6.2 6.2 0 0 1-2.5 1.4 4.4 4.4 0 0 1-5-1.5l-1-1.2c-.9-1-2-1.7-3.4-1-.3 0-.8.2-1-.3s.1-.6.4-.9a2.6 2.6 0 0 1 1.9-.9 4.2 4.2 0 0 1 2.5 1l2 1.7c1.7 1.5 2.6 1.6 4.7.5a8.6 8.6 0 0 1 4.5-1.2 3 3 0 0 1 2.6 1.4c.1.2.2.4.1.6zm8.4-4.6c-2.1 1.9-4.6 2.3-6.7-.1a2.8 2.8 0 0 0-3.8-.6 4 4 0 0 1-2.4.5c-.2 0-.4 0-.5-.3s.1-.4.3-.5a5.8 5.8 0 0 1 8 .1c1.4 1.4 2.2 1.4 4 .3l.7-.5c2.3-2 4.5-2.3 7-.5a3.8 3.8 0 0 0 4.4.3 1.2 1.2 0 0 1 1-.2 4.9 4.9 0 0 1-6.4 1.1c-2.8-1.8-3-1.7-5.6.4zm39.9 6-1-.7c-1.7-1.6-3.2-1.7-5.2-.4a9.8 9.8 0 0 1-3.6 1.7 5 5 0 0 1-4.6-1.3c-1.7-1.6-2.7-1.7-4.6-.3a11 11 0 0 1-2.7 1.7 3.7 3.7 0 0 1-4.5-1.2c-2.2-2.6-2.9-2.8-6-1.2l-1.1.4a5.3 5.3 0 0 1-.7.2 4.4 4.4 0 0 1 6.6-2.1 22.3 22.3 0 0 1 2.3 2 2.5 2.5 0 0 0 3.4.2 28 28 0 0 1 2.9-1.7 4.2 4.2 0 0 1 5 .6c2.6 2.2 3.3 2.2 6.2.6a10 10 0 0 1 2.1-1 4.3 4.3 0 0 1 4.5.3 18.6 18.6 0 0 0 1.7 1.1 4.8 4.8 0 0 0 5.1 0c.5-.3 1-.7 1.6-.6-1.1 2.7-5 3.6-7.4 1.8zm6-29.5a10.4 10.4 0 0 1 2.5 2v-6.8a18.2 18.2 0 0 1-2.8 3.4c-.7.7-.6 1 .3 1.4zm-6.7-13a1.7 1.7 0 0 1 0 .4 12.5 12.5 0 0 0-4.5-1c-.7 0-1.1.3-1.3 1L82.6 60c.4.3.7 0 1-.1a18.8 18.8 0 0 0 8.7-6.1c.4-.6.8-1 .2-1.9a2 2 0 0 1 .1-2.2 7.2 7.2 0 0 1 6-4.2l1.4-.1v-6.9h-2.8c1-2 2-3.7 2.8-5.5v-9l-.5.5q-11.5 11-8.7 26.6z"/><path fill="#0292c6" d="M19.7 13.4V35h-.1v34.3a9.5 9.5 0 0 0 1.8 2 2 2 0 0 0 2.5 0l1.6-1.2c2.8-2 4.6-2 7.4 0A9.7 9.7 0 0 0 36 72a3.2 3.2 0 0 0 3.6-.8c1.4-1.7 3.2-2.5 5.4-1.9l.2-.1c-4-3.7-7.2-8.6-13.1-9.8-2-.3-2.2-1.5-.9-3.3a59.6 59.6 0 0 0-5.4-2.6 4.8 4.8 0 0 1-1.3-.6 1.2 1.2 0 0 1-.2-1.8c.5-.7 1-.6 1.6-.1 4 3.2 9 4.4 13.6 6.6.6.3 1.3.6 1.9 0s.3-1.3 0-2A17.2 17.2 0 0 1 41 52c0-1 .2-1.9-1-2.6-1-.5-.5-2.6.8-2.7 2.9-.3 2.4-2.6 3-4.2.2-.5-.1-.6-.5-.6a3.3 3.3 0 0 0-2.6 1.2 11.4 11.4 0 0 0-1.5 2.7 12.2 12.2 0 0 1-1.6-8.9 35.7 35.7 0 0 1 3.2-8.8 1.9 1.9 0 0 1 1.4-1l5.7-1.5a1.4 1.4 0 0 0 1.2-1.2 30.4 30.4 0 0 1 .9-3.1c.3-.8 0-1-.7-.9a16.9 16.9 0 0 0-2.8.5c-2.8.9-5.3-.1-7.7-1.3 1.5-.3 3.1 0 4.7-.8a11.8 11.8 0 0 1-3.5-3l4.4.6a8.3 8.3 0 0 0 4.4-.4 3.8 3.8 0 0 1 1.5-.3c1 0 1.4-.2 1.4-1.3 0-.8.3-1.7 1.4-1.4s1.2 1.1.8 2c-1.2 2.7-1.7 5.6-2.6 8.4-.3 1-.1 1.3.9 1l7.3-2.2a2.3 2.3 0 0 1 1.5-.1c0 .5-.5.6-.8.8a42.3 42.3 0 0 0-7.5 7.1 17.8 17.8 0 0 0-4 14.2 6.7 6.7 0 0 1 0 .8l-1.8-1.6-.7-.4c-1 .5-.7 1.7-1 2.5-.3.6 0 .7.5.8a19.3 19.3 0 0 1 2.2.2 1.7 1.7 0 0 1 1.6 1.3 1.6 1.6 0 0 1-.7 2c-.7.3-.5.7-.3 1.1a17.5 17.5 0 0 0 8.3 8.4c.4.2.7.3 1-.3.4-1.6 1-3.2 1.6-5a8 8 0 0 0-4.5 2.7 27 27 0 0 1-2.4-7.3 15.4 15.4 0 0 1 1.7-11 118 118 0 0 0 3.8-6.9 2.5 2.5 0 0 1 1.5-1.2l7.7-2.8a2 2 0 0 0 1.4-1.4 228 228 0 0 1 2.5-7.7c.3-.8 0-1-.7-.9a18.8 18.8 0 0 0-3 .5c-2.7 1-5.2 0-7.6-1.2 1.5-.3 3-.1 4.7-.8a14.5 14.5 0 0 1-3.8-3.1l2 .4c2.5.4 5 .8 7.4-.3a2.3 2.3 0 0 1 1-.2c1.1.1 2 0 2-1.4 0-.8.8-.9 1.5-.6s1.1.8.6 1.5c-2 2.4-2 5.5-3 8.2l-1.6 5.8 9.8-3.6c.2.8-.3 1.1-.6 1.5a49.1 49.1 0 0 0-6 10.8 29.1 29.1 0 0 0-.2 18.6c.5 2 1.2 3.8 1.8 5.6a2.7 2.7 0 0 1 .2 1.8 45.8 45.8 0 0 0-8-5.3 22 22 0 0 0-4-1.6c-.8-.2-1.2 0-1.4.7l-1.4 5c-.3.8 0 1 .8 1.2a37.7 37.7 0 0 0 11.9 1 27.9 27.9 0 0 0 5.5-.7c.5-.2 1-.2 1.2-.9l2.2-7.9-.2-.2c-2.3 1.5-3 3.9-3.1 6.8a25 25 0 0 1-3.3-8.3A28.6 28.6 0 0 1 79 30.5a6 6 0 0 1 4.2-3.3c2.2-.5 4.3-1.2 6.4-1.8a1.4 1.4 0 0 0 1.2-1.1c.5-2 1-3.8 1.7-5.7.3-1-.1-1.1-1-1a19 19 0 0 0-4 .5c-2.6.8-5-.2-7.2-1.3 1.5-.3 3.1-.1 4.7-.8a13.5 13.5 0 0 1-3.7-3l3.7.6a9.4 9.4 0 0 0 5.3-.5 4.1 4.1 0 0 1 2.2-.3c1 .2 1.7.2 2-1a.6.6 0 0 1 .7-.4 1 1 0 0 1 .8.7 4 4 0 0 1-.2 2.4l-2.6 8.7c-.3 1 0 1.1.8.8l6-1.7V0H19.7v13.4z"/><path fill="#ca0302" d="m19.6 74.1-.2-.2v-4.8l.2.1v-4.1h-.3v.2c-2.3 0-4.6.2-7-.1h-.8a102.3 102.3 0 0 1-11.3 0h-.3v7.3a6.2 6.2 0 0 0 4.3-1c2-1.4 6.7-1.2 8.4.3.5.4.2.6-.1.8a5.5 5.5 0 0 1-4 .7 2.8 2.8 0 0 0-1.5 0c1.5 1.7 3 3 5.4 2.1 1.1-.3 1.8.6 2.2 1.6s-.2 1.6-1 2c-1.7.7-2.7.3-3.4-1.4-.2-.5-.4-.4-.7-.3a9.7 9.7 0 0 1-2.8.3c-.6 0-.7.4-.7.8a1.6 1.6 0 0 1-1.8 1.4H1.9A1.8 1.8 0 0 1 0 78.2a1 1 0 0 0 0-.4V86a2.2 2.2 0 0 0 .4 0 6.8 6.8 0 0 0 4-1c2-1.6 6.3-1.1 8.6.7-1.7 1.5-3.7 1.3-6 .8 1.5 1.9 3 3.2 5.4 2.4a2 2 0 0 1 2.3 1.6 1.6 1.6 0 0 1-1.1 2c-1.6.8-2.8.3-3.3-1.3-.2-.6-.4-.4-.8-.4a9.4 9.4 0 0 1-2.8.4c-.6-.1-.6.3-.7.7a1.6 1.6 0 0 1-1.7 1.4H2a1.8 1.8 0 0 1-2-1.7 1.5 1.5 0 0 0 0-.3v8.7h19.6z"/><path d="M19.9 72.3c2 2.4 2.7 2.5 5.2.6 3-2.3 4.8-2.3 8 0a16.9 16.9 0 0 0 1.9 1.2c2 1 3.4.8 5.1-.8 2-2 3.6-2.2 6.3-.8a15.8 15.8 0 0 0 3 1.5 4.6 4.6 0 0 0 4.3-.9 6 6 0 0 1 7.6-.3 19.9 19.9 0 0 0 3 1.8c1.5.6 2.3.3 3.2-1 1.5-2.2 3.4-3 6-1.8 1.3.5 2.5 1.3 3.8 2 2 1 2.6.7 3.9-.9a5 5 0 0 1 7.2-1 11.2 11.2 0 0 0 3.4 1.7c2.1.5 3.1 0 4-2a2.1 2.1 0 0 1 2.8-1.4 5.8 5.8 0 0 1 1.4.6v-2.6a10.1 10.1 0 0 0-1-.5c-1.7-.6-2.8-.1-3.4 1.6s-1.5 2-3.2 1.8a9.2 9.2 0 0 1-3.8-1.7c-2.8-1.8-5.4-1.5-7.6 1.1-1.1 1.4-1.7 1.6-3.3.8-1-.4-2-1-2.9-1.5-3.2-1.8-5.4-1.4-7.6 1.6a2 2 0 0 1-2.4.7 12.8 12.8 0 0 1-3-1.6 6.5 6.5 0 0 0-8.4.1 4.1 4.1 0 0 1-4.7.5l-3.5-2-.2.2c-2.2-.7-4 .1-5.4 1.8a3.2 3.2 0 0 1-3.6.8 9.7 9.7 0 0 1-3.1-1.8c-2.8-2-4.6-2-7.4 0l-1.6 1a2 2 0 0 1-2.5 0 9.5 9.5 0 0 1-1.8-1.9V72zm-.3-3-.1-.2v2.6l.1.2z"/><path fill="#ececec" d="M98.6 70.2a2.1 2.1 0 0 0-2.9 1.4c-.8 2-1.8 2.5-3.8 2a11.2 11.2 0 0 1-3.5-1.7 5 5 0 0 0-7.2 1c-1.3 1.6-2 1.8-4 .8l-3.7-2c-2.6-1-4.5-.4-6 2-.9 1.2-1.6 1.4-3.1.9a19.9 19.9 0 0 1-3.1-1.8 6 6 0 0 0-7.6.3 4.6 4.6 0 0 1-4.3.9 15.8 15.8 0 0 1-3-1.5c-2.7-1.4-4.2-1.2-6.3.8-1.7 1.6-3 1.9-5 .8a16.9 16.9 0 0 1-2-1.2c-3.2-2.3-5-2.3-8 0-2.5 1.8-3.3 1.7-5.2-.7l-.3-.3V74l.2.2c2.1 2.6 2.7 2.7 5.4.7s4.8-2 7.7 0l1 .7c2.9 1.9 4.2 1.8 6.6-.6a4 4 0 0 1 4-1.1 13.2 13.2 0 0 1 3.3 1.5c2 1 3.8 1.4 5.7 0 2.9-2.1 5.1-2.2 8.1-.3a26.9 26.9 0 0 0 2.5 1.5c1.7.8 2.4.6 3.4-1a4.3 4.3 0 0 1 3.7-2.2 7 7 0 0 1 3.8 1.3 18.1 18.1 0 0 0 3.2 1.6 2.2 2.2 0 0 0 2.6-.7c2.7-3 4.8-3.4 8.2-1.1a7.8 7.8 0 0 0 4 1.4 2.3 2.3 0 0 0 2.5-1.6c.9-2.2 2-2.6 4.2-1.6l.3.2v-2.3a5.8 5.8 0 0 0-1.4-.5z"/><path fill="#ececec" d="M19.4 71.7V74l.2.2V72l-.2-.2z"/><path fill="#fbca4e" d="M93.2 23.3c1-3 1.7-5.9 2.6-8.8a4 4 0 0 0 .2-2.4 1 1 0 0 0-.8-.7.6.6 0 0 0-.7.5c-.3 1-1 1-2 1a4.1 4.1 0 0 0-2.2.3 9.4 9.4 0 0 1-5.3.4l-3.6-.6a13.5 13.5 0 0 0 3.6 3c-1.6.7-3.1.6-4.7.8 2.3 1.2 4.7 2.1 7.3 1.3a19 19 0 0 1 4-.6c.8 0 1.3 0 1 1l-1.8 5.8a1.4 1.4 0 0 1-1.1 1l-6.5 2a6 6 0 0 0-4.2 3.2 28.6 28.6 0 0 0-3.3 20.3A25 25 0 0 0 79 59c.2-2.9.9-5.3 3.2-6.8h.3l-.1.3-2.2 7.9c-.2.7-.7.7-1.2.9a27.9 27.9 0 0 1-5.6.7 37.7 37.7 0 0 1-11.8-1c-.8-.1-1-.4-.8-1.2l1.4-4.9c.2-.8.6-1 1.4-.7a22 22 0 0 1 4 1.6 45.8 45.8 0 0 1 8 5.3 2.7 2.7 0 0 0-.2-1.8c-.6-1.9-1.3-3.7-1.8-5.6a29.1 29.1 0 0 1 .1-18.6 49.1 49.1 0 0 1 6-11c.3-.3.8-.6.6-1.4l-9.8 3.6 1.6-5.8c1-2.8 1-5.8 3-8.2.5-.7 0-1.2-.6-1.5s-1.5-.2-1.5.6c0 1.5-.9 1.5-2 1.4a2.3 2.3 0 0 0-1 .2c-2.4 1-5 .7-7.4.3l-2-.4a14.5 14.5 0 0 0 3.8 3.1c-1.7.7-3.2.5-4.7.8 2.4 1.2 4.9 2.1 7.7 1.2a18.8 18.8 0 0 1 2.9-.5c.7-.1 1 0 .7 1L68.5 26a2 2 0 0 1-1.4 1.4l-7.7 2.8a2.5 2.5 0 0 0-1.5 1.2c-1.2 2.3-2.4 4.6-3.8 6.8a15.4 15.4 0 0 0-1.7 11 27 27 0 0 0 2.4 7.4 8 8 0 0 1 4.5-2.7l-1.7 5c-.2.6-.5.4-1 .2a17.5 17.5 0 0 1-8.2-8.3c-.2-.5-.4-.8.3-1.2a1.6 1.6 0 0 0 .7-1.9 1.7 1.7 0 0 0-1.6-1.3 19.3 19.3 0 0 0-2.2-.3c-.5 0-.8-.2-.6-.7.4-.8 0-2 1.1-2.5l.7.4 1.8 1.5a6.7 6.7 0 0 0 0-.7 17.8 17.8 0 0 1 4-14.2 42.3 42.3 0 0 1 7.5-7c.3-.3.8-.4.8-.9a2.3 2.3 0 0 0-1.5.2l-7.3 2c-1 .4-1.2 0-.9-.8 1-2.8 1.4-5.8 2.6-8.5.4-.9.3-1.8-.8-2s-1.4.6-1.4 1.5c0 1-.4 1.3-1.4 1.2a3.8 3.8 0 0 0-1.5.3 8.3 8.3 0 0 1-4.4.5L40 16a11.8 11.8 0 0 0 3.5 3c-1.6.7-3.2.5-4.7.7C41 21 43.6 22 46.4 21a16.9 16.9 0 0 1 2.8-.4c.7-.1 1 0 .7.9a30.4 30.4 0 0 0-.9 3 1.4 1.4 0 0 1-1.2 1.2L42 27.2a1.9 1.9 0 0 0-1.4 1 35.7 35.7 0 0 0-3.2 8.8 12.2 12.2 0 0 0 1.6 9 11.4 11.4 0 0 1 1.5-2.7 3.3 3.3 0 0 1 2.6-1.2c.4 0 .7.1.5.6-.6 1.6-.2 4-3 4.1-1.3.1-1.9 2.2-.8 2.8 1.2.7 1 1.6 1 2.6a17.2 17.2 0 0 0 .6 3.6c.2.6.5 1.4-.1 2s-1.3.2-2-.1C35 55.3 30 54 26 50.9c-.5-.4-1.1-.6-1.6.1a1.2 1.2 0 0 0 .2 1.8 4.8 4.8 0 0 0 1.3.6 59.6 59.6 0 0 1 5.4 2.6c-1.3 1.8-1 3 .9 3.3 6 1.2 9 6 13.1 9.8l3.5 2a4.1 4.1 0 0 0 4.7-.5 6.5 6.5 0 0 1 8.3-.2 12.8 12.8 0 0 0 3 1.7 2 2 0 0 0 2.5-.8c2.2-3 4.4-3.4 7.6-1.5l2.9 1.5c1.6.7 2.2.6 3.3-.8 2.2-2.6 4.8-3 7.6-1.1a9.2 9.2 0 0 0 3.8 1.6c1.7.3 2.5-.1 3.2-1.8s1.7-2.1 3.4-1.5a10.1 10.1 0 0 1 1 .4v-1.8a10.4 10.4 0 0 0-2.5-2c-.9-.5-1-.7-.3-1.4a18.2 18.2 0 0 0 2.8-3.4V45.4h-1.4a7.2 7.2 0 0 0-6 4.2 2 2 0 0 0-.1 2.3c.6.8.2 1.3-.2 1.9a18.8 18.8 0 0 1-8.7 6c-.3.2-.6.5-1 .2l2.4-8.3c.2-.7.6-1 1.3-1a12.5 12.5 0 0 1 4.5 1 1.7 1.7 0 0 0 0-.5Q88 35.6 99.5 24.6l.5-.5v-1.8l-6 1.8c-.9.3-1.1.1-.8-.8z"/><path fill="#fbca4e" d="M98.9 38.5h1.1v-5.6l-2.8 5.5z"/><path d="m18.6 55.5-.1-1.3a2 2 0 0 0-.3-.8 1 1 0 0 0-.5.7v.7a3.1 3.1 0 0 1 0 .4 2.8 2.8 0 0 1-.3.8 2.9 2.9 0 0 1-.2.4c-.3.4-.7.8-.6 1.1a.4.4 0 0 0 0 .2h.1a1.9 1.9 0 0 0 .9.3l.2.2c0 .1.2.5.5.6a1 1 0 0 1 .3-.7 1 1 0 0 1 .8-.2v-1.3a1.6 1.6 0 0 1-.8-1z"/><path fill="#ececec" d="M97.3 92.7a4.8 4.8 0 0 1-5.1 0 18.6 18.6 0 0 1-1.7-1.1 4.3 4.3 0 0 0-4.4-.4l-2.2 1c-2.9 1.7-3.5 1.6-6-.6a4.2 4.2 0 0 0-5.2-.6 28 28 0 0 0-2.8 1.8 2.5 2.5 0 0 1-3.4-.2 22.3 22.3 0 0 0-2.4-2 4.4 4.4 0 0 0-6.6 2 5.3 5.3 0 0 0 .7 0l1.1-.6c3.1-1.5 3.8-1.4 6 1.2a3.7 3.7 0 0 0 4.5 1.2 11 11 0 0 0 2.8-1.6c1.9-1.4 2.9-1.4 4.6.2a5 5 0 0 0 4.5 1.4 9.8 9.8 0 0 0 3.6-1.7c2-1.3 3.5-1.2 5.3.3l1 .8c2.3 1.8 6.2 1 7.3-1.7-.7-.1-1.1.3-1.6.6zM61.4 82l.6-.3a4.5 4.5 0 0 1 5.3.2l1.8 1.3a5.6 5.6 0 0 0 3.8 1.2 10.3 10.3 0 0 0 5.8-2.1 6.8 6.8 0 0 1 7-.8 11 11 0 0 0 4.8 1 2.8 2.8 0 0 0 2.4-1.2c-2 .6-4 0-5.8-.8L86 80a6.6 6.6 0 0 0-6.7.4 27 27 0 0 1-3.7 2.1A5 5 0 0 1 70 82l-2.3-1.6a4.6 4.6 0 0 0-5.5-.1 8.5 8.5 0 0 1-6.7 1l-1.5-.4c2.7 2.4 4.6 2.6 7.5 1.1zm35.7 3a4 4 0 0 0-5.2-.2l-2.9 2c-2.2 1.4-3.4 1.3-5.3-.4a4 4 0 0 0-2.8-1.3c-2.5.1-4.5 1.5-6.4 2.9 1.3.5 2.4-.1 3.5-.6 1.8-.7 3.4-.8 4.8.7a3.6 3.6 0 0 0 2.5.9 7.7 7.7 0 0 0 6.2-2.2c1.7-1.7 3-1.7 5-.3a5.8 5.8 0 0 0 2.8 1.3h.7v-1l-.5-.2A16.8 16.8 0 0 1 97 85zm-33.5 1.3a1.2 1.2 0 0 0-1 .2 3.8 3.8 0 0 1-4.3-.3c-2.5-1.8-4.8-1.4-7 .5l-.8.5c-1.7 1.1-2.6 1-4-.3a5.8 5.8 0 0 0-8-.1c-.1.1-.3.3-.2.5s.3.3.5.3a4 4 0 0 0 2.3-.5 2.8 2.8 0 0 1 3.9.6c2 2.4 4.5 2 6.7.2 2.5-2.2 2.8-2.2 5.6-.5a4.9 4.9 0 0 0 6.3-1zm-23.1 4.1a8.6 8.6 0 0 0-4.5 1.2c-2 1.1-3 1-4.7-.5l-2-1.7a4.2 4.2 0 0 0-2.5-1 2.6 2.6 0 0 0-2 1c-.2.2-.5.5-.3.8s.7.4 1 .2c1.5-.6 2.5 0 3.4 1.1l1 1.2a4.4 4.4 0 0 0 5 1.5 6.2 6.2 0 0 0 2.6-1.4 3.9 3.9 0 0 1 4.2-.6 9.4 9.4 0 0 0 .9.3c.2 0 .5.1.6-.1s0-.4-.1-.6a3 3 0 0 0-2.6-1.4zM29 80.6a4.7 4.7 0 0 1 4.2.8c2.8 2.3 5.5 2.4 8.4.2a4.7 4.7 0 0 1 3.6-1l1.2.2c.7 0 .8-.3.6-.8a2.4 2.4 0 0 0-2.1-1.2c-2.2-.2-4 .8-5.6 1.9s-2.5 1-4.1-.2a8 8 0 0 0-2.3-1.3 4.3 4.3 0 0 0-5.4 1.7c.6.2 1-.2 1.5-.3zm71 .6v-.4l-.4-.2.4.6z"/><path d="m.2 65-.2-.7a.6.6 0 0 1 0-.2.3.3 0 0 1 0-.1c0-.2.2-.3.6-.3H1a4.4 4.4 0 0 0 1 0 .5.5 0 0 0 .5-.5c0-.3-.2-.4-.5-.4a2.5 2.5 0 0 0-.5 0h-1a2.4 2.4 0 0 1-.4-.1 2.7 2.7 0 0 0-.2-2.1V65zM0 65v.2h.2a.2.2 0 0 0 0-.1zm12.4 0a1.7 1.7 0 0 0-.5-1.4 2 2 0 0 0-.2.4 2.6 2.6 0 0 0-.1.4 4.4 4.4 0 0 0 0 .7zm-.9 0v.2h.9a.5.5 0 0 1 0-.1z"/><path fill="#fbca4e" d="M0 78.2a1.8 1.8 0 0 0 2 1.6h2.2A1.6 1.6 0 0 0 6 78.4c0-.4.1-.8.7-.7a9.7 9.7 0 0 0 2.8-.4c.3 0 .6-.2.7.3.7 1.8 1.8 2.2 3.4 1.4.8-.4 1.4-1 1-2s-1-1.9-2.2-1.5c-2.4.7-3.9-.5-5.4-2.3a2.8 2.8 0 0 1 1.5.1 5.5 5.5 0 0 0 4-.7c.3-.2.6-.3.1-.8-1.7-1.5-6.5-1.7-8.4-.2a6.2 6.2 0 0 1-4.3.9v5.3a1 1 0 0 1 .1.4zm0 13.4a1.8 1.8 0 0 0 1.9 1.7h2.4A1.6 1.6 0 0 0 6 91.9c0-.4.1-.9.7-.8a9.4 9.4 0 0 0 2.8-.3c.3 0 .6-.2.8.3.4 1.7 1.6 2.1 3.2 1.4a1.6 1.6 0 0 0 1.1-2 2 2 0 0 0-2.3-1.6c-2.4.7-3.8-.5-5.4-2.4 2.3.5 4.3.7 6.1-.8-2.3-1.9-6.5-2.3-8.6-.7a6.8 6.8 0 0 1-4 1 2.2 2.2 0 0 1-.4 0v5.3a1.5 1.5 0 0 1 0 .3z"/><path fill="#0292c6" d="m82.1 52.3.2.2.1-.3z"/><path fill="none" d="M0 42.2a2.3 2.3 0 0 0 0-.6 2.3 2.3 0 0 1 0 .6z"/><path d="M0 41.6a1.7 1.7 0 0 0 0-.8v1.4a2.3 2.3 0 0 0 0-.6z"/><path fill="none" d="M0 45a2.3 2.3 0 0 1 0 .3 2.3 2.3 0 0 0 0-.3zm.1.5a1.4 1.4 0 0 0 0 .2 1.4 1.4 0 0 1 0-.2zm.2.4a1.6 1.6 0 0 0 0 .2 1.6 1.6 0 0 1 0-.2zm.2.5v.1-.1z"/><path d="M0 43.6v4.8-.1a.4.4 0 0 1 .4-.2c.4 0 .7-.1.8-.3a.3.3 0 0 0 0-.1A1 1 0 0 0 1 47l-.2-.2a3.3 3.3 0 0 1-.3-.4v-.1a2.1 2.1 0 0 1-.2-.3 1.6 1.6 0 0 1 0-.2l-.1-.2a1.4 1.4 0 0 1 0-.2l-.2-.2a2.3 2.3 0 0 0 0-.3.9.9 0 0 1 0-.2V44a.4.4 0 0 1 0-.1v-.4z"/><path fill="none" d="M12.6 63.5zm.7-.8zm-.6 1zm.5 0zm0-1zm.5 1h-.3zm-1.3-.4zm1.2-.6zm-.6 1zm-.6-.7zm1.4-.3a1.5 1.5 0 0 1 .4 0 1.5 1.5 0 0 0-.4 0zm-1.4 0z"/><polygon points="12.36 62.66 12.36 62.66 12.36 62.66 12.36 62.66 12.36 62.66"/><path d="M14.2 62.7a1.5 1.5 0 0 0-.4 0h-1.4v.3a.9.9 0 0 0 0 .3.6.6 0 0 0 0 .2h.2l.2.1H14a1.5 1.5 0 0 0 .5 0 .3.3 0 0 0 .1-.5.6.6 0 0 0-.3-.4z"/><path fill="none" d="M12.3 62.6v-.1.1zm-.8 0zm.8-1.7.1.2c.1 0 0-.1 0-.2zm-.8.2V61v.2zm.1-.3a1.6 1.6 0 0 1 0-.2 1.6 1.6 0 0 0 0 .2zm.2-.3a1.4 1.4 0 0 1 .2-.3 1.4 1.4 0 0 0-.3.3zm.2-.3a2.6 2.6 0 0 1 .2.3 2.6 2.6 0 0 0-.2-.3zm-.5 2.3v-.4.4zm0-.5a1 1 0 0 1 0-.2 1 1 0 0 0 0 .2zm0-.6a1.1 1.1 0 0 0 0-.2 1.1 1.1 0 0 1 0 .2zm0 .3zm1 .2a.9.9 0 0 1 0 .1.9.9 0 0 0 0-.1zm0-.3a.9.9 0 0 1 0 .1.9.9 0 0 0 0-.1zm-.3-1 .1.2c.1 0 0-.1 0-.2zm.2 1.6a.9.9 0 0 1 0 .1.9.9 0 0 0 0-.1zm0-1v.2-.1z"/><path d="M12.4 62.5a.8.8 0 0 0 0-.2.9.9 0 0 0 0-.1.8.8 0 0 0 0-.2.9.9 0 0 0 0-.1.8.8 0 0 0 0-.2.9.9 0 0 0 0-.1v-.7l-.2-.3a2.6 2.6 0 0 0-.2-.4 1.4 1.4 0 0 0-.3.3.5.5 0 0 0 0 .1 1.6 1.6 0 0 0-.1.2v.4a1.1 1.1 0 0 1 0 .2v.3a.5.5 0 0 0 0 .2 1 1 0 0 0 0 .1v.5a.3.3 0 0 1 0 .1h.7z"/><path fill="none" d="M12.3 48.2a2 2 0 0 0-.2.5 2 2 0 0 1 .2-.5zm0-3.9a6.8 6.8 0 0 1 0-.7 6.8 6.8 0 0 0 0 .8zm-.4 4.6a.3.3 0 0 1-.2-.1.3.3 0 0 0 .2 0zm1.4-1.8-.4-.5a3.9 3.9 0 0 1-.6-2.2 3.9 3.9 0 0 0 .7 2.3l.3.4zm-1-5.5v-.9a.5.5 0 0 0 0-.1.5.5 0 0 1 0 .1v1zm-2 1.1a1.7 1.7 0 0 0 .7-.3 1.7 1.7 0 0 1-.7.3zm.3.9a2.6 2.6 0 0 1-1-.1 2.6 2.6 0 0 0 1 0z"/><path d="M12.3 43.6a.5.5 0 0 1-.4 0 1 1 0 0 0-.3 0A7 7 0 0 1 11 46c-.3.8-1.8 1.7.4 2.1a.1.1 0 0 1 0 .1 1.2 1.2 0 0 0 .2.4.3.3 0 0 0 .2.1.4.4 0 0 0 .2-.2 2 2 0 0 1 .2-.4.3.3 0 0 1 .2-.1 2.7 2.7 0 0 0 .5-.1c.3 0 .4-.2.4-.3a.8.8 0 0 0-.2-.6c0-.2-.2-.3-.3-.5a3.9 3.9 0 0 1-.7-2.2 6.8 6.8 0 0 1 .1-.8z"/><path d="m12.4 41.6-.1-.9a.5.5 0 0 0 0-.1.4.4 0 0 0-.2-.3.2.2 0 0 0-.2 0 .4.4 0 0 0-.4.5 1.8 1.8 0 0 1-.5 1.6 1.7 1.7 0 0 1-.7.3 3.5 3.5 0 0 1-1 .1l-.4.3a2 2 0 0 0 .7.4 2.6 2.6 0 0 0 1 0h1c0-.3-.4-.8.2-.9.8 0 .4.6.5 1h1a2.6 2.6 0 0 0 .6 0 1.7 1.7 0 0 0 .8-.5c-.7-.6-1.5-.4-2.3-.5v-1z"/><path fill="#ececec" d="M11.8 42.6c-.6.1-.3.6-.3 1a1 1 0 0 1 .4 0 .5.5 0 0 0 .4 0c0-.4.3-1-.5-1zm.5 1z"/><path fill="#ececec" d="M12.3 43.6a.5.5 0 0 1-.4 0 .5.5 0 0 0 .4 0z"/><path fill="none" d="M11 63.7a3.1 3.1 0 0 1-.4 0 3.1 3.1 0 0 0 .4 0zm-1.4-.9a1.7 1.7 0 0 1 .5-.1 1.7 1.7 0 0 0-.5.1zm-.4.4a.4.4 0 0 0 .2.2.4.4 0 0 1-.2-.2zm2.3 0v-.4.4zm-.3.4H11zm.2-1h-1.2 1.2zm.1.7zm-.1.2h-.1zm.1-.8a.3.3 0 0 0 0 .1.3.3 0 0 1 0-.1zm0 .7zM9.3 63c-.1 0-.2.1-.1.2V63z"/><path d="M11.4 62.7H10a1.7 1.7 0 0 0-.5 0 3.2 3.2 0 0 0-.3.2c-.1.1-.2.2-.1.3a.4.4 0 0 0 .2.2 1.7 1.7 0 0 0 .8.3h.4a3.1 3.1 0 0 0 .4 0h.3v-.1a.2.2 0 0 0 0-.2v-.5z"/><path fill="none" d="M17.6 53a.4.4 0 0 1 0 .1.4.4 0 0 0 0-.1zm-1.8-.4a1.6 1.6 0 0 1 .5-.1 1.6 1.6 0 0 0-.5.1zm1.8.6zm.1-.7zm-.2.8zm.2-.7v.4-.4zm-.3.8a.5.5 0 0 1-.2 0 .6.6 0 0 0 .2 0zm-2-.3a.4.4 0 0 1 0-.1zm2.2-.6h-1.2 1.2z"/><path d="M17.2 53.5a.5.5 0 0 0 .2-.1h.1v-.9h-1.3a1.6 1.6 0 0 0-.6.1l-.3.1a.2.2 0 0 0-.1.3.5.5 0 0 0 .2.2 2.3 2.3 0 0 0 1.8.2z"/><path fill="none" d="M17.6 51.8a.7.7 0 0 0 0-.1.7.7 0 0 1 0 .1zm.1.5v.1zm0 .1h.1zm.5-.1H18zm.2-.2zm-.6-1.5a1.6 1.6 0 0 1 0-.2 1.6 1.6 0 0 0 0 .2zm-.2.6V51zm.8-.5.1.2zm-.3-.7zm-.4 1a1 1 0 0 0 0-.3 1 1 0 0 1 0 .2zm.9.1v.2-.1zm-1 .4zm.3-1.2a2.4 2.4 0 0 1 .2-.2 2.4 2.4 0 0 0-.2.2zm-.2 1.8V52v.1zm1-.6a.5.5 0 0 1 0 .2.5.5 0 0 0 0-.2zm-.1.3a.4.4 0 0 1 0 .1z"/><polygon points="17.74 52.41 17.74 52.41 17.74 52.41 17.74 52.41 17.74 52.41"/><path d="m17.8 52.4.3-.1.3-.1a.7.7 0 0 0 .1-.2.4.4 0 0 0 0-.1 1.4 1.4 0 0 0 .1-.2.5.5 0 0 0 0-.1 1.5 1.5 0 0 0 0-.2V51l-.2-.2v-.2L18 50a2.4 2.4 0 0 0-.2.3 1.6 1.6 0 0 0-.1.3 1 1 0 0 1 0 .3v.7a.7.7 0 0 1 0 .1v.4a1.4 1.4 0 0 0 0 .2z"/><path fill="none" d="M6.2 51.6v.7-.7zM5.7 50a1.5 1.5 0 0 1 .2.3 1.5 1.5 0 0 0-.2-.3zm.5 1a1.4 1.4 0 0 1 0 .2 1.4 1.4 0 0 0 0-.2zm-.8-.4zm.7 1.8zm-.9-1.2zm1-.5v.2zm0 .6zm-1 .5zm.8-1.4a2.1 2.1 0 0 1 .1.2 2.1 2.1 0 0 0-.1-.2z"/><path d="M6.2 52.3v-1a1.4 1.4 0 0 0 0-.3.4.4 0 0 1 0-.1l-.1-.2v-.1a2.1 2.1 0 0 0-.1-.2 1.5 1.5 0 0 0-.3-.4 3 3 0 0 0-.3.6 2.5 2.5 0 0 0-.2.6 3 3 0 0 0 0 .6 4.8 4.8 0 0 0 .2.6H6z"/><path fill="none" d="M6.8 53.5zm-.6-1z"/><polygon points="6.18 52.44 6.18 52.44 6.18 52.44 6.18 52.44"/><path d="M7 52.5h-.8c-.1.6.1 1 .6 1a2 2 0 0 0 .5 0c.4 0 1.2 0 1.1-.5s-1-.5-1.5-.5z"/><path fill="none" d="M7.3 57.7a.4.4 0 0 1-.4.2.4.4 0 0 0 .4-.2zm-3.1-.4a2.5 2.5 0 0 1 .4-.7 2.5 2.5 0 0 0-.4.7z"/><path d="M5.9 53.2c-.9 1-.4 2.1-1 3a4.8 4.8 0 0 1-.4.4 2.5 2.5 0 0 0-.4.7.6.6 0 0 0 0 .2.4.4 0 0 0 .2.2 1 1 0 0 0 .3.2 2.9 2.9 0 0 0 .6.2c.3 0 .2.6.6.7.2-.5.4-1 1.1-1a.4.4 0 0 0 .4 0 .3.3 0 0 0 0-.5 8.4 8.4 0 0 1-1.4-4.1z"/><path fill="none" d="M5.3 52.6v.4-.4zM3 53s0 .2.2.3a1 1 0 0 0 .4.2 1 1 0 0 1-.4-.2c-.2-.1-.3-.2-.2-.3zm2.2.4H5zM3 52.7a.3.3 0 0 0-.2.2.3.3 0 0 1 .2-.2zm2.2-.2zm0 .5a.5.5 0 0 1 0 .1.5.5 0 0 0 0-.1zm-1 .5a3.4 3.4 0 0 0 .5 0 .5.5 0 0 0 .2-.1.5.5 0 0 1-.2 0 3.4 3.4 0 0 1-.4 0zm1-.3a.2.2 0 0 1-.1 0zm-1.9-.6a2.1 2.1 0 0 1 .5-.1 2.1 2.1 0 0 0-.5 0zm1.8-.1H4h1.2z"/><path d="M5.2 52.5H3.9a2.1 2.1 0 0 0-.5 0 2.4 2.4 0 0 0-.3.2.3.3 0 0 0-.2.2s0 .2.2.3a1 1 0 0 0 .4.2 1.4 1.4 0 0 0 .4 0h.5a3.4 3.4 0 0 0 .4 0 .5.5 0 0 0 .2 0h.1a.2.2 0 0 0 0-.2v-.6z"/><path fill="none" d="M0 43.5v-.2.2zm.8 0H0zm1.1 0a2.7 2.7 0 0 1-.5 0 2.7 2.7 0 0 0 .5 0zm-1.8-.6zm-.1.2a.2.2 0 0 1 0-.1zm0 .1zm.3-.5zm-.2.1a.2.2 0 0 1 .1 0zm1-.2a3.2 3.2 0 0 1 .4 0 3.2 3.2 0 0 0-.4 0zm.2 1H1zm-.9-1a.7.7 0 0 1 .2 0 .7.7 0 0 0-.2 0z"/><path d="M0 43.5h1.5a2.7 2.7 0 0 0 .5 0 1 1 0 0 0 .3-.2.3.3 0 0 0 .1-.2.3.3 0 0 0 0-.1 1.3 1.3 0 0 0-.9-.4 3.2 3.2 0 0 0-.4 0H.6a.7.7 0 0 0-.2 0H.3a.2.2 0 0 0-.1.1v.1a.2.2 0 0 0 0 .1.3.3 0 0 0 0 .2v.2z"/><path fill="#ececec" d="M17.7 52.4zm0 0zm0 0z"/><polygon fill="#ececec" points="17.71 52.44 17.71 52.44 17.71 52.44 17.71 52.44 17.71 52.44"/><path fill="#ececec" d="M17.7 52.4z"/><polygon fill="#ececec" points="17.72 52.41 17.75 52.44 17.72 52.41 17.72 52.41"/><path fill="#ececec" d="M6.2 52.4zm0 0zm0 0zm12.4 5.7a1 1 0 0 0-.3.7c-.4 0-.4-.4-.5-.6l-.2-.2a1.9 1.9 0 0 1-1-.2.4.4 0 0 1 0-.3c0-.3.3-.7.5-1.1a2.9 2.9 0 0 0 .3-.4 2.8 2.8 0 0 0 .2-.8 3.1 3.1 0 0 0 0-.4V54a1 1 0 0 1 .5-.7 2 2 0 0 1 .3.8l.2 1.3a1.6 1.6 0 0 0 .7 1c-.1-1 .5-2.3-.5-3.3-.2-.2 0-.5.2-.7s.3-.6.3-1V38c-.7-.1-1.1.2-1.4 1l-.4-.8c-2-.4-.7-1.3-.3-2.1.3-.6.4-1 .2-1.2H6a3.2 3.2 0 0 0 .3 1 4.8 4.8 0 0 0 .4.8l.2.3c.4.5.5 1-.4 1-.6 0-.5.6-.9.8-.3 0-.2-.2-.3-.4A2.3 2.3 0 0 1 5 36a4 4 0 0 0 .1-1H0v6a1.7 1.7 0 0 1 .2.7 2.3 2.3 0 0 1-.2.6v1.4-.4a.3.3 0 0 1 0-.1.1.1 0 0 1 0-.1V43a.4.4 0 0 1 0-.1h.2a.7.7 0 0 1 .2 0H1a3.2 3.2 0 0 1 .4 0 1.3 1.3 0 0 1 .8.2.3.3 0 0 1 0 .2.3.3 0 0 1 0 .2 1 1 0 0 1-.3.2 2.7 2.7 0 0 1-.5 0l-.3-.1H0v.3a.4.4 0 0 0 0 .1v.8a.9.9 0 0 0 0 .2 2.3 2.3 0 0 1 0 .3v.2a1.4 1.4 0 0 0 .1.2l.1.2a1.6 1.6 0 0 0 0 .2 2.1 2.1 0 0 0 .2.2v.2a3.3 3.3 0 0 0 .4.3l.2.3a1 1 0 0 1 .3.6.3.3 0 0 1-.1.1c0 .2-.3.3-.8.3a.4.4 0 0 0-.4.2v12.2a2.7 2.7 0 0 1 .1 2.1 2.4 2.4 0 0 0 .4 0h.9a2.5 2.5 0 0 1 .6 0c.2.1.4.3.4.5a.5.5 0 0 1-.4.5 4.4 4.4 0 0 1-1 0H.5c-.4 0-.6.2-.6.3a.3.3 0 0 0 0 .1.6.6 0 0 0 0 .2c.1.3.3.6.2.8h11.3a4.4 4.4 0 0 1 0-.7 2.6 2.6 0 0 1 .1-.4 2 2 0 0 1 .3-.4 1.7 1.7 0 0 1 .4 1.5h7v-7.2a1 1 0 0 0-.7.3zm-11.3-.4a.4.4 0 0 1-.4.2c-.7 0-.9.4-1.1.9-.4-.1-.3-.7-.6-.7a2.9 2.9 0 0 1-.6-.2 1 1 0 0 1-.3-.2.4.4 0 0 1-.2-.2.6.6 0 0 1 0-.2 2.5 2.5 0 0 1 .5-.7 4.8 4.8 0 0 0 .3-.4c.5-.8.1-2 1-3a8.4 8.4 0 0 0 1.4 4.1.3.3 0 0 1 0 .4zm0-4.2a2 2 0 0 1-.5 0c-.5-.1-.7-.4-.6-1h-.8v.5a.2.2 0 0 1 0 .2h-.2a.5.5 0 0 1-.2 0 3.4 3.4 0 0 1-.4 0h-.7a1.4 1.4 0 0 1-.4 0 1 1 0 0 1-.4-.2c-.1 0-.2 0-.1-.1a.3.3 0 0 1 .1-.2 2.4 2.4 0 0 1 .4-.1 2.1 2.1 0 0 1 .4-.1h1.5a4.8 4.8 0 0 1-.2-.6 3 3 0 0 1 0-.6 2.1 2.1 0 0 1 .2-.6 2.7 2.7 0 0 1 .3-.7 1.5 1.5 0 0 1 .2.3 2.1 2.1 0 0 1 .1.3l.1.3a1.4 1.4 0 0 1 0 .3v1.1h.8c.5 0 1.3 0 1.4.6s-.6.5-1 .6zm7.2 10a1.5 1.5 0 0 1-.5 0h-1.5a.6.6 0 0 1 0-.2v-.1a.9.9 0 0 1 0-.2v-.4h-.8a.3.3 0 0 0 0 .1v.4a.4.4 0 0 0 0 .1.2.2 0 0 1 0 .1l-.2.1h-.2a3.1 3.1 0 0 1-.4 0h-.4a1.7 1.7 0 0 1-.8-.2.4.4 0 0 1-.2-.2v-.3a3.2 3.2 0 0 1 .4-.1 1.7 1.7 0 0 1 .5-.2h1.5v-.5c0-.2 0 0 0 0a1 1 0 0 1 0-.2.5.5 0 0 1 0-.2v-.3a1.1 1.1 0 0 0 0-.2v-.3a1.6 1.6 0 0 1 .1-.3.5.5 0 0 1 .1 0 1.4 1.4 0 0 1 .2-.4 2.6 2.6 0 0 1 .2.3v.1l.2.2v.8a.9.9 0 0 1 0 .1.8.8 0 0 1 0 .2.9.9 0 0 1 0 .1.8.8 0 0 1 0 .2.9.9 0 0 1 0 .1.8.8 0 0 1 0 .2v.1h1.2a1.5 1.5 0 0 1 .4.1.6.6 0 0 1 .5.4.3.3 0 0 1-.2.6zm-.6-20a2.6 2.6 0 0 1-.7 0h-.9a6.8 6.8 0 0 0 0 .7 3.9 3.9 0 0 0 .7 2.4l.3.5a.8.8 0 0 1 .2.6c0 .2-.2.3-.4.3a2.7 2.7 0 0 1-.5.1.3.3 0 0 0-.2.1 2 2 0 0 0-.3.5.4.4 0 0 1-.1.2.3.3 0 0 1-.2-.2 1.2 1.2 0 0 1-.2-.3.1.1 0 0 0 0-.1c-2.2-.4-.8-1.4-.4-2.2a7 7 0 0 0 .4-2.5h-1a2.6 2.6 0 0 1-1-.1A2 2 0 0 1 9 43l.4-.3a3.5 3.5 0 0 0 1 0 1.7 1.7 0 0 0 .7-.4 1.8 1.8 0 0 0 .5-1.6.4.4 0 0 1 .4-.5.2.2 0 0 1 .1 0 .4.4 0 0 1 .2.2.5.5 0 0 1 0 .2l.1 1v.9c.8 0 1.7-.2 2.4.5a1.7 1.7 0 0 1-1 .5zm1.5 9.5a.2.2 0 0 1 0-.2l.3-.2a1.6 1.6 0 0 1 .6-.1h1.4v-.1a1.4 1.4 0 0 1 0-.2v-.3a.7.7 0 0 0 0-.2V51a1 1 0 0 0 0-.2.5.5 0 0 1 0-.1 1.6 1.6 0 0 1 .1-.2 1 1 0 0 0 0-.1 2.4 2.4 0 0 1 .2-.3l.3.5c.1.2 0 .1 0 .2l.2.2v.4a1.5 1.5 0 0 1 0 .2.5.5 0 0 1 0 .1 1.4 1.4 0 0 1 0 .2.7.7 0 0 1-.1.2l-.1.1-.2.1-.3.1h-.1v.5a.4.4 0 0 1 0 .2l-.2.1a.6.6 0 0 1-.2 0 2.3 2.3 0 0 1-1.7-.2.5.5 0 0 1-.2 0z"/><polygon fill="#ececec" points="12.36 62.63 12.36 62.63 12.36 62.63 12.36 62.63"/><path fill="#ececec" d="M12.4 65.2c2.3.3 4.6 0 7 .1v-.2h-7zM.2 65a102.3 102.3 0 0 0 11.4 0zm18.3-10.9.1 1.3-.1-1.3zm-.8 0v.6a3.1 3.1 0 0 1 0 .4 3.1 3.1 0 0 0 0-.4v-.6zm.5-.8a2 2 0 0 1 .3.8 2 2 0 0 0-.3-.8zm.4 4.7a1 1 0 0 1 .7-.2 1 1 0 0 0-.7.2zM1 62.7zm1.4.4a.5.5 0 0 1-.4.5.5.5 0 0 0 .3-.5c0-.2-.1-.3-.4-.4.3 0 .5.2.5.4zm9.3-14.4a1.2 1.2 0 0 1-.1-.3 1.2 1.2 0 0 0 .1.4zm.6-4.3zM13 48c.3 0 .4-.2.4-.3 0 .2-.1.3-.4.3zm-1 .9a.4.4 0 0 0 .1-.2.4.4 0 0 1-.2.2zM.4 46.5a3.3 3.3 0 0 0 .3.4 3.3 3.3 0 0 1-.3-.4zm-.3-.8v.2zm.8 1.4a1 1 0 0 1 .3.6A1 1 0 0 0 1 47zm-.7-1a2.1 2.1 0 0 0 .2.3 2.1 2.1 0 0 1-.2-.3zM0 48.3a.4.4 0 0 1 .4-.2c.4 0 .7-.1.8-.3-.1.2-.4.3-.8.3a.4.4 0 0 0-.4.2zm0-3.4a.9.9 0 0 0 0 .1.9.9 0 0 1 0-.1zm0 .4.1.2zm5.2 12.8a2.9 2.9 0 0 1-.6-.2 2.9 2.9 0 0 0 .6.2zm-1-.4a.4.4 0 0 1 0-.2.4.4 0 0 0 0 .2zm7.9-17.4a.4.4 0 0 1 .1.3.4.4 0 0 0-.1-.3zm1.8 3.3a2.6 2.6 0 0 1-.6 0 2.6 2.6 0 0 0 .6 0zm-2.4 19.8zm-.9.3zm.8-.2zm.1-.9z"/><polygon fill="#ececec" points="11.53 62.63 11.53 62.63 11.53 62.63 11.53 62.63"/><path fill="#ececec" d="M11.5 62.7zm-1.4 0zm1.4.1zm0 .4zm-.2.4zm1.6 0h-.2zm-.5-1zm0 .4zm1.6.6h-.3zm-1.3 0-.1-.1zm-.2-.1a.6.6 0 0 1 0-.2.6.6 0 0 0 0 .2zm-.2-.8zm.1.5a.9.9 0 0 1 0-.2.9.9 0 0 0 0 .2zm.7.5H13zm.3 0zm.2-1zm1 .8a1.5 1.5 0 0 1-.6.1 1.5 1.5 0 0 0 .5 0zm-8.4-11zm1.1 1a2 2 0 0 1-.5 0 2 2 0 0 0 .5 0zm-1.1-1c-.1.6.1 1 .6 1-.5 0-.7-.4-.6-1zm0 0zm11.5.5zm-.1.3zm0-.1zm-.2.2zm.3-1zm-1.4 0zm-1 .6a.2.2 0 0 1 0-.2.2.2 0 0 0 0 .2zm.2-.3h.2zm2.2-.2zm0 0zm-12.5.6zm0-.1zm.1-.4zm0-.1zm0 0zm-1 1zm-.4-1zm1.3.8zm-.2 0zm-5-10zm0-.2zm2.3-.1a.3.3 0 0 1 0 .2.3.3 0 0 0 0-.2zm-1.3.6zm1.2-.3a.3.3 0 0 0 .2-.2.3.3 0 0 1-.2.2zM0 43zm1.4.6zm-1.4 0zm.3-1h.1zm0 .1zM0 43zm.5-.3zm17 8.4zm0 .4zm.1 1a1.4 1.4 0 0 1 0-.3 1.4 1.4 0 0 0 0 .2zm0-.7v-.2.2zm0 .3v-.2zm0 .4zm.8-1.4v.2-.2zm-.4 1.3h-.3zm.4-.4a.7.7 0 0 1 0 .2.7.7 0 0 0 0-.2zm-.1.2-.2.2zm-.7-1.4zm0 1.7zm.1-2zm.6.1v.2-.2zm.2 1.1a1.4 1.4 0 0 1 0 .2 1.4 1.4 0 0 0 0-.1zm0-.3a1.5 1.5 0 0 1 0 .2 1.5 1.5 0 0 0 0-.2zm-13.1 1zm.7-1.8v.1zm-.2-.3zm-.7.9a2.5 2.5 0 0 1 .2-.6 2.1 2.1 0 0 0-.2.6zm.5-1.2a2.7 2.7 0 0 0-.3.6 3 3 0 0 1 .3-.6zm.5.9a.4.4 0 0 0 0 .1.4.4 0 0 1 0-.1zm0 1.5zm0-1.2v.1c0 .1 0 0 0 0z"/><polygon fill="#ececec" points="6.15 52.44 6.15 52.44 6.15 52.44 6.15 52.44"/><path fill="#ececec" d="M5.2 51.8a4.8 4.8 0 0 0 .2.6 4.8 4.8 0 0 1-.2-.6zm0 0a3 3 0 0 1 0-.6 3 3 0 0 0 0 .6zm1-.3zm0 1zm6.2 9.2a.8.8 0 0 1 0 .2.8.8 0 0 0 0-.2zm0-.3zm0 .6a.8.8 0 0 1 0 .1.8.8 0 0 0 0-.1zm0 .6zm-.9-.5zm.9-1v.1zm-1 .5zm1 .7a.8.8 0 0 1 0 .2.8.8 0 0 0 0-.2zm-1-.4a.5.5 0 0 1 0-.2.5.5 0 0 0 0 .1zm.4.7zm.4-2zm-.5 0zm-.1 2zm.7-1.8v.1zm-.7.1z"/><polygon fill="#ececec" points="12.36 62.63 12.36 62.63 12.36 62.63 12.36 62.63 12.36 62.63"/><path fill="#ececec" d="M11.5 61.2zm0 1.3a.3.3 0 0 1 0 .1zm0 2a4.4 4.4 0 0 0 0 .6 4.4 4.4 0 0 1 0-.7zm0 .6zm.8-21.5zm0 0zm-.8 0zm0 0zm.9 0z"/><polygon fill="#ececec" points="12.37 43.55 12.37 43.55 12.37 43.55 12.37 43.55"/><polygon fill="#ececec" points="12.34 43.53 12.37 43.55 12.37 43.55 12.37 43.55 12.34 43.53 12.34 43.53"/><path fill="#ececec" d="M5.4 52.4zm0 0zm0 0z"/><polygon fill="#ececec" points="5.34 52.44 5.34 52.44 5.35 52.44 5.35 52.44 5.34 52.44"/><path fill="#ececec" d="M5.3 52.4z"/><polygon fill="#ececec" points="5.38 52.41 5.38 52.41 5.38 52.41 5.38 52.41 5.38 52.41"/><path fill="#ececec" d="M5.3 52.4z"/><polygon fill="#ececec" points="5.36 52.41 5.38 52.44 5.36 52.41 5.36 52.41"/><path fill="#ececec" d="M12.4 62.6z"/><polygon fill="#ececec" points="12.36 62.63 12.34 62.66 12.34 62.66 12.36 62.63 12.36 62.63"/><path fill="#ececec" d="M12.4 62.6zm0 0zm-.8 0zm0 0zm0 0z"/><polygon fill="#ececec" points="11.52 62.65 11.52 62.66 11.52 62.66 11.53 62.65 11.52 62.65"/><path fill="#ececec" d="M11.5 62.6zm0 0z"/><path d="M18.4 35h-1c.2.1.1.5-.2 1.1-.4.8-1.8 1.7.3 2.2l.5.8c.2-.9.6-1.2 1.3-1v-1a7.5 7.5 0 0 1-.8-1.3 1 1 0 0 1 0-.9z"/><path fill="#ececec" d="M18.4 35a1 1 0 0 0 .1.8 7.5 7.5 0 0 0 .8 1.2v-2h-.9z"/><path d="M5.2 35a4 4 0 0 1-.2.9 2.3 2.3 0 0 0 .3 2.6c.1.1 0 .3.3.3.4-.1.3-.8 1-.8.8 0 .7-.5.3-1l-.2-.2a4.8 4.8 0 0 1-.4-.9 3.2 3.2 0 0 1-.3-1z"/><path d="M6.3 36a3.2 3.2 0 0 1-.3-1 3.2 3.2 0 0 0 .3 1zm0 0a4.8 4.8 0 0 0 .4.7 4.8 4.8 0 0 1-.4-.8z"/><polygon fill="#ca0302" points="19.6 13.41 19.6 1.34 7.65 13.41 19.6 13.41"/><polygon fill="#ca0302" points="19.74 13.41 19.74 1.2 19.6 1.34 19.6 13.41 19.74 13.41"/><polygon fill="#ca0302" points="19.6 21.48 7.65 21.48 19.6 33.56 19.6 21.48"/><polygon fill="#ca0302" points="19.6 33.56 19.74 33.7 19.74 21.48 19.6 21.48 19.6 33.56"/><polygon fill="#ca0302" points="14.48 0 4.43 0 4.43 10.16 14.48 0"/><path fill="#ca0302" d="M6 34.8a34 34 0 0 1 5.2-.1h3l-9.8-10V35h.7v-.1z"/><path fill="#ca0302" d="M6 34.8a34 34 0 0 1 5.2-.1 34 34 0 0 0-5.2.1z"/><path fill="#ca0302" d="M12.9 34.6h-1.7a34 34 0 0 0-5.2.2v.1h8.5l-.3-.3zm0 0h1.3H13zm-1.3.1h1.3-1.3zm-5.6.1h-.8v.1H6v-.1zm0 0v.1-.1z"/><polygon fill="#00b050" points="4.43 13.41 7.65 13.41 19.6 1.34 19.6 0 14.48 0 4.43 10.16 4.43 13.41"/><polygon fill="#00b050" points="19.6 1.34 19.74 1.2 19.74 0 19.6 0 19.6 1.34"/><path fill="#00b050" d="M7.7 21.5H4.4v3.2l9.8 10h2.1c.6 0 1 0 1 .2h1c.2-.2.5-.3 1-.2v.2h.3v-1.3z"/><polygon fill="#00b050" points="19.6 34.94 19.74 34.94 19.74 33.7 19.6 33.56 19.6 34.94"/><path fill="#00b050" d="m14.2 34.6.3.3h2.9l-1-.2zm2.1 0h-2zm2.1.3h1v-.2c-.6 0-.9 0-1 .2z"/><polygon fill="#ececec" points="4.43 24.74 4.43 21.48 7.65 21.48 19.6 21.48 19.6 13.41 7.65 13.41 4.43 13.41 4.43 10.16 4.43 0 -0.07 0 -0.07 34.94 4.43 34.94 4.43 24.74"/><rect width="0.13" height="8.07" x="19.6" y="13.42" fill="#ececec"/></g></svg>