<svg xmlns="http://www.w3.org/2000/svg" width="512" height="512" fill="none"><path fill="#026" d="M512 256a256 256 0 1 1-512 0L256 0a256 256 0 0 1 256 256Z"/><path fill="#026" d="M256 0v256H0A256 256 0 0 1 256 0Z"/><path fill="#EEE" d="M217.6 256H256v-38.4L140.7 102.3H256V0A256 256 0 0 0 0 256h102.3V140.7L217.6 256Z"/><path fill="#D80027" d="M256 76.6V25.4H144.7A257 257 0 0 0 25.4 144.7V256h51.2V76.6H256Z"/><path fill="#D80027" d="M256 230.4V256L102.2 102.2H128l128 128.2Z"/><path fill="#ACABB1" d="M417.4 183.6 384 194.8l-33.4-11.2-11.1-27.8 11.1-27.8h66.8l-11.1 27.8 11.1 27.8Z"/><path fill="#338AF3" d="M306 183.6v122.5c0 59.6 78 78 78 78s78-18.4 78-78V183.6H306Z"/><path fill="#6DA544" d="M313.1 335.1c19.2 36.8 71 49 71 49s51.7-12.2 70.8-49l-70.9-118-70.9 118Z"/><path fill="#FFDA44" d="m462 304.9-78-121.3L306 305v1.2a62 62 0 0 0 7.1 29l71-110.3 70.8 110.3a62 62 0 0 0 7-29V305Z"/></svg>