<svg xmlns="http://www.w3.org/2000/svg" width="512" height="512" fill="none"><g clip-path="url(#a)"><path fill="#0052B4" fill-rule="evenodd" d="M190.6 503.6a256.1 256.1 0 0 1 0-495.2l40 247.6-40 247.6Z" clip-rule="evenodd"/><path fill="#EEE" fill-rule="evenodd" d="M256 512A256 256 0 1 0 189.2 8.8v494.4c21.3 5.7 43.7 8.8 66.8 8.8Z" clip-rule="evenodd"/><path fill="#D80027" d="M91.8 89v41.8a37.6 37.6 0 1 0 75.2 0V89H91.8Z"/><path fill="#EEE" d="M129.4 146c-8.4 0-15.3-6.8-15.3-15.2v-19.5h30.6v19.5c0 8.4-6.9 15.3-15.3 15.3v-.1Z"/><path fill="#FFC635" d="M278.3 267.1h-66.8a22.3 22.3 0 0 0-44.5 0h-66.8a23 23 0 0 0 23 22.3h-.8c0 12.3 10 22.3 22.3 22.3 0 12.2 10 22.2 22.3 22.2h44.5c12.3 0 22.2-10 22.2-22.2 12.3 0 22.3-10 22.3-22.3h-.7a23 23 0 0 0 23-22.3Zm9.1-35.6-5.8 9.4 7 8.4-10.6-2.7-5.9 9.4-.8-11-10.7-2.7 10.3-4.1-.8-11 7 8.4 10.3-4.1Zm-34-28.6-2.4 10.8 9.6 5.5-11 1.2-2.3 10.7-4.5-10-11 1.1 8.2-7.4-4.4-10 9.5 5.5 8.3-7.4Zm-42-15.2 1.6 10.9 10.9 2-10 4.7 1.6 11-7.7-8-9.9 4.9 5.2-9.8-7.7-8 10.9 2 5.1-9.7Zm-44.4 0 5.1 9.7 10.9-2-7.7 8 5.2 9.8-9.9-4.9-7.7 8 1.6-11-10-4.8 11-2 1.5-10.8Zm-42 15.2 8.2 7.4 9.6-5.5-4.5 10 8.2 7.4-11-1.1-4.5 10-2.3-10.7-11-1.2 9.6-5.5-2.3-10.8Zm-34 28.6 10.2 4.1 7-8.4-.7 11 10.2 4.1L107 245l-.8 11-5.8-9.4-10.7 2.7 7-8.4-5.7-9.4Z"/></g><defs><clipPath id="a"><path fill="#fff" d="M0 0h512v512H0z"/></clipPath></defs></svg>