<svg xmlns="http://www.w3.org/2000/svg" viewBox="0 0 512 512"><path d="M367.304 25.402C333.648 9.128 295.891 0 256 0s-77.648 9.128-111.304 25.402L122.435 256l22.261 230.598C178.352 502.872 216.109 512 256 512s77.648-9.128 111.304-25.402L389.565 256 367.304 25.402z" fill="#ffda44"/><g fill="#0052b4"><path d="M144.696 25.411C59.065 66.818 0 154.507 0 256s59.065 189.182 144.696 230.589V25.411zM367.304 25.411v461.178C452.934 445.182 512 357.493 512 256S452.934 66.818 367.304 25.411z"/></g><path fill="#d80027" d="M328.348 278.261l16.695 22.261v-89.044l-16.695 22.261h-50.087v-50.087l22.261-16.695h-89.044l22.261 16.695v50.087h-50.087l-16.695-22.261v89.044l16.695-22.261h50.087v50.087l-22.261 16.695h89.044l-22.261-16.695v-50.087z"/><path fill="#f0f0f0" d="M322.783 244.87H267.13v-55.653h-22.26v55.653h-55.653v22.26h55.653v55.653h22.26V267.13h55.653z"/></svg>