<svg xmlns="http://www.w3.org/2000/svg" width="512" height="512" fill="none"><path fill="#D80027" d="M376 29.8A254.9 254.9 0 0 0 256 0c-43.4 0-84.2 10.8-120 29.8v452.4c35.8 19 76.6 29.8 120 29.8 43.4 0 84.2-10.8 120-29.8V29.8Z"/><path fill="#D80027" d="M344 15.5a256.1 256.1 0 0 1 0 481v-481Z"/><path fill="#496E2D" d="M168 15.5v481a256.1 256.1 0 0 1 0-481Z"/><path fill="#FFDA44" d="M167 345a89 89 0 1 0 0-178 89 89 0 0 0 0 178Z"/><path fill="#D80027" d="M116.9 211.5V267a50 50 0 1 0 100.1 0v-55.6H117Z"/><path fill="#EEE" d="M167 283.8c-9.2 0-16.7-7.5-16.7-16.7V245h33.4v22c0 9.2-7.5 16.7-16.7 16.7Z"/></svg>