<svg xmlns="http://www.w3.org/2000/svg" width="512" height="512" fill="none"><path fill="#EEE" d="M477.8 384A254.8 254.8 0 0 0 512 256c0-46.6-12.5-90.3-34.2-128H34.2A254.8 254.8 0 0 0 0 256c0 46.6 12.5 90.3 34.2 128h443.6Z"/><path fill="#0052B4" d="M256 512A256 256 0 0 1 25.6 368h460.6A256 256 0 0 1 256 512h-.1Z"/><path fill="#D80027" d="M256 0A256 256 0 0 0 25.7 144h460.6A256 256 0 0 0 256 0Z"/><path fill="#6DA544" fill-rule="evenodd" d="M343.3 225.6A89 89 0 0 0 319 180l-25.2 25.2a53.4 53.4 0 1 1-75.6 0L193 180a89 89 0 1 0 150.3 45.6Z" clip-rule="evenodd"/><path fill="#FFC635" d="m256 206 8.3 25.6H291l-21.7 15.7 8.3 25.5-21.7-15.7-21.7 15.7 8.3-25.5-21.7-15.7h26.8L256 206Z"/></svg>