<svg xmlns="http://www.w3.org/2000/svg" width="512" height="512" fill="none"><g clip-path="url(#a)"><path fill="#4A1F63" fill-rule="evenodd" d="M455.9 416c-47 58.5-119 96-199.9 96-80.8 0-153-37.5-199.9-96H456Z" clip-rule="evenodd"/><path fill="#0052B4" fill-rule="evenodd" d="M77 439a256.2 256.2 0 0 1-61.8-96h481.6a256.2 256.2 0 0 1-61.8 96H77Z" clip-rule="evenodd"/><path fill="#338AF3" fill-rule="evenodd" d="M24.8 366A254.6 254.6 0 0 1 .4 270h511.2a254.6 254.6 0 0 1-24.4 96H24.8Z" clip-rule="evenodd"/><path fill="#496E2D" fill-rule="evenodd" d="M509.3 293a258.1 258.1 0 0 0 0-74H2.7a258.1 258.1 0 0 0 0 74h506.6Z" clip-rule="evenodd"/><path fill="#FFDA44" fill-rule="evenodd" d="M509.3 219H2.7c5-34.7 17-67.2 34.5-96h437.6a254.4 254.4 0 0 1 34.5 96Z" clip-rule="evenodd"/><path fill="#FF9811" fill-rule="evenodd" d="M408 50a257 257 0 0 1 79.2 96H24.8A257 257 0 0 1 104 50h304Z" clip-rule="evenodd"/><path fill="#D80027" fill-rule="evenodd" d="M77 73A255.2 255.2 0 0 1 256 0c69.7 0 132.9 27.8 179 73H77Z" clip-rule="evenodd"/><circle cx="256" cy="256" r="112" fill="#85693D"/><path fill="#FFC635" fill-rule="evenodd" d="M360 256a104 104 0 1 1-208 0 104 104 0 0 1 208 0Zm-40 0a64 64 0 1 1-128 0 64 64 0 0 1 128 0Zm-64 56a56 56 0 1 0 0-112 56 56 0 0 0 0 112Z" clip-rule="evenodd"/><path fill="#85693D" fill-rule="evenodd" d="M212 232a16 16 0 1 1 32 0 16 16 0 0 1-32 0Zm16-8a8 8 0 1 0 0 16 8 8 0 0 0 0-16Zm40 8a16 16 0 1 1 32 0 16 16 0 0 1-32 0Zm16-8a8 8 0 1 0 0 16 8 8 0 0 0 0-16Zm-60 40h64a16 16 0 1 1 0 32h-64a16 16 0 1 1 0-32Zm0 8h2v6h12v-6h4v6h12v-6h-30Zm-7.7 6a8 8 0 0 1 5.7-5.7v5.7h-5.7Zm-.3 2Zm6 7.7a8 8 0 0 1-5.7-5.7h5.7v5.7Zm16 .3h-12v-6h12v6Zm16 0h-12v-6h12v6Zm16 0h-12v-6h12v6Zm16 0h-12v-6h12v6Zm9.7-6a8 8 0 0 1-5.7 5.7V282h5.7Zm-5.7-9.7c2.8.7 5 2.9 5.7 5.7H290v-5.7Zm-19.7-.3H286v6h-12v-6h-3.7Zm-16.3 0h16v6h-12v-6h-4Z" clip-rule="evenodd"/></g><defs><clipPath id="a"><path fill="#fff" d="M0 0h512v512H0z"/></clipPath></defs></svg>