<svg xmlns="http://www.w3.org/2000/svg" width="512" height="512" fill="none"><g fill-rule="evenodd" clip-path="url(#a)" clip-rule="evenodd"><path fill="#4A1F63" d="M440.9 433.1A255.3 255.3 0 0 1 256 512a255.3 255.3 0 0 1-184.9-78.9L256 410l184.9 23.1Z"/><path fill="#0052B4" d="M80.1 442a256.8 256.8 0 0 1-54-73.3L256 340l229.9 28.7a256.8 256.8 0 0 1-54 73.3H80.1Z"/><path fill="#D80027" d="M440.9 78.9 256 102 71.1 78.9A255.3 255.3 0 0 1 256 0c72.7 0 138.3 30.3 184.9 78.9Z"/><path fill="#FFDA44" d="M485.9 143.3 256 172 26.1 143.3c13.5-27.6 32-52.4 54-73.3h351.8c22 20.9 40.5 45.7 54 73.3Z"/><path fill="#EEE" d="M508.7 214.8 480 256l28.7 41.2a254.2 254.2 0 0 1-24.4 74.8H27.7a254.2 254.2 0 0 1-24.4-74.8L32 256 3.3 214.8A254.2 254.2 0 0 1 27.7 140h456.6a254.2 254.2 0 0 1 24.4 74.8Z"/><path fill="#496E2D" d="M507.9 302a257.5 257.5 0 0 0 0-92H4a257.5 257.5 0 0 0 0 92h504Z"/></g><defs><clipPath id="a"><path fill="#fff" d="M0 0h512v512H0z"/></clipPath></defs></svg>