<svg xmlns="http://www.w3.org/2000/svg" width="512" height="512" fill="none"><g clip-path="url(#a)"><circle cx="256" cy="256" r="256" fill="#0052B4"/><path fill="#D80027" d="M245.6 512a255.2 255.2 0 0 1-170.7-74.9L256 256l181.1 181.1A255.2 255.2 0 0 1 266.4 512h-20.8Z"/><path fill="#FFDA44" fill-rule="evenodd" d="M510 287.8a258.6 258.6 0 0 0 0-63.6L256 256l204.8-153.6a257.5 257.5 0 0 0-51.2-51.2L256 256 287.8 2a258.5 258.5 0 0 0-63.6 0L256 256 102.4 51.2a257.5 257.5 0 0 0-51.2 51.2L256 256 2 224.2a258.5 258.5 0 0 0 0 63.6L256 256l254 31.8Z" clip-rule="evenodd"/></g><defs><clipPath id="a"><path fill="#fff" d="M0 0h512v512H0z"/></clipPath></defs></svg>