<svg xmlns="http://www.w3.org/2000/svg" viewBox="0 0 512 512"><path d="M345.043 15.922C317.309 5.633 287.314 0 256 0c-31.314-.001-61.31 5.633-89.043 15.922l-22.261 240.077 22.261 240.077C194.689 506.368 224.685 512 256 512c31.313 0 61.31-5.632 89.043-15.924L367.303 256l-22.26-240.078z" fill="#ffda44"/><path d="M512 256c0-110.07-69.472-203.907-166.957-240.077v480.156C442.528 459.905 511.999 366.072 512 256z" fill="#d80027"/><path d="M0 255.999c0 110.073 69.472 203.906 166.955 240.079l.001-480.154C69.472 52.094 0 145.928 0 255.999z" fill="#0052b4"/></svg>