<svg xmlns="http://www.w3.org/2000/svg" width="512" height="512" fill="none"><path fill="#0052B4" d="M29.8 136A254.9 254.9 0 0 0 0 256c0 43.4 10.8 84.2 29.8 120h452.4c19-35.8 29.8-76.6 29.8-120 0-43.4-10.8-84.2-29.8-120H29.8Z"/><path fill="#D80027" d="M15.5 168a256.1 256.1 0 0 1 481 0h-481Z"/><path fill="#EEE" d="M15.5 344h481a256.1 256.1 0 0 1-481 0Z"/><path fill="#D80027" d="M66.2 144.7v127.7c0 72.6 94.9 95 94.9 95s94.9-22.4 94.9-95V144.7H66.2Z"/><path fill="#FFC635" d="M105.4 167h111.4v-44.6l-22.3 11.2-33.4-33.4-33.4 33.4-22.3-11.2V167Zm128.3 123.2-72.3-72.4L89 290.2l23.7 23.6 48.7-48.7 48.7 48.7 23.6-23.6Z"/><path fill="#EEE" d="M233.7 222.6H200a22.3 22.3 0 1 0-39-21.6 22.3 22.3 0 1 0-38.9 21.6H89a23 23 0 0 0 23 22.3h-.7c0 12.3 10 22.2 22.3 22.2 0 11 7.8 20 18.1 21.9l-17.5 39.6a72.1 72.1 0 0 0 54.4 0L171.1 289c10.3-2 18.1-11 18.1-21.9 12.3 0 22.3-10 22.3-22.2h-.8a23 23 0 0 0 23-22.3Z"/></svg>