<svg xmlns="http://www.w3.org/2000/svg" width="512" height="512" fill="none"><g clip-path="url(#a)"><path fill="#EEE" d="M482.2 376c19-35.8 29.8-76.6 29.8-120 0-43.4-10.8-84.2-29.8-120H29.8A254.9 254.9 0 0 0 0 256c0 43.4 10.8 84.2 29.8 120h452.4Z"/><path fill="#496E2D" d="M496.5 344a256.1 256.1 0 0 1-481 0h481Z"/><path fill="#338AF3" d="M496.5 168h-481a256.1 256.1 0 0 1 481 0Z"/><path fill="#FFC635" d="M260 267.3a12 12 0 0 0 7.3-7.3h21.8a8 8 0 1 0 0-8h-18.2l15.7-9a8 8 0 1 0-4-7l-15.7 9 9.1-15.6a8 8 0 1 0-7-4l-9 15.7v-18.2a8 8 0 1 0-8 0v18.2l-9-15.7a8 8 0 1 0-7 4l9 15.7-15.6-9.1a8 8 0 1 0-4 7l15.7 9h-18.2a8 8 0 1 0 0 8h21.8a12 12 0 0 0 7.3 7.3V296h8v-28.7Z"/><path fill="#FFC635" fill-rule="evenodd" d="M324 256a68 68 0 1 1-136 0 68 68 0 0 1 136 0Zm-8 0a60 60 0 1 1-120 0 60 60 0 0 1 120 0Z" clip-rule="evenodd"/></g><defs><clipPath id="a"><path fill="#fff" d="M0 0h512v512H0z"/></clipPath></defs></svg>