<svg xmlns="http://www.w3.org/2000/svg" width="512" height="512" fill="none"><g clip-path="url(#a)"><circle cx="256" cy="256" r="256" fill="#FFDA44"/><path fill="#A2001D" fill-rule="evenodd" d="M455.9 416c-47 58.5-119 96-199.9 96-80.8 0-153-37.5-199.9-96H456Zm-406-8.2c-3-4-6-8.2-8.7-12.4H229l12.5 12.4H49.9Zm420.9-12.4c-2.8 4.2-5.7 8.4-8.7 12.4H270.5l12.5-12.4h187.8Z" clip-rule="evenodd"/><path fill="#A2001D" fill-rule="evenodd" d="M279.5 29.2 256 52.7l-23.5-23.5v23.5H209l23.5 23.5L209 99.7h23.5v23.6L256 99.7l23.5 23.6V99.7H303l-23.5-23.5L303 52.7h-23.5V29.2Zm-38.7 20V61H229l15.2 15.2-15.1 15.2h11.7v11.8L256 88l15.2 15.2V91.4h11.7l-15.1-15.2L282.9 61h-11.7V49.3L256 64.5l-15.2-15.2Zm-105.3 53.5L159 79.2v23.5h23.5L159 126.2l23.5 23.6H159v23.5l-23.5-23.6-23.5 23.6v-23.6H88.5l23.5-23.5-23.5-23.5H112V79.2l23.5 23.5Zm-15.2 8.3V99.3l15.2 15.2 15.2-15.2V111h11.8l-15.2 15.2 15.2 15.2h-11.8v11.8L135.5 138l-15.2 15.2v-11.8h-11.7l15.2-15.2-15.2-15.2h11.7ZM400 79.2l-23.5 23.5L353 79.2v23.5h-23.5l23.5 23.5-23.5 23.5H353v23.6l23.5-23.6 23.5 23.6v-23.5h23.5L400 126.2l23.5-23.5H400V79.2Zm-38.7 20V111h-11.8l15.2 15.2-15.2 15.2h11.8v11.8l15.2-15.2 15.2 15.2v-11.8h11.7l-15.2-15.2 15.2-15.2h-11.7V99.3l-15.2 15.2-15.2-15.2ZM249.8 234.7v188h12.4v-188l67.3-67.2V144l-35.3-35.3-29.4 29.4v23.5l20.6 20.6 23.5-23.5-14.7-14.7-8.8 8.8 5.9 5.9-6 5.8-11.7-11.7 20.6-20.6 26.4 26.5-64.6 64.6-64.6-64.6 26.4-26.5 20.6 20.6-11.8 11.8-5.9-6 6-5.8-8.9-8.8-14.7 14.7 23.5 23.5 20.6-20.6V138l-29.4-29.4-35.3 35.3v23.5l67.3 67.2Zm-8.3 3.5v17.6L167.8 182l-26.4 26.4L162 229l11.7-11.8-5.9-5.8-5.8 5.8-8.8-8.8 14.6-14.7 23.6 23.5-20.6 20.6h-23.5l-29.4-29.4 35.3-35.2h23.5l64.8 64.8Zm29 0v17.6l73.7-73.6 26.4 26.4-20.6 20.6-11.7-11.8 5.9-5.8 5.8 5.8 8.8-8.8-14.6-14.7-23.6 23.5 20.6 20.6h23.5l29.4-29.4-35.3-35.2h-23.5L270.5 238Zm-29 169.7V267.4l-44.3-44.2-29.4 29.4v23.5l17.7 17.6 26.4-26.4-14.7-14.7-8.8 8.8 5.9 5.9-5.9 5.9-11.7-11.8 20.5-20.5 31.8 31.7v135.2h12.5Zm41.5 0V272.6l31.8-31.7 20.5 20.5-11.7 11.8-5.9-5.9 5.9-5.9-8.8-8.8-14.7 14.7 26.4 26.4 17.7-17.6v-23.5l-29.4-29.4-44.3 44.2v140.4H283Z" clip-rule="evenodd"/></g><defs><clipPath id="a"><path fill="#fff" d="M0 0h512v512H0z"/></clipPath></defs></svg>