<svg xmlns="http://www.w3.org/2000/svg" width="512" height="512" fill="none"><path fill="#496E2D" d="M482 376.5a256 256 0 0 1-452 0L256 320l226 56.5Z"/><path fill="#FFDA44" d="M477.8 384A254.8 254.8 0 0 0 512 256l-256-64L0 256c0 46.6 12.5 90.3 34.2 128h443.6Z"/><path fill="#338AF3" d="M471.6 117.9A254.8 254.8 0 0 1 512 256H0c0-50.9 14.8-98.3 40.4-138.1L256 64l215.6 53.9Z"/><path fill="#338AF3" d="M477.8 128H34.2a255.9 255.9 0 0 1 443.6 0Z"/><path fill="#FFDA44" fill-rule="evenodd" d="m384 56 11.2 30.3a43.3 43.3 0 0 0-22.4 0L384 56Zm30.5 41.5a42.7 42.7 0 0 0-19.3-11.2L420 65.6l-5.5 31.9Zm0 0 31.9-5.5-20.7 24.8c-2-7.4-5.9-14-11.2-19.3Zm12.7 30.5c0-3.9-.5-7.6-1.5-11.2L456 128l-30.3 11.2c1-3.6 1.5-7.3 1.5-11.2Zm-12.7 30.5a42.7 42.7 0 0 0 11.2-19.3l20.7 24.8-31.9-5.5Zm0 0 5.5 31.9-24.8-20.7c7.4-2 14-5.9 19.3-11.2ZM384 171.2c3.9 0 7.6-.5 11.2-1.5L384 200l-11.2-30.3c3.6 1 7.3 1.5 11.2 1.5Zm-30.5-12.7a42.7 42.7 0 0 0 19.3 11.2L348 190.4l5.5-31.9Zm-11.2-19.3c2 7.4 5.9 14 11.2 19.3l-31.9 5.5 20.7-24.8Zm-1.5-11.2c0 3.9.5 7.6 1.5 11.2L312 128l30.3-11.2c-1 3.6-1.5 7.3-1.5 11.2Zm12.7-30.5a42.7 42.7 0 0 0-11.2 19.3L321.6 92l31.9 5.5Zm19.3-11.2c-7.4 2-14 5.9-19.3 11.2L348 65.6l24.8 20.7ZM384 164a36 36 0 1 0 0-72 36 36 0 0 0 0 72Z" clip-rule="evenodd"/></svg>