<svg xmlns="http://www.w3.org/2000/svg" width="512" height="512" fill="none"><circle cx="256" cy="256" r="256" fill="#496E2D"/><path fill="#EEE" d="M144.7 306c0 18.5 15 33.5 33.4 33.5h100.2a27.8 27.8 0 0 0 27.8 27.8h33.4a27.8 27.8 0 0 0 27.8-27.8V306H144.7ZM370 144.7v78c0 12.2-9.9 22.2-22.2 22.2v33.4c30.7 0 55.7-25 55.7-55.7v-77.9H370Zm-239.2 77.9c0 12.3-10 22.3-22.3 22.3v33.4c30.7 0 55.7-25 55.7-55.7v-77.9h-33.4v78Z"/><path fill="#EEE" d="M320 144.7h33.4v78H320v-78Zm-50 44.5a5.6 5.6 0 0 1-11.2 0v-44.5h-33.4v44.5a5.6 5.6 0 0 1-11.1 0v-44.5h-33.4v44.5a39 39 0 0 0 61.2 32 38.7 38.7 0 0 0 27.2 6.7 22.3 22.3 0 0 1-21.6 17v33.4c30.6 0 55.6-25 55.6-55.7v-77.9H270v44.5Z"/><path fill="#EEE" d="M180.9 244.9h50v33.4h-50v-33.4Z"/></svg>