<svg xmlns="http://www.w3.org/2000/svg" width="512" height="512" fill="none"><rect width="512" height="512" fill="#496e2d" rx="256"/><path fill="#eee" d="M408.1 142.6c4.1-3 8-6.3 12.6-8.6a26 26 0 0 1-9.3 12.7c-2 1.6-1.1 4.5-1.4 6.8l-3.3-1c1 13.4 2.5 26.7 3.2 40.1 0 1.5.2 3.2 1.5 4.1 6.2 5.6 12.6 11 17 18 1.9 2.8 2.8 6 3.8 9q1.4-7.8.4-15.7-3.4-30.6-6-61.2-.6-3.8-.4-7.6a4.7 4.7 0 0 1 5-4.1q1.8 1.8 2.8 4.3c2 4.2 3.6 8.8 3.1 13.5l-3.4-1.2q2.6 20.7 4.4 41.6c.4 9.3 1.9 18.8-.1 28a34 34 0 0 1-13.5 22.2 61 61 0 0 1-20.9 8q-4.6 1-9 0c3-1.7 6.6-3 9.8-4.3a86 86 0 0 0 13.8-7.2c4-2.7 8.2-5.3 11.2-9.3-3.7-10-10-19.3-18.8-25.5.3 9.8.8 19.8-.7 29.5a10 10 0 0 1-3 6c-1-4-1-8.4-1.5-12.6l-2.3-27.4c0-1.8-1.2-3.3-2.6-4.3q-8.2-7.2-16-14.7c.1 5.7 1 11.2 1.3 16.7.7 7.5.8 15 1.5 22.5.5 5.3.6 10.8-1.4 15.8-2 4.7-6.4 8.8-11.6 9.1q-4.2.3-8.4-.4c-2.9-.5-5.1-2.7-6.5-5.2-1.6-3-2.4-6.4-3.7-9.6-2.5.6-5 1.1-6.8 3-3.7 3.6-4.9 9-6.6 13.6-1 2.8-2.3 5.8-5 7.4s-6.3 1-9-.6a17 17 0 0 1-8-10.9c-1.2-3.4.5-7.3-1.5-10.5-1.5-3-.7-6.4 0-9.5 1.7-5.4 5-10 9-14l-16-13.9c.5 12.9 1.5 25.7-.2 38.5q-.4 4-3 6.8a49 49 0 0 1-1.2-7.4 1598 1598 0 0 1-3.4-42.3q.1-2.6-1.7-4.4a205 205 0 0 1-15.6-16.5c-2.8-3.6-5.7-7.3-7.2-11.5-.6-1.8-1-4.3.7-5.7q3 .5 5.4 2a38 38 0 0 1 8.6 6.8 10 10 0 0 1 2.1 4.2l-4.7-.1q4.8 6.8 11.3 12.3c-.4-12-1.7-24-2.3-36 0-1.6 0-3.3 1.2-4.7q1.7-1.5 4-2.1 4 5.7 5.6 12.6.6 2.7.3 5.6l-3.3-1 2.5 29q0 2.2.5 4.2 1 1.4 2.2 2.3 10 8.5 20.1 16.7l12-10.4q1.6-1.2 2.7-2.5c.7-.8.4-2 .4-2.9q-1.8-17.6-3.3-35c-.2-4.4-.9-8.5-.9-12.7 0-2.5 1.9-5 4.4-5.1 1.1-.1 1.6 1.1 2.2 1.8a39 39 0 0 1 4.1 10.7q.6 2.7 0 5.5l-3.3-1.4q2.1 16.5 3.6 32.9 4.2-3.3 8.3-7 4.6-3.7 9-7.8-5.1-5.5-10.6-10.9c-2.3-2.3-5-4.6-6-7.9-.7-2.3-.2-4.8.2-7 4.3.7 8 3.2 11.3 5.7q3.5 2.7 6.5 5.9l-1.1-14c0-1.7-.2-3.7 1-5.1 1-1.2 2.6-1.6 4-2.2q4 5.5 5.5 12.1.6 3 .5 5.9l-3.5-.8 1.2 10.6 12.9-10.3c1.5-1.5 4.2-2.5 4.2-5 0-2.7-.5-5.5-.1-8.2a5 5 0 0 1 4.9-4c2.2 2.2 3 4.8 4.3 7.2m-23 25.8c-.7.8-2 1.5-2 2.8q1 1.6 2.6 3 8 7.7 16.4 14.6l-1-15.7-1.3-16.6c-5 3.6-9.6 8-14.6 11.9m-13.7-9.8 3.5 4v-4zm-13.2 32.6c-1 .8-2 1.7-2 3 0 6.8.7 13.8-1 20.4-.4 1.7-1.6 2.8-2.8 4-1.5-6.6-1.6-13.3-2.7-19.9q-6 4.9-11.7 10.2c2.2 2.4 4.3 5 5.1 8.3 1.2 4.5-.2 9.8-4 12.8-4.6 3.9-10.8 4.5-16.5 5.2.9 3.7 1.6 7.7 3.9 10.9 1.4 1.9 3.6 3.6 6 3 2.7-.8 4.3-3.3 5.2-5.6 2-4.7 4-9.4 6.8-13.7 2.3-3.5 6-6.5 10.2-6.6 1.5.1 3.3-.3 4.2 1.2 1.9 3.1 2.5 6.9 4.9 9.8 4 5.2 12.3 5.3 17 1 1.6-1.4 1.6-3.8 1.4-5.7-2.2-17.8-3.8-35.7-5.7-53.5q-9.3 7.5-18.3 15.2m-33.1 30.3q-1.4 2.1-2.1 4.8 6.5.6 12.2-2.6c1.1-.7 2.5-1.9 2.2-3.4-.3-3-2.8-5.2-5.1-7q-3.8 3.8-7.2 8.2M148.6 135c1.2-.7 2.2.5 3 1.3 2.2 2.8 4.7 5.6 6 9l-3.5.5c.3 5.3 4.8 9 6.1 14q1.4 5 .4 9.7c-1 4.3-4.5 8-9 8.8a17 17 0 0 1-14.8-4.2c-2.5-2.5-3.5-6.1-4.6-9.3q-1.6 6.8-6.1 12a22 22 0 0 1-6.5 4.7c.7 12 1.9 23.9.9 35.8-.4 3.3-.6 7.4-3.7 9.6-1.1-4.7-1.3-9.6-1.9-14.6l-2.8-29.7c-3-.7-6.1-1.3-8.4-3.4-3.7-3.4-5-8.7-4.7-13.5.1-3.8 1.4-7.4 2.2-11a14 14 0 0 0-3.2 5c-2 5.9-3.3 12.1-6 17.8-1 2.3-3 4.2-5.5 4.7-3 .6-6.5.4-8.9-1.9-2.5-2.5-3-6.2-3.5-9.6-.1-3.5-.4-7.3 1.2-10.5 1-2 2.9-3 4.6-4-1.1 1.9-2.5 3.8-2.7 6q-.4 4.5.7 9c.4 1.8.8 3.8 2.2 5a6 6 0 0 0 7.9-.2q1.4-2 2.2-4.3c1.9-5.8 3.4-11.6 5.7-17.2 2.1-4.6 5.8-9.2 11-10.1-.5 6.3-3.4 12.2-3.6 18.6-.1 2.9.2 6 2 8.2 1.4 1.9 3.8 2.5 6 3.1l-2-26c-.2-3.2-.8-6.5-.2-9.7.5-2.3 2.9-3 4.8-3.8a32 32 0 0 1 6 18l-3.5-.9q1.1 11.2 2.4 22.3c3-1 5.9-2.8 7.7-5.6a22 22 0 0 0 2.4-18.2c-.7-2.6-2-5-2.5-7.7-.6-2.5 1.2-5 3.5-5.8 1-.5 1.5.8 2 1.5 1.3 3 1.8 6.4 2.5 9.7.8 4.4 0 9 1.6 13.1 1.3 3.6 3.6 6.9 7 8.8a14 14 0 0 0 9 1.3 4 4 0 0 0 3.1-3c.8-2.9-.3-5.8-1.5-8.4-2.8-6-6.3-11.5-7.6-18-.5-2.3.2-5.5 2.6-7"/><path fill="#eee" d="M277.6 141.9q2.9-4.6 7.8-7-1.3 3.3-3.4 6.1c-.9 1.5-.9 3.3-1 4.9q3.3-.2 6.4-1c-.6 1.7-1.1 3.5-2.7 4.5-1.8 1.3-4.4 2-6.3.6a7 7 0 0 1-.8-8.1m-116.5-4c1-1.4 2.8-2 4.2-2.6q4.3 5.9 5.8 12.9.6 2.7 0 5.3l-3.1-1 3.8 25.8c5-2.4 9.5-5.3 14.7-7.4q2.4-1.1 5-1.3c-.6 1.4-1.3 2.9-2.8 3.5-5.5 2.8-11 5.2-16.4 8.2l1.5 13c2.5-3.2 4.6-7.1 8.8-8.1.2 2.3-.5 5 1.2 7 2.6 2 6.2.8 8.6-1.1-.2-3.4.8-6.7 1.4-10 1 .4 2.4.6 2.8 1.9 1 3 .8 6.6 0 9.7-.9 3.6-3.8 6.2-7 7.9-2 1-4.4 1.5-6.6.6s-3.6-3-5.1-5c-1.4 3.3-3.5 6.2-3.6 9.9a38 38 0 0 1-8 21 62 62 0 0 1-32.6 20.4c-7.1 2-14.6 3.7-22 3.4q-6.3 0-11.7-3.1c-1.5-1-2.8-2.4-4.3-3.3-2-.3-3.9.2-5.9.2-4.7.2-9.4.4-14-.4 5.7-1.9 11.4-3.3 17-5.4-1.6-10 .4-20.5 5.6-29.2q2.2-3.5 5-6.2c-1.5 3.2-3.5 6.3-4.4 9.9a42 42 0 0 0 .4 22.8q5.8-2 11.3-4.5c8.5-3.8 16.9-7.8 24.7-13 3-2 6-4.1 7.9-7.3 1-1.5.7-3.3.7-5-4 .8-8 2.7-12.2 2.6-2.6-.2-5.4-.7-7.3-2.7s-2-5-1.6-7.6c.6-3.4 2-6.8 4.8-9 3-2.6 7.7-2.5 11.3-1 3.4 1.7 5.4 5 7.1 8.3 5.3-2 8.8-6.6 14-8.9.2 2.7 0 5.8 2 8 1.2 1.5 3.3 1.4 5 1.6q-.6-6.4-1.5-12.7-2.8-21-5.1-42.2c-.1-2-.4-4.2.6-5.9m-32 61c-.6 1 .6 1.6 1.3 2 2.8 1 6 .3 8.8-.2-1.5-1.6-3.2-3.4-5.7-3.5-1.6-.1-3.8 0-4.5 1.7m20.4 5.8a21 21 0 0 1-.7 8.4c-1.5 4.5-5 8.2-8.5 11.2-6.9 5.6-15 9.3-22.8 13.4q-5.2 3-11 5.3c4.8.3 9.6-.5 14.3-.8 7.3-.5 14.2-2.5 20.9-5.2 7-2.9 13.7-6.5 19.2-11.9 3.2-3.2 5.9-7.2 7-11.8q.7-3.3.7-6.8c-2.9-.1-5.9 0-8.4-1.5-2-1.1-3.2-3.4-4.4-5.3a46 46 0 0 1-6.3 5m76.4-67c1-1.2 2.9-1 4-.2 2.8 1.8 4.4 5 4.2 8.3 0 1.5-.7 2.8-1.2 4.2-.4-2-.3-4.2-1.2-6.1-1.4-2-4-2.3-5.7-4-.7-.5-1-1.7-.1-2.2"/><path fill="#eee" d="M264.4 138.7c.2-1.2 1.4-2.6 2.7-1.8 3.7 1.7 6.3 5.1 8 8.8l-3.9-.2q1 3.8 2.4 7.3c1.4 3.4 3.4 6.6 4 10.4.6 4-.2 8.7-3 11.8-5.5 6.1-16.4 5-21.1-1.5-1.8-2.3-2.7-5-3.7-7.7a23 23 0 0 1-10 14.6 17 17 0 0 1-17.9-.6c-3.2-2-5.3-5.6-5.3-9.4-.4-5.5 1.7-10.7 2.5-16a12 12 0 0 0-3.1 4.7c-2.3 6-3.2 12.4-6.4 18a10 10 0 0 1-7.2 5.4c-3.1.1-6.5-1-8.3-3.7q-2.2-3.9-2-8.5.2-6.8 3.2-13c0 5.7-1.7 11.9 1.2 17.1 1.4 3 5.1 4.7 8 3 2.7-1.5 3.9-4.6 4.8-7.3 2-6 4-12 7-17.4a19 19 0 0 1 4.6-6.2c1-.9 2.5-.9 3.8-1.2.3 5-2.5 9.4-3.4 14.2-1 4.2-1.3 9.2 1.7 12.7 3.4 3.7 9 4.5 13.8 3.3 6.4-2 11.1-8.6 11.4-15.4.2-4 .4-8.3-1.8-12-.9-1.8-2.7-3.7-2-6a8 8 0 0 1 4.2-5.2q2.3 3.3 3 7.3c.7 6.1.8 12.5 3 18.4 1.2 3.3 3.2 6.8 6.7 8.4 3.2 1.6 7.1 2 10.2.3 2-1 2.5-3.4 2-5.4-1.3-6.4-5.7-11.5-7.8-17.6-1.1-3.1-2-6.4-1.3-9.6m63.1-1.3c2-.9 4.8-.2 5.7 1.9q.4 1.5-1 2.4-2-.6-3.8-1.5-2.2 4.6-3.4 9.8-1-2.5-2.3-4.8c-1.3-1.7-3.4-2.6-4.9-4.2-.4-1.5 1.2-3 2.7-2.6 2 .6 3.2 2.5 4.5 4.2.5-2 .8-4.1 2.5-5.2m-252.7 7.5c1.6-3.4 4.7-5.9 8-7.5-.8 2.2-2.2 4.1-3.3 6.1-1 1.5-.8 3.3-1 4.9A28 28 0 0 0 85 147c-.6 1.7-1.3 3.6-2.9 4.8-1.7 1.2-4.2 2-6 .7-2-1.8-2.4-5.1-1.3-7.6"/><path fill="#eee" d="M195 140.3c.5-3 5-2.8 6.3-.6 1 1.6 1.5 3.3 2.4 5 .8 1.5 1.9 3.2 1.3 5.1-.8 3-3 5.3-3.3 8.4l3.1-1.5c-.3 1.6 0 3.7-1.7 4.6-2 1-4.6-1-4.4-3.2.3-4 4.2-7.1 3-11.4-4 5.2-9.4 10-16 11 2.9-2.4 6.2-4 8.8-6.7q2.4-2.5 4-5.6c-1.5-1.4-4-2.7-3.5-5m2.7-.2q1 1.5 2.4 2.3-.7-1.8-2.4-2.3m-23.6 2.1c1.4-.3 3.1-.9 4.2.4 3.4 3 5 8 3.9 12.5l-2.2-5c-1.4-3-4.5-4.9-5.9-7.9m-30.2 1.9q2.1 2.3 1.7 5.4L139 151c-1.2.4-2.6-.5-2.8-1.7q0-2 .6-4l1.4 4.1 1.8-.7v-3.6h1.3l.6 3.3 2.1-.3zm190.7 3a20 20 0 0 1 5.7-.8c-1 1-2 2-3.3 2.6-6.5 2.6-13.2 4.5-19.4 7.8l1.7 3.4c-1.5-.3-3.3-.3-4.4-1.6-1-1-1.1-2.8.1-3.7q1.5-1.1 3.4-1.8 8-3.1 16.2-6m-98.1 4.6q1.1-1 2.3-1.5.1 3.5 1.8 6.6c1 2.2.2 5.2-2.3 5.8-2.2.7-4.2-.7-5.7-2-1.2 1.2-2.5 2.6-4.3 2.3-3.3-.2-4.9-4-4.2-6.9.3-1.8 1.8-3 3-4.2-.1 2-.9 4-.4 6 .4 1.3 2 1.3 3.1 1.7l1-6.6c.2-1.1 1.6-1.2 2.4-1.8.2 2 0 3.8.6 5.6.5 1.3 2.1 1.8 3.2 2.4.6-2.6-.5-5-.5-7.4M139 155c1.4 0 3-.3 4.2.9a13 13 0 0 1 3.6 12.4c-1.2-3-2.1-6.2-4.5-8.4-1.5-1.4-3-2.9-3.3-5m194.4 11.2q1-1 2.4-2 .1 3.4 1.7 6.3c.9 2 .9 5-1.4 6s-4.5-.2-6.2-1.5c-1.5 1.1-3.1 2.4-5.1 2-3-.7-4.2-4.1-3.7-6.8.2-2 1.9-3.2 3.2-4.4-.3 2-1.1 4-.6 6.1.5 1.4 2.1 1 3.2 1.4.4-2.4.2-4.8 1.2-7q1-.7 2.3-1.2c.1 2-.3 4.3.8 6.2.6 1.1 2 1.2 3.2 1.6-.1-2.2-.8-4.5-1-6.7m78 3.2c-.5-1.4.7-2.8 2.2-2.8 2.3 0 4 2 5.2 3.8 2 3.8 3 8.5 1.3 12.6-.8-3.7-.7-8.3-4.1-10.7-1.5-1-3.3-1.5-4.5-2.9m-129.6 8c1-1.1 2.7-1.5 4.2-1.1 1.9 1.8 1.5 5 0 6.9a15 15 0 0 1-11.7 5.2c2.8-1.6 5.9-2.5 8.3-4.5 1.1-.8 1-2.3 1.1-3.6l-3.8.6q.6-1.7 1.9-3.5m63 2.8c1-.2 2-.7 2.6.2-.6 2.1-2.9 3-4.7 4q-10 4.6-20 10l-1-1.9q5.9-3.9 12-7c3.8-1.9 7.3-4 11.2-5.3m-127.2 5.3c.2-1.4 1.1-2.3 1.9-3.3a53 53 0 0 1 11.9 19.5c2.3 7 2.8 14.5 4.2 21.7.8 3.7 1.4 7.5 3.9 10.4 1.6 2.1 4 3.3 6.2 4.6.5-2.3 1-4.8 3.2-6.2 6.6-4.3 14.2-7 21.7-9.4l-18.4-.1c-5-.1-10 .3-14.9-.5.2-2 .2-3.9 1.3-5.6 2.3-3.7 6.2-5.9 10-7.8a92 92 0 0 1 17.8-7.3c-1.6-1.7-4-3.5-3.4-6.3 1.1-3.2 4-6.4 7.5-6.3 4 0 7.8 1.6 11.2 3.5 2 1.4 4.6 2.8 5.3 5.3 0 1.8-1 3.4-2 4.8-2.2 2.7-6 2.5-9.3 2.9-.1 2.1-.4 4.7-2.6 5.7l-2-5a48 48 0 0 0-21 10.3c17.4 0 34.6-.4 51.9-.3l3.3.3c-.7 4.6-5.3 6.8-9.4 7.8q-12.2 2.7-24.5 5a72 72 0 0 0-17.8 5.4q-3 1.6-5.2 4.6 6.1 2.1 12.5 3.2c1.4.4 3.4.6 3.8 2.3.5 2.3.6 5.4-1.5 6.8-2.8.6-5.6 0-8.3-.4a28 28 0 0 1-19-11.5 37 37 0 0 1-5.2-16q-3.1 4.6-7 8.5a88 88 0 0 1-25.5 16c-3.2 1.4-7.2 1.8-10.4-.2-2.2-1.3-3-4-4-6.4-8.6 4.4-17.3 8.6-26.8 10.4q-8.7 1.7-17.7 1.8 4.7-2.2 9.4-4 15.6-6.4 30.5-14.3c1.2-.7 2.7-1.3 3.5-2.4 1-2.6 1-5.4 2.5-7.9 1.4-3 4-5.4 6.7-7.1-1.8 3.9-3.7 7.9-4.3 12.2q9.2-5.4 16.8-12.8c1.4-1.4 3.2-3.2 2.5-5.3-1-3-2.6-5.7-3.7-8.7-1.7-4.3-3.7-8.7-3.3-13.5.1-1.5 1.3-2.6 2-3.8a30 30 0 0 1 9.1 11.2l-2.6.6c1.6 4.4 4.2 8.3 5 13 .5 3.5-.3 7.4-2.9 10-6.3 7-14.2 12.1-21.7 17.8 1.4.7 2.8 1.7 4.4 1.6 3-.1 6-1.2 8.9-2.4 10.3-4.5 18.8-12 27.5-19.1a112 112 0 0 0-10-24 16 16 0 0 1-2-9.3m49.9 11a9 9 0 0 0 4.1 3.3c2.5.5 5-1 6.9-2.6a14 14 0 0 0-8.1-3.2c-1.4 0-3 1.1-3 2.5m-179.2-11c.1-1 1-2.3 2.2-2.2 3.2-.3 5.4 2.3 7.4 4.3 1 1 1.9 2.5 1.2 4-.3 1.7-2.3 1.6-3.6 2-2.8.2-4 3.2-6.1 4.5-4.4 3-9.7 5.3-15 4.6 1.3-1.9 3.4-2.7 5.5-3.3 3.8-1.3 7-4 9.7-6.9-.7-2.3-1.6-4.6-1.3-7m1.8.3q.3 2.5 1.4 4.5l1.6-3.8zm4.2 5.8 3.1-.3q-.1-2-1-4c-1.3 1-1.5 2.8-2 4.3"/><path fill="#eee" d="M247.8 186.3q1-1 2.3-1.6c0 3.1 2.3 5.5 2.5 8.6s-3.7 4.7-6.2 3.3l-2-1.7c-1.3 1.1-2.8 2.8-4.7 2.4-3-.6-4.6-4-4-6.9.2-2 1.8-3.2 3.2-4.4-.3 1.9-1 3.7-.7 5.6.2 1.5 1.8 2 2.9 2.5q1-3.2 1.3-6.7c.2-1.3 1.7-1.5 2.5-2 .1 1.8 0 3.7.6 5.5.6 1.3 1.9 2 3 2.6 1-2.4-.6-4.8-.7-7.2M98 197.7c1.6-.7 3.3-1.6 5-1.8 1.8 0 2.6 2.5 1.3 3.6-2 1.5-4.3 2.1-6.6 3.1q-7.8 3.7-15.7 7.7c-1 .7-2.5.5-3.7.4q1-2.5 3.3-3.9 8.1-5 16.4-9m197.6 2.8c.3-1.8 2.4-2 4-2.6.3 2.6.6 5.3 2.2 7.4q-1.3 0-2.5.3a11 11 0 0 1-4.2 4.4 20 20 0 0 1-10 1.4c3.6-1 8-1.3 10.4-4.5 1.6-1.9-.1-4.3 0-6.4m70.9 2.6c.5-1.5 2.2-1.5 3.4-1.3 2.6.5 4.5 2.7 6.2 4.6 1.2 1.1 1.6 3.2.4 4.6-1.6 1.3-4.4.5-5.9 2.3a22 22 0 0 1-18.4 7.8c1.3-1.9 3.5-2.7 5.7-3.3a26 26 0 0 0 9.6-6.9c-.7-2.5-1.8-5.2-1-7.8m1.8 1a21 21 0 0 0 1.1 4.8 20 20 0 0 0 1.7-3.9zm5.4 2q-.8 2-1.3 4l3.1-.4q-.3-2-1-3.7zm-185-.3c1.8-1.7 5-.8 6.2 1.3.5 1.1-.7 2-1.2 3q-1.3-1-2.9-1.6c-1-.3-1.2.8-1.5 1.4q-1.5 4.1-2.5 8.3c-.7-1.7-1.1-3.4-2.2-4.9s-3-2.5-4.4-3.8c-1.3-1 .1-3.4 1.6-3.1 2.2.2 3.5 2.2 5 3.6q.7-2.2 2-4.2M75.8 221.4q2.8-4.5 7.8-7-1.3 3.4-3.3 6.2c-1 1.5-1 3.2-1 4.8q3-.2 6.4-1c-.6 1.8-1.2 3.7-2.8 4.6-1.8 1.2-4.3 2-6.2.6a7 7 0 0 1-.9-8.2m150 13.7c1.6-.3 3.4-1 4.9.2 1.4.9 1.8 3.2.5 4.4-2 1.1-4.5.5-6.2 2 .3 2.3 2 4.2 2.5 6.4 0 1.5-1 2.6-1.7 3.8q-.6-3.6-2-6.6c-.8-1.5-2-2.9-1.6-4.6.4-1.8 2.4-2.7 3.8-3.6zm72 2.8c.8-1.9 2.6-2.8 4.2-3.8-.7 1.5-1.8 3-2 4.8.7 1.3 2 2.3 2.6 3.7.2 2.3-3.2 2.7-4.4 1.2-1.4-1.6-1.2-4-.4-6m-17.4-2.6c2.7-1 5.5 0 7.8 1.3-1.6 3.5-5.6 4.4-8.5 6.5l.2 1.5c2 0 4.2.3 6-.8q3.5-2 7.4-2.9l-6 5.3c-2.5 2-6 2-8.8 1.1-1.4-.4-3.2-1.7-2.7-3.5.7-2.2 3-3.3 4.7-4.7l-3.8-.2c1-1.5 2-3.3 3.7-3.6m68.2 6.3c-1-1-.1-2.8 1.2-3 2.5-.5 4.7 1.6 5.8 3.6a10 10 0 0 1 .2 9.4c-.5-2-.5-4.2-1.5-6-1.4-2-4-2.3-5.7-4M391 243c3.5-1.3 7-2.9 10.7-2.5a7 7 0 0 1-3.5 3q-8.8 3.2-17.4 6.6a30 30 0 0 1-5.7 1.9l-.6-1.6q8-4.3 16.5-7.4m-11.3 114.6h-29v-2.8c1.3-1 3.1-2.6 3.1-3.5 0-1.5-3.6-4.7-4.5-4.7-1 0-4.5 3.2-4.5 4.7 0 1 1.6 2.3 3 3.5v2.9H119.6c8.1 8 20.2 8 44.4 8.2 21.5.3 21.4.3 183.7 0v2.9c-1.3 1.1-2.9 2.6-2.9 3.5 0 1.6 3.5 4.7 4.5 4.7.7 0 2.8-1.8 4-3.3h10q1 1.7 3.8 1.8 2.8-.2 4-1.8h12c1.4 1.7 3.5 1.8 4.7 1.8 4.5-.2 5.6-2.5 5.6-10.6-.1-6.8-4.7-7.5-13.7-7.3m2 13.6h-10.6q-1.2-1.8-4-1.9-2.7.1-3.9 1.9h-9.8c-.5-.8-1.7-1.9-2.6-2.5v-2.9h31q-1 3.2 0 5.4"/></svg>
