<?xml version="1.0" encoding="UTF-8" standalone="no"?>
<svg
   xmlns:dc="http://purl.org/dc/elements/1.1/"
   xmlns:cc="http://creativecommons.org/ns#"
   xmlns:rdf="http://www.w3.org/1999/02/22-rdf-syntax-ns#"
   xmlns:svg="http://www.w3.org/2000/svg"
   xmlns="http://www.w3.org/2000/svg"
   xmlns:sodipodi="http://sodipodi.sourceforge.net/DTD/sodipodi-0.dtd"
   xmlns:inkscape="http://www.inkscape.org/namespaces/inkscape"
   width="512"
   height="512"
   viewBox="0 0 135.46666 135.46668"
   version="1.1"
   id="svg3625"
   inkscape:version="1.0.2 (1.0.2+r75+1)"
   sodipodi:docname="Flag_of_Saudi_Arabia_512.svg">
  <defs
     id="defs3620" />
  <sodipodi:namedview
     id="base"
     pagecolor="#ffffff"
     bordercolor="#666666"
     borderopacity="1.0"
     inkscape:pageopacity="0.0"
     inkscape:pageshadow="2"
     inkscape:zoom="1.4921875"
     inkscape:cx="256"
     inkscape:cy="256"
     inkscape:document-units="mm"
     inkscape:document-rotation="0"
     showgrid="false"
     units="px"
     inkscape:window-width="1680"
     inkscape:window-height="985"
     inkscape:window-x="0"
     inkscape:window-y="0"
     inkscape:window-maximized="1"
     inkscape:current-layer="svg3625"
     showborder="true"
     borderlayer="false"
     inkscape:showpageshadow="true" />
  <metadata
     id="metadata3623">
    <rdf:RDF>
      <cc:Work
         rdf:about="">
        <dc:format>image/svg+xml</dc:format>
        <dc:type
           rdf:resource="http://purl.org/dc/dcmitype/StillImage" />
        <dc:title></dc:title>
      </cc:Work>
    </rdf:RDF>
  </metadata>
  <path
     style="fill:#016b35;stroke:none;stroke-width:0.0451733"
     d="m 65.881196,0.03680775 c -0.652749,0.0857488 -1.330343,0.0302186 -1.987607,0.0752161 -1.099961,0.0753049 -2.19947,0.16484748 -3.297623,0.27463936 C 56.893595,0.75681238 53.202518,1.479781 49.618952,2.4762005 42.483757,4.4600813 35.619374,7.6031581 29.517012,11.809169 c -2.971248,2.047959 -5.762977,4.32048 -8.402159,6.778982 -4.488515,4.181346 -8.346416,9.107067 -11.4988064,14.361293 -5.9857385,9.976665 -9.31161921,21.538032 -9.59627591,33.157674 -0.18462299,7.536369 0.92650745,15.131013 3.22215751,22.315927 2.0633586,6.458061 5.1238224,12.603975 9.0063868,18.159925 4.668936,6.68123 10.562192,12.45219 17.268697,17.0744 6.894966,4.75274 14.72117,8.106 22.857488,10.03539 7.846531,1.86026 16.092845,2.25146 24.077154,1.20162 7.802715,-1.02636 15.410736,-3.3903 22.405754,-7.00105 6.671142,-3.44317 12.898222,-8.04188 18.019932,-13.54045 4.33885,-4.65787 8.09182,-9.83166 11.0145,-15.494646 4.69437,-9.094876 7.30491,-19.274373 7.55517,-29.498592 0.38577,-15.779258 -4.92069,-31.45308 -14.72591,-43.818723 -4.19612,-5.291722 -9.21436,-9.901498 -14.77154,-13.73175 C 99.988541,7.7005085 93.302055,4.6024343 86.344519,2.6186918 81.358334,1.1969821 76.205914,0.3326884 71.030906,0.106212 69.855507,0.05477432 68.686884,0.01763921 67.50742,0.01763921 c -0.533943,0 -1.096798,-0.0503894 -1.626224,0.0191685 M 113.44825,41.306624 c -0.2254,1.089867 -0.94997,1.988783 -1.71656,2.75561 -0.34648,0.346439 -0.90075,0.684611 -1.11848,1.12935 -0.22315,0.456256 -0.14637,1.04442 -0.14637,1.535913 l -0.90345,-0.22587 c 0.0176,0.855144 0.13597,1.723387 0.21818,2.574915 0.18747,1.938413 0.36726,3.884959 0.50052,5.827438 0.0474,0.691613 0.10751,1.385937 0.13778,2.078003 0.0208,0.476584 -0.0348,1.057521 0.20147,1.49074 0.1423,0.261105 0.39753,0.439994 0.61345,0.635596 0.44947,0.407921 0.91656,0.799127 1.35519,1.218342 1.41481,1.35296 2.87525,2.79943 3.61382,4.651109 0.16578,0.416052 0.34106,0.865081 0.40657,1.310043 h 0.0452 c 0.49284,-2.615119 0.0162,-5.247405 -0.26337,-7.860265 -0.34647,-3.235358 -0.65049,-6.474782 -0.96399,-9.712397 -0.12829,-1.324049 -0.2647,-2.648548 -0.35777,-3.975308 -0.0488,-0.694322 -0.21005,-1.479898 -0.0393,-2.168349 0.12513,-0.504141 0.77471,-1.150579 1.34933,-0.915134 0.20012,0.08208 0.35686,0.329273 0.4612,0.508568 0.77968,1.335703 1.21425,2.841262 1.21425,4.381874 l -0.9938,-0.316219 c 0.54523,4.315015 1.01729,8.630933 1.31407,12.964922 0.0944,1.380064 0.23582,2.76826 0.17483,4.156003 -0.0962,2.195454 -0.63649,4.416204 -1.83627,6.279178 -1.62442,2.521609 -4.54937,3.587715 -7.33203,4.27481 -0.73857,0.182051 -1.4532,0.287758 -2.21346,0.287758 -0.30674,0 -0.67714,0.02756 -0.94864,-0.135521 1.06428,-0.621142 2.2704,-0.991569 3.38798,-1.504744 1.36693,-0.627468 2.63448,-1.365609 3.88486,-2.199521 0.6252,-0.416955 1.22961,-0.868693 1.76175,-1.400391 0.18159,-0.1816 0.45353,-0.386689 0.5493,-0.632436 0.0718,-0.184761 -0.0736,-0.418761 -0.1432,-0.587261 -0.18973,-0.459418 -0.39572,-0.912062 -0.62112,-1.355218 -1.02679,-2.019727 -2.50891,-3.913418 -4.39262,-5.195003 0,0.75079 0.0714,1.508357 0.0899,2.258696 0.0411,1.6877 0.007,3.383528 -0.17256,5.059483 -0.0691,0.645987 -0.12468,1.311399 -0.42597,1.897305 -0.12513,0.243487 -0.28144,0.5064 -0.53033,0.632434 -0.0565,-0.438638 -0.15902,-0.870049 -0.21323,-1.310043 -0.26877,-2.183258 -0.44494,-4.401749 -0.59582,-6.595396 -0.0538,-0.783317 -0.12694,-1.565729 -0.1807,-2.349044 -0.0312,-0.453095 0.0149,-0.989761 -0.20825,-1.400394 -0.34421,-0.632886 -1.07602,-1.069718 -1.60273,-1.543593 -1.15959,-1.043517 -2.33001,-2.096522 -3.43313,-3.199671 0,1.416204 0.21953,2.837828 0.3537,4.246352 0.17029,1.78708 0.20509,3.585456 0.32795,5.375698 0.0836,1.217438 0.30808,2.480954 0.16352,3.704264 -0.0718,0.611654 -0.15628,1.224665 -0.36815,1.806958 -0.4314,1.186718 -1.37145,2.218943 -2.60016,2.587562 -0.51993,0.155852 -1.08641,0.180697 -1.626225,0.167597 -1.173579,-0.02891 -2.336778,-0.221353 -3.037873,-1.264419 -0.416945,-0.620239 -0.653204,-1.37645 -0.892161,-2.078001 -0.07273,-0.213673 -0.17302,-0.735885 -0.380357,-0.852885 -0.173464,-0.09803 -0.573251,0.07544 -0.748968,0.131456 -2.160173,0.684386 -2.367954,3.30086 -3.197337,5.058127 -0.174369,0.369523 -0.358674,0.740852 -0.646426,1.037193 -0.627441,0.64644 -1.558922,0.761632 -2.390096,0.497365 -1.568402,-0.498268 -2.625448,-2.08568 -2.908232,-3.657734 -0.07996,-0.443608 -0.0014,-0.907092 -0.03207,-1.355218 -0.01852,-0.269237 -0.04382,-0.557897 -0.135519,-0.813131 -0.149069,-0.415148 -0.380355,-0.76344 -0.400683,-1.219696 -0.09893,-2.237014 1.235026,-4.262613 2.75374,-5.782265 L 85.983179,60.86694 83.137286,58.382374 c 0,1.338053 0.120611,2.684236 0.178885,4.020482 0.07724,1.767204 -8.54e-4,3.522662 -0.08673,5.285351 -0.0402,0.827135 -0.08673,1.770366 -0.443598,2.529739 -0.135519,0.287759 -0.301756,0.623853 -0.597186,0.767958 -0.04698,-0.588616 -0.205988,-1.171361 -0.263357,-1.761784 -0.259293,-2.675652 -0.497355,-5.359888 -0.681208,-8.040961 -0.07228,-1.054361 -0.153588,-2.108269 -0.225865,-3.162177 -0.03795,-0.555639 0.0099,-1.204788 -0.247096,-1.716609 -0.171205,-0.341515 -0.481994,-0.557899 -0.750773,-0.814939 -0.414235,-0.396174 -0.818533,-0.807257 -1.219217,-1.217888 -1.256711,-1.288361 -2.4949,-2.644483 -3.542911,-4.11083 -0.605768,-0.847915 -1.405329,-2.012047 -1.236381,-3.117002 0.137776,-0.899865 1.235931,-0.276915 1.707083,-0.03343 0.792333,0.408824 1.538137,0.987502 2.168299,1.614517 0.439984,0.437735 0.809951,0.903479 0.903459,1.535913 l -1.264842,-0.04517 c 0.58002,0.852883 1.258516,1.665111 1.987608,2.394219 0.361834,0.361843 0.763873,0.681222 1.129322,1.039 0,-0.826683 -0.07499,-1.660594 -0.131452,-2.484566 L 80.15181,45.59815 c -0.03569,-0.524561 -0.04427,-1.058154 -0.09396,-1.581088 -0.04969,-0.521579 -0.114288,-1.144482 0.145457,-1.626218 0.179788,-0.333835 0.517681,-0.506219 0.856026,-0.641514 0.118806,-0.04752 0.298141,-0.153095 0.424174,-0.07811 0.236706,0.140536 0.427336,0.618341 0.555627,0.855097 0.493288,0.909848 0.915202,1.951605 1.058852,2.981481 0.05285,0.378105 0.08312,0.80003 -0.0059,1.174523 l -0.903457,-0.271044 c 0.2742,2.170156 0.372224,4.371933 0.579568,6.550221 0.05873,0.616173 0.07408,1.235959 0.135519,1.852132 0.02981,0.298148 0.02801,0.639211 0.188823,0.903478 0.331569,0.546605 1.004644,0.969886 1.490253,1.37374 1.010518,0.841138 2.016067,1.688603 3.026585,2.529741 0.373127,0.310796 0.751676,0.615721 1.129329,0.921096 0.12513,0.10119 0.286847,0.295438 0.451723,0.323446 0.12513,0.02168 0.228577,-0.08764 0.316214,-0.159917 0.246195,-0.204637 0.480628,-0.423278 0.72276,-0.632434 0.755285,-0.650957 1.503349,-1.310045 2.258651,-1.961452 0.303562,-0.262009 0.793239,-0.546605 0.919273,-0.948653 0.09576,-0.305828 0.01622,-0.68303 -0.01263,-0.993826 -0.06686,-0.722785 -0.172115,-1.444212 -0.224974,-2.16835 -0.191971,-2.620089 -0.439533,-5.245598 -0.689331,-7.860266 -0.06776,-0.706972 -0.113383,-1.417468 -0.180686,-2.123175 -0.07002,-0.735387 -0.09622,-1.528009 0.594917,-1.994429 0.08313,-0.05602 0.175734,-0.101597 0.271037,-0.132541 0.664046,-0.215391 0.962179,0.45978 1.208374,0.952446 0.450836,0.901627 0.886305,1.965158 0.955862,2.981481 0.02303,0.336546 -0.06008,0.660443 -0.08629,0.993828 l -0.903447,-0.361393 0.534392,4.607743 0.459406,4.562568 3.387976,-2.864932 1.445527,-1.245898 v -0.04517 c -0.613002,-0.431863 -1.096789,-1.096823 -1.62623,-1.626262 l -1.626224,-1.626262 c -0.587234,-0.58726 -1.160945,-1.168199 -1.398553,-1.987654 -0.187908,-0.647793 -0.0077,-1.249872 0.04337,-1.897305 0.55925,0.02439 1.090484,0.281794 1.581066,0.531064 1.299169,0.660624 2.367509,1.655806 3.387951,2.676286 0,-1.158711 -0.19062,-2.323296 -0.2751,-3.478394 -0.0402,-0.549858 -0.14637,-1.218612 0.16128,-1.715931 0.17933,-0.290198 0.49509,-0.433444 0.79143,-0.57624 0.11698,-0.05642 0.26922,-0.146725 0.40248,-0.09243 0.2742,0.111942 0.49599,0.644046 0.62474,0.893857 0.48063,0.930765 0.90888,1.978665 1.03763,3.026655 0.042,0.340159 0.0131,0.696581 0.0131,1.039 l -0.94864,-0.225869 0.31621,2.936305 c 1.0444,-0.774281 1.99755,-1.661949 3.02659,-2.455203 0.51315,-0.395273 1.27702,-0.810872 1.60227,-1.384581 0.14862,-0.262461 0.11429,-0.567836 0.11429,-0.858305 0,-0.90253 -0.32976,-2.167355 0.58725,-2.749603 0.19786,-0.125718 0.52988,-0.25171 0.76387,-0.159418 0.18792,0.07399 0.33112,0.309486 0.43953,0.469628 0.2995,0.441847 0.59087,0.97657 0.73903,1.490741 1.09047,-0.840463 2.25007,-1.845537 3.52349,-2.39422 m -83.750554,5.195003 -0.948631,-0.180695 0.173058,1.852132 0.459364,4.336698 c 2.762594,-0.75576 3.505281,-4.11625 2.839025,-6.550222 -0.296107,-1.081826 -1.337162,-2.591991 -0.262364,-3.555144 0.129738,-0.116232 0.2831,-0.224605 0.449922,-0.279492 0.329401,-0.108417 0.512984,0.183859 0.63739,0.44659 0.28608,0.604203 0.420153,1.290214 0.546005,1.94248 0.115778,0.600271 0.216333,1.197109 0.258118,1.806958 0.05443,0.795512 0.01744,1.572956 0.24967,2.349044 0.206397,0.689807 0.583093,1.311401 1.052122,1.852132 0.248182,0.285951 0.54858,0.531698 0.870528,0.731366 0.643623,0.398885 1.419287,0.570999 2.168299,0.49601 0.386545,-0.03885 0.7028,-0.08176 0.991862,-0.370878 0.718158,-0.718717 0.314357,-1.91402 -0.037,-2.70863 -0.679309,-1.536366 -1.632683,-2.964765 -2.055728,-4.607742 -0.195192,-0.758108 -0.294075,-1.628475 0.301349,-2.250837 0.473051,-0.494474 0.866551,-0.163214 1.23191,0.263185 0.580201,0.677156 1.343623,1.503432 1.555213,2.394217 -0.209015,0.0043 -0.778691,10e-4 -0.901562,0.195061 -0.154039,0.243308 0.134075,0.838972 0.238063,1.069811 0.339429,0.753501 0.851779,1.414395 1.19148,2.168349 0.495004,1.098629 0.624243,2.61015 0.191804,3.749436 -0.103853,0.273755 -0.252562,0.530795 -0.422909,0.767958 -1.390783,1.936607 -4.497143,1.57115 -6.074987,0.07725 -0.693449,-0.656378 -0.98233,-1.681374 -1.268861,-2.561814 -0.241269,0.560608 -0.387991,1.158258 -0.64638,1.716608 -0.28242,0.6103 -0.682381,1.170909 -1.128283,1.671437 -0.325741,0.365458 -0.74436,0.652764 -1.161576,0.903478 -0.162757,0.09803 -0.49261,0.214576 -0.552329,0.411083 -0.08773,0.289565 0.0309,0.735432 0.05141,1.034484 0.04843,0.707423 0.06464,1.417106 0.131859,2.123175 0.08131,0.85424 0.06229,1.717965 0.09979,2.574915 0.05267,1.202078 0.0749,2.414548 -0.03925,3.613914 -0.103763,1.090499 -0.04296,2.500379 -1.046657,3.207351 l -0.323688,-1.942477 -0.271174,-2.755612 -0.496947,-5.330524 -0.218186,-2.303871 c -0.498618,-0.06731 -1.028812,-0.22045 -1.490706,-0.419666 -0.351083,-0.151332 -0.672804,-0.354616 -0.948449,-0.621142 -1.271979,-1.228732 -1.377321,-3.196056 -1.07254,-4.831804 0.11632,-0.624306 0.311692,-1.230991 0.439939,-1.852132 -0.70908,0.715102 -0.969411,1.631682 -1.238686,2.574914 -0.264398,0.926517 -0.53566,1.85168 -0.870031,2.75561 -0.327594,0.885411 -0.722856,1.863877 -1.685806,2.209458 -0.31865,0.11429 -0.658486,0.139588 -0.993805,0.139588 -0.345663,0 -0.662054,-0.0149 -0.993804,-0.124229 -1.432206,-0.471616 -1.603322,-2.1295 -1.72425,-3.399338 -0.08791,-0.923357 -0.125715,-2.096975 0.443011,-2.891134 0.269772,-0.376749 0.685273,-0.664056 1.100548,-0.858304 -0.155801,0.491944 -0.524412,0.888571 -0.656001,1.400392 -0.07679,0.2986 -0.06677,0.597651 -0.06677,0.903479 0,0.812679 0.140489,1.710737 0.395218,2.484566 0.351401,1.067462 1.723844,1.531398 2.581993,0.714202 0.607484,-0.578227 0.797707,-1.612711 1.03053,-2.385637 0.509144,-1.689957 0.950075,-3.670834 2.094396,-5.059481 0.554994,-0.673499 1.318641,-1.280275 2.209678,-1.400393 -0.09518,1.206145 -0.515108,2.351755 -0.783706,3.523567 -0.117178,0.51137 -0.168314,1.016415 -0.217779,1.535915 -0.09685,1.017316 0.101685,2.118206 0.95631,2.776841 0.365178,0.281435 0.83457,0.383076 1.264843,0.520857 -0.175679,-0.738142 -0.132538,-1.591478 -0.184712,-2.349045 -0.109771,-1.593736 -0.213758,-3.198767 -0.365043,-4.788439 -0.06442,-0.676795 -0.127839,-1.35201 -0.127839,-2.032827 0,-0.33501 -0.01866,-0.731231 0.135519,-1.039 0.17134,-0.342102 0.522966,-0.51801 0.858285,-0.66478 0.127974,-0.05606 0.30198,-0.158877 0.436867,-0.0712 0.246915,0.160413 0.413784,0.620962 0.556891,0.871497 0.703523,1.231667 1.084194,2.606129 1.084194,4.02048 m 46.076358,-4.923959 -1.044396,1.942479 -0.175272,1.084174 1.761743,-0.271043 c -0.118353,0.801973 -0.695662,1.445114 -1.490706,1.616775 -0.338796,0.07318 -0.715989,0.05376 -0.989738,-0.186568 -0.182047,-0.160367 -0.299497,-0.391206 -0.379,-0.617076 -0.453084,-1.283617 0.56692,-2.442103 1.549431,-3.129606 0.242125,-0.169401 0.506839,-0.301761 0.767938,-0.439135 m -33.427945,0.09035 c 0.584854,0.859795 1.026103,1.723023 1.355187,2.710437 0.254504,0.763619 0.42056,1.543593 0.271038,2.349044 l -0.858286,-0.271044 0.213577,1.581089 0.560236,3.749436 0.219991,1.852132 c 0.413287,-0.119259 0.798069,-0.369522 1.174495,-0.573257 0.702891,-0.380364 1.40804,-0.751695 2.123127,-1.109472 0.695662,-0.347389 1.424301,-0.677609 2.213471,-0.71149 -0.208247,0.723235 -0.780135,0.965818 -1.400359,1.276164 -0.900748,0.450385 -1.809627,0.882246 -2.710374,1.332631 -0.259744,0.130101 -0.511809,0.271947 -0.76794,0.407921 -0.12296,0.0655 -0.292674,0.135522 -0.375251,0.252973 -0.151328,0.215029 0.01576,0.774282 0.04617,1.021836 0.10182,0.82849 0.266701,1.69583 0.283913,2.529741 0.794591,-0.865533 1.274779,-1.863426 2.484509,-2.213524 0,0.547057 -0.126936,1.278875 0.186564,1.761333 0.429594,0.659991 1.331245,0.524921 1.936562,0.236259 0.172109,-0.08222 0.396618,-0.185212 0.514971,-0.341064 0.14907,-0.196958 0.06008,-0.563318 0.09125,-0.798222 0.08628,-0.648246 0.157202,-1.373289 0.387583,-1.987654 0.22225,0.07228 0.458957,0.139587 0.619773,0.320735 0.148166,0.167143 0.20373,0.414697 0.247096,0.627918 0.100735,0.495105 0.105253,0.991567 0.03659,1.49074 -0.06505,0.472971 -0.160816,0.971239 -0.378097,1.400391 -0.55653,1.096372 -2.053109,2.132212 -3.32608,1.829546 -0.772005,-0.183859 -1.186693,-0.862822 -1.671398,-1.42298 -0.260647,0.671737 -0.676238,1.287006 -0.86348,1.987654 -0.195916,0.733624 -0.161899,1.512876 -0.320547,2.258698 -0.305955,1.43879 -0.915565,2.822919 -1.7715,4.020479 -2.459801,3.442255 -6.462571,5.296646 -10.460825,6.295893 -1.974236,0.493752 -3.974583,0.816745 -6.007995,0.56332 -0.797166,-0.09893 -1.626269,-0.375396 -2.303818,-0.809969 -0.403846,-0.259299 -0.820701,-0.81268 -1.310014,-0.889927 -0.473818,-0.07454 -0.972482,0.05827 -1.445532,0.07905 -0.753168,0.03298 -1.509136,0.03659 -2.258646,0.0036 -0.529787,-0.02304 -1.060885,-0.01219 -1.581052,-0.137328 v -0.04517 c 1.150736,-0.266076 2.31195,-0.680321 3.433142,-1.053908 0.271037,-0.09035 0.542662,-0.179342 0.813112,-0.271044 0.110718,-0.03795 0.249355,-0.07138 0.314764,-0.178438 0.123548,-0.201926 -0.01446,-0.663606 -0.03605,-0.89083 -0.05597,-0.588165 -0.05597,-1.263966 0,-1.852132 0.169262,-1.77895 0.637569,-3.485621 1.493461,-5.059481 0.383381,-0.705166 0.906438,-1.519651 1.570616,-1.987654 -0.295702,0.710134 -0.72525,1.352056 -0.99141,2.078003 -0.502774,1.371028 -0.651437,2.885258 -0.587879,4.336698 0.02299,0.52492 0.09911,1.066556 0.208789,1.581087 0.07621,0.357327 0.209512,0.720976 0.241178,1.084174 1.164511,-0.269235 2.299346,-0.879987 3.387967,-1.361542 2.246177,-0.992923 4.512953,-2.058576 6.55007,-3.442254 0.591585,-0.402048 1.166185,-0.832556 1.671352,-1.339859 0.284048,-0.2855 0.583409,-0.613914 0.733609,-0.993826 0.141753,-0.358683 0.124722,-0.751243 0.124722,-1.12935 -0.523238,0.04156 -1.033014,0.247554 -1.535878,0.387593 -0.69878,0.194249 -1.394082,0.336094 -2.123127,0.285951 -0.750593,-0.0515 -1.553721,-0.336997 -1.982729,-0.989761 -0.300265,-0.456709 -0.336042,-1.056167 -0.28355,-1.581089 0.08393,-0.839332 0.343629,-1.686342 0.886925,-2.349044 0.80751,-0.985243 2.046559,-1.226473 3.231444,-0.863274 0.526128,0.160819 0.977225,0.461677 1.351166,0.863274 0.393003,0.421925 0.833439,1.022286 0.997824,1.581089 0.911498,-0.379011 1.658658,-0.985245 2.439336,-1.575216 0.422366,-0.31938 0.958344,-0.769313 1.490706,-0.864177 0,0.836168 0.02548,2.017015 0.903459,2.443005 0.316616,0.153593 0.692906,0.17663 1.038975,0.177083 -0.123999,-0.419666 -0.09455,-0.918387 -0.148392,-1.355218 -0.126258,-1.024998 -0.27298,-2.047735 -0.406421,-3.071829 -0.385551,-2.959797 -0.798521,-5.927724 -1.074799,-8.899266 -0.07155,-0.769764 -0.173735,-1.53334 -0.226496,-2.303871 -0.03171,-0.462582 -0.05651,-1.010993 0.253916,-1.398585 0.260242,-0.324892 0.728323,-0.487969 1.105291,-0.634242 m 30.53688,2.891132 -1.038977,-0.04517 c 0.158557,0.691161 0.377193,1.379161 0.651393,2.032828 0.279621,0.665862 0.632421,1.304171 0.869127,1.987652 0.341508,0.987502 0.416495,2.124079 0.05014,3.117002 -0.856478,2.322845 -3.876287,2.847314 -5.771743,1.449181 -0.948178,-0.699745 -1.409394,-1.811927 -1.761743,-2.894746 h -0.04517 c -0.04833,0.555639 -0.329763,1.133413 -0.575955,1.626262 -0.601703,1.202981 -1.516454,2.180997 -2.76684,2.716308 -1.681336,0.71917 -4.024454,0.256589 -5.190818,-1.180395 -1.167267,-1.43879 -0.617966,-3.430057 -0.256131,-5.059481 0.0926,-0.416956 0.218186,-0.837976 0.252066,-1.264871 -0.619772,0.621594 -0.858285,1.309592 -1.129322,2.123176 -0.41243,1.237314 -0.666752,2.530192 -1.253549,3.704262 -0.244386,0.488332 -0.494643,0.977566 -0.91475,1.341667 -0.95857,0.830297 -2.522456,0.812679 -3.425462,-0.126035 -0.246193,-0.256588 -0.421011,-0.609848 -0.533493,-0.944588 -0.586794,-1.742359 -0.06008,-3.658637 0.616159,-5.285351 h 0.04517 c 0,0.891282 -0.135519,1.773078 -0.135519,2.665263 0,0.757116 0.12513,1.626714 0.577761,2.258698 0.453537,0.633337 1.299626,1.033128 2.042268,0.660441 0.242578,-0.121516 0.444502,-0.320282 0.618869,-0.524919 0.614803,-0.720977 0.849249,-1.740101 1.142874,-2.62009 0.410622,-1.230538 0.891713,-2.45701 1.479865,-3.613914 0.35551,-0.699293 0.795041,-1.56966 1.501547,-1.971392 0.284137,-0.161542 0.629257,-0.201566 0.948631,-0.242133 0,1.602772 -0.848799,2.994581 -1.07105,4.562569 -0.125129,0.881796 -0.09757,1.850324 0.404298,2.620088 0.813563,1.246801 2.646679,1.632135 4.009545,1.21789 0.714185,-0.216835 1.390423,-0.666315 1.889582,-1.21789 0.644166,-0.711941 1.093185,-1.580184 1.252646,-2.52974 0.05918,-0.349647 0.0515,-0.687097 0.06686,-1.039001 0.02981,-0.682127 0.02981,-1.367415 -0.16985,-2.032827 -0.191081,-0.636049 -0.652296,-1.138474 -0.854671,-1.761784 -0.270135,-0.832284 0.341507,-1.908147 1.158233,-2.168349 0.259293,0.48702 0.54614,0.948878 0.682111,1.49074 0.151781,0.603117 0.169399,1.236321 0.229027,1.852132 0.182047,1.881494 0.38171,4.045778 1.716569,5.51122 0.71825,0.788285 1.890486,1.141998 2.92856,0.98163 0.708762,-0.109773 1.305948,-0.490589 1.386808,-1.252674 0.02484,-0.237163 -0.04698,-0.494202 -0.105253,-0.722782 -0.135971,-0.532149 -0.347831,-1.045776 -0.592668,-1.535914 -0.628356,-1.256739 -1.390875,-2.466046 -1.744577,-3.839786 -0.167593,-0.651724 -0.436822,-1.700121 8.53e-4,-2.303012 0.318469,-0.438413 0.748514,-0.162083 1.09996,0.07463 0.727736,0.490228 1.468572,1.322015 1.71657,2.183212 m -11.69978,1.174523 c -0.232189,-0.538475 -0.03975,-1.218387 -0.42553,-1.715933 -0.325244,-0.419801 -0.86777,-0.561467 -1.291041,-0.847643 -0.201923,-0.136516 -0.428239,-0.325977 -0.394359,-0.598601 0.03795,-0.302529 0.35009,-0.443428 0.620224,-0.451061 0.508195,-0.01432 0.885841,0.249223 1.20476,0.631758 0.460313,0.551482 0.694761,1.319259 0.582279,2.032827 -0.05195,0.330853 -0.189726,0.63379 -0.296333,0.948653 m 26.561665,-2.71042 c -0.35506,0.853109 -0.767487,1.741275 -0.903459,2.665262 -0.265164,-0.181148 -0.336538,-0.673001 -0.497805,-0.948653 -0.260196,-0.445777 -0.631969,-0.748893 -1.038073,-1.055896 -0.201472,-0.152281 -0.488319,-0.333113 -0.491934,-0.615539 -0.0045,-0.411174 0.457602,-0.613959 0.808144,-0.513267 0.48832,0.14013 0.912041,0.663832 1.129322,1.100527 0.249807,-0.406248 0.220897,-0.946484 0.6008,-1.286012 0.48832,-0.436514 1.536791,-0.205406 1.749097,0.427708 0.07589,0.226908 -0.06145,0.569147 -0.317562,0.613868 -0.162179,0.02828 -0.351451,-0.06853 -0.496455,-0.129785 -0.185661,-0.07842 -0.367708,-0.156934 -0.542075,-0.258213 m -68.391771,-0.722784 -1.008259,1.897306 -0.166237,1.129349 1.038978,-0.180832 0.76794,-0.18056 c -0.237972,0.613462 -0.494238,1.203434 -1.129324,1.495258 -0.181278,0.08312 -0.388532,0.147267 -0.587247,0.168498 -1.207156,0.129198 -1.514829,-1.364705 -1.153988,-2.251017 0.194244,-0.477217 0.54831,-0.915224 0.928123,-1.257145 0.37096,-0.334016 0.82436,-0.680952 1.310014,-0.820857 m 33.111667,5.737092 0.858286,-0.406566 c -8.53e-4,0.36365 -0.0063,0.889474 -0.280976,1.164583 -0.465733,0.465292 -1.272069,0.04698 -1.375514,-0.532149 -0.126485,-0.706067 0.353252,-1.375546 0.623837,-1.987652 0.21412,-0.484266 0.241675,-0.884507 0.219541,-1.400393 -0.371773,0.324801 -0.64281,0.766151 -1.001484,1.110376 -1.001483,0.961753 -2.096474,1.649751 -3.470633,1.916279 0.405651,-0.456709 1.038072,-0.766151 1.535878,-1.1167 0.757098,-0.533504 1.497933,-1.275261 1.880096,-2.134062 0.112933,-0.253878 -0.183402,-0.397757 -0.344218,-0.54787 -0.388486,-0.362476 -0.809045,-1.016368 -0.26652,-1.461513 0.115191,-0.09437 0.25839,-0.144512 0.402039,-0.175637 1.127515,-0.244209 1.374611,1.034711 1.775746,1.776693 0.190631,0.352266 0.406556,0.716187 0.416947,1.129348 0.0149,0.562867 -0.364546,1.094564 -0.599897,1.581088 -0.170752,0.352357 -0.25613,0.715555 -0.373128,1.084175 m -1.08415,-5.014308 c 0.149523,0.259027 0.354608,0.469673 0.632422,0.587261 -0.112481,-0.29074 -0.333377,-0.498449 -0.632422,-0.587261 m -4.336598,4.156002 h -0.04517 c -0.181596,-0.66496 -0.503227,-1.39723 -0.926496,-1.942479 -0.424626,-0.546921 -0.985854,-0.989717 -1.286976,-1.626262 0.269185,-0.101009 0.620675,-0.192577 0.903457,-0.09694 0.360931,0.122061 0.627453,0.515029 0.826665,0.819726 0.543881,0.83075 0.76297,1.873364 0.528522,2.845959 M 36.428466,44.152582 c 0.309117,0.501342 0.451728,0.898194 0.451728,1.49074 -0.456878,0.05918 -0.908787,0.176178 -1.355187,0.287759 -0.216559,0.05421 -0.453309,0.146364 -0.677594,0.151785 -0.340467,0.0086 -0.638292,-0.285049 -0.656316,-0.620239 -0.0169,-0.31396 0.100194,-0.643233 0.159416,-0.948653 h 0.04517 l 0.361384,1.084175 c 0.137866,-0.04653 0.325245,-0.08899 0.42449,-0.203283 0.205717,-0.236713 -0.03036,-0.647569 0.09965,-0.911701 0.05782,-0.117407 0.251161,-0.131229 0.333556,-0.0323 0.09116,0.109502 0.08696,0.334513 0.109634,0.469675 0.02277,0.135747 0.04617,0.271494 0.07164,0.406565 l 0.587249,-0.09035 0.04517,-1.084175 m 54.614033,0.587261 c -0.496455,0.705166 -1.356535,0.907094 -2.123123,1.193495 -1.027685,0.384432 -2.062145,0.74266 -3.071758,1.174976 -0.368611,0.157656 -0.715991,0.364552 -1.084149,0.522663 l 0.451728,0.948652 c -0.365901,-0.06821 -0.770199,-0.08177 -1.083246,-0.307183 -0.337442,-0.243036 -0.485609,-0.741304 -0.201019,-1.084627 0.148167,-0.178889 0.400231,-0.302664 0.606672,-0.400692 0.927851,-0.440897 1.930238,-0.755308 2.891065,-1.117603 1.183526,-0.44632 2.330027,-0.929681 3.61383,-0.929681 m -28.23306,1.084175 c 0.0014,0.433219 0.09396,0.862371 0.252968,1.264871 0.210958,0.533052 0.519037,1.046679 0.265166,1.626262 -0.247549,0.564222 -0.973929,0.726397 -1.511938,0.502333 -0.21683,-0.0899 -0.453535,-0.326155 -0.677594,-0.365908 -0.20373,-0.03659 -0.429593,0.242131 -0.587247,0.342871 -0.28459,0.181598 -0.580473,0.219544 -0.903459,0.131004 -0.839312,-0.230388 -1.158232,-1.292879 -0.898941,-2.055867 0.135972,-0.399789 0.447665,-0.73995 0.808597,-0.948652 -0.0271,0.624303 -0.491934,1.64388 0.316209,1.962356 0.144554,0.05692 0.299045,0.09306 0.451729,0.115644 l 0.171657,-1.400391 0.176174,-0.578678 0.555627,-0.324802 c 0.129646,0.543896 -0.04924,1.248157 0.333828,1.714804 0.191985,0.233549 0.495094,0.349646 0.750322,0.498721 l -0.05647,-1.264872 -0.05195,-0.799578 0.605317,-0.420118 m -25.613019,5.014307 h -0.04517 c -0.265797,-0.688901 -0.49401,-1.407619 -0.969636,-1.987652 -0.42589,-0.519501 -1.119745,-0.934649 -1.153489,-1.671437 0.312867,0 0.658801,-0.04292 0.947953,0.10119 0.352033,0.175727 0.643488,0.599458 0.823638,0.937811 0.446533,0.838429 0.572069,1.689054 0.396708,2.620088 m 70.424551,-3.252524 c -1.16501,0.837074 -2.24057,1.790697 -3.3428,2.706824 -0.28639,0.238066 -0.57776,0.468454 -0.85829,0.713747 -0.14951,0.130554 -0.32569,0.264269 -0.38306,0.464389 -0.0583,0.202831 0.047,0.38985 0.1721,0.542087 0.26066,0.318025 0.58093,0.599911 0.88856,0.871405 0.94999,0.837526 1.84937,1.731518 2.80072,2.569043 0.40971,0.360488 0.85331,0.853336 1.35519,1.076946 l -0.4025,-6.143656 -0.13191,-1.987654 -0.098,-0.813131 m -7.860084,0.587265 c 0.176175,0.377653 0.613434,0.837524 0.948614,1.084174 v -1.084174 h -0.948614 m -9.938032,1.626262 c 0,0.404306 0.08718,0.798222 0.234893,1.174521 0.22902,0.583196 0.565568,1.178588 0.265608,1.806959 -0.283227,0.593134 -1.071037,0.561059 -1.584651,0.341966 -0.168052,-0.07183 -0.360487,-0.250264 -0.542081,-0.26743 -0.187468,-0.01762 -0.387585,0.198314 -0.542075,0.285048 -0.302659,0.169853 -0.655008,0.23355 -0.993803,0.14049 -0.871838,-0.238969 -1.17269,-1.456859 -0.834345,-2.216684 0.149975,-0.336998 0.492385,-0.64915 0.78917,-0.858305 -0.0664,0.513175 -0.495546,1.532299 0.04743,1.909501 0.193339,0.134168 0.454891,0.115647 0.675335,0.1685 l 0.165784,-1.400392 0.182047,-0.518597 0.645972,-0.339709 c 0,0.559253 -0.134615,1.408977 0.325704,1.834514 0.208242,0.19199 0.50728,0.225871 0.758444,0.333836 -0.01897,-0.44135 -0.121066,-0.87502 -0.191988,-1.310044 -0.02756,-0.169402 -0.09983,-0.423733 -0.02846,-0.587262 0.100288,-0.229483 0.40385,-0.411083 0.627014,-0.496912 m 23.489898,5.149829 c -0.13553,-0.281885 -0.14456,-0.641922 -0.19967,-0.948653 -0.10976,-0.607137 -0.2602,-1.236864 -0.6794,-1.712545 -0.32659,-0.370426 -0.80452,-0.49375 -1.19888,-0.767505 -0.27691,-0.19244 -0.48471,-0.480199 -0.29634,-0.813582 0.12061,-0.212769 0.3379,-0.274207 0.56738,-0.274658 0.53168,-8.53e-4 0.94908,0.354616 1.24541,0.767505 0.70741,0.985244 1.05389,2.604278 0.5615,3.749438 M 101.11607,53.05185 c -1.377313,1.02093 -2.666563,2.172865 -3.975209,3.278723 -0.346483,0.292276 -0.695665,0.580938 -1.03899,0.877278 -0.21275,0.183859 -0.444502,0.357778 -0.543424,0.632436 -0.15313,0.424184 -0.04381,1.042614 -0.04381,1.49074 0,1.084627 0.04562,2.174673 -0.08313,3.252524 -0.107954,0.90122 -0.264704,1.658787 -1.00102,2.258697 L 93.925905,61.183159 93.707709,59.3762 c -0.341499,0.13236 -0.628346,0.440447 -0.903447,0.677609 -0.532599,0.459421 -1.058403,0.922452 -1.581066,1.392714 -0.182495,0.16398 -0.363181,0.327511 -0.54117,0.496912 -0.0673,0.06415 -0.1694,0.135071 -0.173907,0.237616 -0.0077,0.164885 0.200115,0.333835 0.29634,0.447673 0.249354,0.294986 0.478374,0.613011 0.670363,0.948653 0.602599,1.053457 0.659521,2.453397 0.06278,3.523567 -0.718237,1.287909 -2.143441,1.87246 -3.521672,2.148022 -0.418302,0.08357 -0.842474,0.136425 -1.264842,0.195151 -0.13868,0.01942 -0.403394,0.005 -0.514068,0.09758 -0.101638,0.08448 -0.03569,0.254781 -0.01219,0.360036 0.07408,0.33248 0.145457,0.66722 0.242578,0.993827 0.225413,0.757115 0.52536,1.581541 1.141972,2.109622 0.416042,0.356424 0.967606,0.539378 1.490712,0.314411 1.009608,-0.434121 1.29736,-1.592381 1.690812,-2.51438 0.710127,-1.664208 1.661003,-3.837075 3.504057,-4.468608 0.357326,-0.122421 0.710571,-0.139134 1.08415,-0.139134 0.219544,0 0.441804,-0.0072 0.631982,0.121968 0.279165,0.190184 0.405199,0.530795 0.536202,0.826684 0.259291,0.586809 0.45985,1.217438 0.805873,1.761784 0.740397,1.164583 2.058535,1.672339 3.401532,1.400392 0.8497,-0.172565 1.87602,-0.660443 1.97991,-1.626262 0.0596,-0.554735 -0.0474,-1.122573 -0.11518,-1.671435 -0.0831,-0.676706 -0.15856,-1.355219 -0.23084,-2.032828 -0.26471,-2.468756 -0.52084,-4.938415 -0.76794,-7.408527 l -0.31621,-3.117002 c -0.0434,-0.431411 0.002,-1.006476 -0.18837,-1.400391 m -28.368593,3.478392 v -0.04517 l 1.716571,-0.885409 0.678044,-0.560158 0.18024,-0.767956 -1.084149,0.135522 c 0.149069,-0.35823 0.325697,-0.810872 0.634227,-1.060232 0.389391,-0.314864 1.070146,-0.408825 1.311821,0.111579 0.243031,0.522663 0.07815,1.186719 -0.260196,1.626262 -0.532136,0.69071 -1.344345,1.122121 -2.182755,1.315013 -0.329762,0.07589 -0.66359,0.06912 -0.993803,0.130552 m 13.416351,1.626262 c -0.07499,-0.128293 -0.227671,-0.331124 -0.188823,-0.488782 0.03975,-0.161723 0.286397,-0.276915 0.414688,-0.359584 0.385324,-0.248004 0.771553,-0.500076 1.174494,-0.718717 1.264838,-0.687548 2.521546,-1.412589 3.839701,-1.995334 0.337436,-0.149073 0.681649,-0.30944 1.038974,-0.405662 0.133257,-0.03569 0.311689,-0.08312 0.444945,-0.0253 0.342865,0.148622 -0.120605,0.60307 -0.264259,0.717361 -0.560582,0.446318 -1.306392,0.687999 -1.942437,1.006024 l -1.852086,0.926066 c -0.88403,0.4418 -1.753608,0.964463 -2.665197,1.343924 M 57.433864,54.768458 c 1.834471,1.872913 3.120995,4.268035 3.685205,6.821267 0.346025,1.567986 0.508195,3.169402 0.823051,4.743264 0.181143,0.906639 0.361382,1.847612 0.902103,2.620088 0.491932,0.702907 1.189853,1.011896 1.862478,1.49074 0.131001,-0.506853 0.222702,-1.029514 0.572341,-1.4415 0.416494,-0.491042 1.164105,-0.815842 1.731477,-1.099534 0.942758,-0.471165 1.904941,-0.858757 2.891065,-1.227376 0.515424,-0.192893 1.080988,-0.442705 1.626225,-0.523115 v -0.04517 c -0.815824,-0.102996 -1.662364,-0.04517 -2.484509,-0.04517 -2.20218,0 -4.455404,0.140943 -6.640417,-0.135522 0.0014,-0.41786 0.04246,-0.875019 0.201019,-1.264871 0.502323,-1.233248 1.846669,-1.920796 2.961084,-2.496312 0.857381,-0.442252 1.72425,-0.855594 2.620027,-1.216987 0.714636,-0.288209 1.492062,-0.645534 2.258646,-0.758922 -0.296335,-0.420569 -0.733157,-0.705164 -0.89352,-1.219696 -0.109318,-0.351904 -0.0041,-0.67806 0.160816,-0.993826 0.301303,-0.576419 0.800012,-1.131156 1.45547,-1.287459 0.449922,-0.107061 0.907073,-0.04879 1.355187,0.04066 1.027683,0.205541 2.056271,0.701099 2.891066,1.332631 0.319372,0.241681 0.672173,0.552026 0.784201,0.953171 0.145006,0.518145 -0.360028,1.334438 -0.740835,1.647945 -0.448115,0.36907 -1.023618,0.44135 -1.579245,0.507304 -0.209151,0.02484 -0.472508,-0.0086 -0.667203,0.08492 -0.190629,0.09171 -0.162622,0.426895 -0.200568,0.605784 -0.08492,0.40024 -0.252516,0.807258 -0.668107,0.948653 -0.123322,-0.318478 -0.252969,-0.634695 -0.387585,-0.948653 -0.04969,-0.116549 -0.09757,-0.29092 -0.21728,-0.355971 -0.123774,-0.06731 -0.309435,0.01446 -0.434113,0.04563 -0.364544,0.0908 -0.730897,0.183857 -1.084149,0.312604 -1.506065,0.550218 -2.98638,1.385936 -4.20108,2.437134 l 10.028384,-0.04518 4.155907,-0.04517 1.129322,0.09035 c -0.262002,1.943382 -2.722118,2.214878 -4.246252,2.539228 -2.089247,0.444511 -4.192949,0.820809 -6.279032,1.281583 -1.441919,0.318477 -3.11151,0.700648 -4.336599,1.564375 -0.383066,0.270139 -0.678949,0.642373 -0.993805,0.98434 0.907073,0.247552 1.787041,0.541182 2.710374,0.738142 0.503227,0.107514 1.14694,0.127842 1.576535,0.441349 0.191082,0.139588 0.252516,0.359132 0.29272,0.582293 0.0926,0.511821 0.08176,1.263063 -0.380355,1.603222 -0.266069,0.195603 -0.771102,0.163077 -1.082343,0.126487 -0.69521,-0.08222 -1.396745,-0.163982 -2.077953,-0.335191 -1.991674,-0.500074 -3.823886,-1.696733 -4.839825,-3.517694 -0.433207,-0.776541 -0.673076,-1.619035 -0.851961,-2.484566 -0.09803,-0.472069 -0.221798,-0.961303 -0.225865,-1.445567 -0.338796,0.261557 -0.569629,0.702002 -0.832084,1.039001 -0.366352,0.469808 -0.779232,0.890377 -1.200696,1.310043 -1.604992,1.596899 -3.637773,2.756063 -5.646612,3.760732 -0.860545,0.430056 -1.813691,0.970787 -2.80072,0.982532 -0.752128,0.0086 -1.531813,-0.17708 -2.005224,-0.813131 -0.212314,-0.285047 -0.346477,-0.622044 -0.479285,-0.948652 -0.0506,-0.125131 -0.103899,-0.321186 -0.273296,-0.303569 -0.156751,0.01672 -0.315307,0.145009 -0.449471,0.219546 -0.233996,0.129648 -0.481544,0.234904 -0.722766,0.350548 -0.937337,0.448127 -1.871604,0.902577 -2.845893,1.267131 -2.616865,0.978919 -5.38628,1.447824 -8.176294,1.447824 v -0.04517 c 0.612182,-0.208252 1.205031,-0.509109 1.806915,-0.749887 2.068423,-0.827587 4.09393,-1.746876 6.098342,-2.716762 0.864429,-0.41831 1.725244,-0.838427 2.574855,-1.286553 0.424625,-0.224062 0.882679,-0.411534 1.26439,-0.708328 0.511357,-0.397981 0.500063,-1.188075 0.6794,-1.7663 0.246192,-0.794609 0.707408,-1.46725 1.308659,-2.033732 0.238513,-0.224966 0.504582,-0.467549 0.813112,-0.586358 -0.415591,1.071527 -1.078729,2.166091 -1.129322,3.342873 0.524005,-0.380817 1.094539,-0.700196 1.626224,-1.071527 0.855123,-0.59765 1.652424,-1.253575 2.439337,-1.936155 0.454438,-0.393917 1.228702,-1.000602 1.30143,-1.645234 0.02801,-0.248006 -0.07634,-0.493752 -0.158105,-0.722784 -0.182046,-0.510465 -0.426883,-1.000603 -0.656363,-1.49074 -0.427786,-0.913416 -0.819436,-1.907244 -1.044848,-2.891132 -0.116545,-0.509562 -0.200115,-1.111279 -0.07273,-1.626262 0.08447,-0.340159 0.314856,-0.611655 0.495096,-0.903479 0.821695,0.468003 1.399907,1.259901 1.912169,2.032827 0.228122,0.343774 0.502323,0.730915 0.617513,1.12935 l -0.677594,0.135522 c 0.136874,0.500979 0.402491,0.974852 0.618418,1.445565 0.444501,0.967626 0.827568,1.943834 0.780135,3.026655 -0.05195,1.188074 -0.781491,1.961904 -1.579244,2.75561 -1.573372,1.565729 -3.486444,2.864027 -5.285229,4.156003 0.35551,0.14817 0.691144,0.393013 1.084149,0.427797 0.873644,0.0777 1.886421,-0.333836 2.665202,-0.684837 1.876482,-0.846108 3.547879,-2.048639 5.149711,-3.329771 0.620224,-0.496462 1.235478,-0.999247 1.852087,-1.500227 0.173014,-0.140492 0.565114,-0.352809 0.550207,-0.606687 -0.03207,-0.548862 -0.345572,-1.15329 -0.519941,-1.669629 -0.603509,-1.786176 -1.572017,-3.397079 -2.347635,-5.104654 -0.462571,-1.01777 -0.812209,-2.426292 0.103898,-3.297699 m -40.429745,5.737092 c 0.367797,-0.575968 1.02285,-0.748985 1.626225,-0.96853 0.431851,-0.156753 0.849249,-0.381267 1.219668,-0.652763 0.362422,-0.265623 0.714454,-0.553833 1.038975,-0.865081 0.113701,-0.10887 0.286534,-0.241681 0.319418,-0.404759 0.03632,-0.179792 -0.100735,-0.417408 -0.151328,-0.587261 -0.147354,-0.494655 -0.379543,-1.380967 0.06744,-1.789341 0.270631,-0.246649 0.759718,-0.172112 1.074483,-0.05872 0.508919,0.183404 0.918681,0.597199 1.272476,0.989761 0.298863,0.331576 0.560189,0.654117 0.474405,1.129348 -0.132854,0.735883 -1.124308,0.540731 -1.611362,0.878181 -0.410712,0.285047 -0.676329,0.725494 -1.08415,1.017318 -0.910279,0.650955 -1.997862,1.16142 -3.11693,1.29875 -0.369108,0.04563 -0.75773,0.0131 -1.129322,0.0131 m 48.967426,-5.059478 c 0.0018,0.619336 0.309886,1.149678 0.52265,1.716611 0.122871,0.326155 0.241675,0.744466 0.09938,1.084174 -0.240319,0.57416 -1.026327,0.790545 -1.570661,0.546153 -0.20915,-0.09351 -0.411977,-0.382623 -0.632421,-0.414245 -0.180691,-0.02575 -0.364997,0.226773 -0.496901,0.322993 -0.267875,0.195152 -0.57189,0.313057 -0.903458,0.237165 -0.886294,-0.203284 -1.304142,-1.325405 -1.014133,-2.137632 0.142748,-0.399789 0.481093,-0.728204 0.833441,-0.948653 -0.02213,0.513176 -0.407008,1.294235 -0.06098,1.757718 0.166236,0.222256 0.450372,0.34016 0.693403,0.455806 l 0.282331,-1.355218 0.16985,-0.707876 0.631969,-0.376299 c 0,0.533505 -0.06866,1.262611 0.268327,1.714803 0.17482,0.234903 0.441791,0.383075 0.680303,0.543893 0.144554,-0.396627 0.100736,-0.770667 0.0054,-1.174521 -0.05692,-0.238971 -0.205086,-0.568289 -0.113836,-0.81268 0.08718,-0.233098 0.387584,-0.372232 0.605317,-0.452192 m -44.585652,0.361392 0.361384,1.174524 h 0.09035 l 0.406556,-1.039002 -0.858285,-0.135522 m 1.219669,1.581089 0.766493,-0.123777 0.01879,-0.282788 -0.198039,-0.722785 c -0.387042,0.118809 -0.534168,0.769764 -0.587247,1.12935 m 51.226068,1.581087 c -0.465732,-0.563319 -1.452308,-0.911158 -2.168299,-0.903478 -0.347381,0.0041 -0.816274,0.176178 -0.846089,0.587261 -0.02123,0.295889 0.318921,0.547056 0.529879,0.700648 0.852411,0.620238 1.756773,0.245293 2.484509,-0.384431 m -55.743358,3.704264 c 0.323393,-0.772926 0.989195,-1.118508 1.671397,-1.52688 1.178515,-0.705616 2.38531,-1.37148 3.613833,-1.985395 0.430089,-0.215027 0.882226,-0.444059 1.355187,-0.543893 0.291636,-0.06144 0.552101,-0.03298 0.702122,0.261557 0.387221,0.761632 -0.836241,1.128896 -1.334544,1.328114 -1.339467,0.535762 -2.640039,1.200272 -3.930042,1.845356 -0.67529,0.337448 -1.28657,0.809516 -2.077953,0.621141 m 16.98501,-2.755611 c -0.479375,-0.680772 -1.164648,-1.028611 -1.987608,-0.99202 -0.33071,0.01446 -0.928439,0.185213 -0.867998,0.630629 0.04007,0.294986 0.442921,0.413341 0.687307,0.466646 0.74996,0.163529 1.426244,-0.07318 2.168299,-0.105255 m 44.630824,-0.767956 c 0.03162,0.73498 0.281879,1.378708 0.587249,2.032827 -0.196502,0.03659 -0.45444,0.01446 -0.624291,0.129196 -0.172108,0.11655 -0.284136,0.341064 -0.409718,0.503238 -0.200568,0.258848 -0.439531,0.500979 -0.727734,0.661799 -0.833441,0.46484 -1.834924,0.422376 -2.755548,0.422376 0.261552,-0.186116 0.683467,-0.208252 0.993805,-0.281433 0.586795,-0.139136 1.19708,-0.35326 1.618545,-0.804548 0.182046,-0.195152 0.352799,-0.444964 0.36319,-0.720976 0.02123,-0.559253 -0.466184,-1.269388 0.142293,-1.672791 0.110223,-0.07318 0.236256,-0.120615 0.360481,-0.163982 0.149974,-0.05195 0.293623,-0.0917 0.451728,-0.105706 M 26.038681,71.663513 v 0.04517 c 1.202865,0 2.373069,-0.1039 3.568661,-0.218189 0.880916,-0.08402 1.751623,-0.151334 2.620027,-0.342871 2.164685,-0.478392 4.264413,-1.313207 6.188688,-2.407771 1.962446,-1.116249 3.872898,-2.760129 4.561287,-4.981782 0.222929,-0.71917 0.272212,-1.510165 0.272212,-2.258698 -0.912673,0 -1.940943,8.54e-4 -2.663438,-0.645987 -0.357318,-0.319831 -0.636261,-0.785576 -0.860048,-1.206145 -0.46266,0.211866 -0.855438,0.671285 -1.264841,0.977113 -0.14636,0.10887 -0.405471,0.226321 -0.491616,0.393014 -0.07024,0.135522 -0.0055,0.37675 -0.0053,0.527179 6.83e-4,0.408824 0.0073,0.815389 -0.06609,1.219696 -0.193791,1.067461 -0.823276,2.02831 -1.561899,2.800785 -1.54821,1.619035 -3.539522,2.699142 -5.509331,3.716008 -1.085551,0.560158 -2.152534,1.160971 -3.252449,1.69312 -0.503859,0.243939 -1.042455,0.426441 -1.535879,0.689354 m 68.3466,-6.053309 c 0.288657,-0.618882 1.089118,-0.782864 1.6714,-0.996085 0.458501,-0.168499 0.874541,-0.423731 1.264835,-0.716007 0.332467,-0.248908 0.653649,-0.525825 0.94864,-0.817647 0.102081,-0.10119 0.277354,-0.228582 0.300386,-0.380366 0.02575,-0.174371 -0.09848,-0.403402 -0.145447,-0.568287 -0.134622,-0.472068 -0.37404,-1.413945 0.07589,-1.787534 0.288657,-0.239422 0.756634,-0.162174 1.079181,-0.04472 0.52129,0.190181 0.93553,0.607588 1.29058,1.019124 0.29001,0.335642 0.51995,0.664959 0.4201,1.129348 -0.15538,0.725041 -1.13564,0.496914 -1.620346,0.842042 -0.44404,0.316218 -0.771095,0.787382 -1.219659,1.111731 -0.903908,0.653667 -1.955994,1.094113 -3.071763,1.200723 -0.327055,0.03117 -0.665395,0.0077 -0.993798,0.0077 m 4.472108,-4.743264 0.271038,1.310045 h 0.04518 l 0.451741,-1.084189 -0.767954,-0.22587 m -48.606034,1.626262 c -0.265616,-0.09712 -0.647327,-0.466195 -0.946824,-0.374944 -0.237157,0.07183 -0.330666,0.440897 -0.406104,0.645987 -0.237609,0.648699 -0.401135,1.323597 -0.589506,1.987654 h -0.04517 c -0.181143,-0.556091 -0.393906,-1.156904 -0.814918,-1.57928 -0.315759,-0.31667 -0.931916,-0.55835 -1.093636,-0.995634 -0.159009,-0.429605 0.31621,-0.728656 0.688886,-0.662702 0.518133,0.0917 0.915203,0.629273 1.264842,0.978919 0.111577,-0.471616 0.328407,-1.135222 0.813113,-1.333535 0.481994,-0.196958 1.378676,0.05421 1.438757,0.655926 0.02665,0.266526 -0.164882,0.475682 -0.309436,0.677609 m 49.735364,0 0.858279,-0.09035 -0.16849,-0.722784 -0.1965,-0.249811 -0.22994,0.205541 -0.263349,0.857401 m -13.732562,4.562571 c 0.963538,0 1.849378,-0.05014 2.755551,-0.4156 0.350087,-0.141394 0.717349,-0.312152 0.985211,-0.585905 0.637394,-0.650958 -0.01851,-1.619035 -0.533487,-2.11369 -0.144098,-0.138684 -0.379896,-0.41334 -0.58679,-0.445415 -0.126495,-0.01988 -0.208259,0.09125 -0.284593,0.173468 -0.17166,0.184762 -0.351898,0.360489 -0.528524,0.541184 -0.781943,0.801837 -1.575181,1.723385 -1.807368,2.845958 m -66.720374,-3.252523 -1.008394,1.897305 -0.1661,1.084175 1.761743,-0.22587 c -0.127298,0.73995 -0.611551,1.273905 -1.310015,1.525073 -0.385551,0.138684 -0.849432,0.154494 -1.172553,-0.134168 -0.22505,-0.201475 -0.366895,-0.513627 -0.434337,-0.803643 -0.282421,-1.215181 0.579839,-2.245146 1.516544,-2.903782 0.253104,-0.177985 0.513661,-0.352809 0.813112,-0.43909 m 60.802724,5.466046 c -0.145005,0.348292 -0.566469,0.870051 -0.472058,1.264872 0.102544,0.427796 0.81763,0.777894 0.65049,1.264869 -0.17527,0.510466 -0.952696,0.440897 -1.23864,0.08854 -0.746708,-0.920645 0.129195,-2.27767 1.060208,-2.618282 m -21.140917,4.878786 h -0.04517 c -0.140488,-0.499171 -0.204182,-1.013703 -0.420559,-1.49074 -0.241677,-0.532149 -0.67127,-0.9997 -0.558337,-1.626262 0.06008,-0.333383 0.352799,-0.558801 0.617512,-0.73769 0.111577,-0.07544 0.289559,-0.149978 0.355963,-0.273302 0.07137,-0.131909 0.0059,-0.376752 0.0054,-0.524922 0.400683,-0.0777 0.828019,-0.217738 1.219668,-0.03659 0.444049,0.205541 0.733607,0.946394 0.300851,1.317272 -0.32886,0.281433 -0.902554,0.204185 -1.294656,0.341063 -0.137325,0.04788 -0.361834,0.133715 -0.394359,0.296341 -0.02981,0.149977 0.07408,0.342871 0.130098,0.476134 0.150425,0.356873 0.385326,0.702454 0.466637,1.084174 0.09938,0.466196 -0.170302,0.790995 -0.383067,1.174522 m 17.346394,-4.24635 c -0.272844,0.632436 -0.868223,0.978919 -1.445534,1.296041 -0.250708,0.137779 -0.769746,0.316668 -0.875902,0.603071 -0.177982,0.479295 0.668107,0.377202 0.921076,0.351906 0.456246,-0.04563 0.816725,-0.275111 1.219668,-0.467099 0.510905,-0.243939 1.024973,-0.449481 1.581051,-0.564223 v 0.04517 c -0.987027,0.751242 -1.770326,1.868847 -3.11693,1.895046 -0.557434,0.0104 -1.477606,-0.13281 -1.716119,-0.720523 -0.282782,-0.697034 0.713733,-1.459571 1.26439,-1.671436 v -0.04518 l -1.038977,-0.09035 c 0.154943,-0.271949 0.347831,-0.553834 0.587249,-0.758472 0.77607,-0.662702 1.828598,-0.203734 2.620028,0.126036 m 18.837121,4.156 c -0.265608,-0.498721 -0.110225,-1.15013 -0.470692,-1.626262 -0.329325,-0.435478 -0.85559,-0.586359 -1.291043,-0.881796 -0.205988,-0.14004 -0.419216,-0.333835 -0.378547,-0.608944 0.13189,-0.883603 1.311821,-0.379011 1.680876,0.0041 0.800017,0.830749 0.914305,2.087036 0.459406,3.112937 m 12.783932,-3.07185 c -0.36183,0.760278 -1.13248,0.938714 -1.85209,1.211114 -1.03537,0.392109 -2.08834,0.735432 -3.11693,1.146966 -0.7851,0.313958 -1.59324,0.735432 -2.43934,0.84927 l -0.18069,-0.45174 c 1.33982,-0.705164 2.70495,-1.298751 4.11074,-1.861166 1.13971,-0.455806 2.23741,-0.894444 3.47831,-0.894444 M 93.978735,88.739265 h 5.194886 3.523489 c 0.73858,0 1.63706,-0.0085 2.30382,0.356873 1.06472,0.583644 0.92604,2.097425 0.78013,3.121518 -0.0637,0.446321 -0.159,0.982979 -0.55608,1.260357 -0.47658,0.332474 -1.23367,0.327506 -1.75994,0.119259 -0.27735,-0.109783 -0.45624,-0.334745 -0.76793,-0.340619 -0.61706,-0.01127 -1.23503,0 -1.85209,0 -0.33609,0 -0.70695,-0.04427 -1.038972,0.0068 -0.198306,0.03027 -0.329309,0.189739 -0.496899,0.285505 -0.229038,0.130101 -0.506392,0.17888 -0.767954,0.17888 -0.26064,0 -0.539804,-0.04787 -0.767936,-0.17888 -0.14094,-0.08132 -0.250703,-0.235804 -0.410611,-0.277822 -0.426438,-0.112481 -1.000594,-0.01451 -1.441475,-0.01451 -0.341499,0 -0.910225,-0.108417 -1.21966,0.04653 -0.473867,0.236709 -0.81989,1.123478 -1.445539,0.71646 -0.35461,-0.230391 -0.998766,-0.774271 -0.884478,-1.259896 0.0926,-0.392557 0.532121,-0.562422 0.702427,-0.903485 0.110685,-0.220898 0.04652,-0.571453 0.04652,-0.813131 -4.725982,0 -9.455131,0.04518 -14.184282,0.04518 -4.139645,0 -8.282903,-0.04924 -12.422548,0 -6.830143,0.08132 -13.678354,0.08132 -20.508496,0 -2.46983,-0.02937 -4.942819,0.01943 -7.408356,-0.08854 -1.482711,-0.06505 -2.952411,-0.05014 -4.426945,-0.260645 -1.200379,-0.171658 -2.383999,-0.458068 -3.43314,-1.087334 -0.383427,-0.229947 -0.81659,-0.503688 -1.084149,-0.867339 h 63.513092 c 0,-0.243948 0.06551,-0.599011 -0.07227,-0.812687 -0.254323,-0.392113 -0.926956,-0.644188 -0.678951,-1.220149 0.157654,-0.365905 0.691141,-0.980726 1.112611,-1.026807 0.172115,-0.01897 0.318928,0.07951 0.451723,0.175738 0.301752,0.218628 0.841129,0.659537 0.838859,1.076936 -0.0019,0.411986 -0.516773,0.662251 -0.734046,0.948661 -0.165798,0.218645 -0.104813,0.553834 -0.104813,0.813131 m 0,2.303862 0.04653,0.800036 0.314864,0.303569 0.410628,0.360031 0.537994,0.02711 h 1.038991 l 1.038974,-0.01451 0.451723,-0.302221 0.722761,-0.180246 0.722778,0.180246 0.496899,0.309904 0.948616,0.0068 h 1.89727 c -0.16217,-0.511833 -0.0411,-0.974408 0,-1.490749 z"
     id="path939" />
</svg>
