<svg xmlns="http://www.w3.org/2000/svg" width="512" height="512" fill="none"><g clip-path="url(#a)"><path fill="#FFDA44" fill-rule="evenodd" d="M198.2 6.6c10.7-2.5 21.7-4.3 33-5.4L263 256l-31.9 254.8c-11.2-1-22.2-2.9-33-5.4L167 256 198.2 6.6Z" clip-rule="evenodd"/><path fill="#496E2D" fill-rule="evenodd" d="M165 16.7a254 254 0 0 1 34-10.3v499.2c-11.7-2.6-23-6-34-10.3L135 256l30-239.3Z" clip-rule="evenodd"/><path fill="#0052B4" fill-rule="evenodd" d="M256 512A256 256 0 1 0 231 1.2v509.6c8.2.8 16.6 1.2 25 1.2Z" clip-rule="evenodd"/><path fill="#D80027" fill-rule="evenodd" d="M167 496.1A256.1 256.1 0 0 1 167 16v480Z" clip-rule="evenodd"/><path fill="#D80027" d="m199 132-11 16 11 16a92 92 0 0 1 0 184l-11 16 11 16a124 124 0 1 0 0-248Z"/><path fill="#0052B4" d="M199 132a124 124 0 1 0 0 248v-32a92 92 0 0 1 0-184v-32Z"/></g><defs><clipPath id="a"><path fill="#fff" d="M0 0h512v512H0z"/></clipPath></defs></svg>