<svg xmlns="http://www.w3.org/2000/svg" width="512" height="512" fill="none"><g clip-path="url(#a)"><path fill="#496E2D" d="M437 75 224 224 75 437a256 256 0 0 0 437-178.2v-5.7A255.2 255.2 0 0 0 437 75Z"/><path fill="#0052B4" d="M437 75 75 437A256 256 0 0 1 437 75Z"/><path fill="#FFDA44" d="M447.9 86.8 86.5 448c-8-7-15.5-14.6-22.6-22.6L425.3 64c8 7 15.5 14.6 22.6 22.7Z"/></g><path fill="#EEE" d="m97.4 92.3 5.5 17h17.9l-14.5 10.5 5.5 17-14.4-10.5-14.5 10.5 5.5-17L74 109.3h17.9l5.5-17Zm91.3 0 5.5 17h18l-14.5 10.5 5.5 17-14.5-10.5-14.5 10.5 5.6-17-14.5-10.5h17.9l5.5-17Zm-91.3 89 5.5 17h17.9l-14.5 10.5 5.5 17-14.4-10.5-14.5 10.5 5.5-17L74 198.3h17.9l5.5-17Zm91.3 0 5.5 17h18l-14.5 10.5 5.5 17-14.5-10.5-14.5 10.5 5.6-17-14.5-10.5h17.9l5.5-17ZM143 136.8l5.6 17h17.9L152 164.3l5.5 17-14.5-10.5-14.4 10.5 5.5-17-14.5-10.5h18l5.4-17Z"/><defs><clipPath id="a"><path fill="#fff" d="M0 0h512v512H0z"/></clipPath></defs></svg>