<svg xmlns="http://www.w3.org/2000/svg" width="512" height="512" fill="none"><path fill="#0052B4" fill-rule="evenodd" d="M44.3 400a256.1 256.1 0 0 1 156-394l-156 394Z" clip-rule="evenodd"/><path fill="#FFDA44" fill-rule="evenodd" d="M165.1 16.6A255.4 255.4 0 0 1 358 21L63.6 424.8a265 265 0 0 1-24-31.8L165.2 16.6Z" clip-rule="evenodd"/><path fill="#D80027" fill-rule="evenodd" d="M333.4 12a256.4 256.4 0 0 1 173.7 193.7l-412.4 249a257.6 257.6 0 0 1-34.2-33.4L333.4 11.9Z" clip-rule="evenodd"/><path fill="#EEE" fill-rule="evenodd" d="M478.7 382.4a254.8 254.8 0 0 0 21.4-203.8l-409.4 273a256.7 256.7 0 0 0 36.8 25.9l351.2-95.1Z" clip-rule="evenodd"/><path fill="#6DA544" fill-rule="evenodd" d="M495.4 346.9A256.1 256.1 0 0 1 119 472.3L495.4 347Z" clip-rule="evenodd"/></svg>