<svg xmlns="http://www.w3.org/2000/svg" viewBox="0 0 512 512"><circle cx="256" cy="256" r="256" fill="#eee"/><path d="M428.809 67.137C383.269 25.445 322.608 0 256 0c-10.904 0-21.649.687-32.195 2.01L100.174 144.696 8.101 320.131c5.948 23.061 15.042 44.855 26.775 64.917L256 256 428.809 67.137z" fill="#ffda44"/><path d="M469.131 397.838l-358.168 69.12C152.192 495.359 202.15 512 256 512c88.921 0 167.24-45.343 213.131-114.162z" fill="#6da544"/><path d="M428.845 67.171L35.022 385.296a256.962 256.962 0 0 0 36.681 48.368L512 256c0-74.759-32.051-142.027-83.155-188.829z" fill="#d80027"/><path d="M0 256c0 22.147 2.814 43.636 8.101 64.131L223.805 2.01C97.618 17.844 0 125.52 0 256z" fill="#0052b4"/></svg>