<svg xmlns="http://www.w3.org/2000/svg" width="512" height="512" fill="none"><g clip-path="url(#a)"><path fill="#026" d="M512 256a256 256 0 1 1-512 0L256 0a256 256 0 0 1 256 256Z"/><path fill="#026" d="M256 0v256H0A256 256 0 0 1 256 0Z"/><path fill="#EEE" d="M217.6 256H256v-38.4L140.7 102.3H256V0A256 256 0 0 0 0 256h102.3V140.7L217.6 256Z"/><path fill="#D80027" d="M256 76.6V25.4H144.7A257 257 0 0 0 25.4 144.7V256h51.2V76.6H256Z"/><path fill="#D80027" d="M256 230.4V256L102.2 102.2H128l128 128.2Z"/><path fill="#EEE" d="m336 204 48-80 48 80h-96Z"/><path fill="#EEE" fill-rule="evenodd" d="M296.7 358.6c3.7 2.1 7.5 4.1 11.4 6l.5.2-1.3 3-1.2 2.7 2.8 1.3a182.7 182.7 0 0 0 150.3 0l2.8-1.3-1.3-2.8-1.3-2.9.6-.3c3.9-1.8 7.7-3.8 11.4-6l4.6-2.5-4.6-2.8c-3.2-1.9-6.4-4-9.5-6-.1-4.1-.4-8.2-.7-12.1l-.5-4.8-4.2 2.3a149 149 0 0 1-11.6 6l-6.2 2.8 1.8 5a150.6 150.6 0 0 1-113.2-.2l2-4.8-6.2-2.8c-3.9-1.8-7.8-3.8-11.6-6l-4.2-2.4-.4 4.9c-.3 4-.5 8-.6 12.1a184 184 0 0 1-9.7 6L292 356l4.7 2.7Z" clip-rule="evenodd"/><path fill="#338AF3" d="M384 252a48 48 0 1 0 0-96 48 48 0 0 0 0 96Z"/><path fill="#338AF3" d="M336 204v48l48 32 48-32v-48h-96Z"/><path fill="#FF9811" d="M336 204a16 16 0 1 0-32 0v96a16 16 0 1 0 32 0v-96Zm128 0a16 16 0 1 0-32 0v96a16 16 0 1 0 32 0v-96Z"/><path fill="#EEE" d="M336 252v29c0 36 48 48 48 48s48-12 48-48v-29h-96Zm48-48-16 48h32l-16-48Z"/><path fill="#338AF3" d="m368 252 16 48 16-48h-32Z"/></g><defs><clipPath id="a"><path fill="#fff" d="M0 0h512v512H0z"/></clipPath></defs></svg>