<svg xmlns="http://www.w3.org/2000/svg" xmlns:xlink="http://www.w3.org/1999/xlink" viewBox="0 0 100 100"><defs><clipPath id="clip-path"><path fill="none" d="M56.7 44.6s18-7.4 37.8.4c0 0 5.3 41.9-19 48.4 0 0-22.5-2.8-18.8-48.8z"/></clipPath></defs><mask id="a"><circle cx="50" cy="50" r="50" fill="#fff"/></mask><g mask="url(#a)"><polygon fill="#00247d" points="100.03 0 41.23 0 41.23 5.33 41.24 5.31 41.24 15.31 41.23 15.31 41.23 18.34 41.23 18.34 41.23 27.52 41.23 27.52 41.23 30.61 41.24 30.61 41.24 40.61 41.23 40.6 41.23 42.27 41.24 42.28 41.24 45.88 41.23 45.87 41.23 45.89 33.08 45.89 33.16 45.95 32.94 45.96 13.65 45.96 13.65 45.89 0 45.89 0 100 100.03 100 100.03 0"/><rect width="2.57" height="18.34" fill="#fff"/><polygon fill="#fff" points="18.41 15.27 13.68 15.27 13.68 14.75 36.02 0 33.13 0 13.65 13.01 13.65 0 10.86 0 10.86 18.34 41.23 18.34 41.23 15.31 26.2 15.31 41.23 5.33 41.23 0 41.2 0 18.41 15.27"/><polygon fill="#fff" points="10.86 45.89 2.57 45.89 2.57 27.52 0 27.52 0 45.89 13.65 45.89 13.65 32.91 33.08 45.89 41.23 45.89 41.23 45.87 18.09 30.6 23.61 30.6 41.23 42.27 41.23 40.6 26.2 30.61 41.23 30.61 41.23 27.52 10.86 27.52 10.86 45.89"/><rect width="0.01" height="9.18" x="41.23" y="18.34" fill="#ce1124"/><polygon fill="#ce1124" points="10.86 0 2.57 0 2.57 18.34 0 18.34 0 27.52 2.57 27.52 2.57 45.89 10.86 45.89 10.86 27.52 41.23 27.52 41.23 18.34 10.86 18.34 10.86 0"/><polygon fill="#ce1124" points="41.24 45.88 41.24 42.28 41.23 42.27 41.23 45.87 41.24 45.88"/><polygon fill="#ce1124" points="18.09 30.6 41.23 45.87 41.23 42.27 23.61 30.6 18.09 30.6"/><polygon fill="#00247d" points="41.24 15.31 41.24 5.31 41.23 5.33 41.23 15.31 41.24 15.31"/><polygon fill="#00247d" points="41.23 15.31 41.23 5.33 26.2 15.31 41.23 15.31"/><polygon fill="#00247d" points="33.13 0 13.65 0 13.65 13.01 33.13 0"/><polygon fill="#ce1124" points="13.68 15.27 18.41 15.27 41.2 0 36.02 0 13.68 14.75 13.68 15.27"/><polygon fill="#00247d" points="41.24 40.61 41.24 30.61 41.23 30.61 41.23 40.6 41.24 40.61"/><polygon fill="#00247d" points="41.23 40.6 41.23 30.61 26.2 30.61 41.23 40.6"/><polygon fill="#00247d" points="13.65 45.96 32.94 45.96 33.16 45.95 33.08 45.89 13.65 45.89 13.65 45.96"/><polygon fill="#00247d" points="13.65 45.89 33.08 45.89 13.65 32.91 13.65 45.89"/><g clip-path="url(#clip-path)"><path fill="#fefefe" d="M47.7 67.4V40.2c0-.4 0-.5.5-.5h54.4c.6 0 .6.1.6.6v54.3c0 .5 0 .6-.5.6H48.2c-.5 0-.5-.1-.5-.6V67.4zm37 20.7c.1 0 .2 0 .1-.1.3 0 .3-.1.4-.3a.1.1 0 0 0 .2-.1 3.2 3.2 0 0 0 1-1c.2-.2.4-.3.4-.6h.1c.4-.4.8-.6 1-1.2v-.1a24.5 24.5 0 0 0 2-2.8 3.5 3.5 0 0 0 1-1.9c.2 0 .2-.2.2-.4a3.7 3.7 0 0 0 .5-1c.1-.2 0-.3-.2-.2-.3-.3 0-.6 0-.9.3 0 0-.6.5-.6 0 .5-.3.8-.2 1.4a21.5 21.5 0 0 0 1.3-3.7l.2-.5c0-.2-.3 0-.5 0a3.1 3.1 0 0 1 .2-1.2c0-.2 0-.6.4-.6l-.3 1.2s-.2.2 0 .2h.1a2 2 0 0 0 .3-1.5.1.1 0 0 1 0-.2c.1 0 .3 0 .3-.2s-.3-.2-.4-.2a5.7 5.7 0 0 1 0-.8 69.7 69.7 0 0 0 .8-10c.5.2.1.6.3.8v2.7h.2V55l-.1-6.2V46c0-.4.1-.8-.2-1.2 0-.2 0-.4-.2-.4s-.3.2-.3.4l-.3-.1c.1-.5.1-.8-.5-.5a.2.2 0 0 0 0-.1 6.6 6.6 0 0 0-3.4-1.1c0-.1 0-.3-.2-.3s0 .4 0 .6l-1.8-.5c0-.1.4 0 .4-.3s-.2-.2-.3-.2-.4-.2-.6 0 .4.2.3.5l-2-.4.4-.1h.8a.8.8 0 0 0-.6-.3l-1.5-.2-2-.3a12.3 12.3 0 0 0-2.9-.2 11.6 11.6 0 0 0-2.6-.2 19.2 19.2 0 0 0-2.5 0 33.4 33.4 0 0 0-5.8.4l-2.1.3h-.3c-.2 0-.4 0-.4.2a7.7 7.7 0 0 0-3.2.6c-.2 0-.6.1-.3.5l-1.1.3a.3.3 0 0 0-.3-.1c0-.2-.2-.3-.4-.2a10 10 0 0 0-2 .8c-.7-.1-.4.3-.3.5l-.3.2c0-.5 0-.5-.3-.3-1 0-1.2.2-1.1 1.2v4.3l-.1 6v2.5h.2V44.8l.3.1-.1 12.9c0 .5 0 .8.7.8h35.6c.7 0 .8-.2.8-.8l-.2-12.4a.8.8 0 0 0 0-.6h.3v8.8a.4.4 0 0 0 0 .5v4.6H56.8c-.4-.3-.4 0-.4.2v2l.2 3a50.6 50.6 0 0 0 .8 7.2 31.5 31.5 0 0 0 4 11.2 11.2 11.2 0 0 0 1.1 1.7l.5.6.6.8a3 3 0 0 0 .7.8h.2q-.1.2.1.2c0 .1 0 .2.2.1-.1.2 0 .2.1.3l.2.1a.1.1 0 0 0 0 .2.1.1 0 0 0 .2.1.1.1 0 0 0 .2.2.1.1 0 0 0 .1 0 .1.1 0 0 0 .2.2c0 .2.1.4.4.3l.1.2c0 .2.1.2.3.2a2 2 0 0 0 .3.4 31.7 31.7 0 0 0 4 2.8 3.4 3.4 0 0 0 1.5.8 13.6 13.6 0 0 0 2.3 1l.1.2a.9.9 0 0 0 .9.3 5.4 5.4 0 0 0 1.7-.8 16.1 16.1 0 0 0 2.8-1.4v-.2l.5-.2a2.8 2.8 0 0 0 1.5-1 4 4 0 0 0 1.2-.9c.6 0 1-.6 1.3-1zm9.3-18v-1.9a21.3 21.3 0 0 0 .5-3.6h-.3L94 68a.3.3 0 0 0 0 .4l-.3 1.7c-.1.1-.2.3 0 .4s.3-.2.3-.4zm-.2 1-.1-.2c-.1 0-.3 0-.3.2s0 .2.2.2.2 0 .2-.3zm-4.7-28.3-.1-.1-.1.1v.2zm-.6-.1c0-.1 0-.2-.1-.1a.2.2 0 0 0-.1.1l.1.1v-.1zm-26.8.3a.6.6 0 0 0 0-.1.3.3 0 0 0-.2 0v.1c0 .1.1 0 .2 0zm32.7 21.5z"/><path fill="#a67c52" d="M93.8 44.8a.8.8 0 0 1 .1.6l.2 12.4c0 .6-.1.8-.8.8H57.7c-.7 0-.8-.3-.8-.8 0-4.3.3-8.6.2-12.9h.2l.4-.3h.2l.3-.2 3-1 1.2-.3h.6l.1-.1a59.4 59.4 0 0 1 10.3-1.3 61.7 61.7 0 0 1 11.1.6 2.2 2.2 0 0 0 1 .2l1.8.4h.2l1.8.4 4.2 1.4.2.1zM71.7 56.3l.1.1c0 .4-.4.9 0 1.4.3-.5.4-1 .9-1.2 0 .8 0 .8.4 1 0-1.4.3-1.5 1.5-1 .3.2.2 0 .2-.2l.1-.1c.5.2.8-.4 1.3-.1-.5.4-1.1.7-1 1.7.4-.6.7-1 1.2-1.1.2 1 .2 1 .6 1.1-.1-1.5.1-1.7 2-.8 0-.8-.5-1-1.1-1.2-.2 0-.6 0-.4-.5l.7-2.7c0-.2.1-.3.3-.4a2 2 0 0 1 1.7.1l1.8 1a2.4 2.4 0 0 0 2.2.5 5.8 5.8 0 0 0-1.9-2.4c.5 0 1 .1 1.3-.1-.3-.4-.7-.4-1-.5 0-.2.1-.2.2-.2a1.5 1.5 0 0 0 .3-.2c.2-.1.4-.2.4-.4s-.3-.1-.5-.1a2.5 2.5 0 0 0-.6 0 6.5 6.5 0 0 1-4.6-1.6 5.8 5.8 0 0 1-2.6-3.4 1.5 1.5 0 0 0-1.1-1 2.4 2.4 0 0 0-2.2.2 3.4 3.4 0 0 1-2 .4 1.7 1.7 0 0 0-1.3.4l1.3.4a2 2 0 0 1 1.6 2.3 4.4 4.4 0 0 0 1.5 4c.8.7 1.3 1.1.9 2.3-.3 1-.4 1.4-1.4 1.4-1.2 0-1.7.6-1.7 1.7.3-.3.4-.7.9-.8z"/><path fill="#356cc8" d="M83.3 89.2a4 4 0 0 1-1.2 1 3 3 0 0 0-1.5 1h-.4l-2.8 1.5-.2.2a.8.8 0 0 0-.5 0 2.5 2.5 0 0 1-2 .4h-.1a13.6 13.6 0 0 1-2.3-1.1 2.1 2.1 0 0 0-1.5-.8 31.7 31.7 0 0 1-4-2.9 2 2 0 0 1-.3-.4s0-.2-.3-.2c0-.1 0-.2-.1-.1 0-.2-.2-.4-.4-.3v-.2h-.2v-.1h-.1V87h-.2v-.1H65v-.2h-.1c0-.2 0-.3-.2-.3l-.2-.1-.1-.2-.1-.1c0-.3-.4-.5-.4-.7l1.4-.3c.4 0 .9-.4 1.4-.2 0 0 .3 0 .4-.2.4-.6.8-.4 1 .1.3.3.5 0 .7 0s.2-.1.2-.3a4.1 4.1 0 0 0-.6-2.3c.1-.7.1-1.2-.7-1.4 0-.5-.4-.5-.8-.4a.3.3 0 0 0-.1-.4l-.2-.2.1-.4c.6-.3 1.2-.7 2-.1.1.2.3 0 .6 0-.3.7-1 .4-1.5.8.3.3.7.5 1.2.2.2-.1.6 0 .7.2.1.5.5.5.8.8a1.6 1.6 0 0 0 1.6 0c-.5-.2-1.2.1-1.8-.6a1.8 1.8 0 0 0 1.9-.3h.3c.7.6 1.4 1 2.4.5a2 2 0 0 1 1.4 0 16.4 16.4 0 0 0 2.9.3 25.1 25.1 0 0 0 4.1-.1c1.5-.1 3 0 4.3-.2.6 0 1.3.3 1.6-.4h.1c.3.2.6 0 .9 0h.1l-.3.7-.1.2c-.7.1-1 .8-1.3 1.3a1.3 1.3 0 0 1-1 .8l.3-.8a5.9 5.9 0 0 1-3-.3 1.6 1.6 0 0 0-.8-.2c0-.2 0-.2-.3-.2a2.6 2.6 0 0 1-1.6-.4.2.2 0 0 0-.3 0c.1.4.5.3.7.5-.4 0-.8.4-1 .3a12.7 12.7 0 0 0-1.9.1c0-.3.3-.2.5-.3a1.3 1.3 0 0 0 .9-.7 3.7 3.7 0 0 1-2.6.6c.4-.3 1 0 1.4-.5h-.6a9.5 9.5 0 0 1-2.3.1 3.3 3.3 0 0 0-1.6.1 1 1 0 0 1-.9 0c-.5-.5-1.2-.2-2-.5.4.5.8.2 1 .5-.3.5-.7 0-1 .2.7.8 1.7 0 2.4.7 0-.3-.2-.3-.2-.4V82a1.1 1.1 0 0 0 .7 0c1-.6 2 .1 3.1 0v.3c-.5.2-1 0-1.6.2l.2.1a3.5 3.5 0 0 0 1.9 0c1.5-.2 3 .7 4.6.2 0 0 .1 0 0 .2l-.4.2c-.2 0-.5 0-.5.3s.4.1.6 0a2.2 2.2 0 0 1 1.3 0 3.9 3.9 0 0 1-1.3.5 5.4 5.4 0 0 0 2.7 0c-.4-.4-.9 0-1.5-.2 1-.4 2-.1 3-.4a2.2 2.2 0 0 0 .2.4c.2.5-.4.7-.3 1l-.6 1-.1.2c-.3.1-.5.2-.4.6a1.3 1.3 0 0 0-1 1H85v.1c-.3 0-.4.1-.4.3-.1 0-.2 0-.1.2h-.2a2.5 2.5 0 0 0-1 1zM70 82.4c.7.8 1.7 1 2.1.5a4.3 4.3 0 0 1-2-.6c.3-.3.8-.1 1-.5a2.8 2.8 0 0 0-1.8.6 1.2 1.2 0 0 0 .7 0zm5.4 1 .1-.4a5.7 5.7 0 0 1-2.6 0c.2.5.6.3 1 .6-1.3.3-2.5 0-3.7.2 1.1-.1 2.3.3 3.4.2.5 0 1-.4 1.4-.3-.4.4-1 .4-1.6.6a1.4 1.4 0 0 0 1.1 0 3.2 3.2 0 0 1 2.5-.5c-.5-.3-.9-.8-1.6-.4zm6.4 4.2c0-.4-.3-.3-.5-.3H80c.3-.3.7-.2.9-.5a4.6 4.6 0 0 0-2.6 0c.8.3 1.4 1 2.2 1s1.5.7 2.4.2c-.5-.2-.8-.5-1.2-.4zm-9 3.4a1 1 0 0 0 .3.2 6.8 6.8 0 0 0 2.7.5h1c-.2.3-.6.3-.7.7a20.6 20.6 0 0 0 2.5-.8c-.2-.1-.6 0-.8-.3.9-.4 2.3 0 2.6-1.4a10.1 10.1 0 0 1-2 .1c.1-.2.3-.4-.2-.4a1.6 1.6 0 0 1-1.2-.7c1.3.5 2.7-.2 4 0l-.3.4h1.5c-.3-.3-.3-.3 0-.7-1.1.2-2.2-.2-3.3-.1a2 2 0 0 1-1.2-.2c-1-.6-1.6-.2-2.4.1a2 2 0 0 0-.3.2c.2.8-.5.3-.7.5H74c0 .2-.2.5-.4.3s-.4-.2-.6-.2c-.9-.3-1.5.5-2.3.5.6.5 1.3.2 2 .3s1.4-.2 2.2-.1c0 .2-.4.1-.4.4a6.2 6.2 0 0 1 1.2.1c.5.1.2.7.6.8-.2.4-.5.2-.8.2-.9-.3-1.8-.2-2.7-.4zm2.8-3.4c-.2-.1-.4 0-.7-.2 1 0 1.3-1.2 2.3-1 0-.3-.3-.2-.2-.5a4.7 4.7 0 0 0 2.9.1c.5-.2 1 .1 1.5.1-.1.3-.4.1-.5.3a4.5 4.5 0 0 0 2.5.4c-.4.4-.8.2-1 .6a3.2 3.2 0 0 1 1.3 0c.5 0 1.2.3 1.4-.7h-.4c-.5 0-1.2.5-1.3-.5h-1c-.3 0-.4 0-.4-.3s.3-.2.4-.3h.4a14.3 14.3 0 0 0 3.8-.2c-.8-.8-1.8-1.4-3-.5.1.2.5.2.5.5a3.4 3.4 0 0 1-2.1-.7c0 .4.3.4.3.7-.4 0-.9 0-.9-.4s-.2-.4-.4-.5l-.6-.3c-.6-.1-1.2-.8-1.8-.5a2.5 2.5 0 0 1-2.2.3c.2.6.9.2 1.2.6l-.9.4a1 1 0 0 0 1-.2c.7-.5 1-.5 2.4.9-.5.1-1-.3-1.4 0-.6.5-1.1.2-1.7 0a1.4 1.4 0 0 0-1 0 4.3 4.3 0 0 1-2.8.2 2.9 2.9 0 0 0-1 0H72l.3.3-.5.1c-.1 0-.5 0-.6.3a.5.5 0 0 0 .5.6l1 .4c.4.1.2.2.2.5l-.5.4a4.7 4.7 0 0 0 3.2-.7c.1-.1 0-.2 0-.2zM70 84.5a2.3 2.3 0 0 0 .2.2 13.1 13.1 0 0 0 3.7 1c.2 0 .8 0 .6-.6 0-.2 0-.3.2-.3s.4-.2.3-.4-.3 0-.5 0a5.1 5.1 0 0 1-3.2.4zm15.6-2.7a3 3 0 0 0 3.5-.6c-1.1.5-2.4-.3-3.5.5zm-13.8 7c-.5-.9-1.2-.8-2.5-.6-.5.1-.1.5-.3.7a5.5 5.5 0 0 1 2.8 0zm-6-3.1c.5.3 1 0 1.4.2s.9-.1 1.3-.2c-1-1-1.8 0-2.8 0zm1 .8a1.9 1.9 0 0 0 2.7.4l-1 .2c-.3.1-.6 0-.7-.2-.2-.5-.6-.5-1.1-.4zm1.8-.4a2.3 2.3 0 0 0 2.6-.4 6.5 6.5 0 0 1-2.6.4zm16.8-4.6a2.5 2.5 0 0 0-2 0 5.3 5.3 0 0 0 2 0zm-16.9 6.3c.6.1 1.2.4 1.7-.1-.5 0-1.1-.2-1.7 0z"/><path fill="#8ec5fd" d="M91.8 77c-.4 0-.2.5-.5.6h-.2l-.2-.5A.7.7 0 0 1 91 76c.4-.2.2-.5.2-.8s-.3-.3-.6-.3L89 75c-.6.1-.7-.2-.4-.6.6.1 1.1.4 1.7-.2l.3-.1.7.1c.4 0 .7 0 .8-.5a1.2 1.2 0 0 0 0-.9v-.7c.5-.1.3-.5.3-.8s.1-.6-.1-.7-.5 0-.7.3-.4.1-.5.3l-.8-.2c-.3 0-.6-.2-1-.1-.6-.5-.4.2-.6.4a.6.6 0 0 1-.6-.1c0-.2 0-.4-.3-.4s0-.5-.3-.6l-.6-2.2c.4-.1.3-.5.4-.7 0-.6-.4-.2-.6-.3a18.3 18.3 0 0 1-1-3.7c.2-.2.4 0 .5 0a.8.8 0 0 0 1.1-1l.2-.1c0-.4-.4-.3-.6-.3a4.4 4.4 0 0 1-1.7-.2l-.4-.4-.2-.2a9 9 0 0 0-.1-1.6v-.1h8c1.6 0 1.6 0 1.7 1.5a69.7 69.7 0 0 1-.9 9.9 5.7 5.7 0 0 0 0 .8c-.2.2-.2.3 0 .5h.1c-.1 0-.2 0-.2.2h.1c-.4 0-.3.4-.4.6a3.1 3.1 0 0 0-.1 1.2c-.4.3-.3.7-.4 1l-.1.4a4.2 4.2 0 0 0-.5 1.4l.1.1z"/><path fill="#272727" d="M94 60.9c.2 0 .3 0 .3-.2v-1.3c0-.4-.2-.3-.4-.3H79.6l-.4.1v.3l-.2-.1c-.1-.5-.5-.3-.7-.3H57.2c-.4 0-.6 0-.5.5a11.6 11.6 0 0 1 0 1.3h-.2v-2c0-.1-.1-.5.2-.1h37.6V55h.2v6.6h-.2c0-.2.3-.6-.2-.7z"/><path fill="#111109" d="M61.5 82.4a31.5 31.5 0 0 1-4-11.2 50.6 50.6 0 0 1-1-7.2h.2l.1.5.6 5.3a38.6 38.6 0 0 0 2 8 47.3 47.3 0 0 0 2.2 4.5z"/><path fill="#29abe2" d="M87.4 85c-.1-.5.5-.7.3-1.2a2.2 2.2 0 0 1-.2-.4 1.3 1.3 0 0 0 1.2-.8c.2-.5.5-1.2 1.2-1.3 0 .2-.4.3-.1.6a24.5 24.5 0 0 1-2 2.8v.1z"/><path fill="#8fc5f9" d="M91.1 77.6h.2c0 .3-.3.5 0 .8a.7.7 0 0 1-.3.6.5.5 0 0 0-.4.2c0 .4-.4.8-.4 1.2-.3 0-.6.1-.8 0 .2-.5.2-1 .8-1 .2 0 .3-.3.3-.5a5 5 0 0 1 .6-1.3z"/><path fill="#f3f3ef" d="m93.5 44.7-4.2-1.4c.1-.2-.2-.4 0-.5s.2 0 .3.2a20.2 20.2 0 0 0 3.3 1 .2.2 0 0 1 0 .1c.7-.2.7.1.6.6z"/><path fill="#111109" d="M68.7 41.5a33.4 33.4 0 0 1 5.8-.3.1.1 0 0 0 0 .1h-1.3l-2 .1H71l-2.4.3z"/><path fill="#272727" d="M92.2 75.5v-.3c.5 0 .3-.5.5-.7l.2.1a21.5 21.5 0 0 1-1.3 3.7c-.1-.6.3-.9.2-1.3.5-.3.3-.9.5-1.3a.1.1 0 0 0 0-.2.1.1 0 0 0-.1 0z"/><path fill="#3e3e3e" d="M94.3 44.8c.3.4.2.8.2 1.2v2.8h-.3v-4h.1z"/><path fill="#f3f3ef" d="m61.3 43.4-3 1c0-.3-.3-.7.3-.6.2.3.4 0 .6 0a13 13 0 0 1 1.8-.5.3.3 0 0 1 .3.1z"/><path fill="#272727" d="M77.3 93v-.2l2.9-1.5-.1.3a16.1 16.1 0 0 1-2.8 1.4z"/><path fill="#080a06" d="M94.2 48.9h.3v6h-.1v-1.2zm-37.7 6.9v-6h.3v5.9z"/><path fill="#272727" d="M93 44a20.2 20.2 0 0 1-3.4-1 6.6 6.6 0 0 1 3.3 1z"/><path fill="#111109" d="M63.2 43H63c.1-.3-.2-.2-.2-.4a7.7 7.7 0 0 1 3-.6l.2.1c-1 0-1.8.3-2.7.5-.3 0-.3 0-.1.3z"/><path fill="#272727" d="m94 68 .2-3.4h.2a21.3 21.3 0 0 1-.4 3.6c.2 0 0-.2 0-.2zM79.5 41.3a12.3 12.3 0 0 1 3 .2v.2l-3-.3z"/><path fill="#080a06" d="M56.8 45.8v2.8h-.2v-2.8z"/><path fill="#3e3e3e" d="M61 43.3a13 13 0 0 0-1.8.5c-.2 0-.5.3-.7 0a10 10 0 0 1 2.1-.7c.2-.1.4 0 .4.2z"/><path fill="#111109" d="M74.7 93.4a2.5 2.5 0 0 0 2-.4.8.8 0 0 1 .6 0 5.4 5.4 0 0 1-1.7.8.9.9 0 0 1-.9-.4z"/><path fill="#272727" d="M68.7 41.5v.2l-2.1.3v-.2zM56.5 55.8h.2v2.4h-.2z"/><path fill="#3e3e3e" d="M86.6 42.3h-.8a4 4 0 0 0-1.2-.2h-.1v-.3l1.5.3a.8.8 0 0 1 .6.3zm-12.1-1a.1.1 0 0 1 0-.1A19.2 19.2 0 0 1 77 41v.2z"/><path fill="#111109" d="M84.5 41.8v.2l-2-.3v-.2z"/><path fill="#080a06" d="M56.7 64h-.1l-.1-3h.2a25.9 25.9 0 0 1 0 3zm37.6-2.4h.3v2.7h-.3z"/><path fill="#272727" d="M89.8 82c-.3-.4.2-.5 0-.7l.2-.2.3-.6.3-.4h.1a3.5 3.5 0 0 1-1 1.8zm-9.2 9.2a3 3 0 0 1 1.5-1 2.8 2.8 0 0 1-1.5 1z"/><path fill="#3e3e3e" d="m93.7 70 .1-1.6.3-.1-.2 1.8z"/><path fill="#111109" d="M62.5 84a11.2 11.2 0 0 1-1-1.6 8.7 8.7 0 0 1 1.2 1.6z"/><path fill="#080a06" d="M77 41.3v-.2a11.6 11.6 0 0 1 2.6.2.6.6 0 0 0 0 .2c-.6 0-1.2-.3-1.8-.1h-.1z"/><path fill="#272727" d="M56.6 45.5c0-1 0-1.2 1-1.2l-.1.2c-.1 0-.3 0-.4.2s-.2 0-.2.1v.7zm34 33.8c.3.3.3 0 .4-.2a.7.7 0 0 0 .2-.6c.3-.1.3 0 .2.2a3.7 3.7 0 0 1-.5 1c-.2 0 0-.5-.3-.4zm-7.3 10a2.5 2.5 0 0 1 1.2-1h.1c-.4.3-.7.8-1.3 1zM71 91.4a2.1 2.1 0 0 1 1.5.8 3.4 3.4 0 0 1-1.5-.8zm16.5-6.6h.3c0 .5-.5.8-.9 1.2a.6.6 0 0 1 0-.2zM93.4 72a2 2 0 0 1-.3 1.5l.2-1.3v-.1z"/><path fill="#f3f3ef" d="M87.5 42.9h-.1c0-.3-.5-.2-.3-.5s.3 0 .5 0 .3 0 .3.2-.3 0-.4.3z"/><path fill="#111109" d="M85.3 87.6a1.3 1.3 0 0 1 1-1 3.2 3.2 0 0 1-1 1z"/><path fill="#3e3e3e" d="M56.6 48.5h.2v1.3h-.2z"/><path fill="#f3f3ef" d="M84.6 42a4 4 0 0 1 1.2.3l-.3.1a2.2 2.2 0 0 1-1-.1z"/><path fill="#272727" d="M64 85.3c0 .3.3.4.3.7v.2a3 3 0 0 1-.7-.8z"/><path fill="#272727" d="m63.6 85.4-.6-.8.1-.1c.3.2.6.4.6.8z"/><path fill="#f3f3ef" d="M94.3 44.8h-.5c0-.2 0-.4.3-.4s.2.2.2.4zM93.8 71c0 .2-.1.3-.3.3s-.1-.1-.1-.2l.3-.3c.2 0 0 .2 0 .2zm-31-28.4c0 .1.3.1.2.4h-.6c-.3-.3.1-.3.4-.4z"/><path fill="#272727" d="M62.5 84h.2a.8.8 0 0 1 .4.5l-.1.1z"/><path fill="#f3f3ef" d="M90.6 79.3c.4-.1.2.3.4.4 0 .2 0 .4-.3.4h-.1c0-.3.2-.5 0-.8zM57.5 44.5l.2-.2c.2-.2.2-.2.2.2l-.2.1zm35.4 30.1h-.2V74c.1 0 .3-.2.4 0s-.1.4-.2.5zm.8-4.5h.2c0 .2 0 .4-.3.3s-.1-.2 0-.3zm-.4 1.9v-.5s.3 0 .3.3-.1.2-.3.2zM66 42.1h-.1c0-.4.2-.4.4-.3v.2a.3.3 0 0 1-.3.1z"/><path fill="#111109" d="M86.3 86.6c0-.3.2-.5.4-.5 0 .3-.2.4-.4.5z"/><path fill="#f3f3ef" d="m56.9 44.8.2-.1.2.1-.2.1zm32.2-2-.2.2v-.4zm-.6-.1-.1.1h-.1a.2.2 0 0 1 0-.2h.2zM93 73.5l.1.1c0 .1 0 .2-.2.1s0-.1.1-.2zm1.3-20v.6a.4.4 0 0 1 0-.5z"/><path fill="#3e3e3e" d="M66.3 42v-.3h.3v.3z"/><path fill="#111109" d="M84.8 88c0-.2.1-.4.4-.3-.1.2-.2.4-.4.3zm-19-.4c.2-.1.3 0 .3.3-.2 0-.3-.2-.4-.3z"/><path fill="#3e3e3e" d="M56.6 45.5h.2v.3h-.2z"/><path fill="#f3f3ef" d="M94 68.3h-.2a.3.3 0 0 1 .1-.3c.2 0 .3.1.2.3z"/><path fill="#111109" d="M66.3 88c.2 0 .2.1.2.2-.1 0-.3 0-.2-.2z"/><path fill="#f3f3ef" d="M61.7 43h-.1l-.1-.1a.3.3 0 0 1 .1 0 .6.6 0 0 1 0 .1z"/><path fill="#111109" d="M64.7 86.5c.2 0 .3 0 .2.2-.1 0-.3 0-.2-.2zm10 6.8v.1z"/><path fill="#f3f3ef" d="M94.3 58.7s0 .1-.1 0zm-37.6-4.2v-.1zm.1 4.3v-.1z"/><path fill="#272727" d="M93 44.2zm-5.2 40.5z"/><path fill="#111109" d="M65 86.9h.1v.1a.1.1 0 0 1-.1-.1zm-.7-.7V86q.2 0 .2.2zm.9.8h.1v.1a.1.1 0 0 1-.1-.1zm.1.2h.1v.1a.1.1 0 0 1-.1-.1zm.1.1h.2v.1a.1.1 0 0 1-.2-.1z"/><path fill="#111109" d="M65.6 87.4h.1v.2a.1.1 0 0 1-.1-.2zm19.6.3v-.1h.1a.1.1 0 0 1-.1.1zm-20.8-1.5.2.1q-.2.1-.1-.1zm.2.1c.1 0 .2 0 .1.2s-.2 0-.1-.2zm20 1.9c0-.2 0-.2.2-.2s0 .2-.2.2zm0 .1h-.1l.1-.2z"/><polygon fill="#3e3e3e" points="86.57 42.31 86.57 42.33 86.56 42.3 86.57 42.31"/><path fill="#080a06" d="M94.4 64.5z"/><path fill="#111109" d="M86.8 86c-.1 0 0 0 0 0zm-22 .8h.2v.1l-.1-.2zm1.3 1c.1 0 .2 0 .2.2s-.2 0-.2-.1zm8.7-31.4c0 .1.1.4-.2.3-1.2-.6-1.5-.5-1.5 1-.4-.3-.4-.3-.4-1.1-.5.2-.6.7-.9 1.2-.4-.5 0-1 0-1.4 0 0 .2-.1 0-.2s0 0-.2 0c-.4.2-.5.6-.8 1 0-1.2.5-1.8 1.7-1.8 1 0 1-.5 1.4-1.4.4-1.2-.2-1.6-1-2.2a4.4 4.4 0 0 1-1.4-4.1 2 2 0 0 0-1.6-2.4l-1.3-.4a1.7 1.7 0 0 1 1.4-.4 3.4 3.4 0 0 0 2-.5 2.4 2.4 0 0 1 2.2-.1 1.5 1.5 0 0 1 1.1 1 5.8 5.8 0 0 0 2.6 3.4 6.5 6.5 0 0 0 4.7 1.6 2.5 2.5 0 0 1 .4.1l.5.1-.4.4a1.5 1.5 0 0 1-.3.2c-.1 0-.2 0-.3.2.4.2.8.2 1.1.5-.4.2-.8 0-1.3.2a5.8 5.8 0 0 1 1.9 2.4 2.4 2.4 0 0 1-2.2-.6l-1.8-1a2 2 0 0 0-1.7 0c-.2 0-.2.1-.3.3l-.7 2.7c-.2.4.2.4.4.5.6.2 1 .4 1.2 1.1-2-.8-2.2-.7-2.1 1-.4-.2-.4-.2-.6-1.3-.5.2-.8.6-1.2 1.1-.1-1 .5-1.2 1-1.6-.5-.3-.8.3-1.3 0 .2-.6.7-.7 1.3-.7.3 0 .5 0 .6-.3.3-.7.5-1.5-.1-2.1-.2-.2-.2-.6-.6-.5s-.4.3-.5.6-.2.7-.4.7c-.7 0-.6.7-1 1-.5.6.3.8.4 1.1l.2.4zM74.1 45a.3.3 0 0 0-.3.3c0 .4.4.2.5.3l.2.3a1.4 1.4 0 0 0 .6.9c0 .3.2.6-.4.6-.2 0-.5 0-.1.3.2.2-.2.2-.1.4 0-.2-.2 0-.3 0a.1.1 0 0 0 .2 0c.2 0 .6-.3.6.1s-.3.1-.4.2a1.8 1.8 0 0 1-.6.2c-.3.1-.3.3 0 .5l1-.1c.3-.1.2-.2 0-.3.5-.4.6 0 .7.3a2.2 2.2 0 0 1-1.5.4c-.2 0-.2.2-.2.4s.1.3.2.1c.3-.4.8-.3 1.2-.5s.4-.1.4-.4a21.2 21.2 0 0 1 1.8 1.1l-1.1.6a1.4 1.4 0 0 0-1.3-.1c.1-.6.6-.5.9-.7 0 0 .3 0 .2-.3s-.2-.1-.4 0a7.5 7.5 0 0 1-1 .4c-.1 0-.3 0-.3.2s.1.3.3.4a2.6 2.6 0 0 0 1.9.3h1.8a1.4 1.4 0 0 0-.8-.3c-.3 0-.4-.2-.2-.5.3 0 .5.3.7.3h.3c0-.7.3-.4.6-.3a2.5 2.5 0 0 0 1.2.4l-1.4-1c-.4-.3-.8-.6-1.4-.3a.3.3 0 0 1-.1-.3c0-.1.2-.2 0-.4s-.2.2-.3.3c-.3 0-.5 0-.5-.4.1 0 .2-.1.2-.3a.2.2 0 0 0-.1-.1c-.2 0-.2.2-.3.2-.6.1-.7-.5-1-.8.4-.6-.3-1-.3-1.5a1 1 0 0 0-.1-.5 2.4 2.4 0 0 0-1.1-1.3c-.1.3-.2.5 0 .7zm-1.3 2.6.4.3c.5 0 .6-.5.8-1a1 1 0 0 0-1-1.1 1 1 0 0 1-.7-.2c-.2-.1-.8 0-.7-.3s.6 0 .8 0c.2 0 .3.2.4 0h-.3c-.2-.8-.1-.9.9-.8a1.3 1.3 0 0 0-1.6-.2 1.8 1.8 0 0 1-1.4.4c.3.3 1 .2.8.8.7.5.6 1.2.6 1.9 0 .4-.2.8.1 1.1l.2.2-.1.5c-.2.6.2.6.6.7.8-.1 1 .6 1.4.9a2.1 2.1 0 0 0 0 .2 2 2 0 0 1-.2 1 2 2 0 0 0 2.2.2c1-.4.7.8 1.2 1 .2 0 .2-.3.2-.5.3-.9.3-.8 1-.9a7 7 0 0 1 1.8.1 2.4 2.4 0 0 0-1.7-.7 7.2 7.2 0 0 1-3.8-.3 2.4 2.4 0 0 1-1.3-2.4c0-.4-.2-.2-.4-.2h-.2c0-.1-.2-.3-.1-.5zm9.7 4.8h.1v-.1a1.7 1.7 0 0 0-2-.7c.4.2.9.4 1.2.7s.4.3.7 0zm-8 .9c.2 0 .2-.2.3-.3s.2 0 .3.1a1.2 1.2 0 0 0 .2-.3l-.2-.2c-.4-.1-.6 0-.6.7z"/><path fill="#fefefe" d="M66.3 42h.3l2-.3 2.4-.2h.1l2.1-.1h4.6c.6-.2 1.2.2 1.8 0l3 .3 1.9.3h.1v.3a61.7 61.7 0 0 0-11-.7 59.4 59.4 0 0 0-10.4 1.3c-.1-.3-.1-.3.1-.3L66 42a.3.3 0 0 0 .3-.1zm-9 2.8-.2-.1c.1-.2.2-.2.4-.2l.2.1zm5.2-1.7c.2-.3.3-.2.5-.1z"/><path fill="#080a06" d="M91.1 77.6a5 5 0 0 0-.6 1.4c0 .2-.2.4-.4.5-.5 0-.6.5-.8.9h-.1l.3-1.2a1.6 1.6 0 0 0 1-2.1 1.2 1.2 0 0 1 .3-1.3c0-.1.2-.2.1-.4s-.2-.2-.3-.2l-1.7.2h-4.2c-.2 0-.5 0-.6.3.5.3 1.4-.5 1.5.7.2-.2.1-.4.2-.6h.9c.3 0 .3 0 .4.3.2.8.2.9-.7.9h-.9c-1.2 0-1.2 0-1.4-1a2.1 2.1 0 0 0 .1 2c.3-.1-.2-.6.3-.6s1-.3 1.3.4c.1-.8.7-.4 1.2-.5s.2.3.2.5c0 .4.3 1-.4 1.4-.4.1-.7-.2-.8-.6-.5.7-1.1.4-1.8.1a6 6 0 0 0 .8 1c.3 0-.2-.4.2-.5a.8.8 0 0 1 1 .7c.3-.2-.1-.6.4-.7 1-.2.6.7 1 1.2v-1.2h.9v.3a1.6 1.6 0 0 0 0 .9 1.4 1.4 0 0 0 .2-.9c0-.4.3-.4.5-.3.1.3 0 .6-.1.9s0 .3.2.3c-.4.7-1 .3-1.6.4-1.4.3-2.9 0-4.3.2a25.1 25.1 0 0 1-4 .1 16.4 16.4 0 0 1-3-.3 2 2 0 0 0-1.4.1c-1 .5-1.7 0-2.4-.5 0 0-.2-.2-.3 0-.2-1-1-1.5-1.7-2 0-.2-.2-.2-.4-.3a2.8 2.8 0 0 0-1.3-.8 20.6 20.6 0 0 0-3.4-2.4l-.2-.1c-.1-.2-.5-.4-.3-.7h.6a9.5 9.5 0 0 0 1 .7c.3.1.6.5 1 .3a7.6 7.6 0 0 0 2.9 1.9v.2l.5.2h.2a2.5 2.5 0 0 0 1.8.6c.2 0 .3.2.5 0l.1.1.7.1c.2 0 .5.2.6 0s.2-.4.3 0a.3.3 0 0 0 .3.2 4.3 4.3 0 0 0 1.6-.1h2.3c.2 0 .4 0 .5-.3.3-.2.4-.4.5-.6s.4-.8.7-.8c.7-.2.8-.8 1.1-1.2.1-.3.5-.1.6-.3h.7c.2.6.5 0 .7 0a.2.2 0 0 0 .4 0h.5c.1.2.4 0 .6.1h1.2c.5 0 1 0 .9-.8l.1-.3c.1-.7.8-1.2.3-2 0-.1 0-.2.2-.3a2.6 2.6 0 0 0 .3-.5c.2-.1 0-.8.6-.4 0 .6-.4 1-.3 1.7-.3 0-.4.3-.1.6-.4.2-.3.6-.4.9v.3c-.3.4-.3.7.4.6h1.7c.3 0 .5 0 .6.3s.2.5-.2.7a.7.7 0 0 0-.2 1c.2.2.4.3.3.6zm-10.4 2.3c-.9.3-1.7-.5-2.8 0 .5.1 1 0 1.3.2a1.2 1.2 0 0 0 1.5-.1 1.1 1.1 0 0 1 1 .1A1 1 0 0 0 83 80c-.6.3-1.1 0-1.7-.1-.3 0-.5-.2-.6.1zm-7.7-.1a2.9 2.9 0 0 1 1.9.4.3.3 0 0 0 .3 0 2.2 2.2 0 0 1 1.3-.2c-.2-.3-.4-.4-.6-.3a2 2 0 0 1-1.6 0 1.4 1.4 0 0 0-1.3 0zm-.1-1.1h-.2.2c0 .3.3.2.5.3a52.2 52.2 0 0 0 9.8 0l.9-.1c.2-.1-.4-.2-.4-.5a.6.6 0 0 0 0-.1 4 4 0 0 1 0-1.6c0-.2 0-.4-.2-.3s-.7 0-1 .4c.7-.2.9.1.8.6a3.5 3.5 0 0 0 0 .6c0 .4.1.7-.5.7s-.6-.3-.6-.6a5.2 5.2 0 0 1 0-1c.2-.7-.2-.5-.5-.4.5.4.2 1 .3 1.5s-.1.6-.5.6h-2.7a44.8 44.8 0 0 1-6-.1zm7.6-.7.2.1a1.9 1.9 0 0 0 .6-1.2z"/><path fill="#ce6100" d="m66.7 79.8.1.2c0 .2 0 .3.2.4.3.1.5.4.8.4.2.5.6.8.7 1.4 0 .8.5 1.5.3 2.4a2 2 0 0 1-1.3-1.6 4.1 4.1 0 0 0-.9-1.5 1.4 1.4 0 0 0 0 1.5 3 3 0 0 1 .4 1c0 .1 0 .3-.2.3s-.2-.1-.3-.3a7.5 7.5 0 0 0-.4-1.7c-.2-.5-.5-.8-1-.6a1 1 0 0 1-1.3-1 11.3 11.3 0 0 1-.2-2c0-.2 0-.5-.3-.6a1 1 0 0 1-.5-1.1 4.8 4.8 0 0 0-.7-2.6 1.4 1.4 0 0 1-.2-1c0-.9-.4-1.6-.6-2.4 0-.5-1-.7-1.6-.5-.4.1-.7.1-.8-.3-.1-1.5-1-3-.2-4.4a1.1 1.1 0 0 0 0-1.4 3.6 3.6 0 0 1-.4 1.5c-.7-1.3-.7-1.3-.1-2.5l.2-.5.2-.2a1 1 0 0 0 .3-.5c.7-.3.8-.2.8.5 0 .4 0 .8.5.9 0 .3.4.5.4.8-.3.3-.4.9-1 1.1 0 0-.3 1-.1 1 .5.4.3 1 .3 1.4 0 .2 0 .5.3.6 0-.8.5-1.5-.1-2.2a.5.5 0 0 1 0-.5c.4.3.3 1 .8 1.2.2-.4-.1-.9.3-1.1a5 5 0 0 0 .6.8 3.5 3.5 0 0 1 1 4c-.2.3-.3.7 0 1.1.2-.3 0-.6.3-.8.3.2-.2.7.2 1 .5-1-.2-2 .2-3a19 19 0 0 0 .6 2.4c.3 1.6.4 3.3 1.4 4.7.2.2.1.4-.1.6-.3-.4-.1-1-.7-1.2l.1.5a7 7 0 0 1 .5 2.4c0 .4.6.8.7 1.4.4-.8-.4-1.4-.3-2.1.4.5 1 1 .8 1.7a.5.5 0 0 0 .3.4zm-2.9-7c0-.4 0-.6-.3-.7 0 .4 0 .5.3.6zm.7 2.5z"/><path fill="#5d3102" d="m58.4 62.9-.3.5c-.6 1.2-.6 1.2.1 2.5a3.6 3.6 0 0 0 .5-1.5 1.1 1.1 0 0 1 0 1.4c-.9 1.5 0 3 .2 4.4 0 .5.3.5.7.3.7-.2 1.6 0 1.7.6.1.8.6 1.5.5 2.3a1.4 1.4 0 0 0 .3 1 4.8 4.8 0 0 1 .7 2.6 1 1 0 0 0 .5 1c.3.2.3.5.3.8a11.3 11.3 0 0 0 .2 2 1 1 0 0 0 1.2.9c.6-.2.9 0 1 .6a7.5 7.5 0 0 1 .5 1.7c0 .1 0 .3.2.3s.2-.2.2-.4a3 3 0 0 0-.3-1 1.4 1.4 0 0 1 0-1.4 4.1 4.1 0 0 1 .9 1.5 2 2 0 0 0 1.3 1.6c.2-.8-.4-1.6-.3-2.4a4.1 4.1 0 0 1 .6 2.3c0 .2 0 .5-.2.4s-.5.2-.7 0c-.3-.5-.6-.8-1-.2l-.4.3c-.5-.3-1 .1-1.5.1l-1.4.3h-.2c0-.4-.3-.6-.6-.8a.8.8 0 0 0-.4-.6 8.7 8.7 0 0 0-1.1-1.7 48.7 48.7 0 0 1-2.1-4.4 38.6 38.6 0 0 1-2.1-8l-.6-5.4a.7.7 0 0 0 .3-.4c.5-.4.7-1 1.2-1.3zm7.3 19.7c0-.9-.6-.5-1-.6-.5-.2-1.2-.2-1.7-.8h.2c.4-.2 0-.6.1-.8a3 3 0 0 0-.5-2.3 10.7 10.7 0 0 1-.4-2.2 1.9 1.9 0 0 0-.5-1.3 3 3 0 0 1-.9-1.9 2.3 2.3 0 0 0-.4-1.6c-.1-.2-.3-.4-.5-.3l-.9.4c-.3 0 .1.5 0 .8v.1a8.5 8.5 0 0 1-.2 2.3.3.3 0 0 0 .1.3c.9.7.8 2 1.8 2.7.2.2.2.6.2 1a.7.7 0 0 0 .3.5 1 1 0 0 0 .3 1.3 1.3 1.3 0 0 1 .6 1.3.8.8 0 0 0 .5 1c0 .9.8 1 1.2 1.4.3.3.7.6 1 0 .2-.2.3 0 .3.1.2.5.6.5 1.1.5a2.4 2.4 0 0 1-.3-1c0-.3 0-.7-.4-1z"/><path fill="#29abe2" d="M77.5 84.7c-.3-.4-1 0-1.2-.6a2.5 2.5 0 0 0 2.2-.3c.7-.3 1.2.3 1.8.5l.6.3c.2 0 .5 0 .4.5s.5.4.9.4c0-.3-.4-.4-.3-.7a3.4 3.4 0 0 0 2 .7c0-.3-.2-.3-.3-.5 1.1-1 2-.3 3 .4a14.3 14.3 0 0 1-3.8.3h-.4c-.1 0-.5 0-.5.3s.3.2.5.2h.6l.3.1c.2 1 .8.5 1.3.5h.4c-.2 1-.9.7-1.4.7a3.2 3.2 0 0 0-1.3 0c.3-.4.7-.3 1-.6a4.5 4.5 0 0 1-2.5-.4c.1-.2.4 0 .5-.3-.5 0-1-.3-1.5-.1a4.7 4.7 0 0 1-2.9-.1c-.1.2.2.2.2.5-1-.3-1.3 1-2.3 1 .3.2.5 0 .7.1a3.3 3.3 0 0 1-2.6.5c0-.2 0-.4-.3-.5l-1-.3a.5.5 0 0 1-.4-.7c0-.4.4-.2.5-.2s.4 0 .6-.2L72 86l.1-.1a2.9 2.9 0 0 1 1 0 4.3 4.3 0 0 0 2.9-.2 1.4 1.4 0 0 1 1 0c.5.2 1 .5 1.7 0 .3-.2.9.2 1.3 0-1.4-1.4-1.7-1.3-2.3-.8zm-3 2.2a3.9 3.9 0 0 0-1.7.2c.4.5.9.6.8.4 0-.5.3-.3.4-.3s.4 0 .6-.3z"/><path fill="#29abe2" d="M78.2 90a10.1 10.1 0 0 0 2 0c-.3 1.4-1.7 1-2.6 1.4.3.2.6.1.8.2a20.6 20.6 0 0 1-2.4.9c0-.5.4-.5.6-.8h-1a6.8 6.8 0 0 1-2.7-.5 1 1 0 0 1-.2-.2c.9.2 1.8.1 2.8.4.2 0 .6.2.8-.2-.4 0-.2-.7-.6-.8a6.2 6.2 0 0 0-1.2 0c0-.4.2-.3.3-.5-.8 0-1.5.3-2.2.2s-1.4.2-2-.3c.8 0 1.5-.9 2.4-.6.1 0 .3 0 .5.2s.3.1.4-.2.2 0 .3 0c.3-.2 1 .2.7-.6a2 2 0 0 1 .3-.1c.8-.4 1.5-.7 2.4-.2a2 2 0 0 0 1.2.2c1.1-.1 2.2.3 3.3.2-.3.3-.3.3 0 .6h-1.6l.4-.3c-1.4-.3-2.8.4-4 0h-.3c-.6-.3-.8.3-1.2.5.3.2.8 0 1.1.5.1.2.8.2 1.3 0z"/><path fill="#5d3102" d="M66.7 79.8a.5.5 0 0 1-.3-.4c.1-.8-.4-1.2-.7-1.8-.2.8.6 1.4.2 2.2 0-.6-.7-1-.7-1.4a7 7 0 0 0-.5-2.4l-.1-.5c.6.2.5.8.7 1.2.3-.2.3-.4.2-.6-1-1.4-1.2-3-1.5-4.7a19 19 0 0 1-.6-2.4c-.4 1 .2 2-.2 2.9-.5-.2.1-.7-.3-1-.2.2 0 .6-.3.8-.3-.3-.1-.7 0-1a3.5 3.5 0 0 0-1-4 5 5 0 0 1-.6-.8l-.5-1.5c0-.3-.4-.4-.4-.8a1.2 1.2 0 0 1 .7.8 5 5 0 0 0 1.2 2 2.3 2.3 0 0 1 1.3-.8c0 .4-.4.4-.6.6s-.4.4-.3.6c.6.6.5 1.6 1.4 2 0 .5-.1 1 .2 1.3a3.1 3.1 0 0 1 .5 1.8A7.7 7.7 0 0 0 65 74c-.2.4.2.5.3.7l.2.1a2.1 2.1 0 0 0 .4 1 2.4 2.4 0 0 0 .5 2 1.8 1.8 0 0 1 .2.7c0 .2.2.4.3.3a2.3 2.3 0 0 1 2.2 0l.4-.2.7-.5c.2 0 .4.1.4.3l-1.2.8c-.2 0-.5.2-.7 0-.6-.6-1.2-.1-1.8.1-.3 0-.2.3-.2.4z"/><path fill="#29abe2" d="M84.2 82.1a1.6 1.6 0 0 1 .8.2 5.9 5.9 0 0 0 3 .3l-.4.8c-1 .3-2 0-3 .5.5.2 1-.2 1.4.1a5.4 5.4 0 0 1-2.7 0 3.9 3.9 0 0 0 1.3-.4 2.2 2.2 0 0 0-1.3 0c-.2 0-.5.1-.6-.1s.3-.3.5-.3l.5-.2-.1-.2c-1.6.5-3-.4-4.6-.1a3.5 3.5 0 0 1-1.8 0c-.1 0-.2 0-.3-.2.6-.3 1.1 0 1.6-.1h1.3a12.7 12.7 0 0 1 1.8-.1c.3 0 .6-.4 1-.3a5.6 5.6 0 0 0 1.6.1zm-12-1.8a1.8 1.8 0 0 1-1.8.4c.6.7 1.3.4 1.8.6a1.6 1.6 0 0 1-1.6 0c-.3-.3-.7-.4-.8-.8 0-.3-.5-.4-.7-.2-.5.3-.9 0-1.2-.3.4-.3 1.2 0 1.4-.8l3 1.1zm2.5 1.9c0 .1.3.1.2.4-.7-.7-1.7.1-2.4-.6.3-.2.8.3 1-.3-.2-.2-.6 0-1-.4.8.2 1.5 0 2 .4a1 1 0 0 0 1 0 3.3 3.3 0 0 1 1.6 0 9.5 9.5 0 0 0 2.2-.2h.6c-.3.5-1 .3-1.3.6-1 .2-2.1-.5-3.1 0a1.1 1.1 0 0 1-.7 0h-.1v.1zm7 5.4c.4-.1.7.3 1.1.4-.8.5-1.6 0-2.4-.1s-1.4-.8-2.2-1a4.6 4.6 0 0 1 2.6 0c-.2.2-.6 0-.8.4h1.2c.2 0 .5 0 .5.3zm-11.9-3.1 1.3.3a5.1 5.1 0 0 0 3.3-.3c.1 0 .3-.3.5 0s0 .3-.3.3-.2 0-.2.3c.2.6-.4.6-.6.5a13.1 13.1 0 0 1-3.7-.9 2.3 2.3 0 0 1-.3-.2zm5.1-.8c-.5-.1-1 .2-1.4.3-1.2 0-2.3-.3-3.5-.2 1.2-.2 2.5 0 3.8-.2-.4-.3-.8-.2-1-.6a5.7 5.7 0 0 0 2.6 0l-.1.4c-.2 0-.4 0-.4.3zm10.6-2c1-.8 2.4 0 3.4-.5a3 3 0 0 1-3.4.5zm-13.8 7.1a5.5 5.5 0 0 0-2.8 0c.2-.1-.2-.5.3-.6 1.3-.2 2-.3 2.5.6zm-6-3.1c1 0 1.8-1 2.7 0-.4 0-.7.5-1.3.2s-.9.1-1.5-.2z"/><path fill="#111109" d="M75.3 83.4c.6-.4 1.1.1 1.6.3v.1a3.2 3.2 0 0 0-2.5.4 1.4 1.4 0 0 1-1.1.1c.5-.2 1.1-.2 1.6-.6a.3.3 0 0 0 .4-.3zM72.8 88a3.3 3.3 0 0 0 2.7-.5s.1.2 0 .2a4.7 4.7 0 0 1-3.1.7z"/><path fill="#29abe2" d="M66.6 86.5c.5 0 .9-.1 1 .4.1.3.4.3.7.2l1-.2a1.9 1.9 0 0 1-2.7-.4z"/><path fill="#111109" d="M70 82.3a4.3 4.3 0 0 0 2 .6c-.4.5-1.4.3-2.2-.5z"/><path fill="#272727" d="M78.6 82a3.7 3.7 0 0 0 2.5-.6 1.3 1.3 0 0 1-.9.7c-.2 0-.4 0-.4.3h-1.3V82z"/><path fill="#080a06" d="M68.5 86a6.5 6.5 0 0 0 2.6-.3 2.3 2.3 0 0 1-2.6.4z"/><path fill="#272727" d="M76.6 89h.2a1.6 1.6 0 0 0 1.2.6c.5 0 .3.2.1.5h-.4c0-.3-.3-.3-.4-.4-.3-.2-.7-.3-.7-.8zm7.6-6.9a5.6 5.6 0 0 1-1.5-.1c-.3-.2-.6-.2-.8-.5a.2.2 0 0 1 .3 0 2.6 2.6 0 0 0 1.7.4c.2 0 .3 0 .3.2z"/><path fill="#29abe2" d="M85.3 81.5a5.3 5.3 0 0 1-2 0 2.5 2.5 0 0 1 2 0zm-15.3.8-.2.1a1.2 1.2 0 0 1-.6 0 2.8 2.8 0 0 1 1.8-.6c-.3.4-.8.2-1 .5z"/><path fill="#111109" d="M68.4 87.8c.6-.2 1.1 0 1.7-.1-.5.5-1.1.2-1.7 0z"/><path fill="#5d3102" d="M68.5 82.2c0-.6-.5-1-.7-1.4.8.1.8.7.7 1.4z"/><path fill="#fefefe" d="M90.6 79.3c.2.3 0 .5 0 .8l-.2.4h-.2c0-.5.4-.8.5-1.2z"/><path fill="#5d3102" d="M67.8 80.8c-.3 0-.6-.3-.8-.5.3 0 .7 0 .8.5z"/><path fill="#29abe2" d="M77.6 84.8a1 1 0 0 1-1 .2l.8-.3z"/><path fill="#5d3102" d="M67 80.3c-.2 0-.2-.2-.1-.3a.3.3 0 0 1 .1.3z"/><path fill="#29abe2" d="m90 81.2-.1.1zM72.7 91z"/><path fill="#8fc5f9" d="M88.7 71.3a2.6 2.6 0 0 1-.3.5l-.2.3c.5.7-.1 1.3-.2 2l-.2.3c.1.8-.3.8-.8.7l-.4-1c.4-1-.5-1-.9-1.5a.1.1 0 0 0 0-.1c.1 0 .4.2.3-.2a.8.8 0 0 0 .8-.4c.3-.3.4-.5-.2-.6a11 11 0 0 0-1.7 0l-.2-.1v-.6c.2-.5 0-1.1.2-1.7.4 0 .7-.3 1-.4.7-.2 1 0 1 .5a2.1 2.1 0 0 0 .7 1.2 5.6 5.6 0 0 0 0 .6c0 .3 0 .3.3 0 .3 0 .2.2.3.4l-.2.1v.1l.2-.2a.6.6 0 0 0 .5.1z"/><path fill="#fefefe" d="M87.2 62.3a.8.8 0 0 1-1 1c-.3 0-.4-.2-.6 0l-.2.1a1.7 1.7 0 0 1-.9.1s0-.1-.2 0h-.2l-.2-.2c-.4 0-.9.4-1.2-.2 0-.2 0-.4-.4-.3a.4.4 0 0 1-.6-.4h3.8z"/><path fill="#f00528" d="M89 73.2c-.3-.3-.3-.5.1-.6 1 0 1 0 1-1a.9.9 0 0 1 .2-.6l.8.2v.5c-.4.8.2.6.6.5a2.4 2.4 0 0 0 .4-.2.6.6 0 0 1 0 .2v.6h-.4c-.5 0-1.1 0-1 1l-.1.1v.2l-.3.1c-.3 0-.6.2-.5-.3.3-.6 0-.8-.6-.7a1.2 1.2 0 0 1-.3 0z"/><path fill="#fefefe" d="M84.2 59.1H94c.2 0 .4 0 .4.3v1.3c0 .2-.1.3-.3.2 0-1.5 0-1.5-1.6-1.5h-8.2a2 2 0 0 1-.1-.3z"/><path fill="#111109" d="M86.6 67c.2 0 .6-.3.6.3a.8.8 0 0 0-.7-.1H84c-.2 0 0 .2-.1.3-.6-.6-1.3-.2-2-.3-.3 0-.1.2 0 .3v.2h-.4c0-.2 0-.5-.3-.4a5.2 5.2 0 0 1-.7 0c.1-.1.4 0 .4-.4.2.3.3 0 .4 0h3.1a17.7 17.7 0 0 0 1.8 0z"/><path fill="#f3f3ef" d="M90.3 71a.9.9 0 0 0-.2.6c0 1 0 1-1 1-.2-.6.2-1.1.3-1.7l1 .1zm1.8 1a2.4 2.4 0 0 1-.4.1c-.4.2-1 .4-.6-.5v-.4l.5-.3c.7-.1.8 0 .6.7a3 3 0 0 1-.1.4zm-1.5 2v-.2c0-.8.6-.8 1.2-.9h.3a1.2 1.2 0 0 1 0 1 6 6 0 0 1-1.5.1z"/><path fill="#3e3e3e" d="M85.5 62.3h-3.8a.2.2 0 0 1-.1-.2c.4-.3 1 .1 1.5-.3.2.4.5.2.8.2.4.1.5-.1.5-.4a.3.3 0 0 0 .3-.3l.4.4v.3c-.2 0-.4-.2-.5.1.2 0 .4.2.6-.1a.2.2 0 0 1 .3.1z"/><path fill="#a67c52" d="M84.4 61.6c0 .3 0 .5-.5.4v-2a.8.8 0 0 1 .2-.6h.2a9 9 0 0 1 .2 1.7c-.2.2-.2.3-.1.5z"/><path fill="#364a5f" d="M87.5 70.2A2.1 2.1 0 0 1 87 69c-.2-.6-.5-.7-1-.5l-1 .5-.2-.4 2-.6h.1zm-1-3.2h-.3l-.8-3.5.2-.2a18.3 18.3 0 0 0 1 3.7z"/><path fill="#8fc5f9" d="M85.1 62v-.3a4.4 4.4 0 0 0 1.7.2c.2 0 .5-.1.6.3h-2a.2.2 0 0 0-.3-.2z"/><path fill="#364a5f" d="M90.6 74a6 6 0 0 0 1.5-.2c-.1.5-.5.5-1 .5l-.6-.2zm-.9 0c0 .5.3.3.5.3-.5.5-1.1.3-1.7 0v-.2c.4.2.9.4 1.2-.1z"/><path fill="#f3f3ef" d="M86.8 68h-.1a1 1 0 0 1-.2-.8.8.8 0 0 1 .7.1c0 .3 0 .6-.4.7z"/><path fill="#364a5f" d="M92 72a3 3 0 0 0 .2-.4c.2-.7 0-.8-.6-.7.2-.2.4-.5.6-.4s.2.6.2.8.2.7-.3.8a.6.6 0 0 0 0-.1z"/><path fill="#fefefe" d="M92.2 75.5a.1.1 0 0 1 .1 0 .1.1 0 0 0 0 .2c-.2.4 0 1-.5 1.2a4.2 4.2 0 0 1 .4-1.4z"/><path fill="#080a06" d="M85.5 62.1h1.9c0 .1 0 .2-.2.2h-1.8z"/><path fill="#364a5f" d="M87.9 70.8c-.4.2-.4.2-.4 0a5.6 5.6 0 0 1 0-.6c.3.1.2.5.4.6z"/><path fill="#fefefe" d="M92.7 74v.5c-.2.2 0 .7-.4.7 0-.4 0-.8.4-1.1z"/><path fill="#364a5f" d="M84.4 61.6v-.5l.3.2a.3.3 0 0 1-.3.3z"/><path fill="#fefefe" d="M93.2 71.6v.4c-.2-.1-.2-.3 0-.4z"/><path fill="#f3f3ef" d="M84.4 59.5a.1.1 0 0 1 0-.1z"/><path fill="#fefefe" d="m93.3 72.2-.2.1.2-.1z"/><path fill="#8fc5f9" d="M84.1 59.4a.8.8 0 0 0-.2.7V62c-.3 0-.6.2-.8-.2-.5.5-1 0-1.5.3-.2 0-.2.1-.2.2.1.8.8.6 1.3.8.3.6.8 0 1.2.2v2.3l.2 1.3h-2.8c-.2 0-.3.3-.5 0l-.8.1h-2c-.4 0-.8-.2-1.3 0-.2 0-.2 0 0 .2v.3c.3.7.7.8 1.4.5.5-.5.8.2 1.2.1v2.5h-2.1c-.3 0-.4 0-.1.3s.2 1 1 .8l-1 2.1c0 .7-.8 1-.5 1.9l-.4.2c-.3.2.2.2.2.4a.5.5 0 0 0-.6.2 1.5 1.5 0 0 1-.6.5.9.9 0 0 0 .1-.6c0-.2 0-.4-.3-.5-.1-.4.1-.8-.4-1a.3.3 0 0 0 0-.1.7.7 0 0 0-.2-.9v-.2a1 1 0 0 1 1.2-.3.8.8 0 0 0 1.1-.3 1 1 0 0 0 .1-.7c.1-.2 0-.3-.2-.3-.8 0-1.6-.2-2.4-.1-.2 0-.5.2-.7 0v-2.4a11.2 11.2 0 0 1 2.3-.2.7.7 0 0 0 .7-.6c0-.4-.4-.1-.6-.1l-.3-.2c-.5 0-1-.4-1.5 0l-.6-.1c0-.8.3-1.5.1-2.3l2.4-.3c.5 0 .5-.5.6-1-.7.2-1.3 0-2 0a2 2 0 0 1-1.2 0v-1.5c.4-.3 1 .2 1.3-.1.2-.3.4 0 .5 0 .6 0 .8-.2.8-.7.2-.3.2-.4-.1-.5h-1.3v-.2.2a2 2 0 0 1-1.2 0v-1.4c0-.4.1-.7-.2-1h-.1c-.3 0-.3.3-.3.5V62c-.1.3-.4 0-.6.2-.3.3-.6 0-1 0l.1-.4a2.8 2.8 0 0 0 1.4-2.2H79l.2-.2c.2 0 .3.3.5.2 1.5-.2 3 0 4.4-.1zm-4.6 6.2a1.3 1.3 0 0 0 0-.7c.2-.2.3-.5.6-.5l.1-.2a6 6 0 0 0 1.5.2c.1 0 0 .3.2.3a.3.3 0 0 0 0-.4v-.2a1.8 1.8 0 0 0 .3-.7l-.1-.1-.1-.2c-1-.3-2 .2-3-.2l-.3.2a1.9 1.9 0 0 0-2 .1h.1a1.4 1.4 0 0 0 .6.7c.3.5.7.2 1 .2.3 0 .4-.3.6 0a5 5 0 0 0 .1 1.6c.2.1.2.1.2-.1zm2.3-5.1c0-.2-.3-.1-.4-.1h-3.3c-.4-.3-.7 0-1 .2.3.7.6.8 1.3.6.3 0 .6.1.6.5 0 .1-.1.4.2.3s.3-.1.2-.3.2-.5.3-.6c.6.4 1.2-.2 1.8 0l.2-.4c.2 0 .1 0 .1-.2z"/><path fill="#f3f3ef" d="M79 59.4H57.5c-.4 0-.5.1-.5.5V64a.7.7 0 0 1-.3.4c-.2 0 0-.3-.1-.4a25.9 25.9 0 0 0 0-3 11.6 11.6 0 0 0 0-1.3c0-.5 0-.6.5-.6h21.1c.3 0 .6-.2.7.3zm5.1 0h-4.3l-.6-.2.4-.1h4.6a2 2 0 0 0 0 .2z"/><path fill="#fefefe" d="M91 79c0 .2 0 .5-.4.2a.5.5 0 0 1 .4-.2z"/><path fill="#f3f3ef" d="M71.1 41.5zm2.3-.1h-.2z"/><path fill="#fefefe" d="M92.3 75.5a.1.1 0 0 1 0 .2.1.1 0 0 1 0-.2z"/><path fill="#f3f3ef" d="M77.8 41.4h-.1z"/><path fill="#a67c52" d="m74.8 56.4-.2-.4c-.1-.3-1-.5-.3-1 .3-.4.2-1 .9-1 .2 0 .2-.6.4-.8s.2-.6.5-.6.4.3.6.5c.6.6.4 1.3.1 2-.1.4-.3.4-.6.4-.6 0-1.1 0-1.3.8z"/><path fill="#f3f3ef" d="M72 48.6c-.4-.3-.1-.7-.1-1.1 0-.7 0-1.4-.7-2 .2-.5-.4-.4-.8-.7a1.8 1.8 0 0 0 1.4-.4 1.3 1.3 0 0 1 1.6.1c-1 0-1 0-.8.8l-.1.2c-.3 0-.7-.5-.8-.1s.4.1.6.3a1 1 0 0 0 .8.1 1 1 0 0 1 .9 1.3.7.7 0 0 0-.6-.6c-.4 0-.3.3-.5.5-.5.4-.5 1.1-1 1.6zm4.7-.1c0 .4.2.5.6.4.1 0 0-.4.2-.3s0 .3 0 .4a.3.3 0 0 0 .2.3c.2.4.6.7.7 1.2-.3 0-.4-.3-.7-.3a21.2 21.2 0 0 0-1.8-1.1h-.1c-.2-.2-.2-.7-.6-.3-.4.1-.9 0-1 .5-.4-.3-.4-.4 0-.5a1.8 1.8 0 0 0 .5-.3s.4.3.4-.1-.4-.2-.6-.2c0-.2.3-.2.1-.4-.4-.3 0-.3.2-.3.6 0 .4-.3.3-.6.3 0 .3-.1.1-.3s-.3-.4 0-.6c0 .6.8 1 .4 1.5.3.3.4 1 1 .8zm-2 2.5a7.2 7.2 0 0 0 3.9.3 2.4 2.4 0 0 1 1.7.7 7 7 0 0 0-1.8 0c-.8 0-.8 0-1 .8 0 .2 0 .4-.2.5-.6-.2-.3-1.4-1.3-1a1 1 0 0 1-.6-.1c-.3-.4-.7-.6-.8-1zM73 48.4c.2 0 .5-.2.4.2a2.4 2.4 0 0 0 1.3 2.4l-.1.1-.6-.2c-.4-.3-.6-1-1.4-1 0-.5.4-.9.4-1.5z"/><path fill="#a67c52" d="M78.4 50.5c-.2-.5-.6-.8-.7-1.2.5-.3 1 0 1.3.3l1.4 1a2.5 2.5 0 0 1-1.2-.4c-.3-.1-.6-.4-.6.2h-.2zm-6.5-1.9c.5-.5.5-1.2 1-1.6.2-.1.1-.5.5-.5a.7.7 0 0 1 .6.6c-.2.3-.3.8-.8.9 0-.4.4-.4.4-.7l-.1-.5c-.1-.1-.3.2-.3.3 0 .3-.3.4-.4.6l-.1.2.1.5c-.3 0-.5.2-.7.4zm5 2.4a2.6 2.6 0 0 1-2-.3c-.1 0-.3-.2-.3-.4s.2-.2.4-.2a7.5 7.5 0 0 0 1-.4h.3c0 .1 0 .2-.2.3-.2.2-.7.1-.8.7a1.4 1.4 0 0 1 1.2.1z"/><path fill="#ce6100" d="M72.1 48.8c.2-.2.4-.4.7-.4h.2c0 .6-.4 1-.3 1.6-.4-.1-.8-.2-.7-.7z"/><path fill="#f3f3ef" d="M74 45c-.2-.3-.2-.5 0-.8a2.4 2.4 0 0 1 1.1 1.3c-.1.2-.2.5-.6.5l-.2-.3c.1 0 .3 0 .3-.2s0-.1-.2-.1-.3-.1-.3-.3h.2l-.3-.2zm8.5 7.5c-.3.2-.5.1-.7-.1l-1.2-.7a1.7 1.7 0 0 1 2 .7zM76.8 51l-.3-.2 1.2-.6c-.2.3-.1.4.2.5a1.4 1.4 0 0 1 .8.3z"/><path fill="#ce6100" d="m74 50.9.6.2c0 .5.5.7.7 1-.5.2-1-.2-1.5 0a2 2 0 0 0 .3-1 2.1 2.1 0 0 1-.1-.2z"/><path fill="#a67c52" d="M75.8 49c.1.3-.1.4-.3.5s-.9 0-1.2.4c-.1.2-.2 0-.2-.1s0-.3.2-.4a2.2 2.2 0 0 0 1.5-.4z"/><path fill="#ce6100" d="M74.5 46c.3 0 .5-.3.6-.5a1 1 0 0 1 .2.5c-.5.2-.2.4 0 .6s0 .3-.2.3a1.4 1.4 0 0 1-.6-.9z"/><path fill="#a67c52" d="M73.8 52c.5-.2 1 .3 1.5.1a1 1 0 0 0 .7.2 2 2 0 0 1-2.2-.3z"/><path fill="#5d3102" d="M72.8 47.7c.2-.2.4-.3.5-.6 0-.1 0-.4.2-.3s.2.3.2.5-.5.3-.5.7z"/><path fill="#f3f3ef" d="M74.5 53.4c0-.7.2-.8.6-.7l.2.2a1.2 1.2 0 0 1-.2.3c-.1 0-.1-.3-.3-.1s-.1.3-.3.3z"/><path fill="#a67c52" d="M74.1 49.2c.2-.5.7-.3 1-.5.2.2.2.3 0 .4l-1 .1z"/><path fill="#ce6100" d="M74 45c.1.3.2.4.4.4s.3 0 .2.1l-.3.2c-.1-.1-.5 0-.5-.3a.3.3 0 0 1 .3-.3z"/><path fill="#f3f3ef" d="M76.6 48.3c.1 0 0-.3.3-.2a.2.2 0 0 1 0 .1c0 .2 0 .2-.2.3zm-4-3 .2.1c0 .2-.2.1-.3 0zm1.9 2.8a.1.1 0 0 1-.2.1s.2-.2.2 0z"/><path fill="#a67c52" d="M71.7 56.3c0-.1.1-.1.2 0s0 0 0 .1z"/><path fill="#ce6100" d="M74 45h.3c0 .1-.1.2-.2.1z"/><path fill="#f3f3ef" d="M82.6 52.4s.2 0 0 .2 0 0-.1-.1z"/><path fill="#5d3102" d="m72.7 47.9.1-.2z"/><path fill="#8fc5f9" d="M71.2 77.5H71a5.8 5.8 0 0 0-.7-2.1c-.1-.1.4-.4 0-.4l-.2-.3c0-.6.3-1.1.1-2l-.2 1.5c-.4-.7-.7-1.5-1.2-2.2a6.5 6.5 0 0 1-.8-2.3c.3 0 .2.4.4.4a5.5 5.5 0 0 1 1-1.4v.3l.2-.3.1-.2.2-.3a3 3 0 0 0 .4-1c.2 0 .2-.2.2-.3.2 0 .2-.2.1-.3.2 0 .2-.2.2-.3.1 0 .2 0 .3-.2.6 0 1.2-.6 1.7.1l.1 2c-.4.4-.8.1-1.2.2s-.6-.1-.8.3a.6.6 0 0 0 .7.7 1.7 1.7 0 0 1 1.4.4v1.5c-.2.2 0 .2 0 .3 0 .4-.3.4-.6.4h-1.6c-.3-.8.2-1.6 0-2.4a18.7 18.7 0 0 0-.4 2c0 .3-.2.5 0 .7h.2c0 .6 0 1.2.9.9l.2.2-.1.3s-.2 0 0 .2.4-.4.3 0a9.9 9.9 0 0 1-.2 1 .1.1 0 0 0 0 .2.6.6 0 0 1 0 .4 5 5 0 0 0-.5 2zm0-3.2V74l.2-.1h-.2l-.2.2s-.1 0 0 .2.1-.1.2-.1z"/><path fill="#ce6100" d="M67.5 75.2c-.4.2-.7-.3-1-.4a9.5 9.5 0 0 1-1-.6v-.4a1.4 1.4 0 0 1 0-1.6c.2-.2 0-.3-.1-.4a1.6 1.6 0 0 1-.7-1.8v-.4c-.3-.2-.3-.4-.2-.7 0-.2-.2-.2-.3-.2a2 2 0 0 1 .3-1.2c.7-.3.6-.8.5-1.3-.1-1-.8-1.9-.5-2.9.8-.3.8-.3 1.1.6a1.2 1.2 0 0 0 .6.8 1.5 1.5 0 0 1 .9 2 2.2 2.2 0 0 0 .2 1.5 1.2 1.2 0 0 1 .2.6c-.5.1-1-.3-1-.9 0-.2 0-.4-.2-.6a15 15 0 0 0-.4 4.2c.4-.4.3-.7.3-1a1.5 1.5 0 0 1 .3-1s.2-.2.3-.1l.2.3c0 .5 0 1-.4 1.4a.4.4 0 0 0 0 .5 2.6 2.6 0 0 1 .1 1.5l.1.4a5 5 0 0 1 .7 1.7z"/><path fill="#364a5f" d="M74.9 76c.3 0 .3.2.3.5l-.3.1c0 .1 0-.5-.3-.1a.8.8 0 0 0-.3.5l.2.3c.3.2.3.2.6-.3a1.5 1.5 0 0 0 .6-.5.5.5 0 0 1 .6-.2v.2l.1-.2h.5c0 .1 0 .4.2.3s0-.2 0-.3.3 0 .3-.2a.1.1 0 0 0-.1 0c-.2 0-.1 0-.2.2a.3.3 0 0 1-.1 0c-.1-.5-.7 0-.8-.4.1 0 .4 0 .3-.2-.3-.8.4-1.2.6-1.9l.9-2.1c.3-.4.6-.3.9 0-.4.2-.2.6-.4.9-.3.7 0 1.6-.9 2v.2c.5.3.2.6.1.9l-.6 2.5a4.3 4.3 0 0 1-1.6.1.3.3 0 0 1-.3-.2c0-.3-.1-.4-.3 0s-.4 0-.6 0a6.9 6.9 0 0 1-.2-1.7c.4.1.4-.4.8-.5zm1.4 1s-.1-.1-.2 0v.1a.2.2 0 0 0 .4.1c.1-.1-.1-.2-.2-.2zm.7-1.2h-.2a.2.2 0 0 0 .2 0z"/><path fill="#ce6100" d="M89.2 79.1c-.3 0-.6 0-.6.4h-.2v-.3c.1 0 0-.2 0-.4l.1-1.3a1.5 1.5 0 0 1 .2.7c0 .2-.2.6.3.6s.9.3 1.1-.4c.4-1.1.3-1.3-.9-1.2h-.5c-.4 0-1-.2-1.2.2s0 1 0 1.4v1.6c-.4-.4 0-1.4-1-1.2-.5.1-.1.5-.4.7a.8.8 0 0 0-1-.7c-.4.1 0 .4-.2.6a6 6 0 0 1-.7-1.1c.6.2 1.2.6 1.7-.1.2.4.4.7.9.5.7-.3.3-1 .3-1.4 0-.2.1-.5-.2-.5s-1-.3-1.2.6c-.3-.8-.9-.5-1.3-.5s0 .5-.3.6a2.1 2.1 0 0 1 0-2c.2 1 .2 1 1.3 1h1c.8 0 .8-.1.6-1 0-.2-.2-.3-.4-.3h-.9v.1c0 .2 0 .5-.2.7 0-1.2-1-.4-1.5-.7 0-.4.4-.3.6-.3h4.2l1.7-.2c.1 0 .3 0 .4.2s-.1.2-.2.3a1.2 1.2 0 0 0-.3 1.3 1.6 1.6 0 0 1-1 2.2zm.5-3.5c-.7-.2-.8.2-.8.8 0 .7.6.6.9.6.7 0 .3-.7.4-1 .2-.6-.3-.3-.5-.4zm-1 .6c0-.4 0-.7-.6-.6-.2 0-.8-.2-.7.5 0 .3-.2.8.6.8.6 0 .7-.2.6-.7z"/><path fill="#8fc5f9" d="M82.2 75.4c-.3.4-.4 1-1 1.1-.4.1-.6.6-.8.9l-.4.5a6 6 0 0 0-.2-1.9v-4c.7-.4 1-.3 1.2.3v.7a3.8 3.8 0 0 0 1.2 2.5zm-5 2.9.5-2.5c0-.3.4-.7-.1-1 .8-.5.6-1.5.9-2.2.1-.3 0-.6.3-.8h.6a1 1 0 0 0-.2 1v1a17.6 17.6 0 0 0 .1 3v1.5h-.7z"/><path fill="#a67c52" d="M67.5 75.2a5 5 0 0 0-.7-1.7c-.2-.2-.1-.3-.1-.5a2.6 2.6 0 0 0-.2-1.5.4.4 0 0 1 0-.4c.5-.4.4-1 .4-1.5l-.1-.3-.4.2a1.5 1.5 0 0 0-.2.9c0 .3 0 .6-.3 1a15 15 0 0 1 .3-4.2c.3.2.2.4.2.6.1.6.6 1 1 1a12.4 12.4 0 0 1 .6 2.7c-.5-.3-.3-1-.8-1.2-.5.8 0 1.6-.1 2.3 0 .2 0 .2.2.3a.4.4 0 0 1 .2.3 3.3 3.3 0 0 0 1.8 2.8.5.5 0 0 0 .6.4c.3 0-.1-.5.2-.6.5.3 0 .9.4 1.3a7.6 7.6 0 0 1-3-2z"/><path fill="#364a5f" d="m71.5 73.7.2-.4c.2.2.6.3.7 0 .3-.3.5-.1.8 0a.6.6 0 0 0-.2.4c-.2.4 0 .8-.2 1.3 0-.3-.1-.1-.3-.2s0 0 0 .1h.2l.3.3a4 4 0 0 1-.1 2 .6.6 0 0 0 .1.8 2.5 2.5 0 0 1-1.9-.5 5 5 0 0 1 .5-2 .6.6 0 0 0 0-.4l.4-.1h-.4a9.9 9.9 0 0 0 .3-1c0-.4-.2-.2-.3-.2z"/><path fill="#ce6100" d="M72.8 78.7a44.8 44.8 0 0 0 6 .1h2.6c.5 0 .6-.1.6-.5s.2-1.1-.4-1.6c.4 0 .8-.3.6.4a5.2 5.2 0 0 0 0 1c0 .4 0 .7.6.7s.6-.4.5-.8a3.5 3.5 0 0 1 0-.5c0-.5 0-.9-.8-.7.3-.4.7-.3 1-.3s.2 0 .1.3a4 4 0 0 0 0 1.5.6.6 0 0 1 0 .2c0 .2.7.1.5.4s-.6.2-1 .2a52.2 52.2 0 0 1-9.7-.1c-.2 0-.5 0-.6-.3z"/><path fill="#a67c52" d="m70.2 78.1-.7.5-.4.2a2.3 2.3 0 0 0-2.2 0c-.2.2-.3 0-.3-.2a1.8 1.8 0 0 0-.2-.7 2.4 2.4 0 0 1-.6-2c1 .4 1.3 1.3 2 2 .6.4.7-.1 1-.1s0-.3 0-.5a2.8 2.8 0 0 1 1.4.8zm-6-9.4s.3 0 .2.1c0 .3 0 .6.2.8.2 0 .1.2 0 .4a1.6 1.6 0 0 0 .7 1.8c.2 0 .3.2.2.4a1.4 1.4 0 0 0 0 1.6v.4L65 74a7.7 7.7 0 0 1-.5-2.2A3.1 3.1 0 0 0 64 70c-.2-.3-.1-.8-.1-1.2l.2-.2a.1.1 0 0 0 .2 0z"/><path fill="#ce6100" d="M68.9 77.3c0 .2.3.5 0 .5s-.5.5-1 0c-.8-.5-1.2-1.5-2-2a2.1 2.1 0 0 1-.4-1 20.6 20.6 0 0 1 3.4 2.5z"/><path fill="#a67c52" d="M73 78a.6.6 0 0 1-.1-.7 4 4 0 0 0 0-2c0-.1 0-.2-.2-.3h.2v-1.3a.6.6 0 0 1 .3-.4h.2v1.5a13.6 13.6 0 0 0 0 3.1c0 .3-.2.2-.4.1z"/><path fill="#356cc8" d="m72.3 80.3-3-1 1.3-.8c.7.4 1.5.9 1.7 1.8z"/><path fill="#a67c52" d="M79.2 72.7a1 1 0 0 1 .2-.8h.2l.1 2.2v2A7 7 0 0 0 80 78c0 .4-.3.3-.6.3v-1.4l.1-1.1a11.2 11.2 0 0 0 0-3h-.2z"/><path fill="#364a5f" d="M82.2 75.4a3.8 3.8 0 0 1-1.2-2.5c.2.1.3 0 .3-.2v-.2h.3c.2.1 0 .5.4.5a.6.6 0 0 1 0 .2v.3h-.2a.3.3 0 0 0-.3-.3c0 .2.1.3.3.3v.6c-.2.1 0 .2 0 .3l.4.3c0 .3.5 0 .5.4 0 .2-.4 0-.5.3z"/><path fill="#8fc5f9" d="M85.2 75h-.5l-.1-2.6c.1 0 .3-.3.5 0a2.2 2.2 0 0 0 .2 1.6c0 .2-.2.6.3.7 0 .3-.3.2-.4.3zM74 76.5a6.9 6.9 0 0 0 .2 1.7h-.7a8.7 8.7 0 0 0 0-2 .9.9 0 0 1 0-.8h.2v.1c-.1.4.3.6.3 1z"/><path fill="#f3f3ef" d="M89.7 74c-.3.6-.8.3-1.2.1.2-.3 0-.7.4-.8a1.2 1.2 0 0 0 .3 0c.6-.1.8 0 .5.7z"/><path fill="#a67c52" d="M73 79.8a1.4 1.4 0 0 1 1.4-.1 2 2 0 0 0 1.5 0c.2 0 .4 0 .6.3a2.2 2.2 0 0 0-1.3.2.3.3 0 0 1-.3 0 2.9 2.9 0 0 0-1.9-.4z"/><path fill="#272727" d="M82.8 75c0-.3-.5 0-.5-.3a.6.6 0 0 0-.2-.6V74c.4.4.4-.3.6-.2.5.2.3 1 .9 1.1l-.1.2z"/><path fill="#364a5f" d="M85.2 75c0-.2.4 0 .4-.4a.2.2 0 0 1 .1-.2s0 .2.3.2a.4.4 0 0 0 .3-.5h.3l.4 1c-.2 0-.3.2-.5 0 0 0 0-.3-.3-.3s-.4.3-.5.4c-.1-.2-.4.1-.5-.2z"/><path fill="#a67c52" d="M80.7 80a1.2 1.2 0 0 1-1.5 0c-.3-.2-.8 0-1.3-.1 1-.5 2 .3 2.8 0z"/><path fill="#5d3102" d="M70.5 77c-.3-.4.1-1-.4-1.3v-.4h.2a5.8 5.8 0 0 1 .7 2.1l-.4-.2-.1-.2z"/><path fill="#a67c52" d="M84.6 72.4v2.7a.2.2 0 0 1-.3 0 8.4 8.4 0 0 0 0-1.7v-.2l.1-.9zm-3.9 7.5c.1-.3.4-.2.6-.1.6 0 1 .4 1.7.1a1 1 0 0 1-1.4.2 1.1 1.1 0 0 0-.9-.2z"/><path fill="#8ec5fd" d="M83.5 75h.1c.5-.4.2-1 .5-1.3.2.4 0 1 .1 1.4-.2 0-.5.6-.7 0z"/><path fill="#5d3102" d="M88.5 78.8v.4h-1v-.4zm-8.6-.8a7 7 0 0 1-.1-2 6 6 0 0 1 .2 1.9l-.1.1z"/><path fill="#ce6100" d="m80.5 78 .7-1a1.9 1.9 0 0 1-.6 1.1z"/><path fill="#356cc8" d="M73.5 76a8.7 8.7 0 0 1 .1 2h-.1z"/><path fill="#272727" d="M85.7 75.2c.1-.2.2-.4.5-.4s.2.2.2.4z"/><path fill="#5d3102" d="M84.2 75c0-.4.1-.9-.1-1.3 0-.2 0-.3.2-.3a8.4 8.4 0 0 1 0 1.7zm5 4.1.3.1-.3 1.2c-.2 0-.2-.2-.2-.4s.3-.5.2-.9zm-.8.4h.2a1.4 1.4 0 0 1-.2.8 1.6 1.6 0 0 1 0-.8z"/><path fill="#ce6100" d="M72.8 78.7h-.1.1z"/><path fill="#a67c52" d="M84.6 75v.1z"/><path fill="#111109" d="M85.8 75.8v-.1z"/><path fill="#a67c52" d="M70.5 77v.2-.2z"/><path fill="#364a5f" d="M78.6 78.3h.2c0 .1-.1.1-.2 0z"/><polygon fill="#a67c52" points="72.95 79.79 72.93 79.82 72.95 79.79 72.95 79.79"/><path fill="#ce6100" d="m65.5 75-.2-.2.2.1z"/><path fill="#a67c52" d="M60.6 64.4 61 66c-.4.3 0 .7-.3 1.1-.5-.2-.3-.9-.7-1.2a.5.5 0 0 0 0 .6c.5.6 0 1.4 0 2-.3 0-.3-.2-.3-.5 0-.4.3-1-.3-1.3-.2-.2.1-1 .1-1 .6-.3.7-.8 1-1.2z"/><path fill="#5d3102" d="M60.1 63.6c-.5 0-.5-.5-.5-.9 0-.7 0-.8-.8-.5a.6.6 0 0 1 .7-.4c.4 0 .4.3.4.7a1.1 1.1 0 0 0 .3 1zm3.7 9.1c-.2-.1-.4-.2-.4-.5h.1c.3 0 .4.2.3.5z"/><path fill="#5d3102" d="M58.9 62.2a1 1 0 0 1-.4.5l.3-.6zm5.6 13.1zm-6-12.5h-.2l.1-.2z"/><path fill="#8ec5fd" d="m58.4 62.6-.1.2c-.5.3-.7.8-1.2 1.2l-.1-4c0-.5.1-.6.6-.6h15.2a2.8 2.8 0 0 1-1.4 2.2c-.1.1 0 .2 0 .4-.3 0-.7-.2-.8.3s.3.6.6.7a3 3 0 0 0 .5 0c0 .4.1.8-.1 1s-.1.4 0 .6c-.7.2-.9.3-.7.7.2.2 0 .5 0 .7-.1 0-.2.1-.2.3-.2 0-.2.1-.1.3-.2 0-.2.1-.1.3-.2 0-.2.1-.2.3-.2-.1-.1 0-.2.1l-.2.3c-.1 0-.2.2-.1.3-.2 0-.2.1-.2.3a.2.2 0 0 0-.1.3.3.3 0 0 0-.2.2 5.5 5.5 0 0 0-1 1.5c-.2 0 0-.5-.4-.5a17.1 17.1 0 0 1-.5-3.8c0-.6-.1-1.2-.8-1.3s-.8-.5-1-1c0-.3 0-.8-.4-1s-.6.4-.9.7c0 0-.2 0-.2.2a5.1 5.1 0 0 1-.7 2s-.2 0-.2.2a2.3 2.3 0 0 0-1.2.8 5 5 0 0 1-1.2-2 1.2 1.2 0 0 0-.7-1 1.1 1.1 0 0 1-.3-1c0-.3 0-.6-.4-.7a.6.6 0 0 0-.7.4z"/><path fill="#ce6100" d="M59.2 72.2V72c.2-.3-.4-.7 0-.8l.9-.4c.3 0 .3.1.5.3a2.3 2.3 0 0 1 .4 1.6c-.4 0-.5.2-.4.5a4 4 0 0 1 .3.7 18.7 18.7 0 0 0 .7 2.5c0 .3.4.4.3.7-.2.8.4.8.8 1a3 3 0 0 1 .6 2.4.8.8 0 0 1-.4-.5c-.1-.4-.5-.6-.6-1-.6.5-.4-.4-.7-.5-.2.1 0 .4-.2.5a.7.7 0 0 1-.3-.6c0-.3 0-.8-.3-1-.9-.7-.8-2-1.7-2.7.5-.5.3-1.2.3-1.8 0-.2.4-.7-.2-.8z"/><path fill="#a67c52" d="M61.4 79c.2-.1 0-.4.2-.5.4 0 .1 1 .8.5 0 .4.4.6.5 1a.8.8 0 0 0 .4.4c0 .3.3.6-.2.7a1.9 1.9 0 0 0-.1-.1h-.1v.1l.1.2c.4.5 1.1.5 1.7.7.1.9.2.9 1 .6-.2.4-.5.7-.9.4s-1 0-1.4-.6c-.2-.2-.4 0-.6.1a.8.8 0 0 1-.5-1 1.3 1.3 0 0 0-.6-1.3 1 1 0 0 1-.3-1.3zm1.4 1.7z"/><path fill="#ce6100" d="M62.8 82.5c.2-.1.5-.3.6 0 .4.4 1 .2 1.4.5s.8 0 1-.4c.3.2.3.6.3 1a2.4 2.4 0 0 0 .4 1c-.6 0-1-.1-1.1-.5 0-.1-.2-.4-.3-.1-.4.5-.8.2-1 0-.5-.5-1.3-.6-1.3-1.5z"/><path fill="#a67c52" d="M62.8 78c-.4-.1-1-.1-.8-1l-.3-.6a18.7 18.7 0 0 1-.7-2.5 4 4 0 0 0-.3-.8c-.1-.3 0-.5.3-.4a3 3 0 0 0 1 1.9 1.9 1.9 0 0 1 .4 1.3 10.7 10.7 0 0 0 .4 2.2zm-3.6-5.8c.6 0 .3.5.3.7 0 .6.1 1.2-.3 1.8a.3.3 0 0 1-.2-.3 8.5 8.5 0 0 0 .2-2.3z"/><path fill="#ce6100" d="M65.7 82.6c-.8.3-.8.3-1-.6.4.2 1-.3 1 .6z"/><path fill="#356cc8" d="m74.6 87-.6.2c-.2 0-.5-.2-.4.3 0 .2-.4 0-.8-.4a3.9 3.9 0 0 1 1.8-.2zm2 2c0 .4.4.5.7.7.2.1.4 0 .4.4-.4.2-1.1.1-1.2 0-.3-.5-.8-.4-1.1-.6.4-.3.6-.8 1.2-.6z"/><path fill="#ce6100" d="m64 68.7-.2.2c-.8-.5-.8-1.5-1.3-2.1-.2-.2 0-.4.2-.6s.6-.2.6-.6c.2 0 .2 0 .2-.2.3 0 .4-.2.5-.3h.3c0 .8.7 1.6.2 2.4-.6.1-.7.4-.4 1.2z"/><path fill="#356cc8" d="M74.7 82.2v-.1c0-.1.1 0 .2 0zm7 5.4zm-6.4-4.2a.3.3 0 0 1-.4.3c0-.3.2-.4.4-.3z"/><path fill="#f3f3ef" d="m84.6 72.4-.2-.1h-.3c-.1-.2-.2-.5-.5-.3s-.6 0-1 0v-.5h2.3l.2.2c.4-.3 1 0 1.4-.1s.2.2.3.3a.8.8 0 0 1-.8.4c-.2 0-.3-.3-.6-.1 0 0-.1 0 0 .1H85c-.2-.2-.4.2-.5.1z"/><path fill="#3e3e3e" d="M86.6 74h-.5c-.2 0-.3 0-.2.3h-.2a.2.2 0 0 0-.1.3c-.5 0-.2-.5-.3-.7h.4c-.1-.5.2-.9-.1-1.3h.1c.4.4 1.3.6.9 1.5z"/><path fill="#356cc8" d="M84.7 70.6v.6a8.4 8.4 0 0 1-2.2.1c.5-.3 1.3-.3 1.1-1.2 0-.2.3 0 .4-.1a1.3 1.3 0 0 0 .4 1l.1-.4zm-.8 0z"/><path fill="#3e3e3e" d="M86.8 72c-.1-.2 0-.5-.3-.4s-1-.2-1.4.1l-.2-.1v-.3a11 11 0 0 1 1.7 0c.6 0 .5.3.2.6z"/><path fill="#5d3102" d="m84.7 68.6.2.3c-.3.6 0 1.2-.2 1.7h-.1a6 6 0 0 1 0-2 .8.8 0 0 1 .1 0z"/><path fill="#080a06" d="M84.9 71.3v.3l-2.4-.1v-.1a8.4 8.4 0 0 0 2.2-.2z"/><path fill="#111109" d="M85.4 72.4v-.2c.3-.1.4 0 .6.1.1.4-.1.2-.3.2z"/><path fill="#356cc8" d="M85.4 72.4h.3a.1.1 0 0 1 0 .2 1 1 0 0 0-.1.1c-.2 0-.3 0-.2-.3z"/><path fill="#364a5f" d="M88 71.2v.2-.2z"/><path fill="#8fc5f9" d="m85.4 63.4.8 3.6a17.7 17.7 0 0 1-1.7 0v-3.5a1.7 1.7 0 0 0 .9 0z"/><path fill="#a67c52" d="M84.5 65.7V67h-.3a18.6 18.6 0 0 0-.1-3.3v-.2h.2a11.9 11.9 0 0 0 .2 2.3z"/><path fill="#364a5f" d="M82.7 63.1c-.5-.2-1.2 0-1.3-.8 0-.1 0-.2.2-.2a.2.2 0 0 0 .1.2.4.4 0 0 0 .6.4c.4 0 .3.2.4.4z"/><path fill="#356cc8" d="M84.1 63.4a2 2 0 0 0 0 .2c-.1.7.2 1.4-.1 2v-2.3z"/><path fill="#5d3102" d="M84.5 65.7a11.9 11.9 0 0 1-.2-2.3l.2.1z"/><path fill="#8fc5f9" d="M82.5 71.3v.2l.2.5c.4.1.6.4.3.8a4.7 4.7 0 0 0-.2 1c-.3-.2-.3.5-.6.1.1-.3.5-.5 0-.8l-.2-.3v.2c-.4 0-.2-.4-.4-.6-.2-.3.3-.4.1-.7.1-.2.3-.4.3-.7s.3-.2 0-.3c-.8-.2-1.6 0-2.3-.1a3.1 3.1 0 0 1 0-1.4v-1c0-.5.5-.4.6-.3.5.4.8.1 1.2-.2h.4l.4.2c.1.2.3 0 .4 0 .5.2.8.7 1.4.6L84 70l-.4.1c.2.9-.6.9-1 1.2z"/><path fill="#fefefe" d="m82.3 67.9-.4-.2v-.5c.6 0 1.3-.3 2 .3v.2c.3-.2 0-.4 0-.5h2.7a1 1 0 0 0 .1.8l-2 .6-.2-.3v-.2c-.6.3-1.1-.1-1.6-.4-.3 0-.5 0-.7.2z"/><path fill="#f3f3ef" d="M81.4 67.7c-.3.3-.6.6-1.1.2-.2 0-.6-.2-.6.3h-.5c-.4 0-.7-.6-1.1-.2a1.5 1.5 0 0 1-1.4-.4v-.4h2.4a3.5 3.5 0 0 0 1.3 0 5.2 5.2 0 0 0 .7 0c.4 0 .3.3.3.5z"/><path fill="#5d3102" d="M84 65.6c.2-.6 0-1.3 0-2a18.6 18.6 0 0 1 .2 3.3H84l-.2-1.3z"/><path fill="#364a5f" d="M80.5 67.3a3.5 3.5 0 0 1-1.3-.1c.2-.1.6 0 .8-.2h.9c0 .2-.3.2-.5.3z"/><path fill="#f3f3ef" d="M84 67.2c0 .1.2.3 0 .5-.2 0-.2-.1-.2-.2s-.1-.3.1-.3zm-2.2 0v.3c0-.1-.2-.2 0-.3z"/><path fill="#364a5f" d="M85.1 62c0 .3-.3.2-.6.2.2-.5.4-.2.6-.2z"/><path fill="#f3f3ef" d="M73.3 73.3c-.4-.2-.6-.3-1 0 0 .3-.4.1-.6 0l-.3-.2c-.8.3-.8-.3-.8-.8h5.6a2.5 2.5 0 0 1 .5.1 1 1 0 0 1-.2.8c-.7.4-1.6-.3-2.4.2l-.3-.1c-.2-.3-.3 0-.5 0zM71 66c-.1-.2.2-.5 0-.7a1.3 1.3 0 0 1 1-.3h3.8l.6.1c.1.1-.2.4-.2.7l-2.6.3h-.2c0-.1-.1 0-.2 0l-.3.1c-.5-.8-1.1 0-1.7 0zm.8-2.9a3 3 0 0 1-.5 0c-.4-.2-.6-.4-.6-.8s.5-.2.7-.3c.3 0 .6.3 1 0 .1.3.4.1.6.1l2.6.1c.2 0 .5-.1.6.2 0 .6-.3.8-.8.7-.2 0-.4-.2-.5 0a3.5 3.5 0 0 1-1-.2c-.3-.1-.4 0-.4.3l-.2.1H73c-.4-.2-.8-.5-1.3-.2zm1.3 6.7a1.7 1.7 0 0 0-1.4-.4.6.6 0 0 1-.7-.7h3a2.9 2.9 0 0 0 1.6-.2l.3.2c.1 0 .6-.3.6.2a.7.7 0 0 1-.8.6 11.2 11.2 0 0 0-2.3.1l-.2.1a.1.1 0 0 1-.1 0zm9 1.2c0 .3-.2.4-.3.6l-.7.6c-.3-.7-.5-.7-1.2-.4H79c-.3-.4-.6-.5-1 0-.6.1-.7-.5-1-.9.5-.2.9 0 1.3-.1a.1.1 0 0 0 .2 0h.3a11.2 11.2 0 0 0 2.5 0h.3z"/><path fill="#fefefe" d="M80.3 64.2a1.7 1.7 0 0 0-.2.2c-.2-.2-.4 0-.6 0l-.3-.7s-.1-.2 0-.4h3v.1a1.8 1.8 0 0 1-.3.8c-.4 0-.9.3-1.3-.1 0-.2-.3 0-.3.1z"/><path fill="#f3f3ef" d="M78.4 61.2c-.7.3-1 .1-1.3-.6a34 34 0 0 0 3.8 0h.3c.2 0 .5-.1.5.2 0 .1 0 .3-.2.3-.6-.1-1.2.4-1.8 0-.4.2-.9-.1-1.3 0z"/><path fill="#364a5f" d="M73.3 73.3c.2 0 .3-.3.5 0l.3.1c.8-.5 1.7.3 2.5-.2a.8.8 0 0 1-1.2.3 1 1 0 0 0-1.1.2l-.4.1c0 .4.2.3.4.2a.7.7 0 0 1 .2.8l-.3-.1c0-.3-.3-.4-.4-.3l-.1.4h-.3v-.4a.4.4 0 0 0 0-.6z"/><path fill="#272727" d="M76.7 72.4a2.5 2.5 0 0 0-.5 0c-1.9 0-3.8-.2-5.6 0l-.1-.1.2-.3h1.7c.3 0 .5 0 .6-.4 0 .2 0 .6.4.4.2.2.4 0 .6 0 .8 0 1.6.2 2.5.1.2 0 .3.1.2.3z"/><path fill="#111109" d="M76 65.8c0-.2.4-.4.3-.7s-.5 0-.7 0h-3.8a1.3 1.3 0 0 0-1 .3c-.1-.5 0-.6.7-.7.1.1.2.3.4.2h1.3a2 2 0 0 0 1.3 0c.6-.1 1.2.2 2 0 0 .4 0 .8-.5.9z"/><path fill="#f3f3ef" d="M79.2 63.3c-.1.1 0 .3 0 .4h-.3a1.5 1.5 0 0 1-1.4.3 1.4 1.4 0 0 1-.6-.7c.6-.2 1.2.1 1.8-.2.1.3.4 0 .5.2z"/><path fill="#111109" d="M75.5 68.5a2.9 2.9 0 0 1-1.7.2h-3c.2-.4.6-.2.9-.3s.8.2 1.2-.1h.1v.2h1c.5-.4 1 0 1.5 0z"/><path fill="#3e3e3e" d="M74.1 76.5c0-.4-.4-.6-.3-1 .1 0 .2 0 .2-.2s-.1 0-.2 0h-.2v-.2h.4l.5-.2c.5.2.3.7.4 1-.4.1-.4.6-.8.6z"/><path fill="#a67c52" d="M79.2 68.1h.4c.1.4-.1.8.1 1.1a3.1 3.1 0 0 0 0 1.4h-.5zM73.4 72c-.4.2-.4-.2-.4-.4s-.2-.1 0-.3c.3-.3 0-.7 0-1.1V70l.1-.2c0-.2.2-.1.3-.1V72z"/><path fill="#111109" d="M79.2 70.6H82l-.4.2h-.3a10.1 10.1 0 0 0-2.5 0h-.6c-.4.1-.8 0-1.2.2-.3-.3-.1-.3.1-.3zM76 62.4c-.1-.3-.4-.2-.6-.2h-2.6c-.2 0-.4 0-.6-.2.2 0 .5.1.6-.1h.6a2 2 0 0 0 1.1 0l1.4.1c.3 0 .3.2.1.4z"/><path fill="#364a5f" d="M80.9 60.5a34 34 0 0 1-3.8.1c.3-.2.6-.5 1-.2.3.2.5 0 .8 0a15.6 15.6 0 0 1 2 .1z"/><path fill="#111109" d="M80 67c-.3.2-.6 0-.9.2h-2.4c-.2-.1-.2-.2 0-.3H78l2 .1zm-.8-3.7c-.1-.1-.4.1-.4-.2l.3-.2c1 .4 2 0 2.9.2l.1.2z"/><path fill="#364a5f" d="M78.4 61.2c.5-.2 1 .1 1.3-.1 0 .2-.3.3-.2.6s0 .3-.3.3-.2-.1-.2-.3c0-.3-.2-.5-.6-.5z"/><path fill="#ce6100" d="M73 61.9h-.2V60c0-.2 0-.5.3-.5l-.1 2.3zm.4 6.5c-.1.1-.2.2-.3 0 .3-.7 0-1.5.2-2.3h.2c.2.9-.2 1.6-.1 2.3z"/><path fill="#080a06" d="M78.7 63.1c-.6.4-1.3 0-1.9.2a1.9 1.9 0 0 1 1.9-.2z"/><path fill="#111109" d="M80.9 60.5a15.6 15.6 0 0 0-2 0l-.8-.1h3.3c.2 0 .3-.1.4.1h-.6z"/><path fill="#364a5f" d="M80.3 64.2c0-.1.2-.3.3-.2.4.4 1 .1 1.4.1l-.1.3h-.1a6 6 0 0 1-1.5-.2z"/><path fill="#3e3e3e" d="M79 63.7h.2l.3.7h-.1c-.4.4 0 .9-.2 1.3a5 5 0 0 1-.1-1.6z"/><path fill="#364a5f" d="M79 63.7v.4c-.1-.2-.3 0-.5 0-.4 0-.8.3-1-.1a1.5 1.5 0 0 0 1.4-.3zm-5.7-.5c0-.3.1-.4.4-.3a3.5 3.5 0 0 0 1 .3c-.5.3-1-.2-1.4 0z"/><path fill="#5d3102" d="M73.4 62h-.2v-2.5c.4.3.2.7.2 1V62z"/><path fill="#a67c52" d="M73.2 59.5V62l-.2-.1v-2.3h.2z"/><path fill="#364a5f" d="M76.7 67.6a1.5 1.5 0 0 0 1.4.4c-.7.4-1.1.2-1.4-.4z"/><path fill="#356cc8" d="m74.9 76.6.3-.1a.9.9 0 0 1-.1.5c-.3.4-.3.4-.6.3.4 0 .2-.2 0-.3s.7 0 .4-.4z"/><path fill="#364a5f" d="M79.5 64.4c.2 0 .4-.2.6 0-.3 0-.3.3-.5.5a.1.1 0 0 1-.1 0v-.6z"/><path fill="#356cc8" d="M77 76.3h-.7c0-.1-.5-.1-.1-.3.2.4.7-.2.8.3z"/><path fill="#5d3102" d="M73.3 63.3v1.5-1.5z"/><path fill="#a67c52" d="M79.2 65.8c.1-.5-.2-1 .1-1.4v1.2c0 .3 0 .3-.1.2z"/><path fill="#ce6100" d="M79.4 65.6v-1.2h.1v1.3z"/><path fill="#272727" d="M74.5 75H74l.3-.3c0 .2.1.2.2.2a.3.3 0 0 1 0 .1z"/><path fill="#3e3e3e" d="m74 73.8.3-.1v.3c-.2 0-.4.2-.4-.2z"/><path fill="#356cc8" d="M79.5 65.6V65a1.3 1.3 0 0 1 0 .8z"/><path fill="#364a5f" d="M81.2 60.5h.6v.3c-.1-.3-.4-.1-.6-.3zm.7 3.9a.3.3 0 0 1 .1.3l-.2-.3z"/><path fill="#f3f3ef" d="M82.2 63.4z"/><path fill="#111109" d="M74.6 62v-.2z"/><path fill="#5d3102" d="M64.5 63.3c.2-.3.5-.8.9-.7s.2.6.3 1c.2.4.4.8 1 1s.8.7.9 1.3a17.1 17.1 0 0 0 .4 3.8 6.5 6.5 0 0 0 .8 2.3c.5.7.8 1.5 1.2 2.2l.1.5.1.3c.1.1 0 .3 0 .4H70c-.2-1.3-1-2.2-1.4-3.4a.7.7 0 0 0-.6-.5 12.4 12.4 0 0 0-.6-2.8 1.2 1.2 0 0 0-.1-.5 2.2 2.2 0 0 1-.3-1.6 1.5 1.5 0 0 0-1-2 1.2 1.2 0 0 1-.5-.8c-.2-.8-.2-.8-1-.5z"/><path fill="#364a5f" d="m70.7 72-.2.2c-.3-.2-.2-.4-.1-.6a18.7 18.7 0 0 1 .3-2c.2.8-.3 1.6 0 2.4z"/><path fill="#ce6100" d="M73 68.3h-.2v-2l.3-.1a12 12 0 0 1-.1 2z"/><path fill="#364a5f" d="M70.1 74.7v-.5l.1-1.5c.2.8-.1 1.4 0 2zm0-7.4s0-.2.2-.1a3 3 0 0 1-.5 1v-.6l.3-.3z"/><path fill="#ce6100" d="M73 70.2c0 .4.3.8 0 1.1v-1.1z"/><path fill="#272727" d="M71.7 75h.3c-.1.2-.3 0-.4 0z"/><path fill="#080a06" d="M70.2 75.3V75c.5 0 0 .2 0 .3z"/><path fill="#364a5f" d="m70.9 66 .1.1c0 .2-.1.2-.3.2s0-.2.2-.3zm-1.3 2.8-.2.2v-.3zm.9-2s-.1-.2 0-.2v.3zm.1-.2.1-.3-.1.3zm-.9 1.9-.1.2h-.2v-.3h.2zm.1-.3v.3l-.2-.1V68h.1zm.5-1c0-.2 0-.3.2-.3 0 .1 0 .2-.2.3z"/><path fill="#ce6100" d="M73 69.8v.2-.2z"/><path fill="#364a5f" d="M71.2 74s.1-.2.2 0 0 0-.1 0zm-.1.2V74l.2.1-.1.2zm.5-.4h-.1v-.1zm-.4.5H71v-.1z"/><path fill="#5d3102" d="M64.5 67.4c.5-.8-.2-1.5-.2-2.3 0-.2-.1-.2-.3 0s-.2.3-.4.3a5.1 5.1 0 0 0 .6-2l.3-.1c-.4 1 .3 1.9.5 2.8 0 .6.2 1-.5 1.3zm-.4 1.3c-.3-.8-.2-1 .4-1.3a2 2 0 0 0-.3 1.3.1.1 0 0 1-.1 0z"/><path fill="#272727" d="M74.9 76.6c.3.5-.4.1-.3.4h-.3a.8.8 0 0 1 .3-.5c.3-.4.1.2.3.1z"/><path fill="#8fc5f9" d="M76.3 77c.1 0 .3 0 .2.2a.2.2 0 0 1-.4 0z"/><path fill="#356cc8" d="M77.1 76.3c0 .1.2.3 0 .3s-.1-.2-.2-.3a.3.3 0 0 0 .2 0zm0 0s0-.2.2-.2c0 .2 0 .2-.2.2zm-.1-.5a.2.2 0 0 1-.2 0h.2z"/><path fill="#272727" d="m76.3 77-.2.1s-.1-.1 0-.2.1 0 .2.1zm0-.7h.1v.2l-.1-.2z"/><path fill="#356cc8" d="M74.3 77h.2v.3z"/><path fill="#080a06" d="M88.5 78.8h-1v-1.4c.1-.4.8-.2 1.3-.2h.5c1.2-.2 1.3 0 .9 1.2-.3.6-.8.4-1.2.4s-.2-.4-.2-.6a1.5 1.5 0 0 0-.2-.8zm1.2-3.2c.2 0 .7-.2.5.3 0 .4.3 1-.4 1-.3 0-1 .2-1-.6.1-.5.2-.9.9-.7zm-1 .6c0 .5-.1.7-.7.7-.8 0-.5-.5-.6-.8 0-.7.5-.4.7-.5.5 0 .6.2.5.6z"/><path fill="#5d3102" d="M79.6 72h.1v2l-.1-2.2z"/><path fill="#356cc8" d="m81 72.2.7-.5c.1.2-.4.4-.1.7H81z"/><path fill="#272727" d="M81 72.4h.3v.2h-.4l.1-.2z"/><path fill="#364a5f" d="M80.9 72.7h.1v.1l-.1-.1z"/><path fill="#ce6100" d="m79.2 72.7.2.1a11.2 11.2 0 0 1 0 3 9 9 0 0 0-.1-2z"/><path fill="#356cc8" d="M79.2 73.7a9 9 0 0 1 .2 2v1.1a17.6 17.6 0 0 1-.2-3.1z"/><path fill="#5d3102" d="M69.3 76a3.3 3.3 0 0 1-1.8-2.7.4.4 0 0 0-.3-.4s-.2 0-.2-.2c.2-.8-.3-1.6.1-2.4.6.3.4 1 .9 1.2.4 1.4 1.1 2.8 1.7 4.2z"/><path fill="#080a06" d="m69.3 76 .4-.3.2-.3h.3l-.2.4c-.2.1.2.5-.1.5a.5.5 0 0 1-.6-.3z"/><path fill="#8fc5f9" d="M72.8 75h-.3s.3-.3.3 0z"/><path fill="#5d3102" d="M74 74.8c-.2 0-.4.1-.4.3v.2a.9.9 0 0 0 0 .8v1.8a13.6 13.6 0 0 1-.1-3h.2zm-.6-1a.4.4 0 0 1 0 .6z"/><path fill="#356cc8" d="M82 74.1a.6.6 0 0 1 .3.6c-.2 0-.3-.2-.3-.4v-.2z"/><path fill="#272727" d="M82 73v-.3l.2.4v.2L82 73a.6.6 0 0 0 0-.1z"/><path fill="#8fc5f9" d="m82 73.1.3.2c0 .1 0 .2-.2.3zm-.2.4c-.1 0-.2-.1-.2-.3a.3.3 0 0 1 .2.3zm.3.6h-.2v-.4l.1.1.2.2z"/><path fill="#356cc8" d="M81 72.8v-.1c0-.2.2 0 .3 0 0 .2 0 .3-.3.1z"/><path fill="#272727" d="M81.9 74h.1a2 2 0 0 0 0 .3c-.2 0-.3 0-.1-.2zm.1-.2-.2-.1v-.2h.2a.2.2 0 0 1 .1 0z"/><path fill="#364a5f" d="M85.4 72.4c-.1.2 0 .2.2.3.3.4 0 .8 0 1.2h-.3a2.2 2.2 0 0 1-.2-1.5zm-11.6 3c.1 0 .2-.2.2 0s-.1 0-.2 0zm9-1.6a4.7 4.7 0 0 1 .3-1c.2-.4 0-.6-.4-.8h.9c.3-.1.4 0 .5.3.3.2-.2.7.2.8v.3c-.2 0-.2.1-.2.3-.3.3 0 1-.5 1.2-.5-.2-.3-.9-.8-1zm-.8 0 .1-.2c.2 0 .1-.2.1-.3V73c.5.3.1.6 0 .9z"/><path fill="#272727" d="M85.7 74.4h.2c.2 0 .2 0 .2-.3h.2a.4.4 0 0 1-.3.5c-.2 0-.3 0-.3-.2z"/><path fill="#5d3102" d="M84.3 73.2c-.4-.2.1-.7-.2-.9h.3z"/><path fill="#8fc5f9" d="M73 64.8h-1l-.4-.1c-.1-.1-.4-.5 0-.7s0-.6.1-.9c.6-.3 1 0 1.3.3v.4l-.1.1v.2zm-3 2.8c0 .1 0 .2-.2.3l.1-.3zm0-.3v.3-.3z"/><path fill="#5d3102" d="M63.5 65.4c0 .1 0 .2-.2.2 0-.2.1-.2.2-.2z"/><path fill="#8fc5f9" d="M69.5 68.4v.3h-.1a.3.3 0 0 1 0-.3zm.1-.3v.3a.2.2 0 0 1 0-.3zm.1 0v-.3.3z"/><path fill="#5d3102" d="M62.9 81.1s-.1-.1 0-.2.1.1.1.1z"/><polygon fill="#5d3102" points="62.78 80.71 62.73 80.73 62.74 80.68 62.78 80.71"/><path fill="#5d3102" d="M63 81a1.9 1.9 0 0 1 .1.1v.2l-.2-.2z"/><path fill="#356cc8" d="M85.4 72.2v.1c-.1 0 0 0 0-.1zm.7 2s0 .2-.2.2c0-.2 0-.3.2-.3z"/><path fill="#a67c52" d="M84.5 68.3v.3a6 6 0 0 0 0 2l-.1.4a1.3 1.3 0 0 1-.4-1v-1.6c.2 0 .3-.2.5 0z"/><path fill="#8fc5f9" d="M83.9 70.7z"/><path fill="#364a5f" d="M84.5 68.6v-.3l.1.2zm0-.3c-.2-.1-.3 0-.4.1-.6.1-1-.4-1.4-.5l.1-.2c.5.3 1 .7 1.6.5z"/><path fill="#356cc8" d="M79.7 69.2c-.2-.3 0-.7-.1-1h.1v1z"/><path fill="#f3f3ef" d="m82.8 67.7-.1.2c-.2 0-.3.2-.4 0 .1-.3.3-.2.5-.2z"/><path fill="#364a5f" d="m81.6 70.8.3-.1c.4 0 0 .2 0 .3z"/><path fill="#a67c52" d="M73 68.3a12 12 0 0 0 0-2.1c0-.1.1-.2.2 0-.1.7.2 1.5-.2 2.3zm.2-5v1.5h-.1v-1.4z"/><path fill="#ce6100" d="M73 63.4v.7-.5z"/><path fill="#364a5f" d="M78.8 70.8a10.1 10.1 0 0 1 2.5 0 11.2 11.2 0 0 1-2.5 0zm-.6 0h.2a.1.1 0 0 1-.2 0z"/><path fill="#3e3e3e" d="M74 74.8h-.4c0-.1 0-.4.2-.4s.4 0 .4.3zm0-1h-.1z"/><path fill="#5d3102" d="M73 64.2V64v.7zm0 .7h.2c0 .1 0 .1-.1 0z"/><path fill="#364a5f" d="m73.6 75 .3-.1c.1-.1 0 .1 0 .2zm.9 2.3V77h.1c0 .1.3.3-.1.3z"/><path fill="#a67c52" d="m70 75.3-.3.3c-.6-1.4-1.3-2.7-1.8-4.1a.7.7 0 0 1 .6.5c.4 1.1 1.2 2 1.4 3.3z"/><path fill="#5d3102" d="M73 63.8v.2h-.1z"/></g><path d="M75.6 93.9c-.3 0-6-.8-11.2-7.3-4.8-6-10-18.1-8.1-42v-.3l.2-.1c.2-.1 18.5-7.4 38.1.4h.3v.3c0 .5 5 42.4-19.2 49zm-18.5-49c-3.4 43.4 17 47.9 18.5 48.1C98 86.8 94.5 48.8 94 45.3a55 55 0 0 0-37-.4z"/></g></svg>