<svg xmlns="http://www.w3.org/2000/svg" width="512" height="512" fill="none"><path fill="#0052B4" d="M482.2 376c19-35.8 29.8-76.6 29.8-120 0-43.4-10.8-84.2-29.8-120H29.8A254.9 254.9 0 0 0 0 256c0 43.4 10.8 84.2 29.8 120h452.4Z"/><path fill="#D80027" d="M496.5 344a256.1 256.1 0 0 1-481 0h481Z"/><path fill="#EEE" d="M496.5 168h-481a256.1 256.1 0 0 1 481 0Z"/><path fill="#0052B4" d="M222.6 202.7V100.2H89v102.5h133.6Z"/><path fill="#EEE" d="M89 167v22.2c0 51.1 66.8 66.8 66.8 66.8s66.8-15.7 66.8-66.8V167l-22.3 22.2-44.5-33.4-44.5 33.4L89 167Z"/></svg>