<svg xmlns="http://www.w3.org/2000/svg" viewBox="0 0 512 512"><circle cx="256" cy="256" r="256" fill="#496e2d"/><ellipse cx="256" cy="284" rx="140" ry="132" fill="#fff" paint-order="markers stroke fill"/><ellipse ry="111" rx="122" cy="249" cx="256" fill="#496e2d" paint-order="markers stroke fill"/><path d="M256.78 149.55h-1.56c-.31 8.58-4.72 15.04-11.32 20.93-6.6 5.88-15.35 11.12-24.1 17.07-8.74 5.96-17.5 12.64-24.04 21.53-6.55 8.87-10.87 19.96-10.75 34.55.02 14.4 4.46 25.3 11.1 34.04 6.64 8.74 15.45 15.34 24.21 21.26 8.77 5.93 17.5 11.2 24 17.2 4.84 4.46 8.43 9.29 10 15.12.4 2.06.77 4.15.9 6.47h1.56c.13-2.32.5-4.41.9-6.46 1.57-5.84 5.16-10.67 10-15.13 6.5-6 15.23-11.28 24-17.2 8.76-5.93 17.57-12.52 24.2-21.26 6.65-8.74 11.09-19.64 11.11-34.03.12-14.6-4.2-25.68-10.75-34.56-6.55-8.89-15.3-15.57-24.04-21.53-8.75-5.95-17.5-11.19-24.1-17.07-6.6-5.89-11-12.35-11.32-20.93z" fill="#fff" fill-rule="evenodd"/><path d="M262.65 117.79h29.02l-23.15 15.29 9 23.44-22.18-14.74-.17.11-.03-.02-21.96 14.5 8.28-23.96-21.13-14.62h26.18l7.64-22.15z" fill="#fff"/><path d="M319.22 146.67c-2.01 4.43-3.15 9.63-2.93 13.8-2.7-1.51-10.54-5.04-12.9-5.5.12 5.83 1.91 12.02 4.68 16.11-6.06-.8-11.16.24-15.67 2.01 9.56 12.86 20.4 14.68 33.96 10.72a26 26 0 0 0 2.7 12.47 30.6 30.6 0 0 0-15.8-.29c6.83 12.58 17.92 18.56 31.1 15.7a22.62 22.62 0 0 0-2.37 13.05v.01a30.66 30.66 0 0 0-14.55-6.17c3.86 16.01 12.3 22.04 23.36 26.64-3.63 1.53-7.83 10.26-8.1 11.34a30.6 30.6 0 0 0-10.68-11.65c-4.2 12.97-1.48 25.29 8.94 32.6-1.07-1.15-8 4.65-9.24 6.44a30.61 30.61 0 0 0-5.39-14.86c-8.72 10.2-11.07 22.37-4.55 33.1h.01a26.2 26.2 0 0 0-9.05 4.32 30.6 30.6 0 0 0-2.52-15.6c-9.5 7.36-13.75 22.44-10.74 31.43v.01c-3.75-.06-7.44.68-10.83 2.15a30.7 30.7 0 0 0 1.11-15.77c-13.48 6.46-19.44 17.36-17.17 30.85v.03l-9.67 4.08 4.65 2.1 6.4-3.57c13.64 6.52 26.63 6.44 36.41-1.99-3.94-2.85-8.82-4.98-12.94-5.59l.04-.06a25.86 25.86 0 0 0 6.05-7.43h.02c12.54 6.3 26.25 1.23 33.94-10.28-4.49-1.88-9.72-2.84-13.87-2.49l.02-.06a25.9 25.9 0 0 0 4.1-8.26h.01c13.44 1.54 25.92-4.25 30.22-16.57-4.77-1-10.09-.97-14.1.15.92-1.25 2.57-9.75 2.6-10.79 14.2-4.48 22.25-12.67 22.6-27.26-4.79.9-9.68 2.98-12.96 5.55-.19-2.75-1.43-10.26-2.1-11.85 11.6-8.79 15.23-23.55 9.91-36-3.97 2.82-7.57 6.74-9.48 10.44.33-1.03-4.3-8.62-6.83-9.92h-.01c7.74-12.03 5.29-26.8-3.96-36.05-2.64 4.09-4.51 9.07-4.9 13.22-1.4-3.01-7.79-5.8-10.05-6.65 3.45-14.45 2.7-24.6-9.47-33.66zm-126.44 0c2.01 4.43 3.15 9.63 2.93 13.8 2.7-1.51 10.54-5.04 12.9-5.5-.12 5.83-1.91 12.02-4.68 16.11 6.06-.8 11.16.24 15.67 2.01-9.56 12.86-20.4 14.68-33.96 10.72a26 26 0 0 1-2.7 12.47 30.6 30.6 0 0 1 15.8-.29c-6.83 12.58-17.92 18.56-31.1 15.7a22.62 22.62 0 0 1 2.37 13.05v.01a30.66 30.66 0 0 1 14.55-6.17c-3.86 16.01-12.3 22.04-23.36 26.64 3.63 1.53 7.83 10.26 8.1 11.34a30.6 30.6 0 0 1 10.68-11.65c4.2 12.97 1.48 25.29-8.94 32.6 1.07-1.15 8 4.65 9.24 6.44a30.61 30.61 0 0 1 5.39-14.86c8.72 10.2 11.07 22.37 4.55 33.1h-.01a26.2 26.2 0 0 1 9.05 4.32 30.6 30.6 0 0 1 2.52-15.6c9.5 7.36 13.75 22.44 10.74 31.43v.01c3.75-.06 7.44.68 10.83 2.15a30.64 30.64 0 0 1-1.11-15.77c13.48 6.46 19.44 17.36 17.17 30.85v.03l9.67 4.08-4.65 2.1-6.4-3.57c-13.64 6.52-26.63 6.44-36.41-1.99 3.94-2.85 8.82-4.98 12.94-5.59l-.04-.06a25.86 25.86 0 0 1-6.05-7.43h-.02c-12.54 6.3-26.25 1.23-33.94-10.28 4.49-1.88 9.72-2.84 13.87-2.49l-.02-.06a25.9 25.9 0 0 1-4.1-8.26h-.01c-13.44 1.54-25.92-4.25-30.22-16.57 4.77-1 10.09-.97 14.1.15-.92-1.25-2.57-9.75-2.6-10.79-14.2-4.48-22.25-12.67-22.6-27.26 4.79.9 9.68 2.98 12.96 5.55.19-2.75 1.43-10.26 2.1-11.85-11.6-8.79-15.23-23.55-9.91-36 3.97 2.82 7.57 6.74 9.48 10.44-.33-1.03 4.3-8.62 6.83-9.92h.01c-7.74-12.03-5.29-26.8 3.96-36.05 2.64 4.09 4.51 9.07 4.9 13.22 1.4-3.01 7.79-5.8 10.05-6.65-3.45-14.45-2.7-24.6 9.47-33.66z" fill="#fff" fill-rule="evenodd"/></svg>