<svg xmlns="http://www.w3.org/2000/svg" viewBox="0 0 100 100"><mask id="a"><circle cx="50" cy="50" r="50" fill="#fff"/></mask><g mask="url(#a)"><rect width="102.24" height="102.24" x="-1.12" y="-1.12" fill="#00247d"/><path fill="#fbfcfd" d="M91 67c-.5 0-1-.1-1.3.5-.1.2-.3.2-.5.2a12.3 12.3 0 0 0-4.8 1 14.9 14.9 0 0 1-2.6.7c-1.1.2-2.1.8-3.2 1l-.4.2a4.3 4.3 0 0 0-2.6.7c-1 .6-1.6.4-2.2-.7a3 3 0 0 0-2.7-1c-1.4 0-2.6.9-4 1.1-.3 0-.4.5-.7.7a4.5 4.5 0 0 1-1.8.5 1.3 1.3 0 0 0-1 .6 25.5 25.5 0 0 1-1.7 2 8.2 8.2 0 0 1-2 1.6 16.6 16.6 0 0 0-1.7 1.6l-1.5 1.4a22.2 22.2 0 0 0-3 3 2.9 2.9 0 0 0-.7 1.2.8.8 0 0 1-1 .8 9.4 9.4 0 0 0-1.3.1 2.9 2.9 0 0 0-1.8 1 8.6 8.6 0 0 1-1.2 1c-1 .7-1.6 1.6-2.6 2.3s-1.2.8-2.2.2a1.4 1.4 0 0 0-1-.2c-.8.2-1.2-.2-1-1a1.1 1.1 0 0 0-.4-1 5 5 0 0 1-1.2-1.6 1.7 1.7 0 0 1 .3-2 1 1 0 0 1 1.4-.2 2.1 2.1 0 0 0 1.6 0 .8.8 0 0 0 .6-1.2c-.2-.6 0-1 .6-1.2l1.2-.6a1.5 1.5 0 0 0 .9-.8c0-.3.4-.4.7-.5a5.2 5.2 0 0 0 2.1-1.8c.5-.6 1.4-.7 2.1-1a12.5 12.5 0 0 1 2.1-.4 7.7 7.7 0 0 0 2.9-1.2c.9-.6 2-.7 3-1.4.5-.4 1-.7.6-1.4-.2-.5.3-.5.6-.6 1.5-.4 3-.6 4.6-.9a12.7 12.7 0 0 0 5-2.3.5.5 0 0 0 0-.9c0-.2-.3-.4-.1-.6s.4-.1.6-.1h.6c.2 0 .8 0 .4-.5V65c.7-.6.5-1.5.6-2.3a4 4 0 0 1 .7-1.6l2.2-3.7a6.7 6.7 0 0 1 1.8-1.9l3-2.2a21 21 0 0 1 2.6-1.4A18.7 18.7 0 0 1 86 50a9.3 9.3 0 0 1 3-.3c1 0 1-.1 1.2-1a.5.5 0 0 1 .5-.5H96c.9 0 1.3.7 1.7 1.4a.5.5 0 0 1-.1.6 4 4 0 0 1-.8.7 4.3 4.3 0 0 0-1.7 2.8c-.5 1.5-.4 3.2-.7 4.7s.2 3 .6 4.5c.3 1-.2 1.8-.5 2.7 0 .2-.3.1-.4.1a1.9 1.9 0 0 0-1.5.7 1.5 1.5 0 0 1-1.5.5z"/><rect width="29.04" height="17.21" x="5.81" y="28.83" fill="#ff1d25"/><rect width="29.04" height="17.21" x="5.81" fill="#ff1d25"/><polygon fill="#fff" points="5.81 0 2.9 0 2.9 17.21 2.9 20.11 5.81 20.11 34.85 20.11 34.85 17.21 5.81 17.21 5.81 0"/><polygon fill="#fff" points="2.9 25.92 2.9 28.82 2.9 46.04 5.81 46.04 5.81 28.82 34.85 28.82 34.85 25.92 5.81 25.92 2.9 25.92"/><polygon fill="#00247d" points="2.9 20.11 2.9 17.21 2.9 0 0 0 0 46.04 2.9 46.04 2.9 28.82 2.9 25.92 5.81 25.92 34.85 25.92 34.85 20.11 5.81 20.11 2.9 20.11"/></g></svg>