<svg xmlns="http://www.w3.org/2000/svg" width="512" height="512" fill="none"><path fill="#0052B4" d="M482.2 376c19-35.8 29.8-76.6 29.8-120 0-43.4-10.8-84.2-29.8-120H29.8A254.9 254.9 0 0 0 0 256c0 43.4 10.8 84.2 29.8 120h452.4Z"/><path fill="#D80027" d="M496.5 344a256.1 256.1 0 0 1-481 0h481Z"/><path fill="#EEE" d="M496.5 168h-481a256.1 256.1 0 0 1 481 0Z"/><path fill="#EEE" d="M66.2 144.7v127.7c0 72.6 94.9 94.9 94.9 94.9S256 345 256 272.4V144.7H66.2Z"/><path fill="#D80027" d="M88.5 144.7v127.7a54 54 0 0 0 5.6 24.1h134a53.6 53.6 0 0 0 5.6-24.1V144.7H88.5Z"/><path fill="#EEE" d="M205.6 233.7h-33.4v-22.2h22.3v-22.3h-22.3V167H150v22.2h-22.3v22.3H150v22.2h-33.4V256H150v22.3h22.2V256h33.4v-22.3Z"/><path fill="#0052B4" d="M124.5 327.6a160 160 0 0 0 36.6 16.6c7.5-2.3 22.3-7.6 36.6-16.6a80 80 0 0 0 30.4-31 38.8 38.8 0 0 0-31.3-6.2 39 39 0 0 0-71.4 0 39 39 0 0 0-31.3 6.1 80 80 0 0 0 30.4 31.1Z"/></svg>