<svg xmlns="http://www.w3.org/2000/svg" viewBox="0 0 512 512"><mask id="a"><circle cx="256" cy="256" r="256" fill="#fff"/></mask><g mask="url(#a)"><path fill="#eee" d="M0 0h512v160H0z"/><path fill="#0052b4" d="M0 160h512v192H0z"/><path fill="#d80027" d="M0 352h512v160H0z"/><path fill="#eee" d="M64 95v185c0 104 144 137 144 137s144-33 144-137V95z"/><path fill="#d80027" d="M96 95v185a83 78 0 009 34h206a83 77 0 009-34V95z"/><path fill="#eee" d="M288 224h-64v-32h32v-32h-32v-32h-32v32h-32v32h32v32h-64v32h64v32h32v-32h64z"/><path fill="#0052b4" d="M152 359a247 231 0 0056 24c12-3 34-11 56-24a123 115 0 0047-45 60 56 0 00-34-10l-14 2a60 56 0 00-110 0 60 56 0 00-14-2c-12 0-24 4-34 10a123 115 0 0047 45z"/></g></svg>