<svg xmlns="http://www.w3.org/2000/svg" viewBox="0 0 512 512"><path d="M496.077 345.043C506.368 317.31 512 287.314 512 256s-5.632-61.31-15.923-89.043L256 144.696 15.923 166.957C5.632 194.69 0 224.686 0 256s5.632 61.31 15.923 89.043L256 367.304l240.077-22.261z" fill="#f0f0f0"/><path d="M256 512c110.07 0 203.906-69.472 240.076-166.957H15.922C52.094 442.528 145.928 512 256 512z" fill="#338af3"/><path d="M256 0C145.928 0 52.094 69.472 15.922 166.957h480.155C459.906 69.472 366.07 0 256 0z" fill="#6da544"/></svg>