<svg xmlns="http://www.w3.org/2000/svg" width="512" height="512" fill="none"><path fill="#338AF3" d="M256 512a256 256 0 0 0 256-255.5v-.5l-256-32L0 256a256 256 0 0 0 256 256Z"/><path fill="#EEE" d="M512 255.5v.5H0a256 256 0 0 1 512-.5Z"/><path fill="#6DA544" d="M357.6 176.6 256 278.3 154.4 176.6a121.7 121.7 0 0 0-20.8 68.3v33.4c0 53.6 34.6 99.3 82.7 115.8a37 37 0 0 0 4 40l36.4-29.2 36.4 29.2a37 37 0 0 0 3.9-40.5 122.6 122.6 0 0 0 81.4-115.3v-33.4c0-25.3-7.6-48.7-20.8-68.3Z"/><path fill="#FFC635" d="M256 367.3c-49.1 0-89-40-89-89v-33.4a89.1 89.1 0 0 1 178 0v33.4c0 49-39.9 89-89 89Z"/><path fill="#338AF3" d="M311.7 278.3v-33.4a55.7 55.7 0 0 0-111.4 0v33.4l55.7 11 55.7-11Z"/><path fill="#6DA544" d="M200.3 278.3a55.7 55.7 0 0 0 111.4 0H200.3Z"/><path fill="#FFC635" d="M322.8 155.8A33.4 33.4 0 0 0 267 131v-19.6h11.2V89H267V78h-22v11h-11.2v22.3H245V131a33.4 33.4 0 1 0-44.5 49.8v19.6h111.3v-19.6c6.8-6.1 11-15 11-24.9Z"/></svg>