<svg xmlns="http://www.w3.org/2000/svg" width="512" height="512" fill="none"><g clip-path="url(#a)"><circle cx="256" cy="256" r="256" fill="#D80027"/><path fill="#FFDA44" fill-rule="evenodd" d="M173 166a93 93 0 0 1 44 40c17.7 30.5 17.3 65.5 1 87l-64-64 29-29-44-6-49 49 25 25 21-21 61.7 61.7c-21.3 9.3-48.5 2.6-69.7-17.7l-58 53 18 18 42-46c26.8 23.8 62.4 30 89.4 14.4L251 362l18-18-30.4-30.4c19.7-25.5 21.3-65.4 1.4-99.6a95 95 0 0 0-67-48Zm-43-6 40-29.3 40 29.3-15.3-47.4L235 83h-49.8L170 36l-15.2 47H105l40.3 29.6L130 160Zm40-43.8L153 129l6.5-20.8L142 95h21.7l6.3-20 6.3 20H198l-17.5 13.2L187 129l-17-12.8Z" clip-rule="evenodd"/></g><defs><clipPath id="a"><path fill="#fff" d="M0 0h512v512H0z"/></clipPath></defs></svg>