<svg xmlns="http://www.w3.org/2000/svg" width="512" height="512" fill="none"><circle cx="256" cy="256" r="256" fill="#EEE"/><path fill="#496E2D" fill-rule="evenodd" d="M467.2 111.3H44.8A255.7 255.7 0 0 1 256 0c87.7 0 165 44 211.2 111.3ZM255.4 512A255.7 255.7 0 0 1 44.8 400.7h422.4A256 256 0 0 1 256.6 512h-1.2Z" clip-rule="evenodd"/><path fill="#A2001D" fill-rule="evenodd" d="M496 345a255.5 255.5 0 0 0 0-178H16a255.5 255.5 0 0 0 0 178h480Z" clip-rule="evenodd"/><path fill="#FFDA44" d="m256 167 22.1 68h71.5l-57.8 42 22 68-57.8-42-57.9 42 22.1-68-57.8-42h71.5l22.1-68Z"/></svg>