<svg xmlns="http://www.w3.org/2000/svg" width="512" height="512" fill="none"><circle cx="256" cy="256" r="256" fill="#EEE"/><path fill="#333" fill-rule="evenodd" d="M492 156.8H20a256 256 0 0 1 472 0Z" clip-rule="evenodd"/><path fill="#496E2D" fill-rule="evenodd" d="M492.4 354.3a256 256 0 0 1-472.8 0h472.8Z" clip-rule="evenodd"/><path fill="#A2001D" fill-rule="evenodd" d="M503 323.7a256.3 256.3 0 0 0 0-135.4H9a256.3 256.3 0 0 0 0 135.4h494Z" clip-rule="evenodd"/><path fill="#0052B4" d="M0 245.6A255.2 255.2 0 0 1 74.9 74.9L256 256 74.9 437.1A255.2 255.2 0 0 1 0 266.4v-20.8Z"/><path fill="#FFDA44" d="m106 182 16.7 51.2h53.7l-43.5 31.5 16.6 51.1-43.4-31.6-43.5 31.6 16.6-51-43.4-31.6h53.7L106 182Z"/></svg>