<svg xmlns="http://www.w3.org/2000/svg" viewBox="0 0 512 512"><circle cx="256" cy="256" r="256" fill="#ffda44"/><path d="M155.826 166.957h340.25C459.906 69.472 366.07 0 256 0 185.306 0 121.313 28.659 74.989 74.989l80.837 91.968zm0 178.086h340.25C459.906 442.528 366.07 512 256 512c-70.694 0-134.687-28.659-181.011-74.989l80.837-91.968z" fill="#6da544"/><path d="M74.98 74.98c-99.974 99.974-99.974 262.065 0 362.04L256 256 74.98 74.98z" fill="#d80027"/><path d="M325.074 211.478l11.051 34.012h35.762l-28.932 21.02 11.051 34.012-28.932-21.021-28.932 21.021 11.05-34.012-28.931-21.02h35.762zm111.305 0l11.05 34.012h35.762l-28.931 21.02 11.05 34.012-28.931-21.021-28.933 21.021 11.051-34.012-28.932-21.02h35.762z"/></svg>