<svg xmlns="http://www.w3.org/2000/svg" width="512" height="512" fill="none"><path fill="#FFDA44" d="M477.8 384A254.8 254.8 0 0 0 512 256c0-46.6-12.5-90.3-34.2-128H34.2A254.8 254.8 0 0 0 0 256c0 46.6 12.5 90.3 34.2 128h443.6Z"/><path fill="#6DA544" d="M256 512A256 256 0 0 1 25.6 368h460.6A256 256 0 0 1 256 512h-.1Zm0-512A256 256 0 0 0 25.7 144h460.6A256 256 0 0 0 256 0Z"/><path fill="#D80027" d="M0 245.6A255.2 255.2 0 0 1 74.9 74.9L256 256 74.9 437.1A255.2 255.2 0 0 1 0 266.4v-20.8Z"/><path fill="#333" d="m326.4 208 10.8 33.2H372l-28.3 20.5 10.8 33.1-28.2-20.5-28.2 20.5 10.8-33.1-28.3-20.5h35l10.7-33.2Zm115.2 0 10.8 33.2h34.9L459 261.7l10.8 33.1-28.2-20.5-28.2 20.5 10.8-33.1-28.3-20.5h35l10.7-33.2Z"/></svg>