<svg xmlns="http://www.w3.org/2000/svg" width="512" height="512" fill="none"><path fill="#0052B4" d="M256 512a256 256 0 0 0 256-255.5v-.5l-256-32L0 256a256 256 0 0 0 256 256Z"/><path fill="#D80027" d="M512 255.5v.5H0a256 256 0 0 1 512-.5Z"/><path fill="#EEE" d="M0 245.6A255.2 255.2 0 0 1 74.9 74.9L256 256 74.9 437.1A255.2 255.2 0 0 1 0 266.4v-20.8Z"/><path fill="#FFC635" d="m28 256-.2 5.6a72.3 72.3 0 1 0 144.5-5.6H28Zm72.2-33.4a22.3 22.3 0 1 0 0-44.5 22.3 22.3 0 0 0 0 44.5Z"/><path fill="#D80027" d="M50 194.8V267c0 38.4 50.2 50.1 50.2 50.1s50-11.7 50-50v-72.4h-100Z"/><path fill="#338AF3" d="M100.2 294c-9.3-3.4-27.9-12-27.9-26.9v-50H128v50c0 15-18.6 23.5-27.8 26.8Z"/><path fill="#F3F3F3" d="M111.3 244.9v-11.2l-11.1-5.5-11.2 5.5V245l-5.5 5.5v22.3h33.4v-22.3l-5.6-5.5Z"/></svg>