<svg xmlns="http://www.w3.org/2000/svg" viewBox="0 0 512 512"><path d="M486.598 367.304C502.872 333.649 512 295.89 512 256s-9.128-77.649-25.402-111.304L256 133.565l-230.598 11.13C9.128 178.351 0 216.11 0 256s9.128 77.649 25.402 111.304L256 378.435l230.598-11.131z" fill="#ffda44"/><path d="M256 0C154.506 0 66.81 59.065 25.402 144.696h461.195C445.19 59.065 357.493 0 256 0z"/><path d="M256 512c-101.494 0-189.19-59.065-230.598-144.696h461.195C445.19 452.935 357.493 512 256 512z" fill="#0052b4"/><path d="M499.911 178.087H12.089C4.247 202.656 0 228.831 0 256s4.247 53.344 12.089 77.913H499.91C507.753 309.344 512 283.169 512 256s-4.247-53.344-12.089-77.913z" fill="#a2001d"/><g fill="#ffda44"><path d="M89.043 244.87h333.913v22.261H89.043zM133.565 200.348h244.87v22.261h-244.87z"/></g><path d="M380.025 256S322.782 322.783 256 322.783 189.217 256 189.217 256s0-66.783 66.783-66.783S380.025 256 380.025 256z" fill="#f0f0f0"/><path d="M256 322.783c-66.783 0-124.025-66.783-124.025-66.783S189.217 189.217 256 189.217"/><path fill="#f0f0f0" d="M211.478 233.739h22.261v44.522h-22.261z"/><path d="M278.261 233.739h22.261v44.522h-22.261z"/><g fill="#0052b4"><circle cx="89.043" cy="256" r="22.261"/><circle cx="422.957" cy="256" r="22.261"/></g></svg>