<svg xmlns="http://www.w3.org/2000/svg" width="512" height="512" fill="none"><path fill="#A2001D" d="M477.8 384A254.8 254.8 0 0 0 512 256c0-46.6-12.5-90.3-34.2-128H34.2A254.8 254.8 0 0 0 0 256c0 46.6 12.5 90.3 34.2 128h443.6Z"/><path fill="#0052B4" d="M256 512A256 256 0 0 1 25.6 368h460.6A256 256 0 0 1 256 512h-.1Z"/><path fill="#333" d="M256 0A256 256 0 0 0 25.7 144h460.6A256 256 0 0 0 256 0Z"/><path fill="#FFDA44" fill-rule="evenodd" d="M477.8 128a255 255 0 0 1 15.6 32H18.6c4.5-11 9.7-21.8 15.6-32h443.6ZM34.2 384c-5.9-10.2-11.1-21-15.6-32h474.8a255 255 0 0 1-15.6 32H34.2Zm344.2-183.7H133.6v22.3h244.8v-22.3ZM423 245H89v22h334v-22Z" clip-rule="evenodd"/><path fill="#EEE" d="M380 256s-57.2 66.8-124 66.8-66.8-66.8-66.8-66.8 0-66.8 66.8-66.8S380 256 380 256Z"/><path fill="#333" d="M256 322.8c-66.8 0-124-66.8-124-66.8s57.2-66.8 124-66.8"/><path fill="#EEE" d="M211.5 233.7h22.2v44.6h-22.2v-44.6Z"/><path fill="#333" d="M278.3 233.7h22.2v44.6h-22.2v-44.6Z"/><path fill="#0052B4" fill-rule="evenodd" d="M111.3 256a22.3 22.3 0 1 1-44.5 0 22.3 22.3 0 0 1 44.5 0Zm334 0a22.3 22.3 0 1 1-44.6 0 22.3 22.3 0 0 1 44.5 0Z" clip-rule="evenodd"/></svg>