<svg xmlns="http://www.w3.org/2000/svg" width="512" height="512" fill="none"><path fill="#FFDA44" fill-rule="evenodd" d="M505 196H7c6-24.6 15.5-48 28-69.3h442a257 257 0 0 1 28 69.4ZM34.5 384.5a254.4 254.4 0 0 1-27.3-67.8h497.6a261 261 0 0 1-27.3 67.8h-443Z" clip-rule="evenodd"/><path fill="#333" fill-rule="evenodd" d="M486.6 144.7H25.4a256 256 0 0 1 461.2 0Z" clip-rule="evenodd"/><path fill="#0052B4" fill-rule="evenodd" d="M486.6 367.3a256 256 0 0 1-461.2 0h461.2Z" clip-rule="evenodd"/><path fill="#A2001D" fill-rule="evenodd" d="M500 334a255.8 255.8 0 0 0 0-156H12a255.9 255.9 0 0 0 0 156h488Z" clip-rule="evenodd"/><path fill="#FFDA44" fill-rule="evenodd" d="M378.4 200.3H133.6v22.3h244.8v-22.3ZM423 245H89v22h334v-22Z" clip-rule="evenodd"/><path fill="#EEE" d="M380 256s-57.2 66.8-124 66.8-66.8-66.8-66.8-66.8 0-66.8 66.8-66.8S380 256 380 256Z"/><path fill="#333" d="M256 322.8c-66.8 0-124-66.8-124-66.8s57.2-66.8 124-66.8"/><path fill="#EEE" d="M211.5 233.7h22.2v44.6h-22.2v-44.6Z"/><path fill="#333" d="M278.3 233.7h22.2v44.6h-22.2v-44.6Z"/><path fill="#0052B4" fill-rule="evenodd" d="M111.3 256a22.3 22.3 0 1 1-44.5 0 22.3 22.3 0 0 1 44.5 0Zm334 0a22.3 22.3 0 1 1-44.6 0 22.3 22.3 0 0 1 44.5 0Z" clip-rule="evenodd"/></svg>