<svg xmlns="http://www.w3.org/2000/svg" width="512" height="512" fill="none"><path fill="#026" d="M512 256a256 256 0 1 1-512 0L256 0a256 256 0 0 1 256 256Z"/><path fill="#026" d="M256 0v256H0A256 256 0 0 1 256 0Z"/><path fill="#EEE" d="M217.6 256H256v-38.4L140.7 102.3H256V0A256 256 0 0 0 0 256h102.3V140.7L217.6 256Z"/><path fill="#D80027" d="M256 76.6V25.4H144.7A257 257 0 0 0 25.4 144.7V256h51.2V76.6H256Z"/><path fill="#D80027" d="M256 230.4V256L102.2 102.2H128l128 128.2Z"/><path fill="#FFDA44" d="M306 155.8v122.5c0 59.6 78 77.9 78 77.9s78-18.3 78-78V155.9H306Z"/><path fill="#FF9811" d="M372.9 200.3c0 12.3-10 44.6-22.3 44.6s-22.2-32.3-22.2-44.6c0-12.3 22.2-22.2 22.2-22.2s22.3 10 22.3 22.2Z"/><path fill="#A2001D" d="M432 224.6a92.2 92.2 0 0 0 6.3-28c0-10.2-13.3-18.5-13.3-18.5s-13.4 8.3-13.4 18.5c0 6.4 2.8 19.2 6.4 28l-7.7 17.4a39 39 0 0 0 29.4 0l-7.7-17.4Z"/><path fill="#6DA544" d="M367.3 278.3s-11.1 22.2-11.1 44.5h55.6c0-22.3-11-44.5-11-44.5L384 267l-16.7 11.2Z"/><path fill="#D80027" d="M400.7 278.3v-5.6a16.7 16.7 0 0 0-33.4 0v5.6h33.4Z"/></svg>