<svg xmlns="http://www.w3.org/2000/svg" viewBox="0 0 100 100"><mask id="a"><circle cx="50" cy="50" r="50" fill="#fff"/></mask><g mask="url(#a)"><rect width="100.5" height="100" x="-0.25" fill="#2e3192"/><rect width="22.45" height="44.91" x="16.32" y="0.25" fill="#2e3192"/><rect width="22.45" height="44.91" x="38.77" y="0.25" fill="#fff"/><rect width="22.45" height="44.91" x="61.23" y="0.25" fill="red"/><path fill="#fff" d="m59.4 69.2-2.1-3.5-.3.1-2 3.3-3 4.8v-6.6h3l2.3-3.9h-5.4V61H59l2.8-3.8H38.2L41 61h7.1v12.8l-3-4.7-2.1-3.3-.3-.1-2.1 3.5-5.1 8.5H40l.8-1.4h4.4l4.9 7.9 4.8-8h4.3l.8 1.5h4.5zm-17.4 5 .8-1.4 1 1.4zm14.2 0 .9-1.4.9 1.4z"/><polygon fill="#fff" points="50 85.02 51.23 87.52 53.99 87.92 52 89.87 52.47 92.62 50 91.32 47.53 92.62 48 89.87 46.01 87.92 48.77 87.52 50 85.02"/><polygon fill="#fff" points="42.36 77.38 43.59 79.88 46.35 80.28 44.36 82.23 44.83 84.98 42.36 83.68 39.89 84.98 40.36 82.23 38.37 80.28 41.13 79.88 42.36 77.38"/><polygon fill="#fff" points="57.64 77.38 58.88 79.88 61.63 80.28 59.64 82.23 60.11 84.98 57.64 83.68 55.17 84.98 55.64 82.23 53.65 80.28 56.41 79.88 57.64 77.38"/></g></svg>