<svg xmlns="http://www.w3.org/2000/svg" width="512" height="512" fill="none"><g clip-path="url(#a)"><circle cx="256" cy="256" r="256" fill="#026"/><path fill="#EEE" fill-rule="evenodd" d="m336 277-13-21h122l-13 21h-36v12h28l-12 20h-16v39l27-43 37 59h-18l-3.4-6h-31.2L384 400l-23.4-42h-31.2l-3.4 6h-18l37-59 27 43v-71h-36Zm1.2 67h15.6l-7.8-14-7.8 14Zm78 0h15.6l-7.8-14-7.8 14Zm-109-50-5.2-15-5.1 15H280l12.9 8.7L288 317l13-8.8 13 8.8-4.9-14.3L322 294h-15.9Zm166 0-5.2-15-5.1 15H446l12.9 8.7L454 317l13-8.8 13 8.8-4.9-14.3L488 294h-15.9Zm-128 101-5.2-15-5.1 15H318l12.9 8.7L326 418l13-8.8 13 8.8-4.9-14.3L360 395h-15.9Zm90 0-5.2-15-5.1 15H408l12.9 8.7L416 418l13-8.8 13 8.8-4.9-14.3L450 395h-15.9Zm-45 34-5.2-15-5.1 15H363l12.9 8.7L371 452l13-8.8 13 8.8-4.9-14.3L405 429h-15.9Z" clip-rule="evenodd"/><path fill="#EEE" d="M0 245.6A256 256 0 0 1 256 0v256H0v-10.4Z"/><path fill="#026" fill-rule="evenodd" d="M2 224c7.2-58 33.8-109.8 73-149v149H2Z" clip-rule="evenodd"/><path fill="#EEE" fill-rule="evenodd" d="M75 75a256.6 256.6 0 0 1 74-51.6V224H75V75Z" clip-rule="evenodd"/><path fill="#D80027" fill-rule="evenodd" d="M149 23.4A252.1 252.1 0 0 1 224 2v222h-75V23.4Z" clip-rule="evenodd"/></g><defs><clipPath id="a"><path fill="#fff" d="M0 0h512v512H0z"/></clipPath></defs></svg>