<svg xmlns="http://www.w3.org/2000/svg" width="512" height="512" fill="none"><g clip-path="url(#a)"><circle cx="256" cy="256" r="256" fill="#0052B4"/><path fill="#FFDA44" fill-rule="evenodd" d="M487.1 366.2a262 262 0 0 1-19.1 33.4H128.7l-16-16.7 16-16.7h358.4Zm9.4-22.3H144.7l267.1-222.6c-2.3 11-3.3 22.8-3.3 34.5 0 45.2 26.7 123.6 96.6 159.6-2.3 9.7-5.2 19.3-8.6 28.5Z" clip-rule="evenodd"/><path fill="#EEE" d="m188 133.6 5.6 17h17.9L197 161l5.5 17-14.4-10.5-14.5 10.5 5.5-17-14.4-10.5h17.8l5.6-17ZM115.4 256l7 21.3h22.3l-18 13 6.8 21.4-18-13.2-18.1 13.2 6.9-21.3-18.1-13.1h22.3l7-21.3Zm0-178 7 21.2h22.3l-18 13.1 6.8 21.3-18-13.2-18.1 13.2 6.9-21.3-18.1-13.1h22.3l7-21.3ZM59.8 178l6.9 21.3H89l-18 13.2 6.9 21.2-18.1-13.1-18.1 13.1 7-21.2-18.2-13.2H53l6.9-21.2Z"/></g><defs><clipPath id="a"><path fill="#fff" d="M0 0h512v512H0z"/></clipPath></defs></svg>