<svg xmlns="http://www.w3.org/2000/svg" width="512" height="512" fill="none"><circle cx="256" cy="256" r="256" fill="#D80027"/><path fill="#FFDA44" fill-rule="evenodd" d="M89 450C34.5 403 0 333.6 0 256S34.5 109 89 62l278.3 194L89 450Z" clip-rule="evenodd"/><path fill="#333" fill-rule="evenodd" d="M75 437A255.2 255.2 0 0 1 0 256c0-70.7 28.7-134.7 75-181l181 181L75 437Z" clip-rule="evenodd"/><path fill="#EEE" d="m67.6 188.4 35.9 40 49-21.8-26.8 46.5 35.9 40-52.6-11.3-26.9 46.5-5.5-53.4L24 263.7l49.1-21.8-5.5-53.5Z"/></svg>