<svg xmlns="http://www.w3.org/2000/svg" width="512" height="512" fill="none"><circle cx="256" cy="256" r="256" fill="#496E2D"/><path fill="#D80027" fill-rule="evenodd" d="M64 86.7A256 256 0 0 1 192 8v495.8a256 256 0 0 1-128-78.6V86.7Z" clip-rule="evenodd"/><path fill="#EEE" fill-rule="evenodd" d="m309.6 105.3 11-14.1-.6 17.8 16.9 6-17.2 5-.6 18-10-14.8-17.2 5 11-14.1-10.1-14.8 16.8 6Zm48.9-4.5a78 78 0 0 1-51.4 143.3 78.1 78.1 0 0 0 114.7-39.7 78 78 0 0 0-63.3-103.6Zm-8.4 36.5-11 14-16.8-6 10.1 14.8-11 14.2 17.2-5 10.1 14.7.5-17.8 17.2-5-16.8-6 .5-18ZM257.5 122l11-14.1-.6 17.8 16.8 6-17.1 5-.6 18-10-14.8-17.2 5 11-14.2-10.1-14.7 16.8 6Zm9.8 38.6-11 14.2-16.8-6 10 14.7-10.9 14.2 17.2-5 10 14.7.6-17.8 17.1-5-16.8-6 .6-18Zm39.2 32.2 11-14.1-.6 17.8 16.9 6-17.2 5-.5 18-10.1-14.8-17.2 5 11-14.2-10-14.7 16.7 6Z" clip-rule="evenodd"/><path fill="#EEE" d="m112.2 117.2-22.4-16.6V77l22.4-16.7h31.6L166.2 77v23.6l-22.4 16.6h-31.6Z"/><path fill="#FF9811" d="M128 60.3h-15.8L89.8 77v11.5H128V60.3Zm0 56.9h15.8l22.4-16.6v-12H128v28.6Z"/><path fill="#496E2D" d="M167 162.8h-9.8V153h-17.1L128 141l-12.1 12H98.8v9.8H89v19.5h9.8v9.7h17.1l12.1 12.1 12.1-12.1h17.1v-9.7h9.8v-19.5Z"/><path fill="#D80027" d="M128 183.7a11.1 11.1 0 1 0 0-22.3 11.1 11.1 0 0 0 0 22.3Z"/><path fill="#496E2D" d="m112.2 284.4-22.4-16.6v-23.6l22.4-16.6h31.6l22.4 16.6v23.6l-22.4 16.6h-31.6Z"/><path fill="#D80027" d="M116.9 244.9H139V267h-22v-22Z"/><path fill="#496E2D" d="M167 329.7h-9.8V320h-17.1L128 307.9 115.9 320H98.8v9.7H89v19.5h9.8v9.8h17.1l12.1 12 12.1-12h17.1v-9.8h9.8v-19.5Z"/><path fill="#D80027" d="M128 350.6a11.1 11.1 0 1 0 0-22.2 11.1 11.1 0 0 0 0 22.2Z"/><path fill="#EEE" d="m112.2 451.4-22.4-16.7v-23.5l22.4-16.7h31.6l22.4 16.7v23.5l-22.4 16.7h-31.6Z"/><path fill="#FF9811" d="M128 394.5h-15.8l-22.4 16.7v11.5H128v-28.2Zm0 56.9h15.8l22.4-16.7v-12H128v28.7Z"/></svg>