<svg xmlns="http://www.w3.org/2000/svg" width="512" height="512" viewBox="0 0 512 512"><mask id="a"><circle cx="256" cy="256" r="256" fill="#fff"/></mask><g mask="url(#a)"><path fill="#d80027" d="M0 0h512v512H0z"/><g fill="#eee"><path d="M350.1,182.08l33.18,45.82,53.72-17.54-33.18,45.82,33.18,45.66-53.72-17.54-33.18,45.82v-56.72l-53.72-17.54,53.72-17.38v-56.41h0Z" style="fill: #eee; stroke-width: 0px;"/><path d="M259.56,370.27c-63.09-.17-114.1-51.46-113.92-114.55.17-63.09,51.46-114.1,114.55-113.92,18.76.05,37.19,4.72,53.72,13.59-55.54-54.29-144.58-53.26-198.87,2.28-54.29,55.54-53.26,144.58,2.28,198.87,54.64,53.41,141.94,53.41,196.58,0-16.69,9.04-35.38,13.78-54.35,13.75h.02Z" style="fill: #eee; stroke-width: 0px;"/></g></g></svg>