<svg xmlns="http://www.w3.org/2000/svg" width="512" height="512" fill="none"><g clip-path="url(#a)"><circle cx="256" cy="256" r="256" fill="#D80027"/><path fill="#6DA544" fill-rule="evenodd" d="M504 320a256.5 256.5 0 0 0 0-128H8a256.5 256.5 0 0 0 0 128h496Z" clip-rule="evenodd"/><path fill="#FFDA44" fill-rule="evenodd" d="M136.4 83a36.5 36.5 0 0 1 17.3 15.7c7 12 6.8 25.8.4 34.2L129 107.8l11.4-11.4L123 94l-19.2 19.3 9.8 9.8 8.2-8.3 24.2 24.3c-8.3 3.6-19 1-27.3-7L96 153l7 7.1 16.6-18c10.5 9.3 24.5 11.7 35 5.6l12.5 12.4 7-7-11.9-12c7.7-10 8.4-25.7.5-39.1a37.3 37.3 0 0 0-26.3-19Zm-16.8-2.3 15.7-11.5L151 80.7 145 62l15.8-11.6h-19.6l-6-18.5-5.9 18.5h-19.6L125.6 62l-6 18.6Zm15.7-17.2-6.7 5 2.6-8.1-7-5.2h8.6l2.5-7.9 2.4 7.9h8.6l-7 5.2 2.6 8.1-6.6-5Z" clip-rule="evenodd"/></g><defs><clipPath id="a"><path fill="#fff" d="M0 0h512v512H0z"/></clipPath></defs></svg>