<svg xmlns="http://www.w3.org/2000/svg" width="512" height="512" fill="none"><g clip-path="url(#a)"><path fill="#D80027" d="m75 75 149 213 213 149A256 256 0 0 0 258.8 0h-5.7A255.2 255.2 0 0 0 75 75Z"/><path fill="#D80027" d="m75 75 362 362A256 256 0 0 1 75 75Z"/><path fill="#EEE" d="M27.8 139.8a257.1 257.1 0 0 1 112-112l344.4 344.4a257.1 257.1 0 0 1-112 112L27.8 139.8Z"/><path fill="#333" d="M45.8 109.8a256 256 0 0 1 64-64l356.4 356.4a256 256 0 0 1-64 64L45.8 109.8Z"/></g><defs><clipPath id="a"><path fill="#fff" d="M0 512V0h512v512z"/></clipPath></defs></svg>