<svg xmlns="http://www.w3.org/2000/svg" width="512" height="512" fill="none"><circle cx="256" cy="256" r="256" fill="#D80027"/><path fill="#0052B4" d="M0 245.6A256 256 0 0 1 256 0v256H0v-10.4Z"/><path fill="#EEE" fill-rule="evenodd" d="m217 136.8-31 14.6a47.6 47.6 0 0 0 0-29.3l31.1 14.7Zm-48.4 38.5c8-5.8 14-14.1 17.2-23.7l16.6 30.2-33.8-6.5Zm-28 9.1c10.4 0 20-3.3 27.8-9l-4.2 34.2-23.6-25.2Zm-28-9c7.8 5.7 17.4 9 27.8 9L117 209.6l-4.3-34.2Zm-17.4-23.8a47.8 47.8 0 0 0 17.3 23.7l-33.9 6.5 16.6-30.2ZM93 136.8c0 5.1.8 10 2.3 14.6L64 136.8 95.2 122a47.6 47.6 0 0 0-2.3 14.7Zm19.5-38.5A47.8 47.8 0 0 0 95.2 122L78.6 91.8l33.8 6.5Zm28-9.2c-10.4 0-20 3.4-27.8 9L117 64l23.5 25.1Zm28 9c-7.8-5.6-17.4-9-27.8-9L164.2 64l4.2 34.2Zm34-6.3-33.8 6.5c8 5.8 14 14 17.2 23.7l16.6-30.2Zm-87.3 45a25.4 25.4 0 1 0 50.9 0 25.4 25.4 0 0 0-50.9 0Z" clip-rule="evenodd"/></svg>