<svg xmlns="http://www.w3.org/2000/svg" width="512" height="512" fill="none"><circle cx="256" cy="256" r="256" fill="#D80027"/><path fill="#0052B4" d="M0 245.6A256 256 0 0 1 256 0v256H0v-10.4Z"/><path fill="#EEE" fill-rule="evenodd" d="m204.5 128-31.1 14.7a47.6 47.6 0 0 0 0-29.4l31.1 14.7Zm-48.4 38.5c8-5.8 14-14 17.2-23.7L190 173l-33.8-6.5Zm-28 9.1c10.4 0 20-3.3 27.8-9l-4.3 34.2-23.5-25.2Zm-28-9c7.8 5.7 17.4 9 27.8 9l-23.5 25.2-4.3-34.2Zm-17.4-23.8a47.8 47.8 0 0 0 17.2 23.7L66.1 173l16.6-30.2ZM80.4 128c0 5.1.8 10 2.3 14.7L51.5 128l31.1-14.7a47.6 47.6 0 0 0-2.2 14.7Zm19.5-38.5a47.8 47.8 0 0 0-17.2 23.7L66 83l33.8 6.5Zm28-9.2c-10.4 0-20 3.4-27.8 9l4.3-34 23.5 25Zm28 9c-7.8-5.6-17.4-9-27.8-9l23.5-25 4.3 34Zm34-6.3-33.8 6.5c8 5.8 14 14 17.2 23.7L190 83Zm-87.3 45a25.4 25.4 0 1 0 50.9 0 25.4 25.4 0 0 0-50.9 0Z" clip-rule="evenodd"/></svg>