<svg xmlns="http://www.w3.org/2000/svg" width="512" height="512" fill="none"><g clip-path="url(#a)"><path fill="#338AF3" d="M437 75 224 224 75 437a256 256 0 0 0 437-178.2v-5.7A255.2 255.2 0 0 0 437 75Z"/><path fill="#6DA544" d="M437 75 75 437A256 256 0 0 1 437 75Z"/><path fill="#FFDA44" d="M372.2 27.8a257.1 257.1 0 0 1 112 112L139.8 484.2a257.1 257.1 0 0 1-112-112L372.2 27.8Z"/><path fill="#333" d="M402.2 45.8a256 256 0 0 1 64 64L109.8 466.2a256 256 0 0 1-64-64L402.2 45.8Z"/></g><defs><clipPath id="a"><path fill="#fff" d="M0 0h512v512H0z"/></clipPath></defs></svg>