<svg xmlns="http://www.w3.org/2000/svg" width="512" height="512" fill="none"><path fill="#D80027" fill-rule="evenodd" d="M471.2 394.7a255.8 255.8 0 0 1-430.4 0h430.4Z" clip-rule="evenodd"/><path fill="#FFDA44" fill-rule="evenodd" d="M65.2 426.7A255.2 255.2 0 0 1 5.6 309.3h500.8a255.3 255.3 0 0 1-59.6 117.4H65.2Z" clip-rule="evenodd"/><path fill="#333" fill-rule="evenodd" d="M497.4 341.3A255.6 255.6 0 0 0 510 224H2a258.5 258.5 0 0 0 12.6 117.3h482.8Z" clip-rule="evenodd"/><path fill="#D80027" fill-rule="evenodd" d="M512 256a255 255 0 0 0-28.4-117.3H28.4A255 255 0 0 0 0 256h512Z" clip-rule="evenodd"/><path fill="#FFDA44" fill-rule="evenodd" d="M497.4 170.7H14.6a256.6 256.6 0 0 1 85-117.4h312.8a256.6 256.6 0 0 1 85 117.4Z" clip-rule="evenodd"/><path fill="#333" fill-rule="evenodd" d="M446.8 85.3H65.2A255.4 255.4 0 0 1 256 0c75.8 0 144 33 190.8 85.3Z" clip-rule="evenodd"/><path fill="#EEE" d="M341.4 256a85.4 85.4 0 1 1-170.8 0 85.4 85.4 0 0 1 170.8 0Z"/><path fill="#333" d="M287.3 260.4 256 246.8l7.7-26a16.6 16.6 0 0 0-4.4-15.6l7.8-7.8a27.7 27.7 0 0 0-39.3 0l7.8 7.8a16.6 16.6 0 0 0-4.1 16.7l-11.9 11.8h21.6s-9 13.4-13.8 24.4c-4.9 11 0 24.4 11.3 29.4l6.5 2.9 10.8 10.1v11.2l-11.1 11H267v-22.2l10.2-10.1h21l.3-.7a22 22 0 0 0-11.3-29.3Z"/></svg>