<svg xmlns="http://www.w3.org/2000/svg" width="512" height="512" fill="none"><g clip-path="url(#a)"><circle cx="256" cy="256" r="256" fill="#D80027"/><path fill="#026" d="M256 70 5 256l251 186 251-186L256 70Z"/><path fill="#EEE" d="M256 130 85 256l171 126 171-126-171-126Zm-13.4-5.7 34.7-25h-42.7l34.7 25L256 83.7l-13.4 40.6ZM46.5 277.4l27.2-33.1-41.4 11.1 40.1 15L49 234.6l-2.5 42.8Zm419 0-27.2-33.1 41.4 11.1-40.1 15 23.4-35.8 2.5 42.8Zm-145.7-104 27.2-33.1-41.4 11.1 40.1 15-23.4-35.8-2.5 42.8Zm70.3 52 27.2-33.1-41.4 11.1 40.1 15-23.4-35.8-2.5 42.8Zm-197.9-52L165 140.3l41.4 11.1-40.1 15 23.4-35.8 2.5 42.8Zm-70.3 52-27.2-33.1 41.4 11.1-40.1 15 23.4-35.8 2.5 42.8Zm-13 104 27.2-33.1-41.5 11.1 40.2 15-23.4-35.8-2.5 42.8Zm70.3 52 27.2-33.1-41.4 11.1 40.1 15-23.4-35.8-2.5 42.8Zm63.5 46.9 34.7-24.9h-42.7l34.7 24.9-13.3-40.6-13.4 40.6Zm160.4-98.9-27.2-33.1 41.5 11.1-40.2 15 23.4-35.8 2.5 42.8Zm-70.3 52-27.2-33.1 41.4 11.1-40.1 15 23.4-35.8 2.5 42.8Z"/><path fill="#026" d="m242.7 204.7 34.7-25h-42.7l34.7 25-13.3-40.7-13.4 40.7Zm-39.2 103 34.7-25h-42.7l34.7 25-13.3-40.7-13.4 40.7Zm78.2 0 34.7-25h-42.7l34.7 25-13.3-40.7-13.4 40.7Zm-39.1-4.4 34.7 25h-42.7l34.7-25L256 344l-13.4-40.7ZM160 223h192v32H160v-32Z"/></g><defs><clipPath id="a"><path fill="#fff" d="M0 0h512v512H0z"/></clipPath></defs></svg>