<svg xmlns="http://www.w3.org/2000/svg" width="512" height="512" fill="none"><g clip-path="url(#a)"><circle cx="256" cy="256" r="256" fill="#026"/><path fill="#FFC635" d="m336.8 199.7 104-75.1h-128l104 75.1-40-122.1-40 122.1ZM57 231.7l52-37.4H45l52 37.4-20-60.9-20 60.9Zm85.5 31.7 52-37.4h-64l52 37.4-20-60.9-20 60.9ZM185 309l52-37.4h-64l52 37.4-20-60.9-20 60.9Zm43 47.6 52-37.4h-64l52 37.4-20-60.9-20 60.9Zm-5.6 67.1 52-37.4h-64l52 37.4-20-60.9-20 60.9ZM356 402.2l52-37.4h-64l52 37.4-20-60.9-20 60.9Zm-37.4 53.2 52-37.4h-64l52 37.4-20-60.9-20 60.9Z"/></g><defs><clipPath id="a"><path fill="#fff" d="M0 0h512v512H0z"/></clipPath></defs></svg>