<svg xmlns="http://www.w3.org/2000/svg" width="512" height="512" fill="none"><g clip-path="url(#a)"><path fill="#D80027" fill-rule="evenodd" d="M512 256A256.1 256.1 0 0 0 332.7 11.7L324 16 299.3 3.6a257.7 257.7 0 0 0-86.6 0L188 16l-8.7-4.3A256.1 256.1 0 0 0 0 256l256 64 256-64Z" clip-rule="evenodd"/><path fill="#0052B4" fill-rule="evenodd" d="M256 512a256 256 0 0 0 256-256H0a256 256 0 0 0 256 256Z" clip-rule="evenodd"/><path fill="#FFDA44" fill-rule="evenodd" d="M505.3 197.6 256 256l228-116.6a254.2 254.2 0 0 1 21.3 58.2ZM449.4 88.3 256 256 406 48.5c16 11.6 30.5 25 43.4 39.8ZM349.2 17.5 256 256 291.7 2.5c20 2.8 39.2 7.9 57.5 15Zm-128.9-15L256 256 162.8 17.5a254.3 254.3 0 0 1 57.5-15ZM106 48.5 256 256 62.2 88.7A261 261 0 0 1 106 48.5Zm-78 90.9L256 256 6.7 197.6c4.8-20.5 12-40 21.4-58.2Z" clip-rule="evenodd"/><path fill="#FF9811" d="m256 128 83 256-217-159h268L173 384l83-256Z"/></g><defs><clipPath id="a"><path fill="#fff" d="M0 0h512v512H0z"/></clipPath></defs></svg>