<svg xmlns="http://www.w3.org/2000/svg" width="512" height="512" fill="none"><g clip-path="url(#a)"><path fill="#EEE" d="M503.2 322.8c5.7-21.3 8.8-43.7 8.8-66.8l-8.8-66.8a254.6 254.6 0 0 0-28.8-66.8l-59-66.7A255 255 0 0 0 256 0h-.2A255 255 0 0 0 96.6 55.7l-59 66.7a254.6 254.6 0 0 0-28.8 66.8L0 256v.1c0 23 3 45.4 8.8 66.7l28.8 66.8a257.3 257.3 0 0 0 59 66.7L256 512l159.4-55.7a257.3 257.3 0 0 0 59-66.7l28.8-66.8Z"/><path fill="#D80027" d="M503.2 189.2c5.7 21.3 8.8 43.7 8.8 66.8H0c0-23.1 3-45.5 8.8-66.8h494.4ZM415.4 55.7a257.3 257.3 0 0 1 59 66.7H37.6a257.3 257.3 0 0 1 59-66.7h318.8Zm59 333.9c12.6-20.6 22.4-43 28.8-66.8H8.8a254.6 254.6 0 0 0 28.8 66.8h436.8Zm-59 66.7H96.6A255 255 0 0 0 255.8 512h.4a255 255 0 0 0 159.2-55.7Z"/><path fill="#0052B4" d="M0 245.6A256 256 0 0 1 256 0v256H0v-10.4Z"/><path fill="#EEE" d="m209.9 174.2 1.5 13.2-11.6 4.6 12.4 3.1.8 12.4 7-10.8 12.4 2.3-8.6-9.3 6.2-10.9-11.6 5.5-8.5-10.1Zm-111.8 0-8.5 9.3-11.6-4.7 6.2 10.9-8.6 9.3 13.2-2.3 6.2 10.8.8-12.4 12.4-3-11.6-4.7 1.5-13.2Zm134.3-36.5-7.8 10L213 144l7 10.1-7 10 11.6-3.8 7.8 10V158l11.6-4-11.6-3.9v-12.4Zm-156 0v12.4L64 154l12.4 3.9v12.4l7-10 12.4 3.8-7.7-10.1 7.7-10-12.4 3.8-7-10Zm137.3-37.2-1.5 12.4-12.4 3 11.6 4.7-1.5 13.2 8.5-9.3 11.6 4.7-6.2-10.9 8.6-9.3-12.5 2.3-6.2-10.8Zm-118.7 0-6.2 10.8-13.2-2.3 8.6 9.3-6.2 10.9 11.6-4.7 8.5 9.3-1.5-13.2 11.6-4.6-12.4-3.1-.8-12.4Zm104-24.9-9.3 8.6-10.9-6.2 5.5 11.6-10.1 8.5 13.2-1.5 4.6 11.6 3.1-12.4 12.4-.8-10.8-6.2 2.3-13.2Zm-90 0 2.3 12.5-10.8 7 12.4.7 3 12.4 5.5-11.6 12.4 1.5-9.3-8.5 4.7-11.6-10.9 6.2-9.3-8.6ZM154 64l-3.9 11.6h-12.4l10 7.8L144 95l10.1-7 10 7-3.8-11.6 10-7.8H158L154 64Zm45 168.4-9.3-8.6-10.9 6.2 5.5-11.6-10.1-8.5 13.2 1.5 4.6-11.6 3.1 12.4 12.4.8-10.8 6.2 2.3 13.2Zm-90 0 2.3-12.5-10.8-7 12.4-.7 3-12.4 5.5 11.6 12.4-1.5-9.3 8.5 4.7 11.6-10.9-6.2-9.3 8.6Zm45 11.6-3.9-11.6h-12.4l10-7.8L144 213l10.1 7 10-7-3.8 11.6 10 7.8H158l-4 11.6Z"/></g><defs><clipPath id="a"><path fill="#fff" d="M0 0h512v512H0z"/></clipPath></defs></svg>