<svg xmlns="http://www.w3.org/2000/svg" width="512" height="512" fill="none"><circle cx="256" cy="256" r="256" fill="#D80027"/><path fill="#EEE" d="M478.6 129.4 352 256l126.6 126.6c-22.8 40-56 73.2-96 96L256 352 129.4 478.6c-40-22.8-73.2-56-96-96L160 256 33.4 129.4c22.8-40 56-73.2 96-96L256 160 382.6 33.4c40 22.8 73.2 56 96 96Z"/><path fill="#0052B4" d="M459.4 100.6 304 256l155.4 155.4c-13.8 18-30 34.2-48 48L256 304 100.6 459.4c-18-13.8-34.2-30-48-48L208 256 52.6 100.6c13.8-18 30-34.2 48-48L256 208 411.4 52.6c18 13.8 34.2 30 48 48Z"/><path fill="#EEE" d="m256 232 5.4 16.6h17.4l-14 10.2 5.3 16.6-14.1-10.2-14 10.2 5.3-16.6-14.1-10.2h17.4L256 232Zm52.2 52.2 5.3 16.5H331L316.9 311l5.4 16.6-14.1-10.3-14.1 10.3 5.4-16.6-14.1-10.3h17.4l5.4-16.5Zm-104.4 0 5.4 16.6h17.5L212.6 311l5.3 16.6-14-10.3-14.1 10.3L195 311l-14-10.2h17.4l5.3-16.6Zm156.5 52.1 5.4 16.6h17.4l-14 10.2 5.3 16.6-14-10.2-14.2 10.2 5.4-16.6-14-10.2h17.3l5.4-16.6Zm-208.6 0L157 353h17.4l-14.1 10.3 5.4 16.5-14.1-10.2-14.1 10.2 5.4-16.5-14.1-10.3h17.4l5.4-16.6Zm260.8 52.2 5.4 16.6h17.4l-14.1 10.2 5.4 16.6-14.1-10.3-14.1 10.3 5.4-16.6-14.1-10.2H407l5.4-16.6Zm-313 0 5.4 16.6h17.4l-14 10.2 5.3 16.6-14-10.3L85.3 432l5.4-16.6-14-10.2H94l5.4-16.6Zm104.3-208.6 5.4 16.5h17.5l-14.1 10.3 5.3 16.5-14-10.2-14.2 10.2 5.4-16.5-14-10.3h17.4l5.3-16.5Zm104.4 0 5.4 16.5H331l-14.1 10.3 5.4 16.5-14.1-10.2-14.1 10.2 5.4-16.5-14.1-10.3h17.4l5.4-16.5Zm-156.5-52.2 5.4 16.6h17.4l-14.1 10.2 5.4 16.6-14.1-10.3-14.1 10.3 5.4-16.6-14.1-10.2h17.4l5.4-16.6Zm208.6 0 5.4 16.6h17.4l-14 10.2 5.3 16.6-14-10.3-14.2 10.3 5.4-16.6-14-10.2h17.3l5.4-16.6ZM99.5 75.5l5.4 16.6h17.4l-14 10.3 5.3 16.5-14-10.2-14.2 10.2 5.4-16.5-14-10.3H94l5.4-16.6Zm313 0 5.4 16.6h17.4l-14.1 10.3 5.4 16.5-14.1-10.2-14.1 10.2 5.4-16.5L389.7 92H407l5.4-16.6Z"/></svg>