<svg xmlns="http://www.w3.org/2000/svg" width="512" height="512" fill="none"><g clip-path="url(#a)"><circle cx="256" cy="256" r="256" fill="#EEE"/><path fill="#D80027" fill-rule="evenodd" d="M455.9 416c-47 58.5-119 96-199.9 96-80.8 0-153-37.5-199.9-96H456Z" clip-rule="evenodd"/><path fill="#6DA544" d="m396 280-67-8-34 3-24-2-54-2-93 13-8 12h299l-19-16Z"/><path fill="#584528" d="m389 273-10-33-9-44-23-23-32-13-50 3-41-8-50 24-29 9-9 20-7 15 11 19 10 2 16-1 6-7 28-8-12 31-11 14-19 9 13 3 15 1 19-12 26-24 11 3 14 13-16 12 16 1 10-3 9-16-4-19 11 1 10 3 1 23-14 8 1 6h26l34-30 15 12 12 4-6 8 1 5h17l10-7v-1ZM84 340h178v32H84v-32Zm204 0h140v32H288v-32Z"/><path fill="#D80027" d="m71 182 69-50H55l69 50-26-81-27 81Z"/></g><defs><clipPath id="a"><path fill="#fff" d="M0 0h512v512H0z"/></clipPath></defs></svg>