<svg xmlns="http://www.w3.org/2000/svg" width="512" height="512" fill="none"><g clip-path="url(#a)"><path fill="#EEE" d="M482.2 376c19-35.8 29.8-76.6 29.8-120 0-43.4-10.8-84.2-29.8-120H29.8A254.9 254.9 0 0 0 0 256c0 43.4 10.8 84.2 29.8 120h452.4Z"/><path fill="#0052B4" d="M496.5 344a256.1 256.1 0 0 1-481 0h481Zm0-176h-481a256.1 256.1 0 0 1 481 0Z"/><path fill="#D80027" d="M344.3 299.8a128 128 0 1 1 0-87.6L224 256l120.3 43.8Z"/><path fill="#FFDA44" d="M224 320a64 64 0 1 0 0-128 64 64 0 0 0 0 128Z"/></g><defs><clipPath id="a"><path fill="#fff" d="M0 0h512v512H0z"/></clipPath></defs></svg>