<svg xmlns="http://www.w3.org/2000/svg" width="512" height="512" fill="none"><g clip-path="url(#a)"><path fill="#D80027" fill-rule="evenodd" d="M501.9 184.5 448 256l53.9 71.5a256.1 256.1 0 0 1-491 2.6L330 11a256.6 256.6 0 0 1 172 173.5Z" clip-rule="evenodd"/><path fill="#EEE" fill-rule="evenodd" d="M497.6 341a255.6 255.6 0 0 0 0-170H341l-64 85 64 85h156.6Z" clip-rule="evenodd"/><path fill="#026" fill-rule="evenodd" d="M14.4 341A256 256 0 0 1 341 14.4V341H14.4Z" clip-rule="evenodd"/><path fill="#FFDA44" d="M184 133a40 40 0 0 0-40 40v60h80v-60a40 40 0 0 0-40-40Z"/><path fill="#EEE" d="m167 105 52-37h-64l52 37-20-61-20 61Zm101 62 37 52v-64l-37 52 61-20-61-20Zm-62 101-52 37h64l-52-37 20 61 20-61Zm-101-61-37-52v64l37-52-61 20 61 20Zm125-92 63 10-45-45 10 63 29-57-57 29Zm28 115-10 63 45-45-63 10 57 29-29-57Zm-115 28-63-10 45 45-10-63-29 57 57-29Zm-28-115 10-63-45 45 63-10-57-29 29 57Z"/></g><defs><clipPath id="a"><path fill="#fff" d="M0 0h512v512H0z"/></clipPath></defs></svg>