<svg xmlns="http://www.w3.org/2000/svg" width="512" height="512" viewBox="0 0 512 512"><mask id="a"><circle cx="256" cy="256" r="256" fill="#fff"/></mask><g mask="url(#a)"><path fill="#d80027" d="M512 0v171l-64 85 64 85v171H0V341L341 0Z"/><path fill="#eee" d="M341 171h171v170H341l-64-85z"/><path fill="#0052b4" d="M0 0h341v341H0z"/><path fill="#fff" d="m178 48.5 12.2-8.5-14.9-.3-4.4-14.2-4.7 14.1-15-.2 12 9-4.8 14 12.2-8.6 11.9 9zM119.6 59l6.8-13.3-13.3 6.8-10.5-10.6 2.3 14.7-13.3 6.8 14.7 2.3 2.3 14.7 6.8-13.2 14.7 2.3zM72.5 95.7l-.1-14.9L63.7 93l-14.2-4.5 8.9 12-8.6 12.1 14.1-4.7 8.9 11.9-.2-14.9 14.1-4.7zM48.3 150l-7.1-13-2 14.7-14.6 2.6 13.4 6.5-2 14.7 10.3-10.7 13.4 6.4-7.1-13.1 10.3-10.7zm3.4 59.3-12.3-8.4 5 14.1-11.7 9.1 14.9-.6 5.1 14 4.1-14.2 14.8-.6-12.3-8.3 4.1-14.4zm30.7 51.2-14.8-1.7 11 10-6.1 13.6 12.9-7.4 11 10-3-14.6 12.9-7.3-14.8-1.7-3-14.6zm51.1 30.7-13.9 5.3 14.3 3.8.9 14.9 8-12.5 14.5 3.7-9.5-11.4 8.1-12.6-13.9 5.4-9.5-11.6zm59.1 3.6-9.8 11.2 14.5-3.3 7.7 12.8 1.2-14.9 14.6-3.4-13.7-5.8 1.3-14.8-9.8 11.2-13.7-5.8zm54.4-24.3-3.4 14.6 11.2-9.7 12.8 7.7-5.8-13.7 11.3-9.8-14.9 1.3-5.6-13.7-3.5 14.5-14.8 1.1zm36.7-46.9 3.7 14.4 5.6-13.8 14.8 1-11.5-9.5 5.4-13.9-12.5 7.9-11.4-9.4 3.7 14.4-12.6 8zM277 108.4l14 5.2-8.3-12.4 9.2-11.7-14.3 4-8.2-12.3-.6 14.8-14.3 4.1 13.9 5.2-.6 14.8zm-42.1-42.2 14.7-2-13-7 2.7-14.7-10.8 10.2-13.1-7 6.4 13.4L211 69.3l14.8-2 6.4 13.5zm59.5 99.1 9.9 11-1.5-14.8 13.6-6-14.5-3.1-1.6-14.8-7.4 12.9-14.6-3.1 9.9 11-7.3 13z"/><path fill="#ffda44" d="M170.5 82a64 64 0 0 0-64 64v96h128v-96a64 64 0 0 0-64-64z"/></g></svg>