<svg xmlns="http://www.w3.org/2000/svg" width="512" height="512" fill="none"><g clip-path="url(#a)"><path fill="#EEE" fill-rule="evenodd" d="m0 256 32 64-14.5 29a256.7 256.7 0 0 0 84.9 111.8L256 480l153.6-19.2c37.8-28.4 67.5-67 85-111.7L480 320l32-64a256 256 0 1 0-512 0Z" clip-rule="evenodd"/><path fill="#026" fill-rule="evenodd" d="M471.6 117.9a254.7 254.7 0 0 1 32.3 74.1H256v19l-83-83h83l128-32 87.6 21.9Zm6.2 266.1c11.6-20 20.5-42 26.4-65L256 288 7.8 319c5.9 23 14.8 45 26.4 65h443.6ZM128 256v-83l83 83h-83Z" clip-rule="evenodd"/><path fill="#D80027" fill-rule="evenodd" d="M504 320c5.2-20.5 8-41.9 8-64H256v-31l-97-97h-31l128 128H96V96h160v32h221.8c-14-24-31.7-45.7-52.5-64H256V32H132A257 257 0 0 0 32 132v124H0c0 22.1 2.8 43.5 8 64h496Zm-78.7 128H86.7A255 255 0 0 0 256 512a255 255 0 0 0 169.3-64Z" clip-rule="evenodd"/><path fill="#026" d="M256 0v256H0A256 256 0 0 1 256 0Z"/><path fill="#EEE" d="M217.6 256H256v-38.4L140.7 102.3H256V0A256 256 0 0 0 0 256h102.3V140.7L217.6 256Z"/><path fill="#D80027" d="M256 76.6V25.4H144.7A257 257 0 0 0 25.4 144.7V256h51.2V76.6H256Z"/><path fill="#D80027" d="M256 230.4V256L102.2 102.2H128l128 128.2Z"/></g><defs><clipPath id="a"><path fill="#fff" d="M0 0h512v512H0z"/></clipPath></defs></svg>