<svg xmlns="http://www.w3.org/2000/svg" viewBox="0 0 512 512"><circle cx="256" cy="256" r="256" fill="#f0f0f0"/><path d="M256 512c64.917 0 124.179-24.176 169.306-64H86.694c45.127 39.824 104.389 64 169.306 64z" fill="#d80027"/><g fill="#0052b4"><path d="M8.065 320a254.445 254.445 0 0 0 26.191 64h443.487a254.445 254.445 0 0 0 26.191-64L256 300.522 8.065 320zM503.935 192a254.445 254.445 0 0 0-26.191-64L256 122.435V0c-19.017 0-37.551 2.075-55.386 6.008-.342.076-167.223 131.71-167.223 249.992C37.658 256.742 256 278.261 256 278.261V192h247.935z"/></g><path d="M256 159.722v-128h-81.075l25.697-25.697C95.131 29.291 14.076 117.615 1.67 226.783A258.572 258.572 0 0 0 0 256h129.67v-51.023L181.198 256h91.585l-97.859-96.278H256z" fill="#f0f0f0"/><path d="M256.117 256l-96.278-96.278H129.67v.001L225.947 256H97.391V128h380.353c-13.938-24.093-31.696-45.697-52.437-64H97.391v-8.925a257.223 257.223 0 0 0-64 74.479V256H0c0 22.099 2.8 43.545 8.065 64h495.87C509.2 299.544 512 278.099 512 256H256.117z" fill="#d80027"/></svg>