<svg xmlns="http://www.w3.org/2000/svg" width="512" height="512" fill="none"><g clip-path="url(#a)"><path fill="#EEE" d="M482.2 376c19-35.8 29.8-76.6 29.8-120 0-43.4-10.8-84.2-29.8-120H29.8A254.9 254.9 0 0 0 0 256c0 43.4 10.8 84.2 29.8 120h452.4Z"/><path fill="#026" d="M496.5 344a256.1 256.1 0 0 1-481 0h481Z"/><path fill="#D80027" d="M496.5 168h-481a256.1 256.1 0 0 1 481 0Z"/><path fill="#026" d="M256 416a160 160 0 1 0 0-320 160 160 0 0 0 0 320Z"/><path fill="#EEE" d="M256 360a104 104 0 1 0 0-208 104 104 0 0 0 0 208Z"/><path fill="#EEE" d="m240 148.4 41.6-30h-51.2l41.6 30-16-48.8-16 48.8ZM363.6 240l30 41.6v-51.2l-30 41.6 48.8-16-48.8-16ZM272 363.6l-41.6 30h51.2l-41.6-30 16 48.8 16-48.8ZM148.4 272l-30-41.6v51.2l30-41.6-48.8 16 48.8 16Zm147.5-117.2 51.1-5.2-44.4-25.6 21.1 46.8 10.5-50.3-38.3 34.3Zm61.3 141.1 5.2 51.1 25.6-44.4-46.8 21.1 50.2 10.5-34.2-38.3Zm-141.1 61.3-51.1 5.2 44.4 25.6-21.1-46.8-10.5 50.2 38.3-34.2Zm-61.3-141.1-5.2-51.1-25.6 44.4 46.8-21.1-50.2-10.5 34.2 38.3Zm186.4-27.8 46.8 21.1-25.6-44.4-5.2 51.1 34.3-38.3-50.3 10.5Zm-17.5 152.9L302.6 388l44.4-25.6-51.1-5.2 38.3 34.2-10.5-50.2Zm-152.9-17.5L124 302.6l25.6 44.4 5.2-51.1-34.3 38.3 50.3-10.5Zm17.5-152.9 21.1-46.8-44.4 25.6 51.1 5.2-38.3-34.2 10.5 50.2Z"/><path fill="#338AF3" d="M256 168a88 88 0 0 0-74.9 42H331a88 88 0 0 0-75-42Z"/><path fill="#FF9811" d="M256 336a56 56 0 1 0 0-112 56 56 0 0 0 0 112Z"/><path fill="#EEE" d="M288 280a32 32 0 0 1-32 32l-16-32 16-32a32 32 0 0 1 32 32Z"/><path fill="#026" d="M256 248a32 32 0 0 0-32 32l16 16 16-16v-32Z"/><path fill="#D80027" d="M256 312a32 32 0 0 1-32-32h32v32Z"/></g><defs><clipPath id="a"><path fill="#fff" d="M0 0h512v512H0z"/></clipPath></defs></svg>