<svg xmlns="http://www.w3.org/2000/svg" width="512" height="512" viewBox="0 0 512 512"><mask id="a"><circle cx="256" cy="256" r="256" fill="#fff"/></mask><g mask="url(#a)"><path fill="#ffda44" d="M0 0h512v512H0z"/><path fill="#d80027" d="M304 90a8 8 0 0 0-8 8v316a8 8 0 0 0 8 8 8 8 0 0 0 8-8V98a8 8 0 0 0-8-8zm-96 0a8 8 0 0 0-8 8v316a8 8 0 0 0 8 8 8 8 0 0 0 8-8V98a8 8 0 0 0-8-8zm64-34a8 8 0 0 0-8 8v384a8 8 0 0 0 8 8 8 8 0 0 0 8-8V64a8 8 0 0 0-8-8zm-32 0a8 8 0 0 0-8 8v384a8 8 0 0 0 8 8 8 8 0 0 0 8-8V64a8 8 0 0 0-8-8z" style="-inkscape-stroke:none"/><path fill="#d80027" d="M304 90a8 8 0 0 0-8 8v316a8 8 0 0 0 8 8 8 8 0 0 0 8-8V98a8 8 0 0 0-8-8zm-96 0a8 8 0 0 0-8 8v316a8 8 0 0 0 8 8 8 8 0 0 0 8-8V98a8 8 0 0 0-8-8zm64-34a8 8 0 0 0-8 8v384a8 8 0 0 0 8 8 8 8 0 0 0 8-8V64a8 8 0 0 0-8-8zm-32 0a8 8 0 0 0-8 8v384a8 8 0 0 0 8 8 8 8 0 0 0 8-8V64a8 8 0 0 0-8-8z" style="-inkscape-stroke:none" transform="rotate(90 256 256)"/><circle cx="256" cy="256" r="80" fill="#d80027"/><circle cx="256" cy="256" r="64" fill="#ffda44"/></g></svg>