<svg xmlns="http://www.w3.org/2000/svg" width="512" height="512" fill="none"><g clip-path="url(#a)"><circle cx="256" cy="256" r="256" fill="#FFDA44"/><path fill="#D80027" fill-rule="evenodd" d="M238 56a12 12 0 0 1 12 12v84.2a105.6 105.6 0 0 1 12 0V68a12 12 0 0 1 24 0v88.4c4.1 1.2 8.1 2.7 12 4.4V104a12 12 0 0 1 24 0v71.6c5.2 4.3 10 9.2 14.4 14.4H408a12 12 0 0 1 0 24h-56.8c1.7 3.9 3.2 7.9 4.4 12H444a12 12 0 0 1 0 24h-84.2a105.6 105.6 0 0 1 0 12H444a12 12 0 0 1 0 24h-88.4c-1.2 4.1-2.7 8.1-4.4 12H408a12 12 0 0 1 0 24h-71.6c-4.3 5.2-9.2 10-14.4 14.4V408a12 12 0 0 1-24 0v-56.8c-3.9 1.7-7.9 3.2-12 4.4V444a12 12 0 0 1-24 0v-84.2a105.6 105.6 0 0 1-12 0V444a12 12 0 0 1-24 0v-88.4c-4.1-1.2-8.1-2.7-12-4.4V408a12 12 0 0 1-24 0v-71.6c-5.2-4.3-10-9.2-14.4-14.4H104a12 12 0 0 1 0-24h56.8c-1.7-3.9-3.2-7.9-4.4-12H68a12 12 0 0 1 0-24h84.2a105.6 105.6 0 0 1 0-12H68a12 12 0 0 1 0-24h88.4c1.2-4.1 2.7-8.1 4.4-12H104a12 12 0 0 1 0-24h71.6c4.3-5.2 9.2-10 14.4-14.4V104a12 12 0 0 1 24 0v56.8c3.9-1.7 7.9-3.2 12-4.4V68a12 12 0 0 1 12-12Zm18 280a80 80 0 1 0 0-160 80 80 0 0 0 0 160Z" clip-rule="evenodd"/></g><defs><clipPath id="a"><path fill="#fff" d="M0 0h512v512H0z"/></clipPath></defs></svg>