<svg xmlns="http://www.w3.org/2000/svg" width="512" height="512" fill="none"><g clip-path="url(#a)"><path fill="#026" fill-rule="evenodd" d="M232.3 511a256 256 0 0 1 0-510L296 256l-63.7 255Z" clip-rule="evenodd"/><path fill="#D80027" fill-rule="evenodd" d="M512 256A256 256 0 0 0 232 1.1V256l140 64 140-64Z" clip-rule="evenodd"/><path fill="#EEE" fill-rule="evenodd" d="M256 512a256 256 0 0 0 256-256H232v254.9c7.9.7 16 1.1 24 1.1Z" clip-rule="evenodd"/><path fill="#026" fill-rule="evenodd" d="M232 510.9A256 256 0 0 1 232 1v510Z" clip-rule="evenodd"/><path fill="#EEE" d="m91 294 65-47H76l65 47-25-76-25 76Z"/><path fill="#FFC635" fill-rule="evenodd" d="M33.3 129.7c5-8.8 10.4-17.2 16.3-25.2a183 183 0 0 1 141.5 3.7l2.8 1.3-1.2 2.8-1.3 2.9.5.3c3.9 1.8 7.7 3.8 11.4 6l4.7 2.6-4.6 2.7a184 184 0 0 0-9.7 6c0 4-.3 8.1-.6 12.1l-.4 4.9-4.2-2.4c-3.8-2.2-7.7-4.2-11.6-6l-6.2-2.8 2-4.8a150.9 150.9 0 0 0-113.2-.1l1.8 4.9-6.2 2.8a149 149 0 0 0-11.6 6l-4.2 2.3-.5-4.8c-.3-4-.6-8-.7-12a193 193 0 0 0-4.8-3.2Zm16.3 277.8a263 263 0 0 1-16.3-25.1l5-3.2c0-4 .3-8.1.6-12.1l.4-4.9 4.2 2.4c3.8 2.2 7.7 4.2 11.6 6l6.2 2.8-2 4.8a150.9 150.9 0 0 0 113.2.1l-1.8-4.9 6.2-2.8c4-1.8 7.9-3.8 11.6-6l4.2-2.3.5 4.8c.3 4 .6 8 .7 12a195 195 0 0 0 9.5 6.1l4.6 2.8-4.6 2.6c-3.7 2.1-7.5 4.1-11.4 6l-.6.2 1.3 3 1.3 2.7-2.8 1.3a182.8 182.8 0 0 1-141.6 3.7ZM24 224h40v64H24v-64Zm144 0h40v64h-40v-64Z" clip-rule="evenodd"/></g><defs><clipPath id="a"><path fill="#fff" d="M0 0h512v512H0z"/></clipPath></defs></svg>