<svg xmlns="http://www.w3.org/2000/svg" width="512" height="512" fill="none"><g clip-path="url(#a)"><circle cx="256" cy="256" r="256" fill="#EEE"/><path fill="#FF9811" d="m236 107 52-38h-64l52 38-20-61-20 61Zm170 129 37 52v-64l-37 52 61-20-61-20ZM276 406l-52 37h64l-52-37 20 61 20-61ZM107 276l-38-52v64l38-52-61 20 61 20Zm206-159 64-7-55-32 26 59 13-63-48 43Zm83 196 6 64 32-55-59 26 63 13-42-48Zm-197 83-64 6 55 32-26-59-13 63 48-42Zm-82-197-7-64-32 55 59-26-63-13 43 48Zm259-35 58 26-32-55-7 64 43-48-62 13Zm-28 212-26 58 55-32-64-7 48 43-13-62Zm-211-28-59-26 32 55 6-64-42 48 63-13Zm27-211 26-59-55 32 64 6-48-42 13 63Zm92-3a24 24 0 0 0-24 24 24 24 0 0 0 16 23v17h-16v16h16v39c-20-2-30-15-33-18l11-11h-32v32l10-10a68 68 0 0 0 104 0l10 10v-32h-32l11 11c-3 3-13 16-33 18v-39h16v-16h-16v-17a24 24 0 0 0 16-23 24 24 0 0 0-24-24Zm0 16a8 8 0 1 1 0 16 8 8 0 0 1 0-16Z"/><path fill="#0052B4" fill-rule="evenodd" d="m168.7 321.8 11.4 6 .5.2-1.3 3-1.2 2.7 2.8 1.3a182.7 182.7 0 0 0 150.3 0l2.8-1.3-1.3-2.8-1.3-2.9.6-.3c3.9-1.8 7.7-3.8 11.4-6l4.6-2.6-4.6-2.7-9.5-6c-.1-4.1-.4-8.2-.7-12.1l-.5-4.9-4.2 2.4c-3.7 2.2-7.6 4.2-11.6 6l-6.2 2.8 1.8 4.9a150.6 150.6 0 0 1-113.2-.1l2-4.8-6.2-2.8c-3.9-1.8-7.8-3.8-11.6-6l-4.2-2.4-.4 4.9c-.3 4-.5 8-.6 12.1a228 228 0 0 1-9.7 6l-4.6 2.7 4.7 2.7Z" clip-rule="evenodd"/></g><defs><clipPath id="a"><path fill="#fff" d="M0 0h512v512H0z"/></clipPath></defs></svg>