<svg xmlns="http://www.w3.org/2000/svg" width="512" height="512" fill="none"><g clip-path="url(#a)"><path fill="#026" fill-rule="evenodd" d="M443 431a255.1 255.1 0 0 0 69-175c0-67.6-26.2-129.1-69-175l-11 175 11 175Z" clip-rule="evenodd"/><path fill="#EEE" fill-rule="evenodd" d="M448 86.7v338.6a257.5 257.5 0 0 1-35.3 33.2L400 256l12.7-202.5A258 258 0 0 1 448 86.7Z" clip-rule="evenodd"/><path fill="#D80027" fill-rule="evenodd" d="M416 56.1V456a256 256 0 1 1 0-399.7Z" clip-rule="evenodd"/><path fill="#EEE" d="M208 416a160 160 0 1 0 0-320 160 160 0 0 0 0 320Z"/><path fill="#026" d="M208 384a128 128 0 1 0 0-256 128 128 0 0 0 0 256Z"/><path fill="#EEE" d="m145 284 60 83V265l-60 83 98-32-98-32Zm15-128-22 100 76-68-102 11 89 51-41-94Zm147 49-42 93-21-100 75 69-102-11 90-51Z"/></g><defs><clipPath id="a"><path fill="#fff" d="M0 0h512v512H0z"/></clipPath></defs></svg>