<svg xmlns="http://www.w3.org/2000/svg" width="512" height="512" fill="none"><g clip-path="url(#a)"><path fill="#D80027" d="M256 512a256 256 0 0 0 256-255.5v-.5l-256-32L0 256a256 256 0 0 0 256 256Z"/><path fill="#EEE" d="M512 255.5v.5H0a256 256 0 0 1 512-.5Z"/><path fill="#026" fill-rule="evenodd" d="M170.7 497.4a256.1 256.1 0 0 1 0-482.8v482.8Z" clip-rule="evenodd"/><path fill="#EEE" d="m85.3 182 16.6 51.2h53.7l-43.4 31.5 16.6 51.1-43.5-31.6L42 315.8l16.6-51L15 233.1h53.7L85.3 182Z"/></g><defs><clipPath id="a"><path fill="#fff" d="M0 0h512v512H0z"/></clipPath></defs></svg>