<svg xmlns="http://www.w3.org/2000/svg" width="512" height="512" fill="none"><path fill="#D80027" fill-rule="evenodd" d="M496 345a255.5 255.5 0 0 0 0-178H16a255.5 255.5 0 0 0 0 178h480Z" clip-rule="evenodd"/><path fill="#338AF3" fill-rule="evenodd" d="M500 178H12a256.1 256.1 0 0 1 488 0Z" clip-rule="evenodd"/><path fill="#6DA544" fill-rule="evenodd" d="M255.4 512C141.4 511.7 45 437 12 334h487.8a256.1 256.1 0 0 1-243.3 178h-1.2Z" clip-rule="evenodd"/><path fill="#EEE" fill-rule="evenodd" d="M506 311.7a256.9 256.9 0 0 0 0-111.3H6a256.9 256.9 0 0 0 0 111.3h500Z" clip-rule="evenodd"/><path fill="#EEE" d="M117 105a50 50 0 0 1 39.3-48.9 50.2 50.2 0 1 0 0 97.9c-22.5-5-39.3-25-39.3-49Zm69 22.8 3.3 10.4h11l-8.9 6.5 3.4 10.4-8.9-6.4-8.8 6.4 3.4-10.4-9-6.5h11l3.4-10.4Zm35 0 3.4 10.4h11l-9 6.5 3.4 10.4-8.8-6.4-9 6.4 3.5-10.4-8.9-6.5h11l3.4-10.4Zm35 0 3.4 10.4h11l-9 6.5 3.5 10.4-9-6.4-8.8 6.4 3.4-10.4-8.9-6.5h11l3.4-10.4Zm35 0 3.4 10.4h11l-9 6.5 3.5 10.4-8.9-6.4-8.9 6.4 3.4-10.4-8.9-6.5h11l3.4-10.4Zm35 0 3.4 10.4h11l-8.9 6.5 3.4 10.4-8.9-6.4-8.9 6.4 3.4-10.4-8.8-6.5h11l3.3-10.4ZM221 91.4l3.4 10.4h11l-9 6.5 3.4 10.4-8.8-6.4-9 6.4 3.5-10.4-8.9-6.5h11l3.4-10.4Zm35 0 3.4 10.4h11l-9 6.5 3.5 10.4-9-6.4-8.8 6.4 3.4-10.4-8.9-6.5h11l3.4-10.4Zm35 0 3.4 10.4h11l-9 6.5 3.5 10.4-8.9-6.4-8.9 6.4 3.4-10.4-8.9-6.5h11l3.4-10.4Zm35 0 3.4 10.4h11l-8.9 6.5 3.4 10.4-8.9-6.4-8.9 6.4 3.4-10.4-8.8-6.5h11l3.3-10.4ZM256 55l3.4 10.4h11l-9 6.4 3.5 10.5-9-6.5-8.8 6.5 3.4-10.5-8.9-6.4h11L256 55Zm35 0 3.4 10.4h11l-9 6.4 3.5 10.5-8.9-6.5-8.9 6.5 3.4-10.5-8.9-6.4h11L291 55Zm35 0 3.4 10.4h11l-8.9 6.4 3.4 10.5-8.9-6.5-8.9 6.5 3.4-10.5-8.8-6.4h11L326 55Z"/></svg>