<svg xmlns="http://www.w3.org/2000/svg" viewBox="0 0 512 512"><path d="M12.088 178.088C4.246 202.656-.001 228.829 0 255.998c-.001 27.17 4.247 53.345 12.089 77.913L256 345.043l243.911-11.13c7.841-24.569 12.09-50.745 12.09-77.913-.001-27.17-4.248-53.344-12.09-77.913L256 166.957 12.088 178.088z" fill="#eee"/><path d="M499.91 178.088l-243.911-11.13-243.912 11.13a255.47 255.47 0 0 0-6.002 22.261h499.824a254.464 254.464 0 0 0-5.999-22.261zM6.088 311.651a254.732 254.732 0 0 0 6 22.26l.024.001 243.886 11.13 243.911-11.13a255.112 255.112 0 0 0 6.001-22.261H6.088z" fill="#d80027"/><path d="M255.999 511.999c114.216 0 210.946-74.803 243.911-178.087H12.089c32.965 103.283 129.697 178.087 243.91 178.087z" fill="#6da544"/><path d="M255.999.001C141.785.002 45.055 74.805 12.088 178.088l487.821.001C466.946 74.804 370.215 0 255.999.001z" fill="#338af3"/><path d="M116.986 105.74c0-23.977 16.851-44.007 39.354-48.921a50.195 50.195 0 0 0-10.733-1.165c-27.662 0-50.087 22.424-50.087 50.087s22.423 50.087 50.087 50.087c3.686 0 7.274-.41 10.733-1.165-22.502-4.916-39.354-24.946-39.354-48.923zm68.958 22.767l3.39 10.435h10.972l-8.876 6.45 3.39 10.435-8.876-6.449-8.878 6.449 3.391-10.435-8.877-6.45h10.972zm35.02 0l3.391 10.435h10.972l-8.877 6.45 3.391 10.435-8.877-6.449-8.877 6.449 3.391-10.435-8.876-6.45h10.971zm35.021 0l3.39 10.435h10.973l-8.877 6.45 3.39 10.435-8.876-6.449-8.878 6.449 3.392-10.435-8.878-6.45h10.973zm35.021 0l3.391 10.435h10.971l-8.876 6.45 3.391 10.435-8.877-6.449-8.878 6.449 3.392-10.435-8.878-6.45h10.972zm35.02 0l3.391 10.435h10.972l-8.876 6.45 3.391 10.435-8.878-6.449-8.877 6.449 3.391-10.435-8.876-6.45h10.971zM220.964 92.08l3.391 10.434h10.972l-8.877 6.451 3.391 10.434-8.877-6.449-8.877 6.449 3.391-10.434-8.876-6.451h10.971zm35.021 0l3.39 10.434h10.973l-8.877 6.451 3.39 10.434-8.876-6.449-8.878 6.449 3.392-10.434-8.878-6.451h10.973zm35.021 0l3.391 10.434h10.971l-8.876 6.451 3.391 10.434-8.877-6.449-8.878 6.449 3.392-10.434-8.878-6.451h10.972zm35.02 0l3.391 10.434h10.972l-8.876 6.451 3.391 10.434-8.878-6.449-8.877 6.449 3.391-10.434-8.876-6.451h10.971zm-70.041-36.428l3.39 10.436h10.973l-8.877 6.449 3.39 10.436-8.876-6.449-8.878 6.449 3.392-10.436-8.878-6.449h10.973zm35.021 0l3.391 10.436h10.971l-8.876 6.449 3.391 10.436-8.877-6.449-8.878 6.449 3.392-10.436-8.878-6.449h10.972zm35.02 0l3.391 10.436h10.972l-8.876 6.449 3.391 10.436-8.878-6.449-8.877 6.449 3.391-10.436-8.876-6.449h10.971z" fill="#eee"/></svg>