<svg xmlns="http://www.w3.org/2000/svg" width="512" height="512" fill="none"><path fill="#FFDA44" d="M0 256a256 256 0 0 0 255.5 256h.5l32-256L256 0A256 256 0 0 0 0 256Z"/><path fill="#EEE" d="M256.5 512h-.5V0a256 256 0 0 1 .5 512Z"/><path fill="#ACABB1" d="m354 222.8 48.1 63.6A33.4 33.4 0 1 0 420 273l-75-99.2-17.7 13.4-26.7 20.2 26.9 35.5 26.6-20.1Zm69.3 73.1a11.1 11.1 0 1 1 13.4 17.8 11.1 11.1 0 0 1-13.4-17.8Z"/><path fill="#FFC635" d="m436.6 242.9 26.8-35.5-26.6-20.2-17.8-13.4-75 99.2a33.4 33.4 0 1 0 17.8 13.4l48-63.6 26.8 20Zm-93.8 68.6a11.1 11.1 0 1 1-17.8-13.4 11.1 11.1 0 0 1 17.8 13.4Z"/></svg>