<svg xmlns="http://www.w3.org/2000/svg" width="512" height="512" fill="none"><path fill="#0052B4" d="M477.8 384A254.8 254.8 0 0 0 512 256c0-46.6-12.5-90.3-34.2-128H34.2A254.8 254.8 0 0 0 0 256c0 46.6 12.5 90.3 34.2 128h443.6Z"/><path fill="#D80027" d="M256 512A256 256 0 0 1 25.6 368h460.6A256 256 0 0 1 256 512h-.1Z"/><path fill="#FFDA44" d="M256 0A256 256 0 0 0 25.7 144h460.6A256 256 0 0 0 256 0Z"/><path fill="#EEE" d="m443.4 306.3-13.6 10.5 6 16.1-14.3-9.6L408 334l4.7-16.5-14.2-9.6 17.1-.6 4.7-16.5 6 16.1 17-.5Zm-34.7-60-9 14.5 11 13.2-16.7-4.2-9 14.6-1.3-17.1-16.6-4.2 15.9-6.4-1.2-17.1 11 13.1 16-6.4Zm-53-44.5-3.6 16.8L367 227l-17 1.8-3.6 16.8-7-15.7-17 1.8 12.7-11.5-7-15.6 14.8 8.6 12.8-11.5ZM290.6 178l2.4 17 17 3-15.5 7.6 2.4 17-12-12.4-15.4 7.6 8-15.2-11.8-12.3 16.9 3 8-15.2Zm-69.2 0 8 15.2 17-3-12 12.4 8 15.2-15.4-7.6-11.9 12.4 2.4-17-15.4-7.5 16.9-3 2.4-17Zm-65.1 23.8 12.8 11.5 14.8-8.6-7 15.7 12.8 11.4-17-1.8-7 15.7L162 229l-17-1.8 14.8-8.5-3.6-16.8Zm-53 44.5 15.9 6.4 11-13.1-1.2 17 16 6.5-16.7 4.2-1.2 17-9.1-14.5-16.7 4.2 11-13.2-9-14.5Zm-34.7 60 17.2.5 5.9-16 4.7 16.4 17.1.6-14.2 9.6L104 334l-13.5-10.6-14.2 9.6 5.9-16-13.6-10.6Z"/></svg>