<svg xmlns="http://www.w3.org/2000/svg" width="512" height="512" fill="none"><path fill="#026" d="M512 256a256 256 0 1 1-512 0L256 0a256 256 0 0 1 256 256Z"/><path fill="#026" d="M256 0v256H0A256 256 0 0 1 256 0Z"/><path fill="#EEE" d="M217.6 256H256v-38.4L140.7 102.3H256V0A256 256 0 0 0 0 256h102.3V140.7L217.6 256Z"/><path fill="#D80027" d="M256 76.6V25.4H144.7A257 257 0 0 0 25.4 144.7V256h51.2V76.6H256Z"/><path fill="#D80027" d="M256 230.4V256L102.2 102.2H128l128 128.2Z"/><path fill="#496E2D" d="M306 139.1v122.5c0 59.6 78 77.9 78 77.9s78-18.3 78-78V139.2H306Z"/><path fill="#EEE" d="M367.3 194.8h33.4v89h-33.4v-89Z"/><path fill="#584528" d="M384 211.5a16.7 16.7 0 1 0 0-33.4 16.7 16.7 0 0 0 0 33.4Z"/><path fill="#FFDA44" d="M328.4 161.4h22.2v22.2h-22.2v-22.2Zm0 50.1h22.2v22.2h-22.2v-22.2Zm0 50.1h22.2v22.2h-22.2v-22.2Zm89-100.2h22.3v22.2h-22.3v-22.2Zm0 50.1h22.3v22.2h-22.3v-22.2Zm0 50.1h22.3v22.2h-22.3v-22.2Z"/><path fill="#FFDA44" fill-rule="evenodd" d="m296.7 343.5 11.4 6 .6.2-1.4 2.9-1.2 2.8 2.8 1.3a182.7 182.7 0 0 0 150.3 0l2.8-1.3-1.3-2.8-1.3-2.9.6-.3c3.9-1.8 7.7-3.8 11.4-6l4.6-2.6-4.6-2.7-9.5-6c-.1-4.1-.4-8.2-.7-12.2l-.4-4.8-4.2 2.4a129 129 0 0 1-11.7 6l-6.2 2.8 1.8 4.9a150.6 150.6 0 0 1-113.2-.1l2-4.8-6.1-2.8c-4-1.8-8-3.8-11.7-6l-4.2-2.4-.4 4.9-.6 12c-3.1 2.2-6.4 4.2-9.6 6.1l-4.7 2.7 4.7 2.7Z" clip-rule="evenodd"/></svg>