<svg xmlns="http://www.w3.org/2000/svg" data-name="Capa 1" viewBox="0 0 100 100"><mask id="a"><circle cx="50" cy="50" r="50" fill="#fff"/></mask><g mask="url(#a)"><path fill="#fff" d="M0 0h512v512H0z"/><path fill="#369443" d="M33 61s-.1-.4.8-.8 1-1.8.9-2.8a3.4 3.4 0 0 1-1.1 1.2 2 2 0 0 0-1.1 1.6 3.6 3.6 0 0 1 0 .6 2.4 2.4 0 0 1 .3-2.3c.8-1 1-2 .4-3.7a2.7 2.7 0 0 1-.8 1.6c-.7.6-.7.7-.7 2.1 0 0 0 .5-.3.7a6 6 0 0 1-.7-1.3c-.1-.6-.2-.8.4-1.4 0 0 2-1.2.6-4A2.3 2.3 0 0 1 31 54c-.7.6-.6 1-.7 2l-.1 1c-.1.1-1.3-2.4-.3-3.6s1.5-1.5.4-3.7a2.2 2.2 0 0 1-.8 1.7c-.8.6-.6 2-.6 2a1.9 1.9 0 0 1-.2.8s-1.2-2.3 0-3.6c1-1 1-1.8.6-3.3a1.6 1.6 0 0 1-.6 1c-.6.4-1 .8-1 2.3a5.2 5.2 0 0 1 0 1.3 8.4 8.4 0 0 1-.7-1.5 1.7 1.7 0 0 1 .2-1.6 3.8 3.8 0 0 0 0-4.9 4 4 0 0 1-.4 1.6 3.4 3.4 0 0 0-.2 2.3 2.5 2.5 0 0 1-.2 1.3 5.8 5.8 0 0 1-.6-3 4 4 0 0 0-2-4s-1.1 2.6.4 3.9a6.3 6.3 0 0 1 1.5 2.7s-1 0-1.8-1.8a2.8 2.8 0 0 0-2.7-1.4 4.1 4.1 0 0 0 3 3.4s1.7.3 2 1.6l.5 1.3a2.7 2.7 0 0 1-1.1-1c-.5-.7-.5-.8-2.2-1a1.7 1.7 0 0 1-1-.6S23 52 25 52c0 0 1.7-.2 2.7 2l-.5-.2a3 3 0 0 0-2.1-.4 3.4 3.4 0 0 1-2-.1s1.3 2.3 3.1 1.6 2.7 1.8 2.7 1.9l-.6-.5a2 2 0 0 0-2.2-.3 3 3 0 0 1-1.8 0 2.9 2.9 0 0 0 3 1.5 2.2 2.2 0 0 1 2.5 1.5 3.9 3.9 0 0 1-.5-.3c-.1-.2-.8-.6-2.3-.1s-2-.1-2-.1a3.4 3.4 0 0 0 2.4 1.7 5.3 5.3 0 0 0 1.2-.2 1.7 1.7 0 0 1 2 .6.8.8 0 0 1-.4 0 2 2 0 0 0-1.9.2 2.2 2.2 0 0 1-1.7.6 2.9 2.9 0 0 0 3.4.2s.7-.5 1.2-.1 1.7-.4 1.7-.4z"/><path fill="#010002" d="M28.4 62.1a2.8 2.8 0 0 1-1.8-.7l-.3-.2h.4a2 2 0 0 0 1.6-.5 2.1 2.1 0 0 1 2-.3h.2a1.6 1.6 0 0 0-1.8-.4 5.1 5.1 0 0 1-1.3.2 3.5 3.5 0 0 1-2.5-1.7l-.3-.7.5.5s.5.5 2 0c1.5-.4 2.2 0 2.4.2h.1a2 2 0 0 0-2.3-1 3 3 0 0 1-3-1.5l-.1-.2h.2a3 3 0 0 0 1.8 0 2.2 2.2 0 0 1 2.3.3l.2.2a2.8 2.8 0 0 0-1.3-1.3 1.4 1.4 0 0 0-1.1 0 1.8 1.8 0 0 1-.7.1c-1.5 0-2.5-1.8-2.5-1.8L23 53h.3a3.2 3.2 0 0 0 1.8.2 3.2 3.2 0 0 1 2.3.4 2.6 2.6 0 0 0-2.4-1.5c-2 0-2.7-2.7-2.7-2.8l-.1-.6.3.5a1.6 1.6 0 0 0 1 .5c1.6.1 1.7.2 2.2.9v.2a2.9 2.9 0 0 0 .9.8l-.4-1.1c-.3-1.2-2-1.5-2-1.5a4.3 4.3 0 0 1-3.1-3.5v-.1h.2a2.8 2.8 0 0 1 2.8 1.5 3.2 3.2 0 0 0 1.6 1.7A6.4 6.4 0 0 0 24 46c-1.5-1.3-.5-3.8-.4-4h.2a4 4 0 0 1 2 4 5.7 5.7 0 0 0 .4 2.8 2.3 2.3 0 0 0 .2-1v-.2a3 3 0 0 1 .2-2.2A3.7 3.7 0 0 0 27 44v-.3l.2.3a3.9 3.9 0 0 1 0 4.8 1.7 1.7 0 0 0 0 .2 1.6 1.6 0 0 0-.2 1.5 6.5 6.5 0 0 0 .4 1.2 8.5 8.5 0 0 0 0-1c0-1.5.4-2 1-2.3a1.5 1.5 0 0 0 .5-1v-.5l.2.5c.6 1.6.5 2.3-.5 3.4s-.3 2.6 0 3.2a2.2 2.2 0 0 0 0-.5 2.3 2.3 0 0 1 .7-2 2 2 0 0 0 .7-1.7v-.5l.3.5c1 2 .6 2.5-.2 3.5l-.3.3c-.7 1 0 2.6.2 3.2a7.3 7.3 0 0 0 0-.8 2 2 0 0 1 0-.2 1.9 1.9 0 0 1 .8-1.8 2.2 2.2 0 0 0 .7-1.4V52l.1.3c1.4 2.8-.4 4.1-.5 4.2-.6.6-.5.7-.4 1.2a5.4 5.4 0 0 0 .6 1.2.9.9 0 0 0 .1-.5c0-1.4 0-1.5.8-2.1a2.5 2.5 0 0 0 .7-1.6v-.5l.2.5a3.2 3.2 0 0 1-.5 3.8 2.4 2.4 0 0 0-.5 1.7 1.4 1.4 0 0 0 0-.1 2.1 2.1 0 0 1 1.2-1.7 3.5 3.5 0 0 0 1-1.1l.2-.3v.3c.2.9.3 2.5-.9 2.9-.8.3-.8.8-.8.8-.2.1-1.3.8-1.9.4s-1 .1-1 .1a3.6 3.6 0 0 1-1.6.5zm-1.4-.6a2.9 2.9 0 0 0 3 0s.8-.5 1.3-.1c.4.2 1.2-.2 1.6-.4 0-.1.1-.6 1-1s1-1.3.8-2.2a3 3 0 0 1-1 1 2 2 0 0 0-1 1.4 3.8 3.8 0 0 1 0 .7.1.1 0 0 1-.2 0 .1.1 0 0 1-.1 0 2.6 2.6 0 0 1 .4-2.4 2.9 2.9 0 0 0 .5-3.3 2.5 2.5 0 0 1-.7 1.3c-.6.6-.7.6-.7 2 0 0 0 .6-.3.7v.1h-.1a6.3 6.3 0 0 1-.7-1.4c-.2-.6-.2-.8.4-1.5 0 0 1.7-1.1.7-3.5a2.2 2.2 0 0 1-.7 1.2c-.6.5-.6.8-.6 1.6v.2c0 .9-.1 1-.2 1l-.1.3-.3-.2s-1.2-2.4-.2-3.6l.2-.4c.8-.8 1-1.2.4-2.9a2 2 0 0 1-.8 1.4c-.8.6-.7 1.8-.6 1.8a2.1 2.1 0 0 1-.2 1v.2l-.2-.2c0-.1-1.2-2.4 0-3.8a2.5 2.5 0 0 0 .6-2.8 1.6 1.6 0 0 1-.5.8c-.6.4-1 .7-.8 2a4.5 4.5 0 0 1-.1 1.4l-.1.3-.1-.2a8.1 8.1 0 0 1-.7-1.6 1.8 1.8 0 0 1 .2-1.7l.1-.2a3.6 3.6 0 0 0 .2-4.3 4 4 0 0 1-.5 1.3 2.8 2.8 0 0 0-.2 2v.2a2.4 2.4 0 0 1-.2 1.4l-.1.2-.1-.2a6 6 0 0 1-.6-3 3.8 3.8 0 0 0-1.8-3.8c-.2.6-.8 2.5.4 3.6a6.4 6.4 0 0 1 1.6 2.8v.1h-.2s-1 0-1.9-1.8a2.5 2.5 0 0 0-2.5-1.4 4 4 0 0 0 3 3.2s1.8.3 2.1 1.6l.4 1.4v.2h-.1a2.8 2.8 0 0 1-1.2-1v-.2c-.5-.6-.5-.7-2-.9a2.3 2.3 0 0 1-.9-.3c.3.8 1 2.3 2.4 2.3.1 0 1.8-.1 2.8 2.1l.1.3-.3-.1-.4-.3a3 3 0 0 0-2.1-.4 3.7 3.7 0 0 1-1.7 0c.4.5 1.4 1.8 2.8 1.3a1.6 1.6 0 0 1 1.3 0 3.5 3.5 0 0 1 1.5 1.9l.1.4-.3-.3-.5-.5a2 2 0 0 0-2.1-.2 3.2 3.2 0 0 1-1.6 0 2.7 2.7 0 0 0 2.6 1.2A2.3 2.3 0 0 1 30 59v.3l-.1-.2-.5-.3c-.2-.1-.8-.6-2.3-.1a3 3 0 0 1-1.7.1 3.2 3.2 0 0 0 2.1 1.3 5.3 5.3 0 0 0 1.2-.1 1.8 1.8 0 0 1 2.2.6v.2h-.1a.9.9 0 0 1-.5-.1 2 2 0 0 0-1.8.2 2.4 2.4 0 0 1-1.4.7z"/><path fill="#f4c53d" d="M44.4 29.9s-.2-2.2 1.5-2.4a5.8 5.8 0 0 1 2.7.2l.8 1.6-.3 1-1.1.5s.2-1.6-1.3-1.6a5.2 5.2 0 0 1-1.2 0c-.6 0-1 .6-1 .7z"/><path fill="#010002" d="M47.8 31v-.2a1.8 1.8 0 0 0-.3-1.2 1.2 1.2 0 0 0-.9-.3 2.3 2.3 0 0 0-.3 0 2.5 2.5 0 0 1-.9 0c-.4-.1-.6.2-.8.4a.8.8 0 0 1-.1.2l-.2.1v-.2s-.2-2.2 1.6-2.5a5.9 5.9 0 0 1 2.7.2l.8 1.7-.3 1.1zm-1.2-2a1.3 1.3 0 0 1 1 .4 1.8 1.8 0 0 1 .4 1.2l1-.4.2-1-.8-1.5a6 6 0 0 0-2.6-.1c-1.2.1-1.4 1.3-1.4 1.9a1 1 0 0 1 1-.5 2.4 2.4 0 0 0 .8 0 2.2 2.2 0 0 1 .4 0z"/><path fill="#f4c53d" d="M56.5 35.2c-.3.3-1.3.4-1.3.4a5.2 5.2 0 0 1 1.5 2c.4 1.2-12.2 0-12.2 0a3.3 3.3 0 0 0 1-1.1 1.1 1.1 0 0 1-1.2-.3s.5 0 1-.7a5.8 5.8 0 0 1 1.4-1.3s-.2.1-.9-.2c0 0 1.1-.2 1.5-2a2.9 2.9 0 0 1 .5-1c.4-.6.3 0 1-.8 0 0 .4-.7 0-1.1s-.5-.2-1.2-.6-1-.6-.7-1.2a.8.8 0 0 1 .9-.5s0-.5.8-.9a5.3 5.3 0 0 1 2.8 0 3.5 3.5 0 0 1 2 2.1c.7 1.7-.1 2.3 1.7 4.8a3 3 0 0 1-1.2 0 6.7 6.7 0 0 0 2.6 2.4z"/><path fill="#010002" d="m53.7 38.2-3.4-.1-5.8-.4h-.3l.3-.2a3 3 0 0 0 .7-.9 1.3 1.3 0 0 1-1-.4L44 36l.5.1s.3.1.8-.6a7.4 7.4 0 0 1 1-1.1 1.8 1.8 0 0 1-.5-.2l-.3-.2h.3s1-.2 1.4-2a3.2 3.2 0 0 1 .5-1c.2-.3.4-.3.5-.3s.2 0 .6-.5c0 0 .3-.6 0-.9a.8.8 0 0 0-.5-.3 3.3 3.3 0 0 1-.7-.3c-.6-.4-1-.7-.8-1.3a.9.9 0 0 1 1-.6 1.6 1.6 0 0 1 .8-.8 5.5 5.5 0 0 1 2.9 0h.1a3.6 3.6 0 0 1 2 2.1 5 5 0 0 1 .4 1.6 5.5 5.5 0 0 0 1.2 3.2l.1.1h-.1a3.5 3.5 0 0 1-1 .1 6.4 6.4 0 0 0 2.3 2.2h.2l-.1.1a2 2 0 0 1-1.1.5 5.2 5.2 0 0 1 1.3 1.8.3.3 0 0 1 0 .3s-.3.3-3 .3zm-8.9-.7 5.5.4c5.3.2 6.2 0 6.3-.2a5.1 5.1 0 0 0-1.5-2l-.2-.1h.3a3.3 3.3 0 0 0 1-.3 6.7 6.7 0 0 1-2.4-2.4l-.1-.3.2.1a2.3 2.3 0 0 0 1 0 5.5 5.5 0 0 1-1.2-3.1 4.7 4.7 0 0 0-.3-1.6 3.4 3.4 0 0 0-1.9-2h-.1a5.3 5.3 0 0 0-2.8 0 1.4 1.4 0 0 0-.7.7l-.1.2a.7.7 0 0 0-.8.4c-.1.5 0 .7.7 1a2.8 2.8 0 0 0 .7.3 1 1 0 0 1 .6.4c.3.5 0 1.1 0 1.2-.4.5-.6.5-.8.5s-.1 0-.3.3a2.7 2.7 0 0 0-.4 1 2.6 2.6 0 0 1-1.3 2 .7.7 0 0 0 .5 0l.1.2a6 6 0 0 0-1.3 1.3 1.6 1.6 0 0 1-.8.7 1 1 0 0 0 .8.2l.3-.1-.2.2a3.7 3.7 0 0 1-.8 1z"/><path fill="#010002" d="M48.7 28.3a1.1 1.1 0 0 1-1-.5 1.4 1.4 0 0 1 0-1.1h.2a1.2 1.2 0 0 0 0 1 1 1 0 0 0 .8.4z"/><path fill="#f4c53d" d="M51.2 28.4a1.4 1.4 0 0 1-.5-.4 1 1 0 0 0-1.3-.3s-.4.5-.7.5a1.8 1.8 0 0 1 .6.3 1 1 0 0 0 .9.4c.4 0 .4-.3.6-.4a1 1 0 0 1 .4-.1z"/><path fill="#010002" d="M50 29a1.2 1.2 0 0 1-.8-.4 1.8 1.8 0 0 0-.6-.3l-.5-.2h.6a1.4 1.4 0 0 0 .6-.4.8.8 0 0 1 .6-.2 1.2 1.2 0 0 1 .9.4 1.3 1.3 0 0 0 .4.4l.4.2h-.4a.8.8 0 0 0-.3.1.5.5 0 0 0-.1.1.8.8 0 0 1-.6.3zm-1-.8a1.7 1.7 0 0 1 .4.3 1 1 0 0 0 .8.3.6.6 0 0 0 .4-.2 1 1 0 0 1 .2-.2.7.7 0 0 1 .1 0 1.7 1.7 0 0 1-.3-.4 1 1 0 0 0-.7-.3.6.6 0 0 0-.4.1 2.1 2.1 0 0 1-.5.4z"/><path fill="#f4c53d" d="M60.6 49a1.9 1.9 0 0 0 2.5 0 1.5 1.5 0 0 0 1.4.5c1-.2 1-.7 1.2-1a1.7 1.7 0 0 0 1.4.1 1.1 1.1 0 0 0 .7-.9 2 2 0 0 0 1.8-.5c.6-.8.2-1.6-.1-1.7 0 0 1.2.3 1.6-.8a1.2 1.2 0 0 0-.4-1.4s2.7 0 3.8-.8c0 0 .9-.6.3-1.2 0 0 2.4-.3 3-1.3a.8.8 0 0 0 .2-.7.3.3 0 0 0-.3-.3s2.7-.4 3.5-1.3a1 1 0 0 0 .2-1 1.2 1.2 0 0 0 0-.3 9.6 9.6 0 0 0 3.6-1.6 1.3 1.3 0 0 0 .3-1.4s4.2-1.2 3.2-3c0 0 2-.7 1.4-2.4 0 0 1.6-.8.9-2.1s-2.8.2-5.2.9c0 0-6.6 2-9.8 2.6l-9.2 13.8-5.4 2z"/><path fill="#010002" d="M62 49.7a2.6 2.6 0 0 1-1.4-.5l.5-4 5.4-2.1 9.3-13.7c3.2-.6 9.7-2.6 9.8-2.7a21.4 21.4 0 0 0 2-.7c1.6-.6 2.8-1 3.3-.1A1.4 1.4 0 0 1 91 27a2.2 2.2 0 0 1-1 1.1 1.7 1.7 0 0 1 0 1.4 2.4 2.4 0 0 1-1.3 1 1.1 1.1 0 0 1 0 1c-.5 1.2-2.7 1.9-3.2 2a1.5 1.5 0 0 1-.4 1.5 9.4 9.4 0 0 1-3.6 1.6.8.8 0 0 1 0 .2 1.1 1.1 0 0 1-.2 1c-.7.8-2.6 1.2-3.3 1.3a.4.4 0 0 1 0 .2.9.9 0 0 1-.1.8c-.6.9-2.4 1.3-3 1.4a.6.6 0 0 1 .2.4 1.3 1.3 0 0 1-.6.8 7.4 7.4 0 0 1-3.6.8 1.4 1.4 0 0 1 .2 1.4 1.3 1.3 0 0 1-1.3.8 1 1 0 0 1 0 .3 1.5 1.5 0 0 1-.2 1.3 2 2 0 0 1-1.7.6 1.3 1.3 0 0 1-.8 1 1.7 1.7 0 0 1-1.4 0 1.4 1.4 0 0 1-1.2.8 1.7 1.7 0 0 1-1.4-.4 1.7 1.7 0 0 1-1.1.4zm-1.2-.7a1.7 1.7 0 0 0 2.3 0h.1a1.3 1.3 0 0 0 1.3.4c.8-.2 1-.6 1-.9v-.1h.2a1.6 1.6 0 0 0 1.3.2 1 1 0 0 0 .6-.9v-.1h.2a1.8 1.8 0 0 0 1.6-.5 1.2 1.2 0 0 0 .3-1.1.6.6 0 0 0-.3-.3l.1-.3s1.2.3 1.5-.6a1.1 1.1 0 0 0-.3-1.3l-.3-.2h.3s2.7 0 3.7-.8a1 1 0 0 0 .5-.7.5.5 0 0 0-.1-.3l-.2-.2h.2s2.4-.4 3-1.3a.7.7 0 0 0 0-.6.2.2 0 0 0-.1-.2V39s2.7-.4 3.4-1.3a.9.9 0 0 0 .2-.8 1.1 1.1 0 0 0 0-.3H81h.2a9.7 9.7 0 0 0 3.6-1.7 1.2 1.2 0 0 0 .3-1.3v-.2h.2s2.6-.7 3.1-1.9a1 1 0 0 0 0-.9h.1a2.3 2.3 0 0 0 1.2-1 1.6 1.6 0 0 0 0-1.3v-.1h.1a2.1 2.1 0 0 0 1-1 1.1 1.1 0 0 0-.1-1c-.4-.7-1.5-.3-3 .3a19.4 19.4 0 0 1-2 .7c-.1 0-6.6 2-9.9 2.6l-9.3 13.4-5.3 2.1z"/><path fill="#f4c53d" d="M60.6 39a2.4 2.4 0 0 1 2.4.1.8.8 0 0 0 1 0 .8.8 0 0 0-.2-1.3c-1.1-.8-1.6-3.4.2-4.4 0 0 2.5-1.5 11.8-3.9a3 3 0 0 1 1.2-.2 1.1 1.1 0 0 1 .8.9 1.5 1.5 0 0 1-1 1.8 10.7 10.7 0 0 1-1.2.5 1 1 0 0 1 1 .6c.3.6-.2 1.3-1.5 1.8a6.7 6.7 0 0 1-.8.2s1 .3.5 1.2a2.6 2.6 0 0 1-2.1 1.2s1.2.1.3 1.3a2.4 2.4 0 0 1-1.6 1s1 0 .5.8a3.3 3.3 0 0 1-2.7 1.4 4.7 4.7 0 0 1-1 0s1 .5.5 1.3a1.9 1.9 0 0 1-1.6.6 1.1 1.1 0 0 1-.6 1.4 1.2 1.2 0 0 1-1.1-.2 1.2 1.2 0 0 1-.8 1.4 1.5 1.5 0 0 1-1.1 0s-.6 1.2-2.5.4-.4-7.9-.4-7.9z"/><path fill="#010002" d="M62.2 47.3A3 3 0 0 1 61 47c-2-.9-.6-7.7-.5-8a2.4 2.4 0 0 1 2.5 0 .7.7 0 0 0 .8 0 .8.8 0 0 0 .2-.6.7.7 0 0 0-.3-.5 3 3 0 0 1-1-2.5 2.6 2.6 0 0 1 1.2-2.2s2.7-1.5 11.9-3.9a3.2 3.2 0 0 1 1.2 0 1.3 1.3 0 0 1 1 .8 1.6 1.6 0 0 1-1 2l-.9.4a1 1 0 0 1 .6.5 1 1 0 0 1 0 .9 2.3 2.3 0 0 1-1.5 1.1 5.5 5.5 0 0 1-.6.2 1 1 0 0 1 .5.5.8.8 0 0 1-.1.7 2.5 2.5 0 0 1-1.8 1.1.7.7 0 0 1 .3.4c0 .2 0 .6-.3 1a2.3 2.3 0 0 1-1.3.8.6.6 0 0 1 .2.2.8.8 0 0 1 0 .7 3.5 3.5 0 0 1-2.9 1.5h-.6a1.2 1.2 0 0 1 .3.5 1 1 0 0 1-.2.8 2 2 0 0 1-1.5.6 1.2 1.2 0 0 1-.6 1.4 1.2 1.2 0 0 1-1.1 0 1.3 1.3 0 0 1-.8 1.3 1.8 1.8 0 0 1-1.2 0 1.5 1.5 0 0 1-1.3.6zM60.7 39a32.9 32.9 0 0 0-.5 3.6c-.2 2.4.1 3.8.9 4.1 1.7.8 2.2-.3 2.3-.3a1.5 1.5 0 0 0 1.1 0 1.1 1.1 0 0 0 .7-1.4v-.3l.2.2a1 1 0 0 0 1 .2A1 1 0 0 0 67 44v-.1h.1a1.8 1.8 0 0 0 1.5-.6.8.8 0 0 0 .2-.6 1.1 1.1 0 0 0-.5-.6v-.2a4.5 4.5 0 0 0 1 0 3.2 3.2 0 0 0 2.6-1.3c.1-.2.2-.4.1-.5a.6.6 0 0 0-.5-.2v-.2a2.3 2.3 0 0 0 1.5-1c.3-.3.3-.6.3-.8s-.6-.3-.6-.3v-.2a2.6 2.6 0 0 0 2.1-1 .7.7 0 0 0 .1-.7 1 1 0 0 0-.6-.5h-.4l.4-.2a8.4 8.4 0 0 0 .8-.2 2.2 2.2 0 0 0 1.4-1 .8.8 0 0 0 0-.7.8.8 0 0 0-.9-.5v-.2a10 10 0 0 0 1.2-.5 1.4 1.4 0 0 0 1-1.7 1 1 0 0 0-.8-.8 3 3 0 0 0-1.1.2A58.2 58.2 0 0 0 64 33.4a2.3 2.3 0 0 0-1.1 2 2.8 2.8 0 0 0 1 2.3 1 1 0 0 1 0 1.5.9.9 0 0 1-1 0 2.3 2.3 0 0 0-2.2-.2z"/><path fill="#010002" d="M77.6 31.6v-.2a44.9 44.9 0 0 0 12.3-3.5v.2s-3 1.8-12.3 3.5z"/><path fill="#f4c53d" d="M36.5 58.6s-1.1 2-2.4 2c0 0-2.3-.3-3 .3a2.8 2.8 0 0 0-1.1 1.8c-.2 1 .4 1.3.5 1.4a.7.7 0 0 0 .8.5s0 .8 1.4.5 2-.3 2.2-1.6.5-1.4.7-1.5l1.4-.7a11.8 11.8 0 0 1 2.5-1c.5-.1.4-1.9.4-1.9h-1.4l-.6-1z"/><path fill="#010002" d="M32 65.3a1 1 0 0 1-.5-.2.7.7 0 0 1-.2-.3.8.8 0 0 1-.6-.1.8.8 0 0 1-.3-.6c-.3 0-.7-.4-.5-1.4a2.7 2.7 0 0 1 1-1.8v-.1c.8-.6 3-.4 3-.4 1.4 0 2.4-1.8 2.4-1.8l1.5-1.3.7 1H40c0 .4 0 2-.5 2a12 12 0 0 0-2.4 1l-.7.4a5 5 0 0 0-.7.4c-.3.1-.5.2-.7 1.4s-.7 1.3-1.6 1.5l-.6.1a2.6 2.6 0 0 1-.7.2zm-.5-.8v.1a.5.5 0 0 0 .2.3 1.3 1.3 0 0 0 1 0l.6-.1c1-.2 1.3-.3 1.5-1.4.2-1.2.5-1.3.7-1.5a4.4 4.4 0 0 1 .8-.3l.7-.4a11.8 11.8 0 0 1 2.5-1c.2 0 .3-1 .3-1.7h-1.3l-.6-.9-1.3 1c-.1.3-1.2 2-2.5 2-.7 0-2.4 0-2.9.4h-.1a2.5 2.5 0 0 0-1 1.8c-.2.9.2 1.1.4 1.2a.7.7 0 0 0 .3.5.6.6 0 0 0 .5 0zm45.2-31v-.2c3.7-.4 11.8-3 11.8-3l.1.2c-.1 0-8.2 2.7-11.9 3zm-1.6 2.4v-.2a86.2 86.2 0 0 0 10.3-2.4v.2a89.4 89.4 0 0 1-10.3 2.4zm-1.7 2.2v-.2a74.5 74.5 0 0 0 7.9-1.5v.2a78.2 78.2 0 0 1-7.9 1.5zM72 40l5.7-1v.2c-.2 0-4.5.9-5.7 1z"/><polygon fill="#0081c6" points="72.61 45.9 72.84 53.09 72.84 53.09 71.57 52.35 71.57 52.35 69.45 61.48 68.58 60.85 70.64 52.11 70.64 52.11 69.2 52.14 69.2 52.14 72.61 45.9"/><path fill="#010002" d="m69.5 61.7-1-.8 2-8.7H69l3.7-6.7.2 7.8-1.3-.8zm-.8-.9.7.5 2-9.1 1.3.7-.2-6.6-3.1 5.7h1.4zM70.3 42h-.1v-.2a43.6 43.6 0 0 0 4.6-.5v.3a44.9 44.9 0 0 1-4.5.4zm.4 1.6-2-.2V43l2 .1zm-1.3 2.1a7.6 7.6 0 0 1-1.8-.8l.1-.1a8.3 8.3 0 0 0 1.8.7zm-1.6 2.2a2.7 2.7 0 0 1-1.4-1.3h.2a2.6 2.6 0 0 0 1.2 1.1zm-2.2.8a2.4 2.4 0 0 1-.8-1.3h.3a2.3 2.3 0 0 0 .6 1.2z"/><polygon fill="#0081c6" points="80.83 49.1 77.82 55.56 77.82 55.56 77.03 54.28 77.03 54.28 70.68 61.78 69.99 61.01 76.31 53.61 76.31 53.61 75.04 52.92 75.04 52.92 80.83 49.1"/><path fill="#010002" d="m70.7 62-.9-1 6.3-7.4-1.3-.7 6.3-4.1-3.3 7-.8-1.3zm-.6-1 .6.6 6.3-7.5.8 1.2 2.7-5.9-5.3 3.5 1.2.7zm-6.9-11.8V49H63s.2-.2 0-1h.2c.2.9 0 1.1 0 1.2z"/><polygon fill="#0081c6" points="78.08 44.35 76.53 51.36 76.53 51.36 75.49 50.3 75.49 50.3 69.81 61.23 68.93 60.72 74.65 49.81 74.65 49.81 73.26 49.45 73.26 49.45 78.08 44.35"/><path fill="#010002" d="m69.8 61.4-1-.6 5.7-11-1.5-.3 5.3-5.5-1.7 7.6-1-1zm-.7-.7.7.4 5.7-11 1 1 1.4-6.5-4.4 4.7 1.3.4zm-5.5-14.2h-.2a1.4 1.4 0 0 0 0-.7h.3a1.5 1.5 0 0 1-.1.8z"/><path fill="#f4c53d" d="M40.8 49a1.9 1.9 0 0 1-2.5 0 1.5 1.5 0 0 1-1.4.5c-1-.2-1-.7-1.2-1a1.7 1.7 0 0 1-1.4.1 1.1 1.1 0 0 1-.7-.9 2 2 0 0 1-1.8-.5c-.5-.8-.2-1.6.1-1.7 0 0-1.2.3-1.6-.8a1.2 1.2 0 0 1 .4-1.4s-2.7 0-3.7-.8c0 0-1-.6-.4-1.2 0 0-2.4-.3-3-1.3a.8.8 0 0 1-.2-.7.3.3 0 0 1 .3-.3s-2.7-.4-3.5-1.3a1 1 0 0 1-.2-1 1.2 1.2 0 0 1 .1-.3 9.6 9.6 0 0 1-3.7-1.6 1.3 1.3 0 0 1-.3-1.5s-4.2-1.1-3.2-3c0 0-2-.6-1.4-2.4 0 0-1.6-.8-.9-2s2.8.2 5.2.8c0 0 6.6 2.1 9.8 2.7L35 43l5.3 2z"/><path fill="#010002" d="M39.4 49.7a1.7 1.7 0 0 1-1.1-.5 1.7 1.7 0 0 1-1.4.4 1.4 1.4 0 0 1-1.2-.9 1.7 1.7 0 0 1-1.5 0 1.3 1.3 0 0 1-.7-.9 2 2 0 0 1-1.7-.6 1.4 1.4 0 0 1-.3-1.4.7.7 0 0 1 .1-.2 1.3 1.3 0 0 1-1.4-.9 1.4 1.4 0 0 1 .2-1.3 7.4 7.4 0 0 1-3.5-.8 1.3 1.3 0 0 1-.6-.8.6.6 0 0 1 .1-.4c-.6-.1-2.4-.5-2.9-1.4a1 1 0 0 1-.2-.8.7.7 0 0 1 0-.2c-.7-.1-2.5-.5-3.2-1.3a1.1 1.1 0 0 1-.2-1v-.2a9.4 9.4 0 0 1-3.6-1.6 1.5 1.5 0 0 1-.4-1.5c-.5-.2-2.7-.9-3.2-2a1.1 1.1 0 0 1 0-1 2.4 2.4 0 0 1-1.2-1 1.7 1.7 0 0 1 0-1.4 2.2 2.2 0 0 1-1-1.1 1.4 1.4 0 0 1 0-1.1c.6-1 1.8-.5 3.3.1a21.4 21.4 0 0 0 2 .7c.1 0 6.7 2.1 9.9 2.7L35 43l5.4 2v.1L41 49a2.5 2.5 0 0 1-1.5.7zm-1.1-.8a1.7 1.7 0 0 0 2.4 0l-.6-3.6-5.3-2-9.2-13.8c-3.3-.5-9.8-2.6-9.8-2.6a19.4 19.4 0 0 1-2.1-.7c-1.5-.6-2.5-1-3-.2a1.1 1.1 0 0 0 0 .9 2.1 2.1 0 0 0 1 1 1.6 1.6 0 0 0 0 1.3 2.3 2.3 0 0 0 1.2 1h.2v.1a1 1 0 0 0-.1 1c.5 1 3 1.7 3 1.7h.1v.2a1.2 1.2 0 0 0 .4 1.3 9.6 9.6 0 0 0 3.6 1.6h.2l-.1.1a1.1 1.1 0 0 0-.1.3 1 1 0 0 0 .2.8c.7.9 3.4 1.3 3.4 1.3v.2a.2.2 0 0 0-.2.2.7.7 0 0 0 .2.6c.5 1 2.9 1.3 2.9 1.3h.2l-.1.2a.4.4 0 0 0-.2.3 1 1 0 0 0 .5.7c1 .8 3.7.8 3.7.8h.2l-.3.2a1.1 1.1 0 0 0-.3 1.3c.3 1 1.4.7 1.5.6v.2a.6.6 0 0 0-.2.4 1.2 1.2 0 0 0 .2 1.1 1.8 1.8 0 0 0 1.7.6 1 1 0 0 0 .7 1 1.6 1.6 0 0 0 1.4-.2c.2.3.3.8 1.1 1a1.3 1.3 0 0 0 1.4-.2zm27.9-8.5-.2-.2c.8-.9.8-2 .1-3.6a2.4 2.4 0 0 1 0-2.3 5 5 0 0 1 2.1-1.5l.1.2a5 5 0 0 0-2 1.4 2.2 2.2 0 0 0 0 2v.1c1 2 .4 3.2-.1 3.9z"/><path fill="#f4c53d" d="M40.9 39a2.4 2.4 0 0 0-2.5.1.8.8 0 0 1-.9 0 .8.8 0 0 1 .1-1.3c1.2-.8 1.6-3.4-.2-4.4 0 0-2.5-1.5-11.8-3.9a3 3 0 0 0-1.2-.1 1.1 1.1 0 0 0-.8.8 1.5 1.5 0 0 0 1 1.9 11.2 11.2 0 0 0 1.3.5 1 1 0 0 0-1 .5c-.3.7 0 1.4 1.4 1.8a6.7 6.7 0 0 0 .9.3s-1.2.3-.6 1.2a2.6 2.6 0 0 0 2.1 1.1s-1.2.2-.3 1.4a2.5 2.5 0 0 0 1.6.9s-1 0-.5.9a3.3 3.3 0 0 0 2.7 1.3 4.7 4.7 0 0 0 1 0s-1 .5-.4 1.3a1.9 1.9 0 0 0 1.5.6 1.1 1.1 0 0 0 .6 1.4A1.2 1.2 0 0 0 36 45a1.2 1.2 0 0 0 .7 1.4 1.5 1.5 0 0 0 1.1 0s.6 1.2 2.5.4.5-7.9.5-7.9z"/><path fill="#010002" d="M39.2 47.3a1.5 1.5 0 0 1-1.3-.7 1.8 1.8 0 0 1-1.2 0 1.3 1.3 0 0 1-.8-1.3 1.2 1.2 0 0 1-1 0 1.2 1.2 0 0 1-.7-1.3 2 2 0 0 1-1.5-.6 1 1 0 0 1-.2-.8 1.3 1.3 0 0 1 .3-.5h-.6a3.5 3.5 0 0 1-2.8-1.5.7.7 0 0 1 0-.7.5.5 0 0 1 .1-.2 2.3 2.3 0 0 1-1.3-.9c-.3-.4-.4-.7-.2-1a.7.7 0 0 1 .3-.3 2.5 2.5 0 0 1-1.9-1 .8.8 0 0 1 0-.9 1 1 0 0 1 .4-.4 5.5 5.5 0 0 1-.6-.2 2.4 2.4 0 0 1-1.5-1.1 1.1 1.1 0 0 1 0-.9 1 1 0 0 1 .6-.6 12 12 0 0 1-.8-.3 1.7 1.7 0 0 1-1-2 1.3 1.3 0 0 1 .9-.9 3.2 3.2 0 0 1 1.2.1 54.3 54.3 0 0 1 11.9 4 2.5 2.5 0 0 1 1.2 2 3 3 0 0 1-1 2.6.7.7 0 0 0-.3.5.8.8 0 0 0 .2.6.7.7 0 0 0 .8 0 2.4 2.4 0 0 1 2.5-.1c.1.3 1.5 7.1-.5 8a3 3 0 0 1-1.2.4zm-1.2-1v.2s.5 1 2.3.3c.7-.4 1-1.8.9-4.2a32.9 32.9 0 0 0-.5-3.6 2.3 2.3 0 0 0-2.2.1.9.9 0 0 1-1 0 1 1 0 0 1-.4-.7 1 1 0 0 1 .4-.7 2.9 2.9 0 0 0 1-2.3 2.3 2.3 0 0 0-1-2s-2.7-1.6-11.9-3.9a3 3 0 0 0-1.1 0 1 1 0 0 0-.8.7 1.4 1.4 0 0 0 1 1.7 10.7 10.7 0 0 0 1.2.4v.3a.8.8 0 0 0-1 .4.8.8 0 0 0 0 .7 2.2 2.2 0 0 0 1.5 1 6.2 6.2 0 0 0 .8.3l.4.1-.4.1a1 1 0 0 0-.6.5.7.7 0 0 0 0 .6 2.6 2.6 0 0 0 2.2 1v.3s-.4 0-.6.3 0 .5.3.8a2.3 2.3 0 0 0 1.6.9v.2a.6.6 0 0 0-.5.2v.5a3.2 3.2 0 0 0 2.7 1.3 4.4 4.4 0 0 0 1 0v.2a1.2 1.2 0 0 0-.5.6.8.8 0 0 0 .1.6 1.8 1.8 0 0 0 1.5.6h.2v.1a1 1 0 0 0 .5 1.2 1 1 0 0 0 .9-.1l.3-.2-.1.3a1.1 1.1 0 0 0 .6 1.3 1.5 1.5 0 0 0 1.1 0zM68.2 42l-.6-.2.1-.2.6.2-.2.2.1-.1zm1.4-2v-.2a11.3 11.3 0 0 0 1.8-.2v.2a12 12 0 0 1-1.8.2zm1.2-2.3h-.2v-.3h2.1v.2h-1.9zm1.1-2.2v-.2a18 18 0 0 0 2.4-.3v.2a18 18 0 0 1-2.4.3zm.4-2.2v-.2a30.6 30.6 0 0 0 3.3-.7v.2a28.3 28.3 0 0 1-3.3.7zm-4 5.8-.2-.2c1.3-1 .7-2 .6-2v-.1h.1a1.6 1.6 0 0 0 .8-1.2 1.7 1.7 0 0 0-.5-1.2l.1-.1a1.8 1.8 0 0 1 .6 1.3 1.7 1.7 0 0 1-.8 1.2 1.8 1.8 0 0 1-.8 2.3z"/><path fill="#f4c53d" d="M41 49.8s-.3 1.5-2.5 3.4a5 5 0 0 0-1.7 3.3c0 1.7-.3 2-1 2.5a2.5 2.5 0 0 0 2-.8l-.1 1.7s.4 0 1-.7a2.8 2.8 0 0 1 .7-.5 3.4 3.4 0 0 0 0 2 1 1 0 0 1 .6-.6 2 2 0 0 0 1.4-1.6s.2-1 1.7-1.7c0 0 1.8-.7 1.7-1.6S41 49.8 41 49.8z"/><path fill="#010002" d="m39.4 61.1-.1-.3a3.4 3.4 0 0 1 0-1.9 4 4 0 0 0-.5.4c-.7.7-1.1.7-1.2.7h-.3l.3-.2a4.3 4.3 0 0 0 .2-1.3 2.7 2.7 0 0 1-2 .7h-.2l.2-.2v-.1c.6-.5 1-.8.9-2.4a5 5 0 0 1 1.7-3.3c2.2-1.9 2.5-3.3 2.5-3.3v-.3l.1.2c.4.5 3.9 4.6 3.9 5.5S43.3 57 43 57a3.3 3.3 0 0 0-1.7 1.7 2.2 2.2 0 0 1-1.4 1.7.8.8 0 0 0-.6.5zm.2-2.6v.2a3.4 3.4 0 0 0-.2 1.7 1.2 1.2 0 0 1 .6-.3 2 2 0 0 0 1.2-1.6s.3-1 1.9-1.8c.4-.2 1.6-.8 1.6-1.4S42 51.5 41 50a7.6 7.6 0 0 1-2.5 3.2 5 5 0 0 0-1.6 3.2c0 1.6-.3 2-.8 2.4a2.2 2.2 0 0 0 1.7-.7l.2-.3v.3a7.3 7.3 0 0 1-.2 1.5 2 2 0 0 0 .8-.5 3 3 0 0 1 .8-.6zm23-13.8a2.6 2.6 0 0 1-.4 0v-.3a1.5 1.5 0 0 0 2-1v-.1a2 2 0 0 0 1.6-.6 1.4 1.4 0 0 0 .3-1v-.2h.1a2.3 2.3 0 0 0 1.8-.6 1.9 1.9 0 0 0 .4-1.4h.3A2 2 0 0 1 68 41a2.4 2.4 0 0 1-1.7.7 1.5 1.5 0 0 1-.3 1.1 2 2 0 0 1-1.7.7 1.7 1.7 0 0 1-1.7 1.2z"/><path fill="#f4c53d" d="M65 58.6s1 2 2.4 2c0 0 2.3-.3 3 .3a2.8 2.8 0 0 1 1 1.8c.3 1-.3 1.3-.4 1.4a.7.7 0 0 1-.9.5s0 .8-1.4.5-1.9-.3-2.1-1.6-.6-1.4-.8-1.5l-1.4-.7a11.9 11.9 0 0 0-2.4-1c-.5-.1-.4-1.9-.4-1.9h1.3l.7-1z"/><path fill="#010002" d="M69.3 65.3a2.5 2.5 0 0 1-.6-.1L68 65c-.9-.2-1.4-.3-1.6-1.5s-.4-1.3-.6-1.4a5 5 0 0 0-.7-.4c-.3 0-.5-.2-.7-.3a11.7 11.7 0 0 0-2.5-1c-.6-.1-.5-1.7-.5-2v-.1h1.4l.7-1 1.5 1.3s1 1.8 2.3 1.8c.2 0 2.4-.2 3 .4h.2a2.8 2.8 0 0 1 1 1.9c.1 1-.3 1.3-.6 1.4a.9.9 0 0 1-.3.6.8.8 0 0 1-.5 0 .8.8 0 0 1-.3.4 1 1 0 0 1-.5.2zm-7.6-6.8c0 .7 0 1.6.3 1.6a11.5 11.5 0 0 1 2.5 1.1l.6.3a5 5 0 0 1 .8.4c.3.1.5.3.7 1.5.2 1 .6 1.1 1.5 1.3l.6.2a1.3 1.3 0 0 0 1 0 .5.5 0 0 0 .2-.3v-.1h.1a.6.6 0 0 0 .5 0 .7.7 0 0 0 .3-.5c.2 0 .6-.3.4-1.2a2.6 2.6 0 0 0-1-1.7V61c-.5-.5-2.2-.4-2.8-.3-1.4 0-2.5-1.8-2.6-2l-1.2-1.1-.6 1z"/><path fill="#f4c53d" d="M60.5 49.8s.2 1.5 2.5 3.4a5 5 0 0 1 1.6 3.3c0 1.7.3 2 1 2.5a2.5 2.5 0 0 1-2-.8s0 1.6.2 1.7c0 0-.4 0-1-.7a2.8 2.8 0 0 0-.8-.5 3.4 3.4 0 0 1 0 2 .9.9 0 0 0-.5-.6 2 2 0 0 1-1.4-1.6s-.2-1-1.8-1.7c0 0-1.7-.7-1.7-1.6s3.9-5.4 3.9-5.4z"/><path fill="#010002" d="M62 61.1v-.4a.8.8 0 0 0-.6-.4 2.2 2.2 0 0 1-1.4-1.7 3.4 3.4 0 0 0-1.7-1.7c-.2 0-1.8-.7-1.8-1.6s3.5-5 4-5.5v-.2.2a6.9 6.9 0 0 0 2.5 3.3 5 5 0 0 1 1.7 3.4c0 1.6.3 1.8.8 2.3l.1.2.2.1h-.2a2.7 2.7 0 0 1-2-.6 4.2 4.2 0 0 0 .2 1.3l.2.2h-.3s-.5 0-1.1-.7a2.3 2.3 0 0 0-.5-.4 3.3 3.3 0 0 1 0 1.8zm-1.6-11c-1.1 1.4-3.6 4.6-3.7 5.2s1.2 1.2 1.6 1.4a3.5 3.5 0 0 1 1.9 1.9 2 2 0 0 0 1.2 1.5 1.1 1.1 0 0 1 .6.4 3.6 3.6 0 0 0-.1-1.7l-.1-.3.2.1a3 3 0 0 1 .8.6 2 2 0 0 0 .8.6 7.3 7.3 0 0 1-.2-1.5v-.4l.2.3a2.2 2.2 0 0 0 1.7.7c-.6-.4-.8-.8-.8-2.4a5 5 0 0 0-1.6-3.2 7.8 7.8 0 0 1-2.5-3.2zm6.3 10.6a3.2 3.2 0 0 1-.6 0v-.2a4.1 4.1 0 0 0 1.2 0v.2a7 7 0 0 1-.6 0zm4.3 3.4h-.2c0-1.4-.3-2-.6-2.2a.6.6 0 0 0-.5-.2v-.2a.8.8 0 0 1 .7.3A3 3 0 0 1 71 64zm-.8.5H70c0-1.3-.3-1.8-.5-2a.6.6 0 0 0-.4-.3v-.2a.8.8 0 0 1 .6.2 3 3 0 0 1 .5 2.3z"/><path fill="#010002" d="M60.3 57a1.4 1.4 0 0 1-1-.3 1.8 1.8 0 0 0-.8-.5V56a1.9 1.9 0 0 1 1 .5 1.1 1.1 0 0 0 .7.3 2.3 2.3 0 0 1-.4-1 1.3 1.3 0 0 0-.5-.9l.1-.2a1.5 1.5 0 0 1 .6 1.1 1.8 1.8 0 0 0 .5 1l.2.2h-.3zm2.2-1.9a1.3 1.3 0 0 1-1-.4 1.9 1.9 0 0 0-.9-.5V54a1.8 1.8 0 0 1 1 .6 1.1 1.1 0 0 0 .8.3 2.3 2.3 0 0 1-.4-.9 1.3 1.3 0 0 0-.5-1l.1-.1a1.4 1.4 0 0 1 .6 1 1.8 1.8 0 0 0 .5 1l.2.2h-.3zm0 2.9a1.2 1.2 0 0 1-.8-.3 1.5 1.5 0 0 0-.7-.5V57a1.6 1.6 0 0 1 .8.5.9.9 0 0 0 .6.2 2 2 0 0 1-.3-.8 1 1 0 0 0-.4-.8l.1-.1a1.3 1.3 0 0 1 .6 1 1.4 1.4 0 0 0 .4.8l.2.2h-.3z"/><path fill="#f4c53d" d="M52.4 69.2s.4 1.7 1.8 1.6c0 0 1-.1 1-1.8 0 0 1.3.8 1.6-1 0 0 1.3.2 1.3-1.6 0 0 1.2.3 1-1.3a1 1 0 0 0 1.4-1.2s3-.5-3.4-6.4L51.3 61z"/><path fill="#010002" d="M54 70.9c-1.3 0-1.7-1.7-1.7-1.7l-1-8.3 5.8-3.5c3.1 2.8 4.5 4.8 4.2 6a1 1 0 0 1-.7.6 1.2 1.2 0 0 1-.4 1 1.2 1.2 0 0 1-1 .2 1.3 1.3 0 0 1-.3 1.1 1 1 0 0 1-.7.3 1.6 1.6 0 0 1-.5 1.3 1.1 1.1 0 0 1-.8.2 1.5 1.5 0 0 1-.7 1.1 1.3 1.3 0 0 1-1 0c0 1.6-1 1.7-1 1.7zM52.5 69c0 .2.4 1.7 1.7 1.6 0 0 .9-.2.8-1.6v-.2h.2a1.2 1.2 0 0 0 1 .1 1.4 1.4 0 0 0 .5-1.1v-.1h.2a1 1 0 0 0 .7-.2 1.5 1.5 0 0 0 .4-1.2v-.1h.1a1 1 0 0 0 .7-.2 1.2 1.2 0 0 0 .3-1v-.2h.1a1.1 1.1 0 0 0 .9-.1 1 1 0 0 0 .3-1h.1a.8.8 0 0 0 .6-.6c.2-.5 0-2-4-5.6L51.5 61z"/><path fill="#f4c53d" d="M51.8 61.3a1 1 0 0 0 1.6-.4s1 0 1.1-.8a1 1 0 0 0 1-.8s1 0 1-1c0 0 1.8-.1 0-2.2s-5.2 3.5-5.2 3.5z"/><path fill="#010002" d="M52.5 61.7a1.3 1.3 0 0 1-.8-.3l-.5-1.8c.1-.2 2.2-3.9 4-4a1.4 1.4 0 0 1 1.2.4c.8.9 1 1.5.9 2a1 1 0 0 1-.8.5 1.1 1.1 0 0 1-1 1 1.1 1.1 0 0 1-1 .8 1.2 1.2 0 0 1-1 .8 1.3 1.3 0 0 1-.9.6zm-.6-.5a1 1 0 0 0 .7.2 1 1 0 0 0 .7-.6h.1s.9 0 1-.6V60a1 1 0 0 0 .9-.7v-.1s1-.1 1-.9.6 0 .8-.5 0-.7-.8-1.7a1.1 1.1 0 0 0-1-.4c-1.6.2-3.6 3.5-3.8 4z"/><path fill="#010002" d="M55 69a17.9 17.9 0 0 0-2.8-7.4l.2-.1a18 18 0 0 1 2.8 7.6zm1.9-1h-.2s.3-1.9-3.4-7a1.7 1.7 0 0 0-.8-2l.1-.2a1.9 1.9 0 0 1 1 2.2c3.7 5 3.3 6.9 3.3 7zm1.3-1.5H58s0-2-3.5-6.3a1.8 1.8 0 0 0-1-2V58a2 2 0 0 1 1.1 2.1c3.7 4.3 3.6 6.3 3.6 6.4zM59 65s-.1-2-3.7-5.7a1.8 1.8 0 0 0-1-1.8l.1-.2a2 2 0 0 1 1.2 2c3.6 3.7 3.7 5.7 3.7 5.8zm1.4-1.1s-.3-2.2-4-5.5v-.1s0-.8-1.2-1.6l.2-.2c1.1.8 1.2 1.5 1.2 1.8 3.7 3.3 4 5.5 4 5.6z"/><path fill="#f4c53d" d="M49 69.2s-.4 1.7-1.8 1.6c0 0-1-.1-.9-1.8 0 0-1.4.8-1.7-1 0 0-1.3.2-1.3-1.6 0 0-1.2.3-1-1.3a1 1 0 0 1-1.4-1.2s-3-.5 3.4-6.4l5.8 3.5z"/><path fill="#010002" d="M47.4 70.9h-.2s-1-.1-1-1.7a1.3 1.3 0 0 1-1 0 1.5 1.5 0 0 1-.7-1.2 1.2 1.2 0 0 1-.8-.2 1.6 1.6 0 0 1-.5-1.3 1 1 0 0 1-.7-.2 1.4 1.4 0 0 1-.4-1.1 1.2 1.2 0 0 1-.9-.2 1.2 1.2 0 0 1-.4-1 1 1 0 0 1-.7-.7c-.3-1.1 1-3.1 4.1-6l6 3.6-1 8.2s-.5 1.8-1.8 1.8zm-1-2v.2c0 1.5.8 1.6.8 1.6 1.3.1 1.7-1.4 1.7-1.5L50 61l-5.6-3.4c-3.9 3.6-4.2 5-4 5.7a.8.8 0 0 0 .6.5v.1a1 1 0 0 0 .4.9 1.1 1.1 0 0 0 .9.1h.1v.2a1.2 1.2 0 0 0 .3 1 .9.9 0 0 0 .6.2h.2v.1a1.5 1.5 0 0 0 .4 1.2 1 1 0 0 0 .7.2h.2v.1a1.4 1.4 0 0 0 .5 1.1 1.2 1.2 0 0 0 1 0z"/><path fill="#f4c53d" d="M49.6 61.3a1 1 0 0 1-1.6-.4s-1 0-1-.8a1 1 0 0 1-1-.8s-1 0-1-1c0 0-1.9-.1 0-2.2s5.1 3.5 5.1 3.5z"/><path fill="#010002" d="M49 61.7h-.2a1.3 1.3 0 0 1-.9-.7 1.3 1.3 0 0 1-1-.8 1.1 1.1 0 0 1-1-.8 1.1 1.1 0 0 1-1-1 1 1 0 0 1-.8-.5c-.1-.4.1-1 .8-2a1.4 1.4 0 0 1 1.3-.4c1.8.2 4 3.9 4 4l-.5 1.8a1.3 1.3 0 0 1-.8.4zm-3-6a1.1 1.1 0 0 0-1 .4c-.8 1-.8 1.4-.7 1.7s.7.4.7.4v.1c0 .8 1 .9 1 .9a1 1 0 0 0 .9.8h.1c.1.7 1 .7 1 .7a1 1 0 0 0 .8.6 1 1 0 0 0 .7-.2l.5-1.5c-.2-.4-2.2-3.7-3.9-3.9z"/><path fill="#010002" d="M46.4 69h-.2a18 18 0 0 1 2.8-7.5l.2.1a17.7 17.7 0 0 0-2.8 7.5zm-1.9-1c0-.1-.3-2 3.4-7.2a1.9 1.9 0 0 1 1-2v.1a1.6 1.6 0 0 0-.8 2c-3.6 5-3.3 6.9-3.3 7z"/><path fill="#f4c53d" d="M50.7 60.8c1 0 2 5.8 1.7 9.3 0 1.3-.8 2.3-1.7 2.3s-1.6-1-1.7-2.3c-.3-3.5.8-9.3 1.7-9.3"/><path fill="#010002" d="M50.7 72.5c-1 0-1.7-1-1.8-2.4-.3-3.1.6-8.3 1.5-9.3a.4.4 0 0 1 .7 0c.8 1 1.7 6.2 1.4 9.3 0 1.4-.8 2.4-1.8 2.4zm0-11.6a.3.3 0 0 0-.2 0c-.8 1-1.6 5.9-1.4 9.2.1 1.3.8 2.2 1.6 2.2s1.5-1 1.6-2.2c.3-3.3-.6-8.2-1.4-9.1a.3.3 0 0 0-.2-.1zm-7.5 5.6c0-.1 0-2 3.6-6.4a2.1 2.1 0 0 1 1-2.1l.2.2a1.8 1.8 0 0 0-1 1.9c-3.6 4.4-3.6 6.3-3.6 6.3zm-.8-1.4h-.2s.1-2 3.7-5.8a2.1 2.1 0 0 1 1.2-2v.3a1.8 1.8 0 0 0-1 1.7c-3.6 3.8-3.7 5.8-3.7 5.8z"/><ellipse cx="50.71" cy="60.72" fill="#f4c53d" rx="1.29" ry="1.91"/><path fill="#010002" d="M50.7 62.7c-.8 0-1.4-.9-1.4-2s.6-2 1.4-2 1.4 1 1.4 2-.6 2-1.4 2zm0-3.8c-.6 0-1.2.8-1.2 1.8s.6 1.8 1.2 1.8 1.2-.8 1.2-1.8-.5-1.8-1.2-1.8zM41 64h-.2s.3-2.3 4-5.6c0-.3.2-1 1.3-1.8l.1.1c-1.2.9-1 1.7-1 1.7-4 3.3-4.2 5.6-4.2 5.6z"/><path fill="#fff" d="M50.7 60.3s11-4.8 11-16h-22c0 11.2 11 16 11 16z"/><path fill="#010002" d="M50.7 60.4a21.7 21.7 0 0 1-5.5-3.8 18.7 18.7 0 0 1-3.8-5 16 16 0 0 1-1.7-7.3v-.1h22a16 16 0 0 1-1.6 7.4 18.8 18.8 0 0 1-3.8 5 22 22 0 0 1-5.5 3.8zm-10.9-16a16.8 16.8 0 0 0 5.5 12 21.9 21.9 0 0 0 5.4 3.7 21.9 21.9 0 0 0 5.4-3.8 16.8 16.8 0 0 0 5.5-12z"/><rect width="1.69" height="0.22" x="44.81" y="44.13" fill="#010002"/><rect width="1.69" height="0.22" x="41.43" y="44.13" fill="#010002"/><rect width="1.69" height="0.22" x="48.18" y="44.13" fill="#010002"/><path fill="#a60032" d="M41.4 44.2v7.2a18 18 0 0 0 1.7 2.7v-9.9z"/><path fill="#010002" d="m43.2 54.4-.2-.2a18 18 0 0 1-1.7-2.8v-7.3h2zm-1.7-3a20.7 20.7 0 0 0 1.5 2.4v-9.4h-1.5z"/><path fill="#a60032" d="M44.8 44.2V56l1.7 1.6V44.2z"/><path fill="#010002" d="m46.6 57.8-.2-.1a26 26 0 0 1-1.7-1.6v-12h1.9zM44.9 56l1.5 1.4v-13h-1.5z"/><path fill="#a60032" d="M48.2 44.2v14.6l1.7 1V44.2z"/><path fill="#010002" d="M50 60h-.2l-1.7-1V44.1H50zm-1.7-1.2 1.5.9V44.3h-1.5z"/><rect width="1.69" height="0.22" x="41.43" y="44.13" fill="#010002"/><rect width="1.69" height="0.22" x="44.81" y="44.13" fill="#010002"/><rect width="1.69" height="0.22" x="48.18" y="44.13" fill="#010002"/><path fill="#a60032" d="M60 44.2v7.2a17.6 17.6 0 0 1-1.7 2.7v-9.9z"/><path fill="#010002" d="M58.2 54.4V44.1h2v7.3a18 18 0 0 1-1.8 2.8zm.2-10v9.4a18.8 18.8 0 0 0 1.5-2.4v-7z"/><path fill="#a60032" d="M56.6 44.2V56L55 57.6V44.2z"/><path fill="#010002" d="M54.8 57.8V44.1h2v12L55 57.7zm.2-13.4v13l1.5-1.4V44.4z"/><path fill="#a60032" d="M53.2 44.2v14.6l-1.6 1V44.2z"/><path fill="#010002" d="M51.4 60V44.2h2V59h-.1l-1.7 1zm.3-15.6v15.3l1.4-1V44.4z"/><line x1="62.27" x2="61.25" y1="71.15" y2="72.39"/><line x1="59.99" x2="62.8" y1="71.01" y2="73.6"/><path fill="#0081c6" d="m68.4 64.6-.4 1.7 1.2 1.2-1.7 7-1.5-2-2.1 1 1.6-7L67 66l.4-1.8a1 1 0 0 1 1 .3z"/><path fill="#010002" d="M67.5 74.7 66 72.6l-2.3 1 1.7-7.2L67 66l.4-1.7a1.1 1.1 0 0 1 1.1.2l-.4 1.8 1.2 1.1zm-1.4-2.4 1.3 1.9 1.6-6.7-1.2-1.2.5-1.7a1 1 0 0 0-.8-.2l-.4 1.8-1.5.4-1.6 6.7z"/><path fill="#0081c6" d="M68.8 63.4 68 65l.8 1.4-3.3 6.3-.9-2.3-2.3.4 3.3-6.3H67l.8-1.5a1 1 0 0 1 .9.4z"/><path fill="#010002" d="m65.5 73-1-2.5-2.5.4 3.4-6.5H67l.8-1.6a1.2 1.2 0 0 1 1 .6l-.7 1.6.8 1.4zm-.9-2.7 1 2.1 3-6-.8-1.4.9-1.6a1 1 0 0 0-.7-.3l-.8 1.5h-1.6l-3.2 6z"/><path fill="#0081c6" d="m69 63.9-2.3 2.8.5 1.6-4.5 5.3-.4-2.4-2.4-.2 4.5-5.3 1.6.3 2.4-3s.6.3.5.9z"/><path fill="#010002" d="m62.6 73.9-.4-2.6-2.5-.2 4.7-5.6 1.5.4 2.5-3.1v.2a1 1 0 0 1 .6.9l-2.2 2.8.5 1.6zm-2.5-3 2.2.1.4 2.4 4.4-5.1-.5-1.6 2.2-2.9c0-.3-.3-.5-.4-.6l-2.4 3-1.5-.4zM23.8 31.6c-9.2-1.7-12.3-3.5-12.3-3.5l.1-.2s3.1 1.8 12.3 3.5zm1 1.9c-3.8-.3-11.9-3-12-3l.1-.2c.1 0 8.1 2.6 11.8 3zm1.5 2.4A90 90 0 0 1 16 33.5v-.2a86.8 86.8 0 0 0 10.3 2.4zm1.7 2.2a77.3 77.3 0 0 1-8-1.5l.1-.2a74.5 74.5 0 0 0 8 1.5zm1.4 2c-1.2 0-5.5-1-5.7-1V39s4.5 1 5.7 1zM31 42a44.9 44.9 0 0 1-4.5-.4v-.3a43.6 43.6 0 0 0 4.6.5v.2zm-.4 1.6v-.3l2-.1v.2l-2 .2zm1.3 2.1v-.2a8.3 8.3 0 0 0 1.7-.7l.1.2a7.6 7.6 0 0 1-1.8.7zm1.7 2.2-.1-.2a2.5 2.5 0 0 0 1.2-1.2l.2.1a2.7 2.7 0 0 1-1.3 1.3zm2.1.8-.1-.1a2.2 2.2 0 0 0 .7-1.2h.2a2.4 2.4 0 0 1-.8 1.3zm2.4.6s-.3-.3-.1-1.3h.2v1zm-.3-2.7a1.5 1.5 0 0 1-.1-.7h.2a1.4 1.4 0 0 0 0 .6zm-2.7-6.1c-.5-.7-1-1.9-.1-3.9a2.2 2.2 0 0 0 0-2 5.1 5.1 0 0 0-2-1.5v-.2a5 5 0 0 1 2.2 1.5 2.3 2.3 0 0 1 0 2.2v.1c-.7 1.5-.6 2.7 0 3.6zm-2 1.6V42l.6-.3v.2l-.5.2zm-1.4-2a12.2 12.2 0 0 1-1.8-.2v-.2a11.5 11.5 0 0 0 1.8.2zm-1.2-2.3-1.9-.1v-.2h2v.3z"/><path fill="#369443" d="M32.7 64.2s0-.9 1.1-1l3.5 4.9s-.1.3-1.7.3a.3.3 0 0 0-.2.1c-.2.3-2.7-4.3-2.7-4.3z"/><path fill="#010002" d="M35.3 68.7s-.2-.1-1.5-2.2l-1.2-2.2s0-1 1.3-1.1l3.6 5s-.3.3-1.8.3a.2.2 0 0 0-.2.1.1.1 0 0 1-.1.1zm-2.5-4.5a41 41 0 0 0 2.5 4.2.4.4 0 0 1 .3-.2 3.3 3.3 0 0 0 1.6-.1l-3.4-4.7c-1 0-1 .7-1 .8zm4.4 3.8zm-7.7-32.5a18 18 0 0 1-2.4-.3V35a18.2 18.2 0 0 0 2.4.3zm-.4-2.2a27.4 27.4 0 0 1-3.3-.7v-.2a31.3 31.3 0 0 0 3.4.7zm4.1 5.8a1.8 1.8 0 0 1-.8-2.3 1.7 1.7 0 0 1-.7-1.2 1.9 1.9 0 0 1 .5-1.3l.2.1a1.6 1.6 0 0 0-.5 1.2 1.6 1.6 0 0 0 .8 1.1v.2s-.6 1 .7 2zm5.5 5.6a1.7 1.7 0 0 1-1.6-1.2 2 2 0 0 1-1.8-.7 1.5 1.5 0 0 1-.2-1.1 2.4 2.4 0 0 1-1.8-.7 2.1 2.1 0 0 1-.5-1.5h.2a1.9 1.9 0 0 0 .4 1.3 2.3 2.3 0 0 0 1.8.7h.1a1.4 1.4 0 0 0 .3 1.2 2 2 0 0 0 1.6.5v.1a1.5 1.5 0 0 0 2 1v.3a2.6 2.6 0 0 1-.5 0zm-4 16a7 7 0 0 1-.6 0v-.2a4.1 4.1 0 0 0 1.2 0v.2a3.2 3.2 0 0 1-.5 0zm-4.3 3.4a3 3 0 0 1 .6-2.3.8.8 0 0 1 .7-.3v.2a.6.6 0 0 0-.5.2c-.3.3-.6.8-.6 2.2zm.8.5a3 3 0 0 1 .6-2.3.8.8 0 0 1 .6-.2v.2a.6.6 0 0 0-.4.2c-.3.2-.6.8-.5 2.1zm10-7.5h-.5l.2-.2a1.8 1.8 0 0 0 .5-1 1.5 1.5 0 0 1 .6-1.1l.1.2a1.3 1.3 0 0 0-.5.9 2.2 2.2 0 0 1-.4 1 1 1 0 0 0 .8-.4 2 2 0 0 1 .9-.5v.2a1.7 1.7 0 0 0-.8.5 1.3 1.3 0 0 1-1 .4zM39 55h-.4l.2-.2a1.8 1.8 0 0 0 .5-1 1.4 1.4 0 0 1 .6-1l.1.1a1.3 1.3 0 0 0-.5 1 2.3 2.3 0 0 1-.4.9 1.1 1.1 0 0 0 .8-.3 2 2 0 0 1 1-.6v.2a1.8 1.8 0 0 0-.9.5 1.3 1.3 0 0 1-1 .4zm-.2 2.9h-.4l.2-.2a1.5 1.5 0 0 0 .4-.8 1.3 1.3 0 0 1 .6-1l.1.2a1.1 1.1 0 0 0-.4.7 2 2 0 0 1-.3.8.9.9 0 0 0 .6-.2 1.6 1.6 0 0 1 .8-.5v.2-.1.1a1.5 1.5 0 0 0-.7.4 1.2 1.2 0 0 1-.9.4z"/><path fill="#162667" d="M61.7 36a12.4 12.4 0 0 1-11-.1 12.4 12.4 0 0 1-11 .2v8.1h22v-8.1z"/><path fill="#010002" d="M61.8 44.4H39.6v-8.5h.2a12 12 0 0 0 3.4 1 11.8 11.8 0 0 0 7.5-1.1 12.3 12.3 0 0 0 11 .2zm-22-.3h21.8v-7.8a12.6 12.6 0 0 1-3.3 1 12 12 0 0 1-7.6-1.3 12 12 0 0 1-7.6 1.2 12.7 12.7 0 0 1-3.3-1z"/><path fill="#0081c6" d="M12.4 57.2c.5-.2 1-.4 1-1a4 4 0 0 0-.3-.9L9.5 44.4a8.5 8.5 0 0 0-.4-1.2c-.2-.3-.5-.4-1-.6h4.6c-.5.3-1 .5-1 1a3 3 0 0 0 .3.8l2.7 8.6 2.7-8.6a3 3 0 0 0 .2-.8c0-.5-.5-.7-1-1h4.5c-.4.2-.8.3-1 .7a11 11 0 0 0-.4 1.1l-3.5 11a5.7 5.7 0 0 0-.3.8s-.1.7 1 1z"/><path fill="#010002" d="m11.9 57.3.5-.2c.5-.2.8-.4.8-.9a3.2 3.2 0 0 0-.2-.8l-3.6-11a11.2 11.2 0 0 0-.4-1.1c-.1-.3-.4-.4-.8-.5l-.6-.3h5.6l-.5.3c-.5.2-.8.4-.8.8a3.3 3.3 0 0 0 .2.8l2.6 8.2 2.6-8.2a3 3 0 0 0 .2-.8c0-.5-.4-.6-.8-.8l-.5-.3h5.5l-.6.3a1.5 1.5 0 0 0-.8.5 11.9 11.9 0 0 0-.5 1.2l-3.5 10.9a7.2 7.2 0 0 0-.3.9s0 .5.9.8l.8.2zM8.7 42.8a1 1 0 0 1 .5.4 8.6 8.6 0 0 1 .4 1.2l3.6 10.9a3.8 3.8 0 0 1 .3 1 1 1 0 0 1-.6.8h3.4a.9.9 0 0 1-.5-.9 6.2 6.2 0 0 1 .3-.9l3.5-11a8.2 8.2 0 0 1 .5-1.1 1 1 0 0 1 .5-.5h-3.4a1 1 0 0 1 .5.9 3.2 3.2 0 0 1-.2.8l-2.8 9-2.8-9a3 3 0 0 1-.2-.8 1 1 0 0 1 .6-.8z"/><path fill="#0081c6" d="M88.5 56.1V43.7a1 1 0 0 0-.1-.5 2 2 0 0 0-.8-.6h4a1.7 1.7 0 0 0-.7.7 1 1 0 0 0-.1.5V56a1 1 0 0 0 0 .5 2.3 2.3 0 0 0 .9.6h-4.1a2.1 2.1 0 0 0 .8-.6 1 1 0 0 0 .1-.5z"/><path fill="#010002" d="M92.2 57.3H87l.4-.2a2 2 0 0 0 .8-.6.8.8 0 0 0 0-.4V43.7a.8.8 0 0 0 0-.4 1.7 1.7 0 0 0-.8-.6l-.5-.2h5.3l-.6.2a1.6 1.6 0 0 0-.8.6.8.8 0 0 0 0 .5V56a.8.8 0 0 0 0 .5 2.2 2.2 0 0 0 .8.5zm-4.2-.2h3.3a1.9 1.9 0 0 1-.5-.4 1 1 0 0 1-.2-.6V43.7a1.1 1.1 0 0 1 .2-.5 1.9 1.9 0 0 1 .4-.5H88a1.6 1.6 0 0 1 .5.5 1 1 0 0 1 .1.5v12.4a1 1 0 0 1-.1.6 2 2 0 0 1-.5.4z"/></g></svg>