<svg xmlns="http://www.w3.org/2000/svg" width="512" height="512" fill="none"><g clip-path="url(#a)"><circle cx="256" cy="256" r="256" fill="#D80027"/><path fill="#EEE" d="m384 232-72-72h144l-72 72Zm-24 24-72-72v144l72-72Zm24 24-72 72h144l-72-72Zm24-24 72-72v144l-72-72ZM0 245.6A256 256 0 0 1 256 0v256H0v-10.4Z"/><path fill="#026" fill-rule="evenodd" d="M2 224c7.2-58 33.8-109.8 73-149v149H2Z" clip-rule="evenodd"/><path fill="#EEE" fill-rule="evenodd" d="M75 75a256.6 256.6 0 0 1 74-51.6V224H75V75Z" clip-rule="evenodd"/><path fill="#D80027" fill-rule="evenodd" d="M149 23.4A252.1 252.1 0 0 1 224 2v222h-75V23.4Z" clip-rule="evenodd"/></g><defs><clipPath id="a"><path fill="#fff" d="M0 0h512v512H0z"/></clipPath></defs></svg>