<svg xmlns="http://www.w3.org/2000/svg" viewBox="0 0 100 100"><mask id="a"><circle cx="50" cy="50" r="50" fill="#fff"/></mask><g mask="url(#a)"><rect width="100.5" height="100" y="0.25" fill="red"/><polygon fill="#fff" points="95.74 48.75 62.76 48.75 79.25 65.24 95.74 48.75"/><polygon fill="#fff" points="62.76 90.75 95.74 90.75 79.25 74.26 62.76 90.75"/><polygon fill="#fff" points="58.25 53.26 58.25 86.24 74.74 69.75 58.25 53.26"/><polygon fill="#fff" points="100.25 86.24 100.25 53.26 83.76 69.75 100.25 86.24"/><polygon fill="none" points="0 0 0 0.25 8.93 0.25 31.38 0.25 53.84 0.25 53.84 45.16 31.38 45.16 8.93 45.16 0 45.16 0 100.25 100.25 100.25 100.25 0 0 0"/><rect width="8.93" height="44.91" y="0.25" fill="#2e3192"/><rect width="22.45" height="44.91" x="8.93" y="0.25" fill="#fff"/><rect width="22.45" height="44.91" x="31.38" y="0.25" fill="red"/><rect width="53.84" height="45.16" fill="none"/></g></svg>