<svg xmlns="http://www.w3.org/2000/svg" width="512" height="512" fill="none"><g fill-rule="evenodd" clip-path="url(#a)" clip-rule="evenodd"><path fill="#EEE" d="m115.2 42.2 354.6 354.6c-19.1 29-44 53.9-73 73L42.2 115.2c19.1-29 44-53.9 73-73Z"/><path fill="#FFDA44" d="M163.3 17.3 219 73l74 73 73 73v1l73 73 55.7 55.7A256.2 256.2 0 0 1 439 435v-69h-73v-73h-73v-74h-74v-73h-73V73H77c24.5-24 53.8-43 86.3-55.7Z"/><path fill="#FF9811" d="M221.4 2.3 293 73l146 146 70.7 71.6c-3.6 26.7-11.3 52-22.5 75.4H439v-73h-73v-74h-73v-73h-74V73h-73V24.8a254.2 254.2 0 0 1 75.4-22.5Z"/><path fill="#D80027" d="M509.3 293a258.1 258.1 0 0 0-.4-77.1L439 146l-73-73-69.9-69.9a258 258 0 0 0-77.1-.4V73h74v73h73v73h73v74h70.3Z"/><path fill="#4A1F63" d="M293 2.7A256.2 256.2 0 0 1 509.3 219H439v-73h-73V73h-73V2.7Z"/><path fill="#0052B4" d="M366 24.8V73h69c-20-19.6-43.4-36-69-48.2ZM487.2 146A256.6 256.6 0 0 0 439 77v69h48.2Z"/><path fill="#6DA544" d="M73 77v69h73v73h73v74h73v73h73v73h70a256.2 256.2 0 0 1-87 56l-56-56-73-73-73-73v-1l-73-73-55.7-55.7A256.2 256.2 0 0 1 73 77Z"/><path fill="#0052B4" d="M24.8 146H73v73h73v74h73v73h73v73h74v48.2a254.2 254.2 0 0 1-76.2 22.6L219 439 73 293 2.3 221.4c3.6-26.7 11.3-52 22.5-75.4Z"/><path fill="#4A1F63" d="M2.7 219H73v74h73v73h73v73h73v70.5a258.3 258.3 0 0 1-76.1-.6L146 439l-73-73-69.9-69.9a258 258 0 0 1-.4-77.1Z"/><path fill="#D80027" d="M219 509.3A256.2 256.2 0 0 1 2.5 292H73v74h73v73h73v70.3Z"/><path fill="#FF9811" d="M146 487.2V439H77c20 19.6 43.4 36 69 48.2ZM73 435c-19.6-20-36-43.4-48.2-69H73v69Z"/></g><defs><clipPath id="a"><path fill="#fff" d="M0 0h512v512H0z"/></clipPath></defs></svg>