<svg xmlns="http://www.w3.org/2000/svg" viewBox="0 0 100 100"><mask id="a"><circle cx="50" cy="50" r="50" fill="#fff"/></mask><g mask="url(#a)"><rect width="154.41" height="102.94" x="-54.41" y="-2.18" fill="#2c5d9f"/><polygon fill="#fff" points="-32.53 50 100 94.82 100 5.18 -32.53 50"/><polygon fill="#ff1d25" points="-43.69 50 100 1.41 100 -2.36 -54.84 50 100 102.36 100 98.59 -43.69 50"/><polygon fill="#ff1d25" points="100 5.18 100 1.41 -43.69 50 100 98.59 100 94.82 -32.53 50 100 5.18"/><path fill="#9c3900" d="m69.8 71.5-1.7-.2-1.9-.4 1.7 1.7c-1.2.8-2.2.6-4-1a4.2 4.2 0 0 1-.3.5c-.3.5-.8.4-1-.1a6.9 6.9 0 0 0-2.2-2.5c0 .7-.3 1.2-1 1.3-.3-.6-.5-1.3-1.2-1.2a7 7 0 0 0-1.7.7c0-1.6-1.3-2.5-2.6-3.2a13.6 13.6 0 0 0-2-.8 2.1 2.1 0 0 1-1.4-.8 1.9 1.9 0 0 0-1-.7 5.2 5.2 0 0 1-3.2-2.7l-1.4-2a.9.9 0 0 1 0-.6 2.3 2.3 0 0 1 2.8-1.7 3.2 3.2 0 0 1 .8.5 6.2 6.2 0 0 1 1.6.2 3 3 0 0 0 2 .2c.8-.2 1.3.5 1.7 1.2a1 1 0 0 0 .7.5l2.7.7c.2-.5.5-.6 1-.5a6 6 0 0 0 1.1-.3c.4 0 .5-.2.4-.5a5.5 5.5 0 0 0-3.9.2c-.8-.7-.4-1.6-.3-2.4l-4-1.7a1.4 1.4 0 0 0-.2.4c0 .6-.4.9-1 .7s-.9 0-1 .6a3.2 3.2 0 0 1-.2.3l-2.1-1a.6.6 0 0 1-.2-.9l.7-1.9a10.7 10.7 0 0 0-3.8 1.3c-.4-2-1.9-3.3-3.2-4.6L39 49l-.2-.7a23.2 23.2 0 0 0 7.2.3l-1-.9a2.4 2.4 0 0 1-.2-3 7 7 0 0 1 2-1.8 1.4 1.4 0 0 0 .6-.9 2 2 0 0 1 1.7-1.7c2.1-.6 4.3-1.2 6.4-1.6a7.3 7.3 0 0 0 3.7-2.1 1.8 1.8 0 0 0-1.7 0 7 7 0 0 1-3 .7 2.6 2.6 0 0 1-1.8-.7 1.7 1.7 0 0 1-.2-2.5 4.9 4.9 0 0 1 2.1-1.5 23 23 0 0 0 2.9-1.2c.8-.4.7-.5.6-1.3a3.7 3.7 0 0 1 0-1.5 2.4 2.4 0 0 1 1.8-1.8 42 42 0 0 1 4.9-.9 38.2 38.2 0 0 1 4.4-.2 4 4 0 0 0 2.7-1.2l.5-.4.1 1.3c.5 0 1 0 1.5-.2 1.7-.2 3.3-.5 4.9-.9.3 0 .5-.3.7-.4l.3-.1a.4.4 0 0 1 .1.3 8.2 8.2 0 0 1-.1.8l2.8-.4 2.8-.3a.7.7 0 0 1 .5.1 1.2 1.2 0 0 0 1 .2l5.4-.9a2.1 2.1 0 0 1 .5 0c.7 0 1 .7.5 1.3a2.9 2.9 0 0 0-.2.8v.5l-1.4 2.3-.1.4a6.8 6.8 0 0 1-1.5 2.3c-.3.3-.8.4-1 .9-.1.2-.5.3-.7.5l-1.3 1.7a4.7 4.7 0 0 1-.4.6 2.3 2.3 0 0 1-.7.6L79.5 38l-.8.4a15.5 15.5 0 0 0 7.4 1.9l4-.1a2.6 2.6 0 0 1 2.2 1.6l.2.6a5 5 0 0 1 .2 3 .8.8 0 0 0 0 .4 1.5 1.5 0 0 1-.5 1.7 1 1 0 0 0-.3.5 2 2 0 0 1-.9 1.2 1 1 0 0 0-.3.4 5.4 5.4 0 0 1-.2.5c-.6.8-.7.9-1.6.5l-7.4-2.9-3.1-1 .5 1.1c.1.3.4.8.9.9l.2.2-.3.3-2 .6a5.6 5.6 0 0 1-.6.1v.2l2 .1-1.5 1.2h2a3.4 3.4 0 0 1-2.6 1.8l.1.7a2.8 2.8 0 0 1 0 .8 3 3 0 0 1-.3.6 3 3 0 0 1-.5-.4 3 3 0 0 0-1.6-1 6.3 6.3 0 0 0 .8 2.4 2.6 2.6 0 0 1 .1.4 1.6 1.6 0 0 1-.4 0 3.8 3.8 0 0 1-2.2-1 2.8 2.8 0 0 0 .2 2.4 3.2 3.2 0 0 1-2-.7 2.4 2.4 0 0 0-.4 2h-.1L69.6 58a2.2 2.2 0 0 0-1.4 2.4 1 1 0 0 0 .5.5l10 4.6a1.1 1.1 0 0 1-.4 2 2.6 2.6 0 0 0-.6 0v.5a.8.8 0 0 1-1 .7 517 517 0 0 1-9.8-2.5l-.7 1.2c1.2.4 2.5 0 3.5.9-.3.7-1 .9-2 1 .6.4 1 .8 1.6 1s.8.7.5 1.3zm-6-1.6a6.6 6.6 0 0 0 2 2l-.8-1.5a.5.5 0 0 0-.3-.2l-1-.3a1.5 1.5 0 0 0-.3-.4l-2.2-1.4c-.2-.1-.5-.1-.4-.5s.3-.7.8-.5a2.6 2.6 0 0 0 .5 0l1.8.2.5 1.7a.8.8 0 0 0 .4.4 6.5 6.5 0 0 0 .8.3l2 .6-1.5-1.4.3-.6-1.7-.3.5-.7-4.5-.7c-.5 0-.9-.2-.8-.8l-.3-.3.1.5a1 1 0 0 0 0 1.3l-.5.5A9.2 9.2 0 0 1 63 71l-.1-.8zm-7.2-14.4a12.7 12.7 0 0 1 .8-1.2.6.6 0 0 1 1 0l.8 1.1a6.2 6.2 0 0 0 2.5 2.3c2 .8 3.1-.3 3.2-1.7a3.3 3.3 0 0 1 .5-1.2l.2-.3a1.7 1.7 0 0 1 .2-1.3.3.3 0 0 0 0-.3 1.3 1.3 0 0 1 .2-1.4.9.9 0 0 0 .2-1v-1a.8.8 0 0 0-.2-.6c-.7-.6-.8-.8-.5-1.6a4.5 4.5 0 0 1-2.3-1.6c-.1-.1-.3-.4-.5-.4a11.2 11.2 0 0 0-2.4-.4c-1.4 0-2.8.2-4.1.3A9.9 9.9 0 0 0 51 47a4 4 0 0 1-3.4.7l-1.2-.3-.4 1.2.7-.2 1.8 3.3 1.2-2.3 1.7.6c.8.3.9.6.5 1.4 0 0 0 .1 0 0l1 .9c.1.3-.3.9-.4 1.3zm1.5-16.9a7.1 7.1 0 0 1-1.1.5l-3.5 1-4.4 1.1a1 1 0 0 0-1 1 1.6 1.6 0 0 1-.3 1 1.2 1.2 0 0 0-.3 1.4 1 1 0 0 1 0 .2.5.5 0 0 0 .5.5l3 .5a.8.8 0 0 0 .4 0 14 14 0 0 1 7-1.6 4.7 4.7 0 0 0 2.6-.6l-2-.2c-.4 0-.9 0-.8-.5s.5-.4.8-.4a3.6 3.6 0 0 0 2.4-.6h-1.6a11.4 11.4 0 0 1-1.2 0l-.4-.4a1 1 0 0 1 .4-.4h.3l2.1-.6v-.3l-2.4.4c-.3 0-.7 0-.7-.4s.3-.4.6-.5l1.7-.6V39H59c-.5 0-.9 0-.9-.5zm-9.2 14.6a13.8 13.8 0 0 1-2.5-3.7 18.8 18.8 0 0 1-5.8 0 16 16 0 0 1 3.6 4.5l3.8-.9v.3l.7.4-1 2.4 1 .5 2.5-5.8-1-.3-1.3 2.6zm3.9 12.4-1.3-1.3c-.1 0-.2-.3-.1-.4a5 5 0 0 1 .6-.9l1.2-1.3c.1 0 .3-.3.2-.5a4.2 4.2 0 0 0-.4-1.1c-.4-.7-1-.7-1.5-.1l-.6.6c-.5-1.2-1.3-1.6-2.4-1.2l1.7.4.7 1.7a1 1 0 0 1-1.4 0 13.9 13.9 0 0 0-1.3-1c-.7-.4-1.3-.9-1-1.9a4.4 4.4 0 0 0-.7.2c-.4.1-.8.8-.7 1l1.2 1.6c.4-.7.8-.6 1.3-.3l1.3.8.2.2v1.7a6.5 6.5 0 0 1 1.4 1 2.5 2.5 0 0 0 1.6.8zm30.5-20.8 2.3.2 5.7.3a1.3 1.3 0 0 0 .7-.3.5.5 0 0 0 .2-.4.5.5 0 0 0-.4-.3l-7.7-.7c-.6 0-1-.1-1.4.5-.2.4-.2.5.2.6zm-27.1 14a6.5 6.5 0 0 1 1.2-.1c1.2 0 2.3.2 3.4.4a1.5 1.5 0 0 0 1.2-.4c-2-.6-3-2-4-3.7-.6 1.4-1.5 2.4-1.8 3.8zm2.7 8.9L56.7 66c-.3-.2-.5-.4-.4-.7s.4-.3.7-.3l1.3.3-3.7-.8-.1 1.5a.5.5 0 0 0 .1.4 6.1 6.1 0 0 1 2.6 2.5l1.4-.2zm5.6-3 12.2 3.1.2-.2-.5-.5-5.2-1.4-4.8-1.4-1.8-.3zm17.8-18.5a1.5 1.5 0 0 0 1.2 1.4l5.7 2.2a.5.5 0 0 0 .7-.2.4.4 0 0 0-.2-.7 3.2 3.2 0 0 0-.7-.4zM65.4 57.5l-.5.7 2.5 1.1a3.2 3.2 0 0 1 1.2-1.7c.4-.3.3-.7.3-1s-.4-.5-.7-.6l-.4-.2a.8.8 0 0 0-.6.2L66 57.8zm3 4.1c-.4.4-.3.6.1.8l1.8.8 7.5 3.3h.6c.2-.4-.2-.4-.4-.5l-2.7-1.2zm23.5-18.1c.1-.6 0-.7-.6-.7l-5.2-.3-2.8-.1v.1a1.6 1.6 0 0 0 .4.2l6 .6zm-8.1-2 7.7.4a2 2 0 0 0-1.6-.8h-6.1zm-37.3 2.8c-1.3.7-1.8 2.1-1 2.9l1.6-1.2-.6-1.7zm7 19 5.2 1c-1.4-1.2-3.3-1-4.8-1.7zm2.7-7-3.5-1.5c-.5-.3-.6-.1-.7.4l4 1.6zm-1.8 5.5 3.6 1c.3 0 .5 0 .6-.4l-4.1-1zm17.2 3-3.4-1.6a1.2 1.2 0 0 0-1.6.3zM65.8 66v-.1a8.3 8.3 0 0 1-1-.3 1.1 1.1 0 0 0-1.2.1 1 1 0 0 1-.9.1 2.2 2.2 0 0 0-1-.3 1.4 1.4 0 0 0-.5 0v.3c1.6.2 3.1.7 4.6.2zM50.1 56l.1.1c.2 0 .3-.1.4-.3l.5-1 .8-1.9v-.3l-.4.1a6 6 0 0 0-.4.8zm38.1-9.9v.1l3.1.6a.7.7 0 0 0 .6-.1l.1-.6zm3 1.6-3.9-.8a6.6 6.6 0 0 1 3.4 1.7zm-43.4-.9a2.7 2.7 0 0 0 2.3-.3c-.8 0-1.6-.6-2.3.3zm13.1 14.4c-.2-.3-1.2-.2-2 .3a.9.9 0 0 0 1 0 3.6 3.6 0 0 1 1-.3zm5.6 1.2c.7-.3 1.2-1.3.9-1.7l-.9 1.7zm-2 0c.7.2.8 0 .8-1zm-5.4 1 .5.3.4-.7h-.1zm2.7 1.1.2.2.5-.7-.2-.2zm-1.3-.5.2.2.6-.6-.1-.2zm-12-20.7c0 .3.8.4 1.6.3s1.5-.5 1.5-.7-.8-.4-1.6-.3-1.5.4-1.5.6z"/></g></svg>