<svg xmlns="http://www.w3.org/2000/svg" width="512" height="512" fill="none"><circle cx="256" cy="256" r="256" fill="#D80027"/><path fill="#0052B4" d="M0 245.6A256 256 0 0 1 256 0v256H0v-10.4Z"/><path fill="#EEE" d="m200.2 160.7 4.2 12.7h13.4l-10.9 8 4.2 12.7-10.9-7.9-10.8 7.9 4.1-12.8-10.8-7.9H196l4.1-12.7ZM132.9 60.5l6.9 21.3H162l-18 13.1 6.9 21.3-18.1-13.2-18.1 13.2 6.9-21.3-18-13.1H126l6.9-21.3Zm66.8 22.3 6.9 21.2h22.3l-18 13.2 6.8 21.2-18-13.1-18.1 13.1 6.9-21.2-18.1-13.2h22.3l7-21.2Zm-52.8 89 6.9 21.3H176l-18 13.1 6.8 21.3-18-13.2-18.1 13.2 6.9-21.3-18-13.1H140l6.9-21.3Zm-58.6-55.6 7 21.2h22.3l-18 13.2 6.8 21.2-18-13.1-18.1 13.1 6.9-21.2L59 137.4h22.3l7-21.2Z"/></svg>