<svg xmlns="http://www.w3.org/2000/svg" viewBox="0 0 512 512"><circle cx="256" cy="256" r="256" fill="#0052b4"/><g fill="#f0f0f0"><path d="M112.449 155.827l5.526 17.008h17.88l-14.465 10.509 5.525 17.005-14.466-10.509-14.467 10.509 5.527-17.005-14.466-10.509h17.879zM168.101 139.132l5.526 17.007h17.88l-14.465 10.509 5.525 17.005-14.466-10.509-14.466 10.509 5.526-17.005-14.465-10.509h17.88zM223.753 122.436l5.526 17.007h17.88l-14.465 10.51 5.525 17.005-14.466-10.51-14.466 10.51 5.526-17.005-14.465-10.51h17.88zM399.551 155.827l-5.526 17.008h-17.88l14.466 10.509-5.526 17.005 14.466-10.509 14.467 10.509-5.527-17.005 14.466-10.509h-17.88zM343.899 139.132l-5.526 17.007h-17.88l14.466 10.509-5.526 17.005 14.466-10.509 14.466 10.509-5.526-17.005 14.465-10.509h-17.88zM288.247 122.436l-5.526 17.007h-17.88l14.465 10.51-5.525 17.005 14.466-10.51 14.466 10.51-5.526-17.005 14.465-10.51h-17.88z"/></g><path d="M300.522 267.13L256 211.478l-22.261 11.13v22.261l-33.391 22.261h-22.261v28.759c32.628 13.212 55.652 45.181 55.652 82.546H256v-22.261l22.261-22.261 22.261 22.261 22.261-22.261v-22.261l22.261-33.391-44.522-11.131z" fill="#ffda44"/></svg>