<svg xmlns="http://www.w3.org/2000/svg" width="512" height="512" fill="none"><g clip-path="url(#a)"><circle cx="256" cy="256" r="256" fill="#EEE"/><path fill="#ACABB1" fill-rule="evenodd" d="m503.3 322.3-30.9-8.3a224.4 224.4 0 0 0 0-116l31-8.3a256.4 256.4 0 0 1 0 132.6ZM477.7 128 450 144a224 224 0 0 0-82-82l16-27.7a257.2 257.2 0 0 1 93.7 93.7ZM322.3 8.7 314 39.6a224.4 224.4 0 0 0-116 0l-8.3-31a256.4 256.4 0 0 1 132.6 0ZM128 34.3 144 62a224 224 0 0 0-82 82l-27.7-16A257.3 257.3 0 0 1 128 34.3ZM8.7 189.7a256.4 256.4 0 0 0 0 132.6l30.9-8.3a224.4 224.4 0 0 1 0-116l-31-8.3ZM34.3 384 62 368a224 224 0 0 0 82 82l-16 27.7A257.2 257.2 0 0 1 34.3 384Zm155.4 119.3 8.3-30.9a224.4 224.4 0 0 0 116 0l8.3 31a256.4 256.4 0 0 1-132.6 0ZM384 477.7 368 450a224 224 0 0 0 82-82l27.7 16a257.2 257.2 0 0 1-93.7 93.7Z" clip-rule="evenodd"/><path fill="#ACABB1" d="M256.9 115.2c28.1 0 49.9 6.7 65.5 20.3 15.5 13.6 23.2 32.6 23.3 57.3 0 11-2.6 22-7.6 31.8-7 12.4-15.9 23.6-26.4 33.2L295.5 273a54 54 0 0 0-17.3 33.9l-.8 13.1h-51c0-18.5 2.3-34.2 6.8-45.2a90.4 90.4 0 0 1 24.8-32.3 123 123 0 0 0 23.9-26c4-6.6 6-13.7 6-21.1 0-22.4-10.3-33.4-31-33.4-9.8 0-17.7 2.9-23.5 9a35.2 35.2 0 0 0-9.3 24.8l-.1 9h-57.6V192h.2a75 75 0 0 1 24.3-55.4c16.1-14.2 38.1-21.4 66-21.4ZM285 380a32 32 0 1 1-64 0 32 32 0 0 1 64 0Z"/></g><defs><clipPath id="a"><path fill="#fff" d="M0 0h512v512H0z"/></clipPath></defs></svg>