<svg xmlns="http://www.w3.org/2000/svg" width="512" height="512"><circle r="256" cy="256" cx="256" fill="#eee"/><circle cx="253" cy="380" r="32" fill="#acabb1"/><path d="M322.36 135.5c-15.56-13.55-37.36-20.3-65.46-20.3-27.86 0-49.86 7.16-65.95 21.4-15.24 13.5-23.35 32.05-24.35 55.4h-.2v12.8H224l.1-9c.26-10.55 3.36-18.85 9.26-24.84 5.85-6.06 13.74-9.05 23.55-9.05 20.7 0 31 11.15 31 33.5 0 7.4-1.95 14.45-5.95 21.09C278 223.16 270 231.8 258 242.44c-12 10.6-20.25 21.4-24.76 32.35-4.54 10.94-6.8 26.7-6.8 45.2h50.95l.8-13.1c1.45-12.95 7.21-24.2 17.31-33.85l16.16-15.25c12.54-12.15 21.4-23.2 26.4-33.15a69.5 69.5 0 0 0 7.6-31.8c-.07-24.69-7.81-43.78-23.31-57.34z" fill="#acabb1"/></svg>