<svg xmlns="http://www.w3.org/2000/svg" viewBox="0 0 512 512"><circle cx="256" cy="256" r="256" fill="#eee"/><path d="M415.36 55.65H96.64a257.3 257.3 0 0 0-59.07 66.78h436.86a257.35 257.35 0 0 0-59.07-66.78zM96.64 456.35h318.72a257.3 257.3 0 0 0 59.06-66.79H37.57a257.35 257.35 0 0 0 59.07 66.79z" fill="#333"/><path d="M243.5 172l8 11v41.59a34 34 0 0 1-29-33.59l7-11h-25l8 11a44 44 0 0 0 39 43.66v20.09a64 64 0 0 1-59-63.75l7-11h-25l8 11a74 74 0 0 0 69 73.82v19.93a94 94 0 0 1-89-93.75l7-11h-25l8 11a104 104 0 0 0 99 103.82V332l-49 11v7h108v-7l-49-11v-37.25a104 104 0 0 0 99-103.75l7-11h-25l8 11a94 94 0 0 1-89 93.82v-20.07a74 74 0 0 0 69-73.75l7-11h-25l8 11a64 64 0 0 1-59 63.78v-20.1a44 44 0 0 0 39-43.68l7-11h-25l8 11a34 34 0 0 1-29 33.6V183l7-11z" fill="#333" paint-order="markers stroke fill"/></svg>