<svg xmlns="http://www.w3.org/2000/svg" width="512" height="512" fill="none"><g clip-path="url(#a)"><g clip-path="url(#b)"><path fill="#6DA544" d="M437 75 224 224 75 437a256 256 0 0 0 437-178.2v-5.7A255.2 255.2 0 0 0 437 75Z"/><path fill="#338AF3" d="M437 75 75 437A256 256 0 0 1 437 75Z"/><path fill="#EEE" d="M372.2 27.8a257.1 257.1 0 0 1 112 112L139.8 484.2a257.1 257.1 0 0 1-112-112L372.2 27.8Z"/></g><path fill="#FFC635" d="m432 234-6 11h-13l6 11-6 11h13l6 11 6-11h13l-6-11 6-11h-13l-6-11Zm-14-68-6 11h-13l6 11-6 10h13l6 12 6-12h13l-6-10 6-11h-12l-7-11Zm-37-56-7 11h-12l6 11-6 10h12l7 12 6-12h13l-7-10 7-11h-13l-6-11Zm-56-38-7 11h-12l6 11-6 11h12l7 11 6-11h13l-7-11 7-11h-13l-6-11Zm-69-14-6 11h-13l6 11-6 11h13l6 11 6-11h13l-6-11 6-11h-13l-6-11Zm-68 14-7 11h-13l7 11-6 11h12l7 11 6-11h13l-7-11 7-11h-13l-6-11Zm-56 38-7 11h-13l7 11-7 10h13l7 12 6-12h13l-7-10 7-11h-13l-6-11Zm-38 56-7 11H75l6 11-6 10h12l7 12 6-12h13l-7-10 7-11h-13l-6-11Zm-14 68-6 11H61l6 11-6 11h13l6 11 6-11h13l-6-11 6-11H86l-6-11Zm14 69-7 11H75l6 11-6 10h12l7 11 6-11h13l-7-11 7-10h-13l-6-11Zm38 56-7 11h-13l7 11-7 10h13l7 11 6-11h13l-7-11 7-10h-13l-6-11Zm56 37-7 11h-13l7 11-6 11h12l7 11 6-11h13l-7-11 7-11h-13l-6-11Zm68 14-6 11h-13l6 11-6 11h13l6 11 6-11h13l-6-11 6-11h-13l-6-11Zm69-14-7 11h-12l6 11-6 11h12l7 11 6-11h13l-7-11 7-11h-13l-6-11Zm56-37-7 11h-12l6 11-6 10h12l7 11 6-11h13l-7-11 7-10h-13l-6-11Zm37-56-6 11h-13l6 11-6 10h13l6 11 6-11h13l-6-11 6-10h-13l-6-11ZM256 165c-3 0-6 3-6 6v20c-9 1-17.2 4.5-23 9.6a24 24 0 0 0-9 18.4c.1 1.7.5 3.4 1 5l3 23a80 80 0 0 0 4.5 27.1A50 50 0 0 0 239 294v22h34v-22a49.8 49.8 0 0 0 12.5-19.9A80 80 0 0 0 290 247l3-23c.5-1.6.9-3.3 1-5a24 24 0 0 0-9-18.4c-5.8-5.1-14-8.5-23-9.6v-20c0-3-3-6-6-6Z"/><path fill="#D80027" d="M199 199a80 80 0 1 0 114 0l-17 17a56 56 0 0 1 16 40 56 56 0 0 1-112 0 56 56 0 0 1 16-40l-17-17Z"/></g><defs><clipPath id="a"><path fill="#fff" d="M0 0h512v512H0z"/></clipPath><clipPath id="b"><path fill="#fff" d="M0 0h512v512H0z"/></clipPath></defs></svg>