<svg xmlns="http://www.w3.org/2000/svg" viewBox="0 0 100 100"><mask id="a"><circle cx="50" cy="50" r="50" fill="#fff"/></mask><g mask="url(#a)"><path fill="#fff" d="M0 0h512v512H0z"/><path id="path3669" fill="#fff" d="M49.8 65.6c-.3-.8-.7-1-1.9-1.4-1.5-.5-3.6-.6-7.2-.5a16.4 16.4 0 0 1-3.9-.2 6 6 0 0 1-2.9-1.3l-.6-.6v-38h33.4l.1 18.9v19l-.3.5a3.5 3.5 0 0 1-2.4 1.5l-5.5.2-5.7.3a3.1 3.1 0 0 0-2.7 1.7l-.2.5-.2-.6z" file-rule="evenodd"/><path d="m50 66.7-.4-1c-.3-.7-.5-1-1.8-1.4a25 25 0 0 0-7.1-.5 17.2 17.2 0 0 1-4 0 6.2 6.2 0 0 1-3-1.5l-.6-.6V23.4h33.8l.2 38-.4.7a3.7 3.7 0 0 1-2.6 1.6l-5.5.2-5.7.3a3 3 0 0 0-2.5 1.6zm0-1.2v.2a3.3 3.3 0 0 1 2.9-1.9l5.7-.3 5.5-.2a3.3 3.3 0 0 0 2.3-1.4l.3-.5-.1-37.6h-33v37.7l.4.5a5.8 5.8 0 0 0 2.8 1.3 16 16 0 0 0 3.8.1c3.7 0 5.8 0 7.3.6 1.3.4 1.7.7 2 1.5z"/><path id="path4207" fill="#00247d" d="M36.4 25.2a3 3 0 0 0-1.7 2.5 3.1 3.1 0 0 0 .8 2.7 2.8 2.8 0 0 1 .6.7 2.7 2.7 0 0 1-.5.6 3.3 3.3 0 0 0-1.1 2.4 3.2 3.2 0 0 0 1 2.4l.6.7-.7.7a3.1 3.1 0 0 0 .1 4.7l.6.6H64l.7-.7c1.3-1.4 1.3-3 0-4.5l-.7-1 .6-.7a3.2 3.2 0 0 0 0-4.7c-.7-.7-.7-.8-.2-1.1a3.6 3.6 0 0 0 1-3.5c-.6-1.7-3-2.8-4.4-2a9.8 9.8 0 0 0-1.2.7 4 4 0 0 1-.8.6 4 4 0 0 1-.8-.6 3.1 3.1 0 0 0-4.5.3l-.6.5-.7-.7a3.2 3.2 0 0 0-4.8.2l-.5.5-.6-.5a3.2 3.2 0 0 0-2.5-1 3.4 3.4 0 0 0-2.6 1.1l-.3.4-.8-.6c-1.4-1.2-2.5-1.4-4-.7z"/><path d="M64 43.4H36l-.6-.7a3.3 3.3 0 0 1 0-5l.5-.5-.5-.6a3.4 3.4 0 0 1-1.1-2.5 3.5 3.5 0 0 1 1.2-2.5 5 5 0 0 0 .4-.5 5.8 5.8 0 0 0-.5-.6 3.3 3.3 0 0 1-1-2.8 3.1 3.1 0 0 1 1.9-2.7c1.4-.8 2.6-.6 4.1.7l.7.6.2-.3a3.6 3.6 0 0 1 2.7-1.2 3.4 3.4 0 0 1 2.6 1.1l.4.4.5-.4a3.4 3.4 0 0 1 5-.1l.6.5.4-.4a3.3 3.3 0 0 1 4.8-.2l.6.5a5.3 5.3 0 0 0 .8-.5 9.2 9.2 0 0 1 1.2-.8 2.9 2.9 0 0 1 2.4 0 3.7 3.7 0 0 1 2.2 2.1 3.9 3.9 0 0 1-1 3.7l-.3.3.5.6a3.4 3.4 0 0 1 0 5l-.5.5.6.7c1.4 1.7 1.4 3.3 0 4.8zM36.2 43H64l.6-.7c1.2-1.3 1.2-2.7 0-4.3l-.8-.9.7-.8a3 3 0 0 0 0-4.5c-.4-.4-.6-.7-.6-.9s.3-.4.5-.5a3.5 3.5 0 0 0 .8-3.3 3.4 3.4 0 0 0-1.9-2 2.6 2.6 0 0 0-2.1 0 10.5 10.5 0 0 0-1.2.9 3 3 0 0 1-1 .6 2.7 2.7 0 0 1-.8-.7 3 3 0 0 0-4.3.3l-.7.7-.9-.8a3 3 0 0 0-4.5.1l-.7.6-.7-.6a3 3 0 0 0-2.3-1 3.1 3.1 0 0 0-2.4 1l-.5.6-.9-.8c-1.4-1.2-2.4-1.4-3.7-.7a2.8 2.8 0 0 0-1.7 2.4 3 3 0 0 0 .9 2.6c.6.6.6.7.6.8l-.6.7a3.1 3.1 0 0 0-1 2.3 3 3 0 0 0 1 2.2l.7.8-.8 1a3 3 0 0 0 .1 4.3z"/><path id="path4211" fill="red" d="M35.7 44a3.3 3.3 0 0 0 0 5l.5.5-.6.7a5.8 5.8 0 0 0-.8 1.2 3.3 3.3 0 0 0 .8 3.5c.5.6.6.8 0 1.4a5.2 5.2 0 0 0-.6 1 3.3 3.3 0 0 0 3 4.6 3 3 0 0 0 2.3-1c.6-.5.9-.5 1.3 0A3.5 3.5 0 0 0 44 62a3.1 3.1 0 0 0 2.4-1.1l.7-.7.6.7c1.4 1.4 2.8 1.5 4.6 0l.8-.5.6.6a2.9 2.9 0 0 0 4.5-.2l.8-.8.6.6c1.1 1 1.7 1.3 2.6 1.3a3.2 3.2 0 0 0 2.3-1 2.7 2.7 0 0 0 1.1-2.2 5.8 5.8 0 0 0-1.3-2.6l-.3-.5.7-.8c1.4-1.7 1.4-3 0-4.7l-.6-.7.6-.7c1.4-1.7 1.4-3.2 0-4.7l-.8-.7H36.3l-.6.7z"/><path d="M50 62.3a3.2 3.2 0 0 1-2.3-1.2l-.5-.6-.6.6a3.3 3.3 0 0 1-2.5 1.2 3.6 3.6 0 0 1-2.5-1.3l-.5-.3-.6.4a3.2 3.2 0 0 1-2.5 1 3.5 3.5 0 0 1-3-1.7 3.3 3.3 0 0 1-.1-3.3 5.8 5.8 0 0 1 .6-.9c.5-.5.5-.7 0-1.1a3.5 3.5 0 0 1-.8-3.8 6 6 0 0 1 .8-1.2l.5-.5-.4-.5a3.4 3.4 0 0 1 0-5.1l.7-.8H64l.8.8c1.5 1.6 1.5 3.2 0 5l-.5.6.5.6c1.5 1.7 1.5 3.1 0 4.9l-.5.6.3.3a6.1 6.1 0 0 1 1.3 2.7 3 3 0 0 1-1.2 2.4 3.3 3.3 0 0 1-2.4 1.1c-.9 0-1.5-.3-2.7-1.4l-.5-.4-.6.6a3 3 0 0 1-4.8.3l-.5-.5-.7.4a4.3 4.3 0 0 1-2.5 1zm3.2-2 .7.7a2.7 2.7 0 0 0 4.3-.3l1-.8.6.6c1.1 1 1.7 1.3 2.5 1.3a3 3 0 0 0 2.2-1 2.6 2.6 0 0 0 1-2 5.8 5.8 0 0 0-1.2-2.6l-.5-.5.7-.9c1.4-1.6 1.4-2.8 0-4.4l-.7-.9.8-.8c1.3-1.6 1.3-3 0-4.4l-.7-.8H36.4l-.5.7a3 3 0 0 0 0 4.6l.6.7-.7.8a5.1 5.1 0 0 0-.8 1.2 3.1 3.1 0 0 0 .8 3.3c.6.6.6 1 0 1.7a5.2 5.2 0 0 0-.6.8 3 3 0 0 0 .2 3 3.1 3.1 0 0 0 2.6 1.5 2.9 2.9 0 0 0 2.3-1c.3-.4.5-.5.8-.5a1 1 0 0 1 .7.4 3.3 3.3 0 0 0 2.2 1.2 3 3 0 0 0 2.3-1.1l.8-.8.8.8c1.3 1.4 2.6 1.4 4.3 0z"/><path id="path4205" fill="#fff" d="M45.1 31.5c-1 2.2-1 3.2-.2 4.9a5.7 5.7 0 0 0 2.6 2.7 6 6 0 0 0 7.9-2.3c.9-1.6.8-4.3-.2-5.5l-.3-.4-.2 1a5.3 5.3 0 0 1-1.4 2.7 4.3 4.3 0 0 1-5 .8c-1.5-.6-2-1.5-2.6-4l-.2-.6-.3.7z"/><path id="path18" d="M44.8 31.7c-.9 2-.8 3 .3 5 2.7 5.5 11 3.5 11-2.7a5.4 5.4 0 0 0-.6-2.8l-.5-.9-.4 1.8c-.8 3-3.5 4.4-6.2 3.3-1.5-.6-2.3-1.7-2.7-3.8l-.2-1.4-.7 1.5zm2.7 3.9a5.2 5.2 0 0 0 6.3-.8 6.3 6.3 0 0 0 1-2.3 7.8 7.8 0 0 0 .4-1.1 4.6 4.6 0 0 1 .4 1.6 5.7 5.7 0 0 1-.3 2.9 5.3 5.3 0 0 1-8.7 2.1c-1.3-1.2-2.4-3.7-1.8-5.2l.5-1.5a8 8 0 0 0 .4 1.8 4.4 4.4 0 0 0 1.8 2.5z"/><path id="path2162" fill="#fff" d="M12 59.8c0 .2-.2.3-.2.3v-.4c0-.2.2-.3.3-.3v.4"/><path id="path2164" fill="#fff" d="M11 63.7c0 .3 0 .4-.2.4s-.1-.1-.1-.4l.1-.5.2.5"/><path id="path2166" fill="#fff" d="m11.3 65.4-.1.4c-.1 0-.2-.1-.2-.3V65l.3.4"/><path id="path2168" fill="#fff" d="M13.6 68.9c.2.1.3.3.3.4l-.5-.2-.3-.3h.5"/><path id="path2170" fill="#fff" d="M12.3 67.5c.2.2.2.4.1.4l-.3-.2c-.1-.2-.2-.4 0-.5s.1.1.2.3"/><path id="path2172" fill="#fff" d="m11.2 61.9-.2.4v-.5l.2-.4v.5"/><path id="path2900" fill="#fff" d="M8 62.3h-.1.2"/><g id="g1434"><g id="g2163"><g id="g1386"><path id="path1388" fill="#dfdfdf" d="M22 22.3a6 6 0 0 0-2.5 1 1.9 1.9 0 0 1-.6.3l-.1-.4a1.1 1.1 0 0 0-.2-.4c0-.2-.2 0-.4.5a5.5 5.5 0 0 1-.3.7c-.1.1-.3 0-.5-.2s-.4-.3-.5-.1a1.4 1.4 0 0 0 0 .4c.1.6 0 .7-.6.3s-.6-.4-.8-.3-.2.2 0 .8.3.8 0 .5a1.8 1.8 0 0 0-.5-.3l-.9-.5a5 5 0 0 0-.6-.3 10.2 10.2 0 0 0-2-.3l.5.4a9.7 9.7 0 0 1 2 1.6h-.5c-.6 0-.6 0-.5.6v.4h-.5l-.5-.1v1c0 .4.2.4 0 .5s-.2 0-1.2-.4a2 2 0 0 0-1-.3 1.4 1.4 0 0 0-.6 0L9 28l.4.5a5.5 5.5 0 0 1 1.1 1.5c.1.5-.3.6-2 .4a3.4 3.4 0 0 0-1.7 0 4.6 4.6 0 0 0-1 1 2.7 2.7 0 0 0 .8 0A5 5 0 0 1 9 32c.5.3.5.3-.1.3a1.5 1.5 0 0 0-1 .3v.3a1.7 1.7 0 0 0 1 .4 2 2 0 0 1 .4.1 2.4 2.4 0 0 1-.4.1 8.9 8.9 0 0 0-2.2.6c-.4.2-.4.2-.5.8v.3h.2a14.4 14.4 0 0 1 2.3-.1c.4 0 .3.2-.4.3a5.4 5.4 0 0 0-1.4.3h-.2l.3.2a4.8 4.8 0 0 0 1 .3c1.5.3 1.7.5.5.4-1 0-1.5 0-1.5.2s.7.5 1.4.6c.4.1.2.2-.4.3a1.6 1.6 0 0 0-1.3.4 1.4 1.4 0 0 0 .1 1.1.2.2 0 0 0 .2 0 3.2 3.2 0 0 1 .6-.3c.5-.3.5-.3 1.2-.2.3 0 .6.3.8.8a5.3 5.3 0 0 0 .5.8l.4.5c.2.1.2.2 0 .4s-.1.4-.1.4c-.1.4-2.1.3-3.7-.2a8.7 8.7 0 0 1-2-1l-.2-.3v.3a3.6 3.6 0 0 0 1 2.1l.3.3-.4.6c-.3.7-.4 1 0 1.3v.3a1.3 1.3 0 0 1-.3.3c-.6.4-.5.3-.3.4a2.3 2.3 0 0 0 .7.2 1.2 1.2 0 0 1 .5.1c.2.2-.1.6-.7 1l.4.2H7l-.1.3a2.3 2.3 0 0 1-.8.8H6a1.8 1.8 0 0 0 .5 0 2.8 2.8 0 0 1 1.2 0c.2.2 0 .5-.5 1l-.4.5H7a3 3 0 0 0 1.6-.2 1.2 1.2 0 0 1 .3-.1 2.6 2.6 0 0 1-.5 1.3v.1a3.3 3.3 0 0 0 .7 0 2 2 0 0 0 1 0l.3-.2a1.2 1.2 0 0 1 0 .3.8.8 0 0 1-.2.5l-.2.2h.2a4.3 4.3 0 0 0 1.8-.5c.2-.2.2-.2.2 0a1.5 1.5 0 0 1-.3.9h.6a4.2 4.2 0 0 0 1.3-.6c.2-.1.3-.1.2.2a.8.8 0 0 1-.4.6l-.2.1a7.8 7.8 0 0 0 1.7-.2 1.2 1.2 0 0 0 .5-.2c0-.1 0-.1 0 0a1.3 1.3 0 0 1 0 .5 2.4 2.4 0 0 0-.2.3l.7-.2a2 2 0 0 1 .6-.2 1 1 0 0 1 .7.5 1.4 1.4 0 0 0 .6.5l.4.2v-.3l1.2-3.1a23.4 23.4 0 0 1 2.6 1.8 22.3 22.3 0 0 1 3 3 8 8 0 0 1 1.9 5.3 11.7 11.7 0 0 1-3.9 8.8c-1 .8-2.2 1-4.5 1-2.8 0-4.5-.6-5.8-1.9a6.6 6.6 0 0 1-1.8-3.5 9.9 9.9 0 0 1 0-1.3 4.8 4.8 0 0 1 1-3.5 3.8 3.8 0 0 1 2.4-1.2 3.1 3.1 0 0 1 2.5.7c.4.4.4.6 0 1.2s-.3.8 0 1 .5.1.9 0a1.8 1.8 0 0 0 .8-2 2 2 0 0 0-1.3-1.8 4.7 4.7 0 0 0-2.7-.5 4.5 4.5 0 0 0-1.7.2 4 4 0 0 0-2.3 1.5 9.3 9.3 0 0 0-1.3 6 9.6 9.6 0 0 0 2.2 4.1c1.8 2.1 4.2 3.1 7.7 3.1a10.5 10.5 0 0 0 6.2-1.7 11.3 11.3 0 0 0 4.4-5.7 6 6 0 0 0 .5-1.9 1.5 1.5 0 0 1 0-.6 2.3 2.3 0 0 0 .3-1.7l-.1-.3.2-.2a1 1 0 0 0-.1-1.4l-.2-.2.2-.3a2 2 0 0 0 .4-1.5c0-.5-.3-1.2-.4-1.2l.1-.3a1 1 0 0 0 .5-.8 3.7 3.7 0 0 0-.6-2v-.3s.4-.6.4-1.2a2 2 0 0 0-.4-1.5l-.2-.1.2-.5a1 1 0 0 0 .2-.7 4.3 4.3 0 0 0-1.4-2.3l-.3-.4a3 3 0 0 0-1-1.7 3.2 3.2 0 0 1-.9-1.4 1.5 1.5 0 0 0-.4-.8 3.8 3.8 0 0 0-1.4-.8.2.2 0 0 1-.1-.2 2 2 0 0 0-1-1.3c-.3 0-.3-.1-.3-.3s-.2-.5-.7-.9a5.4 5.4 0 0 0-2.5-.6c-2.5-.2-3.6-.7-4.8-1.8a4 4 0 0 1-1.3-2.2 3.5 3.5 0 0 1 0-2 4.3 4.3 0 0 1 .7-1.3 1.1 1.1 0 0 1-.1.5 4.6 4.6 0 0 0 0 2.1 2.4 2.4 0 0 0 1.2 1.5 2.8 2.8 0 0 0 1.3.3 2.5 2.5 0 0 1 1.4.5 2 2 0 0 0 1.9 0 3.6 3.6 0 0 1 .8-.1h.5l.6.4c.6.4 3.3 2 3.7 2.1A1.8 1.8 0 0 0 29 37c.3-.5 0-1-1.4-2.2-1.1-1-1.4-1.4-1.5-2a8 8 0 0 0-.5-1.3c-.5-1-.5-1.2 0-1.6a2.7 2.7 0 0 0 .4-.6 1.6 1.6 0 0 0 .1-.8 2.3 2.3 0 0 0-.7 0V28a2.7 2.7 0 0 0-.1-.8l-.1-.2-.2.3c-.2.2-.4.3-.5.2a2 2 0 0 1 0-.4c-.1-.5-.4-1-.5-1a1.3 1.3 0 0 0-.1.2l-.1.3-.1-.4c-.1-.5-.2-.8-.4-1s-.1-.1-.2 0a.6.6 0 0 0 0 .2 4.1 4.1 0 0 1-.5 1.4c-.4 1-.9.8-1.8-.4-.5-.7-.6-.9-.4-1.2a5.9 5.9 0 0 1 3.1-2.1 1.8 1.8 0 0 0 .5-.2l-.7-.5a2.1 2.1 0 0 0-1.2 0z"/></g><path id="path24" d="M8.7 35.2c.4-.3-1.5-.2-2-.2s-.5.2-.6.2v-1a2.7 2.7 0 0 1 1-.4l1-.3a6.6 6.6 0 0 0 1-.2 2.2 2.2 0 0 1-1.5-.6c.2-.2.3-.4.6-.4a2.1 2.1 0 0 1 .6 0c.5 0 .6 0 .3-.2a4 4 0 0 0-1.6-.6 14.6 14.6 0 0 0-1.8-.1 3.6 3.6 0 0 1 .7-.9c.4-.4 1.2-.4 2.5-.2 2 .2 2 0 .8-1.6l-.8-.8.5-.2h.6a11.6 11.6 0 0 1 1.5.6c.7.3.6 0 .4-.5s0-.4 0-.9c.2 0 1 .3 1 .1v-.9h1l-.6-.6-.9-.8-1.2-.8 1.8.2a5.6 5.6 0 0 1 2 .9 2.4 2.4 0 0 1 .5.3c.3.1 0 .4.2.1s-.5-.8-.4-1.1c.4-.8 1.3.6 1.5.4.4 0-.2-1 .1-1.1s.7.6.9.4.3-1.2.7-1.3.2 1 .4 1a7 7 0 0 1 2.6-1.3 4.8 4.8 0 0 1 1.5-.1 1.3 1.3 0 0 1 1 .8 8 8 0 0 0-1.3.5 6.5 6.5 0 0 0-2 1.2c-.6.7-.6.8.2 1.8 1 1.3 1.4 1.2 2-.3l.2-1.2a1 1 0 0 1 .4.4 4 4 0 0 1 .2 1.1l.3-.7a6.2 6.2 0 0 1 .4.8c0 .3 0 .8.3.8s.3-.2.6-.5a2.3 2.3 0 0 1 0 1.5 5 5 0 0 1 .9-.2 1.7 1.7 0 0 1 0 .8 1.7 1.7 0 0 1-.5.8c-.5.4-.5.6 0 1.5a4.5 4.5 0 0 1 .5 1.6 5.5 5.5 0 0 0 1.6 1.8c1.1 1 1.5 1.5 1.3 2a1.9 1.9 0 0 1-2.7.6L23.8 36c-.6-.3-1-.7-1.4-1a3.1 3.1 0 0 0-1.6.4c-.8 0-1.4 0-1.6-.2a2 2 0 0 0-1.4-.5 2.6 2.6 0 0 1-2.7-2.6 5.2 5.2 0 0 1 .3-1.8 3.4 3.4 0 0 0-.6 3.2c.4 1.7 2.2 4 6 4a11.6 11.6 0 0 1 2 .3c.5.3 1.5.8 1.3 1.4a1.8 1.8 0 0 1 1.2 1.6c1.8.5 2 1.6 2 1.8a3.5 3.5 0 0 0 1 1.3 2.6 2.6 0 0 1 .9 1.8 3.6 3.6 0 0 1 1.2 1.3c.3.6.8 1.4 0 2.4.9.3.8 2.6.2 3 .4.3.6 1.1.7 2.2a1 1 0 0 1-.7 1 1 1 0 0 1 .3.6 3.3 3.3 0 0 1 .1 1 2.8 2.8 0 0 1 0 .8.7.7 0 0 1-.5.5c.8.5.7 1.7.1 1.9.4.6.2 1.9-.2 2.1a6 6 0 0 1-.7 3 11.4 11.4 0 0 1-2.2 3.5 10.6 10.6 0 0 1-3.3 2.4 13.1 13.1 0 0 1-10.2-.1 9.3 9.3 0 0 1-4.7-6.5c-.4-2.3.8-5.7 2.2-6.8 2.3-1.6 6.7-1 7.3 1a2.1 2.1 0 0 1-.8 2.5c-1 .4-1.4-.1-.8-1 .4-.7.3-.9-.3-1.4-2-1.4-4.8-.2-5.5 2.3a6.6 6.6 0 0 0 3.2 7.7c2.2 1.2 6.7 1.2 8.3.2 3.1-2 5-7.2 4.1-11.2a13 13 0 0 0-5.5-6.7L19.9 50l-.6 1.6c-.4 1-.7 1.4-.6 2-.5-.4-.7-.3-1-.7-.2-.3-.5-.7-1-.6a5.2 5.2 0 0 1-1.2.5c.2-.5.4-.5.3-1-.3.4-1.2.4-2.4.5 1-.5.8-.6.8-1a4.4 4.4 0 0 1-2.2.8 1.4 1.4 0 0 0 .4-1.2 3.9 3.9 0 0 1-2.3.8c.4-.5.5-.5.4-1.1a2.8 2.8 0 0 1-2 .2 2.4 2.4 0 0 0 .6-1.5 2.8 2.8 0 0 1-2.3.3 4.8 4.8 0 0 0 1-1c.2-.4 0-.5-.6-.5-.4 0-.7.3-1.4 0 1-.4 1.2-1.6 1.4-1.6.9 0-1.1 1.5.7 1.2a3.8 3.8 0 0 1 1 0 6.3 6.3 0 0 1-.5.6c-.2.3-.3.8-.8 1a1.7 1.7 0 0 0 1.1-.1 10.2 10.2 0 0 1 1-.8 1.9 1.9 0 0 1 0 .9 4.1 4.1 0 0 1-.4 1c.7.2 1.1 0 1.2-.3s.4-.6.8-.7c.1.4 0 .4 0 .8s-.3.7-.4 1a2.8 2.8 0 0 0 1.6-1c.7-.6.7-.6.5.3a4.1 4.1 0 0 1-.3 1.1 2.3 2.3 0 0 0 1.7-1c.4-.6.4-.5.2.2a4.3 4.3 0 0 1 0 1.2 2 2 0 0 0 1.3-.9c.4-.6.5-.5.3.2-.1.5 0 .6-.2 1 .7-.2.7-.1 1-.5s.4.1.7.7c.3.5.5.5.7.5a6 6 0 0 1 .5-1.3 7 7 0 0 0 .5-1.7l-2.2-1.1c-1.2-.5-2.1-1.3-2.1-1.5s-.2-.4-.5-.4a4 4 0 0 1-2.3-2.2 3.4 3.4 0 0 0-.8-1.4c-.6-.8-1.3-1.1-3-1.3a10.5 10.5 0 0 1-3-1l-.7-.3a2 2 0 0 0 .6 1.3 2.5 2.5 0 0 0 .8.4 5.2 5.2 0 0 0-.6 1c-.4.6-.4.8.2 1s.5.3 0 .6a6.4 6.4 0 0 1-.6.3 2 2 0 0 0 1.1 0c.7-.4.8-.3.5.2a4.6 4.6 0 0 1-.8 1 2 2 0 0 0 1-.1c.4-.2.7-.3.4.3-.2.5 0-.2-.3.4a6.6 6.6 0 0 1-2-.2c.6-.3.8-.6 1-.8 0-.3-.3-.3-.6-.3a1.2 1.2 0 0 1-1-.4 3 3 0 0 0 1-.6c-.9-.4-.4-1.2-.2-1.5a7.8 7.8 0 0 1 .4-.7c-.3 0-.6-.5-.8-.8a3.3 3.3 0 0 1-.5-1.9 5.5 5.5 0 0 0 1 .7 9.4 9.4 0 0 0 3 1c1 .1 2 0 2-.3s.4-.4 0-.7a4.3 4.3 0 0 1-1-1.7 1.6 1.6 0 0 0-1.4-.5c-.3.2-.9.4-1.1.7-.3 0-.4-.9-.3-1.2a1.8 1.8 0 0 1 1.1-.5h.9a4.7 4.7 0 0 1-1-.3c-.3-.2-.7-.3-.7-.5s2-.1 2.4-.1-.5-.3-1-.3a4.1 4.1 0 0 1-1.7-.6c.5-.4.8-.2 1.2-.4m1.7 0c-.2.4-2.1.3-1.6.5a6 6 0 0 1 2 .6c.1.4-.4.6-.4.6l-1.9-.2c0 .2 1.9.3 1.8.7 0 .2 0 .4-.5.3A4.6 4.6 0 0 0 7 38a.6.6 0 0 0-.3.8 3.5 3.5 0 0 1 1-.5 2.2 2.2 0 0 1 1.2.2 1.6 1.6 0 0 1 .9.8 2.8 2.8 0 0 0 1.4 1.4 4.7 4.7 0 0 1 2.1 1.4 5.9 5.9 0 0 0 2.1 1.9c1.2 1 .2.7.7.8a4 4 0 0 1 2.4.8 3.1 3.1 0 0 0 1.4.8c.6.2 1 .5 1 .7s.3.4.6.4c1 0 4.8 4 5.5 5.7a14 14 0 0 1 1.6 7.1A14.9 14.9 0 0 1 28 65c-.8 1.8-4.2 5.6-5.1 5.6a1.8 1.8 0 0 1-.3 0c-.1.2-.1.2-.5.3a4 4 0 0 1-1.7.4A16 16 0 0 1 18 71a16.4 16.4 0 0 1-2.6-.6 2.6 2.6 0 0 1-1.2-.5.5.5 0 0 1-.2-.5c-.1.2-.4.1-.8-.2s-.7-.5-.5-.8c-.4 0-.5-.2-.9-.7-.2-.3-.4-.6-.3-1-.3 0-.5-.3-.6-.7s-.4-.8-.1-1c-.4 0-.3-.5-.4-.8s-.1-.8.3-1c-.4 0-.3-.4-.2-.8s.1-.8.5-.9c-.3 0-.2-.6 0-1.2a.8.8 0 0 1 1-.6c-.4-.3.3-.8.4-1 .4-.3 1-.4 1-.2 0-.4 1.5-.5 2-.4a3.2 3.2 0 0 1 1.6.8c.9.6 1 .8.5 1.5-.5 1-.1 1.2.6.4s.6-1.8-.6-2.7a3.4 3.4 0 0 0-3-.7c-2.7.3-3.7 1.1-4.5 3.6a8.2 8.2 0 0 0 4 9.9 9.9 9.9 0 0 0 5.1 1c3.8 0 6.2-1 8.4-3.5 1.3-1.4 2.8-5.3 2.3-6-.7-.3 0-.3.3-.3s.4-1.6-.2-2c1.2 0 .6-1.4-.1-1.7.6 0 1-.6 1-1.3a1.5 1.5 0 0 0-.8-1.6c-.4-.1 0-.2.4-.3s.6-.2.5-1c0-.5-.2-1.5-.6-1.6a5.6 5.6 0 0 0-1.4-.3 6 6 0 0 1 1.2-.2c.7-.3 1-1.8.3-2.2s-2.3.4-2.4 0c.3-.2 1.3-.3 1.8-.7.5-.5 1-1 .1-2.2-.4-.7-.4-.8-.9-1-.6 0-2 .9-3.2.8.5-.4 2.2-.7 2.8-1.1s.1-1-.4-1.7-1-.7-1.9-.3a13.4 13.4 0 0 1-2.5.7c.4-.4 2.2-.9 2.6-1.2.7-.6.7-.8 0-1.6l-1.1-.4-1.2.6a7.8 7.8 0 0 1-2.2.8l1.8-1c.6-.3 1.1-1 1.1-1.2 0-1-.9-1.1-2.3-.1-.7.4-2.5 1-2.6.7s1.2-.5 1.9-.8 1.8-1 1.8-1.3c-.1-.5-.9-1-4-1.3-2.3-.3-3.5-1-4.6-2.7a4 4 0 0 1 .7-5.5l1.4-1.4-.8 1.3c-1.6 2.2-.8 4.9 1.4 4.9a3.4 3.4 0 0 1 1.7.5 1.8 1.8 0 0 0 1.5 0l.7-.1.3-.1-1.1-.8c-1.2-.5-1.8-1.7-1-2.4.2-.2.2 0 .1.7s0 1 .6 1.3a11.6 11.6 0 0 1 1.7 1 29.7 29.7 0 0 0 4.2 2.6c.2 0 0-.4-.5-.9s-.2-.4.5.3c1.1 1 1.4 1 2 .6.8-.7.7-1-.8-2a4.2 4.2 0 0 1-1.9-2.3 9.8 9.8 0 0 0-.8-1.9c-.2-.3 0-.6.3-1a2 2 0 0 0 .6-1 1.5 1.5 0 0 0-.4 0c-.2.2-.4 0-.4-.3v-1a2.6 2.6 0 0 1-.4.6.3.3 0 0 1-.5-.3 7.7 7.7 0 0 0-.1-1 4.8 4.8 0 0 1-.7 1 5.5 5.5 0 0 0 0-2 6.7 6.7 0 0 1-.4 1.2c-.4.6-.5.7-1 .9s-.5-.2-1.1-.8a3.6 3.6 0 0 1-1-1.6 4.8 4.8 0 0 1 2.6-2.3 8.7 8.7 0 0 1 1-.3 2.2 2.2 0 0 0-.6-.3 3.7 3.7 0 0 0-1.8.3 7.1 7.1 0 0 0-2.3 1.2c-.3 0 0-1-.3-.8s-.2 1.2-.5 1.3c-.4.3-.5-.5-.7-.5s.2 1-.2 1.1-1.1-.9-1.2-.7.7 1 .5 1.1-.3.5-.8.2-2.3-1.4-2.8-1.3a10.3 10.3 0 0 1 1.3 1.1c.8.8 1 1 .4 1s-.7-.3-1 0 .1.8 0 1-1-.2-1-.1c-.3.3.2.7 0 1.2-.2.6-.3.6-1.1 0-.7-.4-1.5-.7-1.5-.5s.2.3.5.8c1.2 1.6.8 2-1.4 1.7 0 0-1.9-.5-2.4.3a5.8 5.8 0 0 1 2.2.3 5.7 5.7 0 0 1 1 .6v.6a3.5 3.5 0 0 1-1.4.2c1.4.6 1.3.1 1.9.4-.4.7-.7.6-2 .8a5.3 5.3 0 0 1-1 .3c-.4.1-.6.4-.5.4a7 7 0 0 0 .8 0 8.3 8.3 0 0 1 1.3 0c.5.2.7.5.6.7z"/><path id="path3359" fill="#fff" d="M7.7 62h-.1.1"/><path id="path2921" d="M23 31.4c0 .2-.2.4-.4.4s-.3-.2-.3-.4.1-.5.3-.5.3.2.3.4"/><path d="M22.6 32.4a1.4 1.4 0 0 1-.4 0 1.1 1.1 0 0 1-.6-.6 1 1 0 0 1 0-.9 1.1 1.1 0 0 1 1.4-.6 1 1 0 0 1 .6.6 1 1 0 0 1 0 .8h-.3a.7.7 0 0 0 0-.7.8.8 0 0 0-.4-.4.8.8 0 0 0-1 .5.8.8 0 0 0 0 .5.8.8 0 0 0 1.5 0l.3.2a1.1 1.1 0 0 1-1 .6z"/><path d="M23 30.6s-1.8-1-3-.4V30c1.3-.7 3 .3 3 .4z"/><path id="path1303" fill="#dfdfdf" d="M10.6 41.5c0-.2 0-.3.4-.5a3.5 3.5 0 0 1 1.6.7 7.3 7.3 0 0 1 1.4 1.6 2.4 2.4 0 0 1-.7.8 9.2 9.2 0 0 1-.8.5 4.6 4.6 0 0 0-1-1.6c-.2-.4-1-.7-1.3-1l.4-.5z" file-rule="evenodd"/><path id="path2821" fill="#dfdfdf" d="M13.6 44.3c.4-.2.5-.5.7-.7l.8.4c.5.2.4.3.8 1a6.3 6.3 0 0 1-.5.9c-.4.2-.4.4-.6.8a2.4 2.4 0 0 1-1.3-.8c-.3-.4-.7-.4-.8-1a8 8 0 0 0 .9-.6z" file-rule="evenodd"/><path id="path2823" fill="#dfdfdf" d="m15.7 46 .5-1a6.1 6.1 0 0 1 1.2.4 1.6 1.6 0 0 1 1.1.7 6.5 6.5 0 0 0-.4 1.5 4.9 4.9 0 0 1-.4 1 9.1 9.1 0 0 1-1.3-.6 2.3 2.3 0 0 1-1.2-1.2l.5-.8z" file-rule="evenodd"/><path id="path2825" fill="#dfdfdf" d="M18.5 47.8a4.5 4.5 0 0 1 .4-1.5c.4 0 .3.2.8.4s.8.2 1 .8c-.4.4-.4.3-.6 1V50a5.5 5.5 0 0 1-1.1-.7c-.5-.2-.5-.1-.8-.4l.4-1.1z" file-rule="evenodd"/><path id="path1300" fill="#dfdfdf" d="M20.5 48.5a2 2 0 0 1 .6-.8c.4.2.6.1 1 .5a16.1 16.1 0 0 1 1.7 1.4 2.3 2.3 0 0 0-1 .8c-.3.4-.2.6-.4 1.1l-1-.6a6.7 6.7 0 0 0-1-.7 8.3 8.3 0 0 0 0-1.7z" file-rule="evenodd"/><path id="path1304" fill="#dfdfdf" d="M23.1 50.7c.2-.5.6-.6.8-.8.5.2.7.6 1.1 1a8.7 8.7 0 0 1 1 1 2.9 2.9 0 0 0-1 .6 7.2 7.2 0 0 0-.7.7l-.6-.7c-.3-.4-.5-.3-1-.8a7.8 7.8 0 0 1 .4-1z" file-rule="evenodd"/><path id="path1307" fill="#dfdfdf" d="M25.3 52.9a8 8 0 0 1 .8-.5 3.3 3.3 0 0 1 .5.7 2.7 2.7 0 0 1 .4.7l-.6.3a6.4 6.4 0 0 0-.8.5l-.5-.5a8 8 0 0 0-.5-.7 3 3 0 0 1 .7-.5z" file-rule="evenodd"/><path id="path1309" fill="#dfdfdf" d="m26.4 54.5.7-.4.4.7.3.8-.6.2-.7.4-.3-.6a5.6 5.6 0 0 0-.5-.6l.7-.5z" file-rule="evenodd"/><path id="path1311" fill="#dfdfdf" d="m27.2 56.1.6-.2a7 7 0 0 1 .4 1.3 13.8 13.8 0 0 1 .2 1.5H28a1.7 1.7 0 0 0-.6.2 6.4 6.4 0 0 0-.3-1.3 6.5 6.5 0 0 0-.5-1.2l.6-.3z" file-rule="evenodd"/><path id="path1313" fill="#dfdfdf" d="M28 59a3.6 3.6 0 0 1 .4 0 15.5 15.5 0 0 1 0 1.7 20.4 20.4 0 0 1-.2 2.2 1.1 1.1 0 0 0-.5-.1 2.2 2.2 0 0 0-.5 0 8.7 8.7 0 0 0 .3-1.9 12 12 0 0 0 0-1.7l.4-.1z" file-rule="evenodd"/><path id="path1315" fill="#dfdfdf" d="M27.6 63.1a4.8 4.8 0 0 1 .5 0 7 7 0 0 1-.8 2.6 20 20 0 0 1-1.7 2.2c-.1 0-.2 0-.3-.2l-.2-.1a10.5 10.5 0 0 0 1.4-2.3 11.7 11.7 0 0 0 .7-2.2.5.5 0 0 0 .4 0z" file-rule="evenodd"/><path id="path1317" fill="#dfdfdf" d="M25.2 68a2.5 2.5 0 0 0 .2.1 13.8 13.8 0 0 1-1.1 1.2 4.5 4.5 0 0 1-1.5 1 2.2 2.2 0 0 1-.1-.2.8.8 0 0 1-.2-.3A3.5 3.5 0 0 0 24 69a6.6 6.6 0 0 0 1.1-1.2l.2.1z" file-rule="evenodd"/><path id="path1319" fill="#dfdfdf" d="M22.3 70.2a2 2 0 0 1 .1.3 3.7 3.7 0 0 1-1.5.4 12.6 12.6 0 0 1-2.3 0 1.7 1.7 0 0 0 0-.3v-.3a10 10 0 0 0 2 0 8.5 8.5 0 0 0 1.6-.3l.1.2z" file-rule="evenodd"/><path id="path1321" fill="#dfdfdf" d="m18.3 70.6-.1.2-2.1-.4a6.8 6.8 0 0 1-1.7-.7v-.2l.1-.2a6.7 6.7 0 0 0 1.7.6 18.1 18.1 0 0 0 2 .3v.4z" file-rule="evenodd"/><path id="path1323" fill="#dfdfdf" d="m14.1 69.2-.3.2-.7-.4-.3-.4c0-.1.2-.4.3-.2a4.5 4.5 0 0 0 .9.6l.1.2z" file-rule="evenodd"/><path id="path1325" fill="#dfdfdf" d="M12.7 68.2h-.3a5.8 5.8 0 0 1-.4-.5 2.5 2.5 0 0 1-.4-.6c0-.3.2-.4.3-.2a3.8 3.8 0 0 0 .8 1c.2.3 0 .3 0 .4z" file-rule="evenodd"/><path id="path1327" fill="#dfdfdf" d="M11.6 66.6h-.2a2.3 2.3 0 0 1-.4-.7c0-.2-.3-.4-.2-.6s.3-.3.4 0a6.9 6.9 0 0 0 .3.8l.1.5z" file-rule="evenodd"/><path id="path1329" fill="#dfdfdf" d="M11 64.8h-.3c-.2 0-.1-.3-.1-.6a1.7 1.7 0 0 1 0-.6c0-.2.4-.3.4 0v1.2z" file-rule="evenodd"/><path id="path1331" fill="#dfdfdf" d="M11 63.1c0 .1-.3.1-.4 0s0-.3 0-.6a1.4 1.4 0 0 1 .2-.6s.3-.1.3.1a3.5 3.5 0 0 1-.1.6 3 3 0 0 1 0 .6z" file-rule="evenodd"/><path id="path1333" fill="#dfdfdf" d="M11.2 61.5s-.2 0-.2-.2l.1-.7a1.3 1.3 0 0 1 .4-.6c.1-.1.3-.2.3 0l-.4.9-.2.6z" file-rule="evenodd"/><path id="path1335" fill="#dfdfdf" d="M12.3 59.5H12s.1-.3.4-.5a3.2 3.2 0 0 1 .4-.3h.3c0 .2-.1.2-.4.4l-.5.4z" file-rule="evenodd"/></g><g id="g1497"><g id="g1499"><path id="path1501" fill="#dfdfdf" d="M78 22.6a6.2 6.2 0 0 1 2.5 1 1.9 1.9 0 0 0 .6.3l.1-.4a1 1 0 0 1 .1-.4c.2-.2.3 0 .5.6a5.5 5.5 0 0 0 .3.6c.1.1.3 0 .5-.2s.4-.3.5-.1a1.5 1.5 0 0 1 0 .5c-.1.6 0 .6.6.2s.6-.4.8-.3.2.2 0 .8-.2.8 0 .5a2 2 0 0 1 .5-.3l.9-.5a6.9 6.9 0 0 1 .7-.3 11 11 0 0 1 2-.3l-.5.4a9.7 9.7 0 0 0-1.8 1.7h.5c.6 0 .5 0 .4.6v.4h.6l.5-.1-.1 1v.5l1.3-.4a1.9 1.9 0 0 1 1-.3 1.4 1.4 0 0 1 .5 0l.2.1-.4.5a5.7 5.7 0 0 0-1.1 1.6c-.2.4.3.5 2 .3a3.6 3.6 0 0 1 1.7 0 4.6 4.6 0 0 1 1 1 3 3 0 0 1-.9.1 4.8 4.8 0 0 0-2.2.5c-.5.3-.5.4 0 .4a1.5 1.5 0 0 1 1 .3c.2 0 .2 0 0 .2a1.7 1.7 0 0 1-1 .5 2 2 0 0 0-.4 0 2 2 0 0 0 .5.2 8.4 8.4 0 0 1 2 .6c.5.2.5.2.6.8v.3h-.2a13.2 13.2 0 0 0-2.3 0c-.4 0-.3 0 .4.2a5.2 5.2 0 0 1 1.4.3h.2l-.4.2a4.8 4.8 0 0 1-1 .3c-1.5.3-1.7.5-.4.4 1 0 1.5 0 1.4.2s-.6.5-1.3.6c-.4.2-.3.2.4.3a1.6 1.6 0 0 1 1.3.4 1.4 1.4 0 0 1-.2 1.1.2.2 0 0 1-.1 0 4 4 0 0 0-.6-.4c-.5-.2-.5-.2-1.2 0-.3 0-.6.2-.8.7a6 6 0 0 1-.5.8l-.5.5v.4c0 .3.2.3.2.4.1.4 2.1.3 3.7-.3a9 9 0 0 0 2-1l.3-.2v.3a3.6 3.6 0 0 1-1 2l-.3.3.3.7c.4.7.4 1 .1 1.3l-.2.3a1.1 1.1 0 0 0 .4.3c.6.3.6.3.3.4a2 2 0 0 1-.7.2 1.4 1.4 0 0 0-.5 0c-.2.3.2.7.7 1 .1.1 0 .2-.4.2a8 8 0 0 1-.9.1h-.4l.2.2a2.4 2.4 0 0 0 .7.8l.2.1H94a2.3 2.3 0 0 1-.5 0 2.6 2.6 0 0 0-1.2 0c-.2.2 0 .5.4 1l.5.5H93a3 3 0 0 1-1.6-.2 1.6 1.6 0 0 0-.4-.2 2.6 2.6 0 0 0 .5 1.3.2.2 0 0 1 0 .2 4.5 4.5 0 0 1-.8 0 2 2 0 0 1-1-.2h-.3a1.2 1.2 0 0 0 0 .3.8.8 0 0 0 .2.5l.2.2h-.2a4.5 4.5 0 0 1-1.8-.6c-.2-.2-.2-.2-.2 0a1.5 1.5 0 0 0 .3 1h-.6a4.5 4.5 0 0 1-1.3-.6c-.2-.2-.3-.2-.2.1a.8.8 0 0 0 .4.6l.2.2a7.7 7.7 0 0 1-1.7-.3 1.2 1.2 0 0 1-.4-.2H84a1.4 1.4 0 0 0 .2.5 2 2 0 0 1 .2.4l-.8-.3a2.2 2.2 0 0 0-.6-.2 1 1 0 0 0-.7.5 1.3 1.3 0 0 1-.6.5l-.4.2v-.2c0-.3-1.1-3-1.2-3.2a21.2 21.2 0 0 0-2.6 1.8 21.7 21.7 0 0 0-3 3 8 8 0 0 0-1.9 5.4 11.7 11.7 0 0 0 4 8.8c1 .7 2.2 1 4.4 1 2.8-.1 4.5-.7 5.8-2a6.6 6.6 0 0 0 1.8-3.5 10 10 0 0 0 0-1.3 4.8 4.8 0 0 0-1-3.5 3.8 3.8 0 0 0-2.4-1.2 3.2 3.2 0 0 0-2.5.7c-.4.4-.4.6 0 1.3s.3.7 0 1-.5.1-1 0a1.8 1.8 0 0 1-.8-2 2 2 0 0 1 1.5-1.9 4.6 4.6 0 0 1 2.6-.5 4.5 4.5 0 0 1 1.8.2 4 4 0 0 1 2.3 1.4 9.3 9.3 0 0 1 1.4 6.3 9.5 9.5 0 0 1-2.2 4.2c-1.8 2-4.2 3-7.7 3a10.5 10.5 0 0 1-6.2-1.6 11.2 11.2 0 0 1-4.4-5.7 5.9 5.9 0 0 1-.5-1.9 1.5 1.5 0 0 0 0-.6 2.2 2.2 0 0 1-.3-1.8l.1-.3-.2-.2a1 1 0 0 1 .1-1.5l.2-.2-.2-.2a2 2 0 0 1-.4-1.5c0-.5.3-1.2.4-1.2l-.1-.3a1 1 0 0 1-.5-.8 3.6 3.6 0 0 1 .6-2v-.3s-.4-.6-.4-1.2a2 2 0 0 1 .4-1.5l.2-.2-.2-.4a1 1 0 0 1-.2-.7 4.3 4.3 0 0 1 1.4-2.4c.2 0 .3-.2.3-.3a3 3 0 0 1 1-1.7 3.2 3.2 0 0 0 1-1.4 1.6 1.6 0 0 1 .4-.8 4.1 4.1 0 0 1 1.4-.8.2.2 0 0 0 .1-.2 1.9 1.9 0 0 1 1-1.3c.3-.1.3-.1.3-.3s.2-.5.7-1a5.3 5.3 0 0 1 2.5-.5c2.5-.2 3.6-.7 4.8-1.8a4 4 0 0 0 1.3-2.2 3.5 3.5 0 0 0 0-2 4.2 4.2 0 0 0-.7-1.3 1 1 0 0 0 .1.5 4.6 4.6 0 0 1 0 2.1 2.4 2.4 0 0 1-1.2 1.5 2.7 2.7 0 0 1-1.3.3 2.6 2.6 0 0 0-1.4.4 2 2 0 0 1-1.9.1 3.6 3.6 0 0 0-.8-.1h-.5l-.6.4c-.6.4-3.3 1.9-3.7 2a1.8 1.8 0 0 1-2.3-.4c-.3-.6 0-1 1.4-2.3 1.1-1 1.4-1.4 1.5-2a7.7 7.7 0 0 1 .5-1.2c.5-1 .5-1.2 0-1.7a2.3 2.3 0 0 1-.4-.6 1.6 1.6 0 0 1-.1-.8 2.3 2.3 0 0 1 .7.1v-.5a2.6 2.6 0 0 1 .1-.8l.1-.2.2.3c.3.2.5.3.5.1a2 2 0 0 0 .1-.4c0-.4.4-1 .4-1a1.6 1.6 0 0 1 .1.3c0 .2.1.3.2.3v-.4c.1-.5.2-.8.4-1s.2-.1.2 0a.6.6 0 0 1 0 .2 4 4 0 0 0 .5 1.4c.5.9 1 .8 1.8-.4.5-.7.6-.9.5-1.2a6 6 0 0 0-3.2-2.1 1.4 1.4 0 0 1-.4-.2l.6-.6a2.2 2.2 0 0 1 1.2 0z"/></g><path id="path1503" d="M91.3 35.5c-.4-.2 1.5-.2 2-.2s.5.2.6.2v-1a2.5 2.5 0 0 0-1-.4l-1-.3a6.8 6.8 0 0 1-1-.2 2.1 2.1 0 0 0 1.6-.6l-.6-.4a2.5 2.5 0 0 0-.7 0c-.4 0-.6 0-.3-.1a4.1 4.1 0 0 1 1.6-.6 16.6 16.6 0 0 1 1.9-.1 3.5 3.5 0 0 0-.8-.9c-.4-.4-1.2-.4-2.4-.2-2 .2-2 0-.9-1.6l.8-.8-.5-.2h-.5a11.6 11.6 0 0 0-1.6.6c-.6.3-.6 0-.4-.5s0-.4.1-.9c-.3 0-1.1.3-1.1.1l.1-.9h-1l.6-.6.8-.8 1.2-.8-1.8.1a5.8 5.8 0 0 0-1.9.9 2 2 0 0 0-.6.3c-.3.1 0 .4-.2.1s.5-.8.4-1.1c-.4-.8-1.3.6-1.5.4-.4 0 .2-1 0-1.1s-.8.6-1 .5-.3-1.3-.7-1.4-.2 1-.4 1a7 7 0 0 0-2.6-1.3 5 5 0 0 0-1.5 0 1.3 1.3 0 0 0-1 .7 8 8 0 0 1 1.3.5 6.1 6.1 0 0 1 2 1.2c.6.8.6.8-.2 1.8-1 1.3-1.4 1.2-2-.3l-.2-1.2a1.3 1.3 0 0 0-.4.4 4 4 0 0 0-.2 1.2 1.5 1.5 0 0 1-.2-.7 6.9 6.9 0 0 0-.4.8c-.1.2 0 .8-.3.8s-.3-.3-.6-.5a2.3 2.3 0 0 0 0 1.5 4 4 0 0 0-.9-.2 1.5 1.5 0 0 0 .5 1.5c.5.4.5.7 0 1.6a4.6 4.6 0 0 0-.6 1.5 5.5 5.5 0 0 1-1.6 1.8c-1.1 1-1.5 1.6-1.3 2a1.9 1.9 0 0 0 2.7.7l2.6-1.5c.6-.3 1-.7 1.4-1a3.3 3.3 0 0 1 1.6.3c.8.2 1.4 0 1.6-.2a2 2 0 0 1 1.4-.4 2.6 2.6 0 0 0 2.7-2.6 5.3 5.3 0 0 0-.3-1.8 3.4 3.4 0 0 1 .6 3.2c-.4 1.7-2.2 4-6 4a11.6 11.6 0 0 0-2 .3c-.5.3-1.4.8-1.2 1.4a1.8 1.8 0 0 0-1.3 1.6c-1.7.5-2 1.5-2 1.7a3.3 3.3 0 0 1-1 1.3 2.6 2.6 0 0 0-1 1.9 3.5 3.5 0 0 0-1.1 1.3c-.3.6-.9 1.4 0 2.4-.9.3-.9 2.6-.2 3-.5.3-.6 1-.7 2.2a1 1 0 0 0 .7 1 1 1 0 0 0-.4.6 3.3 3.3 0 0 0 0 1 2.7 2.7 0 0 0 0 .9.7.7 0 0 0 .5.5c-.7.5-.7 1.7 0 1.9-.4.6-.3 1.9.2 2.1a6 6 0 0 0 .6 3 11.3 11.3 0 0 0 2.2 3.4 10.8 10.8 0 0 0 3.3 2.4 13.2 13.2 0 0 0 10.2-.1 9.4 9.4 0 0 0 4.7-6.5c.4-2.3-.7-5.7-2.1-6.7-2.3-1.7-6.7-1.2-7.4.9a2.1 2.1 0 0 0 .8 2.5c1 .4 1.4-.1.8-1-.4-.7-.3-.9.3-1.4 2-1.4 4.8-.1 5.5 2.3a6.6 6.6 0 0 1-3.2 7.7c-2.2 1.1-6.7 1.2-8.3.2-3-2-5-7.2-4-11.2a13 13 0 0 1 5.4-6.7l1.7-1.3.7 1.7c.3.8.6 1.3.5 1.8.5-.3.7-.2 1-.6.2-.3.5-.7 1-.6a4.8 4.8 0 0 0 1.3.5c-.2-.5-.5-.5-.4-1 .3.4 1.2.4 2.4.6-1-.6-.7-.7-.8-1.1a4.5 4.5 0 0 0 2.3.8 1.4 1.4 0 0 1-.5-1.2 4 4 0 0 0 2.2.7c-.4-.4-.4-.4-.4-1a3 3 0 0 0 2.1.2 2.4 2.4 0 0 1-.6-1.5 2.8 2.8 0 0 0 2.3.3 5 5 0 0 1-1-1c-.2-.4 0-.5.6-.5.4 0 .7.3 1.4 0-1-.3-1.2-1.5-1.4-1.6-.9 0 1.1 1.6-.7 1.2a4.2 4.2 0 0 0-1 0l.5.6c.2.2.3.8.8 1a1.8 1.8 0 0 1-1.1-.2 8.8 8.8 0 0 0-1-.8 1.8 1.8 0 0 0 0 1 4.1 4.1 0 0 0 .4 1c-.7.2-1.1 0-1.2-.3s-.5-.7-.8-.8c-.2.5 0 .5 0 .8l.3 1.1a2.8 2.8 0 0 1-1.5-1c-.8-.6-.8-.6-.5.2a4.2 4.2 0 0 0 .3 1.3 2.4 2.4 0 0 1-1.6-1c-.4-.6-.5-.6-.3.2a4.4 4.4 0 0 0 0 1 2 2 0 0 1-1.3-.8c-.4-.6-.5-.6-.3.2.1.5 0 .6.2 1-.7-.2-.7-.1-1-.5s-.4 0-.7.7-.5.5-.6.5a5.9 5.9 0 0 0-.6-1.3 7.1 7.1 0 0 1-.5-1.7l2.2-1.1c1.2-.6 2.1-1.3 2.1-1.5s.2-.4.5-.4a4 4 0 0 0 2.3-2.1 3.4 3.4 0 0 1 .8-1.5c.6-.8 1.3-1.1 3-1.3a10.3 10.3 0 0 0 3-1c.4 0 .4-.2.7-.3a2 2 0 0 1-.6 1.3 2.8 2.8 0 0 1-.8.5 5 5 0 0 1 .6.9c.4.6.4.8-.2 1s-.5.3 0 .6a6.4 6.4 0 0 0 .6.3 2 2 0 0 1-1.1 0c-.7-.4-.8-.3-.5.1a4.4 4.4 0 0 0 .8 1.2 2 2 0 0 1-1-.2c-.4-.1-.7-.3-.5.4.3.4.1-.3.4.3a6.6 6.6 0 0 0 2-.2c-.6-.3-.8-.6-1-.8 0-.3.3-.3.6-.3a1.1 1.1 0 0 0 1-.3 3 3 0 0 1-1-.7c.8-.4.3-1.2.1-1.5l-.3-.7c.2 0 .6-.5.8-.8a3.3 3.3 0 0 0 .5-1.9 5.6 5.6 0 0 1-1.1.7 9.2 9.2 0 0 1-2.9 1c-1 .1-2 .1-2-.3s-.4-.3-.1-.7a4.3 4.3 0 0 0 1-1.6 1.5 1.5 0 0 1 1.4-.5c.3.2.9.3 1.2.7.2-.1.4-.9.2-1.3a1.7 1.7 0 0 0-1-.4h-1a5.4 5.4 0 0 0 1-.4c.4-.1.7-.2.7-.5s-2 0-2.3 0 .4-.3 1-.4a4.2 4.2 0 0 0 1.7-.6c-.5-.3-.8-.2-1.2-.4m-1.7.1c.2.3 2.1.3 1.6.4a6 6 0 0 0-2 .7c-.1.4.4.5.4.5l1.9-.2c0 .3-1.8.4-1.8.8 0 0 0 .3.5.3a4.6 4.6 0 0 1 1.7.1.6.6 0 0 1 .2.8 3.4 3.4 0 0 0-1-.5 2.2 2.2 0 0 0-1.2.2 1.6 1.6 0 0 0-.9 1 2.9 2.9 0 0 1-1.3 1.2 4.8 4.8 0 0 0-2.1 1.4 5.9 5.9 0 0 1-2.1 1.9c-1.2 1-.2.7-.7.8a4 4 0 0 0-2.4.8 3.1 3.1 0 0 1-1.4.8c-.5.2-1 .4-1 .6s-.3.4-.6.4c-1 0-4.8 4.1-5.5 5.8a14 14 0 0 0-1.6 7.1 14.8 14.8 0 0 0 .6 4.6c.8 1.9 4.2 5.6 5.1 5.6l.3.1.5.3a4.3 4.3 0 0 0 1.7.3 16 16 0 0 0 2.5-.1 14.4 14.4 0 0 0 2.6-.6 2.5 2.5 0 0 0 1.2-.6.5.5 0 0 0 .2-.4c.1.1.4.1.8-.3s.7-.4.5-.7c.4 0 .5-.2.9-.7.2-.3.4-.6.3-1 .3 0 .5-.3.6-.7s.5-.9.1-1c.4 0 .3-.5.4-.8s.1-.8-.3-1c.4 0 .3-.5.2-.8 0-.5-.1-.8-.5-.9.3 0 .2-.6 0-1.2s-.5-.7-1-.7c.4-.3-.3-.7-.4-.9-.4-.3-1-.4-1-.2 0-.4-1.5-.5-2-.4a3 3 0 0 0-1.6.7c-.9.7-1 1-.5 1.6.6 1 .2 1.1-.6.4s-.6-1.8.6-2.7a3.4 3.4 0 0 1 3-.7c2.7.2 3.7 1 4.5 3.6a8.2 8.2 0 0 1-4 9.9 9.8 9.8 0 0 1-5.1 1c-3.8 0-6.2-1-8.4-3.4-1.3-1.5-2.8-5.3-2.3-6 .7-.4 0-.4-.3-.4s-.4-1.6.2-2c-1.2 0-.6-1.4.1-1.7-.6 0-1-.6-1-1.3a1.5 1.5 0 0 1 .8-1.6c.4 0 0-.2-.4-.3s-.6-.2-.5-1c0-.5.2-1.4.6-1.6a5.1 5.1 0 0 1 1.4-.3 4.8 4.8 0 0 0-1.2-.2c-.7-.3-1-1.7-.3-2.2s2.3.4 2.4.1c-.4-.3-1.3-.4-1.8-.7-.5-.6-1-1-.1-2.3.4-.7.4-.8.9-1 .6 0 2 .9 3.2.8-.5-.4-2.2-.7-2.8-1.1s-.1-1 .4-1.7 1-.7 1.9-.3a13.4 13.4 0 0 0 2.5.7c-.4-.4-2.2-.9-2.6-1.2-.7-.5-.7-.8 0-1.6l1.1-.4 1.2.6a7.8 7.8 0 0 0 2.2.8l-1.9-1c-.7-.4-1-.9-1-1.1 0-1 .9-1.2 2.3-.2.7.4 2.5 1 2.6.8s-1.2-.5-1.9-.8-1.9-1-1.9-1.3c.2-.6 1-1 4-1.3 2.4-.3 3.6-1 4.6-2.8a4 4 0 0 0-.6-5.5l-1.5-1.3.9 1.3c1.5 2.2.8 4.9-1.4 4.9a3.4 3.4 0 0 0-1.7.4 1.8 1.8 0 0 1-1.5.1l-.7-.2H78l1.1-.8c1.2-.6 1.8-1.8 1-2.4-.2-.3-.2 0-.1.6s0 1.1-.6 1.3a11.7 11.7 0 0 0-1.7 1 29.3 29.3 0 0 1-4.2 2.7c-.2 0 0-.4.5-1s.2-.3-.5.3c-1.1 1-1.4 1.1-2 .7-.8-.7-.7-1 .8-2a4.1 4.1 0 0 0 1.9-2.3 9.6 9.6 0 0 1 .8-2c.2-.2 0-.6-.3-1a2 2 0 0 1-.6-1 1.3 1.3 0 0 1 .4 0c.2.2.4 0 .4-.3v-1a2.4 2.4 0 0 0 .4.6.3.3 0 0 0 .5-.3 7.8 7.8 0 0 1 .2-1 4.7 4.7 0 0 0 .6 1 5.5 5.5 0 0 1 0-2 6.5 6.5 0 0 0 .3 1.2c.4.6.5.7 1 .9s.6-.2 1.2-.8a3.7 3.7 0 0 0 .9-1.6 4.8 4.8 0 0 0-2.6-2.3l-1-.3a2.7 2.7 0 0 1 .7-.2 3.8 3.8 0 0 1 1.7.2 7 7 0 0 1 2.3 1.3c.3 0 0-1 .3-.8s.3 1.2.6 1.3c.4.3.5-.5.7-.5s-.2 1 .2 1.1 1-.9 1.2-.7-.7 1-.5 1.1.2.4.8.2a13.6 13.6 0 0 1 2.8-1.4A11.2 11.2 0 0 0 86 26c-.8.9-1 1-.4 1s.8-.3 1 0-.1.8 0 1 1-.2 1-.1c.4.3-.1.7 0 1.2.3.6.4.6 1.2 0 .6-.4 1.4-.7 1.5-.5s-.2.3-.6.8c-1.1 1.7-.8 2 1.5 1.7 0 0 1.8-.5 2.4.3a6 6 0 0 0-2.2.4 5 5 0 0 0-1 .6c-.2.1-.1.2 0 .5a3.3 3.3 0 0 0 1.3.2c-1.5.6-1.3.1-1.9.4.4.7.7.6 2 .8a5.3 5.3 0 0 0 1 .3c.4.1.6.4.5.5a7 7 0 0 1-.8-.1 10 10 0 0 0-1.3 0c-.5.2-.7.6-.6.8z"/><path id="path1505" fill="#fff" d="M92.3 62.3h.1-.1"/><path id="path1507" d="M77 31.7c0 .2.2.4.4.4s.3-.2.3-.4-.1-.4-.3-.4-.3.1-.3.4"/><path d="M77.4 32.7a1.1 1.1 0 0 1-1-.7h.3a.8.8 0 0 0 1 .4.8.8 0 0 0 .5-.4.8.8 0 0 0 0-.6.8.8 0 0 0-1.5 0 .8.8 0 0 0 0 .6h-.3a1 1 0 0 1 0-.7 1.1 1.1 0 0 1 2 0 1 1 0 0 1 0 .8 1 1 0 0 1-.6.6 1.1 1.1 0 0 1-.4 0z"/><path d="M77 31v-.3s1.8-1.1 3-.4v.3c-1.2-.7-2.9.3-3 .3z"/><path id="path1513" fill="#dfdfdf" d="M89.4 41.8c0-.2 0-.3-.4-.5a3.6 3.6 0 0 0-1.6.8 7.3 7.3 0 0 0-1.4 1.5 2.4 2.4 0 0 0 .7.8 7.3 7.3 0 0 0 .8.5 4.5 4.5 0 0 1 1-1.6c.2-.3 1-.6 1.3-1-.1-.2-.3-.2-.4-.5z" file-rule="evenodd"/><path id="path1515" fill="#dfdfdf" d="M86.4 44.6c-.4-.2-.5-.5-.7-.7l-.8.5c-.5.3-.4.3-.8.9a5.4 5.4 0 0 0 .5.9c.4.3.4.5.6.8a2.3 2.3 0 0 0 1.3-.8c.3-.4.7-.4.8-1a6.8 6.8 0 0 1-.9-.6z" file-rule="evenodd"/><path id="path1517" fill="#dfdfdf" d="m84.3 46.3-.5-.9a7 7 0 0 0-1.2.3 1.7 1.7 0 0 0-1.1.7 6.6 6.6 0 0 1 .4 1.5 4.7 4.7 0 0 0 .3 1.1 8.3 8.3 0 0 0 1.4-.7 2.3 2.3 0 0 0 1.2-1.2c-.2-.4-.2-.6-.5-.8z" file-rule="evenodd"/><path id="path1519" fill="#dfdfdf" d="M81.5 48.1a4.3 4.3 0 0 0-.4-1.4c-.4 0-.3.1-.8.3s-.8.2-1 .8c.4.4.5.3.6 1v1.5a5 5 0 0 0 1.1-.6l.8-.5-.4-1.1z" file-rule="evenodd"/><path id="path1521" fill="#dfdfdf" d="M79.5 48.8a2 2 0 0 0-.6-.8c-.4.2-.6.1-1 .5a15 15 0 0 0-1.7 1.4 2.3 2.3 0 0 1 1 .8c.3.5.2.6.4 1.1l1-.6a6.2 6.2 0 0 1 1-.7 8.3 8.3 0 0 1 0-1.7z" file-rule="evenodd"/><path id="path1523" fill="#dfdfdf" d="M76.9 51c-.2-.5-.6-.6-.8-.8-.5.2-.7.6-1.1 1a8.7 8.7 0 0 0-1 1.1 2.8 2.8 0 0 1 1 .6 6.1 6.1 0 0 1 .7.6 8.8 8.8 0 0 1 .6-.6l1-.8a6.9 6.9 0 0 0-.4-1.1z" file-rule="evenodd"/><path id="path1525" fill="#dfdfdf" d="m74.7 53.2-.8-.5a3.3 3.3 0 0 0-.5.7 2.7 2.7 0 0 0-.4.7l.6.3a8 8 0 0 1 .8.6l.5-.6a6.6 6.6 0 0 1 .5-.7 3.2 3.2 0 0 0-.7-.5z" file-rule="evenodd"/><path id="path1527" fill="#dfdfdf" d="m73.6 54.8-.7-.4-.4.7-.3.8a4.6 4.6 0 0 1 .6.2l.7.4.3-.6a4.9 4.9 0 0 1 .5-.6l-.7-.5z" file-rule="evenodd"/><path id="path1529" fill="#dfdfdf" d="m72.8 56.5-.6-.3a7 7 0 0 0-.4 1.4 13.6 13.6 0 0 0-.2 1.4h.4a2 2 0 0 1 .6.2 6.3 6.3 0 0 1 .3-1.2 6.8 6.8 0 0 1 .5-1.2l-.6-.3z" file-rule="evenodd"/><path id="path1531" fill="#dfdfdf" d="M72 59.4a3.6 3.6 0 0 0-.4 0 15.5 15.5 0 0 0 0 1.6 20.6 20.6 0 0 0 .2 2.2 1.1 1.1 0 0 1 .5-.1 2.9 2.9 0 0 1 .5 0 8.6 8.6 0 0 1-.3-1.9 12 12 0 0 1 0-1.6l-.4-.2z" file-rule="evenodd"/><path id="path1533" fill="#dfdfdf" d="M72.4 63.5H72a7 7 0 0 0 .8 2.6 18.4 18.4 0 0 0 1.7 2.2 2.1 2.1 0 0 0 .3-.2l.2-.2a10.2 10.2 0 0 1-1.4-2.3 11.8 11.8 0 0 1-.7-2.2.5.5 0 0 1-.4 0z" file-rule="evenodd"/><path id="path1535" fill="#dfdfdf" d="m74.8 68.3-.2.1a15.5 15.5 0 0 0 1.1 1.2 4.7 4.7 0 0 0 1.5 1 1.4 1.4 0 0 0 .1-.2.9.9 0 0 0 .2-.2 3.8 3.8 0 0 1-1.4-.8 7 7 0 0 1-1-1.2 1.4 1.4 0 0 0-.3 0z" file-rule="evenodd"/><path id="path1537" fill="#dfdfdf" d="M77.7 70.5a1.8 1.8 0 0 0-.1.3 3.5 3.5 0 0 0 1.5.4 13.8 13.8 0 0 0 2.3 0 1.8 1.8 0 0 1 0-.3v-.3a10 10 0 0 1-2 0 9.4 9.4 0 0 1-1.6-.3l-.1.2z" file-rule="evenodd"/><path id="path1539" fill="#dfdfdf" d="m81.7 70.9.1.2 2.1-.3a6.8 6.8 0 0 0 1.7-.8v-.2l-.1-.2a7.2 7.2 0 0 1-1.7.7 18.1 18.1 0 0 1-2 .3v.3z" file-rule="evenodd"/><path id="path1541" fill="#dfdfdf" d="M85.9 69.5c.1.2.1.2.3.2l.7-.4c.3-.2.3-.3.3-.4s-.2-.4-.3-.2a4.2 4.2 0 0 1-.9.6l-.1.2z" file-rule="evenodd"/><path id="path1543" fill="#dfdfdf" d="M87.3 68.5h.3a4.6 4.6 0 0 0 .4-.5 2.3 2.3 0 0 0 .4-.6c0-.3-.2-.5-.3-.2a3.8 3.8 0 0 1-.8 1c-.2.2 0 .3 0 .3z" file-rule="evenodd"/><path id="path1545" fill="#dfdfdf" d="M88.4 66.9h.2a2.4 2.4 0 0 0 .4-.7c0-.1.3-.4.2-.6s-.3-.3-.4 0a6.4 6.4 0 0 1-.3.9l-.1.4z" file-rule="evenodd"/><path id="path1547" fill="#dfdfdf" d="M89 65.1c0 .2.1.1.3 0s.1-.3.1-.6a1.7 1.7 0 0 0 0-.6c0-.2-.4-.2-.4 0v1.2z" file-rule="evenodd"/><path id="path1549" fill="#dfdfdf" d="M89 63.5h.4v-.7a1.4 1.4 0 0 0-.2-.5c0-.2-.2-.2-.2 0a3.9 3.9 0 0 0 0 .6 3 3 0 0 0 0 .6z" file-rule="evenodd"/><path id="path1551" fill="#dfdfdf" d="M88.8 61.8s.2 0 .2-.2V61a1.3 1.3 0 0 0-.4-.6c-.1-.1-.3-.2-.3 0l.4.9.2.6z" file-rule="evenodd"/><path id="path1553" fill="#dfdfdf" d="M87.7 59.8h.2s-.1-.3-.4-.4a3.1 3.1 0 0 0-.4-.4h-.3c0 .2.1.2.3.4l.6.4z" file-rule="evenodd"/></g></g><g id="g3239"><path id="path4209" fill="#e9d315" d="M43.2 50a6.4 6.4 0 0 0 .2 1.9 7.3 7.3 0 0 0-1.5-1c-.8-.5-1.7-1-2-.4s.5 1.2 1.2 1.6a9.4 9.4 0 0 0 1.7.7 12.9 12.9 0 0 0-1.6.8c-.6.4-1.6 1.3-1.2 1.8s1.4 0 2-.5a9.9 9.9 0 0 0 1.4-1 12.3 12.3 0 0 0-.2 1.8c0 .9.1 1.9.8 1.9s.8-1.2.8-2a9.6 9.6 0 0 0-.2-1.8A15 15 0 0 0 46 55c.5.4 1.7 1 2 .4s-.2-1-1.2-1.8a9.2 9.2 0 0 0-1.7-.8 8.1 8.1 0 0 0 1.7-.7c1.2-.7 1.6-1.1 1.3-1.7s-1-.3-2 .4a10 10 0 0 0-1.4 1.1 14 14 0 0 0 0-1.9c0-.8-.2-2-.7-2s-.8 1-.8 1.9z"/><path d="M44 57.7c-.8 0-1-1.2-1-2a9.3 9.3 0 0 1 .2-1.5 13.2 13.2 0 0 1-1.1.9c-1.2.7-2 .9-2.3.4a.6.6 0 0 1 0-.5 3.1 3.1 0 0 1 1.3-1.5 6.6 6.6 0 0 1 1.2-.6h.2-.2a6.1 6.1 0 0 1-1.3-.6c-.3-.2-1.2-.8-1.4-1.4a.7.7 0 0 1 0-.4c.6-.8 2 0 2.3.2a8.2 8.2 0 0 1 1.2.8 7.2 7.2 0 0 1 0-1.5c0-.9.1-2 .8-2 .9 0 1 1.6 1 2.1a11 11 0 0 1-.1 1.5 7.8 7.8 0 0 1 1.1-.9c.8-.5 1.4-.8 1.8-.7a.7.7 0 0 1 .4.4c.5.8-.3 1.3-1.3 2a5 5 0 0 1-1.3.5 7.4 7.4 0 0 1 1.3.7c.9.5 1.3 1 1.4 1.3a.7.7 0 0 1-.1.6.7.7 0 0 1-.5.3 2.9 2.9 0 0 1-1.8-.7 11.8 11.8 0 0 1-1-.8 11 11 0 0 1 .2 1.3 3.1 3.1 0 0 1-.5 1.9.6.6 0 0 1-.5.2zm-.4-4.3v.7a10 10 0 0 0-.2 1.6c0 1.1.2 1.7.7 1.7a.4.4 0 0 0 .2-.1 2.6 2.6 0 0 0 .4-1.7 9.9 9.9 0 0 0-.2-1.8v-.5l.3.4a13 13 0 0 0 1.2 1.1 2.5 2.5 0 0 0 1.6.6.3.3 0 0 0 .2-.1.5.5 0 0 0 0-.4c0-.4-.6-.8-1.2-1.2a8.4 8.4 0 0 0-1.3-.7H45l-.3-.2.3-.1a4 4 0 0 1 .5-.2 4.5 4.5 0 0 0 1.2-.5c1.2-.7 1.5-1 1.2-1.5a.4.4 0 0 0-.2-.2c-.4-.1-1 .2-1.6.6a8.2 8.2 0 0 0-1.4 1.1l-.3.3v-.4a12.5 12.5 0 0 0 .2-1.9c0-.9-.2-1.8-.6-1.8-.4 0-.6.6-.6 1.7a6.8 6.8 0 0 0 .1 1.9l.1.5-.4-.3a6.8 6.8 0 0 0-1.4-1c-.7-.4-1.6-.8-1.8-.4a.3.3 0 0 0 0 .3c0 .4.7.9 1.2 1.1a5.5 5.5 0 0 0 1.3.6l.4.1.3.2-.2.1-.6.2a6.2 6.2 0 0 0-1 .6c-.6.3-1.2.9-1.3 1.3a.3.3 0 0 0 0 .3c.2.3.8.1 1.8-.5a10.2 10.2 0 0 0 1.4-1.1z"/><path id="path1755" fill="#fff" d="M44.9 52.8a1 1 0 1 1-1-.9 1 1 0 0 1 1 .9"/><path d="M44 53.9a1 1 0 1 1 1-1.1h-.3a.7.7 0 1 0-.7.7.7.7 0 0 0 .7-.7h.4a1 1 0 0 1-1.1 1z"/></g><g id="g3243"><path id="path3245" fill="#e9d315" d="M55 50a6.8 6.8 0 0 0 .2 1.9 7 7 0 0 0-1.5-1c-.7-.5-1.7-1-2-.4s.6 1.2 1.3 1.6a8.6 8.6 0 0 0 1.8.7 14.8 14.8 0 0 0-1.7.8c-.6.4-1.6 1.3-1.2 1.8s1.4 0 2-.5a10.5 10.5 0 0 0 1.4-1 11.2 11.2 0 0 0-.2 1.8c0 .9.1 1.9.8 1.9s.8-1.2.8-2a10.4 10.4 0 0 0-.2-1.8 12.7 12.7 0 0 0 1.3 1.2c.5.4 1.7 1 2 .4s-.2-1-1.2-1.7a9.2 9.2 0 0 0-1.7-.9 8 8 0 0 0 1.8-.7c1-.6 1.5-1.1 1.2-1.7s-1-.3-2 .4a10 10 0 0 0-1.4 1.2 12.7 12.7 0 0 0 .1-1.9c0-.8-.2-2-.8-2s-.7 1-.7 2z"/><path d="M55.9 57.8c-.9 0-1-1.2-1-2a9.3 9.3 0 0 1 .2-1.5 10.3 10.3 0 0 1-1.2.8c-1.1.8-1.8 1-2.2.5a.7.7 0 0 1 0-.5 3.2 3.2 0 0 1 1.3-1.6 6.4 6.4 0 0 1 1.1-.5h.2a6.2 6.2 0 0 1-1.4-.6c-.3-.2-1.2-.8-1.4-1.4a.6.6 0 0 1 0-.5c.5-.7 1.9 0 2.3.3a9.6 9.6 0 0 1 1.2.8 7.2 7.2 0 0 1 0-1.5c0-.9 0-2 .8-2 .9 0 1 1.6 1 2.1a13 13 0 0 1-.1 1.5 8.4 8.4 0 0 1 1-.9c1-.5 1.5-.8 1.9-.7a.7.7 0 0 1 .4.4c.5.7-.3 1.3-1.3 1.9a5 5 0 0 1-1.3.6 7.4 7.4 0 0 1 1.3.6c.9.6 1.3 1 1.4 1.4a.8.8 0 0 1-.1.6.6.6 0 0 1-.5.3 2.8 2.8 0 0 1-1.8-.7 11.8 11.8 0 0 1-1-.9 8.4 8.4 0 0 1 .1 1.4 3 3 0 0 1-.4 2 .7.7 0 0 1-.5.1zm-.4-4.4v.8a9 9 0 0 0-.2 1.5c0 1.2.2 1.8.6 1.8a.4.4 0 0 0 .3-.1 2.7 2.7 0 0 0 .4-1.7 8.9 8.9 0 0 0-.2-1.8l-.1-.5.3.3A14.2 14.2 0 0 0 58 55a2.5 2.5 0 0 0 1.6.6.3.3 0 0 0 .2-.1.4.4 0 0 0 .1-.4c0-.4-.7-.8-1.2-1.2a7 7 0 0 0-1.4-.7l-.4-.1-.3-.1.4-.2a3.4 3.4 0 0 1 .4-.1 4.5 4.5 0 0 0 1.3-.6c1.1-.7 1.4-1 1.2-1.5a.4.4 0 0 0-.3-.3c-.3 0-.8.3-1.6.7a9.4 9.4 0 0 0-1.4 1.1l-.3.3.1-.4a12.6 12.6 0 0 0 .2-1.8c0-1-.3-1.9-.7-1.9-.3 0-.6.6-.6 1.8a6.1 6.1 0 0 0 .2 1.9v.4l-.3-.3a6.8 6.8 0 0 0-1.4-1c-.7-.4-1.6-.8-1.9-.4a.4.4 0 0 0 0 .3c.1.4.8.9 1.3 1.1a5.8 5.8 0 0 0 1.2.6l.5.1.3.1-.3.2a5.7 5.7 0 0 1-.5.2 5.8 5.8 0 0 0-1.1.6 3 3 0 0 0-1.3 1.3.3.3 0 0 0 0 .3c.3.3.9.1 1.9-.5a10.9 10.9 0 0 0 1.3-1.1z"/><path id="path3247" fill="#fff" d="M56.7 52.9a1 1 0 1 1-.9-1 .9.9 0 0 1 1 1"/><path d="M55.8 54a1 1 0 1 1 1.1-1h-.3a.7.7 0 1 0-.8.7.7.7 0 0 0 .8-.8h.3a1 1 0 0 1-1 1.1z"/></g><path id="path3078" fill="#dfdfdf" d="M36.4 70.2c-1.7 0-5 1.1-8.2 2.8-2.7 1.3-2.8 1.4-2 2.9l.7 1.3a14.3 14.3 0 0 0 2.8-1.2 33.6 33.6 0 0 1 4.2-1.8 12.5 12.5 0 0 1 1.7-.4l-.4-1.2a3.8 3.8 0 0 1 2.1-2.3 2 2 0 0 0-1-.2z"/><path id="path3076" fill="#dfdfdf" d="M49.5 70.2a71 71 0 0 0-8 .4 14 14 0 0 0-4.9 1.7c-.3.3-.6.3-1 .6l.6 1.6c.3.6.1 1 .8 1a7.7 7.7 0 0 0 2.3-.7c2-.8 3.3-.8 10.7-.8s8.9.2 10.6.8c1.3.4 1.8.8 2.3.7.2 0 .4-.4.6-.9a10.8 10.8 0 0 0 .6-2.4l-.7-.1-2.1-1a15.5 15.5 0 0 0-3.1-.5c-1.6-.3-5-.4-8.4-.4z"/><path id="path3074" fill="#dfdfdf" d="M63.3 70.2a2.3 2.3 0 0 0-.6 0l1 .8c.8.4.8.8.8 1.6a4.6 4.6 0 0 1-.2 1l1.7.6a35.6 35.6 0 0 1 4.2 1.8 15.4 15.4 0 0 0 2.8 1.3l.7-1.4c.5-1 .6-1.4.2-1.7a34.7 34.7 0 0 0-7-3.2 12.6 12.6 0 0 0-3.6-.8z"/><path id="path3072" fill="#dfdfdf" d="M62.3 70.5v.1a1 1 0 0 0-.3.5 6 6 0 0 0 1.6.6.7.7 0 0 0 .3 0 2.5 2.5 0 0 0-.7-.4 8.1 8.1 0 0 1-1-.7z"/><path id="path3070" fill="#dfdfdf" d="m37.6 70.5-1 .7a2 2 0 0 0-.8 1 5.2 5.2 0 0 1 1.4-.6 8.5 8.5 0 0 0 .8-.4 3.5 3.5 0 0 1-.4-.6.4.4 0 0 0 0-.1z"/><path id="path76" d="M32.6 70.7a38.7 38.7 0 0 0-7 3.4c-.5.3-.5.6.2 2a7.7 7.7 0 0 0 1 1.6 24.9 24.9 0 0 0 3-1.4 26.5 26.5 0 0 1 4.2-1.8 9.7 9.7 0 0 0 1.6-.4 7.4 7.4 0 0 0 .4.8c.4.8.1.8.8 1s2.5-.8 2.5-.8c2-.7 3.2-.7 10.7-.7s8.5 0 10.6.8l1.9.6a.9.9 0 0 0 .5 0c.2 0 .5-.3.5-.5l.6-1.4a16.7 16.7 0 0 0 1.8.6 48 48 0 0 1 4.2 1.8 24.9 24.9 0 0 0 2.9 1.4 7.7 7.7 0 0 0 1-1.6c1-1.9 1-1.7-2.4-3.5-4.6-2.4-9.2-3.5-9.7-2.3l-.2.6-3-.6a78.5 78.5 0 0 0-17.7 0 21 21 0 0 0-2.7.7l-.4-.6c-.3-.8-2.4-.7-5.3.3zm5 0a4.1 4.1 0 0 0 .4.6l-.8.3c-1.2.4-1.5.9-1.4.7a2 2 0 0 1 .8-1.1c.5-.3 1.4-1 1.1-1-1 0-2 1-2.5 2.4a4.2 4.2 0 0 1 .3 1.2 9.7 9.7 0 0 0-1.6.4 34.5 34.5 0 0 0-4.2 1.8 13.4 13.4 0 0 1-2.8 1.2L26 76c-.7-1.5-.6-1.6 2.1-3 4.6-2.3 9-3.5 9.4-2.3zm20.5 0a15.3 15.3 0 0 1 3.1.6l2.1.8c.6.3.4 0 .8.1a10.8 10.8 0 0 1-.7 2.5c-.2.4-.3.8-.6.8-.5.1-1-.2-2.2-.6-1.7-.6-3.2-.9-10.7-.9s-8.6.1-10.6.8a7.7 7.7 0 0 1-2.3.8c-.7 0-.6-.4-.9-1l-.5-1.7a10.8 10.8 0 0 0 1-.5 14.2 14.2 0 0 1 4.8-1.7 72 72 0 0 1 8.4-.5c3.3.1 6.8.2 8.3.4zm8.8.3a34.8 34.8 0 0 1 7 3.2c.4.3.4.7-.1 1.7l-.8 1.3a13.4 13.4 0 0 1-2.8-1.2 39 39 0 0 0-4.2-1.8l-1.7-.7a4.6 4.6 0 0 0 .2-1c0-.7 0-1.1-.8-1.6-.4-.2-1.4-1.3-1.6-.7l1.2 1c.8.4.7.5.4.5A5.8 5.8 0 0 1 62 71a1 1 0 0 1 .2-.5c.4-.7 2-.5 4.7.4z"/><path id="text3088" d="m41 71.7.1.8h.5a.7.7 0 0 0 .4-.2.4.4 0 0 0 .1-.3.3.3 0 0 0-.1-.3.7.7 0 0 0-.5 0H41m-.3-.2.9-.1a1.4 1.4 0 0 1 .3 0 .6.6 0 0 1 .2 0 .5.5 0 0 1 .2.2.8.8 0 0 1 .1.3.6.6 0 0 1 0 .3.5.5 0 0 1-.2.3.4.4 0 0 1 .2 0 .7.7 0 0 1 .1.4l.1.3a1 1 0 0 0 0 .2.1.1 0 0 0 .2 0v.2h-.4a.9.9 0 0 1-.1-.3V73c0-.2-.1-.3-.2-.3a.8.8 0 0 0-.4 0h-.5v1H41l-.3-2.3m2.8 1h.7l-.5-1-.2 1m-.6 1 .7-2.3h.3l1 2.3h-.3l-.3-.7h-1l-.2.8h-.3m3.2-.2V71h.3v1h1.2v-1h.4v2.3h-.3v-1h-1.2v1H46m2.7-1h.8l-.4-1-.4 1m-.6 1L49 71h.4l.8 2.3H50l-.3-.7h-.9l-.2.7H48m4-.8h.4a1 1 0 0 1-1 .9 1 1 0 0 1-.8-.3 1.4 1.4 0 0 1-.3-1 1.3 1.3 0 0 1 .3-.8 1 1 0 0 1 .8-.4 1 1 0 0 1 .7.3.8.8 0 0 1 .3.5h-.3a.6.6 0 0 0-.3-.3.7.7 0 0 0-.4-.2.7.7 0 0 0-.5.3 1.1 1.1 0 0 0-.2.7 1 1 0 0 0 .1.7.6.6 0 0 0 .6.2.7.7 0 0 0 .5-.1.7.7 0 0 0 .2-.5m.6.9L53 71h.3v1h1.2v-1h.3v2.4h-.4v-1.1h-1.2v1h-.3m2.3.2.2-2.3h.3l-.2 2.3h-.3m1.4-2-.1.8h.5a.6.6 0 0 0 .5 0 .4.4 0 0 0 .1-.4.3.3 0 0 0 0-.3.7.7 0 0 0-.5 0h-.5m-.3-.4h.9a1.6 1.6 0 0 1 .3 0 .8.8 0 0 1 .2.2.6.6 0 0 1 .2.2.6.6 0 0 1 0 .4.6.6 0 0 1-.1.3.6.6 0 0 1-.3.2.3.3 0 0 1 .2.1.7.7 0 0 1 0 .3v.4a.8.8 0 0 0 0 .2v.2h-.3a1 1 0 0 1 0-.4V73a.5.5 0 0 0 0-.3.9.9 0 0 0-.5-.1h-.5l-.1 1H56l.2-2.4m2 2.6.3-2.3h.3l-.3 2.3H58"/></g></svg>