<svg xmlns="http://www.w3.org/2000/svg" width="512" height="512" data-name="Layer 1"><defs><mask id="a" width="512" height="512" x="0" y="0" maskUnits="userSpaceOnUse"><circle cx="256" cy="256" r="256" fill="#fff"/></mask></defs><g mask="url(#a)"><path fill="#eee" d="m0 166.9 253-26.7L512 167v178l-261.1 26L0 344.8V166.9Z"/><path fill="#d80027" d="M0 344.9h512V512H0V344.9Z"/><path fill="#0052b4" d="M0 0h512v166.9H0V0Z"/><path fill="#d80027" fill-rule="evenodd" d="m256 88.9 36.2 111.4h117.1l-94.7 68.8 36.2 111.4-94.8-68.8-94.8 68.8 36.2-111.3-94.7-68.9h117.1L256 88.9Z"/><path fill="#ffda44" d="m371.7 409.3-115.7-84-115.7 84 44.2-136-115.7-84h143l44.2-136 44.2 136h143l-115.7 84 44.2 136ZM256 298.1l73.8 53.7-28.2-86.9 73.9-53.6h-91.3L256 124.5l-28.2 86.8h-91.3l73.9 53.6-28.2 86.9L256 298Z"/></g></svg>