<svg xmlns="http://www.w3.org/2000/svg" width="512" height="512" fill="none"><g clip-path="url(#a)"><path fill="#0052B4" d="M256 512a256 256 0 0 0 256-255.5v-.5l-256-32L0 256a256 256 0 0 0 256 256Z"/><path fill="#D80027" d="M512 255.5v.5H0a256 256 0 0 1 512-.5Z"/><path fill="#6DA544" fill-rule="evenodd" d="M512 255.3v1.4c0 11-.8 22-2.2 32.7h-242L99 458.2C38.8 411.4 0 338.2 0 256c0-82.2 38.8-155.4 99-202.2l169 168.8h242c1.3 10.7 2 21.6 2.1 32.7Z" clip-rule="evenodd"/><path fill="#EEE" fill-rule="evenodd" d="M503.6 321.4H281L126 476.6a256.4 256.4 0 0 1-27-18.4L269.3 288H510a254.8 254.8 0 0 1-6.4 33.4ZM126 35.4l155 155.2h222.5c2.8 10.9 5 22 6.4 33.4H269.3L99 53.8a262 262 0 0 1 27-18.4Z" clip-rule="evenodd"/><path fill="#333" fill-rule="evenodd" d="M54 413.2C20 369.8 0 315.2 0 256c0-59.3 20.1-113.8 54-157.2L211.2 256 54 413.2Z" clip-rule="evenodd"/><path fill="#FFDA44" fill-rule="evenodd" d="M35.6 125.7a262 262 0 0 1 18.4-27L211.2 256 54 413.2a256.6 256.6 0 0 1-18.4-26.9L166 256 35.6 125.7Z" clip-rule="evenodd"/></g><defs><clipPath id="a"><path fill="#fff" d="M0 0h512v512H0z"/></clipPath></defs></svg>