<svg xmlns="http://www.w3.org/2000/svg" width="512" height="512" fill="none"><circle cx="256" cy="256" r="256" fill="#496E2D"/><path fill="#FF9811" fill-rule="evenodd" d="M512 256.5v1a256 256 0 0 1-129.8 222.3V256H512v.5Z" clip-rule="evenodd"/><path fill="#333" fill-rule="evenodd" d="M303.9 508.5V256h122.8v191.8a255.2 255.2 0 0 1-122.8 60.7Z" clip-rule="evenodd"/><path fill="#D80027" fill-rule="evenodd" d="M278.8 512H256V256h85.3v242.4c-19.8 7-40.8 11.7-62.5 13.6Z" clip-rule="evenodd"/><path fill="#FF9811" d="M473 167h-66.7a22.3 22.3 0 0 0-44.6 0H295a23 23 0 0 0 23 22.2h-.8c0 12.3 10 22.3 22.3 22.3 0 12.3 10 22.2 22.2 22.2h44.6c12.3 0 22.2-10 22.2-22.2 12.3 0 22.3-10 22.3-22.3h-.8a23 23 0 0 0 23-22.2Z"/></svg>