<svg xmlns="http://www.w3.org/2000/svg" width="512" height="512" fill="none"><path fill="#333" fill-rule="evenodd" d="M506 311.7a256.9 256.9 0 0 0 0-111.4H6a257 257 0 0 0 0 111.4h500Z" clip-rule="evenodd"/><path fill="#FFDA44" fill-rule="evenodd" d="M492.6 158H19.4c16.2-39 41.7-73 73.7-99.5H419c32 26.5 57.5 60.6 73.7 99.6ZM100.5 459.4A256.7 256.7 0 0 1 17 348h477.8a256.7 256.7 0 0 1-83.4 111.3h-311Z" clip-rule="evenodd"/><path fill="#6DA544" fill-rule="evenodd" d="M77.8 72.2A255.4 255.4 0 0 1 256 0a255 255 0 0 1 178.2 72.2H77.8ZM256 512a255 255 0 0 0 178.2-72.2H77.8A255.4 255.4 0 0 0 256 512Z" clip-rule="evenodd"/><path fill="#D80027" fill-rule="evenodd" d="M486.4 144.4a254.2 254.2 0 0 1 22.6 72.2H3c4-25.5 11.7-49.8 22.6-72.2h460.8Zm0 223.2a254.2 254.2 0 0 0 22.6-72.2H3c4 25.5 11.7 49.8 22.6 72.2h460.8Z" clip-rule="evenodd"/><path fill="#EEE" fill-rule="evenodd" d="M75 437A255.2 255.2 0 0 1 0 256c0-70.7 28.7-134.7 75-181l181 181L75 437Z" clip-rule="evenodd"/><path fill="#333" fill-rule="evenodd" d="M75 75c5.2-5.3 10.7-10.3 16.4-15l196 196-196 196c-5.7-4.7-11.2-9.7-16.4-15l181-181L75 75Z" clip-rule="evenodd"/><path fill="#D80027" d="m103 189.2 16.5 51h53.6l-43.4 31.6 16.6 51-43.4-31.5-43.4 31.5 16.6-51-43.4-31.6h53.6l16.6-51Z"/><path fill="#FFC635" d="m148.5 260.2-43.2-15.3-3.4-31a16.7 16.7 0 1 0-32.5 7.6l-12 12.1h21.5c0 22.4-16.7 22.4-16.7 44.7l9.2 22.2h55.7l9.3-22.2a23 23 0 0 0 1.7-6.6c8-3.2 10.4-11.5 10.4-11.5Z"/></svg>