<svg xmlns="http://www.w3.org/2000/svg" width="512" height="512" fill="none"><g clip-path="url(#a)"><circle cx="256" cy="256" r="256" fill="#026"/><path fill="#EEE" d="m216.4 330.5 14 29.4 31.8-7.4-14.2 29.3 25.5 20.3-31.8 7.1v32.6l-25.3-20.4-25.4 20.4v-32.6l-31.7-7.1 25.5-20.3-14.2-29.3 31.7 7.4 14-29.4Zm186.9 55.7 7 14.7 15.9-3.7-7.1 14.6 12.7 10.2-15.9 3.5v16.3l-12.6-10.2-12.7 10.2v-16.3l-15.9-3.5 12.8-10.2-7.1-14.6 15.9 3.7 7-14.7ZM338 230.3l7 14.7 15.8-3.6-7 14.6 12.7 10.1-16 3.6.1 16.3-12.7-10.2-12.7 10.2v-16.3l-15.8-3.6 12.7-10-7-14.7 15.8 3.6 7-14.7Zm65.3-89 7 14.7 15.9-3.7L419 167l12.7 10-15.9 3.7V197l-12.6-10.2-12.7 10.2v-16.3l-15.9-3.6 12.8-10.1-7.1-14.7 15.9 3.7 7-14.7Zm57.1 66.7 7 14.8 15.9-3.7-7.1 14.7 12.7 10-15.9 3.7v16.2l-12.6-10.2-12.7 10.2v-16.2l-15.9-3.6 12.8-10.1-7.1-14.7 15.8 3.7 7-14.7Zm-40.8 78 5.5 17H443l-14.5 10.5 5.5 17-14.4-10.5-14.5 10.5 5.5-17-14.5-10.5h18l5.4-17ZM75 437A256 256 0 0 1 255.9 0h.2a255 255 0 0 1 172.7 67.2L320 176v16l-32 32h-64v64L75 437Z"/><path fill="#0052B4" d="M52.6 411.4A255 255 0 0 1 8 320h136l-91.4 91.4Zm0-310.8A255 255 0 0 0 8 192h136l-91.4-91.4Zm48-48L192 144V8a255 255 0 0 0-91.4 44.6ZM320 8v136l91.4-91.4A255 255 0 0 0 320 8Z"/><path fill="#D80027" d="M2 224a258.5 258.5 0 0 0 0 64h222l64-64V2c-10.4-1.3-21-2-31.9-2h-.2C245 0 234.4.7 224 2v222H2Z"/><path fill="#D80027" d="M59.7 91.7 160 192h32L75 75a219.3 219.3 0 0 0-15.3 16.7Zm360.6-32L320 160v32L437 75a219.3 219.3 0 0 0-16.7-15.3Z"/></g><defs><clipPath id="a"><path fill="#fff" d="M0 0h512v512H0z"/></clipPath></defs></svg>