<svg xmlns="http://www.w3.org/2000/svg" width="512" height="512" fill="none"><g clip-path="url(#a)"><mask id="b" width="512" height="512" x="0" y="0" maskUnits="userSpaceOnUse" style="mask-type:alpha"><path fill="#F0F" d="M437 75A256 256 0 1 0 75 437L437 75Z"/></mask><g mask="url(#b)"><path fill="#EEE" d="M477.8 384A254.8 254.8 0 0 0 512 256c0-46.6-12.5-90.3-34.2-128H34.2A254.8 254.8 0 0 0 0 256c0 46.6 12.5 90.3 34.2 128h443.6Z"/><path fill="#496E2D" d="M256 512A256 256 0 0 1 25.6 368h460.6A256 256 0 0 1 256 512h-.1Z"/><path fill="#FF9811" d="M256 0A256 256 0 0 0 25.7 144h460.6A256 256 0 0 0 256 0Z"/><path fill="#026" fill-rule="evenodd" d="m250.5 284 4.5 44.4c-3.4 0-6.8-.3-10-.8a8 8 0 0 0-15.5-4.1 71.7 71.7 0 0 1-9-4.3l26.1-36.3v-4.3c2 .8 4 1.3 6 1.6l-2 3.7Zm8.5-3.8 2 3.7-4.4 44.5c3.4 0 6.7-.3 10-.8a8 8 0 0 1 15.4-4.1 69 69 0 0 0 9.1-4.3L265 282.9l-.1-4.3c-1.9.8-3.8 1.3-5.9 1.6Zm11.5-4.8 3.6 2.2 18.4 40.8c2.9-1.7 5.6-3.6 8.2-5.7a8 8 0 0 1 11.3-11.3c2.1-2.6 4-5.4 5.7-8.3L277 274.7l-2.2-3.6c-1.3 1.6-2.7 3-4.3 4.3Zm7.5-9.9 4.2.1 36.3 26.1c1.7-2.9 3.1-5.9 4.4-9a8 8 0 0 1 4-15.5c.6-3.2.8-6.6.9-10l-44.5 4.5-3.7-2c-.3 2-.8 4-1.6 5.8Zm1.6-12.3 3.7-2 44.5 4.4c0-3.4-.3-6.7-.8-10a8 8 0 0 1-4.1-15.4 71.6 71.6 0 0 0-4.4-9l-36.3 26-4.2.1a23 23 0 0 1 1.6 6Zm-4.8-11.5 2.2-3.6 40.7-18.4a72.2 72.2 0 0 0-5.7-8.2 8 8 0 0 1-11.3-11.3 72 72 0 0 0-8.2-5.7L274 235.3l-3.6 2.1c1.6 1.3 3 2.7 4.3 4.3Zm-10-7.5.2-4.2 26-36.3a53.3 53.3 0 0 0-9-4.3 8 8 0 0 1-15.4-4.2c-3.3-.5-6.6-.7-10-.8L261 229l-2.1 3.7c2 .3 4 .8 5.9 1.6Zm-12.2-1.6-2-3.7 4.4-44.5c-3.4 0-6.8.3-10 .8a8 8 0 0 1-15.5 4.2 71.7 71.7 0 0 0-9 4.3l26.1 36.3v4.2c2-.8 4-1.3 6-1.6Zm-11.5 4.8-3.6-2.1-18.4-40.8a72.2 72.2 0 0 0-8.3 5.7 8 8 0 0 1-11.3 11.3 72 72 0 0 0-5.7 8.2l40.8 18.4 2.2 3.6a25 25 0 0 1 4.3-4.3Zm-7.5 10-4.2-.2-36.4-26c-1.6 2.8-3 5.8-4.3 9a8 8 0 0 1-4.1 15.4c-.5 3.3-.8 6.6-.8 10l44.5-4.4 3.7 2c.3-2 .8-4 1.6-5.9Zm-1.6 12.2-3.7 2-44.5-4.4c0 3.4.3 6.8.8 10a8 8 0 0 1 4.1 15.5c1.2 3.1 2.7 6.1 4.3 9l36.3-26.1h4.3c-.8-2-1.3-3.9-1.6-6Zm4.8 11.5-2.2 3.6-40.8 18.4c1.7 3 3.6 5.7 5.7 8.3a8 8 0 0 1 11.3 11.3c2.6 2 5.4 4 8.3 5.7l18.4-40.8 3.6-2.2a25 25 0 0 1-4.3-4.3Zm19 73.3a88 88 0 1 0 0-176 88 88 0 0 0 0 176Z" clip-rule="evenodd"/></g><path fill="#EEE" d="M437 75a256 256 0 0 1-180.9 437h-.2a255 255 0 0 1-172.7-67.2L192 336v-16l32-32h64v-64L437 75Z"/><path fill="#0052B4" d="M459.4 100.6A255 255 0 0 1 504 192H368l91.4-91.4Zm0 310.8A255 255 0 0 0 504 320H368l91.4 91.4Zm-48 48L320 368v136a255 255 0 0 0 91.4-44.6ZM192 504V368l-91.4 91.4A255 255 0 0 0 192 504Z"/><path fill="#D80027" d="M510 288a258.4 258.4 0 0 0 0-64H288l-64 64v222c10.4 1.3 21 2 31.9 2h.2c10.8 0 21.5-.7 31.9-2V288h222Z"/><path fill="#D80027" d="M452.3 420.3 352 320h-32l117 117c5.4-5.3 10.5-10.9 15.3-16.7Zm-360.6 32L192 352v-32L75 437c5.3 5.4 10.9 10.5 16.7 15.3Z"/></g><defs><clipPath id="a"><path fill="#fff" d="M0 0h512v512H0z"/></clipPath></defs></svg>