<svg xmlns="http://www.w3.org/2000/svg" width="512" height="512" fill="none"><g clip-path="url(#a)"><mask id="b" width="512" height="512" x="0" y="0" maskUnits="userSpaceOnUse" style="mask-type:alpha"><path fill="#F0F" d="M437 75V0H0v437h75l277-85 85-277Z"/></mask><g mask="url(#b)"><circle cx="256" cy="256" r="256" fill="#EEE"/><path fill="#333" fill-rule="evenodd" d="M486.6 144.7H25.4a256 256 0 0 1 461.2 0Z" clip-rule="evenodd"/><path fill="#496E2D" fill-rule="evenodd" d="M255.4 512a256 256 0 0 1-230-144.7h461.2a256 256 0 0 1-230 144.7h-1.2Z" clip-rule="evenodd"/><path fill="#A2001D" fill-rule="evenodd" d="M500 334a255.9 255.9 0 0 0 0-156H12a255.9 255.9 0 0 0 0 156h488Z" clip-rule="evenodd"/></g><path fill="#EEE" d="m223.7 118.3-30.3-14L144 216.2 94.6 104.3l-30.3 14L125.6 256 64.3 393.7l30.3 14L144 295.8l49.4 111.9 30.3-14L162.4 256l61.3-137.7Z"/><path fill="#EEE" d="M164.6 131.5a235.7 235.7 0 0 0-20.6-20.2s-8.9 7.4-20.6 20.2v249a235.6 235.6 0 0 0 20.6 20.2s8.9-7.4 20.6-20.2v-249Z"/><path fill="#A2001D" d="M88.3 179.2v153.6a269 269 0 0 0 39 51.9V127.3c-11.4 12-26.6 30-39 52Zm111.4 0a269 269 0 0 0-39-51.9v257.4c11.4-12 26.5-30 39-52V179.3Z"/><path fill="#333" d="M199.7 179.2v153.6a157.7 157.7 0 0 0 22.2-76.8c0-28.2-9.7-54.5-22.2-76.8Zm-111.4 0v153.6A157.7 157.7 0 0 1 66.1 256c0-28.2 9.7-54.5 22.2-76.8Z"/><path fill="#EEE" d="M437 75a256 256 0 0 1-180.9 437h-.2a255 255 0 0 1-172.7-67.2L192 336v-16l32-32h64v-64L437 75Z"/><path fill="#0052B4" d="M459.4 100.6A255 255 0 0 1 504 192H368l91.4-91.4Zm0 310.8A255 255 0 0 0 504 320H368l91.4 91.4Zm-48 48L320 368v136a255 255 0 0 0 91.4-44.6ZM192 504V368l-91.4 91.4A255 255 0 0 0 192 504Z"/><path fill="#D80027" d="M510 288a258.4 258.4 0 0 0 0-64H288l-64 64v222c10.4 1.3 21 2 31.9 2h.2c10.8 0 21.5-.7 31.9-2V288h222Z"/><path fill="#D80027" d="M452.3 420.3 352 320h-32l117 117c5.4-5.3 10.5-10.9 15.3-16.7Zm-360.6 32L192 352v-32L75 437c5.3 5.4 10.9 10.5 16.7 15.3Z"/></g><defs><clipPath id="a"><path fill="#fff" d="M0 0h512v512H0z"/></clipPath></defs></svg>