<svg xmlns="http://www.w3.org/2000/svg" width="512" height="512" fill="none"><g clip-path="url(#a)"><mask id="b" width="513" height="512" x="0" y="0" maskUnits="userSpaceOnUse" style="mask-type:alpha"><path fill="#F0F" d="M75 437v75h437V75h-75l-277 85-85 277Z"/></mask><g mask="url(#b)"><circle cx="256" cy="256" r="256" fill="#026"/></g><path fill="#D80027" d="m451.4 240.3 5.5 17h17.9L460.3 268l5.5 17-14.4-10.5-14.5 10.5 5.5-17-14.5-10.5h18l5.5-17Z"/><path fill="#EEE" fill-rule="evenodd" d="m451.4 230 7.8 24.2h25.4L464.1 269l7.8 24.1-20.5-14.9-20.6 15 7.9-24.2-20.6-15h25.4l7.9-24.1Zm0 20.7-3.2 9.9h-10.4l8.4 6-3.2 9.9 8.4-6 8.3 6-3.2-9.9 8.4-6h-10.3l-3.2-9.9Z" clip-rule="evenodd"/><path fill="#D80027" d="m387.4 362.8 8.3 25.5h26.8L400.8 404l8.3 25.5-21.7-15.8-21.7 15.8L374 404l-21.7-15.8h26.8l8.3-25.5Z"/><path fill="#EEE" fill-rule="evenodd" d="m387.4 352.4 10.7 32.7h34.3l-27.8 20.2 10.6 32.6-27.8-20.1-27.8 20.1 10.7-32.6-27.8-20.2h34.3l10.6-32.7Zm0 20.7-6 18.4h-19.2l15.6 11.3-6 18.4 15.6-11.4 15.7 11.4-6-18.4 15.6-11.3h-19.3l-6-18.4Z" clip-rule="evenodd"/><path fill="#D80027" d="m389.9 162.4 6.9 21.3H419l-18 13.1 6.8 21.3-18-13.2-18.1 13.2 6.9-21.3-18.1-13.1h22.3l7-21.3Z"/><path fill="#EEE" fill-rule="evenodd" d="m389.9 152 9.2 28.5H429L404.8 198l9.2 28.4-24.1-17.6-24.2 17.6 9.2-28.4-24.2-17.6h30l9.2-28.4Zm0 20.8-4.6 14h-14.9l12 8.8-4.5 14.1 12-8.7 12 8.7-4.6-14 12-8.8h-14.9l-4.5-14.1Z" clip-rule="evenodd"/><path fill="#D80027" d="m328.3 239.6 8.3 25.5h26.9L341.8 281l8.2 25.5-21.7-15.8-21.7 15.8 8.3-25.5-21.7-15.8h26.9l8.2-25.5Z"/><path fill="#EEE" fill-rule="evenodd" d="m328.3 229.3 10.7 32.6h34.3l-27.8 20.2 10.6 32.7-27.8-20.2-27.7 20.2 10.6-32.7-27.8-20.2h34.3l10.6-32.6Zm0 20.7-6 18.3h-19.2l15.6 11.4-6 18.3 15.6-11.3L344 298l-6-18.3 15.6-11.4h-19.3l-6-18.3Z" clip-rule="evenodd"/><path fill="#EEE" d="M75 437A256 256 0 0 1 255.9 0h.2a255 255 0 0 1 172.7 67.2L320 176v16l-32 32h-64v64L75 437Z"/><path fill="#0052B4" d="M52.6 411.4A255 255 0 0 1 8 320h136l-91.4 91.4Zm0-310.8A255 255 0 0 0 8 192h136l-91.4-91.4Zm48-48L192 144V8a255 255 0 0 0-91.4 44.6ZM320 8v136l91.4-91.4A255 255 0 0 0 320 8Z"/><path fill="#D80027" d="M2 224a258.5 258.5 0 0 0 0 64h222l64-64V2c-10.4-1.3-21-2-31.9-2h-.2C245 0 234.4.7 224 2v222H2Z"/><path fill="#D80027" d="M59.7 91.7 160 192h32L75 75a219.3 219.3 0 0 0-15.3 16.7Zm360.6-32L320 160v32L437 75a219.3 219.3 0 0 0-16.7-15.3Z"/></g><defs><clipPath id="a"><path fill="#fff" d="M0 0h512v512H0z"/></clipPath></defs></svg>