<svg xmlns="http://www.w3.org/2000/svg" width="512" height="512" fill="none"><g clip-path="url(#a)"><mask id="b" width="513" height="512" x="-1" y="0" maskUnits="userSpaceOnUse" style="mask-type:alpha"><path fill="#F0F" d="M437 75V0H0v437h75l277-85 85-277Z"/></mask><g mask="url(#b)"><path fill="#D80027" d="M256 512a256 256 0 0 0 256-255.5v-.5l-256-32L0 256a256 256 0 0 0 256 256Z"/><path fill="#0052B4" d="M512 255.5v.5H0a256 256 0 0 1 512-.5Z"/><path fill="#EEE" d="M0 245.6A255.2 255.2 0 0 1 74.9 74.9L256 256 74.9 437.1A255.2 255.2 0 0 1 0 266.4v-20.8Z"/><path fill="#FFC635" d="m71 103.4 11.3 13.3 16-6.7-9 14.9 11.3 13.2-17-4-9 14.8-1.4-17.3-17-4.1 16.1-6.7-1.3-17.4Zm0 305.2 1.3-17.4-16-6.7 16.9-4 1.3-17.4 9.1 14.8 17-4L89.3 387l9 14.9-16-6.7L71 408.6ZM233.6 256l-16.6 5.4v17.4l-10.2-14-16.6 5.3 10.2-14.1-10.2-14.1 16.6 5.4 10.2-14.1v17.4l16.6 5.4Zm-126.8-71.2 4 4-6 29.7c5 1 9.6 3 13.6 5.6l16.9-25.2h5.6l-20.4 26.7 1.9 1.5L147 199h7v7l-28.3 24.7 1.6 2 26.7-20.5v5.6l-25.2 16.8a38 38 0 0 1 5.6 13.6l29.7-5.9 4 4-33.3 4.4.2 2.4 37.5-2.4 4.9 4.9-5 5-37.4-2.5-.2 2.4 33.3 4.4-4 4-29.7-6c-1 5-3 9.6-5.6 13.7l25.2 16.8v5.6l-26.7-20.4-1.6 1.9 28.3 24.7v7h-7L122.3 284l-2 1.5 20.5 26.7h-5.6L118.3 287c-4 2.7-8.6 4.6-13.5 5.6l5.9 29.7-4 4-4.4-33.3-2.4.2 2.4 37.5-5 4.9-4.8-5 2.4-37.4-2.4-.2-4.4 33.3-4-4 6-29.7c-5-1-9.6-3-13.7-5.6l-16.7 25H54l20.4-26.7-1.9-1.5L48 312h-7v-7l28.2-24.7-1.5-2L40.9 299v-5.6l25.2-16.8a38 38 0 0 1-5.6-13.6l-29.7 5.9-4-4 33.3-4.4-.2-2.4-37.5 2.4-5-4.9 5-5L60 253c0-.8 0-1.6.2-2.4l-33.3-4.4 4-4 29.7 6c1-5 3-9.6 5.6-13.7L41 217.7v-5.6l26.7 20.4 1.5-1.9L41 206v-7h7l24.7 28.2 2-1.5L54 198.9h5.6l16.8 25.2a38 38 0 0 1 13.6-5.6l-5.9-29.7 4-4 4.4 33.3 2.4-.2-2.4-37.5 4.9-4.9 5 5-2.5 37.4 2.4.2 4.4-33.3Z"/></g><path fill="#EEE" d="M437 75a256 256 0 0 1-180.9 437h-.2a255 255 0 0 1-172.7-67.2L192 336v-16l32-32h64v-64L437 75Z"/><path fill="#0052B4" d="M459.4 100.6A255 255 0 0 1 504 192H368l91.4-91.4Zm0 310.8A255 255 0 0 0 504 320H368l91.4 91.4Zm-48 48L320 368v136a255 255 0 0 0 91.4-44.6ZM192 504V368l-91.4 91.4A255 255 0 0 0 192 504Z"/><path fill="#D80027" d="M510 288a258.4 258.4 0 0 0 0-64H288l-64 64v222c10.4 1.3 21 2 31.9 2h.2c10.8 0 21.5-.7 31.9-2V288h222Z"/><path fill="#D80027" d="M452.3 420.3 352 320h-32l117 117c5.4-5.3 10.5-10.9 15.3-16.7Zm-360.6 32L192 352v-32L75 437c5.3 5.4 10.9 10.5 16.7 15.3Z"/></g><defs><clipPath id="a"><path fill="#fff" d="M0 0h512v512H0z"/></clipPath></defs></svg>