<svg xmlns="http://www.w3.org/2000/svg" width="512" height="512" fill="none"><g clip-path="url(#a)"><mask id="b" width="513" height="512" x="-1" y="0" maskUnits="userSpaceOnUse" style="mask-type:alpha"><path fill="#F0F" d="M437 75V0H0v437h75l277-85 85-277Z"/></mask><g mask="url(#b)"><path fill="#EEE" d="M256 512a256 256 0 0 0 256-255.5v-.5l-256-32L0 256a256 256 0 0 0 256 256Z"/><path fill="#D80027" d="M512 255.5v.5H0a256 256 0 0 1 512-.5Z"/><path fill="#EEE" d="M154.9 128A78 78 0 0 1 216 51.9a78 78 0 1 0 0 152.2 78 78 0 0 1-61.2-76.1ZM255 55.7l5.6 17h17.8L264 83.2l5.5 17L255 89.7l-14.4 10.5 5.5-17-14.5-10.5h18l5.4-17Z"/><path fill="#EEE" d="m211.7 89 5.5 17H235l-14.5 10.6 5.5 17-14.4-10.5-14.5 10.5 5.5-17-14.4-10.6H206l5.6-17Zm86.7 0 5.5 17h18l-14.5 10.6 5.5 17-14.5-10.5-14.5 10.5 5.6-17L275 106h18l5.5-17Zm-16.7 50.1 5.5 17h18l-14.5 10.5 5.5 17-14.5-10.5-14.4 10.6 5.5-17-14.5-10.6h17.9l5.5-17Zm-53.3 0 5.5 17h17.9l-14.5 10.5 5.5 17-14.4-10.5-14.5 10.6 5.5-17L205 156h18l5.5-17Z"/></g><path fill="#EEE" d="M437 75a256 256 0 0 1-180.9 437h-.2a255 255 0 0 1-172.7-67.2L192 336v-16l32-32h64v-64L437 75Z"/><path fill="#0052B4" d="M459.4 100.6A255 255 0 0 1 504 192H368l91.4-91.4Zm0 310.8A255 255 0 0 0 504 320H368l91.4 91.4Zm-48 48L320 368v136a255 255 0 0 0 91.4-44.6ZM192 504V368l-91.4 91.4A255 255 0 0 0 192 504Z"/><path fill="#D80027" d="M510 288a258.4 258.4 0 0 0 0-64H288l-64 64v222c10.4 1.3 21 2 31.9 2h.2c10.8 0 21.5-.7 31.9-2V288h222Z"/><path fill="#D80027" d="M452.3 420.3 352 320h-32l117 117c5.4-5.3 10.5-10.9 15.3-16.7Zm-360.6 32L192 352v-32L75 437c5.3 5.4 10.9 10.5 16.7 15.3Z"/></g><defs><clipPath id="a"><path fill="#fff" d="M0 0h512v512H0z"/></clipPath></defs></svg>