<svg xmlns="http://www.w3.org/2000/svg" width="512" height="512" fill="none"><g clip-path="url(#a)"><mask id="c" width="512" height="513" x="0" y="-1" maskUnits="userSpaceOnUse" style="mask-type:alpha"><path fill="#F0F" d="M437 437h75V0H75v75l85 277 277 85Z"/></mask><g clip-path="url(#b)" mask="url(#c)"><path fill="#338AF3" d="M437 75 224 224 75 437a256 256 0 0 0 437-178.2v-5.7A255.2 255.2 0 0 0 437 75Z"/><path fill="#6DA544" d="M437 75 75 437A256 256 0 0 1 437 75Z"/><path fill="#FFDA44" d="M372.2 27.8a257.1 257.1 0 0 1 112 112L139.8 484.2a257.1 257.1 0 0 1-112-112L372.2 27.8Z"/><path fill="#333" d="M402.2 45.8a256 256 0 0 1 64 64L109.8 466.2a256 256 0 0 1-64-64L402.2 45.8Z"/></g><path fill="#EEE" d="M437 437A256 256 0 0 1 0 256.1v-.2A255 255 0 0 1 67.2 83.2L176 192h16l32 32v64h64l149 149Z"/><path fill="#0052B4" d="M411.4 459.4A255 255 0 0 1 320 504V368l91.4 91.4Zm-310.8 0A255 255 0 0 0 192 504V368l-91.4 91.4Zm-48-48L144 320H8a255 255 0 0 0 44.6 91.4ZM8 192h136l-91.4-91.4A255 255 0 0 0 8 192Z"/><path fill="#D80027" d="M224 510a258.4 258.4 0 0 0 64 0V288l-64-64H2c-1.3 10.4-2 21-2 31.9v.2c0 10.8.7 21.5 2 31.9h222v222Z"/><path fill="#D80027" d="M91.7 452.3 192 352v-32L75 437c5.3 5.4 10.9 10.5 16.7 15.3Zm-32-360.6L160 192h32L75 75a219.3 219.3 0 0 0-15.3 16.7Z"/></g><defs><clipPath id="a"><path fill="#fff" d="M0 0h512v512H0z"/></clipPath><clipPath id="b"><path fill="#fff" d="M0 0h512v512H0z"/></clipPath></defs></svg>