<svg xmlns="http://www.w3.org/2000/svg" width="512" height="512" fill="none"><g clip-path="url(#a)"><g clip-path="url(#b)"><path fill="#0052B4" d="M256 512a256 256 0 0 0 256-255.5v-.5l-256-32L0 256a256 256 0 0 0 256 256Z"/><path fill="#D80027" d="M512 255.5v.5H0a256 256 0 0 1 512-.5Z"/><path fill="#6DA544" fill-rule="evenodd" d="M512 255.3v1.4c0 11-.8 22-2.2 32.7h-242L99 458.2C38.8 411.4 0 338.2 0 256c0-82.2 38.8-155.4 99-202.2l169 168.8h242c1.3 10.7 2 21.6 2.1 32.7Z" clip-rule="evenodd"/><path fill="#EEE" fill-rule="evenodd" d="M503.6 321.4H281L126 476.6a256.5 256.5 0 0 1-27-18.4L269.3 288H510a254.9 254.9 0 0 1-6.4 33.4ZM126 35.4l155 155.2h222.5c2.8 10.9 5 22 6.4 33.4H269.3L99 53.8a262 262 0 0 1 27-18.4Z" clip-rule="evenodd"/><path fill="#333" fill-rule="evenodd" d="M54 413.2C20 369.8 0 315.2 0 256c0-59.3 20.1-113.8 54-157.2L211.2 256 54 413.2Z" clip-rule="evenodd"/><path fill="#FFDA44" fill-rule="evenodd" d="M35.6 125.7a262 262 0 0 1 18.4-27L211.2 256 54 413.2a256.5 256.5 0 0 1-18.4-26.9L166 256 35.6 125.7Z" clip-rule="evenodd"/></g><path fill="#EEE" d="M437 75a256 256 0 0 1-180.9 437h-.2a255 255 0 0 1-172.7-67.2L192 336v-16l32-32h64v-64L437 75Z"/><path fill="#0052B4" d="M459.4 100.6A255 255 0 0 1 504 192H368l91.4-91.4Zm0 310.8A255 255 0 0 0 504 320H368l91.4 91.4Zm-48 48L320 368v136a255 255 0 0 0 91.4-44.6ZM192 504V368l-91.4 91.4A255 255 0 0 0 192 504Z"/><path fill="#D80027" d="M510 288a258.4 258.4 0 0 0 0-64H288l-64 64v222c10.4 1.3 21 2 31.9 2h.2c10.8 0 21.5-.7 31.9-2V288h222Z"/><path fill="#D80027" d="M452.3 420.3 352 320h-32l117 117c5.4-5.3 10.5-10.9 15.3-16.7Zm-360.6 32L192 352v-32L75 437c5.3 5.4 10.9 10.5 16.7 15.3Z"/></g><defs><clipPath id="a"><path fill="#fff" d="M0 0h512v512H0z"/></clipPath><clipPath id="b"><path fill="#fff" d="M0 0h512v512H0z"/></clipPath></defs></svg>