<svg xmlns="http://www.w3.org/2000/svg" width="512" height="512" fill="none"><g clip-path="url(#a)"><circle cx="256" cy="256" r="256" fill="#EEE"/><path fill="#D80027" d="M256 72a184 184 0 1 0-.4 368 184 184 0 0 0 .4-368Zm0 48c35 0 70 13 96 40 22 22 22 57 0 79a55 55 0 0 1-79 0 104 104 0 0 0-153 6 138 138 0 0 1 136-125Zm-56 136c14 0 28 6 39 17a104 104 0 0 0 153-6c-3 31-16 61-40 85-52 53-137 53-190 2l-1-1-1-1a55 55 0 0 1 0-79c11-11 25-17 40-17Z"/></g><defs><clipPath id="a"><path fill="#fff" d="M0 0h512v512H0z"/></clipPath></defs></svg>