<svg xmlns="http://www.w3.org/2000/svg" width="512" height="512" fill="none"><g clip-path="url(#a)"><circle cx="256" cy="256" r="256" fill="#FFDA44"/><path fill="#D80027" d="M245.6 512a255.2 255.2 0 0 1-170.7-74.9L256 256l181.1 181.1A255.2 255.2 0 0 1 266.4 512h-20.8Z"/><path fill="#EEE" d="M512 266.4a255.2 255.2 0 0 1-74.9 170.7L256 256 437.1 74.9A255.2 255.2 0 0 1 512 245.6v20.8Z"/><path fill="#0052B4" d="M266.4 0a255.2 255.2 0 0 1 170.7 74.9L256 256 74.9 74.9A255.2 255.2 0 0 1 245.6 0h20.8Z"/></g><defs><clipPath id="a"><path fill="#fff" d="M0 0h512v512H0z"/></clipPath></defs></svg>