<svg xmlns="http://www.w3.org/2000/svg" width="512" height="512" viewBox="0 0 512 512"><mask id="a"><circle cx="256" cy="256" r="256" fill="#fff"/></mask><g mask="url(#a)"><path fill="#d80027" d="M0 0h512v512H0Z"/><path fill="#ffda44" d="m190 112-7 2c-17 9-32 20-45 34-6-22-23-26-23-26s-14 12-7 35c2 9 6 15 10 19-8 14-15 29-18 45-17-15-33-10-33-10s-6 17 11 34c6 6 13 9 18 11 0 17 3 33 7 48-22-5-33 7-33 7s4 18 26 24c9 2 16 2 21 1 8 14 19 27 31 38-22 6-26 23-26 23s12 13 35 7c9-2 15-6 19-10a158 158 0 0 0 161 0c3 4 9 8 18 10 22 6 35-7 35-7s-4-17-26-23c12-11 22-24 31-38 5 1 12 1 21-1 22-6 26-24 26-24s-11-12-33-7c4-15 7-31 7-48 5-2 12-5 18-11 17-17 11-34 11-34s-17-5-33 10c-4-16-10-31-18-45 4-4 8-10 10-19 7-23-7-35-7-35s-17 4-23 26c-13-14-28-26-45-34-3-2-6-2-9-2a16 16 0 0 0-6 30c9 5 17 10 25 17-13 1-20 8-20 8s4 18 27 24c8 2 15 2 20 1 5 7 8 14 11 21-12-5-22-2-22-2s-5 17 11 34c6 6 13 9 18 11l-2 23c-8-10-18-13-18-13s-13 12-7 35c2 9 6 15 10 19l-14 19c-1-13-8-20-8-20s-18 4-24 27c-2 8-2 15-1 21a128 128 0 0 1-129 0c2-6 3-13 0-21-6-23-23-27-23-27s-8 7-9 20l-14-19c4-4 8-10 10-19 6-22-7-35-7-35s-10 2-18 13l-2-23c5-2 12-5 18-11 17-17 11-34 11-34s-10-3-22 2l11-21c5 1 12 1 20-1 23-6 27-24 27-24 0 1-7-7-20-8l25-17c8-4 11-13 7-21-3-5-8-9-13-9h-3z"/></g></svg>