<svg xmlns="http://www.w3.org/2000/svg" width="512" height="512" fill="none"><g clip-path="url(#a)"><path fill="#EEE" d="M256 512a256 256 0 0 0 256-255.5v-.5l-256-32L0 256a256 256 0 0 0 256 256Z"/><path fill="#FF9811" d="M512 255.5v.5H0a256 256 0 0 1 512-.5Z"/><path fill="#EEE" d="M512 266.4a255.2 255.2 0 0 1-74.9 170.7L256 256 437.1 74.9A255.2 255.2 0 0 1 512 245.6v20.8Z"/><path fill="#A2001D" fill-rule="evenodd" d="m96 141.4 18.6 18.6h26.8l18.6-18.6v-26.8L141.4 96h-26.8L96 114.6v26.8ZM80 108v40l28 28h40l28-28v-40l-28-28h-40l-28 28Z" clip-rule="evenodd"/></g><defs><clipPath id="a"><path fill="#fff" d="M0 0h512v512H0z"/></clipPath></defs></svg>