<svg xmlns="http://www.w3.org/2000/svg" width="512" height="512" fill="none"><g clip-path="url(#a)"><mask id="b" width="512" height="512" x="0" y="0" maskUnits="userSpaceOnUse" style="mask-type:alpha"><path fill="#F0F" d="M437 75V0H0v437h75l277-85 85-277Z"/></mask><g mask="url(#b)"><path fill="#D80027" d="M376 29.8A254.9 254.9 0 0 0 256 0c-43.4 0-84.2 10.8-120 29.8v452.4c35.8 19 76.6 29.8 120 29.8 43.4 0 84.2-10.8 120-29.8V29.8Z"/><path fill="#D80027" d="M344 15.5a256.1 256.1 0 0 1 0 481v-481Z"/><path fill="#496E2D" d="M168 15.5v481a256.1 256.1 0 0 1 0-481Z"/><path fill="#FFDA44" d="M167 345a89 89 0 1 0 0-178 89 89 0 0 0 0 178Z"/><path fill="#D80027" d="M116.9 211.5V267a50 50 0 1 0 100.1 0v-55.6H117Z"/><path fill="#EEE" d="M167 283.8c-9.2 0-16.7-7.5-16.7-16.7V245h33.4v22c0 9.2-7.5 16.7-16.7 16.7Z"/></g><path fill="#6DA544" fill-rule="evenodd" d="M437 75a256 256 0 0 1-180.9 437h-.2a255.2 255.2 0 0 1-181-75L437 75Z" clip-rule="evenodd"/><path fill="#FFDA44" fill-rule="evenodd" d="M345.7 166.3 467.5 256 256 411.8l-89.7-66 179.4-179.5Z" clip-rule="evenodd"/><path fill="#EEE" fill-rule="evenodd" d="m193 319 126-126a89 89 0 0 1-126 126Z" clip-rule="evenodd"/><path fill="#0052B4" fill-rule="evenodd" d="M319 193a88.8 88.8 0 0 1 24.4 80 184.4 184.4 0 0 0-62.2-42.2L319 193Zm-64 64-62 62a88.7 88.7 0 0 0 135.8-11.8A150.8 150.8 0 0 0 255 257Z" clip-rule="evenodd"/></g><defs><clipPath id="a"><path fill="#fff" d="M0 0h512v512H0z"/></clipPath></defs></svg>