<svg xmlns="http://www.w3.org/2000/svg" width="512" height="512" fill="none"><g clip-path="url(#a)"><circle cx="256" cy="256" r="256" fill="#4A1F63"/><path fill="#FFDA44" d="M0 245.6A256 256 0 0 1 256 0v256H0v-10.4Z"/><path fill="#4A1F63" d="M152 72a80 80 0 1 0 0 160 80 80 0 0 0 0-160Zm-19.2 15.4a82.3 82.3 0 0 0-17 23.8l-13-5.4a63.9 63.9 0 0 1 30-18.4Zm38.4 0c11.6 3 22.3 10 30 18.4l-13 5.4a82.3 82.3 0 0 0-17-23.8Zm-13 3.8c5.3 5.4 12.3 13.1 18.4 23.1l-18.4 3v-26Zm-12.4 0v26.2l-18.4-3c6.1-10 13-17.8 18.4-23.2Zm63.1 23.9c6.2 9.2 9.3 20 10.8 30.7h-21.5a82.7 82.7 0 0 0-5.4-23.8l16.1-7Zm-113.8 0 16.1 6.9c-3 7.7-4.6 15.4-5.4 23.8H84.3a73.7 73.7 0 0 1 10.8-30.7Zm86.1 10.7a82.1 82.1 0 0 1 4.6 20h-27.6v-16.1l23-3.9Zm-58.4 0 23 3.9v16.1h-27.6c.7-6.9 2.3-13.8 4.6-20Zm-38.5 32.4h21.5c.8 8.4 2.4 16.1 5.4 23.8l-16.1 7a70.2 70.2 0 0 1-10.8-30.8Zm33.9 0h27.6v16.1l-23 3.9a82.1 82.1 0 0 1-4.6-20Zm40 0h27.6a82.1 82.1 0 0 1-4.6 20l-23-3.9v-16.1Zm40 0h21.5a70.1 70.1 0 0 1-10.8 30.7l-16.1-6.9c3-7.7 4.6-15.4 5.4-23.8Zm-52.4 28.4v26.2a105.2 105.2 0 0 1-18.4-23.1l18.4-3Zm12.4 0 18.4 3c-6.1 10-13 18.6-18.4 23.2v-26.2Zm30 6.2c5.3 2.3 10 3.8 13 6.1a68.5 68.5 0 0 1-30 17.7 82.3 82.3 0 0 0 17-23.8Zm-72.4 0a82.3 82.3 0 0 0 17 23.8 62.6 62.6 0 0 1-30-17.7l13-6.1Z"/></g><defs><clipPath id="a"><path fill="#fff" d="M0 0h512v512H0z"/></clipPath></defs></svg>