<svg xmlns="http://www.w3.org/2000/svg" width="512" height="512" fill="none"><g clip-path="url(#a)"><circle cx="256" cy="256" r="256" fill="#EEE"/><path fill="#333" fill-rule="evenodd" d="M415.8 56c23 18.4 42.8 40.8 58.4 66H37.8a257.3 257.3 0 0 1 58.4-66h319.6Zm0 400c23-18.4 42.8-40.8 58.4-66H37.8a257.3 257.3 0 0 0 58.4 66h319.6ZM273 172h-34l7 15v41.9a44 44 0 0 1-34-42l7-14.9h-34l7 15a64 64 0 0 0 54 62.2v20.2a84 84 0 0 1-74-82.4l7-15h-34l7 15a104 104 0 0 0 94 102.5V319l-49 11v14h118v-14l-49-11v-29.5A104 104 0 0 0 360 187l7-15h-34l7 15a84 84 0 0 1-74 82.4v-20.2a64 64 0 0 0 54-62.2l7-15h-34l7 15a44 44 0 0 1-34 41.9V187l7-15Z" clip-rule="evenodd"/></g><defs><clipPath id="a"><path fill="#fff" d="M0 0h512v512H0z"/></clipPath></defs></svg>