<svg xmlns="http://www.w3.org/2000/svg" xml:space="preserve" width="512" height="512"><mask id="a"><circle cx="256" cy="256" r="256" fill="#fff"/></mask><g mask="url(#a)"><path fill="#fff" d="M0 0h512v512H0z" style="fill:#000"/><path d="M256.007 108c-57.552 0-104.216 46.667-104.216 104.219 0 28.774 11.632 54.842 30.505 73.711 9.433 9.437 15.522 68.838 27.995 74.12 12.473 5.267 79.04 5.267 91.513 0 12.473-5.282 18.482-64.683 27.915-74.12 18.872-18.869 30.585-44.937 30.585-73.711 0-57.552-46.745-104.219-104.297-104.219Zm-170 55.347c-12.38.297-23.99 7.819-28.806 20.065-6.422 16.328 1.634 34.845 17.963 41.267 7.93 3.117 16.394 2.674 23.709-.324l44.177 17.314c-2.464-9.484-4.207-19.215-4.207-29.45 0-6.988.84-13.737 2.024-20.392l-25.327-9.95c-3.312-7.18-9.142-13.227-17.075-16.348a31.935 31.935 0 0 0-12.459-2.182zm340.001 0a31.969 31.969 0 0 0-12.482 2.182c-7.923 3.121-13.744 9.09-17.075 16.266l-25.31 9.95c1.193 6.682 2.105 13.457 2.105 20.474 0 10.248-1.795 20.04-4.288 29.531l44.244-17.395c7.341 2.998 15.717 3.36 23.64.243 16.33-6.422 24.382-24.777 17.98-41.105-4.819-12.246-16.428-19.826-28.814-20.146zm-212.567 23.707c16.343 0 29.615 13.271 29.615 29.615 0 16.343-13.272 29.615-29.615 29.615-16.344 0-29.615-13.272-29.615-29.615 0-16.344 13.271-29.615 29.615-29.615zm85.12 0c16.343 0 29.615 13.271 29.615 29.615 0 16.343-13.272 29.615-29.615 29.615-16.344 0-29.615-13.272-29.615-29.615 0-16.344 13.271-29.615 29.615-29.615zm-140.878 88.68-58.822 23.141c-7.315-2.994-15.778-3.36-23.71-.242-16.328 6.422-24.385 24.858-17.963 41.185 6.422 16.331 24.938 24.302 41.264 17.883 7.932-3.12 13.763-9.087 17.074-16.262l64.004-25.166c-1.022-4.026-2.099-8.553-3.076-11.813-1.927-6.429-5.348-11.338-3.398-9.388-5.834-5.83-10.879-12.375-15.374-19.338zm196.622 0c-4.517 6.972-9.617 13.501-15.454 19.338 1.956-1.956-1.478 2.96-3.399 9.388-.967 3.237-2.06 7.735-3.075 11.732l64.068 25.247c3.33 7.175 9.152 13.145 17.074 16.262 16.331 6.42 34.86-1.552 41.296-17.883 6.403-16.327-1.65-34.763-17.98-41.185-7.923-3.118-16.298-2.752-23.64.242l-58.896-23.14z" style="color:#000;opacity:1;fill:#fff;fill-opacity:1;stroke-width:3.2338"/></g><path d="M256 252.011a6.299 6.299 0 0 0-5.194 2.735l-15.425 26.719a6.3 6.3 0 0 0 .227 5.865 6.3 6.3 0 0 0 5.032 3.13h30.72a6.3 6.3 0 0 0 5.032-3.13 6.299 6.299 0 0 0 .227-5.865l-15.392-26.66A6.299 6.299 0 0 0 256 252.01z" style="fill:#000;stroke-width:.099866"/></svg>