<svg xmlns="http://www.w3.org/2000/svg" viewBox="0 0 512 512">
  <path fill="#eee" d="M512 20.36v469.699L23.81 255.75z"/>
  <path fill="#a2001d" d="M445.2 246.5h-30.5c8-9.6 7.5-23.7-1.5-32.7a24.2 24.2 0 000-34.2l-.5.5a25 25 0 00.5-34.8l-137 137a23.9 23.9 0 0034 0l2.6-2.5 65.6-6v28.3h22.3v-30.2l33.4-3z"/>
  <path fill="#ffda44" d="M278.3 311.7L256 300.5l22.3-11.1H423v22.3z"/>
  <path fill="#0052b4" d="M0 0v512h512L28.736 256.167 512 0z"/>
  <path fill="#d80027" d="M512 0L0 256l512 256v-21.941L43.8 256 512 20.36z"/>
</svg>
