<svg xmlns="http://www.w3.org/2000/svg" viewBox="0 0 512 512">
  <path fill="#0052b4" d="M0 44.629l255.252-26.661L512 44.628v194.673L493.667 256 512 272.7V467.37l-255.525 27.547L0 467.37V272.7l17.451-17.294L0 239.3z"/>
  <path fill="#eee" d="M100.2 256.1l155.8-98 155.8 98-155.8 98z"/>
  <path fill="#6da544" d="M167 300.6h200.3l-44.5-66.8-22.3 22.3-22.2-11-22.3 33.3h-44.5l-22.3-22.3z"/>
  <path fill="#ffda44" d="M256 189.3l5.5 17h18l-14.6 10.5 5.6 17-14.5-10.5-14.5 10.5 5.6-17-14.5-10.5h17.9z"/>
  <path d="M0 0v44.629h239.4v95.97l-157 98.702H0v33.398h82l157.3 99v95.672H0V512h512v-44.629H272.7V371.6L430 272.7h82v-33.4h-82.4l-156.9-98.6V44.628H512V0H0zm256 169.6l137.6 86.5L256 342.6l-137.6-86.5L256 169.6z" fill="#d80027"/>
</svg>
