<svg xmlns="http://www.w3.org/2000/svg" viewBox="0 0 512 512">
  <path fill="#eee" d="M0 144.7L258.8 39.6 512 144.7v222.6L257 493 0 367.3z"/>
  <path fill="#6da544" d="M0 0v144.7h105.6v-22.174h33.6V144.7h33.3v-22.174h33.6V144.7h33.3v-22.174H273V144.7h33v-22.174h33.6V144.7h33.2v-22.174h33.6V144.7H512V0z"/>
  <path fill="#d80027" d="M0 367.3V512h512V367.3H406.4v22.426h-33.6V367.3h-33.2v22.426H306V367.3h-33v22.426h-33.6V367.3h-33.3v22.426h-33.6V367.3h-33.3v22.426h-33.6V367.3zm339.1-178h-33.4c.2 3.7.4 7.4.4 11.1 0 24.8-6.2 48.8-17 66-3.3 5.2-9 12.6-16.4 17.6v-94.7h-33.4v94.8c-7.5-5-13-12.4-16.4-17.7-10.8-17-17-41-17-65.9 0-3.7.2-7.4.4-11H173c-.24 3.662-.373 7.33-.4 11 0 68.7 36.7 122.5 83.5 122.5s83.5-53.8 83.5-122.5c0-3.7-.1-7.4-.4-11z"/>
</svg>
